<svg width="91" height="91" viewBox="0 0 91 91" fill="none" xmlns="http://www.w3.org/2000/svg">
<path d="M90.7344 45.3698C90.7344 70.4271 70.4219 90.7344 45.3698 90.7344C20.3125 90.7344 0 70.4271 0 45.3698C0 20.3125 20.3125 0 45.3698 0C70.4219 0 90.7344 20.3125 90.7344 45.3698Z" fill="#8AB126"/>
<path d="M87.0755 45.3695C87.0755 68.4007 68.4036 87.0726 45.3724 87.0726C22.3359 87.0726 3.66406 68.4007 3.66406 45.3695C3.66406 22.333 22.3359 3.66113 45.3724 3.66113C68.4036 3.66113 87.0755 22.333 87.0755 45.3695Z" stroke="#FBFBC6" stroke-width="1.33333" stroke-miterlimit="10"/>
<path d="M38.3568 65.7497V61.4632C37.6484 61.5153 36.9766 61.5674 36.2995 61.6142V65.7497H38.3568ZM26.6589 63.3851V65.734H30.2109V63.0674C29.0234 63.1715 27.8672 63.2757 26.6589 63.3851ZM34.5599 65.7497V61.5986C33.9922 61.5674 33.4297 61.4215 32.9401 61.5465C32.5599 61.6455 32.0182 62.0569 31.9818 62.3799C31.8672 63.484 31.9401 64.609 31.9401 65.7497H34.5599ZM50.7214 58.1872V65.7288H52.5495V57.9997C51.9193 58.0674 51.3203 58.1247 50.7214 58.1872ZM59.8568 65.7549C59.8568 63.4997 59.862 61.3069 59.8464 59.109C59.8464 59.0049 59.7161 58.833 59.612 58.8069C59.0234 58.6247 58.4193 58.4736 57.8099 58.3174V65.7549H59.8568ZM47.6172 58.0517C45.2734 57.6403 44.3359 55.9736 43.7682 53.9684C43.2682 54.1715 42.8047 54.3434 42.3568 54.5517C42.2526 54.5986 42.1536 54.7549 42.1432 54.8694C42.0286 56.0882 41.9297 57.3122 41.8203 58.5778C43.2734 59.3955 46.2422 59.1872 47.6172 58.0517ZM54.2682 65.7392H56.0703V65.109C56.0703 62.8434 56.0182 60.5674 56.0911 58.3017C56.1224 57.3486 55.8359 56.6351 55.1849 56.0413C54.4505 56.6403 54.2161 57.3955 54.2474 58.359C54.3151 60.609 54.2682 62.859 54.2682 65.1142V65.7392ZM48.9922 65.7497V59.4528C47.9661 59.8278 46.9349 60.1924 45.9193 60.5986C45.7943 60.6455 45.6849 60.9007 45.6849 61.0622C45.6641 62.2809 45.6745 63.4997 45.6745 64.7184V65.7497H48.9922ZM43.9245 65.7497V60.8747C43.0234 60.6507 42.1797 60.4684 41.3516 60.2288C40.7474 60.0517 40.138 60.4424 40.1276 61.0882C40.1068 62.2132 40.0964 63.3434 40.0859 64.4684C40.0807 64.8851 40.0859 65.3069 40.0859 65.7497H43.9245ZM63.2526 58.4215C62.7891 58.5517 62.4245 58.7132 62.0443 58.7444C61.5807 58.7757 61.5339 59.0101 61.5391 59.3903C61.5495 61.3434 61.5443 63.3017 61.5443 65.2549C61.5443 65.4163 61.5651 65.5726 61.5755 65.7392H67.4089V62.8122C64.4245 62.8903 63.3568 61.1247 63.2526 58.4215ZM67.3359 38.4892V47.9632C67.3359 48.0517 67.3516 48.1403 67.3672 48.2861C68.612 47.8174 69.5547 48.3434 70.4089 49.234C71.987 47.2757 72.5026 45.1559 71.7474 42.8122C71.0443 40.6351 69.5391 39.208 67.3359 38.4892ZM69.2005 61.0778C70.6432 61.2184 71.3464 60.7444 71.5443 59.4059C71.9714 56.5205 71.2943 53.8434 69.8672 51.333C69.6328 50.9215 69.3203 50.5413 68.987 50.1976C68.4557 49.6507 68.1693 49.6507 67.638 50.1872C67.3411 50.484 67.0599 50.8122 66.8464 51.1767C65.3672 53.6142 64.7318 56.2653 64.9974 59.1142C65.1432 60.6403 65.9453 61.2653 67.4505 61.0569V60.4684C67.4505 58.6976 67.4453 56.9215 67.4505 55.1507C67.4557 54.4632 67.7682 54.0986 68.3203 54.1038C68.8359 54.1142 69.1328 54.4424 69.1484 55.0726C69.1641 55.7444 69.1536 56.4163 69.1536 57.1559C69.3203 57.0726 69.3828 57.0413 69.4453 57.0101C69.8776 56.7757 70.2786 56.8069 70.5807 57.208C70.888 57.6142 70.7839 58.0049 70.4505 58.3538C70.2682 58.5361 70.1068 58.7549 69.8984 58.8955C69.0964 59.4319 69.0495 60.2028 69.2005 61.0778ZM40.0651 41.8694C40.2995 41.6611 40.4297 41.5465 40.5547 41.4267C40.987 41.0309 41.4922 41.0049 41.8307 41.359C42.1693 41.708 42.1328 42.208 41.7161 42.6351C41.263 43.0986 40.7995 43.5465 40.3516 44.0101C40.2474 44.1142 40.0911 44.2444 40.0964 44.3538C40.1328 45.1351 40.0859 45.9476 40.2891 46.6924C40.6484 48.0569 41.1849 49.3747 41.5964 50.7288C41.8047 51.4059 41.888 52.1194 42.0286 52.8174C43.3828 52.4424 43.4557 52.3434 43.2943 51.0361C43.2839 50.9424 43.2786 50.8486 43.2734 50.7601C42.987 46.9476 43.2109 43.1559 43.7422 39.3799C43.8047 38.9163 43.6693 38.7288 43.3203 38.5205C39.362 36.1611 34.1641 37.6924 32.0807 41.8017C31.7005 42.5569 31.6953 43.1819 32.2422 43.833C33.0391 42.9215 33.8516 41.9684 35.1641 41.8278C36.5339 41.6767 37.4297 42.583 38.388 43.5257C38.388 42.5986 38.3724 41.7913 38.3932 40.984C38.4089 40.4632 38.7578 40.1455 39.237 40.1455C39.7161 40.1455 40.0286 40.458 40.0599 40.9892C40.0755 41.2392 40.0651 41.4892 40.0651 41.8694ZM59.8099 57.1351C59.8359 57.0049 59.8568 56.9528 59.8568 56.9007C59.8568 54.1819 59.8672 51.4684 59.8516 48.7497C59.8464 48.5622 59.7109 48.3382 59.5755 48.1924C59.0703 47.6507 58.5339 47.1403 58.0182 46.6142C57.513 46.0986 57.4557 45.6611 57.8359 45.2601C58.1953 44.8851 58.7161 44.9424 59.1953 45.4059C59.3828 45.5882 59.5703 45.7757 59.862 46.0674C59.862 45.5882 59.8464 45.2809 59.8672 44.9736C59.8828 44.7757 59.8932 44.4892 60.013 44.4111C60.2786 44.234 60.6276 44.0465 60.9193 44.0726C61.3516 44.109 61.5391 44.4944 61.5391 44.9267C61.5443 46.3694 61.5443 47.8122 61.5443 49.2549V49.8538C61.7214 49.6924 61.7891 49.6299 61.8568 49.5674C62.3255 49.1611 62.7734 49.1403 63.1328 49.4997C63.4766 49.8538 63.4401 50.3486 63.0339 50.7809C62.8411 50.984 62.6641 51.2028 62.4401 51.3642C61.6797 51.9163 61.4661 52.6351 61.5234 53.5569C61.6016 54.7288 61.5443 55.9111 61.5443 57.0934C62.8932 56.9163 63.2995 56.6142 63.4349 55.7497C63.7422 53.7549 64.4141 51.9007 65.4661 50.1767C65.5911 49.9736 65.6536 49.6976 65.6536 49.458C65.6693 46.1872 65.6693 42.9163 65.6641 39.6455C65.6589 37.1038 63.9818 35.0726 61.5286 34.6247C59.2891 34.208 56.8828 35.6142 56.0182 37.8694C55.9089 38.1507 55.8776 38.484 55.9036 38.7861C56.0911 40.8226 56.3672 42.859 56.487 44.9007C56.6589 47.7757 56.6328 50.6559 56.0443 53.5049C56.0078 53.6767 56.0078 53.8799 56.0703 54.0413C56.7526 55.7184 57.9974 56.7288 59.8099 57.1351ZM48.9922 56.4215C49.0026 56.3278 49.0234 56.2757 49.0234 56.2184C49.0234 53.2653 49.0286 50.3069 49.013 47.3538C49.013 47.1611 48.888 46.9319 48.7526 46.7913C48.1016 46.109 47.4245 45.458 46.763 44.7809C46.3359 44.3486 46.3047 43.8694 46.6536 43.5101C47.013 43.1351 47.5182 43.1663 47.9661 43.609C48.2891 43.9267 48.5911 44.2601 48.8984 44.5934C49.0234 44.0622 49.0234 43.6038 49.0234 43.1507C49.0286 42.4892 49.3151 42.1299 49.8359 42.1194C50.3828 42.1038 50.6849 42.4684 50.6849 43.1611C50.6901 45.1976 50.6849 47.2288 50.6901 49.2601C50.6901 49.4163 50.7057 49.5726 50.7161 49.7444C50.7995 49.708 50.8359 49.7028 50.8568 49.6819C51.2526 49.2913 51.6432 48.8955 52.0391 48.5101C52.513 48.0413 53.0339 47.984 53.3932 48.359C53.7786 48.7497 53.7266 49.1976 53.2214 49.708C52.4818 50.458 51.7318 51.1976 50.9922 51.9476C50.8724 52.0726 50.7057 52.2392 50.7005 52.3903C50.6797 53.734 50.6901 55.0726 50.6901 56.4111C52.3516 56.5882 53.3568 56.0153 53.9557 54.5674C54.1224 54.1611 54.263 53.734 54.3516 53.3069C55.1016 49.6611 55.0078 45.9892 54.6068 42.333C54.3151 39.6611 53.7786 37.0205 53.3411 34.3642C53.237 33.7288 53.4349 33.2965 53.9245 33.1819C54.4349 33.0569 54.8464 33.3903 54.9974 34.0361C55.1016 34.5153 55.2109 34.9892 55.3359 35.5622C56.2005 34.4892 57.1693 33.7497 58.3516 33.3017C59.5495 32.8434 60.7891 32.7757 62.0547 32.9997C61.3932 29.3538 56.638 26.958 53.3255 28.5778C53.4818 29.0205 53.6641 29.4632 53.7891 29.9215C53.9609 30.5309 53.4714 31.1559 52.9245 30.984C52.6224 30.8903 52.3151 30.5778 52.1641 30.2861C51.6328 29.2601 51.2266 28.1611 50.6536 27.1559C50.0703 26.1351 49.638 26.1247 49.0755 27.1403C48.4193 28.3486 47.7891 29.5986 47.3724 30.9059C45.3516 37.208 44.5755 43.6872 44.9505 50.2861C45.0286 51.6663 45.3203 53.0674 45.7214 54.4007C46.2005 55.9997 47.263 56.5674 48.9922 56.4215ZM36.2682 59.8799C36.6693 59.8799 36.987 59.9007 37.2995 59.8747C38.9193 59.7601 39.6901 59.2236 40.0911 57.8955C40.237 57.4215 40.3307 56.9267 40.3724 56.4319C40.6432 53.1924 39.9766 50.1247 38.6276 47.1924C38.0703 45.9736 37.4036 44.8278 36.3724 43.9424C35.6797 43.3434 35.2057 43.3278 34.513 43.9267C34.1276 44.2601 33.7734 44.6507 33.4714 45.0674C32.5651 46.2705 31.9609 47.6351 31.4714 49.0517C31.2578 49.6559 30.8047 49.9111 30.3359 49.734C29.8464 49.5465 29.6536 49.0882 29.8828 48.4892C30.2057 47.6663 30.5859 46.8694 30.8984 46.0413C30.9922 45.7965 31.0234 45.4528 30.9245 45.2236C30.4974 44.2497 30.0391 43.2757 29.5286 42.3434C28.9245 41.234 28.1797 40.2184 27.1797 39.4267C26.1693 38.6194 25.3568 38.5778 24.4036 39.4424C23.7161 40.0674 23.0807 40.7913 22.5547 41.5569C21.2057 43.5413 20.3255 45.7549 19.6901 48.0569C18.7995 51.2549 18.4036 54.4944 18.9661 57.8017C19.1745 59.0257 19.5703 60.1872 20.7057 60.8799C22.013 61.6819 23.4818 61.5934 24.9609 61.6247C24.9609 60.3747 24.9714 59.1924 24.9505 58.0101C24.9453 57.8538 24.8255 57.6767 24.7057 57.5517C24.1016 56.9267 23.4818 56.3226 22.8724 55.7028C22.4245 55.2497 22.3776 54.7497 22.737 54.3903C23.112 54.0101 23.5755 54.0465 24.0443 54.4997C24.3255 54.7653 24.6016 55.0465 24.9609 55.4059V48.4892C24.9661 47.859 25.2943 47.4684 25.8047 47.4736C26.3099 47.4788 26.6224 47.8642 26.6224 48.5049C26.6276 49.1559 26.6276 49.8069 26.6276 50.4944C27.3151 50.1715 27.7057 50.2132 27.987 50.5986C28.2891 51.0101 28.2057 51.3799 27.6953 51.9007C27.4714 52.1247 27.263 52.3642 27.0234 52.5622C26.7109 52.8174 26.612 53.1142 26.612 53.5257C26.6328 56.0205 26.6276 58.5153 26.6276 61.0049V61.6455C28.1172 61.5674 29.5651 61.6715 30.9089 60.8642C29.4766 59.8486 28.9505 58.4059 28.8516 56.8122C28.7682 55.5257 28.8255 54.234 28.8568 52.9424C28.8724 52.3069 29.2474 51.9736 29.7839 52.0101C30.3099 52.0465 30.5443 52.4319 30.5286 53.0882C30.4974 54.2705 30.4349 55.4528 30.513 56.6247C30.6693 59.0882 32.2891 60.333 34.6016 59.8069V59.2132C34.6016 56.5361 34.5964 53.859 34.6016 51.1767C34.6016 50.4736 34.888 50.1142 35.4401 50.1247C35.9818 50.1351 36.263 50.4944 36.263 51.2028C36.2682 52.2965 36.263 53.3851 36.2682 54.4736C36.2682 54.6038 36.2943 54.7392 36.3255 55.0153C36.8568 54.458 37.2786 53.9944 37.7214 53.5517C38.0234 53.2497 38.3724 53.1299 38.7734 53.359C39.2943 53.6559 39.3516 54.2809 38.8776 54.7653C38.1172 55.5465 37.3359 56.3069 36.5755 57.083C36.4401 57.2184 36.2891 57.4111 36.2786 57.5778C36.2474 58.3278 36.2682 59.083 36.2682 59.8799ZM16.9766 54.0049C17.0859 53.0361 17.1589 52.0622 17.3203 51.0986C18.0026 46.9007 19.2995 42.9215 21.9766 39.5309C22.5651 38.7809 23.4245 38.2444 24.138 37.583C24.2839 37.4476 24.4089 37.2028 24.4089 37.0049C24.4245 34.5309 24.3724 32.0517 24.4349 29.5778C24.5078 26.7392 25.8672 24.6819 28.4453 23.458C28.6276 23.3694 28.8255 23.3069 29.0234 23.2861C29.4453 23.2444 29.7318 23.4476 29.8724 23.8434C30.0234 24.2549 29.862 24.5726 29.5286 24.8017C29.3151 24.9424 29.0599 25.0153 28.8307 25.1403C27.237 25.9944 26.237 27.3226 26.1693 29.1403C26.0807 31.7757 26.1484 34.4215 26.1484 36.9372C26.9401 37.3955 27.737 37.7497 28.3984 38.2705C29.0651 38.7965 29.6016 39.4944 30.2266 40.1507C30.237 39.9788 30.2526 39.8226 30.2526 39.6663C30.2526 37.8955 30.263 36.1194 30.2422 34.3486C30.237 34.1038 30.112 33.8122 29.9453 33.6299C29.5078 33.1299 29.0182 32.6767 28.5443 32.208C27.8984 31.5569 27.8151 31.1247 28.2474 30.6976C28.6484 30.3122 29.1328 30.4111 29.7214 30.9997C29.862 31.1403 30.0078 31.2705 30.2526 31.5049C30.2526 31.0726 30.2474 30.7653 30.2578 30.4632C30.2734 29.8069 30.5703 29.4684 31.1172 29.484C31.6224 29.4944 31.9297 29.8538 31.9297 30.4632C31.9401 32.0309 31.9349 33.6038 31.9349 35.3017C32.1328 35.1247 32.2526 35.0049 32.388 34.9059C32.763 34.6299 33.1432 34.6247 33.4974 34.9319C33.8255 35.2236 33.862 35.7236 33.5547 36.083C33.2682 36.4163 32.9661 36.7549 32.6224 37.0257C31.9974 37.5101 31.7839 38.109 31.987 38.8955C32.0391 38.8694 32.1068 38.8538 32.1484 38.8069C33.1641 37.734 34.362 36.9267 35.737 36.3642C35.8828 36.3069 36.0391 36.0517 36.0391 35.8903C36.0599 33.6924 36.1224 31.4892 36.0286 29.2913C35.9453 27.3278 34.9141 25.9007 33.138 25.0361C32.9349 24.9372 32.6536 24.8851 32.5651 24.7236C32.4089 24.4476 32.2526 24.0569 32.3359 23.7965C32.4089 23.5674 32.7995 23.3903 33.0807 23.2913C33.237 23.234 33.4766 23.3434 33.6589 23.4267C36.1536 24.583 37.5807 26.5153 37.7005 29.2809C37.7891 31.2392 37.7266 33.1976 37.7266 35.1559C37.7318 35.359 37.7266 35.5569 37.7266 35.8278C40.0026 35.5049 42.0964 35.9163 44.0182 36.9736C44.5443 34.9215 44.9766 32.8642 45.6224 30.8799C46.1328 29.3174 46.8724 27.8174 47.6016 26.333C47.8464 25.8278 48.3255 25.4007 48.7786 25.0413C49.4401 24.5153 50.2266 24.484 50.8828 25.0101C51.4297 25.4476 51.8776 26.0309 52.3047 26.6038C52.5182 26.8799 52.6328 26.984 53.0026 26.859C57.8151 25.2601 62.7214 28.0205 63.8099 32.958C63.9297 33.5049 64.1849 33.8226 64.5911 34.1819C65.2891 34.7965 65.8516 35.5569 66.487 36.2497C66.6484 36.4215 66.8411 36.6403 67.0547 36.6819C73.3984 38.0674 75.8776 45.3799 71.6693 50.3226C71.5859 50.4215 71.5078 50.5205 71.4193 50.6247C72.5547 52.7028 73.2526 54.9111 73.3307 57.2705C73.362 58.3069 73.2682 59.3799 73.0234 60.3903C72.6693 61.8434 71.5339 62.6507 70.0339 62.7653C69.7578 62.7861 69.487 62.8174 69.1849 62.8486V65.7705H70.8359C71.5026 65.7705 72.1693 65.7601 72.8359 65.7757C73.3359 65.7965 73.6953 66.1611 73.7005 66.609C73.7109 67.0726 73.3724 67.4059 72.8516 67.4476C72.6693 67.4632 72.4818 67.458 72.2995 67.458C54.3151 67.458 36.3359 67.458 18.3568 67.4632C17.8255 67.4632 17.3307 67.4424 16.9766 66.9788V66.3174C17.2474 65.8851 17.6432 65.7601 18.1484 65.7653C20.2109 65.7809 22.2786 65.7705 24.3464 65.7705H24.9245V63.359C24.112 63.3069 23.3411 63.2757 22.5755 63.1976C20.3516 62.9684 18.6589 61.9684 17.8047 59.8122C17.5911 59.2705 17.4245 58.6976 17.3203 58.1194C17.1641 57.2757 17.0859 56.4163 16.9766 55.5569V54.0049Z" fill="#FBFBC6"/>
</svg>
