<svg
          width="69"
          height="67"
          viewBox="0 0 69 67"
          fill="none"
          xmlns="http://www.w3.org/2000/svg"
        >
          <path
            d="M0.00549172 59.9889C0.15926 59.8633 0.296553 59.6886 0.477779 59.6231C0.889658 59.4703 1.29055 59.5358 1.54866 59.9234C1.78481 60.2727 1.76284 60.6602 1.48276 60.9768C1.18072 61.3207 0.785315 61.3698 0.38442 61.1569C0.236144 61.0805 0.126309 60.9168 0 60.7912C0 60.5238 0 60.2563 0 59.9889H0.00549172Z"
            fill="black"
          />
          <path
            d="M28.673 59.5512H29.3979C39.9475 59.5512 50.4971 59.5512 61.0467 59.5512C61.2498 59.5512 61.453 59.5512 61.6507 59.5512C62.4415 59.5621 62.8424 59.8514 62.837 60.4191C62.837 60.954 62.447 61.2706 61.7112 61.3197C61.464 61.3361 61.2169 61.3306 60.9698 61.3306C43.3029 61.3306 25.6361 61.3306 7.96921 61.3306C7.65618 61.3306 7.33766 61.3415 7.03013 61.2979C6.41505 61.216 6.05809 60.8448 6.12399 60.3427C6.20088 59.7805 6.56882 59.5567 7.11799 59.5567C8.57879 59.5567 10.0341 59.5567 11.4949 59.5567C12.6042 59.5567 13.719 59.5567 14.9821 59.5567C14.3451 59.0982 13.8289 58.7543 13.3346 58.3777C9.07854 55.1081 7.19488 49.4532 8.61723 44.2296C10.0341 39.0278 14.4989 35.1087 19.8039 34.3773C20.7429 34.2463 21.682 34.2463 22.6266 34.2736C23.1209 34.2899 23.3131 34.1043 23.3021 33.6185C23.2801 32.7288 23.3295 31.8337 23.2856 30.944C23.2581 30.2944 23.4998 30.0924 24.1478 30.1143C24.7299 30.1361 25.1418 30.1416 25.0979 30.9167C25.0375 31.9592 25.0979 33.0127 25.0814 34.0607C25.0759 34.4428 25.1803 34.6829 25.5866 34.803C27.355 35.3106 28.9586 36.1512 30.3644 37.3357C30.7983 37.7014 30.996 37.3739 31.2431 37.1283C34.6425 33.755 38.0364 30.3763 41.4412 27.003C41.6664 26.7792 41.8751 26.3262 42.2156 26.4626C42.6329 26.6264 42.9789 26.9921 43.3414 27.2923C43.4787 27.4069 43.3633 27.5379 43.2755 27.6416C43.1546 27.7726 43.0283 27.8982 42.8965 28.0237C39.4697 31.4297 36.0484 34.8467 32.5996 38.2363C32.1218 38.7057 32.0504 39.0114 32.5172 39.5518C33.3739 40.5343 34.0164 41.6751 34.4283 42.9141C34.6315 43.5255 34.9555 43.6892 35.5596 43.6565C36.4767 43.6128 37.3993 43.6728 38.3219 43.6346C38.915 43.6128 39.1512 43.8366 39.0963 44.4097C39.0798 44.5626 39.0908 44.7263 39.1237 44.8737C39.2226 45.3158 38.9864 45.425 38.6075 45.4195C37.6629 45.4195 36.7238 45.425 35.7793 45.4195C35.3509 45.4195 35.1971 45.5505 35.2466 46.0199C35.8012 51.6093 33.7363 55.9923 29.0849 59.18C28.9586 59.2674 28.8268 59.3547 28.7004 59.4475C28.6895 59.4584 28.695 59.4857 28.6785 59.5676L28.673 59.5512ZM33.5496 47.8157C33.5551 41.2057 28.3819 36.0366 21.7589 36.0311C15.1359 36.0311 9.9627 41.1893 9.9627 47.8103C9.9627 54.2675 15.2402 59.5348 21.7205 59.5512C28.2501 59.5621 33.5441 54.3112 33.5496 47.8157Z"
            fill="black"
          />
          <path
            d="M34.5215 62.7889C37.0147 62.7889 39.5025 62.7889 41.9957 62.7889C42.1989 62.7889 42.4021 62.7779 42.5998 62.7998C43.1215 62.8489 43.5114 63.0672 43.5169 63.6622C43.5224 64.2517 43.149 64.4864 42.6218 64.541C42.4021 64.5628 42.1715 64.5519 41.9518 64.5519C40.2713 64.5519 38.5854 64.5519 36.9049 64.5574C36.6523 64.5574 36.2898 64.4864 36.3008 64.8903C36.3118 65.2779 36.6743 65.2069 36.9269 65.2069C37.7342 65.2178 38.5414 65.2124 39.3487 65.2124C39.6178 65.2124 39.8924 65.2124 40.1395 65.3434C40.513 65.5344 40.7491 65.8182 40.6612 66.2549C40.5789 66.6698 40.3208 66.9372 39.8759 66.9536C39.2499 66.9754 38.6183 66.9645 37.9923 66.9645C35.3013 66.9645 32.6049 66.9645 29.914 66.9645C29.1122 66.9645 28.7168 66.6807 28.7058 66.1185C28.7003 65.5945 29.1616 65.2342 29.903 65.2178C30.6224 65.2015 31.3418 65.2178 32.0557 65.2069C32.3083 65.2069 32.6708 65.2724 32.6763 64.8849C32.6818 64.4864 32.3193 64.5574 32.0667 64.5574C30.3862 64.5519 28.7003 64.5574 27.0198 64.5574C26.8166 64.5574 26.6134 64.5628 26.4157 64.5519C25.8611 64.5137 25.4492 64.2954 25.4602 63.6677C25.4712 63.0345 25.8995 62.8434 26.4487 62.8052C26.6519 62.7943 26.8551 62.7998 27.0528 62.7998C29.546 62.7998 32.0338 62.7998 34.527 62.7998L34.5215 62.7889Z"
            fill="black"
          />
          <path
            d="M28.3144 24.5242C28.3144 26.8058 26.4857 28.6507 24.2341 28.6453C21.966 28.6398 20.0604 26.7349 20.0713 24.4915C20.0823 22.2481 22.0209 20.3431 24.267 20.3704C26.5516 20.3977 28.3144 22.2099 28.3144 24.5242Z"
            fill="black"
          />
          <path
            d="M46.3627 26.5456C44.0232 26.5347 42.2659 24.7498 42.2823 22.4027C42.2988 20.1375 44.133 18.3417 46.4176 18.3526C48.6802 18.358 50.5419 20.2521 50.5254 22.5282C50.5089 24.7825 48.6747 26.5565 46.3627 26.5456ZM46.3901 20.5032C45.2753 20.5032 44.3967 21.3383 44.3747 22.4191C44.3527 23.5162 45.3248 24.4987 46.4176 24.4823C47.5159 24.4659 48.3562 23.609 48.3617 22.5009C48.3617 21.3492 47.5324 20.5032 46.3901 20.5032Z"
            fill="black"
          />
          <path
            d="M48.8989 44.0671C48.8989 46.3159 46.9988 48.21 44.7362 48.2155C42.4901 48.2155 40.5735 46.2996 40.5899 44.0562C40.6064 41.8346 42.4736 40.0225 44.7582 40.0225C47.0647 40.0225 48.8989 41.8128 48.8989 44.0671ZM44.7417 46.4688C46.1421 46.4688 47.1525 45.4535 47.1416 44.0562C47.1306 42.7353 46.0762 41.6873 44.7472 41.6763C43.4401 41.6654 42.3143 42.8008 42.3198 44.1217C42.3198 45.4208 43.4072 46.4688 44.7417 46.4688Z"
            fill="black"
          />
          <path
            d="M60.793 11.2669C60.793 13.7668 59.0246 15.1642 57.1739 14.6675C56.6247 14.5201 56.3117 14.6511 55.9493 15.0223C54.6038 16.3978 53.2144 17.7296 51.8689 19.1051C51.49 19.4927 51.2593 19.5745 50.9024 19.0614C50.2983 18.1881 50.2653 18.2099 51.0287 17.4512C52.2643 16.2231 53.4945 14.9786 54.7466 13.7668C55.1145 13.4121 55.2189 13.0955 55.0651 12.5933C54.7191 11.4307 55.0816 10.4209 55.9877 9.64579C56.9268 8.84341 58.0196 8.70695 59.1345 9.24187C60.2163 9.76041 60.7765 10.6501 60.7875 11.2669H60.793ZM59.0027 11.851C59.0027 11.1632 58.5469 10.732 57.8494 10.7429C57.2014 10.7538 56.7511 11.196 56.7456 11.84C56.7346 12.506 57.2069 12.9863 57.8769 12.9863C58.5688 12.9863 59.0082 12.5387 59.0082 11.851H59.0027Z"
            fill="black"
          />
          <path
            d="M52.7539 43.6241C53.2482 43.6241 53.7424 43.6022 54.2312 43.6295C54.7144 43.6568 54.9835 43.5258 55.1757 43.0182C55.6371 41.7846 56.7299 41.146 58.0918 41.206C59.2671 41.2552 60.283 42.0248 60.6565 43.1437C61.1068 44.5029 60.5302 45.9712 59.2781 46.6425C58.0205 47.3194 56.4718 47.0192 55.5986 45.8784C55.3185 45.5127 55.0165 45.3871 54.5772 45.398C53.4129 45.4199 52.2432 45.398 51.0789 45.409C50.6012 45.409 50.2662 45.3107 50.365 44.7376C50.4419 44.2682 50.1453 43.575 51.0734 43.6186C51.6336 43.6459 52.1938 43.6186 52.7539 43.6186V43.6241ZM58.9925 44.0717C58.9925 43.4167 58.5641 42.9909 57.9051 42.9855C57.2132 42.98 56.7409 43.4276 56.7409 44.0771C56.7409 44.7048 57.2626 45.2234 57.8832 45.2179C58.5532 45.2179 58.998 44.7485 58.9925 44.0662V44.0717Z"
            fill="black"
          />
          <path
            d="M51.282 52.8881C51.2985 52.7899 51.271 52.4679 51.3973 52.2277C51.7159 51.6163 51.5182 51.2233 51.0349 50.8031C50.3155 50.1699 49.6675 49.4548 48.97 48.7998C48.6515 48.4996 48.6021 48.2758 48.9151 47.9156C49.6729 47.0204 49.6565 47.004 50.4912 47.8283C51.1777 48.4996 51.8751 49.1655 52.5396 49.8533C52.8636 50.1863 53.1602 50.3063 53.6544 50.2245C55.3788 49.9461 56.7847 50.9668 57.0922 52.648C57.3559 54.089 56.3124 55.5682 54.7747 55.923C53.0174 56.3324 51.293 54.9296 51.282 52.8936V52.8881ZM54.2091 51.9548C53.5501 51.9439 53.0998 52.3587 53.0723 53.0028C53.0449 53.696 53.4787 54.1763 54.1377 54.1982C54.7747 54.2145 55.3019 53.7233 55.3294 53.0956C55.3569 52.4406 54.8956 51.9711 54.2091 51.9548Z"
            fill="black"
          />
          <path
            d="M36.549 15.1375C36.549 17.5937 34.5171 18.9965 32.6115 18.2214C32.1117 18.0195 31.8481 18.1232 31.5186 18.4725C30.7937 19.2312 30.0249 19.9517 29.2945 20.705C28.9869 21.0216 28.7673 21.0816 28.4213 20.7214C27.6195 19.8917 27.5975 19.9081 28.4433 19.0675C29.1242 18.3907 29.7942 17.6974 30.4972 17.0424C30.8157 16.7477 30.8926 16.4584 30.8047 16.0381C30.5631 14.87 31.0024 13.9257 31.925 13.2216C32.8586 12.5065 33.9075 12.4301 34.9619 12.9541C36.0273 13.4836 36.5271 14.3733 36.549 15.1375ZM33.6933 16.6713C34.3029 16.6604 34.8631 16.0927 34.8356 15.5032C34.8082 14.8918 34.259 14.3788 33.6384 14.3842C33.0233 14.3897 32.4906 14.941 32.5071 15.5523C32.5291 16.18 33.0618 16.6876 33.6878 16.6713H33.6933Z"
            fill="black"
          />
          <path
            d="M23.3065 16.7025C23.3065 16.4787 23.2955 16.2549 23.3065 16.0311C23.3614 15.2288 23.29 14.5956 22.4168 14.1043C21.3679 13.5094 21.0494 12.0465 21.4667 10.8839C21.917 9.6394 23.0483 8.8916 24.3883 8.9571C25.58 9.01714 26.6893 9.88502 27.0243 11.0204C27.3868 12.2649 26.931 13.6458 25.7887 14.279C25.1901 14.612 25.0528 15.005 25.0803 15.6163C25.1187 16.4842 25.0748 17.3575 25.0967 18.2254C25.1077 18.7003 24.9595 18.9077 24.4432 18.9077C23.3065 18.9131 23.3064 18.935 23.301 17.7723C23.301 17.4176 23.301 17.0573 23.301 16.7025H23.3065ZM24.2236 10.742C23.5755 10.742 23.0703 11.2332 23.0758 11.8773C23.0813 12.4887 23.5646 12.969 24.1851 12.9799C24.8551 12.9908 25.3549 12.5269 25.3658 11.8828C25.3768 11.2387 24.8826 10.7529 24.2236 10.7474V10.742Z"
            fill="black"
          />
          <path
            d="M18.4864 15.4981C18.4864 15.6564 18.5414 15.8365 18.4755 15.9621C18.0746 16.7917 18.5743 17.2721 19.118 17.7688C19.6781 18.2819 20.1944 18.8386 20.7381 19.3681C21.0017 19.6246 21.0071 19.8157 20.7216 20.0831C19.788 20.9564 19.799 20.9674 18.8818 20.0504C18.6457 19.8156 18.3876 19.5973 18.1734 19.3408C17.5364 18.5766 16.9103 18.1399 15.7461 18.3856C14.2249 18.7076 12.7421 17.2557 12.6597 15.6509C12.5774 14.0735 13.9668 12.6325 15.5978 12.6106C17.1794 12.5888 18.4974 13.9042 18.4864 15.5035V15.4981ZM15.5978 14.3791C14.9827 14.3791 14.4555 14.9086 14.4555 15.5308C14.4555 16.1531 14.9717 16.6662 15.6143 16.6716C16.2348 16.6716 16.7785 16.1313 16.7675 15.5199C16.7566 14.8977 16.2294 14.3846 15.6033 14.3791H15.5978Z"
            fill="black"
          />
          <path
            d="M54.1915 33.0406C55.4107 33.0461 56.2948 33.6137 56.822 34.6836C57.3822 35.8244 57.201 36.9215 56.3662 37.8549C55.5754 38.7337 54.543 39.0939 53.3842 38.7009C52.8405 38.5153 52.522 38.6409 52.1651 39.023C51.5225 39.7053 50.8251 40.3384 50.1716 41.0098C49.886 41.2991 49.7157 41.3319 49.4576 40.9552C48.7602 39.94 48.7382 39.9563 49.6279 39.0776C50.1057 38.6081 50.567 38.1223 51.0667 37.6748C51.4017 37.3745 51.4841 37.0907 51.3687 36.6268C50.8965 34.7491 52.2639 33.0406 54.197 33.0352L54.1915 33.0406ZM55.3283 35.939C55.3393 35.284 54.867 34.8255 54.1805 34.8255C53.5215 34.8255 53.0822 35.2458 53.0712 35.8953C53.0602 36.5831 53.4995 37.058 54.164 37.0634C54.8011 37.0634 55.3173 36.5667 55.3283 35.9335V35.939Z"
            fill="black"
          />
          <path
            d="M60.7871 22.8775C60.7871 24.1166 60.0457 25.1864 58.8924 25.6067C57.7611 26.0215 56.4102 25.6995 55.6688 24.7388C55.3063 24.2694 54.9274 24.1056 54.3673 24.1384C53.7412 24.1766 53.1151 24.1329 52.4836 24.1493C52.0497 24.1602 51.896 24.0347 51.9454 23.5707C52.0772 22.3753 52.0552 22.3753 53.2744 22.3753C53.3842 22.3753 53.4996 22.359 53.6094 22.3753C54.4716 22.5009 55.0208 22.2716 55.4217 21.3819C55.9544 20.2084 57.3932 19.7226 58.6343 20.0719C59.9578 20.4431 60.7816 21.5184 60.7871 22.8775ZM57.882 21.7367C57.2449 21.7476 56.7397 22.2607 56.7397 22.8939C56.7397 23.5325 57.2614 24.0292 57.9094 24.0129C58.5355 23.9965 58.9913 23.5216 58.9968 22.8884C58.9968 22.2007 58.541 21.7258 57.882 21.7367Z"
            fill="black"
          />
          <path
            d="M45.7809 16.8886C45.2702 17.0032 45.045 16.7521 45.0944 16.2009C45.1109 16.0262 45.078 15.8406 45.0944 15.6659C45.1603 15.0437 45.0011 14.6234 44.3805 14.2686C43.2657 13.6409 42.8154 12.2872 43.1668 11.07C43.5238 9.83641 44.6167 8.98491 45.8798 8.95216C47.2087 8.91941 48.3346 9.70541 48.7519 10.9499C49.1528 12.1562 48.7684 13.5426 47.681 14.1867C46.9781 14.6016 46.8408 15.1037 46.8738 15.8242C46.9177 16.8449 46.8738 16.8559 45.7809 16.8886ZM47.1209 11.8669C47.1209 11.1955 46.6596 10.737 45.9786 10.7425C45.2976 10.748 44.8528 11.2119 44.8638 11.8942C44.8748 12.5438 45.3141 12.975 45.9676 12.9859C46.6486 12.9913 47.1154 12.5383 47.1154 11.8669H47.1209Z"
            fill="black"
          />
          <path
            d="M46.8014 64.5462C46.2851 64.5462 45.7744 64.5626 45.2582 64.5462C44.7255 64.5244 44.363 64.2679 44.3191 63.7056C44.2807 63.198 44.6541 62.8214 45.2637 62.8105C46.2906 62.7832 47.3176 62.7886 48.3445 62.8105C48.8827 62.8214 49.2397 63.0943 49.2836 63.6511C49.3221 64.1532 48.9376 64.5026 48.3336 64.5517C48.2896 64.5517 48.2457 64.5517 48.2018 64.5517C47.735 64.5517 47.2627 64.5517 46.7959 64.5517L46.8014 64.5462Z"
            fill="black"
          />
          <path
            d="M22.1219 64.5461C21.6331 64.5461 21.1389 64.5625 20.6501 64.5461C20.0405 64.5188 19.6506 64.164 19.6836 63.6673C19.7165 63.1105 20.068 62.8212 20.6062 62.8103C21.6551 62.7885 22.704 62.7885 23.7529 62.8103C24.2911 62.8212 24.6536 63.1214 24.6481 63.6837C24.6426 64.2459 24.2692 64.5188 23.731 64.5406C23.1983 64.5625 22.6601 64.5406 22.1219 64.5406V64.5461Z"
            fill="black"
          />
          <path
            d="M38.3658 7.37474C38.3658 8.07341 37.7837 8.6247 37.0533 8.61924C36.3503 8.61378 35.8176 8.08978 35.8011 7.39657C35.7847 6.67061 36.3338 6.1084 37.0587 6.1084C37.7672 6.1084 38.3658 6.68698 38.3658 7.37474Z"
            fill="black"
          />
          <path
            d="M65.1128 59.5495C65.2227 59.5495 65.338 59.5495 65.4478 59.5495C66.03 59.5222 66.4748 59.7023 66.5572 60.341C66.6231 60.8541 66.1837 61.2689 65.5192 61.3235C65.1183 61.3562 64.7119 61.389 64.322 61.2743C63.8443 61.1379 63.5148 60.8431 63.5807 60.3191C63.6466 59.817 63.9815 59.544 64.5087 59.5495C64.7119 59.5495 64.9096 59.5495 65.1128 59.5495Z"
            fill="black"
          />
          <path
            d="M3.88612 59.5521C4.06735 59.5521 4.24308 59.5521 4.42431 59.5521C4.98447 59.5412 5.34143 59.8141 5.39085 60.3545C5.44028 60.9167 5.06135 61.206 4.55062 61.2987C4.11128 61.3806 3.65547 61.3861 3.22162 61.2878C2.7109 61.1732 2.35943 60.8675 2.41983 60.3108C2.48024 59.7922 2.83171 59.5521 3.35343 59.5521C3.53465 59.5521 3.71039 59.5521 3.89161 59.5521H3.88612Z"
            fill="black"
          />
          <path
            d="M3.45595 17.3568C3.21431 17.4932 3.23628 18.0227 2.90678 17.8316C2.4949 17.5969 3.11546 17.3895 3.04407 17.1166C2.87383 16.8764 2.34662 17.2913 2.37408 16.8382C2.39605 16.4507 2.82989 16.7673 3.04407 16.6581C3.12645 16.3688 2.54982 16.145 2.90678 15.9103C3.2253 15.7029 3.21431 16.276 3.48341 16.3088C3.75799 16.2651 3.73053 15.6374 4.10397 15.9103C4.40602 16.1286 3.85684 16.3251 3.93922 16.609C4.12594 16.7836 4.62019 16.4234 4.60372 16.8873C4.58724 17.2203 4.16987 16.9256 3.97217 17.0948C3.8184 17.3622 4.43897 17.6133 4.07651 17.8207C3.68111 18.05 3.73603 17.4605 3.45595 17.3513V17.3568Z"
            fill="black"
          />
          <path
            d="M69.0033 60.3926C68.9704 60.933 68.7013 61.2386 68.1741 61.2714C67.6688 61.3041 67.2789 60.9166 67.2734 60.4144C67.2734 59.9123 67.6524 59.5356 68.1686 59.5629C68.7013 59.5902 68.9594 59.9013 69.0033 60.3926Z"
            fill="black"
          />
          <path
            d="M68.3041 21.2768C68.2547 21.7299 67.9911 22.0465 67.4749 22.0956C67.0191 22.1392 66.5468 21.6753 66.5852 21.2168C66.6291 20.7092 66.9477 20.4144 67.4529 20.3817C67.8922 20.3489 68.2986 20.7747 68.3041 21.2768Z"
            fill="black"
          />
          <path
            d="M14.0207 9.84271C13.5484 9.8045 13.2299 9.49883 13.2354 8.9912C13.2354 8.47266 13.5814 8.16699 14.1031 8.16699C14.6413 8.16699 14.9159 8.51087 14.9488 9.0185C14.9818 9.46608 14.5479 9.85362 14.0207 9.84817V9.84271Z"
            fill="black"
          />
          <path
            d="M63.7201 8.96933C64.2363 8.96933 64.6262 9.37324 64.6152 9.83175C64.6097 10.2848 64.1869 10.6887 63.742 10.6778C63.2917 10.6669 62.8634 10.2466 62.8963 9.80445C62.9348 9.28045 63.2533 9.01845 63.7201 8.96387V8.96933Z"
            fill="black"
          />
          <path
            d="M25.6044 1.6923C25.0717 1.68139 24.6928 1.29384 24.7312 0.818967C24.7751 0.300423 25.0827 0.0111302 25.6044 0.000213459C26.0712 -0.0107033 26.4556 0.398674 26.4226 0.868092C26.3842 1.39755 26.0602 1.64864 25.6044 1.6923Z"
            fill="black"
          />
          <path
            d="M64.2243 1.10131C64.2517 0.784726 63.7794 0.6046 64.054 0.397183C64.433 0.113348 64.4055 0.746518 64.6801 0.784726C64.9492 0.746518 64.9327 0.17339 65.2512 0.386266C65.5588 0.593684 65.059 0.812018 65.0975 1.09039C65.2677 1.31419 65.7729 0.87206 65.7675 1.3251C65.7675 1.7181 65.2952 1.36877 65.103 1.58165C65.0645 1.70173 65.1634 1.77269 65.2238 1.86002C65.3116 1.98556 65.4599 2.12202 65.2842 2.25848C65.0755 2.42769 64.9712 2.24211 64.8723 2.08381C64.7735 1.92552 64.6746 1.75086 64.4824 1.99648C64.3835 2.12202 64.3506 2.41132 64.1199 2.28577C63.8673 2.14386 64.098 1.9419 64.1639 1.76723C64.1858 1.70719 64.1913 1.64169 64.2023 1.59802C64.0485 1.37423 63.5982 1.69081 63.6147 1.31419C63.6257 0.948477 64.0266 1.21048 64.2133 1.09585L64.2243 1.10131Z"
            fill="black"
          />
          <path
            d="M50.4024 3.55042C50.1992 3.80696 49.6226 3.79605 49.9851 4.27092C50.0565 4.36372 49.8148 4.49472 49.8038 4.45651C49.5842 3.81242 48.8153 4.6148 48.9087 4.2873C49.046 3.79059 48.7494 3.77967 48.4639 3.59955C48.6945 3.43034 49.2547 3.5013 48.8812 3.02642C48.8098 2.93363 48.9801 2.76988 48.9856 2.78079C49.2217 3.43034 49.9906 2.59521 49.9247 2.95C49.8313 3.44125 50.0345 3.474 50.4024 3.55042Z"
            fill="black"
          />
          <path
            d="M21.1059 57.182C20.4579 57.1547 19.7495 56.9418 19.1619 56.456C18.8488 56.1995 18.6292 56.1776 18.2832 56.4014C17.1409 57.1383 16.5039 57.0619 15.5483 56.1121C14.6751 55.2443 13.802 54.3818 12.9398 53.503C12.1105 52.6624 12.0556 51.8874 12.786 50.9431C14.7081 48.4486 16.6412 45.9596 18.5852 43.487C19.6616 42.1169 20.6831 42.0569 21.9022 43.285C23.4674 44.8515 25.016 46.4345 26.5592 48.0174C27.383 48.8634 27.2676 50.0206 26.3011 50.7356C25.708 51.1723 25.1149 51.6199 24.4888 52.0129C24.022 52.3077 23.9012 52.5697 24.0989 53.1428C24.8074 55.1678 23.3301 57.1929 21.1005 57.1874L21.1059 57.182ZM17.1574 55.0914C17.2727 55.0259 17.432 54.944 17.5748 54.8458C20.0186 53.11 22.4569 51.3688 24.9062 49.644C25.2796 49.382 25.3071 49.1855 24.9831 48.8634C23.5662 47.4388 22.1549 46.0033 20.76 44.5568C20.4085 44.1911 20.1724 44.1965 19.8593 44.6059C18.0306 46.9748 16.1963 49.3329 14.3456 51.6854C14.093 52.0074 14.0711 52.2367 14.3841 52.5369C15.1584 53.2792 15.9053 54.0489 16.6686 54.8076C16.7949 54.9331 16.9048 55.0805 17.1574 55.0914ZM21.062 55.4353C22.0121 55.4462 22.5887 54.9168 22.5722 54.1635C22.5722 53.9834 22.5448 53.7923 22.38 53.6886C22.2263 53.5958 22.0835 53.7214 21.9572 53.8087C21.4849 54.1417 21.0181 54.4801 20.5513 54.8185C20.2053 55.0641 20.3096 55.2497 20.6501 55.3643C20.8149 55.4189 20.9961 55.4298 21.0565 55.4408L21.062 55.4353Z"
            fill="black"
          />
          <path
            d="M29.5561 42.2154C29.5616 42.4392 29.3969 42.6739 29.1772 42.8759C28.3974 43.6019 27.6121 44.3333 26.8268 45.0592C26.4094 45.4413 25.9646 45.5287 25.5142 45.1138C25.1518 44.7754 25.1738 44.235 25.6076 43.8202C26.4094 43.0451 27.2277 42.2919 28.0514 41.5441C28.3315 41.2875 28.6555 41.1674 29.0344 41.3421C29.3694 41.5004 29.5452 41.7569 29.5507 42.2209L29.5561 42.2154Z"
            fill="black"
          />
          <path
            d="M30.1023 46.0648C30.5965 46.0648 31.0908 46.0375 31.5795 46.0702C32.1177 46.1084 32.4802 46.4032 32.4692 46.9599C32.4582 47.5167 32.0848 47.806 31.5466 47.8169C30.5855 47.8387 29.6245 47.8387 28.6634 47.8005C28.1143 47.7787 27.6969 47.5222 27.7134 46.9054C27.7298 46.2995 28.1307 46.0539 28.6964 46.0429C29.1687 46.032 29.6355 46.0429 30.1078 46.0429C30.1078 46.0484 30.1078 46.0539 30.1078 46.0648H30.1023Z"
            fill="black"
          />
          <path
            d="M24.2703 41.031C24.2703 41.4786 24.2922 41.9262 24.2703 42.3683C24.2428 42.876 23.9682 43.2253 23.441 43.2526C22.9028 43.2799 22.5733 42.9251 22.5459 42.4393C22.4964 41.4841 22.4964 40.5234 22.5459 39.5682C22.5733 39.0715 22.9138 38.7331 23.441 38.7549C24.0067 38.7822 24.2648 39.1534 24.2757 39.6937C24.2867 40.1413 24.2757 40.5835 24.2757 41.031C24.2757 41.031 24.2757 41.031 24.2703 41.031Z"
            fill="black"
          />
        </svg>