<svg width="384" height="353" viewBox="0 0 384 353" fill="none" xmlns="http://www.w3.org/2000/svg">
<path d="M383.998 133.102C382.188 136.032 379.938 138.382 376.138 137.382C372.668 136.472 371.198 133.922 371.208 130.352C371.258 118.482 371.228 106.602 371.228 94.7323C371.228 93.3823 371.228 92.0423 371.228 90.4723H12.7783C12.7783 91.7223 12.7783 93.0323 12.7783 94.3523C12.7783 158.342 12.7783 222.322 12.7783 286.312C12.7783 296.612 17.5483 301.342 27.9583 301.352C47.8283 301.362 67.6983 301.352 87.5683 301.372C89.1783 301.372 90.8583 301.372 92.3883 301.802C95.5683 302.682 97.0783 305.002 96.8583 308.282C96.6483 311.402 94.8883 313.372 91.8183 313.942C90.3583 314.212 88.8383 314.172 87.3383 314.172C68.7183 314.182 50.0883 313.792 31.4783 314.312C17.2483 314.712 5.17828 310.682 -0.0117188 292.862V22.1023C6.27828 5.14233 12.9583 0.532326 31.3583 0.532326C138.828 0.532326 246.298 0.532326 353.778 0.532326C355.148 0.532326 356.528 0.512326 357.898 0.532326C370.788 0.842326 380.068 8.23233 383.368 20.7623C383.488 21.2223 383.778 21.6423 383.998 22.0823V133.082V133.102ZM371.218 77.2723C371.218 60.4823 371.238 44.1123 371.218 27.7423C371.208 18.5123 366.098 13.3523 356.808 13.3523C246.948 13.3323 137.078 13.3323 27.2183 13.3523C17.8883 13.3523 12.7983 18.4923 12.7883 27.7223C12.7683 43.0923 12.7783 58.4723 12.7883 73.8423C12.7883 74.9323 12.9183 76.0123 12.9983 77.2723H371.228H371.218Z" fill="#A58FEE"/>
<path d="M383.997 185.611C381.777 195.271 375.267 201.271 367.377 206.701C307.397 247.961 247.527 289.401 187.747 330.941C182.257 334.751 176.147 335.951 170.007 337.451C150.617 342.191 131.217 346.871 111.817 351.541C105.707 353.011 100.707 351.331 97.5167 346.851C94.2167 342.221 94.2267 336.711 97.7867 331.471C110.767 312.361 123.777 293.271 136.887 274.241C138.267 272.241 140.157 270.431 142.167 269.031C204.157 226.071 266.187 183.151 328.237 140.271C341.367 131.201 356.437 134.021 365.587 147.111C368.737 151.611 371.797 156.181 374.987 160.651C378.827 166.041 382.597 171.451 383.997 178.101V185.601V185.611ZM268.167 197.421C229.497 224.161 191.017 250.771 152.327 277.521C162.147 291.711 171.767 305.611 181.467 319.621C220.367 292.721 258.757 266.181 297.287 239.541C287.467 225.351 277.887 211.501 268.157 197.431L268.167 197.421ZM334.127 214.081C345.117 206.431 356.017 199.151 366.567 191.391C372.117 187.311 372.807 180.201 368.847 174.261C364.277 167.401 359.557 160.641 354.797 153.921C350.007 147.161 342.747 145.921 335.807 150.651C327.967 155.991 320.187 161.431 312.377 166.831C309.957 168.501 307.537 170.191 304.977 171.971C314.807 186.181 324.387 200.021 334.127 214.091V214.081ZM294.487 179.221C288.977 183.031 283.887 186.541 278.677 190.141C288.537 204.391 298.117 218.241 307.797 232.241C313.137 228.551 318.257 225.021 323.617 221.321C313.877 207.241 304.307 193.401 294.497 179.221H294.487ZM143.477 287.201C138.437 294.571 133.677 301.411 129.127 308.381C128.617 309.161 128.927 310.951 129.507 311.871C131.897 315.661 134.537 319.291 137.087 322.981C140.787 328.314 145.747 330.238 151.967 328.751C157.587 327.391 163.187 325.961 169.227 324.451C160.517 311.851 152.167 299.771 143.477 287.201ZM129.267 334.171C126.147 329.671 123.327 325.591 120.277 321.191C116.117 327.301 112.267 332.941 107.867 339.411C115.597 337.521 122.187 335.911 129.267 334.181V334.171Z" fill="#A58FEE"/>
<path d="M383.996 292.864C383.546 294.134 383.066 295.404 382.636 296.674C379.336 306.534 370.736 313.384 360.376 313.984C354.516 314.324 348.636 314.174 342.766 314.174C314.396 314.184 286.026 314.174 257.666 314.174C251.446 314.174 248.466 312.184 248.336 307.984C248.196 303.654 251.416 301.364 257.676 301.364C290.296 301.364 322.906 301.364 355.526 301.364C366.676 301.364 371.226 296.814 371.226 285.704C371.226 265.084 371.246 244.464 371.216 223.844C371.216 220.484 372.396 217.954 375.706 216.874C379.066 215.774 381.506 217.184 383.296 220.034C383.486 220.344 383.766 220.584 384.006 220.864V292.864H383.996Z" fill="#A58FEE"/>
<path d="M105.62 141.382C127.1 141.382 148.58 141.382 170.06 141.382C171.31 141.382 172.58 141.302 173.8 141.512C177.06 142.082 179.38 145.042 179.17 148.182C178.96 151.262 176.58 153.732 173.4 154.082C172.29 154.202 171.15 154.152 170.03 154.152C127.07 154.152 84.1002 154.152 41.1402 154.152C40.0202 154.152 38.8802 154.212 37.7702 154.082C34.4902 153.712 32.2802 151.342 32.1302 148.152C31.9702 144.952 33.9302 142.242 37.0802 141.582C38.4002 141.302 39.8102 141.382 41.1802 141.382C62.6602 141.372 84.1402 141.382 105.62 141.382Z" fill="#A58FEE"/>
<path d="M105.857 173.472C127.217 173.472 148.567 173.472 169.927 173.472C171.177 173.472 172.437 173.402 173.667 173.582C176.957 174.052 178.827 176.142 179.117 179.322C179.387 182.362 177.917 184.702 174.957 185.682C173.457 186.172 171.777 186.242 170.177 186.242C127.087 186.272 84.0069 186.272 40.9169 186.242C39.4369 186.242 37.8869 186.202 36.4869 185.772C33.3469 184.792 31.8669 182.462 32.1669 179.182C32.4769 175.892 34.4169 174.002 37.6769 173.562C38.9069 173.402 40.1669 173.472 41.4169 173.472C62.8969 173.472 84.3769 173.472 105.857 173.472Z" fill="#A58FEE"/>
<path d="M278.199 109.363C299.549 109.363 320.909 109.363 342.259 109.373C343.749 109.373 345.279 109.353 346.729 109.633C350.019 110.253 351.949 112.753 351.869 116.003C351.789 119.223 349.689 121.583 346.359 122.033C345.009 122.213 343.619 122.183 342.249 122.183C299.669 122.183 257.079 122.183 214.499 122.183C213.009 122.183 211.479 122.223 210.019 121.963C206.749 121.383 204.959 119.203 204.859 115.993C204.769 112.783 206.449 110.493 209.669 109.733C211.099 109.393 212.639 109.383 214.129 109.383C235.479 109.363 256.839 109.373 278.189 109.373L278.199 109.363Z" fill="#A58FEE"/>
<path d="M105.62 122.184C84.2695 122.184 62.9095 122.184 41.5595 122.184C40.1895 122.184 38.7995 122.224 37.4495 122.004C34.1995 121.474 32.3695 119.484 32.1395 116.194C31.9095 112.944 33.8495 110.354 37.0795 109.674C38.4095 109.394 39.8095 109.384 41.1695 109.384C84.1295 109.374 127.08 109.374 170.04 109.374C170.66 109.374 171.29 109.354 171.91 109.384C176.38 109.594 179.17 112.064 179.18 115.804C179.189 119.554 176.42 122.134 171.92 122.154C157.68 122.234 143.45 122.184 129.21 122.194C121.34 122.194 113.48 122.194 105.61 122.194L105.62 122.184Z" fill="#A58FEE"/>
<path d="M105.449 218.181C83.7195 218.181 61.9895 218.191 40.2695 218.181C35.2395 218.181 32.6495 216.381 32.1695 212.771C31.6995 209.241 33.6995 206.321 37.2395 205.631C38.6895 205.351 40.2195 205.371 41.7095 205.371C84.2895 205.361 126.869 205.361 169.459 205.371C170.949 205.371 172.479 205.351 173.929 205.631C177.189 206.241 179.269 208.861 179.189 211.961C179.109 215.071 176.889 217.561 173.629 218.021C172.279 218.211 170.889 218.181 169.519 218.181C148.169 218.181 126.809 218.181 105.459 218.181H105.449Z" fill="#A58FEE"/>
<path d="M91.5189 250.164C74.2789 250.164 57.0289 250.134 39.7889 250.194C36.4889 250.204 33.8089 249.344 32.4889 246.134C30.9689 242.424 33.2889 238.324 37.3089 237.554C38.5189 237.324 39.7989 237.404 41.0489 237.404C74.7889 237.404 108.519 237.404 142.259 237.404C143.379 237.404 144.529 237.334 145.629 237.514C148.989 238.054 151.229 240.794 151.099 244.064C150.969 247.354 148.569 249.934 145.129 250.104C141.509 250.284 137.889 250.174 134.259 250.174C120.019 250.174 105.769 250.174 91.5289 250.174L91.5189 250.164Z" fill="#A58FEE"/>
<path d="M246.509 154.162C235.279 154.162 224.059 154.172 212.829 154.162C207.799 154.162 204.819 151.772 204.809 147.832C204.799 143.902 207.839 141.412 212.789 141.402C235.239 141.382 257.699 141.382 280.149 141.402C285.069 141.402 288.069 143.992 287.969 147.972C287.869 151.832 285.009 154.152 280.199 154.162C268.969 154.192 257.749 154.162 246.519 154.162H246.509Z" fill="#A58FEE"/>
<path d="M70.507 269.481C80.627 269.481 90.747 269.461 100.867 269.481C105.957 269.491 108.817 271.871 108.747 275.911C108.677 279.771 105.787 282.241 101.037 282.241C80.547 282.271 60.057 282.241 39.567 282.261C36.267 282.261 33.217 281.211 32.587 277.891C32.187 275.791 33.047 272.951 34.357 271.201C35.287 269.961 37.897 269.571 39.777 269.541C50.017 269.391 60.267 269.471 70.507 269.471V269.481Z" fill="#A58FEE"/>
<path d="M345.657 275.76C345.657 269.28 345.617 263.43 345.667 257.58C345.707 253.11 348.147 250.27 351.887 250.2C355.597 250.13 358.357 253.03 358.407 257.35C358.497 265.34 358.497 273.32 358.407 281.31C358.357 286.07 355.987 288.46 351.257 288.51C343.147 288.59 335.037 288.6 326.927 288.51C322.647 288.46 320.117 285.99 320.117 282.22C320.117 278.48 322.667 275.89 326.897 275.8C332.987 275.66 339.077 275.76 345.657 275.76Z" fill="#A58FEE"/>
<path d="M224.218 173.493C228.328 173.493 232.438 173.413 236.538 173.513C240.558 173.623 243.018 176.033 243.078 179.663C243.148 183.243 240.678 186.093 236.818 186.173C228.228 186.343 219.638 186.353 211.048 186.163C207.278 186.083 204.668 183.013 204.798 179.573C204.928 176.073 207.558 173.593 211.508 173.503C215.738 173.403 219.968 173.483 224.208 173.483L224.218 173.493Z" fill="#A58FEE"/>
<path d="M95.8994 26.2309C106.389 26.1609 114.989 34.5709 115.199 45.1209C115.419 55.6309 106.689 64.5509 96.0894 64.6309C85.5494 64.7109 76.7294 55.8909 76.7894 45.3209C76.8494 34.8309 85.3694 26.3109 95.8994 26.2309ZM102.319 45.5809C102.419 42.0009 99.6794 39.1509 96.0794 39.1109C92.6294 39.0709 89.8694 41.6409 89.6894 45.0509C89.4994 48.5909 92.2194 51.6109 95.7394 51.7709C99.2394 51.9209 102.229 49.1209 102.319 45.5809Z" fill="#A58FEE"/>
<path d="M147.168 26.2227C157.808 26.2227 166.518 34.9627 166.418 45.5527C166.318 55.9827 157.678 64.5827 147.248 64.6427C136.678 64.6927 128.038 55.9527 128.098 45.2627C128.158 34.7127 136.648 26.2427 147.178 26.2327L147.168 26.2227ZM153.608 45.4727C153.658 41.9727 150.758 39.0927 147.188 39.1027C143.698 39.1127 141.028 41.6827 140.908 45.1527C140.788 48.7427 143.508 51.6727 147.048 51.7627C150.518 51.8527 153.558 48.9327 153.608 45.4727Z" fill="#A58FEE"/>
<path d="M63.8987 45.533C63.8387 56.063 55.3287 64.603 44.8487 64.643C34.3087 64.683 25.4987 55.833 25.5787 45.283C25.6487 34.823 34.2287 26.283 44.7287 26.223C55.3887 26.163 63.9687 34.803 63.9087 45.533H63.8987ZM44.6787 39.103C41.1387 39.153 38.2487 42.133 38.3787 45.603C38.4987 48.923 41.3687 51.733 44.6887 51.783C48.2087 51.843 51.0787 48.973 51.0787 45.403C51.0787 41.773 48.3187 39.053 44.6787 39.103Z" fill="#A58FEE"/>
</svg>
