<svg width="91" height="91" viewBox="0 0 91 91" fill="none" xmlns="http://www.w3.org/2000/svg">
<path d="M90.7344 45.3698C90.7344 70.4271 70.4219 90.7344 45.3698 90.7344C20.3125 90.7344 0 70.4271 0 45.3698C0 20.3125 20.3125 0 45.3698 0C70.4219 0 90.7344 20.3125 90.7344 45.3698Z" fill="#314265"/>
<path d="M87.0716 45.3695C87.0716 68.4007 68.3997 87.0726 45.3685 87.0726C22.332 87.0726 3.66016 68.4007 3.66016 45.3695C3.66016 22.333 22.332 3.66113 45.3685 3.66113C68.3997 3.66113 87.0716 22.333 87.0716 45.3695Z" stroke="#F3F9FD" stroke-width="1.33333" stroke-miterlimit="10"/>
<path d="M58.9023 63.7652H58.0012V65.7288H58.9023V63.7652ZM31.522 65.7184H32.4543V63.7809H31.522V65.7184ZM45.871 62.7757H44.3502V65.734H45.871V62.7757ZM31.8085 44.9215C32.4231 45.0673 33.0273 45.1559 33.5845 45.3746C34.1366 45.5934 34.621 45.6194 35.147 45.3382C35.72 45.0361 36.3241 44.8746 37.0898 45.1975C36.1575 43.5882 35.2981 42.109 34.4283 40.6038C34.2929 40.708 34.2356 40.7288 34.2148 40.7705C33.397 42.1767 32.5793 43.5882 31.8085 44.9215ZM31.897 51.7809C31.3033 52.5465 30.72 53.2913 30.1262 54.0517C31.522 54.3538 31.7043 54.8225 30.8502 55.9215C30.3554 56.5621 29.8241 57.1767 29.272 57.8434C29.5012 57.8902 29.6887 57.9319 29.8762 57.9684C30.7668 58.1246 31.0273 58.7548 30.4804 59.458C30.0898 59.9632 29.6679 60.4423 29.2512 60.9319C29.0325 61.1923 28.8033 61.4475 28.5481 61.7392C30.8189 62.2392 33.0012 62.2496 35.246 61.7288C35.1002 61.5569 34.996 61.4423 34.897 61.3225C34.3554 60.6871 33.8033 60.0673 33.2825 59.4163C32.7877 58.7861 33.0377 58.1611 33.8189 57.984C34.0429 57.9371 34.2668 57.9007 34.522 57.8486C33.9543 57.1559 33.4023 56.51 32.8866 55.8382C32.1002 54.8277 32.3241 54.2913 33.5793 54.0934C33.6002 54.0882 33.621 54.0465 33.647 54.0152C33.0689 53.2809 32.496 52.5413 31.897 51.7809ZM56.595 54.0413C58.0377 54.3955 58.1835 54.8069 57.2668 55.9892C56.7825 56.6142 56.2668 57.2027 55.7356 57.8486C55.9491 57.8902 56.1002 57.9319 56.2564 57.958C57.2512 58.1246 57.5012 58.734 56.8918 59.5205C56.6887 59.7861 56.4804 60.0569 56.2616 60.3121C55.8606 60.7757 55.4491 61.234 55.0116 61.734C57.272 62.2444 59.4543 62.2444 61.7095 61.734C61.5637 61.5621 61.4543 61.4319 61.345 61.3017C60.8137 60.6819 60.272 60.0725 59.7616 59.4319C59.246 58.7809 59.496 58.1507 60.3085 57.9788C60.522 57.9319 60.7304 57.8902 60.9804 57.8382C60.3918 57.1246 59.8398 56.4788 59.3189 55.8069C58.5741 54.8382 58.8241 54.2652 60.0377 54.1038C60.0637 54.0986 60.0845 54.0569 60.1158 54.0257C59.5325 53.2809 58.9439 52.5309 58.3606 51.7809C57.772 52.5361 57.1835 53.2861 56.595 54.0413ZM52.0585 34.7861C50.5793 32.2236 49.1731 29.7861 47.7616 27.3486C47.3345 26.609 46.8085 26.6194 46.3762 27.3694C45.0325 29.6871 43.6939 32.0048 42.3606 34.3277C42.2981 34.4371 42.2564 34.5569 42.1679 34.7548C42.6002 34.6246 42.9387 34.5361 43.2668 34.4215C43.8502 34.2236 44.4335 34.1871 44.97 34.4892C46.3814 35.2809 47.746 35.26 49.1627 34.4684C49.5273 34.2652 50.0898 34.3434 50.5481 34.3955C51.0116 34.4475 51.4647 34.6298 52.0585 34.7861ZM48.5377 55.833C47.6783 54.7861 46.8554 53.8069 46.0741 52.8017C45.5481 52.1298 45.8502 51.4736 46.6939 51.3486C46.9648 51.3121 47.2356 51.26 47.5168 51.2132C46.6418 50.1038 45.8085 49.0413 44.9804 47.9892C44.1418 49.0517 43.3033 50.1194 42.4439 51.208C42.6939 51.2548 42.9283 51.3121 43.1679 51.3434C44.1575 51.4736 44.4335 52.1038 43.8085 52.8955C43.1523 53.734 42.4543 54.5361 41.772 55.3538C41.6523 55.4944 41.5273 55.6246 41.345 55.8225C41.8189 55.9111 42.1835 55.984 42.5481 56.0413C43.3918 56.1819 43.6783 56.8382 43.1418 57.5048C42.4127 58.4007 41.6418 59.26 40.8918 60.135C40.7825 60.26 40.6783 60.385 40.5273 60.5569C43.5325 61.26 46.4491 61.2652 49.4595 60.5517C49.272 60.3486 49.1366 60.2132 49.0168 60.0673C48.2877 59.2236 47.5377 58.3902 46.8345 57.5257C46.272 56.8382 46.5585 56.1767 47.4387 56.0413C47.8033 55.984 48.1679 55.9059 48.5377 55.833ZM72.1523 66.9059C71.845 67.3121 71.4231 67.4007 70.9387 67.4007C53.5481 67.3955 36.1523 67.3955 18.7564 67.3955C18.6679 67.3955 18.5793 67.3955 18.4908 67.3902C17.6523 67.3382 17.3293 66.7652 17.7512 66.0309C19.7877 62.4944 21.8293 58.958 23.871 55.4267C24.1627 54.9267 24.6054 54.7809 25.0273 55.0152C25.4648 55.26 25.5637 55.7288 25.2564 56.26C23.5689 59.1975 21.871 62.1298 20.1783 65.0673C20.0689 65.26 19.9595 65.4632 19.8241 65.7132H29.8033V63.6455C29.0325 63.4892 28.2408 63.3434 27.4491 63.1611C27.1835 63.0986 26.8918 63.0048 26.6783 62.8382C26.1575 62.4319 26.147 61.7913 26.6158 61.3173C27.22 60.6975 27.8293 60.0725 28.496 59.3902C28.2095 59.3173 28.0168 59.2705 27.8241 59.2184C26.9179 58.9684 26.6783 58.083 27.3293 57.4215C27.9127 56.8277 28.4856 56.2236 29.1262 55.5569C28.8085 55.484 28.5585 55.484 28.3866 55.3694C28.1314 55.1871 27.7981 54.958 27.7356 54.6975C27.6731 54.4319 27.8137 54.0048 28.0168 53.8121C29.22 52.6819 30.22 51.4007 31.0533 49.9892C31.5689 49.1194 32.2252 49.1142 32.7304 49.9736C33.5689 51.3902 34.5689 52.6663 35.7668 53.8069C35.9804 54.01 36.121 54.4527 36.0585 54.734C36.0064 54.9892 35.6418 55.2027 35.3762 55.3746C35.2148 55.484 34.9804 55.484 34.6783 55.5569C35.2668 56.1715 35.7929 56.7392 36.3398 57.2913C36.647 57.6038 36.9648 57.8955 36.8241 58.3902C36.6783 58.9059 36.3189 59.1819 35.7877 59.2548C35.6575 59.2705 35.5325 59.333 35.3189 59.4007C35.9387 60.0361 36.47 60.6871 37.1106 61.2132C37.8606 61.833 37.4595 62.9319 36.6262 63.1038C35.8085 63.2705 34.996 63.4475 34.1523 63.6298V65.7132H42.647C42.647 64.734 42.6575 63.7496 42.6314 62.7652C42.6314 62.6819 42.4127 62.5673 42.2825 62.5413C41.3085 62.3434 40.3293 62.1767 39.3554 61.9788C38.8345 61.8746 38.47 61.5673 38.3137 61.0309C38.1679 60.5309 38.4752 60.2392 38.7773 59.9319C39.5585 59.135 40.3293 58.333 41.1679 57.4632C40.7252 57.359 40.4075 57.2757 40.0793 57.2027C39.6054 57.1038 39.2929 56.8121 39.147 56.3538C39.0012 55.9007 39.246 55.5934 39.5533 55.2809C40.3345 54.4892 41.0898 53.6715 41.9335 52.7861C41.5377 52.6975 41.272 52.635 41.0064 52.5725C39.9387 52.3173 39.7148 51.7652 40.3293 50.8173C39.6731 49.6767 39.0116 48.5257 38.3398 47.3798C38.2877 47.2861 38.1679 47.2132 38.0585 47.1663C37.8814 47.0882 37.6835 47.0569 37.5064 46.984C36.6991 46.6559 35.9127 46.6142 35.1314 47.0777C34.5689 47.4111 33.9752 47.3434 33.4543 47.0309C32.4543 46.4215 31.5481 46.8798 30.621 47.1819C30.4804 47.2288 30.371 47.4163 30.2877 47.5621C29.246 49.359 28.2095 51.1559 27.1731 52.9527C27.0845 53.109 27.0012 53.2652 26.8866 53.4007C26.595 53.7496 26.22 53.8121 25.8398 53.583C25.4491 53.3538 25.345 52.9788 25.5377 52.5725C25.6991 52.2184 25.9127 51.885 26.1054 51.5465C28.3033 47.7392 30.5012 43.9267 32.7043 40.1194C33.2356 39.2027 33.9491 38.8173 34.8085 39.109C35.2252 39.2548 35.6002 39.6142 35.9127 39.9475C36.1783 40.2392 36.3345 40.6402 36.5793 41.0517C36.7043 40.8434 36.8033 40.6871 36.897 40.5309C39.5845 35.8746 42.272 31.2184 44.9648 26.5673C45.621 25.4267 46.621 24.958 47.7095 25.2809C48.2981 25.4527 48.746 25.8121 49.0533 26.3382C51.6991 30.9163 54.345 35.4944 56.9908 40.0725C57.2877 40.5986 57.1731 41.0725 56.7304 41.3173C56.3085 41.5465 55.8814 41.3955 55.5793 40.8798C54.8918 39.7027 54.1939 38.5257 53.5377 37.3277C53.3345 36.9527 53.0689 36.7444 52.6627 36.6507C52.2304 36.5517 51.7825 36.4736 51.3866 36.2913C50.3658 35.8277 49.4075 35.9319 48.4595 36.4632C47.5533 36.9736 46.6366 36.9996 45.7252 36.4944C44.6262 35.8902 43.5689 35.9892 42.3866 36.3538C41.3293 36.6767 40.6158 37.1507 40.1158 38.1611C39.4075 39.5882 38.5273 40.9319 37.7512 42.3277C37.6523 42.5048 37.6158 42.8225 37.7043 42.984C38.9387 45.1611 40.1939 47.3225 41.4439 49.4892C41.47 49.5361 41.5012 49.583 41.595 49.7392C42.3085 48.7705 42.97 47.8798 43.6158 46.984C43.7929 46.7392 43.9387 46.4736 44.0898 46.2132C44.6835 45.2184 45.246 45.2548 45.8918 46.2288C46.6366 47.3486 47.4335 48.4371 48.2564 49.4996C48.647 49.9996 49.1835 50.3902 49.5845 50.8798C49.7825 51.1298 49.9752 51.5309 49.9127 51.8069C49.8502 52.0777 49.496 52.3434 49.2095 52.4944C48.9075 52.6507 48.5273 52.6715 48.0741 52.7757C48.5793 53.3434 49.0325 53.8746 49.5116 54.385C49.8085 54.7132 50.1106 55.0465 50.4595 55.3225C51.1575 55.8746 50.8398 56.9475 49.9648 57.1871C49.6262 57.2809 49.2773 57.3434 48.8345 57.4475C49.2981 57.9684 49.7095 58.4423 50.1418 58.9007C50.4804 59.2652 50.8345 59.6142 51.1991 59.9527C51.5325 60.26 51.7877 60.583 51.6366 61.0673C51.4804 61.5725 51.1262 61.8694 50.621 61.9788C49.6158 62.1871 48.6054 62.385 47.5585 62.5934V65.7132H56.2877V63.6507C55.4908 63.4892 54.6887 63.3434 53.9023 63.1611C53.6314 63.0986 53.345 62.9996 53.1314 62.833C52.621 62.4371 52.6158 61.7809 53.0793 61.3069C53.6835 60.6871 54.2929 60.0673 54.9595 59.385C54.6418 59.3069 54.4231 59.2652 54.2148 59.1975C53.3918 58.9423 53.1731 58.0569 53.7668 57.4423C54.3554 56.8382 54.9439 56.2236 55.5898 55.5569C55.2616 55.4788 55.0429 55.4371 54.8293 55.3746C54.095 55.1559 53.8762 54.333 54.4387 53.8277C55.7043 52.6819 56.72 51.3486 57.5793 49.885C58.0168 49.1402 58.7043 49.1455 59.147 49.8955C60.0116 51.3538 61.022 52.6923 62.2929 53.833C62.8345 54.3121 62.621 55.1402 61.9335 55.3642C61.7148 55.4319 61.4856 55.4684 61.147 55.5465C61.6783 56.1142 62.1627 56.6507 62.6627 57.1611C63.0116 57.5152 63.4439 57.8225 63.2825 58.4163C63.1158 59.0257 62.621 59.2027 62.0741 59.3069C62.0064 59.3225 61.9387 59.3382 61.772 59.385C62.3814 60.0152 62.9439 60.6246 63.5325 61.2027C63.845 61.5048 64.0793 61.8121 63.9491 62.2705C63.8137 62.7496 63.4856 63.0205 63.0168 63.1246C62.2408 63.2913 61.4595 63.4475 60.6418 63.6194V65.708H69.8866C69.7825 65.51 69.6939 65.3277 69.5898 65.1507C65.6002 58.234 61.6054 51.3225 57.6158 44.4059C57.1731 43.6402 57.1939 43.1559 57.6835 42.885C58.1835 42.6142 58.5793 42.8277 59.0377 43.6194C63.3293 51.0569 67.6262 58.4892 71.9179 65.9267C71.9908 66.0465 72.0741 66.1559 72.1523 66.2705V66.9059ZM22.7512 26.9684C22.7356 29.5465 25.4648 31.1871 27.7408 29.9423C28.2304 29.6767 28.621 29.6507 29.1158 29.958C30.0325 30.5413 31.0064 30.5257 31.9231 29.9371C32.4023 29.6246 32.8033 29.5986 33.272 29.9684C33.9804 30.5257 34.9075 30.4944 35.5793 29.9423C36.2252 29.4215 36.4283 28.4788 36.0689 27.7236C35.6939 26.9423 34.8554 26.4996 33.9804 26.7392C33.3345 26.9163 32.9648 26.7132 32.6002 26.1975C31.996 25.3434 31.1106 24.958 30.0898 25.1663C29.4283 25.3017 29.0012 25.1663 28.5533 24.6611C27.6314 23.6194 26.1262 23.3277 24.845 23.8486C23.5793 24.3642 22.7564 25.5882 22.7512 26.9684ZM26.4179 21.9944C27.5273 22.0205 28.5741 22.4788 29.5012 23.2652C29.6679 23.4111 29.9335 23.5152 30.147 23.4996C31.5273 23.4319 32.6835 23.885 33.647 24.8746C33.746 24.984 33.9439 25.0517 34.095 25.0465C36.147 24.9475 37.7512 26.3642 37.8762 28.3955C37.9908 30.234 36.5116 31.8746 34.5585 31.9736C33.996 32.0048 33.4283 31.7444 32.8606 31.635C32.6679 31.5986 32.4387 31.5517 32.2773 31.6194C31.0845 32.1246 29.9075 32.1194 28.7095 31.6194C28.5273 31.5413 28.2616 31.5413 28.0741 31.6142C24.8189 32.859 21.5064 30.8538 21.121 27.3902C20.7981 24.51 23.3918 21.8121 26.4179 21.9944ZM61.2043 28.0205C63.4179 28.0257 65.2148 26.2392 65.1991 24.0413C65.1835 21.8642 63.4075 20.0934 61.2252 20.0934C59.0168 20.0882 57.22 21.8798 57.2252 24.0725C57.2356 26.2496 59.0116 28.0152 61.2043 28.0205ZM61.2773 18.4527C64.4856 18.5361 66.897 21.0882 66.8137 24.3069C66.7356 27.2444 64.1158 29.7444 61.1575 29.6715C57.7929 29.583 55.4648 26.7757 55.6158 23.7027C55.7616 20.8538 58.3658 18.3798 61.2773 18.4527Z" fill="#F3F9FD"/>
</svg>
