<svg width="91" height="91" viewBox="0 0 91 91" fill="none" xmlns="http://www.w3.org/2000/svg">
<path d="M90.7344 45.3698C90.7344 70.4271 70.4271 90.7344 45.3698 90.7344C20.3125 90.7344 0 70.4271 0 45.3698C0 20.3125 20.3125 0 45.3698 0C70.4271 0 90.7344 20.3125 90.7344 45.3698Z" fill="#D53442"/>
<path d="M87.0807 45.3695C87.0807 68.4007 68.4036 87.0726 45.3724 87.0726C22.3359 87.0726 3.66406 68.4007 3.66406 45.3695C3.66406 22.333 22.3359 3.66113 45.3724 3.66113C68.4036 3.66113 87.0807 22.333 87.0807 45.3695Z" stroke="#FCDBE5" stroke-width="1.33333" stroke-miterlimit="10"/>
<path d="M32.6901 25.8389H37.1172V24.3962H32.6901V25.8389ZM29.6536 55.8076H26.7005V58.7347H29.6536V55.8076ZM31.1901 58.7295H34.1172V55.7764H31.1901V58.7295ZM35.6797 58.7243H38.612V55.792H35.6797V58.7243ZM26.7057 63.2139H29.6328V60.2764H26.7057V63.2139ZM34.1224 60.292H31.1901V63.2295H34.1224V60.292ZM38.6172 60.2816H35.6797V63.2139H38.6172V60.2816ZM29.6432 64.766H26.7109V67.7087H29.6432V64.766ZM34.1224 64.7764H31.1901V67.7139H34.1224V64.7764ZM38.6068 64.7764H35.6693V67.7087H38.6068V64.7764ZM54.3359 53.292C53.3359 54.6357 52.3776 55.917 51.3932 57.2295H57.2891C56.2943 55.9014 55.3359 54.6253 54.3359 53.292ZM40.1536 43.7816H50.5651V42.3389H40.1536V43.7816ZM31.1797 30.3285H38.6172V27.3962H31.1797V30.3285ZM41.612 49.8232H23.7214V51.266H41.612V49.8232ZM40.0026 48.2816C39.7839 46.6878 38.2786 45.3545 36.5339 45.3232C33.9505 45.2764 31.3672 45.2764 28.7839 45.3232C27.0443 45.3545 25.5286 46.693 25.3099 48.2816H40.0026ZM59.5547 27.5212C57.0443 27.9378 54.5859 28.3493 52.1328 28.7555V33.3128H59.5547V27.5212ZM58.0443 58.7972H50.6224V67.7087H58.0443V58.7972ZM40.1328 67.6982H41.6068V52.8076H23.7161V67.6982H25.2109V54.3076H40.1328V67.6982ZM67.0286 49.9222C64.0286 50.3493 61.0651 50.7712 58.0755 51.1982C58.0755 52.042 58.1484 52.8597 58.0599 53.6566C57.8932 55.1201 58.2526 56.3649 59.2995 57.4222C59.4714 57.5941 59.5547 57.917 59.5599 58.167C59.5755 61.1878 59.5703 64.2087 59.5703 67.2295V67.7087H67.0286V49.9222ZM38.6641 44.3337V40.8128H41.6016V31.8857H28.2005V43.8128C30.6484 43.8128 33.0599 43.8232 35.4714 43.8128C36.5339 43.8076 37.5859 43.792 38.6641 44.3337ZM49.1068 67.7139C49.1068 65.0576 49.1849 62.4587 49.0755 59.8649C49.0182 58.3805 49.2943 57.1253 50.3516 56.0576C50.513 55.9014 50.5911 55.5889 50.5911 55.3493C50.6068 52.1566 50.6016 48.9639 50.6016 45.7764C50.6016 45.6253 50.5859 45.4795 50.5807 45.3493H40.1016C40.9297 46.2087 41.388 47.1774 41.5911 48.3076H43.138V67.7139H49.1068ZM52.1016 40.8337L52.0859 40.818V53.6253C52.1172 53.6305 52.1536 53.641 52.1849 53.6462C52.8932 52.6982 53.6068 51.7555 54.3411 50.7816C55.0911 51.7764 55.7943 52.7139 56.4974 53.6462C56.5286 53.6357 56.5547 53.6253 56.5859 53.6149V49.891C58.0964 49.6722 59.5703 49.4535 61.0443 49.2399V34.8701H50.6328V40.8337H52.1016ZM52.0964 24.4014H53.5807V26.9691C54.1016 26.8857 54.5703 26.8128 55.0755 26.7295V22.917H56.5807V26.4691C57.1016 26.3857 57.5703 26.3128 58.0651 26.2347V24.417H59.5599V25.9743C60.0807 25.8962 60.5495 25.8232 61.0599 25.7503V33.3441H62.5547V49.0264C64.5599 48.7451 66.5234 48.4639 68.513 48.1826V69.1982H22.2266V48.3076H23.7057C23.8047 47.943 23.8724 47.6097 23.987 47.292C24.4193 46.1097 25.1641 45.167 26.2682 44.5576C26.6068 44.3649 26.6901 44.1462 26.6849 43.7868C26.6745 39.5212 26.6797 35.2555 26.6797 30.9899V30.3805H29.6641V25.8857H31.1484V22.917H38.6172V25.8701H40.1172V30.3441H43.1016V40.7868H49.0911V33.3701H50.5807V27.4951C50.9818 27.4222 51.3464 27.3232 51.7057 27.2972C52.0443 27.2764 52.1068 27.1201 52.1016 26.8232C52.0859 26.0316 52.0964 25.2399 52.0964 24.4014Z" fill="#FCDBE5"/>
<path d="M46.0911 48.2764H44.6536V46.8337H46.0911V48.2764ZM49.0703 48.2764H47.638V46.8285H49.0703V48.2764ZM44.6328 49.8285H46.0807V51.2451H44.6328V49.8285ZM47.6432 49.818H49.0807V51.2503H47.6432V49.818ZM46.0964 54.2503H44.6432V52.818H46.0964V54.2503ZM47.6328 52.818H49.0755V54.2503H47.6328V52.818ZM44.6484 55.792H46.0807V57.2347H44.6484V55.792ZM44.6432 58.7868H46.0755V60.2191H44.6432V58.7868ZM44.6589 61.7607H46.0807V63.2139H44.6589V61.7607ZM46.0964 66.2035H44.6484V64.766H46.0964V66.2035ZM55.112 45.3285H56.5443V46.7712H55.112V45.3285ZM58.0964 45.3337H59.5339V46.766H58.0964V45.3337ZM55.112 48.3337H56.5495V49.766H55.112V48.3337ZM59.5599 43.7764H58.112V42.3493H59.5599V43.7764ZM55.112 42.3389H56.5443V43.7816H55.112V42.3389ZM58.1016 39.3649H59.5391V40.7972H58.1016V39.3649ZM56.5599 40.792H55.112V39.3545H56.5599V40.792ZM52.1016 40.8337V39.3649H53.5599V40.818H52.0859L52.1016 40.8337ZM59.5495 37.8076H58.1172V36.3753H59.5495V37.8076ZM56.5599 37.8076H55.1276V36.3753H56.5599V37.8076ZM53.5651 37.7972H52.1276V36.3649H53.5651V37.7972ZM34.1328 37.8076H32.7005V36.3753H34.1328V37.8076ZM35.6693 33.3805H37.1172V34.818H35.6693V33.3805ZM34.1276 34.818H32.6953V33.3805H34.1276V34.818ZM29.6953 33.3701H31.1276V34.8128H29.6953V33.3701ZM29.7057 36.3545H31.1328V37.8076H29.7057V36.3545ZM37.1172 40.7972H35.6849V39.3597H37.1172V40.7972ZM34.1276 40.8024H32.6953V39.3597H34.1276V40.8024ZM29.6797 39.3649H31.1328V40.7816H29.6797V39.3649ZM40.1068 37.8128H38.6745V36.3701H40.1068V37.8128ZM37.112 37.8232H35.6901V36.3753H37.112V37.8232ZM38.6641 33.3701H40.1016V34.8128H38.6641V33.3701ZM65.5339 66.2035H64.0859V64.7816H65.5339V66.2035ZM61.1016 52.8076H62.5339V54.2399H61.1016V52.8076ZM65.513 54.266H64.0964V52.8128H65.513V54.266ZM62.5234 57.2555H61.1016V55.8076H62.5234V57.2555ZM65.5182 57.2451H64.0859V55.8128H65.5182V57.2451ZM61.0911 58.7972H62.5286V60.2295H61.0911V58.7972ZM65.5339 60.2243H64.0859V58.7868H65.5339V60.2243ZM62.5339 63.2243H61.1016V61.7816H62.5339V63.2243ZM65.5182 63.2243H64.0859V61.792H65.5182V63.2243ZM62.5391 66.2035H61.0964V64.766H62.5391V66.2035ZM55.112 60.292H56.5495V66.2087H55.112V60.292ZM52.1224 60.2816H53.5547V66.2035H52.1224V60.2816Z" fill="#FCDBE5"/>
</svg>
