<svg width="123" height="142" viewBox="0 0 123 142" fill="none" xmlns="http://www.w3.org/2000/svg">
<path d="M77.6679 0.660156C80.3579 1.29421 82.9037 2.21648 85.0076 4.10904C88.9657 7.65399 90.6757 12.0732 89.6958 17.2897C88.7063 22.5255 85.5744 26.1857 80.5212 27.9918C79.3395 28.4145 78.8688 28.8661 78.936 30.163C79.0609 32.5359 78.9937 34.9184 78.9649 37.3009C78.936 39.2896 78.0618 40.5097 76.5439 40.8075C74.4112 41.2302 72.8453 39.866 72.7876 37.4258C72.73 35.0049 72.6819 32.5743 72.8068 30.1534C72.8837 28.8372 72.3553 28.4338 71.2121 28.0014C65.4191 25.8207 62.1912 21.536 61.8453 15.3876C61.5379 9.79634 64.0741 5.48283 68.8872 2.668C70.4723 1.71692 72.3457 1.30382 74.0942 0.660156C75.2854 0.660156 76.4767 0.660156 77.6679 0.660156ZM83.7779 14.7151C83.7491 10.3343 80.1177 6.73173 75.7946 6.81819C71.4426 6.90465 67.9842 10.4016 67.9649 14.7343C67.9457 19.1343 71.4811 22.6792 75.881 22.6696C80.281 22.6696 83.7971 19.115 83.7683 14.7055L83.7779 14.7151Z" fill="#D53442"/>
<path d="M49.1021 127.258C44.5004 128.92 40.0332 130.524 35.5756 132.138C27.746 134.972 19.8395 137.585 12.1251 140.707C5.53476 143.378 -0.776983 136.797 0.0780332 130.975C1.06755 124.327 2.22998 117.699 3.33478 111.06C5.65965 97.0727 8.00374 83.085 10.3382 69.0877C11.6448 61.2389 12.9225 53.3804 14.2675 45.5315C14.767 42.611 15.6509 39.8058 17.8893 37.6923C18.677 36.9526 19.6089 36.3089 20.5696 35.8382C22.1355 35.0792 23.7879 35.6941 24.5661 37.1543C25.3154 38.5473 24.9311 40.2189 23.4613 41.0931C21.2805 42.3901 20.6657 44.5036 20.291 46.742C16.6692 68.4056 13.0762 90.0692 9.46399 111.733C8.41684 118.006 7.31204 124.27 6.33214 130.553C6.17843 131.523 6.33214 132.686 6.75484 133.56C7.50418 135.164 8.46487 135.404 10.1365 134.799C23.1635 130.092 36.1904 125.375 49.2174 120.667C49.3903 120.61 49.5633 120.542 49.7362 120.485C52.4165 119.553 53.9921 120.571 54.5877 123.367C54.8951 124.817 55.4619 126.239 56.1152 127.575C56.5475 128.468 57.3833 128.862 58.5361 128.603C73.7247 125.25 88.9228 121.955 104.111 118.621C107.964 117.776 109.03 116.479 109.578 112.626C111.23 101.079 112.931 89.5312 114.621 77.9837C115.294 73.3628 115.966 68.7419 116.677 64.1305C116.869 62.8816 116.514 61.9498 115.39 61.3926C114.045 60.7201 112.69 60.0476 111.297 59.4904C109.347 58.7122 107.368 57.9917 105.37 57.3288C103.794 56.8101 102.968 55.7725 102.738 54.1586C101.45 45.2818 100.153 36.405 98.8564 27.5282C98.7603 26.8941 98.6258 26.2601 98.5874 25.626C98.4433 23.2243 97.6843 21.1972 95.5516 19.785C94.4564 19.0645 94.197 17.8732 94.5717 16.6051C94.9368 15.385 95.8014 14.5876 97.0215 14.53C97.8284 14.4916 98.7603 14.7606 99.452 15.1833C102.747 17.2199 104.092 20.4094 104.601 24.1273C105.85 33.1002 107.166 42.0634 108.521 51.0267C108.598 51.507 109.165 52.0835 109.645 52.2948C112.325 53.4476 115.159 54.3027 117.744 55.6476C121.5 57.6074 123.623 60.4511 122.701 65.3218C122.441 66.6668 122.297 68.0406 122.096 69.3951C120.107 83.0274 118.109 96.65 116.12 110.282C115.918 111.685 115.745 113.097 115.505 114.49C114.564 120.062 111.441 123.328 105.706 124.587C90.5656 127.911 75.3963 131.148 60.2654 134.53C55.02 135.702 51.648 132.945 49.717 128.824C49.5056 128.372 49.3327 127.901 49.0733 127.258H49.1021Z" fill="#314265"/>
<path d="M41.6305 64.117C41.6305 62.8393 41.5729 61.552 41.6498 60.2742C41.7074 59.3712 41.3519 59.0157 40.5161 58.7371C35.2996 57.0271 31.9948 53.4437 30.9188 48.0831C29.7564 42.2805 31.7354 37.4482 36.4716 33.9897C40.9677 30.6945 45.9537 30.2334 50.9589 32.8273C56.0217 35.4403 58.7693 39.7058 58.702 45.4412C58.6444 51.2726 55.7623 55.4804 50.5746 58.1127C50.4113 58.1991 50.248 58.2856 50.0846 58.3528C48.5219 59.0125 47.7405 60.1782 47.7405 61.8498C47.7405 63.8672 47.7502 65.8751 47.7405 67.8925C47.7213 70.1117 46.4916 71.5335 44.6567 71.5047C42.8506 71.4759 41.6786 70.1117 41.6402 67.9598C41.6209 66.682 41.6402 65.3947 41.6402 64.117H41.6305ZM44.6759 37.4386C40.2856 37.4386 36.7118 41.0316 36.7406 45.3835C36.7694 49.6874 40.2952 53.2131 44.6183 53.2612C48.9702 53.3092 52.6016 49.7258 52.6305 45.3739C52.6497 41.022 49.0567 37.4386 44.6759 37.4482V37.4386Z" fill="#F79654"/>
<path d="M77.0785 105.125C77.0785 104.991 77.0785 104.847 77.0785 104.712C77.0785 103.29 77.5396 101.599 76.9248 100.533C76.3483 99.5436 74.5903 99.265 73.4086 98.5829C68.6436 95.8545 66.117 91.7139 66.0978 86.2284C66.0786 80.8293 68.586 76.7175 73.2357 74.066C79.1055 70.7228 86.3011 71.9333 90.4993 76.7752C95.1875 82.1935 95.4949 89.3218 91.2103 94.913C89.4714 97.1803 87.2138 98.8134 84.4374 99.6012C83.4959 99.8702 83.1308 100.274 83.1693 101.302C83.2557 103.819 83.2173 106.336 83.1885 108.853C83.1693 111.005 81.9972 112.369 80.1815 112.407C78.337 112.455 77.1169 111.053 77.0785 108.824C77.0593 107.585 77.0785 106.355 77.0785 105.116V105.125ZM80.0662 94.1733C84.4374 94.2117 88.0496 90.6668 88.088 86.3052C88.1168 81.9725 84.495 78.3603 80.1335 78.3603C75.8104 78.3603 72.2654 81.8476 72.1982 86.1707C72.1309 90.5323 75.6759 94.1349 80.0662 94.1733Z" fill="#8AB126"/>
<path d="M46.6949 2.74707C49.9324 3.50602 53.2083 4.16889 56.4075 5.05273C57.9734 5.48504 58.6266 7.21429 58.1463 8.74179C57.6564 10.2501 56.1577 11.1051 54.4092 10.7592C52.2573 10.3365 50.1245 9.83698 47.9822 9.36624C46.2049 8.97235 45.4267 9.12606 44.7639 10.7881C43.9665 12.7959 43.5438 14.9671 43.0827 17.0998C42.6792 18.9732 42.4774 20.8945 42.122 22.7775C41.8722 24.1225 41.1805 25.1312 39.7491 25.4963C38.5386 25.8037 37.4722 25.4674 36.8286 24.526C36.3482 23.8343 35.9639 22.8063 36.0792 22.0089C36.646 18.2142 37.2032 14.4003 38.1543 10.692C39.0381 7.25272 40.998 4.4571 44.6294 3.29466C44.9272 3.1986 45.2538 3.15056 45.5612 3.09292C45.9263 3.03528 46.2914 2.99685 46.6468 2.94882L46.6949 2.75668V2.74707Z" fill="#314265"/>
<path d="M75.8352 11.6691C77.7758 11.6499 79.3129 13.0333 79.2937 14.7914C79.2744 16.511 77.8238 17.8176 75.9024 17.8368C73.9234 17.856 72.4247 16.511 72.4535 14.7337C72.4727 13.0045 73.9234 11.698 75.8352 11.6788V11.6691Z" fill="#D53442"/>
<path d="M48.1064 45.36C48.0968 47.1181 46.6942 48.4054 44.7632 48.4342C42.7938 48.463 41.2951 47.1085 41.3047 45.3216C41.3143 43.5251 42.8322 42.1993 44.792 42.2474C46.723 42.305 48.1064 43.5923 48.0968 45.3504L48.1064 45.36Z" fill="#F79654"/>
<path d="M83.5322 86.27C83.5322 88.0281 82.1488 89.325 80.2178 89.3634C78.2676 89.4115 76.7305 88.0569 76.7305 86.27C76.7305 84.4927 78.258 83.1382 80.2082 83.1766C82.1392 83.215 83.5322 84.5023 83.5322 86.2604V86.27Z" fill="#8AB126"/>
</svg>
