<svg width="145" height="191" viewBox="0 0 163 155" fill="none" xmlns="http://www.w3.org/2000/svg">
<path d="M38.2926 58.7724C38.6447 58.9126 38.9968 59.0527 39.3596 59.1971C40.4703 59.6403 41.5777 60.0914 42.6848 60.5434C43.8009 60.994 44.9176 61.4429 46.0351 61.8897C46.7267 62.1667 47.4173 62.4461 48.1067 62.7283C50.3086 63.6171 52.0988 64.3076 54.4782 63.754C54.9696 63.6439 54.9696 63.6439 55.4709 63.5316C55.9876 63.4115 55.9876 63.4115 56.5147 63.289C61.5721 62.1746 66.572 61.5903 71.742 61.3817C72.0815 61.3675 72.4209 61.3532 72.7707 61.3385C81.5973 61.1604 89.9489 62.8349 98.2731 65.6291C102.391 67.0084 106.508 68.0384 110.791 68.7591C111.033 68.8022 111.276 68.8453 111.526 68.8896C122.484 70.7771 135.249 69.8901 144.834 63.8339C148.583 61.5518 152.945 60.8529 157.203 61.78C158.927 62.2539 160.547 62.7964 161.855 64.0644C162.333 65.2771 162.286 65.8002 161.855 67.0196C161.129 67.8173 160.643 68.0707 159.568 68.1618C158.337 68.0359 157.246 67.5133 156.102 67.0615C153.633 66.2196 151.182 66.7379 148.839 67.7531C147.881 68.2702 146.942 68.8196 146.002 69.3669C139.721 72.9855 132.362 74.6125 125.142 74.7952C124.874 74.8021 124.605 74.8089 124.329 74.816C114.253 75.0357 104.949 73.4378 95.3802 70.3336C91.653 69.1249 87.9762 67.9931 84.0908 67.4178C83.8423 67.3805 83.5938 67.3431 83.3378 67.3047C75.9163 66.2448 68.4537 66.6436 61.062 67.7531C61.6213 67.9829 62.1806 68.2125 62.7399 68.4422C63.1038 68.5916 63.4678 68.741 63.8428 68.895C64.8602 69.3117 65.8784 69.7265 66.8969 70.1408C68.7347 70.8889 70.5656 71.6494 72.3887 72.4334C72.754 72.5876 73.1193 72.7418 73.4956 72.9006C74.1844 73.1913 74.8709 73.4874 75.5547 73.7897C77.9299 74.7805 79.8746 74.8949 82.4221 74.7952C87.0724 75.0234 90.5731 76.3746 94.3833 78.922C106.817 87.2223 121.147 94.3077 136.156 95.9214C136.4 95.9481 136.645 95.9749 136.896 96.0024C143.494 96.6702 150.224 96.0217 156.327 93.3225C157.957 92.6073 159.085 92.3095 160.854 92.568C161.74 93.0852 161.839 93.5332 162.209 94.4962C162.178 96.1206 161.32 96.8368 160.186 97.9334C159.135 98.761 158.033 99.4919 156.911 100.218C156.602 100.421 156.293 100.624 155.974 100.834C153.202 102.642 150.383 104.353 147.504 105.981C147.209 106.151 147.209 106.151 146.909 106.324C136.937 112.036 125.714 115.881 114.462 118.054C114.18 118.109 113.897 118.164 113.606 118.221C96.3158 121.474 79.4473 119.104 62.8857 113.825C56.355 111.743 49.7814 109.899 43.1445 108.192C42.4004 108.001 41.6568 107.808 40.9133 107.614C35.5381 106.219 30.1422 105.028 24.6831 104.011C24.4223 103.963 24.1615 103.914 23.8927 103.863C17.9391 102.757 12.1569 102.172 6.1004 102.19C5.3356 102.191 4.57146 102.182 3.80675 102.171C3.46052 102.176 3.46052 102.176 3.10728 102.181C1.87929 102.156 1.40007 102.033 0.496376 101.171C-0.0144357 100.281 -0.0144357 100.281 0.00642378 99.2328C0.325798 98.2488 0.477339 97.8377 1.32057 97.2627C10.2851 95.018 21.0194 97.8462 29.8881 99.6216C30.6169 99.7656 31.3464 99.9044 32.0767 100.041C32.8472 100.185 33.6165 100.336 34.3826 100.502C35.5365 100.707 36.3104 100.843 37.3458 100.237C37.9851 99.6757 38.5256 99.0855 39.0762 98.4364C39.4794 97.9971 39.8831 97.5583 40.2873 97.12C40.4758 96.9096 40.6643 96.6993 40.8585 96.4825C41.8346 95.4132 42.9357 94.5037 44.0407 93.574C44.35 93.3043 44.6594 93.0346 44.9781 92.7567C52.2687 86.42 60.5671 80.3557 69.7395 77.1426C61.9805 73.9141 54.1565 70.854 46.3314 67.7919C45.3959 67.4257 44.4605 67.0593 43.5251 66.6928C41.8406 66.0328 40.156 65.3733 38.4712 64.7142C38.2145 64.6137 37.9578 64.5132 37.6933 64.4096C36.978 64.1297 36.2625 63.8501 35.547 63.5706C35.1466 63.4141 34.7462 63.2576 34.3337 63.0963C31.8034 62.1257 30.105 62.2582 27.6407 63.2827C25.8559 64.1169 24.1935 65.154 22.5138 66.1812C21.7166 66.6635 20.9183 67.1441 20.1201 67.6248C19.918 67.7468 19.7158 67.8689 19.5075 67.9947C17.0219 69.4932 14.5071 70.94 11.9903 72.3848C10.4552 73.2685 8.9281 74.1556 7.43499 75.1096C7.20773 75.2536 6.98046 75.3975 6.7463 75.5459C6.17468 75.9118 5.60774 76.2851 5.04137 76.6592C3.67583 77.2873 2.81165 77.2572 1.32057 77.1426C0.653067 76.8072 0.653067 76.8072 0.319315 76.1365C0.0830865 74.2674 0.0830865 74.2674 0.319315 73.4539C1.77571 71.9966 3.72123 71.0588 5.49246 70.0376C6.2135 69.6186 6.93445 69.1994 7.65532 68.7801C8.0358 68.5592 8.41628 68.3383 8.80829 68.1107C10.6507 67.0394 12.4851 65.9544 14.3204 64.8709C14.9408 64.5051 15.5617 64.1403 16.1828 63.7758C17.9824 62.7194 19.7787 61.6592 21.5594 60.5709C27.3009 57.0837 31.8843 56.1124 38.2926 58.7724ZM43.707 100.951C43.2576 101.507 42.8119 102.065 42.372 102.628C42.666 102.709 42.9601 102.789 43.263 102.872C49.301 104.53 55.3197 106.24 61.3123 108.056C61.5952 108.142 61.8781 108.228 62.1696 108.316C64.4455 109.005 66.7211 109.695 68.9951 110.39C93.2963 117.807 117.711 114.943 140.516 103.969C140.909 103.78 141.303 103.591 141.708 103.396C143.552 102.653 143.552 102.653 144.834 101.287C144.581 101.284 144.328 101.281 144.067 101.277C129.599 101.054 117 97.0466 104.116 90.556C103.846 90.4207 103.575 90.2853 103.297 90.1458C98.9778 87.9685 94.8955 85.4062 90.8884 82.6966C75.4259 72.514 54.3677 90.4527 43.707 100.951Z" fill="white"/>
<path d="M160.468 143.599C161.176 144.453 161.176 144.453 161.342 145.669C161.176 146.801 161.176 146.801 160.781 147.431C160.017 147.909 159.409 148.029 158.517 148.144C157.793 147.962 157.793 147.962 157.062 147.648C156.786 147.534 156.511 147.421 156.227 147.304C155.934 147.179 155.641 147.055 155.339 146.927C131.975 137.514 103.679 142.337 79.9661 148.291C55.8791 154.28 25.0661 158.414 1.64262 148.144C0.661095 147.509 0.370247 147.314 0.00159285 146.172C-0.0230073 144.931 0.234409 144.419 0.977903 143.446C1.90736 142.977 2.60397 143.047 3.63679 143.111C4.49625 143.407 4.49626 143.407 5.42323 143.824C29.3391 153.525 58.952 147.685 83.2084 142.095C102.78 137.588 143.205 128.685 160.468 143.599Z" fill="white"/>
<path d="M115.66 13.38C118.528 15.5277 120.692 18.6385 121.364 22.2729C121.678 26.7339 120.981 30.549 118.099 34.0373C114.95 37.1274 111.596 38.2523 107.313 38.1628C103.681 37.9046 101 36.3568 98.5222 33.6789C95.8252 30.3902 95.1568 26.8255 95.4885 22.6302C95.9532 18.8583 97.9721 15.9805 100.811 13.661C101.443 13.2232 102.07 12.8647 102.756 12.5252C102.965 12.4186 103.173 12.312 103.388 12.2022C107.234 10.5675 112.169 11.1859 115.66 13.38ZM102.103 19.5839C100.386 22.0391 100.237 24.0016 100.471 26.9787C101.039 29.3584 102.837 30.9682 104.715 32.3567C106.834 33.4459 109.25 33.3248 111.488 32.6718C113.919 31.1798 115.748 29.5476 116.467 26.6426C116.802 24.1553 116.485 22.0445 115.161 19.92C113.954 18.3388 112.556 16.9716 110.591 16.5587C106.997 16.1797 104.5 16.7048 102.103 19.5839Z" fill="white"/>
<path d="M130.233 22.5723C130.476 22.5658 130.719 22.5594 130.969 22.5527C132.155 22.5538 132.84 22.6276 133.807 23.2969C134.572 24.3322 134.516 25.0302 134.329 26.2621C133.805 26.9665 133.805 26.9665 132.964 27.5525C132.003 27.691 131.211 27.748 130.254 27.734C130.014 27.7417 129.774 27.7494 129.527 27.7573C128.179 27.7537 127.554 27.5903 126.478 26.8078C125.795 25.9395 125.795 25.9395 125.773 24.77C126.502 22.5826 128.025 22.5515 130.233 22.5723Z" fill="white"/>
<path d="M86.7225 22.5689C86.9615 22.5635 87.2004 22.5582 87.4465 22.5527C88.5144 22.5518 89.2835 22.6022 90.2282 23.1143C90.9987 23.9282 91.0583 24.5413 91.0806 25.6427C90.3698 27.1495 90.3698 27.1495 89.4124 27.6231C88.5312 27.6816 87.6669 27.7147 86.7851 27.7263C86.5447 27.7358 86.3043 27.7454 86.0566 27.7553C84.8638 27.7694 84.2128 27.7291 83.256 26.9965C82.7146 26.2689 82.4614 25.8821 82.4062 24.9825C83.0862 22.6282 84.4923 22.559 86.7225 22.5689Z" fill="white"/>
<path d="M108.258 0.00917261C108.484 0.0135907 108.711 0.0180089 108.944 0.0225609C109.589 0.1377 109.589 0.1377 110.587 0.823181C110.978 2.03267 110.993 3.14124 111.003 4.40053C111.016 5.0785 111.016 5.0785 111.029 5.77015C110.916 7.02861 110.797 7.50359 109.921 8.36347C108.704 8.77238 108.158 8.81817 106.989 8.25636C106.262 7.67799 106.262 7.67799 105.929 6.99251C105.879 6.0879 105.852 5.19835 105.846 4.29343C105.839 4.04645 105.832 3.79948 105.825 3.54502C105.817 2.45121 105.864 1.6395 106.35 0.657166C107.044 0.0327415 107.348 -0.0298817 108.258 0.00917261Z" fill="white"/>
<path d="M108.842 42.5039C110.079 42.914 110.314 43.0703 110.919 44.2408C111.038 45.4523 111.038 45.4523 111.021 46.814C111.02 47.2633 111.018 47.7126 111.017 48.1756C110.929 49.2647 110.851 49.8736 110.267 50.7595C109.26 51.2898 108.444 51.2033 107.335 51.1026C106.62 50.5799 106.62 50.5799 106.031 49.7302C105.891 48.7645 105.834 47.9689 105.848 47.0069C105.84 46.7657 105.832 46.5244 105.824 46.2759C105.828 44.9214 105.993 44.293 106.783 43.2115C107.66 42.5253 107.66 42.5253 108.842 42.5039Z" fill="white"/>
<path d="M96.1874 37.5508C96.8079 38.0607 96.8079 38.0607 97.1181 38.8061C97.2243 40.1753 97.0575 40.6994 96.1838 41.7617C93.9174 44.0838 93.9174 44.0838 92.5032 44.2392C91.5337 44.1412 91.5337 44.1412 90.7969 43.6508C90.098 42.5903 90.1557 41.9464 90.2928 40.689C90.9496 39.799 90.9496 39.799 91.8052 39.0022C92.0859 38.7344 92.3667 38.4666 92.6559 38.1907C93.9187 37.0976 94.568 37.1772 96.1874 37.5508Z" fill="white"/>
<path d="M126.605 6.15502C127.741 6.85938 128.047 7.30131 128.377 8.52954C127.979 10.2798 126.811 11.2557 125.471 12.4871C125.159 12.7845 124.847 13.082 124.525 13.3885C123.58 13.8942 123.58 13.8942 122.209 13.8722C120.35 13.3916 120.35 13.3916 119.799 12.4871C119.601 10.9295 119.637 10.2406 120.616 8.93766C120.975 8.5973 121.341 8.2634 121.713 7.93591C121.889 7.76246 122.066 7.58901 122.247 7.4103C123.66 6.12045 124.67 5.92573 126.605 6.15502Z" fill="white"/>
<path d="M122.685 37.2998C124.667 37.9163 126.486 39.3894 127.438 41.0823C127.571 42.1705 127.583 42.7297 126.898 43.6552C125.73 44.3472 125.021 44.2901 123.636 44.1544C122.655 43.5039 122.655 43.5039 121.777 42.6567C121.482 42.3787 121.187 42.1007 120.883 41.8143C120.085 40.9848 119.861 40.663 119.703 39.5847C119.833 38.6246 119.833 38.6246 120.546 37.8758C121.561 37.3958 121.561 37.3958 122.685 37.2998Z" fill="white"/>
<path d="M92.8568 6.07227C94.5835 6.7873 95.6666 8.03482 96.7738 9.67189C97.1962 10.973 97.1962 10.973 97.081 12.1006C96.4666 13.1414 96.4666 13.1414 95.5449 13.8353C94.2874 13.9992 93.6521 13.7106 92.6528 12.8487C91.5174 11.6601 90.7442 10.7191 90.207 9.06473C90.3222 7.93713 90.3222 7.93713 90.9367 6.89628C91.8583 6.20237 91.8583 6.20237 92.8568 6.07227Z" fill="white"/>
</svg>
