<svg width="145" height="191" viewBox="0 0 201 156" fill="none" xmlns="http://www.w3.org/2000/svg">
<path d="M75.6886 149.951V134.814C73.1932 135.002 70.8133 135.181 68.4078 135.361V149.951H75.6886ZM34.2852 141.601V149.9H46.865V140.487C42.6489 140.859 38.5698 141.222 34.2852 141.601ZM62.2527 149.951V135.301C60.2453 135.194 58.2592 134.678 56.5257 135.126C55.1774 135.472 53.2513 136.932 53.1314 138.058C52.7119 141.96 52.9688 145.93 52.9688 149.951H62.2527ZM119.476 123.263V149.887H125.944V122.589C123.705 122.823 121.582 123.041 119.476 123.263ZM151.81 149.968C151.81 142.007 151.822 134.264 151.775 126.52C151.771 126.144 151.309 125.547 150.945 125.436C148.843 124.8 146.703 124.275 144.554 123.707V149.968H151.81ZM108.48 122.781C100.172 121.325 96.8633 115.443 94.8473 108.352C93.0752 109.074 91.4316 109.693 89.8436 110.427C89.4926 110.589 89.1459 111.14 89.1074 111.545C88.6879 115.853 88.3369 120.168 87.9517 124.633C93.0966 127.528 103.613 126.776 108.48 122.781ZM132.026 149.921H138.391V147.701C138.391 139.685 138.215 131.664 138.472 123.66C138.579 120.305 137.578 117.774 135.262 115.69C132.664 117.786 131.838 120.463 131.945 123.856C132.193 131.801 132.026 139.753 132.026 147.706V149.921ZM113.338 149.96V127.728C109.708 129.056 106.062 130.345 102.47 131.766C102.03 131.941 101.644 132.842 101.632 133.41C101.563 137.708 101.597 142.011 101.593 146.314V149.96H113.338ZM95.3951 149.947V132.735C92.2106 131.95 89.2187 131.31 86.2909 130.46C84.1508 129.841 81.9978 131.224 81.955 133.499C81.8908 137.478 81.8523 141.456 81.8137 145.43C81.7966 146.912 81.8094 148.389 81.8094 149.947H95.3951ZM163.82 124.087C162.181 124.544 160.884 125.12 159.553 125.218C157.909 125.338 157.742 126.153 157.751 127.502C157.802 134.404 157.772 141.307 157.781 148.209C157.781 148.769 157.849 149.332 157.892 149.925H178.544V139.582C167.972 139.868 164.188 133.632 163.82 124.087ZM178.283 53.7172C178.283 64.9909 178.283 76.0725 178.288 87.1583C178.288 87.4742 178.339 87.7944 178.382 88.3109C182.79 86.6546 186.133 88.4987 189.151 91.6405C194.741 84.738 196.577 77.2506 193.893 68.9779C191.398 61.2814 186.086 56.2571 178.283 53.7172ZM184.879 133.452C189.981 133.956 192.477 132.291 193.179 127.566C194.681 117.372 192.297 107.913 187.233 99.0638C186.403 97.6081 185.299 96.2677 184.126 95.0597C182.238 93.1132 181.232 93.1217 179.353 95.0085C178.305 96.0629 177.312 97.2282 176.541 98.496C171.306 107.119 169.059 116.476 170.005 126.524C170.514 131.916 173.357 134.131 178.686 133.393V131.318C178.686 125.056 178.673 118.794 178.69 112.536C178.698 110.107 179.816 108.813 181.767 108.848C183.595 108.878 184.639 110.034 184.695 112.267C184.751 114.636 184.708 117.005 184.708 119.622C185.303 119.323 185.53 119.216 185.748 119.097C187.272 118.281 188.689 118.388 189.763 119.801C190.846 121.231 190.491 122.614 189.301 123.839C188.663 124.497 188.094 125.261 187.349 125.756C184.503 127.656 184.348 130.37 184.879 133.452ZM81.7367 65.6525C82.5628 64.9183 83.0251 64.5128 83.4788 64.0945C85.0111 62.6943 86.7874 62.5961 87.9945 63.8511C89.1887 65.0891 89.0517 66.8478 87.5836 68.3504C85.9913 69.9853 84.3477 71.5732 82.7468 73.2039C82.3916 73.571 81.8309 74.0278 81.848 74.4205C81.9721 77.1823 81.8223 80.0466 82.5243 82.6762C83.8041 87.4998 85.7088 92.1484 87.1641 96.9294C87.8918 99.3156 88.1957 101.83 88.6965 104.293C93.4818 102.987 93.7344 102.615 93.1737 98.0008C93.1351 97.6807 93.1223 97.352 93.0966 97.0276C92.0865 83.5769 92.8826 70.1945 94.7574 56.8675C94.9885 55.2283 94.5048 54.5624 93.2593 53.8239C79.2541 45.4957 60.8574 50.9084 53.4824 65.4135C52.1255 68.0814 52.1127 70.2756 54.0474 72.5892C56.8767 69.3621 59.7402 65.9983 64.3886 65.4989C69.2468 64.9738 72.4056 68.1754 75.8085 71.4964C75.8085 68.2223 75.7528 65.3708 75.8299 62.5236C75.8812 60.6923 77.1182 59.5568 78.8004 59.5568C80.5082 59.5611 81.6126 60.6539 81.7281 62.5364C81.7838 63.42 81.7367 64.3079 81.7367 65.6525ZM151.63 119.541C151.724 119.084 151.801 118.892 151.801 118.704C151.81 109.117 151.835 99.529 151.775 89.9415C151.771 89.2713 151.292 88.4816 150.804 87.9608C149.019 86.057 147.127 84.2513 145.286 82.3944C143.497 80.5845 143.3 79.0307 144.649 77.6263C145.928 76.303 147.76 76.4908 149.455 78.13C150.123 78.7788 150.787 79.4405 151.822 80.465C151.822 78.7788 151.762 77.686 151.844 76.6018C151.895 75.9103 151.929 74.9028 152.362 74.6168C153.303 73.9936 154.528 73.3277 155.568 73.4259C157.087 73.5667 157.763 74.9242 157.768 76.4524C157.781 81.5407 157.772 86.629 157.772 91.713C157.776 92.3021 157.772 92.8912 157.772 93.8303C158.401 93.2668 158.641 93.0491 158.885 92.8357C160.537 91.3971 162.134 91.316 163.392 92.5967C164.612 93.8346 164.488 95.5848 163.045 97.113C162.373 97.8216 161.74 98.6027 160.952 99.1662C158.26 101.113 157.494 103.661 157.708 106.918C157.982 111.05 157.772 115.217 157.772 119.391C162.557 118.772 163.996 117.701 164.471 114.645C165.562 107.618 167.929 101.053 171.653 94.9701C172.094 94.2486 172.329 93.2882 172.334 92.4387C172.376 80.8918 172.376 69.3493 172.355 57.8024C172.338 48.8338 166.401 41.6624 157.729 40.0659C149.789 38.6103 141.267 43.5748 138.207 51.5359C137.826 52.522 137.71 53.7001 137.809 54.7588C138.468 61.9601 139.448 69.1358 139.876 76.3457C140.48 86.5052 140.385 96.6733 138.305 106.722C138.181 107.324 138.181 108.054 138.408 108.613C140.818 114.542 145.218 118.102 151.63 119.541ZM113.338 117.018C113.39 116.694 113.449 116.506 113.449 116.318C113.454 105.881 113.471 95.4439 113.419 85.0069C113.415 84.3367 112.983 83.5299 112.495 83.0219C110.192 80.6187 107.782 78.3178 105.454 75.9401C103.947 74.4034 103.836 72.7087 105.069 71.4324C106.34 70.1176 108.116 70.2201 109.713 71.7867C110.851 72.9051 111.917 74.0961 113.013 75.2571C113.458 73.3832 113.449 71.7782 113.462 70.1731C113.475 67.8381 114.481 66.566 116.33 66.5234C118.278 66.4807 119.339 67.7613 119.339 70.2158C119.348 77.3915 119.343 84.5672 119.348 91.7429C119.348 92.2893 119.416 92.8357 119.45 93.4461C119.733 93.3223 119.87 93.301 119.951 93.2199C121.347 91.8454 122.729 90.4623 124.129 89.0878C125.811 87.4401 127.652 87.2394 128.931 88.5499C130.292 89.9372 130.104 91.5252 128.319 93.3266C125.695 95.9689 123.042 98.5771 120.431 101.232C119.994 101.676 119.408 102.261 119.399 102.786C119.318 107.524 119.352 112.267 119.352 116.98C125.233 117.607 128.794 115.596 130.917 110.478C131.512 109.044 131.996 107.537 132.313 106.017C134.979 93.1644 134.633 80.1875 133.224 67.2789C132.197 57.8536 130.288 48.5179 128.739 39.1524C128.371 36.9028 129.064 35.3874 130.81 34.969C132.612 34.5422 134.072 35.7075 134.594 37.9998C134.975 39.6774 135.352 41.3593 135.805 43.3741C138.849 39.6006 142.299 36.9839 146.476 35.3959C150.714 33.7823 155.101 33.5433 159.595 34.3287C157.25 21.4628 140.411 13.0023 128.674 18.7223C129.231 20.2932 129.886 21.8513 130.331 23.4649C130.922 25.6206 129.201 27.819 127.253 27.2171C126.192 26.8926 125.105 25.7828 124.57 24.7497C122.686 21.1256 121.257 17.2454 119.228 13.7109C117.16 10.1038 115.624 10.0568 113.646 13.6554C111.305 17.907 109.088 22.3337 107.611 26.9353C100.459 49.1881 97.6979 72.0599 99.0334 95.3628C99.3116 100.246 100.343 105.185 101.76 109.881C103.459 115.532 107.226 117.543 113.338 117.018ZM68.2923 129.231C69.7262 129.231 70.839 129.299 71.9434 129.218C77.6875 128.808 80.4141 126.921 81.8351 122.23C82.3402 120.561 82.6826 118.807 82.8282 117.069C83.7869 105.633 81.4199 94.795 76.6517 84.4306C74.6785 80.1448 72.3115 76.0938 68.6646 72.9606C66.2163 70.8561 64.5341 70.7921 62.0858 72.9094C60.7161 74.0918 59.4791 75.4791 58.3919 76.9305C55.1988 81.1949 53.0587 86.01 51.308 91.013C50.5718 93.1302 48.9667 94.0352 47.2974 93.4034C45.5553 92.7503 44.8876 91.1325 45.7051 89.028C46.8394 86.121 48.1919 83.2951 49.292 80.3796C49.6216 79.5131 49.7414 78.3007 49.3861 77.4982C47.8624 74.0448 46.2487 70.6213 44.4381 67.3173C42.2937 63.4115 39.6613 59.83 36.1258 57.0212C32.5517 54.1782 29.6625 54.0331 26.3025 57.0767C23.8584 59.2879 21.6198 61.8363 19.7622 64.5555C14.9725 71.5562 11.8693 79.3594 9.60928 87.4955C6.46754 98.7863 5.05932 110.231 7.05394 121.893C7.79443 126.213 9.18981 130.324 13.2176 132.774C17.8403 135.583 23.0366 135.28 28.2714 135.399C28.2714 130.977 28.3057 126.806 28.2329 122.636C28.2243 122.085 27.7877 121.445 27.3725 121.018C25.2367 118.811 23.028 116.681 20.875 114.491C19.2913 112.886 19.1372 111.123 20.3956 109.851C21.7268 108.506 23.3662 108.63 25.0355 110.231C26.0285 111.183 26.9916 112.164 28.2757 113.428C28.2757 104.933 28.2671 96.9764 28.28 89.0237C28.2842 86.7912 29.4442 85.421 31.2505 85.438C33.0482 85.4508 34.144 86.8083 34.1568 89.0792C34.1739 91.3758 34.1611 93.6724 34.1611 96.0927C36.6052 94.9573 37.992 95.1109 38.9893 96.4598C40.0594 97.9112 39.7597 99.2345 37.9449 101.062C37.1616 101.851 36.4254 102.696 35.5736 103.396C34.4693 104.306 34.1183 105.356 34.1269 106.79C34.1954 115.596 34.1611 124.403 34.1611 133.213V135.467C39.4516 135.194 44.5665 135.557 49.3348 132.701C44.2541 129.111 42.3921 124.036 42.0411 118.401C41.7586 113.868 41.9513 109.3 42.0668 104.75C42.1268 102.492 43.4408 101.318 45.3413 101.454C47.2075 101.587 48.0421 102.935 47.9822 105.262C47.8795 109.424 47.6526 113.603 47.9223 117.748C48.4787 126.443 54.2101 130.827 62.394 128.975V126.887C62.394 117.428 62.3897 107.968 62.3983 98.5088C62.4026 96.0159 63.4255 94.7652 65.3774 94.795C67.2949 94.8249 68.2837 96.1055 68.288 98.607C68.2965 102.457 68.288 106.308 68.2965 110.154C68.3008 110.615 68.395 111.076 68.5063 112.053C70.3768 110.094 71.8834 108.463 73.4457 106.888C74.503 105.821 75.7485 105.407 77.1696 106.218C79.0101 107.264 79.2113 109.475 77.542 111.178C74.8454 113.932 72.076 116.617 69.3794 119.37C68.9129 119.844 68.3693 120.51 68.3436 121.107C68.2323 123.758 68.2923 126.422 68.2923 129.231ZM0 108.498C0.398069 105.074 0.663447 101.634 1.21989 98.2399C3.64682 83.4018 8.23102 69.3706 17.6991 57.3969C19.7964 54.746 22.8354 52.8421 25.3608 50.5114C25.8787 50.0333 26.311 49.171 26.3196 48.4795C26.3838 39.7372 26.1826 30.9906 26.4095 22.2568C26.6663 12.2339 31.4774 4.96 40.6115 0.640063C41.2493 0.341252 41.9598 0.106474 42.6575 0.0381741C44.1471 -0.1155 45.1658 0.61445 45.6666 2.00605C46.1888 3.45314 45.6238 4.59289 44.4381 5.38687C43.6891 5.89058 42.7816 6.1467 41.9769 6.57784C36.3184 9.6129 32.7786 14.2914 32.5603 20.703C32.2435 30.0173 32.4789 39.3487 32.4789 48.2447C35.2697 49.854 38.0947 51.0962 40.436 52.9403C42.803 54.8015 44.6949 57.2645 46.9164 59.591C46.9507 58.9763 47.0063 58.4256 47.0063 57.8792C47.0149 51.617 47.0534 45.3506 46.9635 39.0883C46.9507 38.2303 46.5012 37.2058 45.9234 36.5527C44.3654 34.794 42.6275 33.1975 40.9668 31.537C38.6768 29.2447 38.3772 27.7122 39.9138 26.2139C41.3178 24.8479 43.0427 25.2022 45.1315 27.2726C45.628 27.7635 46.1417 28.233 47.0106 29.0526C47.0106 27.5287 46.9892 26.4572 47.0149 25.3815C47.0705 23.0551 48.1363 21.8598 50.0624 21.9153C51.8516 21.9665 52.9431 23.2215 52.9516 25.3815C52.973 30.9223 52.9602 36.4674 52.9602 42.4649C53.6707 41.8374 54.0859 41.4063 54.5568 41.0605C55.8836 40.0787 57.2319 40.0659 58.4861 41.1629C59.6503 42.1874 59.7787 43.9461 58.6915 45.2182C57.6771 46.4049 56.6113 47.5959 55.3871 48.5521C53.1828 50.2638 52.4252 52.3683 53.1528 55.1472C53.3283 55.0576 53.5637 54.9936 53.7135 54.8399C57.3218 51.0493 61.5551 48.1935 66.4175 46.2171C66.9354 46.0079 67.4918 45.1158 67.4961 44.5352C67.5646 36.7747 67.7872 28.9971 67.4576 21.2494C67.1665 14.3127 63.5154 9.2714 57.2105 6.215C56.5086 5.8735 55.5027 5.68568 55.1902 5.12221C54.6466 4.14041 54.0774 2.77442 54.3727 1.84384C54.6338 1.02852 56.0121 0.422359 57.0222 0.055249C57.5701 -0.14538 58.4219 0.243071 59.0596 0.537613C67.8899 4.62704 72.9492 11.4442 73.373 21.211C73.6769 28.1135 73.4586 35.0416 73.4714 41.9527C73.4757 42.6613 73.4714 43.3699 73.4714 44.3218C81.5141 43.1735 88.9319 44.6291 95.7333 48.3685C97.6081 41.1203 99.119 33.8634 101.413 26.8585C103.224 21.3305 105.835 16.0416 108.412 10.8039C109.289 9.01954 110.984 7.51696 112.589 6.24061C114.922 4.38372 117.717 4.27274 120.028 6.12536C121.972 7.68344 123.555 9.74096 125.075 11.7473C125.815 12.7248 126.235 13.0962 127.532 12.665C144.584 7.00898 161.945 16.7459 165.793 34.1836C166.221 36.1216 167.129 37.2357 168.567 38.5078C171.024 40.6848 173.023 43.3741 175.266 45.7988C175.839 46.4177 176.533 47.1776 177.286 47.3398C199.74 52.2232 208.519 78.0361 193.624 95.4908C193.333 95.8366 193.042 96.1824 192.738 96.5495C196.753 103.904 199.231 111.699 199.492 120.023C199.608 123.686 199.274 127.476 198.409 131.032C197.159 136.167 193.14 139.019 187.828 139.424C186.861 139.497 185.898 139.608 184.832 139.71V150.036H190.679C193.033 150.036 195.392 149.985 197.746 150.058C199.526 150.113 200.798 151.407 200.819 152.99C200.84 154.617 199.65 155.799 197.806 155.949C197.155 156 196.496 155.983 195.845 155.983C132.193 155.983 68.5448 155.978 4.89667 156C3.01762 156.004 1.26269 155.932 0 154.301V151.953C0.971629 150.429 2.37129 149.989 4.15618 150.007C11.4669 150.075 18.7777 150.036 26.0885 150.036H28.1344V141.512C25.2709 141.324 22.5358 141.226 19.8178 140.948C11.9506 140.146 5.95818 136.603 2.94485 129C2.18724 127.079 1.60083 125.056 1.22845 123.024C0.680568 120.032 0.393789 116.997 0 113.979V108.498Z" fill="white"/>
</svg>
