<svg width="145" height="191" viewBox="0 0 184 171" fill="none" xmlns="http://www.w3.org/2000/svg">
<path d="M127.162 62.6444C127.356 57.6566 122.83 53.9792 119.107 55.9219C121.726 58.1059 124.415 60.3523 127.162 62.6444ZM136.664 65.6563C140.259 65.3276 143.809 65.0032 147.342 64.6787C143.718 61.0304 139.568 61.3881 136.664 65.6563ZM150.113 86.7017C150.122 78.024 143.958 73.007 135.982 74.4006C140.503 78.3693 144.934 82.2589 149.369 86.1485C149.576 86.3315 149.816 86.4813 150.113 86.7017ZM123.145 70.2905C116.397 64.3667 108.926 65.4816 104.479 72.4621C110.672 71.7424 116.741 71.0352 123.145 70.2905ZM59.2329 19.6924C59.3735 18.5567 59.4645 17.1839 59.7293 15.8444C60.0106 14.4342 60.2547 12.9574 60.8835 11.7011C61.5992 10.2825 61.2145 9.40059 60.2382 8.4105C58.1407 6.28058 55.2697 5.57338 53.4991 6.97114C51.5464 8.52282 51.1244 10.7734 51.1286 13.1196C51.1286 13.39 51.4595 13.7187 51.716 13.9183C54.2065 15.8527 56.7135 17.7622 59.2329 19.6924ZM75.6648 34.7267C80.5795 38.7827 85.7673 43.055 91.0791 47.4355C92.2085 43.4044 92.1796 39.4774 90.9302 35.5712C90.8226 35.2217 90.3138 34.7641 89.987 34.7641C85.1054 34.71 80.2238 34.7267 75.6648 34.7267ZM50.7439 61.4006C52.2538 54.6448 53.7349 48.0262 55.2697 41.1539C51.3933 44.3779 47.6535 47.448 43.9841 50.6012C43.6531 50.8883 43.558 51.8035 43.74 52.2819C45.1383 56.0259 47.5212 59.0336 50.7439 61.4006ZM56.1219 25.4665C48.4685 14.4134 38.9453 15.366 30.5845 24.8342C39.2018 23.1744 47.5584 23.0246 56.1219 25.4665ZM64.7971 22.5628C70.1586 15.2038 76.8728 10.1036 84.7992 5.96026C70.9363 4.1881 64.16 9.78747 64.7971 22.5628ZM69.7697 28.624C82.3874 28.9776 94.4632 29.3187 106.886 29.664C105.956 28.6115 105.356 27.8585 104.686 27.1763C99.7667 22.1926 93.9957 19.1932 86.8388 20.0627C80.3851 20.8447 75.0774 24.1728 69.7697 28.624ZM27.4611 57.12C37.0671 49.1452 46.4166 41.3827 55.7661 33.6201C55.7041 33.4745 55.642 33.3331 55.5841 33.1875C53.0936 33.3456 50.5866 33.3705 48.121 33.6867C41.6384 34.5104 35.826 36.7568 31.8049 42.2854C28.698 46.5577 27.5811 51.4748 27.4611 57.12ZM31.1926 150.225C34.4856 150.965 38.0062 151.544 41.3902 152.575C45.4361 153.811 49.3828 154.019 53.3253 152.471C59.2205 150.163 65.0825 150.142 70.9735 152.438C74.9864 154.006 79.053 154.048 83.0576 152.484C89.0189 150.154 94.9224 150.154 100.88 152.488C104.822 154.031 108.847 154.04 112.79 152.496C118.747 150.167 124.655 150.142 130.612 152.471C134.616 154.04 138.679 153.998 142.696 152.459C145.919 151.223 149.216 150.52 152.687 150.766C152.869 150.778 153.063 150.649 153.332 150.562C119.74 122.349 60.9538 124.371 31.1926 150.225ZM0 152.218C2.58559 149.676 5.5311 150.836 8.37733 151.469C11.1656 152.089 13.9002 152.946 16.6885 153.545C18.5542 153.944 20.0394 153.278 21.4418 151.793C32.0945 140.478 45.341 133.556 60.023 129.159C62.9396 128.285 65.914 127.624 69.0747 126.812C68.9051 99.344 66.3608 72.1168 59.9899 45.1932C59.1543 48.7542 58.2276 52.2944 57.5202 55.8761C56.8914 59.0585 56.4901 62.2825 56.0226 65.4899C55.5965 68.4352 53.8879 69.392 51.2113 68.0649C46.2801 65.6272 42.532 61.9414 39.9257 57.0784C39.5617 56.4003 39.2142 55.7139 38.7715 54.8611C35.1889 57.8313 31.7552 60.71 28.2843 63.543C27.0639 64.5372 25.9759 65.9724 24.0564 65.2569C22.0955 64.5289 22.1947 62.7068 22.0955 61.1552C21.4501 50.9299 23.3283 41.5033 31.6766 34.6518C34.3863 32.4262 37.7249 30.9744 40.8565 29.1232C38.4861 29.3561 36.008 29.4185 33.6086 29.8803C30.5638 30.4627 27.5769 31.3363 24.5818 32.1516C23.1131 32.551 21.7273 32.7756 20.6889 31.3446C19.6422 29.9052 20.2917 28.6489 21.1771 27.3968C25.1775 21.7391 29.7074 16.5766 36.1735 13.7811C39.0611 12.5331 42.3169 12.1503 45.5851 11.335C46.8717 0.227782 57.3919 -2.75494 64.8219 5.11578C74.1259 -2.13094 84.2035 -0.454458 94.339 2.68218C95.1747 2.94426 96.0062 4.18394 96.2627 5.12826C96.6516 6.55514 95.5388 7.37466 94.3101 7.96538C90.0614 10.0121 85.8128 12.0588 81.6055 14.1929C80.5009 14.7503 79.5453 15.6115 78.4987 16.3478C81.3159 15.7404 84.038 14.8876 86.8181 14.6089C95.8739 13.702 103.122 17.5043 109.141 23.9648C111.007 25.9699 112.6 28.2662 114.085 30.5833C114.614 31.407 114.805 32.7881 114.523 33.7283C114.122 35.0678 112.72 35.3216 111.387 35.2841C107.019 35.1552 102.646 35.0304 98.2774 34.9097C97.8058 34.8972 97.3383 34.9097 96.6433 34.9097C96.7137 35.5712 96.7261 36.1452 96.8419 36.6944C98.0209 42.2521 97.2597 47.5811 94.9348 52.7062C93.5158 55.8304 91.7038 56.1257 89.292 53.7296C84.3069 48.775 79.0778 44.1116 72.8972 39.7894C73.9025 42.5558 74.7713 44.8729 75.5738 47.215C75.8221 47.9347 76.2275 48.9081 75.9462 49.4323C75.4621 50.3308 74.6182 51.3251 73.7081 51.6371C72.3677 52.0947 71.3045 51.192 70.7915 49.8649C69.8193 47.3481 68.9175 44.8022 67.9329 42.2854C67.0972 40.1638 66.2036 38.0672 65.3018 35.9705C65.1073 35.5171 64.764 35.1302 64.4868 34.7142C64.3172 34.7433 64.1476 34.7766 63.978 34.8057C63.9324 35.3798 63.7504 35.983 63.8621 36.5238C65.8354 46.3497 68.057 56.134 69.778 66.0099C71.048 73.2816 71.9664 80.6489 72.5125 88.0163C73.4061 100.134 73.8777 112.29 74.5313 124.429C74.552 124.845 74.6182 125.257 74.6803 125.827C78.4573 125.452 82.1805 125.078 86.1148 124.687C85.7921 121.563 85.6225 118.459 85.1261 115.41C83.2892 104.086 81.5559 92.7379 79.3674 81.4809C77.9609 74.2467 75.8262 67.1539 74.0059 59.9987C73.4474 57.8188 74.0059 56.3961 75.669 55.8761C77.2245 55.3894 78.6186 56.3836 79.2433 58.5177C83.2189 72.1376 86.3051 85.9613 88.3984 99.9971C89.5733 107.843 90.5165 115.726 91.5673 123.588C91.6045 123.884 91.6749 124.171 91.7369 124.495C97.0612 124.832 102.344 125.165 107.586 125.494C108.384 119.99 108.971 114.553 110.002 109.203C111.09 103.554 112.562 97.9753 113.948 92.3885C114.453 90.3459 115.851 89.5222 117.489 90.0339C119.024 90.5165 119.645 91.9142 119.169 93.8653C117.961 98.8198 116.526 103.733 115.586 108.737C114.498 114.516 113.845 120.377 112.968 126.455C115.156 126.933 117.146 127.37 119.409 127.865C120.456 110.422 122.127 93.2912 126.946 76.6345C126.806 76.5805 126.661 76.5264 126.52 76.4681C125.544 78.415 124.564 80.3536 123.591 82.3005C123.215 83.0534 122.892 83.8355 122.479 84.5635C121.68 85.9779 120.327 86.4729 118.987 85.9072C117.638 85.3331 116.985 83.8147 117.593 82.2797C118.164 80.832 118.917 79.455 119.574 78.0406C119.823 77.5164 120.03 76.9715 120.369 76.1603C116.124 76.6429 112.153 77.1004 108.181 77.5539C105.269 77.8825 102.365 78.2694 99.444 78.5149C96.5234 78.7603 95.1995 76.7385 96.5771 74.1427C99.4895 68.6515 103.238 63.9507 109.294 61.775C111.21 61.0886 113.315 60.9388 115.711 60.4688C113.762 59.6492 112.045 58.9046 110.308 58.2016C109.038 57.6857 107.892 57.0992 107.826 55.4809C107.755 53.792 108.814 53.0432 110.179 52.4691C114.196 50.776 118.309 49.6153 122.727 50.256C127.629 50.9673 131.212 54.391 132.234 59.2832C132.378 59.9737 132.531 60.6643 132.672 61.3216C134.256 60.1526 135.671 58.8131 137.33 57.9353C142.075 55.431 146.506 56.6332 150.262 59.9654C152.649 62.087 154.536 64.791 156.571 67.2995C157.382 68.2979 157.535 69.5168 156.741 70.6483C155.918 71.8256 154.805 72.0502 153.415 71.6925C151.412 71.1766 149.369 70.8313 146.854 70.3072C148.405 71.6217 149.613 72.4912 150.639 73.5395C154.445 77.4208 155.533 82.3837 155.872 87.5753C155.984 89.2393 155.905 90.9657 155.582 92.5965C155.388 93.5949 154.776 94.7805 153.977 95.3254C152.831 96.1033 151.599 95.4336 150.581 94.5309C147.71 91.9766 144.814 89.4515 141.931 86.9139C139.002 84.3389 136.068 81.7597 133.135 79.1888C132.879 78.96 132.585 78.7769 131.985 78.336C130.848 83.4777 129.619 88.3449 128.705 93.2704C126.558 104.819 125.499 116.496 124.866 128.219C124.799 129.458 125.47 129.583 126.272 129.841C134.869 132.582 143.101 136.172 150.415 141.497C154.854 144.73 158.9 148.524 162.992 152.205C164.072 153.174 165.102 153.844 166.467 153.599C168.92 153.162 171.34 152.513 173.789 152.035C176.234 151.556 178.687 151.057 181.165 150.803C182.828 150.633 183.966 151.852 183.999 153.37C184.032 154.822 183.015 155.862 181.48 156.174C178.629 156.748 175.754 157.276 172.966 158.087C168.581 159.36 164.237 159.531 159.922 158.042C155.918 156.656 151.909 155.492 147.652 156.594C145.174 157.235 142.766 158.191 140.267 158.716C136.569 159.498 132.846 159.236 129.334 157.796C124.245 155.712 119.272 155.766 114.163 157.771C109.364 159.656 104.396 159.672 99.6054 157.796C94.4921 155.795 89.5402 155.749 84.4269 157.759C79.566 159.668 74.5603 159.656 69.6994 157.75C64.6481 155.774 59.7417 155.766 54.6905 157.75C49.8337 159.656 44.828 159.66 39.963 157.755C34.92 155.779 30.0094 155.758 24.9582 157.742C20.1014 159.652 15.1702 159.448 10.2059 157.842C7.78988 157.056 5.20015 156.819 2.75107 156.12C1.74993 155.833 0.910129 154.98 0 154.389V152.218ZM136.664 171C134.186 170.472 131.687 170.272 129.453 169.394C124.278 167.368 119.26 167.285 114.11 169.398C110.299 170.967 106.282 171.004 102.29 170.21C100.544 169.864 98.8649 169.17 97.1646 168.608C93.702 167.46 90.2062 167.352 86.7891 168.629C82.2219 170.339 77.5927 171.295 72.7483 170.243C70.9487 169.852 69.1988 169.211 67.4447 168.629C63.9159 167.452 60.3829 167.364 56.8996 168.675C52.3945 170.368 47.8149 171.27 43.0326 170.251C41.5805 169.943 40.1905 169.336 38.7426 168.995C36.7196 168.516 34.6801 168.076 32.624 167.776C30.8286 167.514 29.7571 166.557 29.8026 164.931C29.8522 163.329 30.9899 162.16 32.8102 162.393C35.5695 162.742 38.3744 163.158 41.0055 164.032C45.2748 165.451 49.4118 165.617 53.6108 163.965C59.3197 161.723 65.0412 161.719 70.7501 163.953C75.0153 165.621 79.2433 165.584 83.5085 163.92C89.1513 161.715 94.8313 161.732 100.474 163.936C104.739 165.609 108.963 165.6 113.233 163.936C118.937 161.707 124.659 161.74 130.368 163.982C134.563 165.625 138.704 165.451 142.973 164.011C145.592 163.125 148.409 162.738 151.168 162.393C152.98 162.168 154.135 163.358 154.176 164.951C154.217 166.553 153.113 167.481 151.317 167.78C148.864 168.196 146.444 168.837 144.007 169.378C141.575 169.918 139.146 170.451 136.664 171Z" fill="white"/>
</svg>
