<svg width="145" height="191" viewBox="0 0 173 173" fill="none" xmlns="http://www.w3.org/2000/svg">
<path d="M39.1004 10.9363H55.6561V5.5487H39.1004V10.9363ZM27.7427 122.948H16.712V133.894H27.7427V122.948ZM33.495 133.87H44.4358V122.844H33.495V133.87ZM50.2781 133.856H61.2425V122.886H50.2781V133.856ZM16.7215 150.644H27.6764V139.66H16.7215V150.644ZM44.45 139.717H33.4808V150.687H44.45V139.717ZM61.2567 139.675H50.2639V150.63H61.2567V139.675ZM27.7143 156.444H16.7451V167.442H27.7143V156.444ZM44.45 156.472H33.4808V167.442H44.45V156.472ZM61.2188 156.472H50.2449V167.442H61.2188V156.472ZM120.012 113.561C116.259 118.574 112.677 123.36 109 128.274H131.047C127.318 123.299 123.745 118.541 120.012 113.561ZM66.9948 77.9993H105.906V72.6164H66.9948V77.9993ZM33.4619 27.7103H61.2567V16.7503H33.4619V27.7103ZM72.4391 100.587H5.58645V105.965H72.4391V100.587ZM66.4404 94.8302C65.616 88.8597 59.9869 83.8749 53.4575 83.7612C43.8103 83.5953 34.1537 83.5953 24.5065 83.7612C17.9913 83.8749 12.3338 88.8834 11.5188 94.8302H66.4404ZM139.514 17.2194C130.123 18.7831 120.931 20.3136 111.762 21.8442V38.8693H139.514V17.2194ZM133.871 134.121H106.124V167.442H133.871V134.121ZM66.9048 167.385H72.4296V111.732H5.55329V167.394H11.1445V117.338H66.9048V167.385ZM167.447 100.952C156.241 102.549 145.163 104.132 133.98 105.729C133.98 108.88 134.255 111.926 133.919 114.907C133.303 120.384 134.639 125.033 138.557 128.98C139.188 129.62 139.519 130.833 139.524 131.78C139.59 143.067 139.567 154.354 139.567 165.641V167.428H167.447V100.952ZM61.4273 80.0652V66.9019H72.4059V33.5433H22.3269V78.1225C31.4623 78.1225 40.4793 78.1556 49.501 78.1082C53.4622 78.0893 57.4045 78.0466 61.4273 80.0652ZM100.461 167.447C100.461 157.534 100.746 147.806 100.348 138.111C100.12 132.562 101.167 127.881 105.119 123.896C105.716 123.294 106.005 122.138 106.01 121.237C106.067 109.311 106.048 97.3842 106.043 85.4528C106.043 84.8984 105.996 84.3393 105.972 83.856H66.81C69.9041 87.0733 71.6099 90.6982 72.368 94.9202H78.1488V167.447H100.461ZM111.653 66.9777L111.601 66.9256V114.788C111.72 114.817 111.838 114.841 111.957 114.869C114.619 111.334 117.282 107.804 120.021 104.174C122.817 107.885 125.451 111.381 128.086 114.874C128.195 114.831 128.308 114.788 128.417 114.746V100.829C134.065 100.009 139.571 99.2085 145.077 98.4077V44.6881H106.152V66.9777H111.653ZM111.634 5.56291H117.188V15.163C119.121 14.8502 120.874 14.5659 122.769 14.2579V0.0142153H128.389V13.296C130.332 12.9833 132.085 12.7037 133.947 12.4099V5.62451H139.529V11.4291C141.471 11.1448 143.225 10.8842 145.134 10.5999V38.983H150.716V97.6069C158.221 96.5502 165.551 95.5125 173 94.4606V173H0V94.9249H5.51538C5.88971 93.5555 6.14557 92.3093 6.5815 91.1247C8.19252 86.7132 10.9644 83.1878 15.0915 80.8944C16.3661 80.1837 16.6646 79.3687 16.6599 78.0229C16.6172 62.0734 16.6314 46.1286 16.6314 30.1838V27.9046H27.7854V11.1116H33.3434V0H61.252V11.0453H66.8716V27.7719H78.0161V66.8024H100.4V39.0873H105.958V17.1294C107.474 16.8498 108.82 16.4755 110.18 16.3855C111.445 16.3002 111.682 15.7268 111.658 14.6086C111.596 11.6518 111.634 8.69028 111.634 5.56291Z" fill="white"/>
</svg>
