<svg width="145" height="191" viewBox="0 0 189 169" fill="none" xmlns="http://www.w3.org/2000/svg">
<path d="M143.113 156.46H139.997V163.24H143.113V156.46ZM48.3155 163.194H51.5523V156.505H48.3155V163.194ZM98.0072 153.032H92.7365V163.248H98.0072V153.032ZM49.3137 91.3832C51.4353 91.9038 53.5403 92.1954 55.4615 92.9492C57.3743 93.6989 59.0532 93.803 60.8742 92.8368C62.8538 91.7831 64.9504 91.2208 67.5899 92.337C64.3699 86.7894 61.3921 81.6707 58.3808 76.4854C57.9172 76.8353 57.7251 76.9144 57.6416 77.056C54.8099 81.9164 51.9866 86.781 49.3137 91.3832ZM49.6228 115.073C47.5596 117.709 45.5465 120.288 43.4917 122.916C48.328 123.957 48.9462 125.577 46.0018 129.375C44.281 131.591 42.4392 133.711 40.5348 136.014C41.3283 136.172 41.9756 136.314 42.6272 136.431C45.7052 136.985 46.6115 139.159 44.7112 141.587C43.3539 143.323 41.8921 144.981 40.4638 146.664C39.6995 147.567 38.9059 148.446 38.0247 149.45C45.889 151.187 53.4401 151.22 61.2125 149.429C60.7071 148.838 60.3563 148.43 60.0055 148.021C58.1386 145.831 56.2132 143.682 54.4215 141.428C52.705 139.271 53.5653 137.097 56.2759 136.497C57.0443 136.326 57.8212 136.202 58.7149 136.031C56.7436 133.632 54.8308 131.408 53.0349 129.092C50.3286 125.598 51.0929 123.749 55.4406 123.057C55.5199 123.045 55.5784 122.895 55.6703 122.782C53.6823 120.25 51.6901 117.709 49.6228 115.073ZM135.128 122.882C140.131 124.103 140.624 125.519 137.45 129.613C135.788 131.758 133.996 133.798 132.146 136.018C132.893 136.177 133.424 136.314 133.962 136.401C137.412 136.976 138.277 139.084 136.168 141.803C135.453 142.724 134.731 143.64 133.971 144.523C132.588 146.126 131.173 147.705 129.644 149.438C137.466 151.199 145.026 151.208 152.836 149.438C152.335 148.846 151.959 148.396 151.579 147.951C149.745 145.802 147.853 143.707 146.099 141.499C144.312 139.25 145.18 137.059 147.987 136.472C148.722 136.314 149.457 136.168 150.309 135.993C148.279 133.523 146.362 131.295 144.566 128.98C141.977 125.639 142.842 123.657 147.051 123.086C147.139 123.074 147.206 122.936 147.323 122.824C145.302 120.246 143.272 117.664 141.246 115.081C139.2 117.689 137.178 120.267 135.128 122.882ZM119.432 56.4024C114.304 47.5478 109.434 39.1223 104.543 30.7092C103.065 28.1645 101.248 28.1936 99.7446 30.7842C95.1004 38.7849 90.4728 46.7982 85.8453 54.8114C85.6281 55.1862 85.4861 55.6069 85.1812 56.2858C86.6722 55.8401 87.8458 55.5278 88.9902 55.1321C90.9991 54.4449 93.0163 54.3366 94.8874 55.3778C99.7697 58.0933 104.489 58.035 109.405 55.2945C110.662 54.5907 112.604 54.8739 114.191 55.053C115.803 55.2362 117.369 55.8484 119.432 56.4024ZM107.237 129.071C104.268 125.444 101.419 122.074 98.7047 118.601C96.8879 116.277 97.9237 114.015 100.851 113.59C101.787 113.457 102.718 113.278 103.696 113.116C100.68 109.292 97.7858 105.619 94.9166 101.983C92.0223 105.652 89.1155 109.334 86.1418 113.103C87.0022 113.261 87.8166 113.453 88.6477 113.565C92.0641 114.019 93.0205 116.189 90.8654 118.93C88.5934 121.82 86.1669 124.594 83.7988 127.414C83.3979 127.893 82.9594 128.342 82.3329 129.038C83.9742 129.334 85.2314 129.579 86.4968 129.788C89.4204 130.271 90.4144 132.536 88.5475 134.831C86.0332 137.926 83.3645 140.891 80.7625 143.915C80.3867 144.348 80.0149 144.785 79.4971 145.385C89.909 147.809 99.9994 147.817 110.428 145.352C109.781 144.652 109.317 144.186 108.891 143.69C106.36 140.77 103.779 137.892 101.332 134.906C99.3938 132.541 100.388 130.262 103.432 129.779C104.694 129.579 105.951 129.313 107.237 129.071ZM189 167.305C187.931 168.696 186.477 169.004 184.794 169C124.574 168.983 64.349 168.983 4.12427 168.983C3.81521 168.983 3.51033 168.996 3.20127 168.975C0.294443 168.783 -0.820675 166.809 0.64109 164.273C7.6868 152.057 14.7492 139.858 21.8283 127.668C22.8265 125.939 24.376 125.435 25.8336 126.243C27.3455 127.076 27.6921 128.705 26.6355 130.537C20.7842 140.679 14.9121 150.808 9.0525 160.941C8.65992 161.62 8.28821 162.311 7.80792 163.177H42.3599V156.043C39.7036 155.506 36.9513 154.993 34.2241 154.373C33.2927 154.156 32.2946 153.827 31.5553 153.257C29.7427 151.853 29.7135 149.646 31.3256 148.001C33.4264 145.856 35.5272 143.711 37.8326 141.353C36.8511 141.099 36.1745 140.937 35.5063 140.754C32.3739 139.896 31.547 136.835 33.8065 134.544C35.8195 132.499 37.8033 130.421 40.0294 128.122C38.9226 127.855 38.0581 127.855 37.4692 127.455C36.5755 126.843 35.4227 126.056 35.2056 125.144C34.9884 124.232 35.4729 122.749 36.1829 122.083C40.351 118.193 43.8049 113.769 46.7034 108.884C48.4868 105.877 50.7462 105.865 52.5129 108.838C55.4072 113.724 58.8695 118.138 63.0084 122.058C63.7559 122.761 64.2529 124.302 64.0358 125.273C63.8395 126.152 62.5782 126.881 61.6593 127.484C61.0997 127.851 60.2978 127.855 59.2453 128.109C61.2793 130.233 63.1044 132.203 65.0005 134.098C66.0697 135.173 67.1681 136.197 66.6836 137.892C66.1783 139.671 64.9253 140.62 63.0961 140.875C62.6408 140.937 62.2023 141.145 61.4631 141.378C63.6139 143.582 65.4599 145.831 67.6651 147.647C70.2629 149.787 68.8846 153.577 65.982 154.169C63.1629 154.739 60.3521 155.36 57.4286 155.981V163.186H86.8393C86.8393 159.796 86.8685 156.393 86.785 152.99C86.7808 152.719 86.0249 152.32 85.5697 152.228C82.2034 151.549 78.8163 150.962 75.4501 150.283C73.6291 149.921 72.372 148.871 71.8374 147.018C71.3321 145.281 72.3887 144.286 73.4454 143.215C76.1517 140.471 78.8163 137.693 81.7231 134.694C80.1904 134.327 79.0794 134.04 77.9559 133.803C76.2979 133.449 75.2204 132.449 74.715 130.87C74.2138 129.292 75.0658 128.23 76.1183 127.164C78.8288 124.423 81.4558 121.604 84.371 118.551C82.9969 118.234 82.0739 118.03 81.1551 117.809C77.4589 116.926 76.6863 115.015 78.8079 111.745C76.5401 107.818 74.2556 103.832 71.9293 99.8713C71.7372 99.5464 71.3237 99.2965 70.9604 99.1424C70.3422 98.88 69.6615 98.7634 69.0392 98.5093C66.2409 97.3848 63.5179 97.2307 60.8115 98.8425C58.8778 99.992 56.8063 99.7588 55.0104 98.6718C51.5565 96.5768 48.4032 98.1553 45.1999 99.2007C44.7238 99.359 44.3395 100.009 44.0472 100.508C40.4345 106.706 36.8511 112.916 33.2552 119.121C32.9461 119.65 32.6579 120.204 32.2695 120.671C31.2546 121.878 29.9599 122.087 28.6402 121.3C27.2912 120.5 26.9403 119.213 27.596 117.801C28.1599 116.585 28.8907 115.44 29.5673 114.273C37.181 101.117 44.7948 87.9597 52.421 74.8112C54.2503 71.6542 56.7269 70.3048 59.6964 71.3251C61.1456 71.8208 62.4362 73.0619 63.5179 74.2239C64.4492 75.2276 64.9838 76.5979 65.8233 78.0223C66.2618 77.3018 66.6043 76.7687 66.9217 76.2231C76.2352 60.1549 85.5404 44.0827 94.854 28.0187C97.1385 24.0787 100.601 22.4711 104.364 23.5748C106.406 24.1704 107.964 25.4073 109.025 27.2357C118.188 43.0373 127.351 58.843 136.493 74.6571C137.533 76.4563 137.141 78.1056 135.6 78.9427C134.138 79.7299 132.668 79.2176 131.624 77.4392C129.23 73.3743 126.821 69.3135 124.553 65.1778C123.834 63.87 122.924 63.1537 121.517 62.8371C120.021 62.4998 118.476 62.2124 117.098 61.5877C113.573 59.9883 110.248 60.3549 106.97 62.1832C103.829 63.9408 100.643 64.0408 97.4977 62.2999C93.6929 60.2007 90.0259 60.5506 85.9372 61.8001C82.2744 62.9204 79.8019 64.5572 78.0729 68.0516C75.6296 72.9828 72.585 77.6141 69.887 82.4246C69.5445 83.041 69.4151 84.1363 69.7366 84.7028C73.9925 92.2204 78.3485 99.688 82.6795 107.164C82.7714 107.322 82.8675 107.476 83.2016 108.03C85.6699 104.678 87.9502 101.604 90.1972 98.501C90.807 97.6597 91.3081 96.7393 91.8427 95.8438C93.8934 92.4244 95.8312 92.5369 98.074 95.898C100.655 99.7671 103.416 103.524 106.268 107.201C107.613 108.934 109.463 110.267 110.85 111.97C111.547 112.828 112.211 114.219 111.99 115.156C111.773 116.106 110.553 117.018 109.559 117.535C108.507 118.08 107.204 118.143 105.625 118.509C107.375 120.471 108.958 122.299 110.599 124.069C111.643 125.194 112.683 126.352 113.882 127.293C116.308 129.205 115.206 132.907 112.182 133.74C111.004 134.065 109.797 134.29 108.256 134.64C109.873 136.435 111.297 138.08 112.792 139.667C113.965 140.916 115.193 142.128 116.455 143.294C117.603 144.348 118.493 145.46 117.971 147.134C117.428 148.879 116.192 149.912 114.446 150.279C110.963 151.012 107.471 151.682 103.838 152.407V163.182H134.067V156.06C131.298 155.502 128.541 154.993 125.81 154.369C124.879 154.152 123.885 153.815 123.145 153.24C121.366 151.861 121.358 149.608 122.962 147.971C125.058 145.835 127.155 143.694 129.469 141.337C128.366 141.062 127.61 140.92 126.879 140.687C124.039 139.796 123.275 136.735 125.338 134.627C127.389 132.532 129.418 130.425 131.657 128.113C130.517 127.843 129.753 127.701 129.013 127.484C126.478 126.731 125.718 123.894 127.668 122.141C132.05 118.197 135.558 113.586 138.54 108.534C140.06 105.956 142.428 105.973 143.965 108.563C146.96 113.607 150.46 118.222 154.857 122.153C156.728 123.819 156.002 126.676 153.613 127.447C152.857 127.688 152.063 127.813 150.898 128.08C152.74 130.046 154.402 131.883 156.14 133.648C157.347 134.873 158.833 135.931 158.282 137.98C157.71 140.083 155.998 140.704 154.106 141.062C153.868 141.108 153.634 141.179 153.049 141.32C155.171 143.515 157.121 145.602 159.163 147.601C160.237 148.65 161.039 149.7 160.587 151.299C160.12 152.949 158.984 153.881 157.372 154.235C154.674 154.827 151.967 155.36 149.14 155.947V163.169H181.148C180.789 162.478 180.48 161.841 180.125 161.228C166.305 137.355 152.485 113.486 138.665 89.6173C137.132 86.9726 137.212 85.29 138.907 84.3654C140.632 83.4241 142.006 84.1696 143.585 86.8935C158.453 112.57 173.322 138.242 188.19 163.915C188.432 164.323 188.729 164.702 189 165.093V167.305ZM17.9442 29.4056C17.9025 38.3101 27.3538 43.966 35.2265 39.6762C36.9305 38.7516 38.2795 38.6558 39.9793 39.7304C43.1659 41.7378 46.5238 41.6879 49.7063 39.6512C51.3769 38.5808 52.7509 38.4892 54.3798 39.7637C56.8397 41.692 60.0514 41.5671 62.3735 39.6762C64.5954 37.8728 65.3096 34.6159 64.0566 32.0128C62.7578 29.3098 59.8718 27.7813 56.8397 28.606C54.5928 29.2182 53.3189 28.5185 52.0451 26.7318C49.9527 23.7872 46.8913 22.4711 43.358 23.1791C41.0652 23.6372 39.595 23.1791 38.0498 21.434C34.8506 17.8314 29.6467 16.8277 25.2071 18.6311C20.8135 20.4136 17.9693 24.6368 17.9442 29.4056ZM30.649 12.2213C34.4914 12.3254 38.1124 13.8998 41.3158 16.6236C41.8921 17.1109 42.8235 17.4732 43.5627 17.4357C48.3448 17.1858 52.3458 18.7518 55.6703 22.1795C56.0211 22.5419 56.7102 22.7834 57.2281 22.7585C64.3365 22.4294 69.887 27.3107 70.3214 34.3285C70.7139 40.68 65.6019 46.3442 58.8235 46.6857C56.894 46.7857 54.9185 45.8902 52.9514 45.5154C52.2915 45.3904 51.5022 45.2238 50.93 45.4654C46.7995 47.198 42.7232 47.1813 38.5885 45.4612C37.9537 45.1947 37.0307 45.1947 36.3833 45.4446C25.1069 49.7469 13.6299 42.8165 12.2976 30.855C11.1909 20.9134 20.1661 11.5924 30.649 12.2213ZM151.086 33.0291C158.754 33.0499 164.969 26.8817 164.923 19.3016C164.881 11.7798 158.716 5.66578 151.165 5.65745C143.522 5.64912 137.287 11.8381 137.32 19.4057C137.358 26.9317 143.501 33.0082 151.086 33.0291ZM151.345 0.00570918C162.454 0.293087 170.807 9.09765 170.511 20.2137C170.243 30.3594 161.164 38.989 150.919 38.7266C139.271 38.4267 131.21 28.7309 131.745 18.1313C132.242 8.28549 141.255 -0.252513 151.345 0.00570918Z" fill="white"/>
</svg>
