<svg width="145" height="191" viewBox="0 0 208 163" fill="none" xmlns="http://www.w3.org/2000/svg">
<path d="M24.5096 93.1733C24.5096 92.2813 24.5185 91.9513 24.5096 91.6257C24.2559 84.0079 25.8676 76.68 29.0866 69.8962C30.7606 66.3683 30.1952 63.7949 28.2407 60.985C27.9691 60.5925 27.7153 60.1911 27.4481 59.7987C24.5497 55.4947 22.4171 55.459 19.5186 59.7005C16.3174 64.3791 14.443 69.6465 13.5125 75.1547C12.8491 79.0617 12.6888 83.0936 12.7645 87.063C12.8135 89.525 14.5143 91.3804 16.9986 91.9736C19.3495 92.5311 21.7759 92.7496 24.5096 93.1733ZM40.8183 99.5156C40.8228 99.4487 40.8272 99.3862 40.8317 99.3193C41.9181 99.3193 43.0089 99.3907 44.0863 99.3059C49.4246 98.8956 51.8199 96.4604 51.9401 91.1395C52.1004 84.1551 50.413 77.5185 47.519 71.2387C46.3481 68.692 44.6295 66.3683 42.9287 64.1205C41.7889 62.6085 40.244 62.7334 38.8994 64.1115C38.3785 64.6467 37.773 65.1284 37.3723 65.7395C32.1809 73.6338 29.8479 82.4023 29.9014 91.7684C29.9281 96.1125 31.9449 98.1865 36.1791 99.0071C37.7017 99.3059 39.2689 99.355 40.8183 99.5156ZM26.1436 98.4496V112.891C26.1436 113.502 26.157 114.118 26.1303 114.729C26.059 116.442 25.0751 117.472 23.4545 117.472C21.8338 117.472 20.8232 116.446 20.8142 114.72C20.7875 110.023 20.7341 105.323 20.8142 100.626C20.841 98.9402 20.5694 98.182 18.5837 97.9679C11.5312 97.2052 7.08787 92.1475 7.00328 85.0337C6.89643 75.4312 9.40306 66.4709 14.078 58.1484C15.1554 56.2351 16.7182 54.4867 18.3833 53.0461C21.5978 50.2675 25.5826 50.3255 28.7482 53.1799C30.3377 54.6116 31.5531 56.4714 32.8666 58.1886C33.432 58.9245 33.8149 59.7942 34.2423 60.5346C34.5095 60.4944 34.5896 60.5078 34.6341 60.4721C40.4978 56.1771 44.8165 56.8059 49.0773 62.827C53.3604 68.8838 55.5109 75.8371 56.6684 83.0668C57.1983 86.3896 57.4699 89.8595 57.1404 93.1912C56.477 99.8768 52.274 103.855 45.6268 104.56C44.0418 104.725 43.601 105.242 43.6322 106.799C43.7301 111.357 43.6812 115.924 43.6633 120.487C43.65 122.744 42.5948 124.099 40.9296 124.095C39.2378 124.095 38.2494 122.837 38.2316 120.473C38.1959 115.839 38.1781 111.205 38.2449 106.576C38.2672 105.198 37.8442 104.685 36.4284 104.569C32.31 104.216 28.8684 102.522 26.1436 98.4496ZM153.091 149C147.62 149 142.17 147.252 140.033 146.172C133.145 142.689 124.401 143.924 116.69 145.022C115.79 145.146 114.904 145.276 114.032 145.392C108.324 146.154 104.717 145.115 100.902 144.018C98.6579 143.371 96.3383 142.702 93.3819 142.354C85.9244 141.476 79.4908 144.767 79.424 144.799C78.5336 145.262 77.4339 144.919 76.9664 144.023C76.5033 143.131 76.8462 142.029 77.7366 141.565C78.0394 141.405 85.2076 137.716 93.8049 138.728C97.0595 139.112 99.6374 139.852 101.913 140.508C105.497 141.543 108.591 142.435 113.551 141.77C114.41 141.654 115.287 141.529 116.182 141.405C124.423 140.236 133.769 138.911 141.676 142.912C143.719 143.942 151.155 146.342 157.032 144.924C158.007 144.687 158.995 145.294 159.231 146.27C159.467 147.252 158.862 148.237 157.882 148.474C156.342 148.848 154.717 149 153.091 149ZM190.188 120.777C189.302 120.777 183.843 120.233 179.382 117.65C175.82 115.594 171.675 116.656 168.073 117.811C167.437 118.011 166.836 118.221 166.261 118.422C163.145 119.497 160.197 120.514 156.742 119.028C155.816 118.631 155.384 117.557 155.785 116.629C156.181 115.706 157.254 115.273 158.176 115.67C160.242 116.557 161.96 116.04 165.073 114.965C165.674 114.76 166.301 114.542 166.96 114.332C171.626 112.833 176.586 111.821 181.203 114.488C184.836 116.589 189.489 117.115 190.192 117.124C191.194 117.137 192.009 117.958 192 118.961C191.995 119.965 191.19 120.777 190.188 120.777ZM152.214 134.13C148.822 134.13 145.585 132.872 142.428 131.646C141.057 131.111 139.637 130.558 138.243 130.134C134.614 129.023 133.907 129.304 132.01 130.063C131.257 130.366 130.318 130.74 129.062 131.102C128.092 131.378 127.086 130.816 126.805 129.848C126.529 128.876 127.09 127.868 128.061 127.587C129.138 127.279 129.944 126.958 130.656 126.673C133.15 125.674 134.668 125.219 139.312 126.637C140.83 127.106 142.312 127.681 143.751 128.238C147.713 129.782 151.453 131.236 155.126 130.013C160.763 128.127 167.165 126.285 171.751 128.256C172.673 128.658 173.1 129.728 172.704 130.656C172.307 131.583 171.234 132.012 170.308 131.615C167.067 130.219 161.649 131.686 156.279 133.475C154.899 133.938 153.546 134.13 152.214 134.13Z" fill="white"/>
<path d="M194.536 14.9686C192.473 18.0143 191.719 21.2466 191.728 24.6653C191.728 25.1581 192.385 25.9883 192.85 26.0727C193.955 26.2814 195.152 26.2769 196.261 26.0683C196.732 25.9795 197.415 25.1448 197.401 24.6653C197.313 21.2643 196.634 18.0055 194.536 14.9686ZM33.0518 7.23875C32.7546 7.17659 32.4574 7.10999 32.1602 7.04783C31.4505 9.81388 30.6387 12.5577 30.1019 15.3548C29.9467 16.1718 30.4391 17.8234 30.8649 17.9033C32.2578 18.1742 33.7571 17.9477 35.1988 17.7701C35.4339 17.7391 35.7621 16.9887 35.7444 16.5802C35.6202 13.2415 34.8661 10.0714 33.0518 7.23875ZM51.2079 5.60487C49.2428 8.78382 48.2802 11.8873 48.4222 15.2438C48.4443 15.8033 49.3537 16.5492 50.0146 16.8022C50.7155 17.0775 51.7047 17.1042 52.3834 16.8111C53.071 16.5092 54.007 15.7012 54.0203 15.0929C54.0957 11.8118 53.173 8.75274 51.2079 5.60487ZM78.4709 17.224C77.7523 17.8279 77.4373 17.9921 77.2554 18.2541C73.8043 23.098 72.3139 28.5413 72.4957 34.4419C72.5667 36.6618 73.9463 37.6874 76.0977 37.6963C77.7744 37.7007 79.4645 37.7496 81.128 37.5853C82.716 37.4299 83.6387 36.4665 83.8073 34.7926C84.2686 30.2107 83.062 25.9484 81.2566 21.8371C80.5735 20.2787 79.4956 18.8979 78.4709 17.224ZM0 145.004C2.09374 142.104 5.1412 140.546 8.42375 139.725C16.537 137.687 24.6547 135.507 32.8921 134.135C48.3601 131.551 63.9389 129.611 79.4379 127.191C94.3957 124.86 109.349 122.467 124.232 119.71C132.527 118.178 140.72 115.976 148.203 111.816C148.851 111.456 149.494 111.07 150.079 110.617C153.566 107.9 153.371 104.712 149.259 103.029C145.728 101.586 141.966 100.343 138.209 99.9079C127.523 98.678 116.793 97.8389 106.071 96.9776C95.3539 96.1118 84.5702 95.7699 74.1193 92.884C71.5331 92.1692 68.9559 91.2324 66.5738 90.0069C59.605 86.4062 57.6976 80.1593 61.1576 73.0821C63.7127 67.8431 67.8868 64.1091 72.5756 60.9302C82.7959 54.0084 94.2449 49.9015 106.115 47.0067C115.227 44.7868 124.462 43.0908 133.383 41.2216C119.414 36.5952 104.709 33.3896 89.5118 31.4094C89.4586 32.4129 89.4275 33.3275 89.361 34.2421C89.0194 39.0682 86.868 41.7144 82.2236 42.8288C81.1191 43.0908 80.8352 43.6058 80.8618 44.6447C80.9195 47.0867 80.9106 49.5286 80.8663 51.9705C80.8308 53.9507 79.7883 55.1184 78.1426 55.0518C76.2707 54.9719 75.5609 53.7953 75.5432 52.0771C75.521 49.5685 75.6097 47.0556 75.4678 44.5515C75.4367 43.9743 74.7403 43.0153 74.239 42.9398C69.9628 42.2783 66.9553 38.8107 67.044 33.5495C67.0618 32.3329 67.0485 31.1164 67.0485 29.7267C66.5605 29.6512 66.0593 29.5225 65.5536 29.5092C51.3055 29.154 37.1195 29.9176 23.04 32.1598C17.2379 33.0877 11.4712 34.2465 5.69125 35.3165C3.79712 35.6673 2.36433 34.9125 2.05825 33.3541C1.73887 31.7114 2.59056 30.4105 4.56009 30.0508C11.8749 28.7189 19.203 27.4757 26.5266 26.2103C27.6533 26.015 28.7845 25.864 30.0354 25.6731C30.0665 24.9716 30.0975 24.3145 30.1286 23.6885C24.943 21.6461 23.4659 18.8357 25.1515 11.945C25.8568 9.05466 27.121 6.15986 28.7534 3.67796C30.896 0.423535 34.489 0.472373 36.9155 3.56253C40.2424 7.79817 41.4534 12.7708 40.9433 18.072C40.717 20.4119 39.2931 22.1434 36.9243 22.9914C36.3033 23.2134 35.8553 23.9016 35.323 24.3767C35.4428 24.6075 35.5625 24.8429 35.6867 25.0737C39.8432 24.8118 43.9996 24.5454 48.2004 24.279C48.5686 23.1379 48.7948 22.1745 47.4108 21.7483C44.3944 20.8248 43.0636 18.6093 42.9926 15.639C42.8773 10.8484 44.0306 6.35521 46.945 2.48364C49.4202 -0.801872 52.9823 -0.841831 55.4309 2.44812C58.5848 6.68376 59.8579 11.5499 59.2945 16.8022C59.0461 19.1154 57.6621 20.7626 55.4486 21.6373C53.936 22.2367 53.9404 22.25 54.1799 24.1769C58.6114 24.1769 63.0739 24.2168 67.532 24.1147C68.0155 24.1014 68.6321 23.3377 68.9293 22.7828C70.26 20.292 71.1871 17.5259 72.8329 15.2749C75.9025 11.0659 80.4049 11.0082 83.4834 15.2216C85.28 17.6813 86.4954 20.6427 87.5556 23.5287C88.181 25.2291 88.9573 25.9706 90.7095 26.1704C102.283 27.4979 113.674 29.7978 124.861 33.03C131.928 35.0679 138.821 37.7229 145.901 39.712C150.887 41.1061 156.081 41.741 161.134 42.9132C164.469 43.6901 167.397 43.073 170.471 41.6833C176.713 38.8596 183.322 37.1591 190.065 35.9381C190.73 35.8182 191.817 35.0457 191.79 34.6417C191.701 33.3719 192.846 31.6181 190.53 30.9566C187.789 30.1707 186.436 27.9907 186.316 25.3179C186.094 20.3897 187.274 15.7411 190.291 11.763C192.815 8.43751 196.248 8.42419 198.772 11.7363C201.851 15.7722 203.004 20.4785 202.756 25.4866C202.645 27.6622 201.669 29.8111 199.5 30.4993C197.029 31.2896 196.874 32.768 197.326 34.8237C199.495 34.8237 201.695 34.7971 203.891 34.8326C204.694 34.8459 205.674 34.7482 206.256 35.1523C207.041 35.7028 208.039 36.7195 207.999 37.4876C207.954 38.3801 206.979 39.3169 206.216 40.0406C205.861 40.378 205.058 40.3336 204.459 40.3247C186.157 40.085 169.877 46.2786 154.684 55.9486C153.371 56.7833 152.08 57.658 150.754 58.4749C149.312 59.3674 147.95 59.1143 147.001 57.7823C146.003 56.3926 146.455 55.0651 147.737 54.0484C148.576 53.3824 149.494 52.8097 150.279 51.8551C145.564 52.6587 140.831 53.3735 136.137 54.2926C124.258 56.6102 112.468 59.2919 101.16 63.7362C96.4939 65.5743 91.9427 67.6699 88.252 71.2174C87.9637 71.4927 87.7286 71.8212 86.9567 72.7225C91.02 72.7713 94.5377 72.9711 98.042 72.8335C114.353 72.2075 130.65 71.2485 146.965 70.8844C158.357 70.6358 169.677 71.8034 180.598 75.4441C188.366 78.0326 195.033 82.175 199.739 89.0968C207.267 100.17 206.668 111.341 200.059 122.507C194.66 131.631 187.013 138.735 178.908 145.363C174.14 149.27 169.198 152.964 164.438 156.885C162.691 158.323 161.196 160.095 159.683 161.8C158.627 162.99 157.434 163.367 156.09 162.603C154.591 161.751 154.369 160.188 155.15 158.887C156.072 157.351 157.274 155.873 158.654 154.736C164.03 150.292 169.571 146.043 174.974 141.629C182.55 135.436 189.785 128.878 195.011 120.469C199.628 113.032 201.571 105.142 197.872 96.7156C194.784 89.6917 189.47 84.8656 182.417 81.9264C174.188 78.4988 165.507 77.2379 156.711 76.6429C138.262 75.3953 119.893 77.1801 101.498 78.0681C96.2632 78.3212 90.9224 78.1303 85.7502 77.3489C81.0747 76.6429 80.0101 72.7003 82.9955 68.9975C86.4599 64.6952 91.2152 62.2178 96.1035 60.02C106.084 55.5269 116.642 52.894 127.292 50.6474C133.968 49.2444 140.711 48.1478 147.418 46.9046C147.64 46.8647 147.839 46.7048 148.012 46.2209C147.116 46.1765 146.202 45.9989 145.329 46.1143C136.084 47.3175 126.787 48.2588 117.618 49.8793C105.738 51.9838 94.2316 55.5047 83.3504 60.8236C77.6059 63.6341 72.1009 66.8885 68.1929 72.132C66.8488 73.9346 65.802 76.0702 65.0967 78.2102C64.3337 80.5278 65.2741 82.5702 67.2481 84.1019C70.5085 86.6415 74.3854 87.8492 78.3023 88.3642C88.4871 89.7006 98.7163 90.7484 108.945 91.6941C120.528 92.7641 132.234 92.7242 143.625 95.4147C146.619 96.1207 149.649 97.1241 152.342 98.5804C159.484 102.443 159.821 110.04 153.26 114.857C148.261 118.524 142.507 120.518 136.643 122.174C123.349 125.926 109.753 128.23 96.1168 130.286C82.1438 132.39 68.1219 134.188 54.1578 136.381C41.5465 138.371 28.9664 140.586 16.4217 142.97C12.0789 143.796 7.74506 145.044 4.17417 148.018C2.50184 149.413 1.19325 148.223 0 147.037V145.004Z" fill="white"/>
</svg>
