<svg width="55" height="55" viewBox="0 0 55 55" fill="none" xmlns="http://www.w3.org/2000/svg">
<path d="M27.5 55C42.6878 55 55 42.6878 55 27.5C55 12.3122 42.6878 0 27.5 0C12.3122 0 0 12.3122 0 27.5C0 42.6878 12.3122 55 27.5 55Z" fill="url(#paint0_linear_166_2)"/>
<path d="M38.9346 16.4544C36.6983 15.4226 34.3491 14.6969 31.9208 14.2773C31.6159 14.8216 31.2657 15.5473 31.0286 16.1256C28.4534 15.7401 25.8331 15.7401 23.258 16.1256C22.9869 15.4906 22.6707 14.8783 22.3319 14.2773C19.9036 14.6855 17.543 15.4226 15.318 16.4657C10.8906 23.0876 9.69343 29.5508 10.292 35.9232C12.8897 37.8622 15.8037 39.3362 18.8984 40.2773C19.5986 39.3249 20.2085 38.3271 20.7394 37.2725C19.7342 36.8984 18.7628 36.4335 17.8367 35.8779C18.0739 35.6964 18.3111 35.515 18.537 35.3223C23.9809 37.9075 30.2944 37.9075 35.7496 35.3223C35.9755 35.515 36.224 35.6964 36.4612 35.8779C35.535 36.4335 34.5637 36.8984 33.5585 37.2725C34.0893 38.3157 34.7105 39.3249 35.3995 40.266C38.4942 39.3249 41.4081 37.8508 44.0058 35.9119C44.7061 28.5303 42.7973 22.1238 38.9459 16.4431L38.9346 16.4544ZM21.4848 32.0113C19.8019 32.0113 18.4353 30.4692 18.4353 28.5756C18.4353 26.6821 19.7793 25.1286 21.4848 25.1286C23.1902 25.1286 24.5569 26.6707 24.5456 28.5643C24.5343 30.4579 23.2015 32.0113 21.4848 32.0113ZM32.7792 32.0113C31.0963 32.0113 29.7297 30.4692 29.7297 28.5756C29.7297 26.6821 31.0737 25.1286 32.7792 25.1286C34.4846 25.1286 35.8513 26.6707 35.8287 28.5643C35.8061 30.4579 34.4846 32.0113 32.7792 32.0113Z" fill="white"/>
<defs>
<linearGradient id="paint0_linear_166_2" x1="8.05497" y1="8.05497" x2="46.9566" y2="46.9566" gradientUnits="userSpaceOnUse">
<stop stop-color="#5865F2"/>
<stop offset="0.71" stop-color="#641EE1"/>
<stop offset="1" stop-color="#6A00DB"/>
</linearGradient>
</defs>
</svg>
