<svg width="55" height="55" viewBox="0 0 55 55" fill="none" xmlns="http://www.w3.org/2000/svg">
<circle cx="27.5" cy="27.5" r="27.5" fill="#6D6A6A"/>
<path d="M38.7862 17.1771C36.5499 16.1452 34.2007 15.4195 31.7724 15C31.4674 15.5443 31.1173 16.27 30.8801 16.8482C28.305 16.4627 25.6847 16.4627 23.1096 16.8482C22.8385 16.2133 22.5223 15.601 22.1834 15C19.7551 15.4082 17.3946 16.1452 15.1696 17.1884C10.7422 23.8103 9.54499 30.2734 10.1436 36.6459C12.7413 38.5848 15.6553 40.0589 18.7499 41C19.4502 40.0475 20.0601 39.0497 20.5909 37.9952C19.5857 37.621 18.6144 37.1561 17.6883 36.6005C17.9254 36.4191 18.1626 36.2377 18.3885 36.0449C23.8324 38.6302 30.146 38.6302 35.6012 36.0449C35.8271 36.2377 36.0755 36.4191 36.3127 36.6005C35.3866 37.1561 34.4153 37.621 33.4101 37.9952C33.9409 39.0384 34.5621 40.0475 35.2511 40.9887C38.3457 40.0475 41.2597 38.5735 43.8574 36.6345C44.5576 29.2529 42.6489 22.8465 38.7975 17.1657L38.7862 17.1771ZM21.3364 32.734C19.6535 32.734 18.2869 31.1919 18.2869 29.2983C18.2869 27.4047 19.6309 25.8513 21.3364 25.8513C23.0418 25.8513 24.4084 27.3934 24.3971 29.287C24.3858 31.1805 23.0531 32.734 21.3364 32.734ZM32.6308 32.734C30.9479 32.734 29.5813 31.1919 29.5813 29.2983C29.5813 27.4047 30.9253 25.8513 32.6308 25.8513C34.3362 25.8513 35.7028 27.3934 35.6802 29.287C35.6577 31.1805 34.3362 32.734 32.6308 32.734Z" fill="white"/>
</svg>
