<svg width="55" height="55" viewBox="0 0 55 55" fill="none" xmlns="http://www.w3.org/2000/svg">
<path d="M27.5 55C42.6878 55 55 42.6878 55 27.5C55 12.3122 42.6878 0 27.5 0C12.3122 0 0 12.3122 0 27.5C0 42.6878 12.3122 55 27.5 55Z" fill="url(#paint0_linear_166_2)"/>
<path d="M27.8205 20.5586C23.8798 20.5586 20.6758 23.7626 20.6758 27.7034C20.6758 31.6441 23.8798 34.8481 27.8205 34.8481C31.7613 34.8481 34.9653 31.6441 34.9653 27.7034C34.9653 23.7626 31.7613 20.5586 27.8205 20.5586ZM27.8205 32.2755C25.2947 32.2755 23.2484 30.2175 23.2484 27.7034C23.2484 25.1892 25.3064 23.1312 27.8205 23.1312C30.3347 23.1312 32.3927 25.1892 32.3927 27.7034C32.3927 30.2175 30.3347 32.2755 27.8205 32.2755Z" fill="white"/>
<path d="M33.4914 42.2031H21.9148C17.1088 42.2031 13.2031 38.2975 13.2031 33.4914V21.9148C13.2031 17.1088 17.1088 13.2031 21.9148 13.2031H33.4914C38.2975 13.2031 42.2031 17.1088 42.2031 21.9148V33.4914C42.2031 38.2975 38.2975 42.2031 33.4914 42.2031ZM21.9148 15.9277C18.6173 15.9277 15.9277 18.6172 15.9277 21.9148V33.4914C15.9277 36.789 18.6173 39.4785 21.9148 39.4785H33.4914C36.789 39.4785 39.4785 36.789 39.4785 33.4914V21.9148C39.4785 18.6172 36.789 15.9277 33.4914 15.9277H21.9148Z" fill="white"/>
<defs>
<linearGradient id="paint0_linear_166_2" x1="8.05497" y1="8.05497" x2="46.9566" y2="46.9566" gradientUnits="userSpaceOnUse">
<stop stop-color="#FFE185"/>
<stop offset="0.21" stop-color="#FFBB36"/>
<stop offset="0.38" stop-color="#FF5176"/>
<stop offset="0.52" stop-color="#F63395"/>
<stop offset="0.74" stop-color="#A436D2"/>
<stop offset="1" stop-color="#5F4EED"/>
</linearGradient>
</defs>
</svg>
