<svg width="55" height="55" viewBox="0 0 55 55" fill="none" xmlns="http://www.w3.org/2000/svg">
<circle cx="27.5" cy="27.5" r="27.5" fill="#6D6A6A"/>
<path d="M27.6174 20.3555C23.6767 20.3555 20.4727 23.5595 20.4727 27.5002C20.4727 31.441 23.6767 34.645 27.6174 34.645C31.5581 34.645 34.7622 31.441 34.7622 27.5002C34.7622 23.5595 31.5581 20.3555 27.6174 20.3555ZM27.6174 32.0724C25.0916 32.0724 23.0452 30.0143 23.0452 27.5002C23.0452 24.9861 25.1033 22.9281 27.6174 22.9281C30.1315 22.9281 32.1896 24.9861 32.1896 27.5002C32.1896 30.0143 30.1315 32.0724 27.6174 32.0724Z" fill="white"/>
<path d="M33.2883 42H21.7117C16.9056 42 13 38.0944 13 33.2883V21.7117C13 16.9056 16.9056 13 21.7117 13H33.2883C38.0944 13 42 16.9056 42 21.7117V33.2883C42 38.0944 38.0944 42 33.2883 42ZM21.7117 15.7246C18.4141 15.7246 15.7246 18.4141 15.7246 21.7117V33.2883C15.7246 36.5859 18.4141 39.2754 21.7117 39.2754H33.2883C36.5859 39.2754 39.2754 36.5859 39.2754 33.2883V21.7117C39.2754 18.4141 36.5859 15.7246 33.2883 15.7246H21.7117Z" fill="white"/>
</svg>
