<svg width="57" height="57" viewBox="0 0 57 57" fill="none" xmlns="http://www.w3.org/2000/svg">
<path d="M39.2565 54.3986C53.4742 48.5443 60.2541 32.2726 54.3998 18.0548C48.5455 3.83707 32.2738 -2.94283 18.056 2.91151C3.83828 8.76584 -2.94163 25.0375 2.91271 39.2553C8.76704 53.473 25.0387 60.2529 39.2565 54.3986Z" fill="url(#paint0_linear_166_2)"/>
<path d="M18.0256 23.2842H22.5845V37.929H18.0256V23.2842ZM20.305 16C21.7695 16 22.9411 17.1843 22.9411 18.6361C22.9411 20.0878 21.7568 21.2721 20.305 21.2721C18.8533 21.2721 17.6562 20.0878 17.6562 18.6361C17.6562 17.1843 18.8406 16 20.305 16Z" fill="white"/>
<path d="M25.4492 23.2834H29.8172V25.2827H29.8809C30.4921 24.1239 31.9693 22.9141 34.1979 22.9141C38.8078 22.9141 39.661 25.9449 39.661 29.8926V37.9282H35.1148V30.8095C35.1148 29.1158 35.0766 26.9255 32.7462 26.9255C30.4157 26.9255 30.0082 28.772 30.0082 30.6822V37.9282H25.462V23.2834H25.4492Z" fill="white"/>
<defs>
<linearGradient id="paint0_linear_166_2" x1="48.347" y1="48.3474" x2="8.97761" y2="8.97802" gradientUnits="userSpaceOnUse">
<stop stop-color="#007BB8"/>
<stop offset="1" stop-color="#0044E9"/>
</linearGradient>
</defs>
</svg>
