<svg width="55" height="55" viewBox="0 0 55 55" fill="none" xmlns="http://www.w3.org/2000/svg">
<circle cx="27.5" cy="27.5" r="27.5" fill="#6D6A6A"/>
<path d="M11.8975 26.3224C11.8975 26.3224 25.6076 20.6175 30.3693 18.5991C32.1866 17.7942 38.3746 15.2275 38.3746 15.2275C38.3746 15.2275 41.227 14.1075 40.9855 16.8375C40.905 17.9575 40.2724 21.9008 39.6398 26.1591C38.6851 32.1907 37.6615 38.7823 37.6615 38.7823C37.6615 38.7823 37.5004 40.6373 36.1547 40.9523C34.809 41.279 32.5892 39.8323 32.1866 39.5057C31.8646 39.2607 26.2402 35.644 24.1814 33.8824C23.6293 33.404 22.9967 32.4357 24.2619 31.304C27.1143 28.6557 30.5189 25.3541 32.5892 23.2658C33.5438 22.2975 34.487 20.0458 30.5304 22.7874C24.906 26.7308 19.3506 30.4291 19.3506 30.4291C19.3506 30.4291 18.0854 31.234 15.7046 30.5107C13.3237 29.7874 10.5518 28.8191 10.5518 28.8191C10.5518 28.8191 8.654 27.6174 11.8975 26.3224Z" fill="white"/>
</svg>
