<svg width="55" height="55" viewBox="0 0 55 55" fill="none" xmlns="http://www.w3.org/2000/svg">
<path d="M27.5 55C42.6878 55 55 42.6878 55 27.5C55 12.3122 42.6878 0 27.5 0C12.3122 0 0 12.3122 0 27.5C0 42.6878 12.3122 55 27.5 55Z" fill="url(#paint0_linear_1074_2100)"/>
<path d="M10.8975 26.3224C10.8975 26.3224 24.6076 20.6175 29.3693 18.5991C31.1866 17.7942 37.3746 15.2275 37.3746 15.2275C37.3746 15.2275 40.227 14.1075 39.9855 16.8375C39.905 17.9575 39.2724 21.9008 38.6398 26.1591C37.6851 32.1907 36.6615 38.7823 36.6615 38.7823C36.6615 38.7823 36.5004 40.6373 35.1547 40.9523C33.809 41.279 31.5892 39.8323 31.1866 39.5056C30.8646 39.2607 25.2402 35.644 23.1814 33.8824C22.6293 33.404 21.9967 32.4357 23.2619 31.304C26.1143 28.6557 29.5189 25.3541 31.5892 23.2658C32.5438 22.2975 33.487 20.0458 29.5304 22.7874C23.906 26.7308 18.3506 30.4291 18.3506 30.4291C18.3506 30.4291 17.0855 31.2341 14.7046 30.5107C12.3237 29.7874 9.55179 28.8191 9.55179 28.8191C9.55179 28.8191 7.654 27.6174 10.8975 26.3224Z" fill="white"/>
<defs>
<linearGradient id="paint0_linear_1074_2100" x1="8.05497" y1="8.05497" x2="46.945" y2="46.945" gradientUnits="userSpaceOnUse">
<stop stop-color="#2CB5E5"/>
<stop offset="0.65" stop-color="#6C6EF5"/>
<stop offset="1" stop-color="#9146FF"/>
</linearGradient>
</defs>
</svg>
