<svg width="55" height="55" viewBox="0 0 55 55" fill="none" xmlns="http://www.w3.org/2000/svg">
<path d="M27.5 55C42.6878 55 55 42.6878 55 27.5C55 12.3122 42.6878 0 27.5 0C12.3122 0 0 12.3122 0 27.5C0 42.6878 12.3122 55 27.5 55Z" fill="url(#paint0_linear_166_2)"/>
<path d="M40.852 24.0147C40.852 20.7719 38.2324 18.1523 34.9896 18.1523H19.9991C16.7563 18.1523 14.1367 20.7719 14.1367 24.0147V30.9849C14.1367 34.2277 16.7563 36.8473 19.9991 36.8473H34.9896C38.2324 36.8473 40.852 34.2277 40.852 30.9849V24.0147ZM32.0354 28.0307L25.3191 31.3542C25.0536 31.4927 24.165 31.308 24.165 31.008V24.1763C24.165 23.8762 25.0652 23.68 25.3306 23.8301L31.77 27.3267C32.0354 27.4767 32.3239 27.8691 32.0469 28.0191L32.0354 28.0307Z" fill="white"/>
<defs>
<linearGradient id="paint0_linear_166_2" x1="8.05497" y1="8.05497" x2="46.945" y2="46.945" gradientUnits="userSpaceOnUse">
<stop stop-color="#FF0000"/>
<stop offset="1" stop-color="#9B0000"/>
</linearGradient>
</defs>
</svg>
