<svg width="55" height="55" viewBox="0 0 55 55" fill="none" xmlns="http://www.w3.org/2000/svg">
<circle cx="27.5" cy="27.5" r="27.5" fill="#6D6A6A"/>
<path d="M40.852 24.8624C40.852 21.6196 38.2324 19 34.9896 19H19.9991C16.7563 19 14.1367 21.6196 14.1367 24.8624V31.8326C14.1367 35.0753 16.7563 37.6949 19.9991 37.6949H34.9896C38.2324 37.6949 40.852 35.0753 40.852 31.8326V24.8624ZM32.0354 28.8783L25.3191 32.2018C25.0536 32.3403 24.165 32.1557 24.165 31.8556V25.0239C24.165 24.7239 25.0652 24.5277 25.3306 24.6777L31.77 28.1744C32.0354 28.3244 32.3239 28.7167 32.0469 28.8668L32.0354 28.8783Z" fill="white"/>
</svg>
