<svg width="10" height="9" viewBox="0 0 10 9" fill="none" xmlns="http://www.w3.org/2000/svg">
<path d="M4.28904 0L2.75058 6.35294L2.23776 3.97059C2.90598 3.97059 3.44988 4.19118 3.86946 4.63235C4.28904 5.07353 4.49883 5.68235 4.49883 6.45882C4.49883 7.21765 4.28127 7.83529 3.84615 8.31176C3.42657 8.77059 2.89821 9 2.26107 9C1.60839 9 1.06449 8.77059 0.629371 8.31176C0.20979 7.83529 0 7.21765 0 6.45882C0 6.22941 0.01554 6.00882 0.0466201 5.79706C0.0777001 5.56765 0.13986 5.30294 0.2331 5.00294C0.32634 4.70294 0.45843 4.30588 0.629371 3.81176L1.98135 0H4.28904ZM9.79021 0L8.25175 6.35294L7.73893 3.97059C8.40715 3.97059 8.95105 4.19118 9.37063 4.63235C9.79021 5.07353 10 5.68235 10 6.45882C10 7.21765 9.78244 7.83529 9.34732 8.31176C8.92774 8.77059 8.39938 9 7.76224 9C7.10956 9 6.56566 8.77059 6.13054 8.31176C5.71096 7.83529 5.50117 7.21765 5.50117 6.45882C5.50117 6.22941 5.51671 6.00882 5.54779 5.79706C5.57887 5.56765 5.64103 5.30294 5.73427 5.00294C5.82751 4.70294 5.9596 4.30588 6.13054 3.81176L7.48252 0H9.79021Z" fill="#D7D7D7"/>
</svg>
