<svg width="10" height="9" viewBox="0 0 10 9" fill="none" xmlns="http://www.w3.org/2000/svg">
<path d="M5.71096 9L7.24942 2.64706L7.76224 5.02941C7.09402 5.02941 6.55012 4.80882 6.13054 4.36765C5.71096 3.92647 5.50117 3.31765 5.50117 2.54118C5.50117 1.78235 5.71873 1.16471 6.15385 0.688236C6.57343 0.229413 7.10179 0 7.73893 0C8.39161 0 8.93551 0.229413 9.37063 0.688236C9.79021 1.16471 10 1.78235 10 2.54118C10 2.77059 9.98446 2.99118 9.95338 3.20294C9.9223 3.43235 9.86014 3.69706 9.7669 3.99706C9.67366 4.29706 9.54157 4.69412 9.37063 5.18824L8.01865 9H5.71096ZM0.20979 9L1.74825 2.64706L2.26107 5.02941C1.59285 5.02941 1.04895 4.80882 0.629371 4.36765C0.20979 3.92647 0 3.31765 0 2.54118C0 1.78235 0.21756 1.16471 0.65268 0.688236C1.07226 0.229413 1.60062 0 2.23776 0C2.89044 0 3.43434 0.229413 3.86946 0.688236C4.28904 1.16471 4.49883 1.78235 4.49883 2.54118C4.49883 2.77059 4.48329 2.99118 4.45221 3.20294C4.42113 3.43235 4.35897 3.69706 4.26573 3.99706C4.17249 4.29706 4.0404 4.69412 3.86946 5.18824L2.51748 9H0.20979Z" fill="#D7D7D7"/>
</svg>
