<svg width="158" height="158" viewBox="0 0 158 158" fill="none" xmlns="http://www.w3.org/2000/svg">
<path d="M83.6419 74.3177H87.2617C90.6002 74.3177 93.944 74.3021 97.2825 74.323C99.8398 74.3334 101.803 76.3125 101.809 78.8438C101.819 81.375 99.8867 83.4219 97.345 83.448C93.2565 83.4896 89.1731 83.4584 85.0846 83.4584H83.6471V84.625C83.6419 88.7813 83.6679 92.9375 83.6315 97.0938C83.6159 99.4011 81.8815 101.349 79.7304 101.594C77.2877 101.87 75.2513 100.536 74.6419 98.2188C74.5169 97.7448 74.5065 97.2396 74.5065 96.7448C74.4961 92.375 74.5013 88.0105 74.5013 83.4584H73.3554C69.0898 83.4584 64.8242 83.4792 60.5638 83.4532C58.1679 83.4375 56.2877 81.6459 56.0221 79.2136C55.7929 77.0886 57.3711 74.9323 59.5794 74.4167C59.9856 74.323 60.4231 74.323 60.845 74.3177C64.97 74.3125 69.0898 74.3177 73.2096 74.3177H74.5013V73.1094C74.5013 68.9896 74.4961 64.8698 74.5013 60.75C74.5065 58.0365 76.4544 56.0052 79.0429 56C81.6159 55.9896 83.6263 58.0365 83.6367 60.7292C83.6575 65.2032 83.6419 69.6771 83.6419 74.3177Z" fill="black"/>
<circle cx="79" cy="79" r="74.5" stroke="black" stroke-width="9"/>
</svg>
