<svg width="269" height="384" viewBox="0 0 269 384" fill="none" xmlns="http://www.w3.org/2000/svg">
<path d="M126.83 384C119.75 382.14 112.31 381.1 105.64 378.27C76.9597 366.08 60.2197 344.19 57.5197 313.18C54.9497 283.57 66.9997 259.97 91.2397 242.69C91.9497 242.18 92.6697 241.69 93.3797 241.18C93.4697 241.11 93.5197 240.98 93.7897 240.58C93.0097 239.65 92.1797 238.62 91.2997 237.64C62.8497 206.09 34.4797 174.46 5.84973 143.07C1.26973 138.04 -0.500274 132.9 0.119726 126.22C5.16973 71.73 32.8897 33.37 82.3397 10.58C94.9997 4.74 108.54 1.7 122.47 0.59C123.19 0.53 123.88 0.2 124.58 0C131.08 0 137.58 0 144.08 0C151.43 1.27 158.88 2.15 166.12 3.88C219.75 16.69 260.75 62.6 267.66 117.31C267.71 117.68 267.75 118.05 267.77 118.43C269.15 139.86 271.11 133.49 257.7 148.57C234.44 174.72 210.83 200.54 187.36 226.5C186.44 227.52 185.56 228.64 184.45 229.4C181.89 231.14 179.2 231.11 176.91 228.94C174.65 226.8 174.28 224.17 175.94 221.46C176.52 220.51 177.36 219.72 178.11 218.89C202.89 191.42 227.68 163.96 252.46 136.5C252.96 135.95 253.45 135.38 254.07 134.69C253.82 134.3 253.64 133.85 253.32 133.55C234.56 115.51 201.61 115.66 183.09 133.89C182.24 134.73 181.46 135.84 181.12 136.96C171.68 168.12 162.29 199.3 152.9 230.48C152.83 230.72 152.81 230.97 152.71 231.51C154.05 231.96 155.42 232.44 156.81 232.88C191.43 243.62 214.55 277.32 211.38 312.43C208.02 349.79 180.63 378.58 143.92 383.37C143.2 383.46 142.52 383.8 141.82 384.02H126.82L126.83 384ZM148.29 12.94C148.4 13.42 148.4 13.69 148.52 13.89C148.84 14.42 149.19 14.94 149.56 15.44C162.64 33.41 172.09 53.13 177.34 74.74C179.31 82.84 180.47 91.15 181.74 99.41C182.39 103.61 180.27 106.34 176.7 106.77C173.14 107.2 170.73 105.1 169.95 100.86C169.84 100.25 169.75 99.63 169.68 99.01C166.17 68.74 154.92 41.66 136.22 17.64C135.63 16.89 135.31 15.93 134.86 15.06C134.35 15.2 133.85 15.34 133.34 15.49C127.92 24 122.49 32.51 117.08 41.03C114.91 44.45 111.56 45.54 108.51 43.76C105.6 42.07 104.79 38.72 106.61 35.25C108.06 32.49 109.61 29.77 111.28 27.14C114.28 22.43 117.41 17.8 120.58 12.99C61.4897 18.88 17.6297 68.91 13.3397 119.63C37.1197 104.38 61.1597 104.12 85.7497 118.65C85.7497 116.88 85.6197 115.63 85.7697 114.42C87.3097 102.17 88.7497 89.91 90.5497 77.7C91.1997 73.29 94.2997 71.3 97.8597 72.05C101.36 72.79 102.93 75.88 102.16 80.27C100.95 87.15 99.5697 94.02 98.7297 100.95C98.0097 106.9 97.9297 112.92 97.5497 119.36C125.44 102.83 151.46 104.43 176.4 123.42C201.86 104.3 228.16 102.63 255.51 119.54C250.04 64.87 202.64 17.8 148.3 12.93L148.29 12.94ZM115.96 231.54C115.75 230.57 115.65 229.83 115.43 229.12C106.2 198.57 96.9897 168.02 87.6697 137.51C87.1597 135.85 85.9297 134.18 84.5897 133.03C73.8097 123.73 61.2597 119.2 47.0097 120.11C34.5097 120.91 23.6897 125.85 14.3497 134.45C20.7297 141.52 26.9097 148.37 33.0997 155.22C56.5197 181.17 79.9397 207.14 103.43 233.03C104.23 233.91 106 234.63 107.1 234.4C110 233.79 112.78 232.61 115.96 231.54ZM134.45 229.5C136.93 229 140.29 231.2 141.77 226.15C150.51 196.34 159.57 166.63 168.67 136.93C169.48 134.27 168.8 132.91 166.78 131.33C147.66 116.33 121.52 116.27 102.17 131.16C99.9197 132.89 99.1697 134.32 100.09 137.32C108.93 166.05 117.56 194.85 126.24 223.63C127.42 227.55 130.156 229.503 134.45 229.49V229.5ZM69.0797 306.53C69.0197 342.58 98.2297 371.95 134.19 372C170.19 372.04 199.56 342.75 199.57 306.78C199.57 270.94 170.41 241.62 134.62 241.51C98.5697 241.39 69.1397 270.59 69.0797 306.54V306.53Z" fill="#695FE3"/>
<path d="M104.469 47.96C107.839 48.02 110.379 50.61 110.309 53.93C110.249 57.26 107.639 59.93 104.419 59.97C101.019 60.01 98.1995 57.12 98.3495 53.75C98.4995 50.46 101.189 47.91 104.459 47.96H104.469Z" fill="#695FE3"/>
<path d="M79.5899 306.84C79.5599 276.56 104.15 251.97 134.42 252.01C164.5 252.04 189.04 276.58 189.08 306.66C189.12 336.91 164.49 361.53 134.23 361.5C104.16 361.47 79.6199 336.92 79.5999 306.84H79.5899ZM91.5899 306.56C91.4999 330.05 110.63 349.4 134.03 349.51C157.54 349.62 176.93 330.53 177.07 307.14C177.22 283.45 158.04 264.07 134.42 264.02C110.94 263.97 91.6799 283.1 91.5899 306.56Z" fill="#695FE3"/>
<path d="M128.561 330.53L128.371 330.49C123.001 329.25 118.141 326.19 114.661 321.88C111.131 317.5 109.191 311.99 109.191 306.35C109.191 302.5 110.051 298.81 111.741 295.39L111.831 295.21L113.441 298.42L113.421 298.46C112.451 300.96 111.961 303.61 111.961 306.34C111.961 315.91 118.081 324.32 127.191 327.27H127.231L128.541 330.52L128.561 330.53ZM111.841 295.66C110.221 299 109.401 302.6 109.401 306.35C109.401 317.8 117.141 327.6 128.241 330.25L127.111 327.45C117.941 324.46 111.781 315.98 111.781 306.34C111.781 303.6 112.271 300.94 113.231 298.43L111.841 295.65V295.66ZM139.861 330.42L141.571 326.99H141.611C150.201 323.79 155.971 315.5 155.971 306.35C155.971 304.16 155.651 302 155.011 299.92V299.88V299.85L156.611 296.27L156.701 296.48C158.061 299.6 158.741 302.92 158.741 306.35C158.741 317.71 151.061 327.58 140.061 330.37L139.851 330.42H139.861ZM141.711 327.15L140.231 330.12C151.031 327.29 158.551 317.55 158.551 306.35C158.551 303.02 157.901 299.8 156.611 296.76L155.211 299.89C155.841 301.98 156.171 304.15 156.171 306.34C156.171 315.56 150.361 323.91 141.721 327.14L141.711 327.15ZM144.401 286.98L144.281 286.92C141.121 285.24 137.551 284.35 133.961 284.35C130.701 284.35 127.561 285.05 124.621 286.42L124.521 286.47L123.601 283.83L123.681 283.79C126.911 282.31 130.371 281.57 133.951 281.57C137.991 281.57 141.841 282.51 145.401 284.37L145.481 284.41L144.381 286.97L144.401 286.98ZM133.961 284.15C137.561 284.15 141.141 285.03 144.301 286.7L145.241 284.51C141.731 282.69 137.941 281.77 133.961 281.77C130.441 281.77 127.041 282.5 123.851 283.94L124.641 286.2C127.571 284.84 130.711 284.15 133.961 284.15Z" fill="#6D6A6A"/>
<path d="M158.918 283.37L134.268 338.37L109.988 283.37H118.868L134.278 317.47L149.928 283.37H158.908H158.918Z" fill="#695FE3"/>
</svg>
