<svg width="29" height="29" viewBox="0 0 29 29" fill="none" xmlns="http://www.w3.org/2000/svg">
<g clip-path="url(#clip0_170_1784)">
<path d="M0 25.5659C0.408403 25.1391 0.87081 25.3308 1.31972 25.4393C1.76862 25.5478 2.19053 25.6852 2.62931 25.8009C2.76804 25.8303 2.91171 25.8171 3.04371 25.7627C3.17571 25.7083 3.29065 25.615 3.37523 25.4935C5.06285 23.5912 7.14537 22.423 9.45065 21.6997C9.90968 21.5514 10.3788 21.4429 10.875 21.3055C10.8919 16.6919 10.414 12.0915 9.45065 7.59478C9.31902 8.19153 9.17388 8.78465 9.0625 9.4031C8.96462 9.93474 8.90049 10.4881 8.82623 11.0161C8.75198 11.5441 8.48871 11.6707 8.06681 11.4501C7.30706 11.0519 6.68441 10.4062 6.28806 9.60563C6.23068 9.4899 6.17668 9.37417 6.10917 9.24397C5.54213 9.74306 5.00209 10.2241 4.45531 10.6906C4.26292 10.857 4.09078 11.0993 3.78026 10.9763C3.46974 10.8534 3.48662 10.5496 3.47311 10.2892C3.37186 8.57127 3.6655 6.98718 4.98184 5.83709C5.44274 5.48991 5.92668 5.17926 6.42982 4.90762C6.05517 4.9474 5.66364 4.95825 5.28561 5.03782C4.80633 5.13547 4.33717 5.28013 3.86464 5.39948C3.63175 5.4682 3.41574 5.50436 3.25035 5.26567C3.08496 5.02697 3.18622 4.80997 3.32798 4.6002C3.95915 3.65264 4.67807 2.79188 5.69064 2.31449C6.1748 2.13546 6.67137 1.9976 7.17575 1.90219C7.37826 0.0396232 9.0355 -0.463089 10.2135 0.8606C11.6817 -0.361824 13.2714 -0.0761091 14.8679 0.45192C14.9456 0.491298 15.0145 0.548197 15.0699 0.61873C15.1252 0.689262 15.1657 0.771765 15.1885 0.8606C15.2493 1.0993 15.0738 1.22226 14.8814 1.338C14.2064 1.69966 13.5313 2.02516 12.8799 2.3832C12.7085 2.4904 12.5449 2.6113 12.3905 2.74487C12.8217 2.62166 13.2589 2.52386 13.7001 2.45192C15.1278 2.30002 16.2686 2.94017 17.2171 4.02516C17.5082 4.36881 17.7692 4.74049 17.9967 5.13547C18.0823 5.29537 18.1076 5.48424 18.0676 5.6635C18.0035 5.88773 17.7841 5.93113 17.5715 5.92389L15.5058 5.86241H15.2493C15.2493 5.97453 15.2493 6.06856 15.2797 6.16259C15.4593 7.06928 15.3537 8.01418 14.9793 8.84975C14.7565 9.37778 14.4696 9.4248 14.0916 9.02335C13.2862 8.16177 12.4108 7.37869 11.4758 6.68339C11.6344 7.14632 11.7728 7.53691 11.8977 7.93113C11.9382 8.05048 11.999 8.21323 11.9551 8.29279C11.8822 8.44939 11.7637 8.57633 11.6176 8.65446C11.4049 8.7304 11.2395 8.57851 11.1585 8.35789C11.0033 7.93474 10.8615 7.50436 10.7062 7.08483C10.5746 6.72317 10.4328 6.36151 10.2911 6.02154C10.2547 5.94738 10.2117 5.87714 10.1628 5.81178H10.0852C10.0653 5.90664 10.0585 6.00412 10.0649 6.10111C10.3755 7.7503 10.74 9.39587 10.9965 11.0523C11.199 12.2747 11.334 13.5116 11.4285 14.7485C11.5703 16.7847 11.6446 18.8244 11.7458 20.8642C11.7458 20.9329 11.7458 21.0053 11.7694 21.0993L13.5718 20.9076C13.5212 20.3832 13.4942 19.8624 13.4166 19.3489C13.1263 17.4465 12.8529 15.5405 12.5086 13.6526C12.2858 12.4375 11.9517 11.244 11.6648 10.036C11.577 9.67435 11.6648 9.43203 11.9247 9.34523C12.1846 9.25843 12.3905 9.42842 12.4884 9.78646C13.1176 12.0715 13.6003 14.4001 13.933 16.7557C14.1186 18.0722 14.2705 19.3959 14.4325 20.734C14.4325 20.7847 14.4494 20.8317 14.4595 20.8859L16.9572 21.0523C17.0821 20.13 17.1766 19.2187 17.3386 18.3181C17.5006 17.4176 17.7402 16.4338 17.9596 15.4935C18.0406 15.1499 18.26 15.0125 18.5165 15.0993C18.773 15.1861 18.8541 15.4139 18.7832 15.7431C18.5908 16.5749 18.3646 17.3995 18.2161 18.2385C18.0474 19.2114 17.9427 20.1951 17.8044 21.215L18.8169 21.4537C18.9823 18.5243 19.2456 15.6454 20.005 12.8498L19.9375 12.8208L19.4751 13.8009C19.4177 13.9275 19.3671 14.0577 19.2996 14.1807C19.2539 14.2881 19.1705 14.372 19.0675 14.4139C18.9645 14.4559 18.8502 14.4527 18.7494 14.4049C18.6974 14.381 18.6503 14.3462 18.611 14.3025C18.5717 14.2588 18.5409 14.2072 18.5205 14.1506C18.5 14.094 18.4903 14.0336 18.492 13.9729C18.4936 13.9122 18.5066 13.8525 18.53 13.7973C18.6212 13.555 18.7393 13.3235 18.8439 13.074C18.8811 12.9872 18.9148 12.8932 18.9688 12.7593L17.0517 13.0197C16.5926 13.0776 16.1336 13.1427 15.6746 13.1825C15.2155 13.2223 14.9995 12.8859 15.2223 12.4592C15.6813 11.5369 16.272 10.7485 17.2272 10.3832C17.5594 10.284 17.8978 10.2103 18.2398 10.1626C17.9326 10.0252 17.6626 9.89858 17.3892 9.80093C17.1901 9.71413 17.0078 9.61286 16.9977 9.34162C16.9875 9.07037 17.1529 8.93294 17.3689 8.8389C17.9842 8.52413 18.669 8.39891 19.3468 8.47724C19.7142 8.52721 20.0573 8.70089 20.3266 8.97323C20.5959 9.24557 20.7776 9.60252 20.8454 9.99261C20.8691 10.1083 20.8927 10.2241 20.9129 10.3362C21.1443 10.126 21.3903 9.93492 21.6487 9.76476C21.9771 9.58105 22.3524 9.51697 22.7178 9.58223C23.0832 9.64749 23.4189 9.83852 23.6739 10.1264C24.0346 10.5074 24.3664 10.9186 24.6662 11.3561C24.7316 11.4319 24.7701 11.5299 24.775 11.6329C24.78 11.736 24.751 11.8377 24.6932 11.9203C24.6373 12.0085 24.5551 12.0737 24.46 12.1053C24.3649 12.1368 24.2627 12.1328 24.17 12.0939C23.8528 12.0071 23.5321 11.9492 23.1338 11.8624C23.3802 12.083 23.5693 12.2241 23.7313 12.4049C24.3321 13.0559 24.5042 13.8913 24.5582 14.763C24.5754 15.0264 24.5629 15.2911 24.5211 15.5514C24.4891 15.7314 24.3995 15.8938 24.2679 16.0107C24.089 16.1409 23.8933 16.0107 23.7346 15.8769L22.3845 14.5966L20.9973 13.2982C20.9568 13.2621 20.9096 13.2295 20.8151 13.1572C20.6362 14.0215 20.4438 14.8389 20.2987 15.6635C19.9776 17.6038 19.7758 19.5646 19.6945 21.5333C19.6945 21.7431 19.789 21.7648 19.9139 21.8046C21.2723 22.2366 22.5575 22.8984 23.7211 23.7648C24.4101 24.3307 25.0714 24.9342 25.7024 25.5731C25.7692 25.6565 25.8538 25.7214 25.9489 25.7623C26.0441 25.8032 26.1471 25.819 26.2492 25.8082C26.6373 25.7322 27.0187 25.6237 27.4035 25.5442C27.7883 25.4646 28.1764 25.3814 28.568 25.338C28.6245 25.3302 28.6819 25.3355 28.7363 25.3537C28.7907 25.3719 28.8408 25.4025 28.8831 25.4434C28.9255 25.4842 28.959 25.5345 28.9815 25.5906C29.004 25.6467 29.0149 25.7073 29.0135 25.7684C29.014 25.8859 28.9733 25.9994 28.8996 26.0864C28.8259 26.1734 28.7244 26.2277 28.6152 26.2385C28.1663 26.3362 27.714 26.423 27.2651 26.5604C26.597 26.7919 25.8778 26.7919 25.2096 26.5604C24.6079 26.2706 23.9392 26.1799 23.2891 26.3C22.8976 26.4049 22.5196 26.5677 22.1247 26.6617C21.5486 26.7985 20.9474 26.7456 20.3999 26.5098C20.0216 26.3397 19.6154 26.2521 19.2051 26.2521C18.7948 26.2521 18.3886 26.3397 18.0102 26.5098C17.2737 26.8261 16.4517 26.8261 15.7151 26.5098C14.9483 26.1736 14.0889 26.1736 13.322 26.5098C12.578 26.8299 11.7473 26.8299 11.0033 26.5098C10.2458 26.1797 9.39803 26.1797 8.6406 26.5098C7.89533 26.8297 7.0637 26.8297 6.31844 26.5098C5.5615 26.177 4.71271 26.177 3.95577 26.5098C3.20507 26.805 2.38094 26.805 1.63024 26.5098C1.24884 26.376 0.840433 26.3362 0.452281 26.2205C0.289682 26.1455 0.137491 26.047 0 25.9275L0 25.5659ZM4.91771 25.2295C5.43412 25.3525 5.99104 25.4501 6.52432 25.6237C7.1318 25.8588 7.79686 25.8588 8.40433 25.6237C9.29638 25.2376 10.2935 25.2376 11.1855 25.6237C11.7973 25.8878 12.4807 25.8878 13.0925 25.6237C13.9931 25.2332 15.0001 25.2332 15.9007 25.6237C16.5027 25.884 17.1754 25.884 17.7774 25.6237C18.6779 25.2332 19.685 25.2332 20.5855 25.6237C21.1968 25.8842 21.8779 25.8842 22.4892 25.6237C22.9869 25.3976 23.5252 25.2926 24.0654 25.3163C24.0924 25.3163 24.1228 25.2982 24.1667 25.2838C18.8709 20.5496 9.60591 20.8859 4.91771 25.2295ZM4.32705 9.59478L8.77561 5.64541L8.74523 5.57308C8.3537 5.5984 7.9588 5.60563 7.57065 5.65626C6.55808 5.79731 5.63326 6.17344 4.99872 7.10292C4.53502 7.83677 4.29991 8.70902 4.32705 9.59478ZM10.9965 4.80635L16.8458 4.98357C16.7007 4.80635 16.6061 4.67977 16.5083 4.56404C15.7353 3.72859 14.8206 3.22226 13.6967 3.37055C12.6706 3.50075 11.8336 4.05771 10.9965 4.80635ZM10.2135 3.79008C11.0431 2.60593 12.1236 1.65017 13.3659 1.00165C11.1788 0.723168 10.1257 1.64541 10.2135 3.79008ZM8.84649 4.27832C7.63815 2.41937 6.1463 2.58212 4.81983 4.16982C6.15081 3.86016 7.53171 3.89736 8.84649 4.27832ZM7.9993 10.3109L8.71148 6.91124C8.10056 7.45373 7.50989 7.95644 6.93273 8.49894C6.9057 8.53921 6.88795 8.58576 6.88091 8.63478C6.87387 8.68381 6.87775 8.73392 6.89223 8.78104C7.11123 9.3975 7.49664 9.93009 7.9993 10.3109ZM11.9247 5.83348L14.3549 7.96729C14.5346 7.31567 14.5264 6.62105 14.3312 5.97453C14.3184 5.94068 14.2982 5.91058 14.2724 5.8867C14.2466 5.86281 14.2159 5.84581 14.1827 5.83709C13.4132 5.82986 12.6436 5.83348 11.9247 5.83348ZM9.33589 3.30183C9.35614 3.11377 9.37302 2.8823 9.41352 2.65807C9.4459 2.41794 9.50717 2.18332 9.59579 1.96006C9.64587 1.87138 9.66325 1.76587 9.64452 1.66418C9.62579 1.56249 9.5723 1.47196 9.49453 1.41033C9.15701 1.04867 8.71148 0.932933 8.43133 1.16801C8.29695 1.29542 8.19309 1.45554 8.12848 1.63491C8.06387 1.81428 8.04041 2.00765 8.06006 2.19876C8.06006 2.24577 8.11068 2.30002 8.15119 2.33257C8.54271 2.66048 8.93762 2.98477 9.33589 3.30545V3.30183ZM19.4076 11.8045C18.3444 10.81 17.1664 10.998 16.4678 12.1662L19.4076 11.8045ZM23.6604 14.5604C23.6604 13.1138 22.6883 12.2602 21.4327 12.4953L23.5422 14.4664C23.58 14.5 23.6194 14.5314 23.6604 14.5604ZM21.5407 11.027L23.2284 10.8606C22.6512 10.2494 21.9964 10.3109 21.5407 11.027ZM20.0421 10.5206C20.0725 9.68158 19.3671 9.07398 18.773 9.39225L20.0421 10.5206Z" fill="white"/>
<path d="M21.5407 28.7198C21.1555 28.6617 20.7751 28.571 20.4033 28.4486C20.0206 28.2767 19.6098 28.1882 19.1949 28.1882C18.78 28.1882 18.3692 28.2767 17.9866 28.4486C17.391 28.6924 16.7412 28.7403 16.1201 28.586C15.8465 28.5139 15.5771 28.4245 15.3134 28.3184C14.7859 28.1121 14.2073 28.1121 13.6798 28.3184C12.9817 28.6361 12.2126 28.7303 11.4656 28.5896C11.1821 28.5209 10.9054 28.416 10.6286 28.3184C10.0924 28.1085 9.50418 28.1085 8.96797 28.3184C8.27796 28.6307 7.51837 28.7224 6.78082 28.5824C6.55467 28.5318 6.33528 28.4269 6.10577 28.3726C5.7885 28.2894 5.46447 28.2171 5.14045 28.1665C4.81643 28.1158 4.69155 27.9603 4.6983 27.6891C4.69597 27.6253 4.70727 27.5617 4.73134 27.5033C4.75542 27.4449 4.79162 27.3931 4.8372 27.3519C4.88277 27.3108 4.93652 27.2813 4.99434 27.2658C5.05216 27.2502 5.11252 27.2491 5.17083 27.2623C5.60888 27.3099 6.04173 27.4019 6.46354 27.5372C7.10422 27.7959 7.81088 27.7959 8.45156 27.5372C9.31769 27.1627 10.2856 27.1627 11.1517 27.5372C11.8005 27.8226 12.5281 27.8226 13.1769 27.5372C14.0355 27.1665 14.9948 27.1665 15.8534 27.5372C16.498 27.8139 17.2172 27.8139 17.8617 27.5372C18.7277 27.162 19.6959 27.162 20.5619 27.5372C21.2014 27.7957 21.907 27.7957 22.5465 27.5372C22.9681 27.4014 23.4011 27.3105 23.8392 27.2659C23.8976 27.255 23.9575 27.2583 24.0145 27.2755C24.0716 27.2928 24.1242 27.3236 24.1686 27.3656C24.2131 27.4076 24.2481 27.4598 24.2711 27.5183C24.2941 27.5768 24.3046 27.6401 24.3016 27.7035C24.3016 27.9712 24.1363 28.1267 23.8527 28.1773C23.4646 28.2497 23.0832 28.3545 22.7018 28.445L21.5407 28.7198Z" fill="white"/>
</g>
<defs>
<clipPath id="clip0_170_1784">
<rect width="29" height="28.7197" fill="white"/>
</clipPath>
</defs>
</svg>
