<svg width="158" height="158" viewBox="0 0 158 158" fill="none" xmlns="http://www.w3.org/2000/svg">
<path d="M48.9992 51.6298C47.9227 51.6298 47 50.5749 47 49.2856C47 48.0549 47.9227 47 48.9992 47H54.2278C54.2791 47 54.3816 47 54.4329 47C56.2783 47.0586 57.9186 47.4688 59.3027 48.4651C60.8405 49.5786 61.9683 51.2781 62.5834 53.7981C62.5834 53.8567 62.5834 53.9153 62.6347 53.974L63.1473 56.3181H108.001C109.129 56.3181 110 57.373 110 58.6037C110 58.8381 109.949 59.0726 109.897 59.307L104.669 83.3935C104.464 84.4484 103.644 85.1516 102.721 85.1516H69.9138C70.6314 88.1991 71.3491 89.84 72.323 90.6019C73.502 91.4809 75.5525 91.5395 78.987 91.4809H79.0382H102.208C103.336 91.4809 104.207 92.5358 104.207 93.7665C104.207 95.0558 103.285 96.0521 102.208 96.0521H79.0382C74.7836 96.1107 72.1692 95.9935 70.0675 94.4112C67.9146 92.7702 66.7868 89.9572 65.6591 84.8586L58.7901 55.146C58.7901 55.0874 58.7901 55.0874 58.7388 55.0288C58.4312 53.7395 57.9186 52.8605 57.201 52.3916C56.4833 51.8642 55.5094 51.6298 54.3816 51.6298C54.3303 51.6298 54.2791 51.6298 54.2278 51.6298H48.9992ZM96.2107 98.7479C98.9276 98.7479 101.132 101.268 101.132 104.374C101.132 107.48 98.9276 110 96.2107 110C93.4939 110 91.2897 107.48 91.2897 104.374C91.2897 101.268 93.4939 98.7479 96.2107 98.7479ZM74.6298 98.7479C77.3466 98.7479 79.5509 101.268 79.5509 104.374C79.5509 107.48 77.3466 110 74.6298 110C71.9129 110 69.7087 107.48 69.7087 104.374C69.7087 101.268 71.9129 98.7479 74.6298 98.7479ZM64.275 60.8893L68.8373 80.5219H101.183L105.438 60.8893H64.275Z" fill="black"/>
<circle cx="79" cy="79" r="74.5" stroke="black" stroke-width="9"/>
</svg>
