<svg width="145" height="191" viewBox="0 0 154 154" fill="none" xmlns="http://www.w3.org/2000/svg">
<path d="M153.367 114.93C153.367 123.129 153.367 131.328 153.367 139.528C153.367 141.95 152.876 142.594 150.523 143.225C133.226 147.899 115.661 150.985 97.7828 152.375C79.8287 153.771 61.9255 153.363 44.0605 151.259C30.0466 149.608 16.2175 146.93 2.62435 143.117C0.507593 142.537 0.00390625 141.912 0.00390625 139.77C0.00390625 123.212 0.00390625 106.648 0.00390625 90.0897C0.00390625 87.4183 1.31094 86.3918 3.88038 87.0931C15.4333 90.2427 27.1328 92.7293 38.9982 94.3679C53.79 96.4081 68.6519 97.3071 83.5904 96.8991C105.925 96.2934 127.864 93.0481 149.408 87.1122C152.066 86.379 153.361 87.3991 153.367 90.1726C153.373 98.4229 153.367 106.68 153.367 114.93ZM53.6816 118.819C53.5732 118.793 53.4584 118.774 53.35 118.749C52.0494 120.693 50.7296 122.625 49.4672 124.595C48.3323 126.362 46.8468 127.624 44.8703 128.37C42.5367 129.256 40.1841 130.117 37.927 131.182C35.1089 132.514 32.2143 132.98 29.1157 132.852C25.9151 132.718 23.5178 131.456 21.8856 128.676C21.6114 128.217 21.0185 127.79 20.4893 127.656C16.9316 126.738 14.8786 123.99 15.2675 120.528C15.6373 117.231 18.3215 114.955 21.9175 114.936C25.0607 114.917 28.1976 114.962 31.3409 114.911C31.9912 114.898 32.6861 114.681 33.2663 114.375C37.2321 112.246 40.4582 109.357 42.575 105.296C43.2827 103.938 44.2709 102.72 45.1125 101.426C45.3229 101.107 45.4696 100.744 45.4568 100.776C32.0039 98.2507 18.5957 95.7387 5.17466 93.2202V138.578C52.8464 151.304 100.499 151.304 148.139 138.603V93.2394C134.686 95.7642 121.284 98.2762 107.78 100.807C111.013 104.671 112.6 110.212 117.79 112.883C118.542 113.272 119.174 113.897 119.932 114.26C120.621 114.592 121.399 114.892 122.145 114.911C125.339 114.981 128.533 114.911 131.727 114.949C135.081 114.987 137.721 117.327 138.091 120.502C138.479 123.862 136.528 126.75 133.194 127.509C132.206 127.732 131.683 128.191 131.192 129.033C129.764 131.462 127.558 132.674 124.746 132.82C121.635 132.98 118.638 132.776 115.756 131.303C113.544 130.174 111.153 129.365 108.813 128.497C106.683 127.707 105.032 126.425 103.821 124.481C102.603 122.523 101.27 120.636 99.9825 118.717C99.8805 118.755 99.7848 118.787 99.6828 118.825C99.6828 119.335 99.6828 119.845 99.6828 120.362C99.6828 126.91 99.6892 133.458 99.6828 140.006C99.6828 141.989 98.4587 143.238 96.8201 143.021C95.3728 142.83 94.5822 141.746 94.5822 139.859C94.5758 130.117 94.595 120.375 94.5631 110.626C94.5631 109.102 94.8691 107.814 96.4886 107.362C98.0443 106.928 98.9432 107.885 99.7338 109.083C102.514 113.304 105.319 117.506 108.143 121.701C108.52 122.262 108.96 122.931 109.533 123.186C112.135 124.34 114.8 125.361 117.586 126.489C117.586 125.514 117.471 124.748 117.605 124.034C118.319 120.203 116.98 117.569 113.346 115.995C111.351 115.134 110.018 113.47 108.858 111.614C106.798 108.324 104.605 105.111 102.38 101.93C102.048 101.451 101.207 101.043 100.626 101.069C94.4611 101.337 88.2957 102.019 82.1303 101.968C72.2925 101.891 62.4547 101.337 52.6168 101.043C52.1068 101.031 51.3927 101.368 51.093 101.777C49.8051 103.536 48.5427 105.328 47.4461 107.209C44.7555 111.831 41.523 115.88 36.6136 118.341C36.2566 118.519 35.8358 119.017 35.823 119.38C35.7529 121.688 35.7848 123.996 35.7848 126.483C38.2331 125.507 40.4901 124.723 42.6387 123.703C43.6397 123.231 44.6471 122.466 45.2719 121.573C48.192 117.384 50.9846 113.106 53.7963 108.841C54.5359 107.719 55.4732 106.986 56.8503 107.368C58.2849 107.763 58.7886 108.854 58.7886 110.301C58.7695 120.203 58.7886 130.104 58.7758 140.012C58.7758 141.887 57.7685 143.041 56.2255 143.041C54.6826 143.041 53.6752 141.893 53.6752 140.018C53.6625 133.681 53.6752 127.35 53.6752 121.012C53.6752 120.285 53.6752 119.559 53.6752 118.832L53.6816 118.819ZM30.5949 120.043C27.6429 120.043 24.7802 119.979 21.9238 120.101C21.4201 120.12 20.9547 120.929 20.4765 121.369C20.9993 121.777 21.5413 122.555 22.0322 122.523C24.098 122.389 25.1181 123.441 25.9023 125.169C27.0563 127.7 27.662 127.943 30.5949 127.554V120.037V120.043ZM122.77 127.554C125.517 127.936 126.295 127.688 127.162 125.737C128.055 123.741 129.101 122.224 131.645 122.523C132.008 122.568 132.779 121.796 132.799 121.376C132.824 120.955 132.148 120.132 131.759 120.12C128.763 120.011 125.753 120.062 122.763 120.062V127.554H122.77Z" fill="white"/>
<path d="M68.8716 86.8127C69.2477 85.5184 68.9162 84.7852 67.7941 84.3899C67.3031 84.2177 66.7931 83.9245 66.4551 83.5419C64.8357 81.7184 62.7763 81.5718 60.5257 81.6674C57.5482 81.795 54.5643 81.7184 51.5868 81.6929C49.2469 81.6738 48.214 80.3222 48.7815 78.0332C50.1905 72.3078 51.7653 66.6142 52.9895 60.8441C53.5569 58.1791 53.4741 55.3737 53.6717 52.6321C53.8757 49.7758 53.7036 46.8429 54.3284 44.0822C56.0945 36.291 63.0887 30.7441 71.0712 30.623C75.6363 30.5528 80.2587 30.4062 84.7728 30.9481C92.9082 31.9236 99.7877 39.2621 99.5136 47.4805C99.2011 56.8274 101.426 65.5877 103.702 74.4309C104.021 75.6678 104.334 76.9047 104.621 78.148C105.124 80.3094 104.066 81.6738 101.809 81.6929C98.1364 81.7248 94.4639 81.6419 90.7915 81.7439C89.8797 81.7695 88.9361 82.254 88.0945 82.6876C87.2083 83.153 86.4751 83.9245 85.5825 84.3644C84.5815 84.8617 84.0523 85.4483 84.5113 86.8127C86.8258 86.8127 89.2486 86.8063 91.6713 86.8127C94.5341 86.8254 97.1035 87.7244 99.3924 89.4268C101.012 90.6318 101.369 92.0791 100.4 93.3797C99.4243 94.6995 98.1428 94.5784 96.3193 93.5901C94.8274 92.7868 93.1123 92.2449 91.4354 91.9771C89.7204 91.7093 87.9288 91.9197 86.1754 91.9197C84.1352 91.9197 82.2671 91.9006 80.3926 93.367C77.9443 95.2861 74.4249 94.7187 71.9128 92.8251C71.2625 92.3341 70.338 92.0026 69.5219 91.9643C67.08 91.8559 64.6253 91.9516 62.177 91.9133C60.1814 91.8814 58.4217 92.4361 56.8341 93.6603C55.3103 94.8334 53.8502 94.7505 52.8939 93.5264C51.9247 92.2895 52.269 90.7593 53.8184 89.5543C56.069 87.7946 58.6384 86.8701 61.4948 86.8254C63.9367 86.7872 66.3786 86.8191 68.8652 86.8191L68.8716 86.8127ZM76.6819 51.0254C71.7343 51.0254 66.7867 51.0127 61.8391 51.0254C59.7414 51.0318 58.8233 51.9563 58.7978 54.0348C58.7787 55.5778 58.7723 57.1207 58.8106 58.6636C58.8425 60.0025 59.5821 61.1247 60.8508 61.1311C65.6837 61.1566 71.0074 62.7186 74.3739 57.3885C74.4567 57.2546 74.5906 57.1589 74.7118 57.0506C76.0698 55.82 77.3131 55.7945 78.6584 57.0506C79.7486 58.0643 80.7114 59.2183 81.8526 60.1747C82.4647 60.6848 83.3063 61.1566 84.0714 61.1948C86.6727 61.316 89.2868 61.2777 91.8881 61.2267C93.5713 61.1948 94.5213 60.2066 94.5723 58.5042C94.617 57.0697 94.5978 55.6288 94.5851 54.1942C94.566 51.9117 93.6797 51.0254 91.3781 51.0191C86.4815 51.0063 81.5912 51.0191 76.6946 51.0191L76.6819 51.0254ZM94.2153 46.046C93.2972 40.2886 88.1073 35.8192 82.1268 35.7044C78.5117 35.6343 74.8903 35.6471 71.2752 35.7044C68.183 35.7491 65.4541 36.8585 63.1397 38.9115C60.9847 40.8242 59.5948 43.1896 59.0975 46.046H94.2153ZM76.6628 61.9599C73.5195 67.2199 68.5655 66.3401 63.9686 66.3592C63.4904 72.3078 65.2437 77.0322 70.3762 79.9715C74.9285 82.5792 79.5829 82.3624 83.912 79.3977C88.4261 76.3054 89.8734 71.7914 89.3633 66.3018C84.6707 66.4931 79.8762 67.0669 76.6564 61.9663L76.6628 61.9599ZM98.9461 76.5094C97.9961 72.7158 97.0653 69.0051 96.1344 65.3008C95.9814 65.2562 95.822 65.2116 95.669 65.1669C95.3055 65.6515 94.6233 66.136 94.6297 66.6142C94.6807 69.987 94.3683 73.2833 92.8764 76.5094H98.9461ZM54.4432 76.4776H60.4683C59.1102 73.4299 58.6066 70.3568 58.8106 67.1944C58.8871 66.0085 58.4472 65.4538 57.2039 65.3773C56.2858 69.0689 55.3804 72.7095 54.4432 76.4776ZM74.189 86.7553C74.495 88.5214 75.3621 89.3694 76.7138 89.3503C78.0846 89.3311 78.9389 88.4449 79.1429 86.7553H74.1826H74.189Z" fill="white"/>
<path d="M123.076 56.1399C123.395 54.2526 123.695 52.5312 123.982 50.8034C124.945 44.9823 129.72 40.8189 135.465 40.8125C141.216 40.8061 146.004 44.9504 146.973 50.7715C147.26 52.4993 147.553 54.2208 147.878 56.1399C148.866 56.1399 149.804 56.1016 150.741 56.1463C152.341 56.2291 153.342 57.1664 153.349 58.7731C153.387 64.0395 153.457 69.3059 153.317 74.5723C153.215 78.436 149.912 81.6111 146.023 81.6621C139.003 81.7514 131.977 81.745 124.957 81.6621C120.941 81.6111 117.676 78.3021 117.612 74.2853C117.53 69.1783 117.568 64.0713 117.6 58.9643C117.612 57.1026 118.601 56.1909 120.507 56.1399C121.304 56.1208 122.095 56.1399 123.076 56.1399ZM122.713 66.4495C122.713 69.0317 122.637 71.6203 122.745 74.1961C122.802 75.6689 123.791 76.5487 125.263 76.5615C132.073 76.5998 138.882 76.5934 145.698 76.5615C147.1 76.5551 148.121 75.7327 148.191 74.3491C148.325 71.7223 148.229 69.0827 148.229 65.9076C144.958 70.6894 141.235 73.9857 135.554 74.0176C129.803 74.0494 126.035 70.7277 122.713 66.4495ZM142.612 56.0697C142.433 54.8392 142.299 53.6916 142.095 52.5503C141.949 51.7151 141.802 50.8671 141.515 50.0765C140.616 47.6218 138.232 45.9769 135.63 45.9195C132.946 45.8621 130.345 47.4242 129.516 49.949C128.885 51.8809 128.662 53.953 128.234 56.0697H142.612ZM145.71 61.3999H125.582C126.966 63.115 128.139 64.6962 129.439 66.169C132.054 69.1337 136.376 69.9944 139.52 67.7119C141.764 66.0797 143.485 63.7207 145.717 61.3999H145.71Z" fill="white"/>
<path d="M17.8629 81.886C12.5646 81.8286 7.46397 80.9169 2.52274 79.0934C-0.135955 78.1115 -0.575884 76.7662 0.801284 74.3307C2.52912 71.2831 4.35897 68.2737 5.79352 65.0922C7.719 60.8332 8.02504 56.198 7.57236 51.6265C7.34283 49.3058 6.16969 47.0806 5.46198 44.7981C5.27708 44.2051 4.95829 43.3763 5.21332 42.9746C5.72338 42.1521 6.46935 41.2085 7.3237 40.9216C8.55423 40.5072 9.59986 41.2978 10.0589 42.5411C10.7539 44.4347 11.2894 46.392 12.0418 48.2601C12.3096 48.9232 12.8961 49.6182 13.5146 49.9497C15.7142 51.1101 18.0733 51.3141 20.4897 50.6766C22.3195 50.192 23.7668 49.3823 24.1813 47.2528C24.4682 45.7545 25.0866 44.3072 25.6031 42.8599C26.1896 41.2213 27.5413 40.4753 28.9312 40.9726C30.3594 41.4827 30.9332 42.8152 30.4231 44.492C30.1617 45.3592 29.9067 46.2263 29.5815 47.0679C26.7188 54.5658 28.0832 61.6875 31.5517 68.5861C32.6037 70.671 33.949 72.6029 35.1348 74.6176C36.3462 76.677 35.8362 78.1434 33.5855 79.0041C28.5104 80.936 23.2504 81.8669 17.8629 81.9115V81.886ZM12.8005 55.2097C12.7176 62.4909 10.4542 68.9559 6.36734 74.9938C14.1713 77.3528 21.6883 77.3528 29.4413 74.981C25.2906 68.9304 23.0974 62.4526 22.9762 55.2225C19.4951 56.4084 16.2052 56.4084 12.8069 55.2161L12.8005 55.2097Z" fill="white"/>
<path d="M99.6886 21.6914C99.6886 23.8783 99.7078 25.74 99.6886 27.5954C99.6631 29.4443 98.6239 30.5983 97.0746 30.5601C95.589 30.5218 94.6071 29.3997 94.588 27.6336C94.5625 24.8155 94.5498 21.991 94.6008 19.173C94.6199 18.2421 94.3712 17.63 93.6125 17.0243C87.4153 12.1213 88.2696 4.07511 95.2893 0.498297C96.7558 -0.247669 97.9289 -0.17116 99.2487 0.829837C105.134 5.30563 111.082 9.70492 116.973 14.1743C117.949 14.9139 118.899 15.3857 120.161 15.2582C124.93 14.7737 128.099 16.8585 129.891 21.277C130.63 23.0941 131.663 24.79 132.498 26.5689C133.538 28.7876 132.441 30.5537 129.98 30.5728C124.286 30.6047 118.586 30.6175 112.893 30.541C112.064 30.5282 111.127 30.1393 110.438 29.642C107.327 27.4105 104.286 25.0705 101.219 22.7753C100.804 22.4629 100.371 22.1759 99.6886 21.6978V21.6914ZM126.065 25.4595C124.261 20.48 124.076 20.3461 119.199 20.3461C119.148 20.3461 119.09 20.3461 119.039 20.3461C117.471 20.531 116.196 19.9954 114.933 19.0263C109.271 14.6908 103.527 10.47 97.8524 6.14724C96.9471 5.45865 96.386 5.59254 95.7038 6.34489C93.9632 8.264 94.2118 11.0693 96.4561 12.778C101.831 16.8713 107.257 20.9008 112.676 24.9367C113.033 25.2044 113.524 25.4276 113.958 25.4276C117.949 25.4658 121.934 25.4467 126.059 25.4467L126.065 25.4595Z" fill="white"/>
<path d="M60.8128 19.7997C61.9349 18.9453 62.0943 17.9379 61.7054 16.7648C60.8319 14.1443 59.9584 11.5175 59.1041 8.8907C58.4984 7.02897 59.0913 5.60717 60.6342 5.12899C62.0624 4.68906 63.3248 5.50516 63.9433 7.3095C64.8359 9.92357 65.7221 12.544 66.5573 15.1772C67.9218 19.4872 66.0537 23.351 61.903 25.0342C61.3866 25.2446 60.8638 25.7164 60.596 26.2073C59.1232 28.9106 56.9044 30.4855 53.8249 30.5428C50.7454 30.6002 48.3991 29.1529 46.9582 26.4305C46.5374 25.6271 46.0592 25.3721 45.2304 25.4486C44.7012 25.4996 44.1592 25.506 43.6364 25.4486C41.7046 25.2509 40.4166 25.7036 39.1415 27.559C36.0429 32.0539 29.2909 31.4291 26.6131 26.6281C26.1222 25.7483 25.5993 25.1872 24.6238 24.8046C20.9195 23.3573 19.0642 19.4044 20.2437 15.5024C21.1044 12.6524 22.0799 9.84069 23.0554 7.02897C23.6228 5.39039 25.0064 4.66356 26.3963 5.16724C27.8181 5.68368 28.3983 7.01622 27.8627 8.69942C27.002 11.3836 26.0903 14.0487 25.2295 16.7265C24.7641 18.1675 24.8853 18.5309 26.103 19.7869C26.3708 19.3916 26.6258 19.0154 26.8809 18.6393C30.158 13.8766 37.0949 14.1571 39.8747 19.2195C40.3593 20.1057 40.8502 20.4946 41.8257 20.3543C42.1891 20.297 42.5717 20.3161 42.9415 20.3543C45.0008 20.5456 46.4673 20.2205 47.8827 18.1611C50.739 13.9977 56.9427 14.3547 59.9074 18.4735C60.2071 18.8943 60.494 19.3278 60.8128 19.7933V19.7997ZM56.2286 22.9047C56.2286 21.5275 55.0937 20.3799 53.7165 20.3671C52.2756 20.348 51.0897 21.5594 51.1343 22.9939C51.179 24.3647 52.3521 25.4805 53.7229 25.455C55.1001 25.4295 56.2286 24.2755 56.2222 22.9047H56.2286ZM35.7815 22.9238C35.7878 21.5466 34.6593 20.3926 33.2885 20.3671C31.8476 20.3416 30.6553 21.5402 30.6936 22.9812C30.7318 24.3583 31.8922 25.4741 33.263 25.4613C34.6402 25.4422 35.7751 24.301 35.7815 22.9238Z" fill="white"/>
<path d="M145.688 122.701C145.644 130.569 139.523 137.193 131.674 137.882C131.406 137.907 131.145 137.907 130.877 137.914C129.028 137.939 127.842 136.964 127.817 135.408C127.791 133.903 128.843 132.915 130.641 132.82C133.485 132.667 135.946 131.646 137.846 129.523C140.639 126.386 141.391 122.739 139.835 118.837C138.286 114.942 135.245 112.831 131.069 112.392C130.858 112.372 130.641 112.385 130.431 112.366C128.811 112.219 127.766 111.161 127.823 109.72C127.881 108.273 128.996 107.214 130.616 107.285C136.647 107.527 141.231 110.3 143.96 115.662C145.038 117.785 145.408 120.266 146.103 122.58C145.969 122.618 145.828 122.663 145.695 122.701H145.688Z" fill="white"/>
<path d="M22.4223 137.915C14.8925 137.768 8.38286 131.564 7.71978 123.913C7.05032 116.218 12.4889 108.956 19.974 107.585C20.9113 107.413 21.874 107.292 22.824 107.285C24.4307 107.273 25.5401 108.337 25.5528 109.791C25.5656 111.181 24.5646 112.182 23.0344 112.373C21.9824 112.501 20.9049 112.577 19.9039 112.89C15.256 114.331 12.2657 118.991 12.8395 123.754C13.4325 128.657 17.3918 132.463 22.3139 132.788C23.6146 132.871 24.7559 133.069 25.3361 134.401C26.1458 136.263 24.7367 137.966 22.4287 137.921L22.4223 137.915Z" fill="white"/>
<path d="M76.3921 79.1311C73.9056 78.9207 71.5338 77.8687 69.7167 75.7392C68.7221 74.5724 68.8496 73.1315 69.9207 72.1752C70.9855 71.2188 72.369 71.2953 73.4848 72.3728C75.8247 74.6298 77.5143 74.6298 79.8988 72.3664C81.0209 71.3017 82.4109 71.2315 83.4692 72.1943C84.5276 73.157 84.5978 74.5533 83.6541 75.7775C82.226 77.6201 79.0763 79.1375 76.3921 79.1375V79.1311Z" fill="white"/>
</svg>
