<svg width="140" height="140" viewBox="0 0 140 140" fill="none" xmlns="http://www.w3.org/2000/svg">
<path d="M139.363 104.427C139.363 111.877 139.363 119.327 139.363 126.777C139.363 128.978 138.917 129.563 136.779 130.137C121.063 134.383 105.103 137.187 88.8587 138.45C72.5453 139.718 56.2783 139.348 40.046 137.436C27.3127 135.935 14.7475 133.502 2.39659 130.038C0.473281 129.511 0.015625 128.943 0.015625 126.997C0.015625 111.952 0.015625 96.9015 0.015625 81.8568C0.015625 79.4295 1.20321 78.4968 3.53783 79.1341C14.0349 81.9959 24.6653 84.2552 35.4463 85.744C48.8863 87.5978 62.39 88.4146 75.9633 88.0439C96.2565 87.4935 116.191 84.5448 135.765 79.1515C138.181 78.4853 139.357 79.4122 139.363 81.9322C139.369 89.4284 139.363 96.9305 139.363 104.427ZM48.7878 107.961C48.6893 107.937 48.585 107.92 48.4865 107.897C47.3048 109.664 46.1056 111.419 44.9585 113.209C43.9274 114.814 42.5776 115.961 40.7817 116.639C38.6614 117.444 36.5238 118.226 34.473 119.193C31.9125 120.404 29.2824 120.827 26.4669 120.711C23.5588 120.59 21.3806 119.443 19.8976 116.917C19.6485 116.5 19.1097 116.111 18.6289 115.99C15.3963 115.156 13.5309 112.659 13.8843 109.513C14.2203 106.518 16.6592 104.45 19.9265 104.433C22.7825 104.415 25.6327 104.456 28.4887 104.409C29.0796 104.398 29.7111 104.201 30.2383 103.923C33.8416 101.988 36.7729 99.3636 38.6962 95.6734C39.3392 94.4395 40.2372 93.333 41.0019 92.157C41.193 91.8673 41.3263 91.5371 41.3147 91.5661C29.0912 89.272 16.9083 86.9895 4.71383 84.7013V125.913C48.0289 137.476 91.3266 137.476 134.613 125.937V84.7186C122.389 87.0127 110.212 89.2952 97.9423 91.5951C100.879 95.1057 102.322 100.14 107.037 102.567C107.721 102.921 108.295 103.488 108.984 103.819C109.61 104.12 110.316 104.392 110.994 104.409C113.897 104.473 116.799 104.409 119.701 104.444C122.748 104.479 125.147 106.605 125.483 109.49C125.836 112.543 124.063 115.167 121.034 115.857C120.136 116.059 119.661 116.476 119.215 117.241C117.917 119.448 115.913 120.549 113.358 120.682C110.531 120.827 107.808 120.642 105.189 119.303C103.179 118.278 101.007 117.542 98.8808 116.755C96.9459 116.036 95.4455 114.872 94.3448 113.105C93.2383 111.326 92.0275 109.612 90.8573 107.868C90.7646 107.903 90.6777 107.932 90.5851 107.966C90.5851 108.43 90.5851 108.893 90.5851 109.363C90.5851 115.312 90.5908 121.262 90.5851 127.211C90.5851 129.013 89.4728 130.148 87.984 129.951C86.6689 129.777 85.9506 128.793 85.9506 127.078C85.9448 118.226 85.9622 109.374 85.9332 100.516C85.9332 99.1319 86.2113 97.9617 87.6827 97.5504C89.0962 97.1564 89.913 98.0254 90.6314 99.1145C93.1572 102.95 95.7062 106.767 98.2725 110.579C98.6143 111.089 99.014 111.697 99.5354 111.929C101.899 112.977 104.321 113.904 106.852 114.93C106.852 114.043 106.748 113.348 106.869 112.699C107.518 109.218 106.302 106.825 103 105.394C101.186 104.612 99.9757 103.1 98.9213 101.414C97.0502 98.4251 95.0573 95.5054 93.0355 92.6146C92.7343 92.1802 91.9696 91.8094 91.4424 91.8326C85.8405 92.0759 80.2386 92.6957 74.6366 92.6494C65.6979 92.5799 56.7591 92.0759 47.8203 91.8094C47.3569 91.7978 46.7081 92.1048 46.4358 92.4756C45.2656 94.0745 44.1185 95.7024 43.1221 97.4113C40.6774 101.611 37.7403 105.29 33.2796 107.526C32.9552 107.688 32.5729 108.14 32.5613 108.47C32.4976 110.567 32.5265 112.665 32.5265 114.924C34.7511 114.038 36.8019 113.325 38.7541 112.398C39.6636 111.969 40.579 111.274 41.1467 110.463C43.7999 106.657 46.3373 102.77 48.8921 98.8944C49.5641 97.8748 50.4157 97.2086 51.667 97.5562C52.9704 97.9153 53.4281 98.906 53.4281 100.221C53.4107 109.218 53.4281 118.214 53.4165 127.217C53.4165 128.92 52.5012 129.969 51.0992 129.969C49.6973 129.969 48.782 128.926 48.782 127.223C48.7704 121.464 48.782 115.712 48.782 109.953C48.782 109.293 48.782 108.633 48.782 107.972L48.7878 107.961ZM27.8109 109.073C25.1287 109.073 22.5276 109.015 19.9323 109.125C19.4747 109.142 19.0518 109.878 18.6173 110.278C19.0923 110.649 19.5847 111.355 20.0308 111.326C21.9078 111.205 22.8347 112.161 23.5472 113.731C24.5958 116.03 25.1461 116.251 27.8109 115.897V109.067V109.073ZM111.562 115.897C114.059 116.245 114.765 116.019 115.553 114.246C116.364 112.433 117.314 111.054 119.626 111.326C119.956 111.367 120.657 110.666 120.674 110.284C120.698 109.901 120.084 109.154 119.73 109.142C117.007 109.044 114.273 109.09 111.556 109.09V115.897H111.562Z" fill="#fff"/>
<path d="M62.5919 78.878C62.9337 77.702 62.6325 77.0358 61.6129 76.6767C61.1668 76.5202 60.7034 76.2538 60.3963 75.9062C58.9249 74.2494 57.0537 74.1161 55.0088 74.203C52.3034 74.3189 49.5922 74.2494 46.8868 74.2262C44.7608 74.2088 43.8223 72.9807 44.3379 70.9009C45.6181 65.6987 47.049 60.5255 48.1613 55.2827C48.6769 52.8612 48.6016 50.3122 48.7812 47.8212C48.9665 45.2259 48.8101 42.5611 49.3779 40.0526C50.9825 32.9735 57.3376 27.9335 64.5906 27.8234C68.7384 27.7597 72.9384 27.6264 77.0399 28.1188C84.432 29.0052 90.6827 35.6731 90.4336 43.1404C90.1497 51.6331 92.1715 59.5928 94.2397 67.6278C94.5293 68.7517 94.8132 69.8756 95.0739 71.0052C95.5315 72.9691 94.5699 74.2088 92.5191 74.2262C89.1823 74.2551 85.8455 74.1798 82.5086 74.2725C81.6802 74.2957 80.8228 74.736 80.0582 75.1299C79.2529 75.5528 78.5867 76.2538 77.7757 76.6535C76.8661 77.1054 76.3853 77.6383 76.8024 78.878C78.9053 78.878 81.1067 78.8723 83.3081 78.878C85.9092 78.8896 88.2438 79.7065 90.3235 81.2532C91.795 82.3481 92.1194 83.6632 91.2388 84.8449C90.3525 86.0441 89.1881 85.9341 87.5313 85.0361C86.1757 84.3062 84.6173 83.8138 83.0937 83.5705C81.5354 83.3272 79.9075 83.5183 78.3144 83.5183C76.4606 83.5183 74.7633 83.5009 73.0601 84.8334C70.8355 86.5771 67.6377 86.0615 65.3552 84.341C64.7643 83.8949 63.9243 83.5936 63.1828 83.5589C60.9641 83.4604 58.7337 83.5473 56.5092 83.5125C54.6959 83.4836 53.097 83.9876 51.6545 85.0998C50.27 86.1658 48.9434 86.0905 48.0744 84.9782C47.1939 83.8543 47.5067 82.464 48.9144 81.3691C50.9594 79.7702 53.294 78.9302 55.8893 78.8896C58.1081 78.8549 60.3268 78.8838 62.5861 78.8838L62.5919 78.878ZM69.6885 46.3613C65.193 46.3613 60.6976 46.3498 56.2021 46.3613C54.2962 46.3671 53.462 47.2071 53.4388 49.0957C53.4214 50.4976 53.4157 51.8995 53.4504 53.3015C53.4794 54.518 54.1514 55.5376 55.3042 55.5434C59.6954 55.5666 64.5326 56.9859 67.5914 52.1429C67.6667 52.0212 67.7884 51.9343 67.8984 51.8358C69.1324 50.7178 70.262 50.6946 71.4844 51.8358C72.475 52.7569 73.3497 53.8055 74.3867 54.6744C74.9428 55.1379 75.7075 55.5666 76.4027 55.6013C78.7663 55.7114 81.1415 55.6767 83.505 55.6303C85.0344 55.6013 85.8976 54.7034 85.944 53.1566C85.9845 51.8532 85.9671 50.544 85.9555 49.2405C85.9382 47.1666 85.1329 46.3613 83.0416 46.3555C78.5925 46.344 74.1492 46.3555 69.7001 46.3555L69.6885 46.3613ZM85.6195 41.8369C84.7853 36.6057 80.0697 32.5448 74.6358 32.4405C71.3511 32.3768 68.0606 32.3884 64.7759 32.4405C61.9663 32.481 59.4868 33.489 57.3839 35.3544C55.4259 37.0924 54.163 39.2416 53.7111 41.8369H85.6195ZM69.6711 56.2965C66.8151 61.0758 62.3139 60.2764 58.137 60.2938C57.7026 65.6987 59.2957 69.9914 63.9591 72.662C68.0954 75.0314 72.3244 74.8345 76.2579 72.1407C80.3594 69.331 81.6744 65.2295 81.211 60.2416C76.9473 60.4154 72.5908 60.9368 69.6653 56.3023L69.6711 56.2965ZM89.918 69.5164C89.0548 66.0695 88.2091 62.6979 87.3633 59.3321C87.2242 59.2916 87.0794 59.251 86.9404 59.2104C86.6102 59.6507 85.9903 60.091 85.9961 60.5255C86.0424 63.59 85.7586 66.5851 84.403 69.5164H89.918ZM49.4821 69.4874H54.9566C53.7227 66.7183 53.265 63.926 53.4504 61.0527C53.5199 59.9751 53.1202 59.4711 51.9905 59.4016C51.1563 62.7558 50.3337 66.0637 49.4821 69.4874ZM67.4234 78.8259C67.7015 80.4306 68.4893 81.2011 69.7175 81.1837C70.963 81.1663 71.7392 80.3611 71.9246 78.8259H67.4176H67.4234Z" fill="#fff"/>
<path d="M111.838 51.0087C112.128 49.2939 112.4 47.7298 112.661 46.1598C113.536 40.8707 117.875 37.0878 123.094 37.082C128.32 37.0762 132.67 40.8418 133.551 46.1309C133.811 47.7008 134.078 49.2649 134.373 51.0087C135.271 51.0087 136.123 50.9739 136.974 51.0145C138.429 51.0898 139.338 51.9414 139.344 53.4012C139.379 58.1863 139.442 62.9714 139.315 67.7565C139.222 71.2672 136.221 74.1521 132.688 74.1985C126.309 74.2796 119.925 74.2738 113.547 74.1985C109.897 74.1521 106.931 71.1455 106.873 67.4958C106.798 62.8556 106.833 58.2153 106.862 53.575C106.873 51.8834 107.771 51.055 109.504 51.0087C110.228 50.9913 110.946 51.0087 111.838 51.0087ZM111.508 60.3761C111.508 62.7223 111.438 65.0743 111.537 67.4147C111.589 68.753 112.487 69.5524 113.825 69.564C120.012 69.5987 126.199 69.593 132.392 69.564C133.667 69.5582 134.594 68.8109 134.657 67.5538C134.779 65.167 134.692 62.7687 134.692 59.8837C131.72 64.2285 128.337 67.2236 123.175 67.2525C117.95 67.2815 114.526 64.2633 111.508 60.3761ZM129.588 50.9449C129.426 49.8269 129.304 48.7841 129.119 47.7472C128.986 46.9883 128.853 46.2178 128.592 45.4994C127.775 43.2691 125.608 41.7745 123.245 41.7223C120.806 41.6702 118.442 43.0895 117.689 45.3836C117.116 47.1389 116.913 49.0216 116.525 50.9449H129.588ZM132.404 55.788H114.115C115.372 57.3463 116.438 58.783 117.62 60.1212C119.995 62.815 123.923 63.5971 126.779 61.5232C128.818 60.0401 130.382 57.8967 132.409 55.788H132.404Z" fill="#fff"/>
<path d="M16.2457 74.4017C11.4316 74.3496 6.79714 73.5212 2.30748 71.8643C-0.108242 70.9722 -0.507966 69.7498 0.743345 67.5369C2.31328 64.7678 3.9759 62.0334 5.27935 59.1427C7.02887 55.2729 7.30694 51.0613 6.89563 46.9076C6.68707 44.7989 5.62114 42.7771 4.97811 40.7032C4.81011 40.1644 4.52045 39.4113 4.75218 39.0464C5.21562 38.2991 5.89342 37.4417 6.66969 37.181C7.78776 36.8044 8.73783 37.5228 9.15494 38.6524C9.78639 40.373 10.273 42.1515 10.9566 43.8489C11.1999 44.4513 11.7329 45.0828 12.2948 45.384C14.2934 46.4384 16.4369 46.6238 18.6325 46.0444C20.2951 45.6042 21.6101 44.8684 21.9867 42.9336C22.2474 41.5722 22.8093 40.2571 23.2785 38.9421C23.8115 37.4533 25.0396 36.7755 26.3025 37.2273C27.6002 37.6908 28.1216 38.9015 27.6581 40.4251C27.4206 41.213 27.1889 42.0009 26.8934 42.7655C24.2923 49.5782 25.5321 56.0491 28.6835 62.3173C29.6394 64.2116 30.8617 65.9669 31.9392 67.7976C33.0399 69.6687 32.5765 71.0012 30.5315 71.7832C25.9202 73.5385 21.1409 74.3843 16.2457 74.4249V74.4017ZM11.646 50.1633C11.5707 56.7791 9.51411 62.6533 5.80073 68.1394C12.8915 70.2828 19.7216 70.2828 26.766 68.1278C22.9947 62.6301 21.0018 56.7443 20.8918 50.1749C17.7287 51.2525 14.7395 51.2525 11.6518 50.1691L11.646 50.1633Z" fill="#fff"/>
<path d="M90.5927 19.709C90.5927 21.6961 90.6101 23.3877 90.5927 25.0735C90.5696 26.7535 89.6253 27.802 88.2175 27.7673C86.8678 27.7325 85.9756 26.7129 85.9582 25.1082C85.9351 22.5477 85.9235 19.9813 85.9698 17.4208C85.9872 16.575 85.7613 16.0188 85.0719 15.4685C79.441 11.0136 80.2173 3.70269 86.5955 0.452758C87.9279 -0.225035 88.9938 -0.155518 90.193 0.754C95.54 4.82076 100.945 8.818 106.298 12.879C107.184 13.551 108.047 13.9797 109.194 13.8638C113.528 13.4235 116.407 15.3179 118.035 19.3325C118.707 20.9835 119.645 22.5245 120.404 24.1408C121.348 26.1568 120.352 27.7615 118.116 27.7788C112.943 27.8078 107.763 27.8194 102.59 27.7499C101.837 27.7383 100.986 27.3849 100.36 26.933C97.5329 24.9055 94.7695 22.7794 91.9831 20.6939C91.6065 20.41 91.2126 20.1493 90.5927 19.7148V19.709ZM114.559 23.1328C112.919 18.6084 112.751 18.4867 108.32 18.4867C108.273 18.4867 108.221 18.4867 108.175 18.4867C106.75 18.6547 105.591 18.1681 104.444 17.2875C99.2998 13.3482 94.0802 9.51318 88.9243 5.58545C88.1017 4.95979 87.5919 5.08145 86.972 5.76504C85.3905 7.50876 85.6164 10.0577 87.6556 11.6103C92.5392 15.3295 97.4691 18.9907 102.393 22.6577C102.718 22.901 103.164 23.1038 103.558 23.1038C107.184 23.1386 110.805 23.1212 114.553 23.1212L114.559 23.1328Z" fill="#fff"/>
<path d="M55.2644 17.989C56.284 17.2128 56.4288 16.2975 56.0754 15.2315C55.2817 12.8506 54.4881 10.4638 53.7118 8.07704C53.1615 6.38545 53.7002 5.09359 55.1022 4.65911C56.3998 4.25938 57.5468 5.0009 58.1088 6.64035C58.9198 9.01552 59.7251 11.3965 60.484 13.789C61.7237 17.7052 60.0263 21.2158 56.255 22.7452C55.7857 22.9364 55.3107 23.3651 55.0674 23.8111C53.7292 26.2674 51.7132 27.6983 48.9151 27.7504C46.1171 27.8026 43.9852 26.4875 42.6759 24.0139C42.2936 23.2839 41.8591 23.0522 41.106 23.1217C40.6252 23.1681 40.1328 23.1739 39.6577 23.1217C37.9024 22.9422 36.7322 23.3535 35.5736 25.0393C32.7581 29.1234 26.6232 28.5557 24.1901 24.1935C23.7441 23.394 23.269 22.8842 22.3827 22.5366C19.0169 21.2216 17.3311 17.6299 18.4028 14.0845C19.1849 11.495 20.0712 8.94021 20.9576 6.38545C21.4732 4.89663 22.7303 4.23621 23.9932 4.69387C25.285 5.16311 25.8122 6.37387 25.3256 7.90325C24.5435 10.3421 23.7151 12.7637 22.933 15.1968C22.5101 16.506 22.6202 16.8362 23.7267 17.9775C23.97 17.6183 24.2017 17.2765 24.4335 16.9347C27.4111 12.6073 33.714 12.8621 36.2398 17.4619C36.6801 18.2671 37.1261 18.6205 38.0125 18.493C38.3427 18.4409 38.6903 18.4583 39.0263 18.493C40.8975 18.6668 42.2299 18.3714 43.5159 16.5002C46.1113 12.7173 51.7479 13.0417 54.4417 16.7841C54.714 17.1664 54.9747 17.5604 55.2644 17.9833V17.989ZM51.0991 20.8103C51.0991 19.559 50.0679 18.5162 48.8166 18.5046C47.5074 18.4873 46.4299 19.5879 46.4704 20.8914C46.511 22.1369 47.5769 23.1507 48.8224 23.1275C50.0737 23.1044 51.0991 22.0558 51.0933 20.8103H51.0991ZM32.5206 20.8277C32.5264 19.5764 31.501 18.5278 30.2555 18.5046C28.9463 18.4815 27.863 19.5706 27.8977 20.8798C27.9325 22.1311 28.9868 23.1449 30.2324 23.1333C31.4837 23.1159 32.5148 22.079 32.5206 20.8277Z" fill="#fff"/>
<path d="M132.387 111.489C132.346 118.638 126.785 124.657 119.654 125.283C119.41 125.306 119.173 125.306 118.93 125.312C117.25 125.335 116.172 124.448 116.149 123.035C116.126 121.668 117.082 120.77 118.715 120.683C121.299 120.544 123.535 119.617 125.261 117.688C127.799 114.838 128.482 111.524 127.069 107.979C125.661 104.439 122.898 102.522 119.103 102.122C118.912 102.104 118.715 102.116 118.524 102.099C117.053 101.965 116.103 101.004 116.155 99.6945C116.207 98.3794 117.221 97.4178 118.692 97.4815C124.172 97.7016 128.338 100.222 130.817 105.094C131.796 107.023 132.132 109.276 132.763 111.379C132.642 111.414 132.514 111.454 132.393 111.489H132.387Z" fill="#fff"/>
<path d="M20.3861 125.311C13.5444 125.177 7.62967 119.541 7.02719 112.589C6.41891 105.597 11.3604 98.9984 18.1615 97.7528C19.0131 97.5964 19.8879 97.4864 20.7511 97.4806C22.2109 97.469 23.2189 98.4364 23.2305 99.7573C23.2421 101.02 22.3326 101.93 20.9422 102.103C19.9864 102.219 19.0073 102.289 18.0978 102.573C13.8746 103.882 11.1577 108.117 11.6791 112.444C12.2178 116.899 15.8153 120.358 20.2876 120.653C21.4694 120.728 22.5064 120.908 23.0335 122.119C23.7693 123.81 22.489 125.357 20.3919 125.316L20.3861 125.311Z" fill="#fff"/>
<path d="M69.4233 71.8993C67.164 71.7081 65.0089 70.7523 63.3579 68.8174C62.4542 67.7572 62.57 66.448 63.5433 65.579C64.5107 64.71 65.7678 64.7796 66.7816 65.7586C68.9077 67.8094 70.4429 67.8094 72.6095 65.7528C73.6291 64.7854 74.892 64.7216 75.8536 65.5964C76.8153 66.4711 76.879 67.7398 76.0216 68.8521C74.724 70.5263 71.8622 71.9051 69.4233 71.9051V71.8993Z" fill="#fff"/>
</svg>
