<svg width="91" height="91" viewBox="0 0 91 91" fill="none" xmlns="http://www.w3.org/2000/svg">
<path d="M90.7344 45.3698C90.7344 70.4271 70.4219 90.7344 45.3646 90.7344C20.3073 90.7344 0 70.4271 0 45.3698C0 20.3125 20.3073 0 45.3646 0C70.4219 0 90.7344 20.3125 90.7344 45.3698Z" fill="#7FAE7F"/>
<path d="M87.0729 45.3704C87.0729 68.4017 68.401 87.0736 45.3646 87.0736C22.3281 87.0736 3.65625 68.4017 3.65625 45.3704C3.65625 22.334 22.3281 3.66211 45.3646 3.66211C68.401 3.66211 87.0729 22.334 87.0729 45.3704Z" stroke="white" stroke-width="1.33333" stroke-miterlimit="10"/>
<path d="M71.2492 57.406C71.2492 60.1459 71.2492 62.8858 71.2492 65.6258C71.2492 66.4354 71.0851 66.6506 70.299 66.8615C64.5187 68.4232 58.6489 69.4544 52.6747 69.9189C46.675 70.3855 40.6923 70.2492 34.7224 69.5461C30.0393 68.9942 25.4181 68.0994 20.8757 66.8253C20.1683 66.6314 20 66.4226 20 65.7067C20 60.1736 20 54.6383 20 49.1052C20 48.2125 20.4368 47.8694 21.2954 48.1038C25.156 49.1563 29.0657 49.9872 33.0307 50.5348C37.9737 51.2166 42.9401 51.517 47.932 51.3807C55.3955 51.1782 62.7268 50.0938 69.9261 48.1102C70.8146 47.8652 71.2471 48.2061 71.2492 49.1329C71.2513 51.8899 71.2492 54.649 71.2492 57.406ZM37.9374 58.7056C37.9012 58.6971 37.8629 58.6907 37.8266 58.6822C37.392 59.332 36.951 59.9776 36.5291 60.6359C36.1499 61.2261 35.6534 61.648 34.993 61.8972C34.2132 62.1934 33.427 62.481 32.6727 62.8368C31.731 63.2821 30.7637 63.4377 29.7283 63.395C28.6587 63.3503 27.8576 62.9284 27.3122 61.9995C27.2206 61.8461 27.0224 61.7034 26.8456 61.6586C25.6567 61.3518 24.9707 60.4335 25.1006 59.2766C25.2242 58.1751 26.1212 57.4145 27.3228 57.4081C28.3732 57.4017 29.4215 57.4166 30.4718 57.3996C30.6892 57.3953 30.9214 57.3229 31.1153 57.2206C32.4405 56.509 33.5186 55.5438 34.2259 54.1866C34.4624 53.7328 34.7927 53.3259 35.0739 52.8934C35.1442 52.7868 35.1932 52.6654 35.189 52.6761C30.6934 51.8323 26.2128 50.9929 21.7279 50.1513V65.3083C37.6583 69.561 53.5823 69.561 69.5021 65.3168V50.1577C65.0066 51.0014 60.5281 51.8409 56.0155 52.6867C57.0957 53.9778 57.6262 55.8293 59.3605 56.722C59.6119 56.852 59.8228 57.0608 60.0764 57.1822C60.3065 57.293 60.5664 57.3932 60.8157 57.3996C61.8831 57.423 62.9506 57.3996 64.018 57.4124C65.1387 57.4251 66.0207 58.2071 66.1443 59.2681C66.2743 60.3909 65.6223 61.3561 64.508 61.6096C64.1778 61.6842 64.0031 61.8376 63.839 62.1188C63.3618 62.9306 62.6246 63.3354 61.685 63.3844C60.6453 63.4377 59.6439 63.3695 58.6809 62.8773C57.9415 62.5002 57.1426 62.2296 56.3606 61.9399C55.649 61.6757 55.0972 61.2474 54.6924 60.5976C54.2854 59.9435 53.8401 59.3128 53.4098 58.6715C53.3757 58.6843 53.3437 58.695 53.3096 58.7078C53.3096 58.8782 53.3096 59.0486 53.3096 59.2212C53.3096 61.4093 53.3118 63.5975 53.3096 65.7856C53.3096 66.4482 52.9006 66.8658 52.353 66.7933C51.8694 66.7294 51.6052 66.3672 51.6052 65.7366C51.603 62.481 51.6094 59.2255 51.5988 55.9678C51.5988 55.4586 51.701 55.0282 52.2422 54.8769C52.7621 54.7321 53.0625 55.0517 53.3267 55.4522C54.2556 56.8627 55.1931 58.2667 56.1369 59.6686C56.2626 59.8561 56.4096 60.0798 56.6014 60.1651C57.4707 60.5507 58.3613 60.8916 59.2923 61.2687C59.2923 60.9427 59.254 60.6871 59.2987 60.4484C59.5373 59.168 59.0899 58.288 57.8755 57.7618C57.2086 57.4741 56.7633 56.9181 56.3755 56.2981C55.6874 55.1987 54.9544 54.1249 54.2109 53.0617C54.1001 52.9019 53.8188 52.7655 53.625 52.7741C51.5647 52.8635 49.5044 53.0915 47.4441 53.0745C44.1566 53.0489 40.8691 52.8635 37.5816 52.7655C37.4112 52.7613 37.1726 52.8742 37.0724 53.0106C36.642 53.5986 36.2202 54.1973 35.8537 54.8258C34.9546 56.3705 33.8744 57.7234 32.2338 58.5458C32.1145 58.6055 31.9739 58.7717 31.9697 58.8931C31.9462 59.6644 31.9569 60.4357 31.9569 61.2666C32.775 60.9406 33.5292 60.6785 34.2473 60.3377C34.5818 60.18 34.9184 59.9243 35.1272 59.626C36.103 58.2262 37.0362 56.7966 37.9758 55.3712C38.2229 54.9963 38.5361 54.7512 38.9963 54.8791C39.4757 55.0112 39.644 55.3755 39.644 55.8592C39.6376 59.168 39.644 62.4768 39.6398 65.7877C39.6398 66.4141 39.3031 66.7997 38.7875 66.7997C38.2719 66.7997 37.9353 66.4162 37.9353 65.7898C37.931 63.672 37.9353 61.5563 37.9353 59.4385C37.9353 59.1957 37.9353 58.9528 37.9353 58.7099L37.9374 58.7056ZM30.2226 59.1147C29.2361 59.1147 28.2795 59.0934 27.325 59.1339C27.1566 59.1403 27.0011 59.4108 26.8413 59.5579C27.016 59.6942 27.1971 59.9541 27.3612 59.9435C28.0515 59.8987 28.3924 60.2503 28.6545 60.8277C29.0401 61.6735 29.2425 61.7545 30.2226 61.6245V59.1126V59.1147ZM61.0245 61.6245C61.9428 61.7524 62.2027 61.6693 62.4925 61.0173C62.7908 60.3504 63.1402 59.8434 63.9903 59.9435C64.1117 59.9584 64.3695 59.7006 64.3759 59.56C64.3844 59.4194 64.1586 59.1445 64.0286 59.1403C63.0273 59.104 62.0216 59.1211 61.0224 59.1211V61.6245H61.0245Z" fill="white"/>
<path d="M43.0145 48.01C43.1402 47.5775 43.0294 47.3325 42.6544 47.2004C42.4903 47.1428 42.3199 47.0448 42.207 46.917C41.6658 46.3076 40.9776 46.2586 40.2255 46.2906C39.2305 46.3332 38.2334 46.3076 37.2384 46.2991C36.4565 46.2927 36.1114 45.841 36.301 45.0762C36.7718 43.1629 37.2981 41.2603 37.7072 39.3321C37.8968 38.4415 37.8691 37.5041 37.9351 36.5879C38.0033 35.6334 37.9458 34.6533 38.1546 33.7308C38.7448 31.1272 41.082 29.2736 43.7495 29.2331C45.275 29.2097 46.8197 29.1607 48.3282 29.3418C51.0468 29.6677 53.3457 32.1201 53.2541 34.8664C53.1497 37.9898 53.8933 40.9173 54.6539 43.8724C54.7604 44.2857 54.8648 44.6991 54.9607 45.1145C55.129 45.8368 54.7753 46.2927 54.0211 46.2991C52.7939 46.3098 51.5667 46.2821 50.3394 46.3162C50.0348 46.3247 49.7194 46.4866 49.4382 46.6315C49.142 46.787 48.897 47.0448 48.5987 47.1918C48.2642 47.358 48.0874 47.554 48.2408 48.01C49.0142 48.01 49.8238 48.0079 50.6335 48.01C51.5901 48.0142 52.4487 48.3147 53.2136 48.8835C53.7548 49.2862 53.8741 49.7699 53.5502 50.2045C53.2243 50.6455 52.796 50.605 52.1867 50.2748C51.6881 50.0064 51.115 49.8253 50.5546 49.7358C49.9815 49.6463 49.3828 49.7166 48.7969 49.7166C48.1151 49.7166 47.4908 49.7102 46.8644 50.2002C46.0463 50.8415 44.8702 50.6519 44.0308 50.0191C43.8134 49.8551 43.5045 49.7443 43.2318 49.7315C42.4158 49.6953 41.5955 49.7272 40.7774 49.7145C40.1105 49.7038 39.5224 49.8892 38.9919 50.2982C38.4827 50.6903 37.9948 50.6626 37.6752 50.2535C37.3514 49.8402 37.4664 49.3288 37.9842 48.9261C38.7363 48.3381 39.5949 48.0292 40.5494 48.0142C41.3654 48.0015 42.1814 48.0121 43.0123 48.0121L43.0145 48.01ZM45.6244 36.051C43.9711 36.051 42.3178 36.0467 40.6644 36.051C39.9635 36.0531 39.6567 36.3621 39.6481 37.0566C39.6418 37.5722 39.6396 38.0878 39.6524 38.6034C39.6631 39.0509 39.9102 39.4258 40.3342 39.428C41.9492 39.4365 43.7282 39.9585 44.8532 38.1773C44.8809 38.1326 44.9256 38.1006 44.9661 38.0644C45.4199 37.6532 45.8354 37.6447 46.2849 38.0644C46.6493 38.4032 46.971 38.7888 47.3524 39.1084C47.5569 39.2788 47.8381 39.4365 48.0938 39.4493C48.9631 39.4898 49.8366 39.477 50.7059 39.4599C51.2684 39.4493 51.5858 39.119 51.6029 38.5502C51.6178 38.0708 51.6114 37.5893 51.6071 37.1099C51.6007 36.3471 51.3046 36.051 50.5355 36.0489C48.8992 36.0446 47.265 36.0489 45.6287 36.0489L45.6244 36.051ZM51.4836 34.387C51.1768 32.4631 49.4425 30.9695 47.444 30.9312C46.2359 30.9077 45.0258 30.912 43.8177 30.9312C42.7844 30.9461 41.8725 31.3168 41.0991 32.0029C40.3789 32.642 39.9145 33.4325 39.7483 34.387H51.4836ZM45.6181 39.705C44.5677 41.4627 42.9122 41.1687 41.3761 41.1751C41.2163 43.1629 41.8022 44.7417 43.5173 45.7239C45.0385 46.5953 46.5939 46.5228 48.0405 45.5321C49.549 44.4988 50.0326 42.9903 49.8622 41.1559C48.2941 41.2198 46.6919 41.4116 45.6159 39.7071L45.6181 39.705ZM53.0645 44.567C52.747 43.2993 52.4359 42.0593 52.1249 40.8214C52.0737 40.8065 52.0205 40.7916 51.9693 40.7766C51.8479 40.9386 51.6199 41.1005 51.6221 41.2603C51.6391 42.3874 51.5347 43.4889 51.0361 44.567H53.0645ZM38.193 44.5563H40.2064C39.7525 43.5379 39.5842 42.5109 39.6524 41.4542C39.678 41.0579 39.531 40.8725 39.1155 40.8469C38.8087 42.0806 38.5061 43.2971 38.193 44.5563ZM44.7914 47.9908C44.8937 48.581 45.1834 48.8644 45.6351 48.858C46.0932 48.8516 46.3787 48.5554 46.4469 47.9908H44.7893H44.7914Z" fill="white"/>
<path d="M61.1258 37.7606C61.2323 37.13 61.3325 36.5547 61.4283 35.9773C61.7501 34.0321 63.3459 32.6408 65.2655 32.6387C67.1873 32.6365 68.7874 34.0214 69.1112 35.9667C69.2071 36.544 69.3051 37.1193 69.4138 37.7606C69.744 37.7606 70.0572 37.7478 70.3704 37.7627C70.9052 37.7904 71.2397 38.1036 71.2418 38.6405C71.2546 40.4004 71.2781 42.1603 71.2312 43.9201C71.1971 45.2113 70.0935 46.2723 68.7938 46.2894C66.448 46.3192 64.1001 46.3171 61.7543 46.2894C60.4121 46.2723 59.3212 45.1665 59.2999 43.8243C59.2722 42.1177 59.285 40.4111 59.2956 38.7045C59.2999 38.0823 59.6301 37.7777 60.2672 37.7606C60.5335 37.7542 60.7977 37.7606 61.1258 37.7606ZM61.0044 41.2058C61.0044 42.0687 60.9788 42.9337 61.015 43.7944C61.0342 44.2866 61.3644 44.5806 61.8566 44.5849C64.1321 44.5977 66.4075 44.5955 68.6851 44.5849C69.1539 44.5828 69.4948 44.3079 69.5182 43.8456C69.5629 42.9678 69.531 42.0857 69.531 41.0247C68.438 42.6226 67.1937 43.7241 65.2954 43.7348C63.3736 43.7454 62.1144 42.6354 61.0044 41.2058ZM67.6539 37.7372C67.5943 37.326 67.5495 36.9425 67.4813 36.5611C67.4323 36.282 67.3833 35.9986 67.2875 35.7344C66.9871 34.9141 66.1902 34.3645 65.3209 34.3453C64.424 34.3261 63.5547 34.8481 63.2777 35.6918C63.0668 36.3374 62.9922 37.0298 62.8494 37.7372H67.6539ZM68.6894 39.5183H61.9631C62.4255 40.0915 62.8175 40.6199 63.2521 41.112C64.1257 42.1028 65.5702 42.3904 66.6206 41.6276C67.3706 41.0822 67.9458 40.2939 68.6915 39.5183H68.6894Z" fill="white"/>
<path d="M25.9698 46.3629C24.1993 46.3437 22.4948 46.039 20.8436 45.4297C19.9552 45.1016 19.8082 44.652 20.2684 43.8381C20.8458 42.8197 21.4573 41.8141 21.9366 40.7509C22.5801 39.3277 22.6823 37.7787 22.5311 36.2511C22.4544 35.4756 22.0623 34.732 21.8258 33.9692C21.7641 33.7711 21.6575 33.4941 21.7428 33.3599C21.9132 33.085 22.1625 32.7697 22.448 32.6738C22.8592 32.5353 23.2086 32.7995 23.362 33.215C23.5942 33.8478 23.7732 34.5019 24.0246 35.1261C24.1141 35.3477 24.3101 35.58 24.5168 35.6907C25.2518 36.0785 26.0402 36.1467 26.8476 35.9336C27.4591 35.7717 27.9428 35.5011 28.0813 34.7895C28.1771 34.2888 28.3838 33.8052 28.5564 33.3215C28.7524 32.774 29.2041 32.5247 29.6685 32.6909C30.1458 32.8613 30.3375 33.3066 30.1671 33.867C30.0797 34.1567 29.9945 34.4465 29.8859 34.7277C28.9292 37.2333 29.3852 39.6132 30.5442 41.9185C30.8958 42.6152 31.3453 43.2607 31.7416 43.934C32.1464 44.6222 31.976 45.1122 31.2239 45.3998C29.5279 46.0454 27.7702 46.3565 25.9698 46.3714V46.3629ZM24.2782 37.4485C24.2505 39.8816 23.4941 42.042 22.1284 44.0597C24.7362 44.848 27.2482 44.848 29.839 44.0554C28.452 42.0335 27.7191 39.8688 27.6786 37.4527C26.5153 37.849 25.4159 37.849 24.2803 37.4506L24.2782 37.4485Z" fill="white"/>
<path d="M53.3123 26.2486C53.3123 26.9794 53.3187 27.6015 53.3123 28.2215C53.3038 28.8394 52.9565 29.225 52.4388 29.2122C51.9424 29.1995 51.6142 28.8245 51.6079 28.2343C51.5993 27.2926 51.5951 26.3487 51.6121 25.407C51.6185 25.0959 51.5354 24.8914 51.2819 24.689C49.2109 23.0506 49.4964 20.3618 51.8422 19.1665C52.3323 18.9172 52.7243 18.9428 53.1653 19.2773C55.1318 20.773 57.1197 22.2431 59.0884 23.7366C59.4143 23.9838 59.7318 24.1414 60.1536 24.0988C61.7473 23.9369 62.8062 24.6336 63.4049 26.1101C63.6521 26.7173 63.9972 27.2841 64.2763 27.8785C64.6236 28.6199 64.2572 29.2101 63.4348 29.2165C61.5321 29.2272 59.6274 29.2314 57.7248 29.2059C57.4478 29.2016 57.1346 29.0716 56.9045 28.9054C55.8648 28.1597 54.8485 27.3778 53.8237 26.6108C53.6852 26.5064 53.5403 26.4105 53.3123 26.2507V26.2486ZM62.1266 27.5078C61.5236 25.8438 61.4618 25.799 59.8319 25.799C59.8149 25.799 59.7957 25.799 59.7787 25.799C59.2545 25.8608 58.8284 25.6819 58.4066 25.358C56.5146 23.9092 54.5949 22.4988 52.6987 21.0542C52.3962 20.8241 52.2087 20.8689 51.9807 21.1203C51.3991 21.7616 51.4821 22.699 52.2321 23.27C54.0282 24.6379 55.8413 25.9844 57.6523 27.3331C57.7716 27.4225 57.9357 27.4971 58.0806 27.4971C59.4143 27.5099 60.746 27.5035 62.1244 27.5035L62.1266 27.5078Z" fill="white"/>
<path d="M40.3195 25.6171C40.6944 25.3316 40.7477 24.995 40.6177 24.603C40.3258 23.7273 40.034 22.8495 39.7485 21.9717C39.546 21.3496 39.7442 20.8744 40.2598 20.7146C40.737 20.5676 41.1589 20.8404 41.3656 21.4433C41.6639 22.3168 41.96 23.1925 42.2391 24.0725C42.6951 25.5127 42.0708 26.8039 40.6838 27.3663C40.5112 27.4367 40.3365 27.5943 40.247 27.7584C39.7548 28.6617 39.0134 29.188 37.9843 29.2072C36.9553 29.2263 36.1712 28.7427 35.6897 27.8329C35.5491 27.5645 35.3893 27.4793 35.1123 27.5048C34.9355 27.5219 34.7544 27.524 34.5796 27.5048C33.9341 27.4388 33.5037 27.5901 33.0776 28.2101C32.0421 29.7121 29.7858 29.5033 28.891 27.899C28.7269 27.605 28.5522 27.4175 28.2262 27.2896C26.9884 26.806 26.3684 25.485 26.7625 24.1811C27.0501 23.2287 27.3761 22.2892 27.7021 21.3496C27.8917 20.802 28.3541 20.5591 28.8185 20.7274C29.2937 20.9 29.4875 21.3453 29.3086 21.9078C29.0209 22.8048 28.7163 23.6953 28.4286 24.5902C28.2731 25.0717 28.3136 25.1931 28.7205 25.6129C28.81 25.4808 28.8952 25.3551 28.9805 25.2294C30.0756 23.6378 32.3937 23.7316 33.3226 25.4232C33.4845 25.7194 33.6486 25.8494 33.9746 25.8025C34.096 25.7833 34.2238 25.7897 34.3474 25.8025C35.0356 25.8664 35.5256 25.7578 35.9986 25.0696C36.9531 23.6783 39.0262 23.7976 40.0169 25.174C40.117 25.3146 40.2129 25.4595 40.3195 25.615V25.6171ZM38.7876 26.6547C38.7876 26.1945 38.4083 25.811 37.9481 25.8068C37.4666 25.8004 37.0703 26.2052 37.0852 26.6846C37.1001 27.1426 37.4922 27.5155 37.9502 27.507C38.4104 27.4984 38.7876 27.1128 38.7854 26.6547H38.7876ZM31.9548 26.6611C31.9569 26.2009 31.5798 25.8153 31.1217 25.8068C30.6402 25.7982 30.2418 26.1988 30.2545 26.6803C30.2673 27.1405 30.6551 27.5134 31.1132 27.5091C31.5734 27.5027 31.9526 27.1213 31.9548 26.6611Z" fill="white"/>
<path d="M68.6831 60.0025C68.6682 62.6316 66.6229 64.8453 64.0001 65.0754C63.9106 65.0839 63.8233 65.0839 63.7338 65.0861C63.1159 65.0946 62.7196 64.7686 62.7111 64.2487C62.7026 63.7459 63.0541 63.4157 63.6549 63.3837C64.6052 63.3326 65.4276 62.9917 66.0625 62.2822C66.9957 61.234 67.2471 60.0153 66.7273 58.7113C66.2095 57.4095 65.1932 56.7043 63.7977 56.5573C63.7274 56.5509 63.6549 56.5552 63.5846 56.5488C63.0435 56.4998 62.694 56.1461 62.7132 55.6646C62.7324 55.181 63.1052 54.8273 63.6464 54.8507C65.662 54.9317 67.1938 55.8585 68.1057 57.6503C68.4658 58.3598 68.5894 59.1886 68.8216 59.962C68.7769 59.9748 68.73 59.9897 68.6853 60.0025H68.6831Z" fill="white"/>
<path d="M27.4923 65.087C24.9761 65.038 22.8007 62.9649 22.5792 60.4082C22.3555 57.8366 24.1728 55.4098 26.6742 54.9517C26.9874 54.8942 27.3091 54.8537 27.6265 54.8516C28.1634 54.8473 28.5342 55.2031 28.5384 55.6889C28.5427 56.1534 28.2082 56.4879 27.6968 56.5518C27.3453 56.5944 26.9852 56.62 26.6507 56.7244C25.0975 57.2059 24.0983 58.7634 24.29 60.3549C24.4882 61.9933 25.8113 63.2653 27.4561 63.374C27.8907 63.4017 28.2721 63.4677 28.466 63.913C28.7366 64.5351 28.2657 65.104 27.4944 65.0891L27.4923 65.087Z" fill="white"/>
<path d="M45.5275 45.444C44.6965 45.3737 43.904 45.0221 43.2968 44.3105C42.9644 43.9206 43.007 43.4391 43.3649 43.1195C43.7207 42.7999 44.1831 42.8255 44.5559 43.1855C45.3379 43.9398 45.9025 43.9398 46.6993 43.1834C47.0743 42.8276 47.5388 42.8042 47.8924 43.1259C48.2461 43.4476 48.2695 43.9142 47.9542 44.3233C47.477 44.939 46.4245 45.4461 45.5275 45.4461V45.444Z" fill="white"/>
</svg>
