<svg width="84" height="89" viewBox="0 0 84 89" fill="none" xmlns="http://www.w3.org/2000/svg">
<g clip-path="url(#clip0_1502_10345)">
<path d="M23.6151 46.5706C18.1135 46.5706 12.5986 46.5706 7.08367 46.5706C6.53859 46.6079 5.99183 46.5283 5.48005 46.337C4.96828 46.1457 4.50331 45.8472 4.11635 45.4615C3.72939 45.0758 3.42936 44.6118 3.2364 44.1007C3.04344 43.5895 2.962 43.043 2.99754 42.4978V12.0121C2.95169 11.4603 3.02593 10.9052 3.21517 10.3849C3.4044 9.86455 3.70413 9.3914 4.09372 8.998C4.48331 8.6046 4.95352 8.30029 5.47198 8.106C5.99044 7.91172 6.54484 7.83208 7.09702 7.87256H40.2267C40.7594 7.84784 41.2913 7.93453 41.7885 8.12711C42.2858 8.31968 42.7373 8.61389 43.1144 8.99093C43.4914 9.36797 43.7856 9.81954 43.9782 10.3168C44.1708 10.814 44.2575 11.3459 44.2327 11.8786V42.5379C44.2575 43.0705 44.1708 43.6025 43.9782 44.0997C43.7856 44.5969 43.4914 45.0485 43.1144 45.4255C42.7373 45.8026 42.2858 46.0968 41.7885 46.2894C41.2913 46.4819 40.7594 46.5686 40.2267 46.5439C34.6984 46.584 29.1568 46.5706 23.6151 46.5706ZM23.6151 44.0068H39.9062C41.2416 44.0068 41.7089 43.5661 41.7089 42.2308V12.2258C41.7089 10.8904 41.2683 10.4498 39.9062 10.4498H7.40415C6.06881 10.4498 5.57474 10.8637 5.57474 12.2658V42.1774C5.57474 43.5795 6.00205 44.0068 7.40415 44.0068H23.6151Z" fill="white"/>
<path d="M82.9968 25.9796V46.1299C82.9968 47.4652 82.6095 47.8658 81.2875 47.8658H51.149C49.8137 47.8658 49.4531 47.4785 49.4531 46.1966V5.65582C49.4531 4.41395 49.8537 4 51.0689 4H81.381C82.5828 4 82.9968 4.42731 82.9968 5.66917V25.9796ZM80.4463 6.67067H52.0837V45.2485H80.4463V6.67067Z" fill="white"/>
<path d="M62.243 84.0002H45.7917C45.247 84.0335 44.7015 83.9506 44.1913 83.7568C43.6812 83.5631 43.2181 83.263 42.8329 82.8765C42.4477 82.49 42.1491 82.026 41.957 81.5152C41.765 81.0044 41.6838 80.4586 41.7189 79.914V55.8112C41.693 55.2702 41.7821 54.7299 41.9802 54.2259C42.1784 53.7218 42.4811 53.2655 42.8684 52.887C43.2558 52.5085 43.719 52.2164 44.2275 52.0299C44.7359 51.8434 45.2782 51.7668 45.8184 51.8052H78.868C79.4211 51.7609 79.9772 51.8372 80.4979 52.0289C81.0187 52.2206 81.4915 52.5231 81.8839 52.9155C82.2763 53.3078 82.5788 53.7807 82.7704 54.3014C82.9621 54.8221 83.0385 55.3783 82.9942 55.9314V79.9675C83.0344 80.5202 82.9547 81.0751 82.7605 81.5941C82.5663 82.1132 82.2622 82.5841 81.8691 82.9747C81.4759 83.3653 81.003 83.6663 80.4827 83.8571C79.9625 84.048 79.4071 84.1241 78.8546 84.0803L62.243 84.0002ZM62.3766 54.3156H46.1656C44.6967 54.3156 44.2828 54.7296 44.2828 56.1718V79.5669C44.2828 81.009 44.6967 81.423 46.1522 81.423H78.5742C79.9897 81.423 80.417 80.9957 80.417 79.6069V56.145C80.417 54.8097 79.9897 54.3156 78.5875 54.3156H62.3766Z" fill="white"/>
<path d="M6.86775 78.2449C6.86775 76.9096 6.86775 75.5742 6.86775 74.2389C6.84578 73.7799 6.67731 73.3399 6.38703 72.9837C5.19641 71.7549 4.28189 70.286 3.70463 68.6754C3.12738 67.0647 2.9007 65.3493 3.03976 63.644C3.17881 61.9387 3.6804 60.2827 4.51097 58.7868C5.34153 57.2909 6.48194 55.9897 7.8559 54.97C10.0117 53.2235 12.5 51.9335 15.1696 51.1783C17.8393 50.4231 20.6347 50.2184 23.3859 50.5767C27.3774 50.8667 31.1781 52.3982 34.2555 54.9566C35.7711 56.0736 37.0031 57.5311 37.8521 59.2115C38.7012 60.892 39.1435 62.7484 39.1435 64.6311C39.1435 66.5139 38.7012 68.3703 37.8521 70.0508C37.0031 71.7312 35.7711 73.1887 34.2555 74.3057C30.8904 77.0575 26.7154 78.629 22.371 78.779C19.9812 78.9236 17.5836 78.6893 15.267 78.0847C14.9205 78.0536 14.5755 78.159 14.3056 78.3784C12.6364 80.1144 11.0073 81.7168 9.33812 83.3726C9.15295 83.6384 8.88293 83.8334 8.57237 83.9256C8.2618 84.0178 7.92912 84.0017 7.62889 83.88C6.94787 83.5862 6.8544 83.0121 6.8544 82.3444C6.8811 80.9823 6.86775 79.6069 6.86775 78.2449ZM9.44495 79.5802C10.7803 78.2449 12.1156 76.9096 13.2907 75.7211C13.4942 75.4747 13.7706 75.2993 14.0802 75.2201C14.3898 75.1409 14.7165 75.1621 15.0133 75.2805C18.0907 76.294 21.3724 76.5235 24.561 75.9481C28.1429 75.4417 31.4425 73.7212 33.9083 71.0741C35.0607 69.9307 35.8797 68.4948 36.2773 66.9208C36.6749 65.3469 36.6361 63.6943 36.165 62.1407C35.6728 60.6124 34.8676 59.2033 33.8009 58.0032C32.7341 56.8031 31.4292 55.8383 29.9691 55.1703C26.022 53.1078 21.4798 52.4846 17.1231 53.4076C13.7251 53.9563 10.6059 55.6192 8.2565 58.1347C7.22356 59.1695 6.45496 60.4378 6.01568 61.8324C5.57639 63.2269 5.47934 64.7068 5.73271 66.1468C6.10362 68.2559 7.16525 70.1819 8.75057 71.6216C8.98758 71.8365 9.17399 72.1012 9.29637 72.3968C9.41875 72.6923 9.47405 73.0114 9.4583 73.3309C9.41824 75.3339 9.44495 77.3502 9.44495 79.5802Z" fill="white"/>
<path d="M27.5549 33.1241L31.4808 29.1181C32.3889 28.2101 32.9631 28.2101 33.8711 29.1181L38.5581 33.7918C39.2658 34.5129 39.3326 35.2607 38.7451 35.8349C38.1575 36.4091 37.4097 36.3423 36.702 35.6346C35.3667 34.2992 34.0313 32.9639 32.696 31.6285L28.7834 35.5544C27.8087 36.5292 27.2612 36.5159 26.273 35.5544L18.261 27.5424C18.1522 27.837 18.004 28.1156 17.8203 28.3703C15.4434 30.8273 13.0131 33.231 10.6095 35.6613C10.4294 35.9144 10.171 36.1012 9.87414 36.1929C9.57732 36.2846 9.25857 36.2761 8.96706 36.1687C8.76059 36.0758 8.58113 35.9319 8.44556 35.7506C8.30998 35.5692 8.22274 35.3564 8.19203 35.1321C8.16132 34.9078 8.18815 34.6793 8.27 34.4682C8.35185 34.2571 8.48603 34.0703 8.65993 33.9253C10.1822 32.3763 11.7312 30.8407 13.2668 29.3718L17.2728 25.3658C18.1408 24.4979 18.7417 24.4979 19.623 25.3658L26.8606 32.6033L27.5549 33.1241Z" fill="white"/>
<path d="M28.8487 14.3219C29.8713 14.3299 30.8686 14.6411 31.7142 15.2161C32.5599 15.7912 33.2159 16.6042 33.5993 17.5522C33.9826 18.5003 34.0761 19.5408 33.8678 20.542C33.6596 21.5432 33.1589 22.4601 32.4293 23.1766C31.6997 23.8931 30.7738 24.3771 29.769 24.5672C28.7642 24.7573 27.7256 24.645 26.7846 24.2445C25.8437 23.8441 25.0427 23.1734 24.4831 22.3175C23.9235 21.4616 23.6304 20.4588 23.6409 19.4363C23.6426 18.7572 23.7791 18.0853 24.0426 17.4594C24.3061 16.8336 24.6912 16.2663 25.1757 15.7905C25.6602 15.3147 26.2344 14.9399 26.8649 14.6878C27.4954 14.4357 28.1697 14.3113 28.8487 14.3219ZM28.8487 16.8991C28.3396 16.8991 27.8418 17.0499 27.4183 17.3325C26.9948 17.6151 26.6644 18.0169 26.469 18.487C26.2735 18.9571 26.2217 19.4747 26.3201 19.9742C26.4185 20.4738 26.6626 20.933 27.0217 21.294C27.3808 21.6549 27.8387 21.9014 28.3378 22.0024C28.8368 22.1033 29.3546 22.0542 29.8257 21.8611C30.2969 21.6681 30.7003 21.3399 30.9851 20.9178C31.2699 20.4958 31.4233 19.9988 31.4259 19.4897C31.4055 18.8045 31.1224 18.1534 30.6352 17.6712C30.148 17.1889 29.494 16.9125 28.8087 16.8991H28.8487Z" fill="white"/>
<path d="M66.2153 22.0674H75.0018C76.03 22.0674 76.5642 22.5348 76.5374 23.4027C76.5107 24.2707 76.0033 24.6579 75.0152 24.6579H57.4421C56.4139 24.6579 55.8931 24.1906 55.9065 23.3226C55.9199 22.4546 56.4406 22.0674 57.4421 22.0674H66.2153Z" fill="white"/>
<path d="M66.3096 33.6845C69.2607 33.6845 72.2252 33.6845 75.1763 33.6845C75.3993 33.6524 75.6268 33.6822 75.834 33.7707C76.0412 33.8593 76.2201 34.0031 76.3511 34.1864C76.482 34.3698 76.5601 34.5856 76.5766 34.8103C76.5931 35.035 76.5475 35.26 76.4448 35.4605C76.3164 35.6655 76.1447 35.8399 75.9417 35.9714C75.7387 36.1029 75.5093 36.1883 75.2697 36.2216C69.2607 36.2216 63.2473 36.2216 57.2293 36.2216C57.0287 36.2731 56.8189 36.2771 56.6164 36.2335C56.4139 36.1898 56.2244 36.0997 56.0628 35.9701C55.9012 35.8406 55.7719 35.6753 55.6852 35.4872C55.5985 35.2991 55.5567 35.0934 55.5632 34.8864C55.5696 34.6794 55.6242 34.4767 55.7224 34.2944C55.8207 34.1121 55.9601 33.9552 56.1295 33.836C56.2989 33.7168 56.4937 33.6387 56.6985 33.6077C56.9032 33.5768 57.1124 33.594 57.3095 33.6578C60.3006 33.6712 63.3051 33.6845 66.3096 33.6845Z" fill="white"/>
<path d="M63.7316 10.4499H69.8474C70.8756 10.4499 71.3964 10.9172 71.383 11.7852C71.3697 12.6532 70.8489 13.0271 69.8474 13.0271H57.4421C56.4139 13.0271 55.8931 12.5597 55.9065 11.6917C55.9199 10.8238 56.4406 10.4365 57.4421 10.4365L63.7316 10.4499Z" fill="white"/>
<path d="M61.756 31.0945H57.3494C56.428 31.0945 55.9339 30.6404 55.9072 29.8392C55.8805 29.038 56.4146 28.5039 57.3761 28.5039H66.0691C66.9905 28.5039 67.4979 28.9579 67.5113 29.7591C67.5246 30.5603 67.0039 31.0945 66.0558 31.0945H61.756Z" fill="white"/>
<path d="M70.6742 19.4763H66.4011C65.4396 19.4763 64.9322 18.9956 64.9456 18.141C64.9589 17.2863 65.4664 16.8857 66.3744 16.8857H75.1075C76.0689 16.8857 76.5763 17.3531 76.563 18.2211C76.5496 19.089 76.0422 19.4763 75.1342 19.4763H70.6742Z" fill="white"/>
<path d="M60.4173 38.8387C61.4589 38.8387 62.5138 38.8387 63.5554 38.8387C63.7534 38.7849 63.9612 38.7775 64.1626 38.817C64.364 38.8565 64.5535 38.9418 64.7166 39.0665C64.8796 39.1911 65.0117 39.3517 65.1027 39.5357C65.1936 39.7196 65.2409 39.9221 65.2409 40.1273C65.2409 40.3326 65.1936 40.535 65.1027 40.719C65.0117 40.903 64.8796 41.0635 64.7166 41.1882C64.5535 41.3128 64.364 41.3982 64.1626 41.4377C63.9612 41.4772 63.7534 41.4697 63.5554 41.4159H57.2793C57.0812 41.4697 56.8735 41.4772 56.6721 41.4377C56.4707 41.3982 56.2811 41.3128 56.1181 41.1882C55.955 41.0635 55.8229 40.903 55.732 40.719C55.6411 40.535 55.5938 40.3326 55.5938 40.1273C55.5938 39.9221 55.6411 39.7196 55.732 39.5357C55.8229 39.3517 55.955 39.1911 56.1181 39.0665C56.2811 38.9418 56.4707 38.8565 56.6721 38.817C56.8735 38.7775 57.0812 38.7849 57.2793 38.8387C58.3208 38.8254 59.3624 38.8387 60.4173 38.8387Z" fill="white"/>
<path d="M58.5723 16.8991C58.9729 16.8991 59.3868 16.8991 59.7874 16.8991C59.9864 16.8411 60.1962 16.8302 60.4002 16.8672C60.6042 16.9043 60.7967 16.9884 60.9625 17.1128C61.1284 17.2372 61.263 17.3984 61.3557 17.5839C61.4484 17.7693 61.4967 17.9737 61.4967 18.181C61.4967 18.3883 61.4484 18.5928 61.3557 18.7782C61.263 18.9636 61.1284 19.1249 60.9625 19.2493C60.7967 19.3737 60.6042 19.4578 60.4002 19.4948C60.1962 19.5319 59.9864 19.521 59.7874 19.463H57.1702C56.9712 19.521 56.7614 19.5319 56.5574 19.4948C56.3534 19.4578 56.1609 19.3737 55.9951 19.2493C55.8292 19.1249 55.6946 18.9636 55.6019 18.7782C55.5092 18.5928 55.4609 18.3883 55.4609 18.181C55.4609 17.9737 55.5092 17.7693 55.6019 17.5839C55.6946 17.3984 55.8292 17.2372 55.9951 17.1128C56.1609 16.9884 56.3534 16.9043 56.5574 16.8672C56.7614 16.8302 56.9712 16.8411 57.1702 16.8991C57.6642 16.8858 58.1183 16.8991 58.5723 16.8991Z" fill="white"/>
<path d="M73.9855 31.094C73.5315 31.094 73.0642 31.094 72.6502 31.094C72.3781 31.0095 72.1401 30.8401 71.9711 30.6107C71.8021 30.3812 71.7109 30.1037 71.7109 29.8188C71.7109 29.5338 71.8021 29.2563 71.9711 29.0268C72.1401 28.7974 72.3781 28.628 72.6502 28.5435C73.5582 28.5435 74.4663 28.5435 75.3209 28.5435C75.4923 28.5383 75.6629 28.5703 75.8208 28.6373C75.9787 28.7043 76.1203 28.8047 76.2358 28.9315C76.3512 29.0584 76.4378 29.2088 76.4897 29.3723C76.5415 29.5358 76.5573 29.7086 76.536 29.8788C76.5424 30.0529 76.5117 30.2263 76.4459 30.3876C76.3801 30.5489 76.2808 30.6943 76.1545 30.8143C76.0282 30.9343 75.8779 31.026 75.7134 31.0834C75.549 31.1409 75.3742 31.1627 75.2007 31.1474C74.8402 31.1074 74.4129 31.094 73.9855 31.094Z" fill="white"/>
<path d="M55.9044 64.6245C55.9044 63.0087 55.9044 61.393 55.9044 59.7906C55.8843 59.2907 55.9989 58.7946 56.2363 58.3542C56.4737 57.9139 56.8251 57.5454 57.2537 57.2874C57.6824 57.0294 58.1724 56.8914 58.6727 56.8878C59.173 56.8841 59.665 57.015 60.0973 57.2668C62.9817 58.8692 65.8437 60.5205 68.6835 62.2209C69.1184 62.4572 69.4814 62.8064 69.7344 63.2318C69.9874 63.6572 70.1209 64.1429 70.1209 64.6378C70.1209 65.1327 69.9874 65.6185 69.7344 66.0439C69.4814 66.4692 69.1184 66.8185 68.6835 67.0548C65.8526 68.7507 62.9817 70.4065 60.0973 72.0089C59.661 72.2636 59.1638 72.3951 58.6586 72.3894C58.1534 72.3837 57.6592 72.2409 57.2288 71.9764C56.7984 71.7118 56.4479 71.3354 56.2146 70.8872C55.9814 70.4391 55.8741 69.936 55.9044 69.4317C55.891 67.8426 55.9044 66.2402 55.9044 64.6245ZM67.7087 64.6245L58.575 59.3632V69.8857L67.7087 64.6245Z" fill="white"/>
<path d="M70.0169 74.973C70.2172 74.2119 70.5911 73.6377 71.4457 73.6377C72.3004 73.6377 72.5674 74.1718 72.7811 74.973H75.2648C75.4638 74.915 75.6736 74.9041 75.8776 74.9412C76.0815 74.9782 76.2741 75.0623 76.4399 75.1867C76.6058 75.3111 76.7404 75.4724 76.8331 75.6578C76.9258 75.8432 76.974 76.0476 76.974 76.255C76.974 76.4623 76.9258 76.6667 76.8331 76.8521C76.7404 77.0376 76.6058 77.1988 76.4399 77.3232C76.2741 77.4476 76.0815 77.5317 75.8776 77.5687C75.6736 77.6058 75.4638 77.5949 75.2648 77.5369H72.7677C72.5407 78.2446 72.2069 78.8722 71.3523 78.8722C70.4977 78.8722 70.2039 78.298 70.0169 77.5369H49.613C49.382 77.5566 49.1499 77.5159 48.9395 77.4187C48.729 77.3215 48.5475 77.1712 48.4128 76.9825C48.2781 76.7939 48.1947 76.5735 48.1711 76.3429C48.1474 76.1123 48.1841 75.8795 48.2777 75.6674C48.5848 75.0264 49.1456 74.9597 49.7732 74.9597H70.0169V74.973Z" fill="white"/>
<path d="M13.9573 64.6241C13.9705 65.0085 13.8689 65.3881 13.6656 65.7145C13.4622 66.041 13.1662 66.2995 12.8154 66.457C12.4645 66.6146 12.0747 66.6641 11.6956 66.5992C11.3165 66.5343 10.9653 66.358 10.6868 66.0928C10.4083 65.8276 10.2151 65.4854 10.1319 65.1099C10.0486 64.7344 10.079 64.3427 10.2193 63.9846C10.3596 63.6264 10.6033 63.3182 10.9194 63.0992C11.2356 62.8801 11.6098 62.7602 11.9943 62.7547C12.2462 62.7476 12.497 62.7904 12.7323 62.8807C12.9675 62.9709 13.1826 63.1069 13.3651 63.2807C13.5475 63.4545 13.6938 63.6626 13.7954 63.8932C13.8971 64.1238 13.9521 64.3722 13.9573 64.6241Z" fill="white"/>
<path d="M23.028 64.6379C23.0385 65.0212 22.9349 65.399 22.7304 65.7234C22.5259 66.0478 22.2297 66.3042 21.8793 66.46C21.529 66.6159 21.1402 66.6642 20.7623 66.5988C20.3845 66.5334 20.0346 66.3573 19.7569 66.0928C19.4793 65.8283 19.2864 65.4873 19.2028 65.113C19.1192 64.7388 19.1486 64.3481 19.2873 63.9906C19.426 63.6331 19.6677 63.3248 19.9818 63.1049C20.296 62.8849 20.6683 62.7632 21.0517 62.7551C21.3058 62.7462 21.5591 62.7881 21.7968 62.8784C22.0345 62.9687 22.2517 63.1055 22.4358 63.2809C22.6199 63.4563 22.7671 63.6666 22.8688 63.8997C22.9705 64.1327 23.0246 64.3837 23.028 64.6379Z" fill="white"/>
<path d="M30.1083 62.7543C30.4924 62.7544 30.8678 62.8686 31.1867 63.0826C31.5057 63.2966 31.7538 63.6005 31.8996 63.9559C32.0453 64.3113 32.082 64.7019 32.0051 65.0782C31.9282 65.4545 31.7412 65.7995 31.4677 66.0692C31.1942 66.3389 30.8467 66.5211 30.4694 66.5928C30.0921 66.6645 29.7019 66.6223 29.3486 66.4716C28.9953 66.321 28.6948 66.0687 28.4853 65.7468C28.2758 65.4248 28.1668 65.0479 28.1721 64.6639C28.1702 64.4103 28.2192 64.159 28.3162 63.9247C28.4132 63.6905 28.5562 63.478 28.7367 63.3C28.9173 63.122 29.1316 62.982 29.3672 62.8882C29.6028 62.7945 29.8548 62.749 30.1083 62.7543Z" fill="white"/>
</g>
<path d="M53.2948 68.6027C52.9352 68.6154 52.5853 68.4838 52.3222 68.2371C52.059 67.9904 51.904 67.6486 51.8915 67.287C51.8789 66.9254 52.0097 66.5736 52.255 66.3089C52.5004 66.0443 52.8403 65.8885 53.1999 65.8758C53.378 65.8696 53.5555 65.8986 53.7224 65.9614C53.8893 66.0241 54.0423 66.1193 54.1726 66.2414C54.3029 66.3636 54.408 66.5104 54.4819 66.6734C54.5558 66.8364 54.5971 67.0125 54.6033 67.1915C54.6096 67.3706 54.5807 67.5491 54.5183 67.7169C54.4559 67.8848 54.3612 68.0386 54.2397 68.1696C54.1182 68.3006 53.9723 68.4063 53.8101 68.4807C53.648 68.555 53.4729 68.5964 53.2948 68.6027Z" fill="white"/>
<defs>
<clipPath id="clip0_1502_10345">
<rect width="80" height="80" fill="white" transform="translate(3 4)"/>
</clipPath>
</defs>
</svg>
