<svg width="91" height="91" viewBox="0 0 91 91" fill="none" xmlns="http://www.w3.org/2000/svg">
<path d="M90.7344 45.3698C90.7344 70.4271 70.4219 90.7344 45.3646 90.7344C20.3073 90.7344 0 70.4271 0 45.3698C0 20.3125 20.3073 0 45.3646 0C70.4219 0 90.7344 20.3125 90.7344 45.3698Z" fill="#B8B884"/>
<path d="M87.0729 45.3704C87.0729 68.4017 68.401 87.0736 45.3646 87.0736C22.3281 87.0736 3.65625 68.4017 3.65625 45.3704C3.65625 22.334 22.3281 3.66211 45.3646 3.66211C68.401 3.66211 87.0729 22.334 87.0729 45.3704Z" stroke="white" stroke-width="1.33333" stroke-miterlimit="10"/>
<path d="M51.254 67.2576C50.9066 67.034 50.7968 66.7465 50.8767 66.3212C51.1861 64.704 51.4596 63.0809 51.7471 61.4577C51.7771 61.286 51.799 61.1124 51.827 60.9347C51.2919 60.8967 50.7768 60.8907 50.2717 60.8169C47.7741 60.4515 45.8774 58.3432 45.7856 55.8296C45.7756 55.5561 45.6918 55.4064 45.4522 55.2866C45.0169 55.073 44.5937 54.8334 44.1724 54.5938C43.6913 54.3203 43.6074 54.0108 43.8909 53.5377C44.2523 52.9347 44.6256 52.3358 45.015 51.7029C44.3581 51.1498 44.2563 50.4191 44.2663 49.6245C44.2902 47.7997 44.2723 45.9729 44.2743 44.1481C44.2743 43.4893 44.4679 43.2337 45.1008 43.3116C45.9992 43.4234 46.3965 43.076 46.8158 42.2595C48.4729 39.0371 51.1881 37.3361 54.8237 37.2163C56.3211 37.1684 57.8364 37.1524 59.3218 37.3161C63.3328 37.7574 66.7348 41.2472 67.17 45.2482C67.222 45.7294 67.2479 46.2165 67.2499 46.7017C67.2579 48.9238 67.2799 51.1479 67.2459 53.3699C67.208 55.8835 66.1558 57.912 64.1474 59.4233C63.8678 59.6329 63.798 59.8246 63.8319 60.15C64.0455 62.2144 64.2312 64.2788 64.4448 66.3432C64.4848 66.7325 64.4009 67.0339 64.0735 67.2556H51.258L51.254 67.2576ZM66.0919 50.2215H59.5315C59.1841 51.6709 58.5592 52.1621 57.0758 52.1621C53.5859 52.1621 50.096 52.1621 46.6062 52.1681C46.4444 52.1681 46.2069 52.186 46.133 52.2898C45.8036 52.751 45.5221 53.2462 45.2106 53.7473C45.554 53.9389 45.8355 54.1366 46.145 54.2584C46.8098 54.5179 47.0414 54.9512 47.0334 55.6819C47.0154 57.4887 48.2513 59.0819 50.0082 59.4832C50.7988 59.6649 51.6413 59.615 52.4619 59.6569C53.0209 59.6849 53.2705 59.9684 53.1746 60.5154C53.0229 61.3839 52.8592 62.2523 52.7054 63.1208C52.5357 64.0732 52.372 65.0255 52.2023 65.9978H63.1551C63.1471 65.886 63.1411 65.7981 63.1331 65.7123C62.9415 63.7058 62.7598 61.6973 62.5502 59.6928C62.5002 59.2217 62.646 58.9322 63.0493 58.6766C64.5227 57.7463 65.5569 56.4326 65.8224 54.7076C66.046 53.2502 66.0101 51.7528 66.0919 50.2235V50.2215ZM65.9182 45.4958C65.9182 45.384 65.9282 45.2941 65.9182 45.2083C65.481 41.8961 62.616 38.9553 59.2819 38.56C57.8145 38.3863 56.3131 38.4102 54.8317 38.4541C51.7351 38.546 49.4472 40.0154 47.9338 42.7067C47.838 42.8764 47.7761 43.066 47.6783 43.2956C47.9318 43.2956 48.1075 43.2956 48.2832 43.2956C51.2999 43.2956 54.3186 43.2916 57.3353 43.2976C58.4074 43.2976 59.196 43.8826 59.4316 44.8349C59.4835 45.0446 59.4895 45.2642 59.5195 45.4978H65.9182V45.4958ZM45.5101 47.6899C45.5101 48.4785 45.5101 49.1993 45.5101 49.918C45.5121 50.6547 45.7816 50.9242 46.5263 50.9242C50.106 50.9262 53.6837 50.9262 57.2634 50.9242C57.9862 50.9242 58.2477 50.6607 58.2497 49.94C58.2537 48.4686 58.2537 46.9951 58.2497 45.5237C58.2497 44.797 57.9902 44.5335 57.2714 44.5315C55.7541 44.5275 54.2368 44.5315 52.7214 44.5315C52.6076 44.5315 52.4938 44.5474 52.416 44.5534C52.3281 45.0785 52.3561 45.6315 52.1344 46.0528C51.9068 46.49 51.4137 46.7795 51.0823 47.1708C50.7349 47.5821 50.3236 47.7059 49.8005 47.6959C48.389 47.67 46.9775 47.6859 45.5101 47.6859V47.6899ZM65.9941 46.7875H59.5115V48.9337H65.9941V46.7875ZM45.538 44.5474V46.4521C46.7559 46.4521 47.9478 46.4142 49.1337 46.4661C49.7946 46.496 50.2518 46.2884 50.707 45.8172C51.0883 45.4219 51.1542 45.0406 51.0464 44.5454H45.54L45.538 44.5474Z" fill="white"/>
<path d="M22 30.323C22.1437 29.7121 22.2496 29.0872 22.4372 28.4902C23.6231 24.6789 27.1609 22.0515 31.1519 22.0236C32.5495 22.0136 33.961 21.9417 35.3406 22.1114C38.8564 22.5447 41.3181 24.4733 42.7456 27.7056C42.8913 28.037 43.047 28.1528 43.3884 28.1209C43.6959 28.0929 44.0074 28.1089 44.3148 28.1169C44.7181 28.1269 44.9677 28.3405 44.9697 28.7398C44.9796 30.8741 45.0056 33.0103 44.9417 35.1426C44.9277 35.6257 44.5764 36.0989 44.3348 36.6878C44.6123 37.139 44.9737 37.726 45.331 38.315C45.6485 38.8381 45.5726 39.1355 45.0455 39.433C44.6103 39.6786 44.1611 39.9022 43.7378 40.1657C43.616 40.2416 43.4923 40.4193 43.4823 40.559C43.2627 43.6277 41.0845 45.692 38.0199 45.716C37.8442 45.716 37.6705 45.716 37.4149 45.716C37.5387 46.4347 37.6505 47.1075 37.7683 47.7784C37.968 48.9224 38.1756 50.0663 38.3732 51.2103C38.4731 51.7913 38.2375 52.0708 37.6425 52.0708C33.6076 52.0728 29.5747 52.0728 25.5398 52.0708C24.9748 52.0708 24.7552 51.8412 24.8071 51.2782C25.0007 49.1979 25.1944 47.1175 25.414 45.0412C25.4539 44.6638 25.3761 44.4442 25.0546 44.2066C23.3955 42.9748 22.4173 41.3137 22.0858 39.2733C22.0659 39.1475 22.028 39.0217 22 38.898C22 36.041 22 33.184 22 30.327V30.323ZM37.0296 50.815C37.0196 50.6833 37.0196 50.5934 37.0056 50.5076C36.7082 48.8285 36.4107 47.1495 36.1072 45.4724C35.9775 44.7517 36.1931 44.4841 36.9178 44.4722C37.5507 44.4622 38.1936 44.5161 38.8125 44.4183C40.8669 44.0948 42.2425 42.4258 42.2285 40.2895C42.2245 39.7644 42.3842 39.429 42.8693 39.2134C43.2667 39.0377 43.634 38.7961 44.0373 38.5705C43.7698 38.1333 43.5102 37.742 43.2866 37.3307C43.1409 37.0632 42.9572 36.9813 42.6557 36.9833C39.1679 36.9953 35.678 36.9913 32.1881 36.9893C31.9825 36.9893 31.7748 36.9933 31.5712 36.9693C30.7127 36.8655 30.1477 36.3904 29.8622 35.5798C29.8003 35.4061 29.7684 35.2204 29.7244 35.0487H23.2378C23.2378 35.9871 23.2478 36.8975 23.2378 37.8059C23.2059 40.3035 24.2101 42.2421 26.3304 43.5837C26.6259 43.7714 26.7477 44.009 26.7117 44.3584C26.5919 45.5283 26.4841 46.7003 26.3723 47.8722C26.2785 48.8465 26.1866 49.8208 26.0928 50.817H37.0316L37.0296 50.815ZM41.6156 28.1149C40.3078 25.4077 38.2874 23.7526 35.3845 23.3652C34.0089 23.1816 32.5954 23.2554 31.1978 23.2594C27.9256 23.2694 24.9828 25.2899 23.8028 28.3345C23.5633 28.9554 23.4315 29.6183 23.2378 30.307H29.7164C29.996 28.62 30.5969 28.1149 32.2919 28.1149C34.4561 28.1149 36.6183 28.1149 38.7825 28.1149C39.6929 28.1149 40.6053 28.1149 41.6156 28.1149ZM43.7398 32.5172C42.6877 32.5172 41.6754 32.4173 40.6932 32.5411C39.2118 32.7268 38.0937 32.2516 37.2432 31.0617C37.2352 31.0497 37.2173 31.0418 37.2133 31.0298C37.1155 30.7962 36.9717 30.5706 36.9338 30.327C36.8859 30.0176 36.9218 29.6941 36.9218 29.3527C35.2228 29.3527 33.5896 29.3527 31.9585 29.3527C31.2777 29.3527 31.0022 29.6302 31.0002 30.323C30.9962 31.7505 31.0002 33.178 31.0002 34.6035C31.0002 35.5379 31.2118 35.7515 32.1342 35.7515C35.6221 35.7515 39.11 35.7515 42.5958 35.7515C42.7276 35.7515 42.8614 35.7535 42.9931 35.7395C43.4344 35.6916 43.7258 35.4061 43.7358 34.9569C43.7518 34.1643 43.7398 33.3717 43.7398 32.5152V32.5172ZM29.7384 31.6128H23.2638V33.761H29.7404V31.6128H29.7384ZM43.7238 29.3867H38.1936C38.0658 29.9537 38.1856 30.4009 38.6508 30.7263C38.7346 30.7842 38.8065 30.8621 38.8684 30.9439C39.074 31.2095 39.3296 31.2973 39.669 31.2893C40.6812 31.2674 41.6954 31.2813 42.7096 31.2813H43.7238V29.3867Z" fill="white"/>
<path d="M22 56.2133C22.2815 55.2849 22.8066 54.5801 23.7948 54.3346C24.0484 54.2727 24.3179 54.2567 24.5815 54.2567C28.836 54.2527 33.0905 54.2507 37.345 54.2567C38.9083 54.2567 39.9724 55.229 39.8686 56.7803C39.7908 57.9243 40.1621 58.6131 41.1623 59.1002C41.7254 59.3757 42.2265 59.783 42.7476 60.1404C43.3106 60.5277 43.3146 60.9789 42.7516 61.3602C41.911 61.9292 41.0705 62.4982 40.216 63.0453C39.9724 63.201 39.8806 63.3727 39.8946 63.6562C39.9145 64.0675 39.9105 64.4808 39.8946 64.892C39.8447 66.0141 39.2517 66.7927 38.1876 67.164C38.1217 67.186 38.0638 67.2279 38.0019 67.2599H23.9446C22.9423 66.9664 22.2955 66.3175 22 65.3153V56.2133ZM41.4319 60.7533C40.6173 60.2083 39.8526 59.6872 39.078 59.1861C38.7885 58.9984 38.6528 58.7608 38.6587 58.4174C38.6687 57.8584 38.6707 57.2974 38.6567 56.7384C38.6348 55.9178 38.2055 55.4945 37.381 55.4925C33.0945 55.4885 28.81 55.4885 24.5236 55.4925C23.687 55.4925 23.2418 55.9437 23.2398 56.7763C23.2358 59.4276 23.2358 62.077 23.2398 64.7283C23.2398 65.5569 23.697 66.0201 24.5216 66.0201C28.808 66.024 33.0925 66.024 37.379 66.0201C38.1876 66.0201 38.6328 65.5788 38.6547 64.7682C38.6687 64.2392 38.6727 63.7081 38.6547 63.179C38.6388 62.7658 38.7965 62.4942 39.1479 62.2726C39.9046 61.7955 40.6393 61.2844 41.4319 60.7553V60.7533Z" fill="white"/>
<path d="M58.2828 35.0159C56.1625 35.0159 54.0422 35.0159 51.922 35.0159C50.3407 35.0159 49.2806 34.0416 49.3864 32.4584C49.4603 31.3504 49.1129 30.6815 48.1406 30.2044C47.5516 29.9149 47.0305 29.4876 46.4835 29.1123C45.9504 28.7449 45.9524 28.2897 46.4955 27.9224C47.336 27.3534 48.1785 26.7864 49.031 26.2373C49.2686 26.0856 49.3784 25.9219 49.3624 25.6324C49.3385 25.2072 49.3425 24.7779 49.3644 24.3527C49.4343 22.9791 50.4266 22.0247 51.8022 22.0208C54.5993 22.0128 57.3983 22.0188 60.1954 22.0188C61.7128 22.0188 63.2281 22.0148 64.7454 22.0188C66.2308 22.0228 67.249 23.031 67.251 24.5104C67.257 27.1897 67.257 29.869 67.251 32.5483C67.247 34.0077 66.2368 35.0139 64.7754 35.0159C62.6112 35.0219 60.447 35.0159 58.2828 35.0159ZM47.8291 28.5173C48.5978 29.0324 49.3165 29.5415 50.0632 30.0047C50.4625 30.2523 50.6262 30.5618 50.6003 31.0249C50.5743 31.5241 50.5843 32.0252 50.5983 32.5263C50.6202 33.3489 51.0475 33.7801 51.8661 33.7821C56.1665 33.7881 60.4669 33.7881 64.7674 33.7821C65.572 33.7821 66.0132 33.3209 66.0152 32.5083C66.0192 29.857 66.0192 27.2076 66.0152 24.5563C66.0152 23.7018 65.562 23.2566 64.7015 23.2546C60.445 23.2526 56.1885 23.2546 51.9319 23.2546C51.0415 23.2546 50.6123 23.6838 50.5983 24.5823C50.5903 25.0674 50.5783 25.5545 50.6023 26.0397C50.6242 26.4829 50.4685 26.7864 50.0852 27.026C49.3365 27.4931 48.6138 27.9983 47.8311 28.5193L47.8291 28.5173Z" fill="white"/>
<path d="M30.9732 57.0804C32.7381 57.0804 34.503 57.0685 36.2679 57.0944C36.5095 57.0984 36.8229 57.2302 36.9727 57.4119C37.2182 57.7073 36.9966 58.1705 36.6073 58.2763C36.4556 58.3183 36.2879 58.3143 36.1282 58.3143C32.6722 58.3143 29.2163 58.3143 25.7604 58.3143C25.6865 58.3143 25.6126 58.3163 25.5408 58.3143C25.1055 58.2923 24.832 58.0507 24.834 57.6874C24.834 57.32 25.0995 57.0824 25.5487 57.0804C26.8425 57.0745 28.1362 57.0785 29.4319 57.0785C29.947 57.0785 30.4621 57.0785 30.9752 57.0785L30.9732 57.0804Z" fill="white"/>
<path d="M30.9213 61.3668C29.2163 61.3668 27.5093 61.3668 25.8043 61.3668C25.6566 61.3668 25.5088 61.3708 25.3651 61.3489C25.0237 61.2989 24.84 61.0833 24.836 60.7499C24.832 60.4325 25.0137 60.2248 25.3251 60.1589C25.4669 60.129 25.6166 60.133 25.7644 60.133C29.2203 60.133 32.6762 60.133 36.1322 60.133C36.2919 60.133 36.4596 60.133 36.6133 60.1729C36.9268 60.2548 37.1204 60.4983 37.0366 60.7918C36.9767 61.0035 36.7571 61.1971 36.5614 61.3349C36.4496 61.4127 36.248 61.3668 36.0862 61.3668C34.3653 61.3668 32.6443 61.3668 30.9253 61.3668H30.9213Z" fill="white"/>
<path d="M27.8727 63.1931C28.6214 63.1931 29.3701 63.1891 30.1208 63.1931C30.6039 63.1971 30.8674 63.4187 30.8694 63.806C30.8714 64.1953 30.6079 64.4249 30.1267 64.4269C28.6134 64.4309 27.1001 64.4309 25.5887 64.4269C25.1175 64.4269 24.836 64.1873 24.832 63.814C24.83 63.4367 25.1116 63.1971 25.5807 63.1931C26.3454 63.1871 27.108 63.1931 27.8727 63.1931Z" fill="white"/>
<path d="M58.3285 24.8446C60.0495 24.8446 61.7705 24.8446 63.4914 24.8446C63.6232 24.8446 63.759 24.8306 63.8868 24.8566C64.2142 24.9204 64.4158 25.1261 64.4138 25.4655C64.4138 25.8049 64.2082 26.0085 63.8808 26.0704C63.739 26.0964 63.5873 26.0824 63.4395 26.0824C60.0116 26.0824 56.5856 26.0824 53.1576 26.0824C53.0099 26.0824 52.8601 26.0964 52.7184 26.0704C52.3869 26.0105 52.1953 25.8049 52.1973 25.4615C52.1973 25.1181 52.3929 24.9165 52.7244 24.8566C52.8521 24.8346 52.9879 24.8466 53.1197 24.8466C54.8546 24.8466 56.5916 24.8466 58.3265 24.8466L58.3285 24.8446Z" fill="white"/>
<path d="M58.3217 27.9077C60.0307 27.9077 61.7397 27.9077 63.4467 27.9077C63.6085 27.9077 63.8121 27.8617 63.9219 27.9416C64.1156 28.0814 64.3711 28.293 64.3831 28.4867C64.3951 28.6823 64.1695 28.9299 63.9878 29.0816C63.876 29.1734 63.6504 29.1415 63.4747 29.1415C60.0287 29.1435 56.5808 29.1435 53.1349 29.1415C52.9891 29.1415 52.8374 29.1455 52.6956 29.1155C52.3602 29.0477 52.1805 28.8281 52.1985 28.4886C52.2145 28.1492 52.4121 27.9456 52.7555 27.9177C52.9612 27.8997 53.1668 27.9077 53.3744 27.9077C55.0235 27.9077 56.6746 27.9077 58.3237 27.9077H58.3217Z" fill="white"/>
<path d="M55.2085 32.189C54.4439 32.189 53.6812 32.193 52.9166 32.189C52.4574 32.185 52.2018 31.9734 52.1898 31.602C52.1779 31.2167 52.4494 30.9592 52.9146 30.9572C54.4419 30.9492 55.9692 30.9492 57.4965 30.9572C57.9557 30.9592 58.2412 31.2267 58.2272 31.602C58.2153 31.9614 57.9437 32.187 57.4965 32.189C56.7319 32.195 55.9692 32.189 55.2045 32.189H55.2085Z" fill="white"/>
</svg>
