<svg width="145" height="191" viewBox="0 0 154 154" fill="none" xmlns="http://www.w3.org/2000/svg">
<path d="M99.0611 153.253C97.8847 152.496 97.5129 151.522 97.7833 150.082C98.8312 144.606 99.7574 139.11 100.731 133.614C100.832 133.032 100.907 132.444 101.001 131.842C99.1895 131.714 97.4453 131.694 95.7349 131.443C87.2774 130.206 80.8548 123.067 80.5439 114.556C80.5101 113.629 80.2261 113.122 79.4148 112.717C77.941 111.993 76.5078 111.182 75.0813 110.371C73.452 109.445 73.1681 108.397 74.1281 106.794C75.3517 104.753 76.616 102.725 77.9343 100.581C75.7101 98.7088 75.3653 96.2344 75.3991 93.5437C75.4802 87.3646 75.4194 81.1787 75.4261 74.9995C75.4261 72.7685 76.0819 71.9032 78.225 72.1668C81.2672 72.5454 82.6126 71.3691 84.0323 68.604C89.6436 57.6925 98.838 51.9325 111.149 51.5268C116.219 51.3646 121.351 51.3105 126.38 51.8649C139.962 53.3589 151.482 65.1764 152.956 78.7246C153.132 80.3539 153.22 82.0035 153.227 83.6463C153.254 91.1708 153.328 98.7021 153.213 106.227C153.085 114.738 149.522 121.607 142.721 126.725C141.774 127.434 141.538 128.083 141.653 129.185C142.376 136.176 143.005 143.166 143.728 150.157C143.863 151.475 143.579 152.496 142.471 153.246H99.0746L99.0611 153.253ZM149.306 95.5652H127.09C125.914 100.473 123.798 102.136 118.775 102.136C106.957 102.136 95.1399 102.136 83.3225 102.157C82.7748 102.157 81.9703 102.218 81.7202 102.569C80.6047 104.131 79.6515 105.807 78.5968 107.504C79.7596 108.153 80.7129 108.823 81.7608 109.235C84.012 110.114 84.7963 111.581 84.7692 114.055C84.7084 120.174 88.8932 125.569 94.8425 126.927C97.5196 127.543 100.373 127.374 103.151 127.516C105.044 127.61 105.889 128.57 105.565 130.423C105.051 133.363 104.497 136.304 103.976 139.245C103.401 142.47 102.847 145.695 102.272 148.987H139.361C139.334 148.609 139.313 148.311 139.286 148.02C138.637 141.226 138.022 134.425 137.312 127.637C137.143 126.042 137.637 125.062 139.002 124.196C143.992 121.046 147.494 116.597 148.393 110.756C149.15 105.821 149.028 100.751 149.306 95.5719V95.5652ZM148.717 79.5629C148.717 79.1843 148.751 78.8801 148.717 78.5894C147.237 67.3736 137.535 57.4153 126.245 56.0767C121.276 55.4885 116.192 55.5696 111.176 55.7184C100.69 56.0294 92.9427 61.0051 87.8182 70.1184C87.4937 70.693 87.2841 71.3353 86.9529 72.1127C87.8115 72.1127 88.4064 72.1127 89.0013 72.1127C99.2165 72.1127 109.439 72.0992 119.654 72.1195C123.284 72.1195 125.955 74.1004 126.752 77.3251C126.928 78.035 126.948 78.7787 127.05 79.5697H148.717V79.5629ZM79.6109 86.9927C79.6109 89.6632 79.6109 92.1037 79.6109 94.5375C79.6177 97.0322 80.5303 97.9449 83.052 97.9449C95.1737 97.9516 107.289 97.9516 119.41 97.9449C121.858 97.9449 122.743 97.0525 122.75 94.6119C122.764 89.6294 122.764 84.6401 122.75 79.6575C122.75 77.1967 121.871 76.3043 119.437 76.2975C114.299 76.284 109.161 76.2975 104.03 76.2975C103.645 76.2975 103.259 76.3516 102.996 76.3719C102.698 78.1499 102.793 80.0226 102.042 81.4491C101.272 82.9297 99.6019 83.9099 98.4796 85.235C97.3033 86.6277 95.9106 87.0468 94.1394 87.013C89.3596 86.9252 84.5799 86.9792 79.6109 86.9792V86.9927ZM148.974 83.937H127.023V91.2046H148.974V83.937ZM79.7056 76.3516V82.8012C83.8295 82.8012 87.8656 82.6728 91.8813 82.8485C94.1191 82.9499 95.6672 82.2468 97.2087 80.6513C98.4999 79.3128 98.723 78.0215 98.358 76.3449H79.7123L79.7056 76.3516Z" fill="white"/>
<path d="M0 28.1836C0.486761 26.1148 0.845071 23.9988 1.48056 21.9774C5.49634 9.07145 17.4761 0.174547 30.9904 0.0798993C35.7228 0.0460965 40.5026 -0.197284 45.1741 0.377364C57.0795 1.84441 65.4152 8.37511 70.249 19.3205C70.7426 20.4427 71.2699 20.8348 72.4259 20.7267C73.4671 20.632 74.5217 20.6861 75.5628 20.7131C76.9285 20.747 77.7736 21.4703 77.7803 22.8224C77.8141 30.0495 77.902 37.2833 77.6857 44.5036C77.6383 46.1396 76.4485 47.7419 75.6305 49.7363C76.5702 51.2641 77.7938 53.2518 79.004 55.2461C80.0789 57.0174 79.822 58.0247 78.0372 59.032C76.5634 59.8636 75.0423 60.6208 73.609 61.5132C73.1966 61.7701 72.7775 62.3718 72.7437 62.845C72 73.236 64.6243 80.2264 54.2468 80.3075C53.6519 80.3075 53.0637 80.3075 52.1983 80.3075C52.6175 82.7413 52.9961 85.0197 53.395 87.2912C54.071 91.165 54.7741 95.0388 55.4434 98.9126C55.7814 100.88 54.9837 101.826 52.969 101.826C39.3059 101.833 25.6496 101.833 11.9865 101.826C10.0732 101.826 9.32958 101.049 9.50536 99.1425C10.1611 92.098 10.8169 85.0535 11.5606 78.0225C11.6958 76.7447 11.4321 76.0011 10.3437 75.1966C4.72564 71.0253 1.41296 65.4005 0.290704 58.4912C0.223099 58.0653 0.0946479 57.6394 0 57.2202C0 47.5458 0 37.8715 0 28.1971L0 28.1836ZM50.8935 97.574C50.8597 97.1278 50.8597 96.8236 50.8124 96.5329C49.8051 90.8473 48.7978 85.1616 47.7702 79.4827C47.3307 77.0422 48.0609 76.1363 50.515 76.0957C52.6581 76.0619 54.835 76.2444 56.9307 75.9132C63.8874 74.818 68.5454 69.1661 68.4981 61.9323C68.4845 60.1543 69.0254 59.0185 70.6682 58.2884C72.0135 57.6934 73.2575 56.8754 74.6231 56.1115C73.7172 54.6309 72.8383 53.3058 72.0812 51.9132C71.5876 51.0072 70.9657 50.7301 69.9448 50.7368C58.1341 50.7774 46.3166 50.7639 34.4992 50.7571C33.8028 50.7571 33.0997 50.7706 32.4102 50.6895C29.5031 50.338 27.5899 48.7289 26.6231 45.9841C26.4135 45.396 26.3054 44.7672 26.1566 44.1858H4.19155C4.19155 47.3633 4.22535 50.4461 4.19155 53.5222C4.08338 61.9796 7.48395 68.5442 14.6637 73.0873C15.6642 73.7227 16.0766 74.5273 15.9549 75.7104C15.5493 79.672 15.1842 83.6405 14.8056 87.6089C14.4879 90.9081 14.1769 94.2073 13.8592 97.5808H50.9003L50.8935 97.574ZM66.4226 20.7064C61.9944 11.5391 55.1527 5.93455 45.3228 4.623C40.6648 4.00103 35.8783 4.25117 31.1459 4.26469C20.0654 4.29849 10.1003 11.1402 6.10479 21.45C5.29352 23.5526 4.84733 25.7971 4.19155 28.1295H26.1296C27.0761 22.4168 29.111 20.7064 34.8507 20.7064C42.1792 20.7064 49.5009 20.7064 56.8293 20.7064C59.9121 20.7064 63.0017 20.7064 66.4226 20.7064ZM73.6158 35.6134C70.053 35.6134 66.6254 35.2754 63.2992 35.6946C58.2828 36.3233 54.4969 34.7143 51.6169 30.685C51.5899 30.6444 51.529 30.6174 51.5155 30.5768C51.1842 29.7858 50.6975 29.0219 50.569 28.1971C50.4068 27.1492 50.5285 26.054 50.5285 24.8979C44.7752 24.8979 39.2451 24.8979 33.7217 24.8979C31.4164 24.8979 30.4834 25.8377 30.4766 28.1836C30.4631 33.0174 30.4766 37.8512 30.4766 42.6782C30.4766 45.8422 31.1933 46.5656 34.3166 46.5656C46.1273 46.5656 57.9381 46.5656 69.742 46.5656C70.1882 46.5656 70.6412 46.5723 71.0874 46.525C72.5814 46.3627 73.5685 45.396 73.6023 43.8748C73.6564 41.1909 73.6158 38.507 73.6158 35.6067V35.6134ZM26.204 32.5509H4.27944V39.8253H26.2107V32.5509H26.204ZM73.5617 25.0129H54.835C54.4023 26.9329 54.8079 28.4472 56.3831 29.5492C56.6671 29.7453 56.9104 30.0089 57.12 30.2861C57.8164 31.1853 58.6817 31.4827 59.831 31.4557C63.2586 31.3813 66.693 31.4286 70.1274 31.4286H73.5617V25.0129Z" fill="white"/>
<path d="M0 115.853C0.95324 112.709 2.73127 110.323 6.07775 109.491C6.93634 109.282 7.84902 109.228 8.74141 109.228C23.1482 109.214 37.5549 109.207 51.9617 109.228C57.2552 109.228 60.8586 112.52 60.5071 117.773C60.2434 121.647 61.5009 123.979 64.8879 125.629C66.7944 126.562 68.4913 127.941 70.2558 129.151C72.1623 130.463 72.1758 131.99 70.2693 133.282C67.4231 135.208 64.5769 137.135 61.6834 138.988C60.8586 139.515 60.5476 140.096 60.5949 141.056C60.6626 142.449 60.649 143.848 60.5949 145.241C60.4259 149.041 58.418 151.677 54.8147 152.935C54.5916 153.009 54.3955 153.151 54.1859 153.259H6.58479C3.19099 152.265 1.00056 150.068 0 146.674V115.853ZM65.8006 131.227C63.0423 129.381 60.453 127.616 57.8299 125.919C56.8496 125.284 56.3899 124.479 56.4102 123.317C56.444 121.424 56.4507 119.524 56.4034 117.631C56.329 114.852 54.8755 113.419 52.0834 113.412C37.5685 113.399 23.0603 113.399 8.54535 113.412C5.71268 113.412 4.20507 114.94 4.19831 117.759C4.18479 126.738 4.18479 135.709 4.19831 144.687C4.19831 147.492 5.74648 149.061 8.53859 149.061C23.0535 149.074 37.5617 149.074 52.0766 149.061C54.8147 149.061 56.3223 147.567 56.3966 144.822C56.444 143.03 56.4575 141.232 56.3966 139.441C56.3426 138.041 56.8766 137.122 58.0665 136.371C60.6288 134.756 63.1166 133.025 65.8006 131.233V131.227Z" fill="white"/>
<path d="M122.856 44.0772C115.676 44.0772 108.496 44.0772 101.317 44.0772C95.9624 44.0772 92.3725 40.778 92.7308 35.4169C92.9809 31.6648 91.8046 29.4 88.5122 27.7842C86.5178 26.8039 84.7533 25.3572 82.9009 24.0862C81.0959 22.8422 81.1026 21.3008 82.9415 20.0569C85.7877 18.1301 88.6407 16.2101 91.5274 14.351C92.3319 13.8372 92.7038 13.2828 92.6497 12.3025C92.5685 10.8625 92.5821 9.409 92.6564 7.969C92.8931 3.31773 96.2531 0.0861769 100.911 0.0726557C110.383 0.0456135 119.861 0.0658952 129.333 0.0658952C134.471 0.0658952 139.602 0.052374 144.74 0.0658952C149.77 0.0794163 153.218 3.4935 153.224 8.50308C153.245 17.5758 153.245 26.6484 153.224 35.7211C153.211 40.6631 149.79 44.0704 144.841 44.0772C137.513 44.0975 130.184 44.0772 122.856 44.0772ZM87.4576 22.0715C90.0604 23.8158 92.4942 25.5397 95.0226 27.1082C96.3748 27.9465 96.9291 28.9944 96.8412 30.5628C96.7533 32.2529 96.7871 33.9499 96.8345 35.6468C96.9088 38.4321 98.3556 39.8924 101.127 39.8991C115.69 39.9194 130.252 39.9194 144.814 39.8991C147.539 39.8991 149.033 38.3375 149.04 35.5859C149.053 26.6079 149.053 17.6366 149.04 8.65857C149.04 5.76505 147.505 4.25745 144.591 4.25069C130.178 4.24392 115.764 4.25069 101.351 4.25069C98.3353 4.25069 96.8818 5.70421 96.8345 8.74646C96.8074 10.3893 96.7669 12.0389 96.848 13.6817C96.9224 15.1825 96.395 16.2101 95.097 17.0214C92.5618 18.6034 90.1145 20.3138 87.4643 22.0783L87.4576 22.0715Z" fill="white"/>
<path d="M30.3825 118.789C36.3589 118.789 42.3352 118.748 48.3115 118.836C49.1296 118.849 50.191 119.296 50.698 119.911C51.5296 120.911 50.7792 122.48 49.4608 122.838C48.947 122.98 48.3792 122.967 47.8383 122.967C36.1358 122.967 24.4332 122.967 12.7307 122.967C12.4805 122.967 12.2304 122.973 11.987 122.967C10.5132 122.892 9.58703 122.074 9.59379 120.844C9.59379 119.6 10.4929 118.795 12.0141 118.789C16.3949 118.768 20.7758 118.782 25.1634 118.782C26.9076 118.782 28.6518 118.782 30.3893 118.782L30.3825 118.789Z" fill="white"/>
<path d="M30.2158 133.304C24.4423 133.304 18.662 133.304 12.8885 133.304C12.3882 133.304 11.8879 133.317 11.4011 133.243C10.2451 133.074 9.62311 132.344 9.60959 131.215C9.59607 130.14 10.2113 129.437 11.2659 129.213C11.7459 129.112 12.253 129.126 12.7533 129.126C24.4558 129.126 36.1583 129.126 47.8609 129.126C48.4017 129.126 48.9696 129.126 49.4902 129.261C50.5516 129.538 51.2074 130.363 50.9234 131.357C50.7206 132.073 49.9769 132.729 49.3144 133.195C48.9358 133.459 48.253 133.304 47.7054 133.304C41.8778 133.304 36.0502 133.304 30.2293 133.304H30.2158Z" fill="white"/>
<path d="M19.8823 139.489C22.4175 139.489 24.9527 139.476 27.4947 139.489C29.1308 139.503 30.0232 140.253 30.0299 141.565C30.0367 142.883 29.1443 143.661 27.515 143.668C22.3905 143.681 17.266 143.681 12.1482 143.668C10.5527 143.668 9.59949 142.856 9.58597 141.592C9.57921 140.314 10.5325 139.503 12.1212 139.489C14.7105 139.469 17.293 139.489 19.8823 139.489Z" fill="white"/>
<path d="M123.016 9.63186C128.843 9.63186 134.671 9.63186 140.498 9.63186C140.945 9.63186 141.404 9.58454 141.837 9.67243C142.946 9.88877 143.629 10.5851 143.622 11.7344C143.622 12.8837 142.926 13.5733 141.817 13.7829C141.337 13.8707 140.823 13.8234 140.323 13.8234C128.715 13.8234 117.114 13.8234 105.506 13.8234C105.006 13.8234 104.498 13.8707 104.018 13.7829C102.896 13.58 102.247 12.8837 102.254 11.7209C102.254 10.5581 102.916 9.87524 104.039 9.67243C104.471 9.59806 104.931 9.63862 105.377 9.63862C111.252 9.63862 117.134 9.63862 123.009 9.63862L123.016 9.63186Z" fill="white"/>
<path d="M122.997 20.0015C128.784 20.0015 134.571 20.0015 140.351 20.0015C140.899 20.0015 141.588 19.846 141.96 20.1164C142.616 20.5897 143.481 21.3063 143.522 21.9621C143.562 22.6246 142.798 23.4629 142.183 23.9767C141.805 24.2877 141.041 24.1795 140.446 24.1795C128.777 24.1863 117.101 24.1863 105.433 24.1795C104.939 24.1795 104.425 24.1931 103.945 24.0917C102.81 23.8618 102.201 23.1181 102.262 21.9688C102.316 20.8195 102.985 20.13 104.148 20.0353C104.845 19.9745 105.541 20.0015 106.244 20.0015C111.828 20.0015 117.419 20.0015 123.003 20.0015H122.997Z" fill="white"/>
<path d="M112.454 34.5041C109.864 34.5041 107.282 34.5176 104.693 34.5041C103.138 34.4905 102.272 33.7739 102.232 32.5164C102.191 31.2117 103.111 30.3395 104.686 30.3328C109.858 30.3057 115.03 30.3057 120.201 30.3328C121.756 30.3395 122.723 31.2455 122.676 32.5164C122.635 33.7333 121.716 34.4973 120.201 34.5041C117.612 34.5243 115.03 34.5041 112.44 34.5041H112.454Z" fill="white"/>
</svg>
