<svg width="138" height="138" viewBox="0 0 138 138" fill="none" xmlns="http://www.w3.org/2000/svg">
<path d="M88.7249 137.254C87.6714 136.576 87.3384 135.704 87.5806 134.415C88.5191 129.51 89.3486 124.588 90.2205 119.665C90.3113 119.145 90.3779 118.618 90.4626 118.079C88.84 117.964 87.2778 117.946 85.746 117.722C78.1714 116.614 72.4194 110.22 72.1409 102.597C72.1106 101.767 71.8563 101.313 71.1297 100.95C69.8098 100.302 68.5262 99.5755 67.2486 98.8489C65.7894 98.0194 65.5351 97.0809 66.3949 95.6459C67.4908 93.8174 68.623 92.0009 69.8037 90.0816C67.8117 88.4044 67.5029 86.1883 67.5332 83.7785C67.6058 78.2445 67.5514 72.7043 67.5574 67.1703C67.5574 65.1722 68.1447 64.3972 70.0641 64.6333C72.7887 64.9724 73.9936 63.9189 75.2651 61.4424C80.2906 51.67 88.5251 46.5114 99.5509 46.1481C104.092 46.0028 108.688 45.9543 113.192 46.4508C125.356 47.7889 135.674 58.3727 136.994 70.5064C137.151 71.9657 137.23 73.443 137.236 74.9143C137.26 81.6533 137.327 88.3983 137.224 95.1373C137.109 102.76 133.918 108.912 127.827 113.495C126.979 114.131 126.767 114.712 126.87 115.699C127.518 121.96 128.081 128.221 128.729 134.481C128.85 135.662 128.596 136.576 127.603 137.248H88.737L88.7249 137.254ZM133.724 85.5889H113.828C112.775 89.9847 110.879 91.4742 106.381 91.4742C95.7969 91.4742 85.2131 91.4742 74.6294 91.4923C74.139 91.4923 73.4184 91.5468 73.1944 91.8617C72.1954 93.2603 71.3416 94.7619 70.3971 96.2817C71.4385 96.8629 72.2922 97.4623 73.2307 97.8317C75.247 98.6188 75.9493 99.9327 75.9251 102.149C75.8706 107.628 79.6185 112.46 84.9467 113.677C87.3444 114.228 89.8995 114.077 92.3881 114.204C94.0834 114.289 94.8402 115.148 94.5496 116.807C94.0895 119.441 93.593 122.075 93.1267 124.709C92.6121 127.597 92.1156 130.485 91.6009 133.434H124.817C124.793 133.095 124.775 132.828 124.751 132.568C124.17 126.483 123.619 120.392 122.983 114.313C122.831 112.884 123.273 112.006 124.497 111.231C128.965 108.409 132.101 104.425 132.907 99.194C133.585 94.774 133.476 90.2329 133.724 85.595V85.5889ZM133.197 71.2572C133.197 70.9182 133.228 70.6457 133.197 70.3854C131.871 60.3405 123.183 51.4218 113.071 50.2229C108.621 49.6962 104.068 49.7688 99.5751 49.902C90.1841 50.1806 83.2453 54.6369 78.6558 62.7987C78.3652 63.3134 78.1775 63.8886 77.8808 64.5849C78.6498 64.5849 79.1826 64.5849 79.7154 64.5849C88.8642 64.5849 98.019 64.5728 107.168 64.5909C110.419 64.5909 112.811 66.365 113.525 69.2531C113.683 69.8889 113.701 70.5549 113.792 71.2633H133.197V71.2572ZM71.3053 77.9114C71.3053 80.3031 71.3053 82.4889 71.3053 84.6686C71.3114 86.9028 72.1288 87.7202 74.3872 87.7202C85.2434 87.7263 96.0936 87.7263 106.95 87.7202C109.142 87.7202 109.935 86.921 109.941 84.7352C109.953 80.2728 109.953 75.8044 109.941 71.342C109.941 69.1381 109.154 68.3388 106.974 68.3328C102.372 68.3207 97.7708 68.3328 93.1752 68.3328C92.8301 68.3328 92.4849 68.3812 92.2488 68.3994C91.9824 69.9918 92.0672 71.669 91.3951 72.9465C90.7048 74.2725 89.2093 75.1505 88.2042 76.3372C87.1507 77.5845 85.9034 77.9599 84.317 77.9296C80.0363 77.8509 75.7556 77.8993 71.3053 77.8993V77.9114ZM133.427 75.1747H113.767V81.6836H133.427V75.1747ZM71.3901 68.3812V74.1575C75.0835 74.1575 78.6982 74.0424 82.2947 74.1999C84.2989 74.2907 85.6854 73.661 87.0659 72.2321C88.2224 71.0332 88.4222 69.8768 88.0952 68.3752H71.3961L71.3901 68.3812Z" fill="#fff"/>
<path d="M0.00390625 25.2413C0.43985 23.3885 0.760754 21.4934 1.3299 19.683C4.92644 8.12441 15.6555 0.156325 27.759 0.071558C31.9974 0.0412841 36.2781 -0.176688 40.4619 0.337968C51.1244 1.65186 58.59 7.50077 62.9191 17.3035C63.3611 18.3086 63.8334 18.6597 64.8688 18.5629C65.8012 18.4781 66.7458 18.5265 67.6782 18.5507C68.9013 18.581 69.6581 19.2289 69.6642 20.4398C69.6944 26.9124 69.7731 33.391 69.5794 39.8575C69.537 41.3228 68.4714 42.7578 67.7387 44.5439C68.5804 45.9123 69.6763 47.6924 70.7601 49.4786C71.7228 51.0649 71.4927 51.9671 69.8942 52.8692C68.5743 53.614 67.212 54.2921 65.9284 55.0913C65.559 55.3214 65.1836 55.8603 65.1533 56.2841C64.4873 65.5903 57.8816 71.851 48.5875 71.9236C48.0546 71.9236 47.5279 71.9236 46.7529 71.9236C47.1283 74.1034 47.4673 76.1438 47.8246 78.1782C48.43 81.6476 49.0597 85.117 49.6592 88.5864C49.9619 90.3483 49.2474 91.196 47.4431 91.196C35.2064 91.2021 22.9757 91.2021 10.739 91.196C9.02553 91.196 8.3595 90.4997 8.51693 88.7923C9.10424 82.4832 9.69156 76.1741 10.3576 69.8771C10.4787 68.7328 10.2425 68.0667 9.26772 67.3462C4.2362 63.6104 1.26936 58.5728 0.264262 52.3849C0.203714 52.0034 0.0886732 51.622 0.00390625 51.2466C0.00390625 42.5822 0.00390625 33.9178 0.00390625 25.2534L0.00390625 25.2413ZM45.5843 87.3876C45.554 86.9879 45.554 86.7155 45.5116 86.4551C44.6095 81.363 43.7073 76.271 42.787 71.185C42.3934 68.9992 43.0473 68.1878 45.2452 68.1515C47.1646 68.1212 49.1142 68.2847 50.9912 67.988C57.2216 67.0072 61.3933 61.9454 61.3509 55.4667C61.3388 53.8743 61.8232 52.8571 63.2945 52.2032C64.4994 51.6704 65.6135 50.9378 66.8366 50.2536C66.0252 48.9276 65.2381 47.7408 64.56 46.4936C64.118 45.6822 63.5609 45.434 62.6467 45.44C52.069 45.4764 41.4852 45.4642 30.9015 45.4582C30.2778 45.4582 29.6481 45.4703 29.0305 45.3976C26.427 45.0828 24.7135 43.6418 23.8476 41.1835C23.6599 40.6567 23.5631 40.0937 23.4299 39.5729H3.75787C3.75787 42.4187 3.78814 45.1797 3.75787 47.9346C3.66099 55.5091 6.70655 61.3883 13.1367 65.4571C14.0328 66.0263 14.4022 66.7468 14.2932 67.8064C13.9299 71.3545 13.6029 74.9086 13.2639 78.4628C12.9793 81.4175 12.7008 84.3723 12.4162 87.3936H45.5903L45.5843 87.3876ZM59.4921 18.5447C55.5262 10.3344 49.3988 5.315 40.5952 4.14037C36.4234 3.58333 32.1366 3.80736 27.8983 3.81947C17.9745 3.84974 9.04975 9.97718 5.47137 19.2107C4.7448 21.0938 4.34518 23.1039 3.75787 25.1928H23.4056C24.2533 20.0766 26.0758 18.5447 31.2163 18.5447C37.7797 18.5447 44.337 18.5447 50.9004 18.5447C53.6614 18.5447 56.4284 18.5447 59.4921 18.5447ZM65.9344 31.8955C62.7435 31.8955 59.6738 31.5927 56.6948 31.9681C52.2022 32.5312 48.8115 31.0902 46.2322 27.4815C46.2079 27.4452 46.1534 27.421 46.1413 27.3847C45.8446 26.6763 45.4087 25.9921 45.2937 25.2534C45.1483 24.3149 45.2573 23.334 45.2573 22.2987C40.1047 22.2987 35.1519 22.2987 30.2052 22.2987C28.1405 22.2987 27.3049 23.1403 27.2989 25.2413C27.2867 29.5704 27.2989 33.8996 27.2989 38.2227C27.2989 41.0564 27.9407 41.7042 30.738 41.7042C41.3157 41.7042 51.8934 41.7042 62.465 41.7042C62.8646 41.7042 63.2703 41.7103 63.6699 41.6679C65.008 41.5226 65.892 40.6568 65.9223 39.2944C65.9707 36.8907 65.9344 34.4869 65.9344 31.8894V31.8955ZM23.4722 29.1527H3.83658V35.6676H23.4783V29.1527H23.4722ZM65.886 22.4016H49.1142C48.7267 24.1211 49.09 25.4774 50.5008 26.4643C50.7551 26.6399 50.973 26.8761 51.1607 27.1243C51.7844 27.9296 52.5594 28.196 53.5887 28.1718C56.6585 28.1052 59.7343 28.1476 62.8101 28.1476H65.886V22.4016Z" fill="#fff"/>
<path d="M0.00390625 103.76C0.85763 100.944 2.45004 98.8068 5.44715 98.0621C6.21611 97.8744 7.03351 97.8259 7.83274 97.8259C20.7355 97.8138 33.6382 97.8078 46.5409 97.8259C51.2818 97.8259 54.509 100.775 54.1942 105.479C53.958 108.949 55.0842 111.037 58.1177 112.515C59.8251 113.35 61.3449 114.586 62.9252 115.669C64.6326 116.844 64.6447 118.212 62.9373 119.369C60.3882 121.094 57.8392 122.82 55.2477 124.479C54.509 124.951 54.2305 125.472 54.2729 126.332C54.3334 127.579 54.3213 128.832 54.2729 130.08C54.1215 133.483 52.3233 135.844 49.0961 136.97C48.8963 137.037 48.7207 137.164 48.533 137.261H5.90126C2.86176 136.371 0.900014 134.403 0.00390625 131.363V103.76ZM58.9351 117.528C56.4647 115.875 54.1457 114.295 51.7965 112.775C50.9186 112.206 50.5068 111.486 50.525 110.444C50.5553 108.749 50.5613 107.047 50.5189 105.352C50.4523 102.863 49.1506 101.58 46.6499 101.574C33.6503 101.562 20.6568 101.562 7.65715 101.574C5.1202 101.574 3.76998 102.942 3.76392 105.467C3.75182 113.508 3.75182 121.542 3.76392 129.583C3.76392 132.096 5.15047 133.501 7.65109 133.501C20.6507 133.513 33.6443 133.513 46.6439 133.501C49.0961 133.501 50.4463 132.163 50.5129 129.704C50.5553 128.1 50.5674 126.489 50.5129 124.885C50.4644 123.631 50.9428 122.808 52.0084 122.136C54.3032 120.689 56.5313 119.139 58.9351 117.534V117.528Z" fill="#fff"/>
<path d="M110.032 39.4759C103.602 39.4759 97.1721 39.4759 90.7419 39.4759C85.9465 39.4759 82.7314 36.5212 83.0523 31.7197C83.2764 28.3593 82.2228 26.331 79.2741 24.8839C77.488 24.0059 75.9077 22.7102 74.2487 21.5719C72.6321 20.4578 72.6381 19.0773 74.285 17.9633C76.8341 16.2376 79.3892 14.5181 81.9746 12.853C82.6951 12.3929 83.0281 11.8964 82.9797 11.0184C82.907 9.72876 82.9191 8.42698 82.9857 7.13731C83.1976 2.97162 86.2069 0.0774379 90.3786 0.0653283C98.8614 0.0411092 107.35 0.0592735 115.833 0.0592735C120.435 0.0592735 125.03 0.047164 129.632 0.0592735C134.137 0.0713831 137.224 3.12905 137.231 7.61564C137.249 15.7412 137.249 23.8667 137.231 31.9922C137.218 36.4182 134.155 39.4698 129.723 39.4759C123.159 39.4941 116.596 39.4759 110.032 39.4759ZM78.3296 19.7676C80.6607 21.3297 82.8404 22.8737 85.1049 24.2784C86.3159 25.0292 86.8124 25.9677 86.7336 27.3724C86.6549 28.8861 86.6852 30.4058 86.7276 31.9256C86.7942 34.4202 88.0899 35.728 90.5724 35.734C103.614 35.7522 116.656 35.7522 129.698 35.734C132.138 35.734 133.477 34.3354 133.483 31.8711C133.495 23.8303 133.495 15.7956 133.483 7.7549C133.483 5.16345 132.108 3.81324 129.499 3.80718C116.59 3.80113 103.681 3.80718 90.7722 3.80718C88.0717 3.80718 86.77 5.10896 86.7276 7.83361C86.7034 9.30492 86.667 10.7823 86.7397 12.2536C86.8063 13.5978 86.334 14.5181 85.1715 15.2447C82.901 16.6615 80.7091 18.1933 78.3357 19.7736L78.3296 19.7676Z" fill="#fff"/>
<path d="M27.2122 106.387C32.5647 106.387 37.9171 106.351 43.2695 106.429C44.0021 106.441 44.9527 106.841 45.4068 107.392C46.1516 108.288 45.4795 109.693 44.2988 110.014C43.8387 110.141 43.3301 110.129 42.8457 110.129C32.3649 110.129 21.884 110.129 11.4032 110.129C11.1792 110.129 10.9551 110.135 10.7372 110.129C9.41723 110.062 8.58773 109.33 8.59378 108.228C8.59378 107.114 9.39907 106.393 10.7614 106.387C14.6849 106.369 18.6084 106.381 22.5379 106.381C24.1001 106.381 25.6622 106.381 27.2183 106.381L27.2122 106.387Z" fill="#fff"/>
<path d="M27.0645 119.387C21.8938 119.387 16.7169 119.387 11.5461 119.387C11.0981 119.387 10.65 119.399 10.2141 119.332C9.17872 119.181 8.62168 118.527 8.60957 117.516C8.59746 116.553 9.14845 115.924 10.093 115.724C10.5229 115.633 10.977 115.645 11.425 115.645C21.9059 115.645 32.3867 115.645 42.8675 115.645C43.3519 115.645 43.8605 115.645 44.3267 115.766C45.2773 116.014 45.8646 116.753 45.6103 117.643C45.4287 118.285 44.7627 118.872 44.1693 119.29C43.8302 119.526 43.2187 119.387 42.7283 119.387C37.509 119.387 32.2898 119.387 27.0766 119.387H27.0645Z" fill="#fff"/>
<path d="M17.8113 124.928C20.0818 124.928 22.3524 124.916 24.629 124.928C26.0942 124.94 26.8935 125.612 26.8995 126.787C26.9056 127.967 26.1064 128.664 24.6472 128.67C20.0576 128.682 15.4681 128.682 10.8846 128.67C9.45571 128.67 8.60199 127.943 8.58988 126.811C8.58382 125.667 9.43755 124.94 10.8604 124.928C13.1794 124.91 15.4923 124.928 17.8113 124.928Z" fill="#fff"/>
<path d="M110.176 8.62663C115.396 8.62663 120.615 8.62663 125.834 8.62663C126.234 8.62663 126.645 8.58425 127.033 8.66296C128.026 8.85671 128.637 9.48035 128.631 10.5097C128.631 11.539 128.008 12.1566 127.015 12.3443C126.585 12.423 126.125 12.3806 125.677 12.3806C115.28 12.3806 104.89 12.3806 94.4944 12.3806C94.0464 12.3806 93.5923 12.423 93.1624 12.3443C92.1573 12.1626 91.576 11.539 91.5821 10.4976C91.5821 9.45613 92.1754 8.8446 93.1805 8.66296C93.568 8.59636 93.9798 8.63268 94.3794 8.63268C99.641 8.63268 104.909 8.63268 110.17 8.63268L110.176 8.62663Z" fill="#fff"/>
<path d="M110.16 17.9148C115.343 17.9148 120.525 17.9148 125.702 17.9148C126.193 17.9148 126.81 17.7756 127.143 18.0178C127.731 18.4416 128.506 19.0834 128.542 19.6707C128.578 20.2641 127.894 21.0149 127.343 21.4751C127.004 21.7536 126.32 21.6567 125.787 21.6567C115.337 21.6628 104.88 21.6628 94.4294 21.6567C93.9874 21.6567 93.5272 21.6688 93.0973 21.578C92.0801 21.3721 91.5352 20.7061 91.5897 19.6768C91.6381 18.6475 92.2375 18.0299 93.279 17.9451C93.9026 17.8906 94.5262 17.9148 95.1559 17.9148C100.157 17.9148 105.164 17.9148 110.166 17.9148H110.16Z" fill="#fff"/>
<path d="M100.718 30.9024C98.3995 30.9024 96.0866 30.9145 93.7676 30.9024C92.375 30.8903 91.6 30.2485 91.5637 29.1223C91.5273 27.9537 92.3508 27.1727 93.7615 27.1666C98.3934 27.1424 103.025 27.1424 107.657 27.1666C109.05 27.1727 109.916 27.984 109.873 29.1223C109.837 30.2122 109.014 30.8963 107.657 30.9024C105.338 30.9206 103.025 30.9024 100.706 30.9024H100.718Z" fill="#fff"/>
</svg>
