<svg width="28" height="28" viewBox="0 0 28 28" fill="none" xmlns="http://www.w3.org/2000/svg">
<path d="M11.84 14.0957L8.76056 12.7903C7.77854 12.3551 6.79248 11.9679 5.81451 11.5371C5.5916 11.4315 5.3478 11.3874 5.10511 11.4087C4.86241 11.43 4.62845 11.5159 4.42433 11.6589C3.21196 12.4465 1.97131 13.2124 0.738736 13.9783C0.628491 14.0672 0.492225 14.1104 0.35482 14.1001C0.225501 14.0566 0.059811 13.8999 0.0476874 13.7737C0.0478254 13.6898 0.06573 13.6069 0.100041 13.5315C0.134353 13.4561 0.184169 13.3902 0.245707 13.3386C0.621541 13.0601 1.0297 12.8295 1.42574 12.5771C2.29865 12.0288 3.17559 11.4892 4.04041 10.9278C4.34457 10.7172 4.6928 10.5917 5.05345 10.5628C5.41409 10.534 5.77573 10.6026 6.10548 10.7625C6.87735 11.0975 7.64922 11.4283 8.42918 11.7416C8.60135 11.8088 8.78764 11.8224 8.96666 11.7807C10.6689 11.3199 12.438 11.2194 14.1758 11.4848C14.9672 11.6328 15.7468 11.8467 16.5076 12.1245C18.4851 12.8799 20.6183 13.0305 22.6704 12.5597C23.2552 12.3872 23.8174 12.1357 24.3435 11.8112C24.7056 11.5681 25.1147 11.4178 25.5393 11.3718C25.9639 11.3258 26.3926 11.3853 26.7925 11.5458C26.8706 11.5787 26.9462 11.618 27.0188 11.6632C27.1113 11.7138 27.1822 11.8008 27.2168 11.9061C27.2514 12.0114 27.247 12.127 27.2047 12.2289C27.157 12.3289 27.0752 12.405 26.9766 12.4415C26.8779 12.478 26.7699 12.472 26.6753 12.4248C26.4608 12.3313 26.239 12.2584 26.0125 12.2072C25.6178 12.1422 25.2148 12.2367 24.881 12.4726C23.5918 13.3821 22.1532 13.6388 20.6539 13.678C19.0228 13.7074 17.4007 13.4124 15.8691 12.8077C14.2557 12.2251 12.538 12.0582 10.8539 12.3203C10.6236 12.3551 10.3973 12.3987 10.1669 12.4378C10.1669 12.4378 10.1669 12.4378 10.1669 12.49C10.2679 12.5379 10.373 12.5945 10.4821 12.638C11.0802 12.8947 11.6945 13.1297 12.2805 13.4039C12.8381 13.6843 13.4473 13.8256 14.0626 13.8173C14.6673 13.8301 15.2523 14.0512 15.7317 14.4482C17.113 15.4642 18.6063 16.2915 20.177 16.9112C21.2985 17.3685 22.4822 17.6243 23.6807 17.6683C24.6966 17.6998 25.704 17.4622 26.6147 16.9765C26.6592 16.9432 26.7095 16.92 26.7626 16.9081C26.8157 16.8962 26.8704 16.8959 26.9236 16.9073C26.9767 16.9187 27.0272 16.9414 27.072 16.9743C27.1169 17.0071 27.1551 17.0493 27.1845 17.0983C27.2157 17.1494 27.2366 17.207 27.2457 17.2673C27.2549 17.3277 27.2521 17.3894 27.2376 17.4485C27.2231 17.5077 27.1972 17.5628 27.1616 17.6104C27.126 17.6581 27.0815 17.6971 27.0309 17.7249C24.6848 19.6342 21.9551 20.9235 19.0616 21.489C16.3489 22.0081 13.5583 21.7776 10.9509 20.8189C8.53161 19.9451 6.05387 19.2715 3.5393 18.8041C2.55588 18.5888 1.54982 18.5185 0.548799 18.5952C0.209336 18.6344 0.0315225 18.4995 0.00323394 18.2253C-0.0250546 17.9512 0.132553 17.7902 0.463933 17.7554C1.52679 17.6679 2.59579 17.7396 3.64033 17.9686C4.38796 18.0948 5.13154 18.2689 5.87109 18.4429C5.93994 18.4637 6.01292 18.4624 6.08111 18.4392C6.14929 18.4161 6.20972 18.372 6.255 18.3124C7.5352 16.8751 9.01096 15.6558 10.6316 14.6963C11.0156 14.4874 11.4076 14.3133 11.84 14.0957ZM6.99859 18.7171L7.27743 18.8041C8.61507 19.2393 9.9608 19.5961 11.2863 20.0486C12.6542 20.5413 14.0773 20.834 15.5175 20.9189C18.4513 21.0245 21.3591 20.295 23.9475 18.8041L24.4122 18.5343C24.3758 18.5038 24.3597 18.4821 24.3475 18.4821H24.1212C23.0802 18.5054 22.042 18.3587 21.0418 18.0469C18.9818 17.4014 17.0309 16.4054 15.2629 15.0966C14.8708 14.8198 14.4248 14.644 13.9594 14.5829C13.4941 14.5218 13.0219 14.5769 12.5795 14.7441C10.369 15.4665 8.69186 17.0417 6.99859 18.7171Z" fill="white"/>
<path d="M27.2291 26.4671C27.2291 26.8544 26.9421 27.0633 26.6673 26.9284C24.4729 25.871 22.1533 25.8014 19.7973 25.9145C17.4274 26.1037 15.0781 26.5217 12.7777 27.1634C11.0457 27.581 9.28431 27.8415 7.51195 27.9423C6.08622 28.0504 4.65408 28.0067 3.23633 27.8118C2.24717 27.6737 1.27787 27.4033 0.350904 27.0067C0.0518536 26.8762 -0.0532182 26.6543 0.0356887 26.4019C0.124596 26.1495 0.346863 26.0929 0.633789 26.2104C2.71906 27.0807 4.89323 27.2243 7.09974 27.1155C9.63199 26.9471 12.1443 26.5261 14.6043 25.8579C17.0928 25.2121 19.6519 24.9369 22.2099 25.0398C23.6914 25.0648 25.1575 25.3682 26.5421 25.9363C26.7088 26.0003 26.8687 26.0835 27.0189 26.1843C27.1019 26.2665 27.1727 26.3619 27.2291 26.4671Z" fill="white"/>
<path d="M18.3748 2.25516C18.9577 2.26076 19.5156 2.51141 19.9293 2.95366C20.3431 3.39591 20.5799 3.99474 20.5894 4.62239C20.5894 5.25715 20.3552 5.8659 19.9384 6.31474C19.5215 6.76358 18.9562 7.01573 18.3667 7.01573C17.7772 7.01573 17.2119 6.76358 16.795 6.31474C16.3782 5.8659 16.144 5.25715 16.144 4.62239C16.1494 3.9903 16.3871 3.38626 16.8053 2.94256C17.2234 2.49886 17.7878 2.25168 18.3748 2.25516ZM18.3748 3.09936C17.9959 3.10268 17.6332 3.26505 17.3637 3.55192C17.0943 3.83879 16.9394 4.22752 16.9321 4.63545C16.9321 4.93851 17.0154 5.2348 17.1714 5.48702C17.3275 5.73923 17.5493 5.93611 17.809 6.05287C18.0688 6.16962 18.3548 6.20104 18.631 6.14317C18.9073 6.0853 19.1615 5.94072 19.3617 5.72763C19.5618 5.51454 19.6989 5.24247 19.7558 4.94565C19.8126 4.64883 19.7867 4.34054 19.6812 4.05957C19.5757 3.7786 19.3954 3.53752 19.1629 3.36666C18.9304 3.19579 18.6562 3.10279 18.3748 3.09936Z" fill="white"/>
<path d="M17.9624 0.749584C17.9542 0.639519 17.9542 0.528932 17.9624 0.418868C17.9988 0.192588 18.0917 0.0228789 18.3342 0.00547282C18.3856 -0.00383524 18.4383 -0.00124761 18.4888 0.0130638C18.5392 0.0273753 18.5863 0.0530829 18.6268 0.0884789C18.6673 0.123875 18.7004 0.168149 18.7238 0.218361C18.7472 0.268572 18.7604 0.323571 18.7625 0.379704C18.7828 0.589461 18.7828 0.800918 18.7625 1.01067C18.7625 1.12608 18.72 1.23677 18.6442 1.31837C18.5684 1.39998 18.4656 1.44583 18.3584 1.44583C18.3018 1.44613 18.2457 1.43361 18.1938 1.40907C18.142 1.38454 18.0955 1.34853 18.0574 1.3034C18.0193 1.25826 17.9904 1.205 17.9726 1.14708C17.9549 1.08915 17.9486 1.02785 17.9543 0.96716C17.9543 0.888832 17.9543 0.806153 17.9543 0.727826L17.9624 0.749584Z" fill="white"/>
<path d="M17.9463 8.53864C17.9388 8.39066 17.9594 8.24258 18.007 8.10349C18.0487 8.03331 18.1031 7.97288 18.167 7.92579C18.2309 7.8787 18.3029 7.8459 18.3787 7.82935C18.4555 7.84332 18.528 7.87715 18.5899 7.92793C18.6519 7.97871 18.7014 8.04493 18.7344 8.1209C18.785 8.38433 18.7932 8.65516 18.7586 8.92158C18.7564 8.97458 18.7438 9.02648 18.7217 9.07391C18.6996 9.12134 18.6684 9.16323 18.6303 9.19688C18.5922 9.23052 18.548 9.25517 18.5005 9.26921C18.4529 9.28326 18.4032 9.28639 18.3545 9.2784C18.2563 9.2723 18.1635 9.22782 18.0936 9.15332C18.0236 9.07881 17.9813 8.9794 17.9746 8.87371C17.9645 8.76374 17.9645 8.65297 17.9746 8.543L17.9463 8.53864Z" fill="white"/>
<path d="M21.9997 5.07503C21.8835 5.07345 21.7675 5.06473 21.6522 5.04893C21.5625 5.04226 21.4786 4.99885 21.4177 4.92763C21.3568 4.85641 21.3236 4.76278 21.3249 4.66599C21.3162 4.6154 21.3175 4.56343 21.3286 4.5134C21.3397 4.46337 21.3603 4.41638 21.3892 4.37543C21.4181 4.33448 21.4547 4.30047 21.4965 4.27557C21.5383 4.25068 21.5844 4.23544 21.632 4.23084C21.8723 4.2004 22.1151 4.2004 22.3554 4.23084C22.4038 4.23437 22.4509 4.24878 22.4939 4.27313C22.5368 4.29748 22.5745 4.33124 22.6046 4.37223C22.6346 4.41322 22.6564 4.46053 22.6685 4.51112C22.6805 4.56172 22.6826 4.61447 22.6746 4.66599C22.676 4.7637 22.643 4.85835 22.5823 4.93099C22.5216 5.00362 22.4377 5.04886 22.3473 5.05763C22.2301 5.07068 22.1089 5.06633 21.9997 5.07503Z" fill="white"/>
<path d="M14.7375 5.07492C14.6364 5.07492 14.5314 5.07492 14.4303 5.07492C14.3447 5.04986 14.2692 4.99517 14.2153 4.91928C14.1614 4.84339 14.1322 4.75052 14.1322 4.65499C14.1322 4.55947 14.1614 4.46659 14.2153 4.3907C14.2692 4.31481 14.3447 4.26012 14.4303 4.23507C14.636 4.21331 14.843 4.21331 15.0486 4.23507C15.0981 4.23443 15.1472 4.24467 15.1929 4.26516C15.2386 4.28566 15.2799 4.31598 15.3144 4.35428C15.3488 4.39257 15.3756 4.43803 15.3931 4.48786C15.4107 4.5377 15.4186 4.59087 15.4164 4.64411C15.4209 4.69991 15.4145 4.7561 15.3976 4.80907C15.3807 4.86204 15.3537 4.9106 15.3183 4.95161C15.2829 4.99262 15.2398 5.02517 15.192 5.04716C15.1442 5.06915 15.0926 5.08009 15.0406 5.07927C14.9395 5.07927 14.8345 5.07927 14.7334 5.07927L14.7375 5.07492Z" fill="white"/>
<path d="M21.5671 1.62845C21.5366 1.72942 21.4945 1.82589 21.4418 1.91566C21.2941 2.09852 21.1348 2.2701 20.9649 2.42914C20.9303 2.46369 20.8896 2.49037 20.8451 2.5076C20.8007 2.52482 20.7535 2.53223 20.7064 2.52939C20.6592 2.52655 20.6131 2.51351 20.5707 2.49105C20.5284 2.46859 20.4906 2.43718 20.4598 2.39867C20.4222 2.36715 20.3911 2.32754 20.3684 2.28237C20.3458 2.2372 20.3322 2.18745 20.3284 2.13629C20.3246 2.08512 20.3307 2.03367 20.3464 1.9852C20.362 1.93673 20.3869 1.8923 20.4194 1.85473C20.5625 1.64961 20.7311 1.46659 20.9205 1.31079C20.984 1.28005 21.0529 1.26416 21.1225 1.26416C21.1922 1.26416 21.2611 1.28005 21.3246 1.31079C21.4216 1.35431 21.4943 1.52402 21.5671 1.62845Z" fill="white"/>
<path d="M16.4387 7.13318C16.4089 7.24343 16.3654 7.34883 16.3094 7.44649C16.1698 7.62069 16.0185 7.78359 15.8567 7.93386C15.8234 7.97318 15.7829 8.00459 15.7376 8.02608C15.6924 8.04756 15.6435 8.05866 15.5941 8.05866C15.5446 8.05866 15.4957 8.04756 15.4505 8.02608C15.4053 8.00459 15.3647 7.97318 15.3314 7.93386C15.2951 7.90101 15.2655 7.86052 15.2443 7.81488C15.2231 7.76924 15.2108 7.71942 15.2082 7.66847C15.2055 7.61753 15.2126 7.56654 15.2289 7.51864C15.2452 7.47073 15.2705 7.42693 15.3031 7.38992C15.4461 7.19245 15.6133 7.01679 15.8002 6.86774C15.8588 6.8344 15.9234 6.81483 15.9895 6.81033C16.0557 6.80583 16.122 6.8165 16.1841 6.84163C16.2932 6.86774 16.3579 7.02875 16.4387 7.13318Z" fill="white"/>
<path d="M20.7064 6.71973C20.8061 6.75796 20.9011 6.8091 20.9893 6.87203C21.1433 7.01627 21.2878 7.17185 21.4217 7.33764C21.4578 7.37426 21.4866 7.41843 21.5062 7.46744C21.5259 7.51646 21.536 7.56928 21.536 7.62267C21.536 7.67605 21.5259 7.72888 21.5062 7.77789C21.4866 7.82691 21.4578 7.87108 21.4217 7.90769C21.3912 7.9495 21.3527 7.9838 21.3088 8.00833C21.265 8.03285 21.2168 8.04702 21.1675 8.04991C21.1181 8.05279 21.0688 8.04431 21.0227 8.02504C20.9767 8.00577 20.935 7.97615 20.9004 7.93815C20.7247 7.79037 20.5683 7.61764 20.4357 7.42467C20.4035 7.35803 20.3847 7.28485 20.3805 7.20988C20.3764 7.1349 20.3869 7.05983 20.4114 6.98952C20.4518 6.86768 20.6135 6.80241 20.7064 6.71973Z" fill="white"/>
<path d="M16.0549 2.5597C15.9517 2.52793 15.8536 2.47951 15.7639 2.4161C15.6076 2.27315 15.4617 2.11749 15.3274 1.95049C15.2909 1.91461 15.2618 1.87092 15.2418 1.82222C15.2219 1.77352 15.2115 1.72087 15.2115 1.66764C15.2115 1.61441 15.2219 1.56176 15.2418 1.51306C15.2618 1.46436 15.2909 1.42067 15.3274 1.38479C15.3619 1.34302 15.4043 1.30958 15.4516 1.28669C15.499 1.26379 15.5503 1.25195 15.6022 1.25195C15.6542 1.25195 15.7055 1.26379 15.7529 1.28669C15.8002 1.30958 15.8425 1.34302 15.8771 1.38479C16.0302 1.50849 16.1663 1.65501 16.2812 1.81994C16.3528 1.96239 16.3716 2.12879 16.3337 2.28556C16.3135 2.40305 16.168 2.47267 16.0549 2.5597Z" fill="white"/>
</svg>
