<svg width="173" height="152" viewBox="0 0 173 152" fill="none" xmlns="http://www.w3.org/2000/svg">
<path d="M158.328 28.957C153.869 30.7441 149.674 32.3531 145.553 34.1575C145.007 34.3989 144.605 35.5999 144.599 36.3642C144.536 46.4723 144.433 56.5861 144.617 66.6942C144.703 71.3489 142.634 74.4635 138.916 76.7851C133.859 79.9399 128.17 81.0662 122.378 81.6869C111.413 82.8534 100.443 82.9511 89.7031 80.1238C86.2494 79.2159 82.928 77.4632 79.8478 75.5898C76.9516 73.8314 75.6586 70.9122 75.6931 67.3551C75.7851 57.1033 75.6931 46.8458 75.7621 36.5941C75.7736 35.008 75.3771 34.215 73.8025 33.6289C68.51 31.6463 63.3037 29.4397 58.0399 27.3709C56.3676 26.7158 55.1034 25.7964 55.0977 23.8541C55.0977 21.9117 56.3619 20.998 58.0284 20.3315C74.7105 13.677 91.3696 6.95934 108.08 0.368104C109.276 -0.103109 110.977 -0.131841 112.166 0.339372C128.883 6.92486 145.536 13.6598 162.235 20.297C164.431 21.1704 165.252 22.5956 165.235 24.9057C165.166 34.3702 165.229 43.8347 165.183 53.3049C165.178 54.7013 165.413 55.5345 166.85 56.2931C170.108 58.017 171.913 60.9707 172.039 64.6657C172.194 69.3204 172.119 73.9866 172.068 78.647C172.039 81.0375 170.706 82.3247 168.275 82.3535C163.902 82.3994 159.529 82.4052 155.156 82.3535C152.765 82.3247 151.484 80.9858 151.455 78.555C151.409 74.0383 151.357 69.5158 151.467 65.0048C151.564 61.0397 153.495 58.109 156.908 56.069C157.518 55.7069 158.259 54.8967 158.265 54.2875C158.357 45.9724 158.322 37.6572 158.322 28.9627L158.328 28.957ZM82.6119 37.1974C82.6119 46.4148 82.6119 55.2989 82.6119 64.183C82.6119 69.8088 83.1578 70.6019 88.4274 72.6246C89.1629 72.9062 89.91 73.1705 90.6685 73.3544C102.052 76.1415 113.54 76.153 125.015 74.2681C128.343 73.7222 131.584 72.3718 134.727 71.0558C136.801 70.1881 137.801 68.4872 137.75 65.9127C137.571 57.1723 137.681 48.4204 137.675 39.6742C137.675 38.9329 137.612 38.1973 137.566 37.2549C129.337 40.5477 121.349 43.6738 113.43 46.9665C111.143 47.9204 109.172 47.9089 106.874 46.9493C98.9607 43.645 90.9673 40.5362 82.6119 37.1917V37.1974ZM142.801 27.733C142.784 27.5835 142.766 27.4399 142.749 27.2905C136.388 27.2905 130.026 27.2905 123.671 27.2905C119.229 27.2905 114.787 27.3249 110.345 27.2675C108.155 27.2388 106.713 25.7791 106.724 23.8253C106.736 21.8715 108.172 20.5211 110.379 20.4119C110.954 20.3832 111.523 20.4062 112.097 20.4062C121.7 20.4062 131.302 20.4062 140.904 20.4062C141.537 20.4062 142.169 20.3429 142.801 20.3142C132.233 15.74 121.682 11.4933 111.103 7.33287C110.419 7.06278 109.408 7.25242 108.678 7.54549C95.7771 12.6599 82.8935 17.8145 70.0098 22.9748C69.4639 23.1932 68.9582 23.5035 68.1537 23.9173C69.2168 24.3885 69.9179 24.7218 70.6362 25.0091C82.9222 29.9224 95.2255 34.7954 107.489 39.7719C109.333 40.5189 110.879 40.5936 112.77 39.8178C122.745 35.7091 132.785 31.7498 142.807 27.7444L142.801 27.733ZM165.212 75.4002C165.212 72.1649 165.212 69.171 165.212 66.1771C165.212 65.8208 165.229 65.4587 165.195 65.1082C165.022 63.1716 163.735 61.781 161.954 61.7465C160.058 61.7063 158.581 62.7004 158.46 64.5278C158.23 68.1251 158.391 71.7454 158.391 75.4002H165.212Z" fill="#fff"/>
<path d="M137.424 103.023C140.734 103.023 144.027 103 147.319 103.029C150.388 103.057 151.842 104.724 151.348 107.7C150.284 114.131 149.198 120.555 148.078 126.974C147.612 129.664 146.561 130.526 143.889 130.554C141.751 130.577 139.613 130.554 137.447 130.554C135.958 138.421 131.993 144.357 125.121 148.213C121.684 150.144 117.966 151.144 114.036 151.184C107.87 151.242 101.709 151.27 95.5433 151.184C89.9979 151.104 85.4352 148.845 81.9413 144.513C78.1486 139.806 73.2871 139.783 69.5289 144.501C66.5694 148.213 62.7365 150.765 58.0646 150.966C50.2781 151.293 42.3939 151.609 34.6706 150.805C23.9534 149.684 16.5116 142.139 14.2245 131.589C14.1671 131.319 14.0981 131.048 13.9832 130.56C11.7708 130.56 9.56986 130.589 7.3632 130.554C4.94967 130.52 3.81761 129.595 3.40386 127.216C2.2718 120.728 1.17422 114.228 0.0996232 107.729C-0.400322 104.695 0.990331 103.063 4.07046 103.034C7.3632 103.006 10.6559 103.029 14.0464 103.029C15.2187 98.4198 17.5747 94.6961 21.5398 92.0987C24.3671 90.2483 27.476 89.2657 30.8606 89.2657C60.7482 89.2542 90.6358 89.2369 120.529 89.2772C128.149 89.2886 134.499 94.0582 136.855 101.293C137.027 101.833 137.205 102.368 137.418 103.029L137.424 103.023ZM75.6834 96.1385C60.9896 96.1385 46.29 96.127 31.5962 96.1385C25.0222 96.1442 20.6893 100.483 20.6721 107.051C20.6491 113.573 20.6434 120.101 20.6721 126.624C20.7181 136.841 28.1138 144.26 38.3081 144.317C43.8995 144.352 49.4908 144.283 55.0822 144.334C59.0243 144.369 62.0986 142.829 64.5581 139.754C70.7931 131.968 80.6828 131.997 86.9695 139.823C89.4405 142.904 92.5379 144.38 96.4742 144.334C101.991 144.271 107.513 144.334 113.036 144.317C123.368 144.271 130.752 136.875 130.798 126.526C130.827 120.147 130.815 113.763 130.798 107.384C130.787 100.368 126.563 96.1327 119.558 96.1327C104.933 96.127 90.3082 96.1327 75.6834 96.1327V96.1385ZM7.5356 109.97C8.32287 114.648 9.07566 119.13 9.81696 123.544H13.6269V109.97H7.5356ZM143.906 110.085H137.797V123.595H141.642C142.395 119.107 143.136 114.677 143.9 110.085H143.906Z" fill="#fff"/>
<path d="M34.4074 102.949C34.4476 104.805 32.9133 106.408 31.0572 106.448C29.1953 106.488 27.6035 104.96 27.5633 103.092C27.5231 101.225 29.0401 99.6387 30.9135 99.5984C32.7754 99.5582 34.3671 101.081 34.4074 102.949Z" fill="#fff"/>
<path d="M41.2044 106.449C39.3368 106.392 37.8254 104.783 37.8886 102.921C37.9461 101.047 39.5494 99.5418 41.4112 99.5992C43.2789 99.6567 44.7902 101.266 44.7327 103.128C44.6753 104.989 43.0605 106.512 41.2044 106.449Z" fill="#fff"/>
<path d="M55.0612 103.071C55.0324 104.933 53.4464 106.478 51.5845 106.444C49.7169 106.415 48.1826 104.835 48.2113 102.967C48.2401 101.094 49.8146 99.5654 51.6822 99.5941C53.5498 99.6229 55.0842 101.203 55.0554 103.065L55.0612 103.071Z" fill="#fff"/>
</svg>

