<svg width="145" height="191" viewBox="0 0 178 157" fill="none" xmlns="http://www.w3.org/2000/svg">
<path d="M163.737 30.4014C159.129 32.248 154.795 33.9106 150.537 35.7751C149.973 36.0245 149.557 37.2655 149.551 38.0552C149.486 48.4998 149.379 58.9503 149.569 69.3949C149.658 74.2045 147.521 77.4228 143.679 79.8216C138.454 83.0815 132.575 84.2453 126.59 84.8866C115.261 86.0919 103.925 86.1929 92.8277 83.2715C89.2591 82.3333 85.8271 80.5223 82.6444 78.5866C79.6517 76.7696 78.3157 73.7532 78.3514 70.0777C78.4464 59.4847 78.3514 48.8857 78.4226 38.2927C78.4345 36.6539 78.0248 35.8344 76.3978 35.2288C70.9291 33.1802 65.5495 30.9001 60.1105 28.7625C58.3826 28.0856 57.0763 27.1356 57.0703 25.1286C57.0703 23.1216 58.3766 22.1775 60.0986 21.4887C77.336 14.6128 94.5497 7.67148 111.817 0.860827C113.052 0.373928 114.809 0.344239 116.039 0.831138C133.312 7.63585 150.519 14.5949 167.775 21.4531C170.043 22.3556 170.892 23.8282 170.874 26.2152C170.803 35.9948 170.868 45.7743 170.821 55.5598C170.815 57.0027 171.058 57.8637 172.543 58.6475C175.909 60.4288 177.774 63.4808 177.904 67.2988C178.065 72.1084 177.988 76.9299 177.934 81.7455C177.904 84.2156 176.527 85.5457 174.015 85.5754C169.497 85.6229 164.978 85.6288 160.459 85.5754C157.989 85.5457 156.665 84.1622 156.635 81.6505C156.588 76.9834 156.534 72.3103 156.647 67.6492C156.748 63.5521 158.743 60.5238 162.27 58.4159C162.9 58.0418 163.666 57.2046 163.672 56.5752C163.767 47.9832 163.731 39.3912 163.731 30.4073L163.737 30.4014ZM85.5005 38.9162C85.5005 48.4404 85.5005 57.6202 85.5005 66.8C85.5005 72.6132 86.0646 73.4326 91.5095 75.5227C92.2696 75.8136 93.0415 76.0868 93.8253 76.2768C105.588 79.1566 117.458 79.1685 129.315 77.2209C132.753 76.6568 136.102 75.2614 139.35 73.9016C141.494 73.005 142.527 71.2475 142.474 68.5873C142.29 59.5559 142.402 50.5127 142.396 41.4753C142.396 40.7094 142.331 39.9493 142.284 38.9755C133.781 42.3779 125.527 45.6081 117.345 49.0104C114.982 49.9961 112.945 49.9842 110.57 48.9926C102.394 45.5784 94.134 42.366 85.5005 38.9102V38.9162ZM147.693 29.1366C147.675 28.9822 147.657 28.8338 147.64 28.6794C141.066 28.6794 134.493 28.6794 127.926 28.6794C123.336 28.6794 118.746 28.715 114.156 28.6556C111.894 28.626 110.404 27.1178 110.415 25.0989C110.427 23.0801 111.912 21.6847 114.192 21.5719C114.786 21.5422 115.374 21.5659 115.967 21.5659C125.889 21.5659 135.811 21.5659 145.733 21.5659C146.387 21.5659 147.04 21.5006 147.693 21.4709C136.773 16.7444 125.872 12.3564 114.94 8.05744C114.233 7.77836 113.188 7.97431 112.434 8.27713C99.104 13.5618 85.7914 18.888 72.4789 24.2201C71.9148 24.4458 71.3923 24.7664 70.561 25.1939C71.6595 25.6808 72.3839 26.0252 73.1261 26.3221C85.8211 31.3989 98.5339 36.4342 111.205 41.5763C113.111 42.3482 114.708 42.4254 116.662 41.6238C126.97 37.3783 137.343 33.2871 147.699 29.1485L147.693 29.1366ZM170.85 78.3906C170.85 75.0476 170.85 71.9541 170.85 68.8605C170.85 68.4923 170.868 68.1182 170.833 67.756C170.654 65.755 169.324 64.3181 167.484 64.2824C165.524 64.2409 163.998 65.2681 163.873 67.1563C163.636 70.8734 163.802 74.6142 163.802 78.3906H170.85Z" fill="white"/>
<path d="M142.135 106.932C145.555 106.932 148.958 106.909 152.36 106.938C155.531 106.968 157.033 108.69 156.522 111.766C155.424 118.41 154.302 125.049 153.144 131.681C152.663 134.46 151.576 135.351 148.815 135.38C146.606 135.404 144.397 135.38 142.159 135.38C140.621 143.509 136.524 149.643 129.422 153.627C125.872 155.622 122.03 156.655 117.968 156.697C111.597 156.756 105.232 156.786 98.8605 156.697C93.1305 156.614 88.4159 154.28 84.8057 149.803C80.8868 144.94 75.8634 144.916 71.9801 149.791C68.9221 153.627 64.9616 156.264 60.1342 156.471C52.0885 156.81 43.9418 157.136 35.9614 156.305C24.8874 155.147 17.198 147.351 14.8348 136.449C14.7754 136.17 14.7041 135.891 14.5854 135.386C12.2993 135.386 10.0251 135.416 7.74503 135.38C5.25116 135.345 4.08141 134.389 3.65389 131.93C2.48414 125.227 1.35003 118.511 0.239658 111.795C-0.27693 108.66 1.16002 106.974 4.34268 106.944C7.74503 106.915 11.1474 106.938 14.6507 106.938C15.862 102.176 18.2965 98.3285 22.3936 95.6446C25.315 93.7326 28.5273 92.7173 32.0247 92.7173C62.9072 92.7054 93.7896 92.6876 124.678 92.7292C132.552 92.741 139.113 97.6694 141.547 105.145C141.725 105.703 141.91 106.255 142.129 106.938L142.135 106.932ZM78.3395 99.8189C63.1565 99.8189 47.9677 99.807 32.7847 99.8189C25.9919 99.8248 21.5148 104.308 21.497 111.095C21.4732 117.834 21.4673 124.579 21.497 131.319C21.5445 141.876 29.1864 149.542 39.7201 149.601C45.4975 149.637 51.275 149.566 57.0525 149.619C61.1258 149.655 64.3025 148.063 66.8439 144.887C73.2864 136.841 83.5054 136.871 90.0013 144.958C92.5546 148.141 95.755 149.667 99.8224 149.619C105.523 149.554 111.229 149.619 116.935 149.601C127.611 149.554 135.241 141.912 135.289 131.218C135.319 124.627 135.307 118.03 135.289 111.439C135.277 104.189 130.913 99.813 123.675 99.813C108.563 99.807 93.4512 99.813 78.3395 99.813V99.8189ZM7.92317 114.111C8.73664 118.945 9.51449 123.576 10.2805 128.136H14.2172V114.111H7.92317ZM148.833 114.23H142.521V128.19H146.493C147.271 123.552 148.037 118.974 148.827 114.23H148.833Z" fill="white"/>
<path d="M35.6899 106.857C35.7315 108.775 34.1461 110.432 32.2282 110.473C30.3043 110.515 28.6596 108.935 28.618 107.006C28.5764 105.076 30.144 103.437 32.0797 103.395C34.0036 103.354 35.6483 104.927 35.6899 106.857Z" fill="white"/>
<path d="M42.7132 110.474C40.7835 110.415 39.2218 108.752 39.2871 106.828C39.3465 104.892 41.0032 103.337 42.927 103.396C44.8568 103.456 46.4184 105.118 46.3591 107.042C46.2997 108.966 44.6312 110.539 42.7132 110.474Z" fill="white"/>
<path d="M57.0314 106.983C57.0017 108.907 55.3629 110.505 53.439 110.469C51.5092 110.439 49.9238 108.806 49.9535 106.877C49.9832 104.941 51.6102 103.361 53.54 103.391C55.4697 103.421 57.0551 105.054 57.0255 106.977L57.0314 106.983Z" fill="white"/>
</svg>
