<svg width="28" height="30" viewBox="0 0 28 30" fill="none" xmlns="http://www.w3.org/2000/svg">
<path d="M19.251 0C19.4678 0.0499692 19.7027 0.0953958 19.897 0.149908C20.7513 0.360993 21.5323 0.802315 22.1558 1.42639L27.7713 7.07746C28.074 7.38182 28.0785 7.60895 27.7713 7.90877C26.8949 8.7961 26.0169 9.67889 25.1375 10.5571C24.8348 10.8615 24.627 10.8615 24.3108 10.5571L20.4301 7.01386L20.0551 6.68225C20.0551 7.13651 20.028 7.59078 20.0551 7.98599C20.1621 8.9598 19.9731 9.94336 19.513 10.807C18.9709 11.7837 19.147 12.833 19.1245 13.8642C19.1283 13.9233 19.1453 13.9807 19.1742 14.0323C19.8053 15.4187 20.1393 16.9231 20.1545 18.4477C20.2629 21.9955 20.3939 25.5479 20.5114 29.0957C20.5385 29.9179 20.4707 29.9725 19.653 29.9725H16.4907C16.0118 29.9725 15.8988 29.8861 15.804 29.4092C15.2889 26.9349 14.7769 24.4577 14.268 21.9774C14.1919 21.5635 14.0831 21.1564 13.9427 20.7599C13.8388 21.2642 13.7303 21.7684 13.6264 22.2726L12.1808 29.4364C12.0814 29.8907 11.973 29.9861 11.4805 29.9861H8.07422C7.62245 29.9861 7.47337 29.8316 7.48692 29.3864C7.55619 27.3604 7.62546 25.3223 7.69473 23.272C7.75798 21.455 7.82424 19.6379 7.89351 17.8208C7.94833 16.5911 8.22861 15.3822 8.72025 14.2549C8.80949 14.0237 8.86283 13.7801 8.87837 13.5326C9.00487 12.3938 8.79262 11.2429 8.26848 10.2255C8.01325 9.70931 7.90237 9.13305 7.94772 8.55837C7.97483 7.95874 7.94772 7.35456 7.94772 6.69588C7.82123 6.80036 7.73087 6.8685 7.64956 6.94572L3.73273 10.5435C3.3668 10.8751 3.18157 10.8706 2.8292 10.5435C1.96782 9.6804 1.10947 8.8173 0.254119 7.95419C-0.0847064 7.61349 -0.0847064 7.40907 0.254119 7.04566C2.20274 5.1438 4.1333 3.24043 6.04578 1.33554C6.73951 0.646496 7.63362 0.197762 8.59827 0.0545119C8.65535 0.0408806 8.71125 0.0226511 8.76542 0L11.851 0C11.9719 0.139919 12.0779 0.292169 12.1672 0.454266C12.3256 0.90774 12.623 1.299 13.0166 1.57176C14.0601 2.27133 15.3386 1.75801 15.8266 0.522406C15.9208 0.336697 16.0344 0.161579 16.1654 0L19.251 0ZM19.5582 29.0367C19.5582 28.9822 19.5582 28.9549 19.5582 28.9276C19.4317 25.2208 19.3142 21.514 19.1742 17.8072C19.123 16.7339 18.8669 15.6805 18.4197 14.7046C18.3836 14.6319 18.2977 14.532 18.2345 14.532C17.6833 14.532 17.1367 14.532 16.5584 14.532C16.6171 14.691 16.6714 14.8045 16.7075 14.9226C16.972 15.5032 17.1676 16.1131 17.2903 16.7397C17.4258 18.1752 17.6065 19.6107 17.742 21.0416C17.7457 21.114 17.7332 21.1863 17.7054 21.2532C17.6777 21.32 17.6354 21.3799 17.5817 21.4282C17.528 21.4765 17.4642 21.5122 17.395 21.5325C17.3258 21.5529 17.253 21.5574 17.1819 21.5458C16.9018 21.4822 16.843 21.2505 16.8159 21.0098C16.712 20.0195 16.6126 19.0337 16.5087 18.0434C16.4816 17.789 16.4455 17.5347 16.4093 17.2394C15.822 17.6301 15.2844 17.998 14.7378 18.3478C14.6699 18.3788 14.616 18.4342 14.5867 18.5031C14.5575 18.5721 14.5549 18.6496 14.5797 18.7203C14.8056 19.7696 15.0314 20.819 15.2302 21.8638C15.7121 24.1896 16.197 26.514 16.6849 28.8368C16.6849 28.9186 16.7933 29.0367 16.8611 29.0412C17.1276 29.0412 17.3987 29.0412 17.6743 29.0412C17.5162 27.5058 17.358 26.0022 17.1999 24.4986C17.1638 24.1533 17.3129 23.9216 17.5884 23.8853C17.6542 23.8764 17.7211 23.8814 17.7848 23.8998C17.8486 23.9183 17.9078 23.9499 17.9588 23.9926C18.0098 24.0353 18.0514 24.0882 18.0809 24.1479C18.1105 24.2077 18.1274 24.2729 18.1306 24.3396C18.2164 25.1164 18.2932 25.8931 18.3745 26.6699C18.4558 27.4467 18.5417 28.2144 18.6275 29.0003L19.5582 29.0367ZM9.65992 2.34401C9.47018 1.917 9.29399 1.53996 9.13587 1.15383C9.12826 1.12155 9.11397 1.09125 9.09393 1.06489C9.07389 1.03853 9.04856 1.01672 9.01957 1.00086C8.99059 0.985004 8.95861 0.975464 8.92572 0.972861C8.89283 0.970259 8.85976 0.974653 8.82867 0.985757C8.00372 1.09034 7.23724 1.46931 6.65115 2.06237L1.46034 7.19557C1.35683 7.28709 1.24659 7.37061 1.13055 7.44541L1.95277 8.24946L3.38487 6.88667C3.62431 6.66408 3.83664 6.4324 4.1077 6.20981C4.15219 6.16716 4.20461 6.13374 4.26195 6.11145C4.31929 6.08917 4.38043 6.07846 4.44189 6.07993C4.50335 6.08141 4.56392 6.09504 4.62013 6.12006C4.67635 6.14507 4.72712 6.18097 4.76954 6.22571C4.81196 6.27045 4.8452 6.32316 4.86736 6.38082C4.88952 6.43847 4.90017 6.49996 4.8987 6.56175C4.89723 6.62355 4.88368 6.68445 4.8588 6.74098C4.83393 6.79751 4.79822 6.84856 4.75373 6.89121C4.68783 6.9613 4.61847 7.02801 4.54591 7.09109L2.64397 8.89907L3.33969 9.62135C4.73565 8.34032 6.15421 7.05929 7.54113 5.75555C7.91432 5.38967 8.37002 5.12004 8.86933 4.96967C9.43404 4.80613 9.9852 4.59717 10.568 4.40183C10.4099 4.04751 10.2743 3.71589 10.1162 3.39791C10.0887 3.36396 10.0544 3.33628 10.0154 3.3167C9.97647 3.29713 9.93383 3.28609 9.89032 3.28434C9.54119 3.26617 9.19136 3.26617 8.84222 3.28434C8.69399 3.29659 8.55333 3.35539 8.44015 3.45242C7.69022 4.13836 6.94932 4.84701 6.18131 5.54204C6.13487 5.59521 6.07833 5.63851 6.01503 5.66942C5.95172 5.70032 5.88291 5.7182 5.81264 5.72201C5.74236 5.72582 5.67204 5.71548 5.6058 5.69159C5.53955 5.66771 5.47872 5.63076 5.42686 5.58293C5.24163 5.38759 5.28229 5.1014 5.53077 4.86519C6.34847 4.08839 7.16617 3.3116 8.00194 2.54843C8.13997 2.43313 8.31077 2.36474 8.48984 2.3531C8.87385 2.32584 9.23978 2.34401 9.65992 2.34401ZM9.38886 29.0367C9.4747 28.2599 9.56053 27.5103 9.63733 26.7653C9.80449 25.2345 9.96261 23.7036 10.1252 22.1727C10.2879 20.6418 10.4686 19.0337 10.6357 17.4665C10.665 16.7257 10.832 15.9969 11.1282 15.3178C11.2471 15.0631 11.3526 14.8023 11.4444 14.5365C10.8752 14.5365 10.3511 14.5365 9.83159 14.5365C9.78388 14.5406 9.73779 14.5559 9.697 14.5812C9.65621 14.6064 9.62185 14.6409 9.59667 14.6819C9.2037 15.51 8.96193 16.4025 8.88288 17.3166C8.79705 18.6431 8.75639 19.9695 8.70669 21.2914C8.63441 23.3296 8.56363 25.3662 8.49436 27.4013C8.49436 27.9419 8.49436 28.487 8.49436 29.0367H9.38886ZM13.4819 18.4886L11.598 17.2303L10.3376 29.073C10.5951 29.073 10.83 29.073 11.0604 29.073C11.2908 29.073 11.3044 29.0276 11.345 28.8413C11.5754 27.6784 11.8239 26.5155 12.0633 25.3571C12.5377 23.0631 13.0075 20.7872 13.4819 18.4886ZM10.071 0.935787C10.5499 2.02148 11.0017 3.05267 11.467 4.08839C11.4951 4.12752 11.5316 4.15971 11.5739 4.18254C11.6161 4.20536 11.663 4.21822 11.7109 4.22013C13.2439 4.22013 14.7754 4.22013 16.3054 4.22013C16.3576 4.21513 16.4079 4.19821 16.4525 4.17065C16.4971 4.14309 16.5349 4.10563 16.5629 4.06114C17.0147 3.07992 17.4394 2.08962 17.8731 1.10387C17.8731 1.06298 17.8731 1.01756 17.9182 0.944873C17.5839 0.944873 17.2767 0.944873 16.9695 0.944873C16.8811 0.932759 16.7913 0.951978 16.7154 0.999229C16.6396 1.04648 16.5825 1.11881 16.5539 1.2038C16.2808 1.78516 15.8166 2.25399 15.2397 2.53122C14.6628 2.80845 14.0084 2.8771 13.387 2.72559C12.9588 2.63131 12.5585 2.4376 12.218 2.15995C11.8776 1.8823 11.6065 1.52841 11.4263 1.12658C11.4044 1.07859 11.3725 1.03591 11.3328 1.00142C11.293 0.966929 11.2463 0.941447 11.1959 0.926702C10.8571 0.908531 10.4821 0.935787 10.071 0.935787ZM18.3565 2.34401C18.763 2.34401 19.1109 2.34401 19.4588 2.34401C19.5646 2.33794 19.6706 2.35465 19.7695 2.39304C19.8685 2.43142 19.9581 2.4906 20.0325 2.5666C21.6047 4.05962 23.1813 5.5481 24.7625 7.03203L26.0546 8.24038L26.8361 7.49538L26.669 7.29551L21.5776 2.18502C20.937 1.50782 20.0763 1.08394 19.1516 0.990299C19.1088 0.986685 19.0658 0.992998 19.0258 1.00875C18.9859 1.0245 18.9501 1.04927 18.9212 1.08115C18.7269 1.48545 18.5372 1.89429 18.3565 2.34401ZM9.82708 13.5689H18.1803V12.2061H9.82708V13.5689ZM12.0859 7.94511H15.5103L16.1925 5.16954H11.7606L12.0859 7.94511ZM25.3905 8.91724C23.4268 7.07292 21.4691 5.2286 19.5175 3.38428C19.4473 3.32245 19.3578 3.28711 19.2645 3.28434C18.885 3.28434 18.5055 3.28434 18.1261 3.28434C18.0825 3.28754 18.0402 3.30015 18.002 3.32132C17.9638 3.34249 17.9306 3.37172 17.9047 3.40699C17.7646 3.67955 17.6517 3.96574 17.5162 4.2701C18.1938 4.55174 18.8715 4.81067 19.513 5.10595C19.7699 5.21976 20.0076 5.37301 20.2177 5.56021C21.0083 6.25524 21.7944 6.98661 22.6031 7.72252L24.7083 9.64406L25.3905 8.91724ZM16.2241 16.2173C16.0118 15.6813 15.8085 15.1588 15.5871 14.6455C15.5671 14.6121 15.5395 14.5839 15.5065 14.5634C15.4735 14.5428 15.4361 14.5305 15.3974 14.5274C14.4788 14.5335 13.5572 14.5365 12.6326 14.5365C12.5648 14.5365 12.4609 14.5683 12.4428 14.6137C12.2169 15.1498 11.991 15.6903 11.7923 16.2264C12.5061 16.6806 13.1882 17.1667 13.8794 17.621C13.9148 17.6376 13.9533 17.6462 13.9924 17.6462C14.0314 17.6462 14.07 17.6376 14.1053 17.621C14.8101 17.1712 15.5103 16.6988 16.2241 16.2173ZM15.3748 11.234V8.92632H12.1582V11.234H15.3748ZM19.129 8.76279C19.129 7.94511 19.1019 7.17286 19.129 6.40515C19.1432 6.33306 19.1427 6.25881 19.1274 6.18694C19.1122 6.11506 19.0825 6.04707 19.0402 5.98712C18.9979 5.92717 18.9439 5.87652 18.8815 5.83827C18.8191 5.80001 18.7496 5.77496 18.6772 5.76463C18.1577 5.59201 17.6607 5.36488 17.1412 5.16046L16.4455 8.08593L19.129 8.76279ZM10.8164 5.31945C10.1975 5.52387 9.61926 5.71466 9.04552 5.91908C9.00622 5.93632 8.97146 5.96255 8.94401 5.99567C8.91656 6.02879 8.89718 6.0679 8.8874 6.10987C8.8874 6.97752 8.8874 7.84517 8.8874 8.74461L11.1462 8.08593L10.8164 5.31945ZM18.9483 9.69857L16.3461 9.04443V11.2476C16.9786 11.2476 17.5884 11.2476 18.1983 11.2476C18.2364 11.2425 18.2727 11.2283 18.3041 11.2062C18.3356 11.1841 18.3613 11.1546 18.379 11.1204C18.5869 10.6525 18.763 10.1937 18.9618 9.69857H18.9483ZM9.05004 9.68495C9.2443 10.171 9.42049 10.6344 9.61023 11.0886C9.63733 11.1522 9.7051 11.2385 9.75479 11.2385C10.2382 11.2385 10.7171 11.2385 11.1914 11.2385V9.08531L9.05004 9.68495Z" fill="white"/>
<path d="M17.439 23.1903C17.3192 23.1945 17.2027 23.1507 17.115 23.0685C17.0273 22.9863 16.9757 22.8724 16.9715 22.7519C16.9673 22.6315 17.0109 22.5142 17.0926 22.4261C17.1744 22.3379 17.2876 22.286 17.4074 22.2818C17.4668 22.2797 17.5259 22.2894 17.5815 22.3103C17.6371 22.3312 17.6881 22.3629 17.7315 22.4036C17.7749 22.4443 17.8099 22.4932 17.8346 22.5475C17.8592 22.6018 17.8729 22.6605 17.875 22.7201C17.8771 22.7798 17.8675 22.8393 17.8467 22.8952C17.8259 22.9511 17.7943 23.0024 17.7539 23.046C17.7134 23.0897 17.6647 23.1249 17.6107 23.1496C17.5567 23.1744 17.4984 23.1882 17.439 23.1903Z" fill="white"/>
</svg>
