<svg width="67" height="69" viewBox="0 0 67 69" fill="none" xmlns="http://www.w3.org/2000/svg">
<path d="M41.4175 16.3316C40.749 14.4794 40.0805 12.7847 39.4496 11.0251C39.1389 10.1731 38.9035 9.29331 38.574 8.4413C38.3647 7.4959 38.5168 6.5078 39.0012 5.66569C39.4856 4.82358 40.2684 4.18647 41.2001 3.87604C42.1318 3.56561 43.1471 3.6036 44.0521 3.98277C44.9571 4.36194 45.6884 5.0557 46.1063 5.93158C47.1232 8.46909 48.0648 11.0344 49.0346 13.5811C49.5995 15.0536 50.1644 16.5076 50.7105 17.9801C50.9888 18.5978 51.1106 19.2727 51.0654 19.9469C51.0202 20.621 50.8094 21.2744 50.4511 21.8508C50.0928 22.4272 49.5977 22.9096 49.0083 23.2564C48.4188 23.6033 47.7526 23.8043 47.0667 23.8423C44.5246 24.1664 41.973 24.4535 39.4214 24.7684C38.0185 24.9258 37.5948 25.3889 37.5383 26.778C37.5383 29.6304 37.5383 32.492 37.4535 35.3536C37.3296 38.163 37.6471 40.9744 38.3951 43.6885C38.5175 44.1701 38.6211 44.6609 38.7529 45.2443C39.0542 45.0776 39.2896 44.9573 39.5155 44.8091L44.5716 41.6696C45.0672 41.3251 45.6285 41.0825 46.2217 40.9563C46.8149 40.8302 47.4279 40.8231 48.0239 40.9355C48.62 41.048 49.1868 41.2775 49.6905 41.6105C50.1942 41.9435 50.6244 42.3731 50.9553 42.8735C51.2931 43.3763 51.5251 43.9406 51.6375 44.533C51.7499 45.1255 51.7404 45.7341 51.6096 46.3229C51.4788 46.9116 51.2294 47.4687 50.8761 47.961C50.5227 48.4534 50.0726 48.8711 49.5524 49.1895C48.7992 49.6803 48.0459 50.1156 47.2833 50.6342C47.1476 50.7411 46.991 50.8195 46.8233 50.8645C46.6556 50.9095 46.4802 50.9201 46.3082 50.8958C46.1361 50.8715 45.9709 50.8128 45.8228 50.7232C45.6747 50.6336 45.5469 50.515 45.4473 50.3749C45.3458 50.2347 45.2763 50.0745 45.2435 49.9054C45.2108 49.7363 45.2156 49.5623 45.2577 49.3952C45.2997 49.228 45.3779 49.0718 45.487 48.9373C45.5961 48.8027 45.7335 48.6928 45.8898 48.6153C46.5865 48.143 47.3021 47.6892 48.0083 47.2354C49.2323 46.4297 49.5618 45.2999 48.8933 44.2627C48.7296 44.0196 48.5153 43.8134 48.2646 43.6576C48.014 43.5018 47.7327 43.4 47.4391 43.3589C47.1456 43.3178 46.8466 43.3383 46.5617 43.419C46.2768 43.4998 46.0125 43.639 45.7862 43.8274C43.5265 45.2351 41.2856 46.6613 39.0259 48.0689C37.7925 48.8469 36.9922 48.532 36.6815 47.1428C36.1448 44.772 35.6364 42.4012 35.1373 40.0397C35.0529 39.6626 35.0118 39.2774 35.0149 38.8913C35.0149 34.9215 35.0149 30.9485 35.0149 26.9725C35.0149 24.0368 36.3614 22.6383 39.3366 22.342C41.86 22.0734 44.3833 21.7586 46.869 21.4159C47.1345 21.3987 47.3923 21.3209 47.6219 21.1887C47.8515 21.0565 48.0467 20.8735 48.192 20.6543C48.3372 20.435 48.4286 20.1855 48.4588 19.9255C48.489 19.6654 48.4573 19.4021 48.3661 19.1562C46.8408 15.0351 45.2684 10.9232 43.6583 6.82064C43.589 6.63343 43.4815 6.46212 43.3424 6.31723C43.2034 6.17233 43.0357 6.05689 42.8497 5.97798C42.6637 5.89907 42.4633 5.85837 42.2607 5.85835C42.0581 5.85833 41.8577 5.89901 41.6717 5.97789C41.4807 6.05452 41.3073 6.16825 41.162 6.31227C41.0167 6.45629 40.9024 6.62765 40.8259 6.81611C40.7494 7.00456 40.7124 7.20625 40.717 7.40911C40.7215 7.61197 40.7676 7.81184 40.8525 7.99678C41.8631 10.7751 42.88 13.5534 43.9031 16.3316C44.4775 17.8967 44.1009 18.4709 42.4437 18.6839C40.2782 18.9618 38.1315 19.4155 35.9565 19.5359C34.5286 19.5516 33.1046 19.3867 31.7195 19.0451C29.1303 18.5265 26.5504 17.9338 23.9989 17.2855C23.2573 17.0906 22.5733 16.7256 22.0028 16.2205C19.3548 13.5892 17.6382 10.1895 17.1067 6.52428C16.9655 5.81119 16.8714 5.07958 16.7866 4.34796C16.7433 3.81529 16.4871 3.32121 16.0742 2.97403C15.6612 2.62684 15.1251 2.45485 14.5834 2.49577C14.3013 2.49933 14.0234 2.56339 13.769 2.68347C13.5147 2.80355 13.29 2.97676 13.1107 3.19102C12.9314 3.40528 12.8018 3.65543 12.731 3.92403C12.6601 4.19263 12.6496 4.4732 12.7003 4.74618C13.2053 7.08584 13.8338 9.39804 14.5834 11.6734C15.8281 15.2831 17.9784 18.5256 20.8353 21.101C21.4614 21.6668 21.9543 22.3602 22.2795 23.1328C22.6048 23.9054 22.7546 24.7386 22.7184 25.5741C22.7184 26.4353 22.7184 27.2966 22.7184 28.1579C22.726 28.3226 22.6995 28.4871 22.6404 28.6414C22.5812 28.7957 22.4908 28.9365 22.3744 29.0553C22.2581 29.174 22.1184 29.2682 21.9639 29.332C21.8093 29.3959 21.6431 29.4281 21.4755 29.4266C21.14 29.4122 20.8239 29.2677 20.5963 29.0248C20.3687 28.7818 20.2482 28.4602 20.2609 28.1301C20.2631 26.9948 20.2034 25.8603 20.082 24.7313C19.9872 24.0838 19.6835 23.4832 19.2158 23.018C14.7811 19.0544 12.3613 13.9979 10.8643 8.43204C10.5724 7.35777 10.3653 6.26498 10.1487 5.17218C10.0341 4.56606 10.0519 3.94288 10.2011 3.34407C10.3503 2.74526 10.6273 2.18455 11.0139 1.69922C11.4004 1.21389 11.8876 0.815066 12.443 0.529262C12.9984 0.243457 13.6093 0.0772235 14.235 0.0416148C14.829 -0.039762 15.4337 -0.00152686 16.0122 0.153998C16.5907 0.309523 17.1311 0.579092 17.6004 0.946332C18.0698 1.31357 18.4583 1.77082 18.7425 2.2903C19.0267 2.80979 19.2005 3.38066 19.2535 3.96826C19.514 7.23166 20.6406 10.3707 22.5206 13.0718C23.6222 14.6276 25.157 15.0721 26.88 15.4148C29.2715 15.8871 31.5877 16.5909 34.0169 16.9521C35.4144 17.0626 36.8201 17.016 38.2068 16.8132C39.2236 16.7206 40.2311 16.5076 41.4175 16.3316Z" fill="black"/>
<path d="M22.8017 35.4463C23.1689 37.743 22.2462 39.8174 21.653 41.9289C20.0995 47.5781 19.8264 53.2366 21.7283 58.8765C22.4153 60.8932 23.4055 62.7974 24.666 64.5257C24.8184 64.7677 25.0185 64.9772 25.2547 65.1418C25.4908 65.3064 25.7581 65.4228 26.0407 65.4841C26.3233 65.5454 26.6156 65.5504 26.9002 65.4987C27.1848 65.447 27.456 65.3397 27.6977 65.1832C27.9574 65.0422 28.1862 64.852 28.3709 64.6237C28.5556 64.3954 28.6926 64.1334 28.774 63.8528C28.8553 63.5722 28.8795 63.2786 28.8451 62.9888C28.8107 62.6989 28.7183 62.4187 28.5734 62.1641C27.507 60.1274 26.5485 58.0378 25.7017 55.9037C24.1746 51.7527 24.1215 47.2155 25.551 43.031C25.7019 42.5638 25.9478 42.1317 26.2739 41.761C26.6 41.3903 26.9993 41.0887 27.4477 40.8747C27.8961 40.6607 28.384 40.5387 28.8819 40.5162C29.3797 40.4936 29.877 40.571 30.3435 40.7435C30.9053 40.9407 31.4027 41.2828 31.7838 41.7342C32.1648 42.1856 32.4153 42.7294 32.509 43.3088C32.9986 45.9945 33.4506 48.6802 33.9025 51.3751C34.3074 53.8478 36.3411 54.7646 38.4879 53.3847C39.4294 52.7643 40.371 52.1345 41.3878 51.5325C42.1976 51.0232 42.9225 51.1158 43.3462 51.7641C43.4363 51.9174 43.4929 52.0875 43.5126 52.2635C43.5323 52.4395 43.5146 52.6176 43.4606 52.7866C43.4066 52.9555 43.3175 53.1115 43.1989 53.2448C43.0804 53.378 42.9349 53.4856 42.7719 53.5607C41.6326 54.3016 40.5028 55.0424 39.3447 55.7463C38.5913 56.2023 37.732 56.4616 36.8482 56.4996C35.9645 56.5376 35.0854 56.3532 34.2944 55.9637C33.5034 55.5742 32.8265 54.9926 32.3279 54.2739C31.8293 53.5552 31.5254 52.7232 31.4451 51.8567C31.0873 49.2358 30.5035 46.6335 30.0987 44.0219C30.0045 43.457 29.7786 43.0958 29.1571 42.9939C28.8982 42.9615 28.6362 43.0237 28.421 43.1689C28.2057 43.314 28.0522 43.5319 27.9896 43.7811C27.2843 45.6063 26.9639 47.5536 27.0481 49.5044C27.1974 53.4885 28.405 57.3647 30.5506 60.7472C31.1693 61.7081 31.4148 62.8563 31.2418 63.9808C31.0688 65.1054 30.4891 66.1308 29.6091 66.8687C29.1132 67.3035 28.5294 67.6301 27.8961 67.8272C27.2627 68.0242 26.5942 68.0872 25.9343 68.012C25.2744 67.9368 24.6382 67.725 24.0675 67.3907C23.4967 67.0564 23.0044 66.6071 22.6228 66.0722C19.8477 62.2428 18.217 57.7261 17.9151 53.0328C17.6245 48.2296 18.3292 43.4185 19.9865 38.8913C20.1905 38.2397 20.3014 37.5634 20.316 36.8817C20.3725 35.6963 20.316 34.5016 20.316 33.3162C20.316 32.3901 20.768 31.8438 21.5777 31.8623C22.3874 31.8808 22.7923 32.4087 22.8017 33.3348V35.4555V35.4463Z" fill="black"/>
<path d="M30.2224 0.865384C31.1513 0.845101 32.0746 1.01025 32.9368 1.35085C33.7989 1.69144 34.5819 2.20042 35.2384 2.84703C35.8949 3.49363 36.4113 4.26443 36.7564 5.11287C37.1015 5.9613 37.2682 6.86975 37.2463 7.78332C37.2463 9.61807 36.5053 11.3777 35.1863 12.675C33.8673 13.9724 32.0784 14.7013 30.213 14.7013C28.3476 14.7013 26.5587 13.9724 25.2397 12.675C23.9207 11.3777 23.1796 9.61807 23.1796 7.78332C23.1577 6.86815 23.3249 5.95813 23.6712 5.10843C24.0175 4.25873 24.5356 3.48706 25.1941 2.84019C25.8527 2.19332 26.6379 1.68474 27.5022 1.34528C28.3666 1.00582 29.292 0.842557 30.2224 0.865384ZM30.2224 12.1545C31.4185 12.1545 32.5657 11.6871 33.4115 10.8552C34.2573 10.0233 34.7324 8.89499 34.7324 7.71849C34.7324 6.54199 34.2573 5.41368 33.4115 4.58177C32.5657 3.74986 31.4185 3.28249 30.2224 3.28249C29.0263 3.28249 27.8791 3.74986 27.0334 4.58177C26.1876 5.41368 25.7124 6.54199 25.7124 7.71849C25.7124 8.89499 26.1876 10.0233 27.0334 10.8552C27.8791 11.6871 29.0263 12.1545 30.2224 12.1545Z" fill="black"/>
<path d="M8.07652 33.1681C8.07652 34.4091 8.07652 35.4648 8.07652 36.5113C8.07652 38.0764 8.1236 39.66 7.9447 41.2066C7.70932 43.2718 5.40253 44.5961 3.14282 44.1238C2.6313 44.0505 2.14127 43.8719 1.7048 43.5995C1.26832 43.3271 0.89523 42.9671 0.609934 42.5432C0.324638 42.1192 0.133566 41.6407 0.0492172 41.1391C-0.0351316 40.6375 -0.0108561 40.124 0.120456 39.6322C0.454736 38.6947 1.12136 37.9072 1.99813 37.4139C2.8749 36.9206 3.90305 36.7547 4.89409 36.9466L5.54376 37.0855V30.9362C5.50453 30.6583 5.55415 30.3753 5.68573 30.1264C5.81732 29.8775 6.02436 29.6751 6.27817 29.5471C6.5392 29.4347 6.82898 29.4038 7.10845 29.4584C7.38791 29.5131 7.64363 29.6507 7.84113 29.8527C8.78268 30.6306 9.82779 31.3807 10.807 32.1587C11.5885 32.7699 11.7485 33.4367 11.2589 34.0108C10.7693 34.585 10.0161 34.6221 9.21579 34.0108L8.07652 33.1681ZM4.01846 41.7623C4.90351 41.7623 5.51551 41.2807 5.53434 40.5861C5.52446 40.4026 5.47583 40.2231 5.39155 40.059C5.30728 39.8949 5.18921 39.7499 5.04485 39.6332C4.90049 39.5165 4.733 39.4306 4.55305 39.381C4.3731 39.3314 4.18463 39.3192 3.99962 39.3452C3.1334 39.3452 2.5214 39.873 2.53081 40.5676C2.54023 41.2622 3.14282 41.753 4.01846 41.7623Z" fill="black"/>
<path d="M60.6342 23.2216C60.6342 21.1842 60.6342 19.1931 60.6342 17.1928C60.6342 16.5445 60.7283 15.9703 61.3874 15.674C61.664 15.5691 61.9666 15.5502 62.2545 15.6198C62.5424 15.6893 62.8017 15.844 62.9974 16.0629C63.939 16.8408 64.9841 17.591 65.9633 18.3689C66.1206 18.4588 66.2563 18.581 66.361 18.7273C66.4658 18.8735 66.5372 19.0403 66.5702 19.2162C66.6033 19.3922 66.5974 19.5731 66.5527 19.7465C66.5081 19.9199 66.4259 20.0818 66.3117 20.2211C66.1941 20.3497 66.0514 20.4538 65.892 20.5269C65.7326 20.6001 65.5599 20.641 65.3841 20.647C65.2084 20.6531 65.0331 20.6242 64.869 20.5622C64.7048 20.5001 64.555 20.4062 64.4286 20.2859L63.0728 19.2857V20.2118C63.0728 22.3882 63.0728 24.5645 63.0728 26.6945C62.9865 27.6947 62.5168 28.6251 61.7589 29.2973C61.001 29.9694 60.0116 30.3329 58.9912 30.3141C57.9709 30.2952 56.9961 29.8954 56.2644 29.1958C55.5326 28.4961 55.0988 27.549 55.0508 26.5463C55.1441 25.5267 55.6443 24.5849 56.4419 23.9271C57.2395 23.2693 58.2695 22.949 59.3066 23.0364C59.7114 23.0549 60.1163 23.1476 60.6342 23.2216ZM59.0618 25.4998C58.6979 25.4687 58.3361 25.5794 58.0544 25.8081C57.7726 26.0367 57.5934 26.365 57.5553 26.7223C57.6069 27.0768 57.7948 27.3984 58.0804 27.6207C58.3659 27.843 58.7273 27.949 59.09 27.9169C59.2766 27.936 59.4652 27.9181 59.6446 27.8643C59.824 27.8105 59.9907 27.7218 60.1346 27.6035C60.2786 27.4852 60.397 27.3397 60.4828 27.1756C60.5686 27.0115 60.6201 26.8322 60.6342 26.6482C60.5695 26.2961 60.371 25.9814 60.0789 25.768C59.7869 25.5547 59.4232 25.4588 59.0618 25.4998Z" fill="black"/>
<path d="M62.7807 5.85734C62.0397 6.11319 61.3673 6.5312 60.8144 7.07984C60.2615 7.62849 59.8425 8.29345 59.5889 9.02458C59.3183 8.30104 58.8884 7.64525 58.3302 7.10412C57.7719 6.56299 57.0989 6.1499 56.3594 5.89438C57.0906 5.64037 57.7546 5.22805 58.3021 4.68787C58.8497 4.14769 59.2669 3.49345 59.523 2.77344C59.8024 3.49127 60.2391 4.13975 60.8022 4.67275C61.3652 5.20576 62.0408 5.61021 62.7807 5.85734Z" fill="black"/>
<path d="M0.667969 7.71868C1.1567 7.48536 1.61772 7.19962 2.04263 6.86667C2.3212 6.52647 2.54944 6.1492 2.72054 5.74609L4.84843 7.83907C4.36879 8.00233 3.93831 8.28106 3.59624 8.64987C3.25418 9.01868 3.01139 9.46583 2.89002 9.95057C2.65062 9.44387 2.35371 8.96543 2.00496 8.52438C1.59297 8.20516 1.14422 7.93473 0.667969 7.71868Z" fill="black"/>
<path d="M59.0604 49.5874C58.5917 49.7569 58.1667 50.0255 57.8152 50.3744C57.4638 50.7233 57.1946 51.1438 57.0266 51.6063L55.0117 49.606L57.0078 47.6704C57.177 48.1237 57.4502 48.5325 57.8062 48.8649C58.1622 49.1974 58.5914 49.4447 59.0604 49.5874Z" fill="black"/>
<path d="M13.8757 59.0244L11.9926 60.8765L10.0154 58.9132C10.4572 58.7756 10.859 58.5355 11.1867 58.2131C11.5144 57.8908 11.7586 57.4956 11.8985 57.061L13.8757 59.0244Z" fill="black"/>
</svg>
