<svg width="141" height="141" viewBox="0 0 141 141" fill="none" xmlns="http://www.w3.org/2000/svg">
<path d="M97.6924 95.4372V140.752H43.2513V108.754C42.5779 109.511 42.1772 109.973 41.7654 110.435C35.4215 117.474 24.7369 117.791 18.8549 110.941C17.4525 109.31 16.3228 107.218 15.7441 105.148C12.0657 92.0037 8.56541 78.8094 5.03728 65.6262C3.66276 60.4954 5.58821 55.7374 9.87316 53.4725C15.7719 50.3506 22.6501 53.5671 24.4086 60.2784C26.5956 68.6424 28.7715 77.0064 30.9529 85.3704C31.0475 85.7265 31.1755 86.0715 31.348 86.6225C33.0453 84.1795 34.6424 81.9035 36.2173 79.6163C40.3241 73.6452 46.017 70.6346 53.2346 70.4788C55.3103 70.4342 57.3916 70.4732 59.5508 70.4732C59.9459 68.915 60.3298 67.4181 60.7416 65.8043C54.7705 62.2984 51.1422 57.1565 50.1183 50.167C49.6842 50.0613 49.2391 49.9778 48.7994 49.8498C46.7738 49.2599 45.3158 47.5793 45.4995 45.4424C45.8 41.8586 45.032 38.7034 42.9786 35.7206C42.0715 34.4073 41.732 32.6989 41.0698 31.0016C38.2707 36.3272 34.175 40.1669 28.4598 42.0757C22.7558 43.9788 17.1743 43.5726 11.8153 40.8458C3.23427 36.4551 -1.45136 26.8557 0.401747 17.5568C2.32163 7.94074 10.3462 0.762058 20.0235 0.0998385C25.8499 -0.295267 31.0531 1.39645 35.5217 5.175C39.9791 8.94798 42.3998 13.8395 43.14 19.8997C45.0988 17.1729 47.347 15.2975 50.2018 14.179C50.519 14.0565 50.7249 13.5501 50.903 13.1829C55.0989 4.65747 61.9548 0.233395 71.4485 0.0720142C75.7445 -0.000329163 80.0907 -0.133886 84.3367 0.366952C93.0235 1.40202 99.8182 9.29857 99.9462 18.0799C100.041 24.73 98.8555 31.1741 96.2567 37.2954C95.4553 39.1819 95.4219 41.035 95.4164 42.9605C95.4164 44.0957 95.5165 45.2588 95.2995 46.355C94.9044 48.3584 93.5521 49.5103 91.571 49.9889C91.2149 50.0724 90.7085 50.4397 90.6584 50.7457C89.5621 57.3902 85.9839 62.2928 80.1464 65.7653C80.5248 67.2901 80.9032 68.8316 81.2259 70.1337C92.0719 70.8794 102.762 71.614 113.619 72.3652C113.619 71.8422 113.619 71.2912 113.619 70.7347C113.613 60.0446 113.563 49.3489 113.608 38.6588C113.636 32.1201 118.928 27.1006 125.417 27.3176C131.46 27.518 136.274 32.5152 136.29 38.7479C136.329 51.0017 136.318 63.2556 136.279 75.5094C136.279 76.9618 136.068 78.4421 135.756 79.8611C133.764 88.8261 125.762 95.3204 116.552 95.4261C110.825 95.4873 105.105 95.4428 99.3786 95.4428C98.8666 95.4428 98.3602 95.4428 97.698 95.4428L97.6924 95.4372ZM93.1181 90.8462H106.685V76.3553C99.8015 75.899 92.9956 75.4426 86.162 74.9863C85.2549 80.9185 84.3923 86.5223 83.5075 92.2986C79.4062 89.839 75.5442 87.5629 71.7267 85.2034C70.8029 84.6302 70.1351 84.5801 69.1836 85.1756C65.3327 87.5685 61.4261 89.8612 57.3415 92.3042C56.4511 86.4611 55.583 80.7905 54.6982 75.0253C48.6492 74.7582 43.8077 76.8617 40.2796 81.7254C38.1149 84.7081 36.0614 87.7744 33.9635 90.8072C33.7576 91.1077 33.5962 91.4305 33.3736 91.8034C36.5901 94.8752 39.7509 97.8969 43.1678 101.158V93.2669H47.7811V136.244H93.1014V90.8406L93.1181 90.8462ZM111.365 90.8963C112.923 90.8963 114.337 90.8963 115.75 90.8963C125.016 90.8685 131.738 84.1405 131.755 74.8528C131.766 69.082 131.755 63.3168 131.755 57.546C131.755 51.2577 131.783 44.9694 131.744 38.6811C131.716 34.6466 128.41 31.6026 124.459 31.8586C120.842 32.0979 118.138 35.0862 118.132 38.9371C118.115 50 118.132 61.0686 118.121 72.1315C118.121 75.3647 116.123 77.2123 112.907 77.0397C112.411 77.0119 111.911 77.0397 111.36 77.0397V90.9018L111.365 90.8963ZM4.56984 21.647C4.58097 31.0183 12.2827 38.6755 21.6651 38.6533C30.964 38.631 38.6213 30.9626 38.638 21.6581C38.6547 12.2758 30.9807 4.58512 21.6095 4.58512C12.2327 4.58512 4.55871 12.2646 4.56984 21.647ZM40.4076 104.797C37.5751 102.087 34.9429 99.2825 32.0102 96.8396C29.2222 94.5135 27.7587 91.7199 26.9239 88.214C24.7703 79.1655 22.2995 70.195 19.9289 61.1966C19.1665 58.3084 16.8515 56.6222 14.108 56.8448C10.4964 57.1398 8.36508 60.4898 9.4391 64.5077C12.9839 77.7854 16.5621 91.0521 20.2016 104.302C21.398 108.659 25.388 111.47 29.9011 111.319C34.5701 111.164 37.8478 108.687 40.4132 104.797H40.4076ZM84.0084 22.7433C83.0178 22.7433 82.172 22.7878 81.3261 22.7377C77.7256 22.504 74.9265 19.4322 74.9822 15.815C75.0378 12.2201 77.9816 9.24849 81.5877 9.14275C88.8053 8.93129 94.3702 15.47 92.8565 22.5151C92.5059 24.1401 91.6712 25.6537 91.0925 27.134C92.0552 27.5458 93.1459 28.0188 94.6317 28.6588C94.8877 24.858 95.4664 21.1295 95.3051 17.44C95.0324 11.096 90.0574 5.65358 83.7747 4.90789C79.6177 4.41261 75.3717 4.59625 71.1702 4.61295C63.6242 4.64077 57.1913 9.15388 54.6259 16.2213C54.1918 17.4233 53.5908 17.9686 52.3609 18.3192C47.4026 19.7438 44.303 25.2642 45.8834 29.9275C47.1634 27.5068 49.2836 27.095 51.6153 27.3232C52.6726 27.4289 53.179 27.0171 53.6631 26.0989C55.1267 23.3109 57.2859 21.1239 60.0794 19.6659C61.0922 19.1373 61.5931 18.4695 61.9492 17.4233C63.1958 13.7505 67.0244 11.1405 70.3911 11.5857V15.7928C66.7072 16.8167 65.2603 18.9981 66.1451 22.159C66.9576 25.0583 69.9515 27.1729 73.5742 27.2842C76.0784 27.3621 78.5938 27.3733 81.0979 27.2787C83.4018 27.1952 85.4664 26.3716 86.9856 24.5741C88.8053 22.4205 89.1559 19.9609 87.926 17.4233C86.7574 15.0081 84.7207 13.7449 82.0217 13.7004C80.586 13.6781 79.5732 14.6353 79.5342 15.8929C79.4953 17.1729 80.4524 18.1412 81.877 18.2135C82.5671 18.2469 83.2627 18.2191 84.0084 18.2191V22.7489V22.7433ZM90.8198 31.9476H50.1127V45.3979H90.8198V31.9476ZM54.8763 50.0891C55.0877 57.0563 62.5335 63.5783 70.2854 63.6451C78.1764 63.7119 85.6778 57.2789 86.0117 50.0891H54.8707H54.8763ZM75.8391 67.4403C72.1441 68.4587 68.5992 68.3474 65.0266 67.4904C64.6537 68.9317 64.3087 70.2005 64.0082 71.486C63.9526 71.7253 63.9915 72.0981 64.1473 72.254C66.223 74.363 68.321 76.4443 70.4635 78.5757C72.5503 76.4888 74.5314 74.53 76.468 72.5322C76.7128 72.2762 76.9076 71.7809 76.8464 71.4471C76.5904 70.1616 76.2176 68.8928 75.8447 67.4348L75.8391 67.4403ZM81.5264 75.2757C80.419 74.9696 76.1675 78.6202 74.2643 81.4638C76.1508 82.5935 78.0373 83.7232 80.0462 84.9252C80.5582 81.5807 81.0423 78.4254 81.5209 75.2757H81.5264ZM59.2836 74.8082C59.8346 78.3864 60.3243 81.5696 60.8363 84.9252C62.8953 83.6898 64.7762 82.5601 66.7962 81.347C64.7261 79.2935 62.7728 77.318 60.7695 75.3925C60.4801 75.1143 59.9737 75.0698 59.2836 74.8082ZM61.5152 23.3721C60.3465 24.7133 59.3449 25.8485 58.1762 27.1841H63.5797C62.962 26.0488 62.4055 25.0249 61.5152 23.3721Z" fill="#fff"/>
<path d="M140.846 120.512C140.846 123.445 140.868 126.377 140.846 129.31C140.79 135.871 135.898 140.807 129.365 140.857C124.162 140.896 118.959 140.89 113.756 140.857C107.212 140.813 102.287 135.888 102.248 129.343C102.214 123.383 102.214 117.423 102.248 111.463C102.287 104.991 107.2 100.044 113.65 99.9942C118.898 99.9497 124.151 99.9553 129.399 99.9942C135.86 100.044 140.768 104.964 140.84 111.436C140.873 114.463 140.84 117.49 140.846 120.517V120.512ZM136.305 120.406C136.305 117.524 136.316 114.635 136.305 111.753C136.282 107.401 133.444 104.541 129.12 104.53C124.107 104.513 119.093 104.518 114.084 104.53C109.643 104.541 106.794 107.368 106.789 111.786C106.777 117.557 106.777 123.322 106.789 129.093C106.8 133.434 109.655 136.311 113.973 136.322C119.031 136.338 124.095 136.338 129.154 136.322C133.4 136.305 136.282 133.434 136.31 129.204C136.327 126.272 136.31 123.339 136.31 120.406H136.305Z" fill="#fff"/>
<path d="M40.8281 59.026H27.3945V54.6465H40.8281V59.026Z" fill="#fff"/>
<path d="M27.3555 49.9167V45.5371H40.8058V49.9167H27.3555Z" fill="#fff"/>
<path d="M136.275 9.10938V13.5724H131.779V9.10938L131.734 9.14833H136.314L136.27 9.10938H136.275Z" fill="#fff"/>
<path d="M31.744 68.1139H27.3867V63.7344H31.744V68.1139Z" fill="#fff"/>
<path d="M40.8834 63.7617V68.0745H36.4648V63.7617H40.8834Z" fill="#fff"/>
<path d="M109.074 13.6896V9.22656H113.571V13.6896L113.615 13.6506H109.035L109.08 13.6896H109.074Z" fill="#fff"/>
<path d="M31.8066 136.299V140.762H27.3101V136.299L27.2656 136.338H31.8455L31.801 136.299H31.8066Z" fill="#fff"/>
<path d="M131.783 9.109H127.32V4.60702H131.783L131.744 4.5625V9.14239L131.789 9.10344L131.783 9.109Z" fill="#fff"/>
<path d="M31.8047 131.803H36.2677V136.305C34.7819 136.305 33.2905 136.305 31.8047 136.305L31.8492 136.344V131.764L31.8103 131.808L31.8047 131.803Z" fill="#fff"/>
<path d="M113.568 18.1973V22.6603H109.072V18.1973L109.027 18.2362H113.607L113.563 18.1973H113.568Z" fill="#fff"/>
<path d="M131.783 4.60756V0.144531H136.285V4.60756L136.33 4.5686H131.75L131.789 4.61312L131.783 4.60756Z" fill="#fff"/>
<path d="M113.57 13.6874H118.033V18.1894C116.548 18.1894 115.056 18.1894 113.57 18.1894L113.615 18.2283V13.6484L113.57 13.6874Z" fill="#fff"/>
<path d="M4.58974 122.713V118.25H9.08615V122.713L9.13067 122.674H4.55078L4.5953 122.713H4.58974Z" fill="#fff"/>
<path d="M4.59193 127.213H0.128906V122.711H4.59193L4.54741 122.672V127.252L4.58637 127.207L4.59193 127.213Z" fill="#fff"/>
<path d="M9.0876 122.709H13.5506V127.211H9.0876L9.12655 127.256V122.676L9.08203 122.715L9.0876 122.709Z" fill="#fff"/>
<path d="M9.09172 127.213V131.676H4.58974C4.58974 130.19 4.58974 128.699 4.58974 127.213L4.55078 127.257H9.13067L9.09172 127.213Z" fill="#fff"/>
<path d="M27.3046 131.797V127.334H31.8066C31.8066 128.82 31.8066 130.311 31.8066 131.797L31.8455 131.752H27.2656L27.3101 131.791L27.3046 131.797Z" fill="#fff"/>
<path d="M109.072 18.1972H104.609V13.6952C106.095 13.6952 107.587 13.6952 109.072 13.6952L109.028 13.6562V18.2361L109.072 18.1972Z" fill="#fff"/>
<path d="M27.3029 136.301H22.8398V131.799C24.3257 131.799 25.817 131.799 27.3029 131.799L27.2584 131.76V136.34L27.3029 136.301Z" fill="#fff"/>
<path d="M136.281 4.60731H140.744V9.10929C139.258 9.10929 137.767 9.10929 136.281 9.10929L136.326 9.14825V4.56836L136.281 4.60731Z" fill="#fff"/>
<path d="M34.641 21.6263C27.4901 25.199 20.6787 28.6047 13.7227 32.0771V11.1699C20.6621 14.6368 27.5013 18.0537 34.641 21.6207V21.6263ZM18.2692 18.5267V24.7315C20.3393 23.6964 22.2759 22.7282 24.474 21.6263C22.2425 20.5133 20.3226 19.5506 18.2692 18.5267Z" fill="#fff"/>
<path d="M111.383 122.593V118.225H131.645V122.593H111.383Z" fill="#fff"/>
<path d="M111.348 113.524V109.172H131.659V113.524H111.348Z" fill="#fff"/>
<path d="M111.434 127.264H122.558V131.682H111.434V127.264Z" fill="#fff"/>
<path d="M127.312 127.307H131.686V131.675H127.312V127.307Z" fill="#fff"/>
</svg>
