<svg width="145" height="191" viewBox="0 0 162 161" fill="none" xmlns="http://www.w3.org/2000/svg">
<path d="M110.451 108.844V160.075H48.9019V123.9C48.1406 124.755 47.6876 125.277 47.222 125.8C40.0499 133.758 27.9704 134.117 21.3204 126.372C19.7349 124.529 18.4578 122.163 17.8035 119.823C13.6449 104.963 9.68758 90.0457 5.69884 75.1413C4.14486 69.3407 6.32168 63.9615 11.1661 61.4009C17.8349 57.8714 25.6111 61.5079 27.5992 69.0953C30.0717 78.5513 32.5316 88.0072 34.9979 97.4632C35.1048 97.8659 35.2495 98.2559 35.4446 98.8788C37.3634 96.1169 39.1691 93.5437 40.9495 90.9579C45.5926 84.2072 52.0287 80.8036 60.1886 80.6274C62.5353 80.5771 64.8883 80.6211 67.3294 80.6211C67.776 78.8595 68.2101 77.1672 68.6757 75.3427C61.925 71.3791 57.823 65.5658 56.6654 57.6638C56.1747 57.5443 55.6714 57.4499 55.1744 57.3052C52.8843 56.6383 51.236 54.7383 51.4436 52.3224C51.7833 48.2708 50.9151 44.7036 48.5936 41.3314C47.5681 39.8466 47.1843 37.9151 46.4356 35.9963C43.2711 42.0171 38.6406 46.3582 32.1793 48.5161C25.7306 50.6678 19.4204 50.2085 13.3618 47.1257C3.66042 42.1618 -1.63693 31.3092 0.458103 20.7962C2.62863 9.92472 11.7008 1.80881 22.6416 1.06014C29.2287 0.613449 35.1111 2.52603 40.1631 6.79789C45.2025 11.0635 47.9393 16.5936 48.776 23.4449C50.9906 20.3621 53.5323 18.2419 56.7598 16.9774C57.1184 16.839 57.3512 16.2664 57.5525 15.8512C62.2962 6.21279 70.0472 1.21113 80.7804 1.02868C85.6373 0.946893 90.5509 0.7959 95.3512 1.36213C105.172 2.53233 112.854 11.4598 112.999 21.3876C113.106 28.9059 111.765 36.1913 108.827 43.1118C107.921 45.2446 107.884 47.3396 107.877 49.5165C107.877 50.7999 107.991 52.1148 107.745 53.3542C107.299 55.6191 105.77 56.9214 103.53 57.4625C103.127 57.5569 102.555 57.9721 102.498 58.3181C101.259 65.8301 97.2135 71.3728 90.6138 75.2986C91.0416 77.0225 91.4694 78.7652 91.8343 80.2374C104.096 81.0804 116.182 81.9109 128.457 82.7602C128.457 82.1688 128.457 81.546 128.457 80.9168C128.45 68.8311 128.394 56.739 128.444 44.6532C128.475 37.2608 134.459 31.586 141.794 31.8314C148.627 32.0578 154.069 37.7075 154.088 44.7539C154.132 58.6075 154.119 72.4612 154.075 86.3148C154.075 87.9569 153.836 89.6304 153.484 91.2347C151.231 101.37 142.184 108.712 131.772 108.832C125.298 108.901 118.831 108.851 112.357 108.851C111.778 108.851 111.206 108.851 110.457 108.851L110.451 108.844ZM105.279 103.654H120.617V87.2711C112.835 86.7553 105.141 86.2394 97.4148 85.7235C96.3893 92.4301 95.4141 98.7655 94.4138 105.296C89.7771 102.515 85.4108 99.942 81.0949 97.2745C80.0506 96.6264 79.2956 96.5698 78.2198 97.243C73.8661 99.9483 69.4495 102.54 64.8317 105.302C63.825 98.6963 62.8436 92.2854 61.8433 85.7675C55.0045 85.4655 49.531 87.8437 45.5422 93.3423C43.0949 96.7145 40.7734 100.181 38.4015 103.61C38.1687 103.95 37.9863 104.315 37.7346 104.736C41.3711 108.209 44.9446 111.625 48.8075 115.312V106.391H54.023V154.979H105.26V103.648L105.279 103.654ZM125.909 103.711C127.67 103.711 129.268 103.711 130.866 103.711C141.341 103.679 148.941 96.0728 148.96 85.5725C148.973 79.0483 148.96 72.5304 148.96 66.0062C148.96 58.8969 148.992 51.7877 148.948 44.6784C148.916 40.1171 145.179 36.6757 140.712 36.9651C136.623 37.2357 133.565 40.6141 133.559 44.9678C133.54 57.4751 133.559 69.9887 133.546 82.496C133.546 86.1513 131.288 88.24 127.651 88.045C127.091 88.0135 126.525 88.045 125.902 88.045V103.717L125.909 103.711ZM5.17036 25.4204C5.18294 36.0151 13.8902 44.6721 24.4975 44.6469C35.0104 44.6218 43.6674 35.9522 43.6863 25.433C43.7052 14.8257 35.0293 6.131 24.4346 6.131C13.8336 6.131 5.15778 14.8131 5.17036 25.4204ZM45.6869 119.426C42.4846 116.363 39.5088 113.192 36.1932 110.43C33.0412 107.8 31.3866 104.642 30.4429 100.678C28.0081 90.4483 25.2147 80.3066 22.5346 70.1334C21.6727 66.8681 19.0555 64.9619 15.9538 65.2135C11.8707 65.547 9.46109 69.3344 10.6753 73.8768C14.6829 88.888 18.7283 103.887 22.8429 118.867C24.1955 123.793 28.7065 126.97 33.8088 126.8C39.0873 126.624 42.7929 123.824 45.6932 119.426H45.6869ZM94.98 26.6598C93.8602 26.6598 92.9039 26.7102 91.9476 26.6535C87.8771 26.3893 84.7125 22.9165 84.7754 18.827C84.8383 14.7628 88.1665 11.4032 92.2433 11.2837C100.403 11.0446 106.695 18.437 104.983 26.4019C104.587 28.239 103.643 29.9502 102.989 31.6237C104.077 32.0893 105.311 32.6241 106.99 33.3476C107.28 29.0506 107.934 24.8353 107.752 20.6641C107.443 13.4919 101.819 7.33895 94.7158 6.49591C90.0161 5.93597 85.2158 6.14359 80.4658 6.16246C71.9347 6.19392 64.6618 11.2962 61.7615 19.2863C61.2707 20.6453 60.5913 21.2618 59.2009 21.6582C53.5952 23.2688 50.0909 29.5098 51.8777 34.782C53.3247 32.0453 55.7217 31.5797 58.3578 31.8377C59.5532 31.9572 60.1257 31.4916 60.6731 30.4535C62.3277 27.3016 64.7688 24.829 67.927 23.1807C69.0721 22.583 69.6383 21.828 70.0409 20.6453C71.4502 16.4929 75.7787 13.5423 79.585 14.0456V18.8019C75.4201 19.9595 73.7843 22.4257 74.7847 25.9992C75.7032 29.2771 79.088 31.6678 83.1837 31.7936C86.0148 31.8817 88.8585 31.8943 91.6896 31.7873C94.2943 31.6929 96.6284 30.7618 98.3459 28.7297C100.403 26.2949 100.8 23.5141 99.4092 20.6453C98.088 17.9148 95.7853 16.4866 92.734 16.4363C91.1108 16.4111 89.9658 17.4933 89.9218 18.9151C89.8777 20.3621 90.9598 21.4568 92.5704 21.5386C93.3506 21.5764 94.137 21.5449 94.98 21.5449V26.6661V26.6598ZM102.681 37.0658H56.6591V52.2721H102.681V37.0658ZM62.0446 57.5758C62.2836 65.4526 70.7015 72.8261 79.4655 72.9016C88.3867 72.9771 96.8675 65.7042 97.2449 57.5758H62.0383H62.0446ZM85.7443 77.1923C81.5668 78.3437 77.5592 78.2178 73.5201 77.2489C73.0986 78.8784 72.7085 80.3129 72.3688 81.7662C72.3058 82.0367 72.3499 82.4582 72.526 82.6344C74.8727 85.0188 77.2446 87.3718 79.6668 89.7814C82.0261 87.4221 84.2658 85.2076 86.4552 82.949C86.732 82.6595 86.9522 82.0996 86.883 81.7221C86.5936 80.2688 86.1721 78.8344 85.7506 77.186L85.7443 77.1923ZM92.1741 86.0506C90.9221 85.7046 86.1155 89.8317 83.9638 93.0466C86.0966 94.3238 88.2294 95.601 90.5006 96.9599C91.0794 93.1788 91.6267 89.6115 92.1678 86.0506H92.1741ZM67.0274 85.5221C67.6502 89.5675 68.2038 93.1662 68.7827 96.9599C71.1105 95.5632 73.237 94.286 75.5207 92.9145C73.1803 90.593 70.9721 88.3596 68.7072 86.1827C68.38 85.8682 67.8075 85.8178 67.0274 85.5221ZM69.5502 27.3708C68.229 28.887 67.0966 30.1704 65.7754 31.6804H71.8843C71.186 30.3969 70.5568 29.2393 69.5502 27.3708Z" fill="white"/>
<path d="M161.994 137.05C161.994 140.366 162.019 143.681 161.994 146.997C161.931 154.414 156.401 159.995 149.014 160.052C143.132 160.096 137.249 160.089 131.367 160.052C123.968 160.001 118.4 154.433 118.356 147.035C118.319 140.297 118.319 133.558 118.356 126.82C118.4 119.503 123.956 113.91 131.248 113.854C137.18 113.803 143.119 113.81 149.052 113.854C156.356 113.91 161.905 119.472 161.987 126.789C162.025 130.211 161.987 133.634 161.994 137.056V137.05ZM156.86 136.931C156.86 133.672 156.872 130.406 156.86 127.148C156.835 122.228 153.626 118.994 148.738 118.981C143.069 118.962 137.4 118.969 131.738 118.981C126.718 118.994 123.497 122.19 123.49 127.185C123.478 133.709 123.478 140.227 123.49 146.751C123.503 151.659 126.73 154.911 131.612 154.924C137.331 154.943 143.056 154.943 148.775 154.924C153.576 154.905 156.835 151.659 156.866 146.877C156.885 143.562 156.866 140.246 156.866 136.931H156.86Z" fill="white"/>
<path d="M48.914 67.5392H33.7266V62.5879H48.914V67.5392Z" fill="white"/>
<path d="M33.6836 57.2404V52.2891H48.8899V57.2404H33.6836Z" fill="white"/>
<path d="M156.825 11.1035V16.1492H151.742V11.1035L151.691 11.1476H156.869L156.819 11.1035H156.825Z" fill="white"/>
<path d="M38.6449 77.8127H33.7188V72.8613H38.6449V77.8127Z" fill="white"/>
<path d="M48.9797 72.8926V77.7684H43.9844V72.8926H48.9797Z" fill="white"/>
<path d="M126.071 16.284V11.2383H131.155V16.284L131.205 16.2399H126.027L126.078 16.284H126.071Z" fill="white"/>
<path d="M38.7158 154.898V159.944H33.6324V154.898L33.582 154.942H38.7599L38.7095 154.898H38.7158Z" fill="white"/>
<path d="M151.745 11.1049H146.699V6.01517H151.745L151.701 5.96484V11.1427L151.751 11.0986L151.745 11.1049Z" fill="white"/>
<path d="M38.7148 149.816H43.7605V154.905C42.0807 154.905 40.3946 154.905 38.7148 154.905L38.7652 154.949V149.771L38.7211 149.822L38.7148 149.816Z" fill="white"/>
<path d="M131.153 21.3789V26.4246H126.07V21.3789L126.02 21.4229H131.197L131.147 21.3789H131.153Z" fill="white"/>
<path d="M151.745 6.0164V0.970703H156.835V6.0164L156.885 5.97236H151.707L151.751 6.02269L151.745 6.0164Z" fill="white"/>
<path d="M131.156 16.2804H136.202V21.3701C134.522 21.3701 132.836 21.3701 131.156 21.3701L131.207 21.4141V16.2363L131.156 16.2804Z" fill="white"/>
<path d="M7.94638 139.54V134.494H13.0298V139.54L13.0802 139.496H7.90234L7.95267 139.54H7.94638Z" fill="white"/>
<path d="M7.94804 144.626H2.90234V139.536H7.94804L7.89771 139.492V144.67L7.94175 144.62L7.94804 144.626Z" fill="white"/>
<path d="M13.0297 139.536H18.0754V144.626H13.0297L13.0738 144.676V139.498L13.0234 139.542L13.0297 139.536Z" fill="white"/>
<path d="M13.0361 144.627V149.673H7.94638C7.94638 147.993 7.94638 146.307 7.94638 144.627L7.90234 144.677H13.0802L13.0361 144.627Z" fill="white"/>
<path d="M33.6261 149.809V144.764H38.7158C38.7158 146.443 38.7158 148.13 38.7158 149.809L38.7599 149.759H33.582L33.6324 149.803L33.6261 149.809Z" fill="white"/>
<path d="M126.069 21.3799H121.023V16.2901C122.703 16.2901 124.389 16.2901 126.069 16.2901L126.019 16.2461V21.4239L126.069 21.3799Z" fill="white"/>
<path d="M33.6238 154.901H28.5781V149.812C30.2579 149.812 31.944 149.812 33.6238 149.812L33.5735 149.768V154.945L33.6238 154.901Z" fill="white"/>
<path d="M156.828 6.01474H161.874V11.1045C160.194 11.1045 158.508 11.1045 156.828 11.1045L156.878 11.1485V5.9707L156.828 6.01474Z" fill="white"/>
<path d="M41.9228 25.2551C33.8384 29.2942 26.1377 33.1445 18.2734 37.0704V13.4336C26.1188 17.3531 33.8509 21.2161 41.9228 25.2488V25.2551ZM23.4135 21.7508V28.7657C25.7539 27.5955 27.9433 26.5008 30.4284 25.2551C27.9056 23.9968 25.735 22.9084 23.4135 21.7508Z" fill="white"/>
<path d="M90.0207 42.0508V46.9895H64.5469V42.0508H90.0207Z" fill="white"/>
<path d="M100.249 47.0091H95.3164V42.0703H100.249V47.0091Z" fill="white"/>
<path d="M92.4036 61.0603C90.233 65.307 86.9615 67.5845 82.3814 67.5845C77.8012 67.5845 74.5423 65.2944 72.3906 61.0854C73.932 60.3179 75.379 59.5881 76.8009 58.8772C80.7393 63.7278 84.5771 63.7467 87.8926 58.8457C89.3208 59.544 90.7741 60.2613 92.4036 61.0666V61.0603Z" fill="white"/>
<path d="M128.68 139.406V134.467H151.587V139.406H128.68Z" fill="white"/>
<path d="M128.645 129.15V124.23H151.608V129.15H128.645Z" fill="white"/>
<path d="M128.738 144.686H141.315V149.681H128.738V144.686Z" fill="white"/>
<path d="M146.688 144.732H151.633V149.671H146.688V144.732Z" fill="white"/>
</svg>
