<svg width="575" height="395" viewBox="0 0 675 446" fill="none" xmlns="http://www.w3.org/2000/svg">
<path d="M307.814 55.9417C308.199 55.8586 307.912 56.3994 307.912 56.3994C306.967 56.8146 290.337 62.1122 290.381 68.8083C290.397 71.1815 290.428 72.6695 292.712 74.4609C296.848 77.7028 304.163 76.9035 312.482 77.4318C321.909 78.0304 328.711 76.0718 337.987 76.8489C345.318 77.4631 351.443 77.0822 355.146 79.9851C357.993 82.2166 359.529 84.0262 357.735 87.1133C355.338 91.236 349.773 93.5946 342.08 96.192C336.316 98.138 331.549 99.0775 325.315 100.076C293.225 105.214 282.775 87.3416 250.954 93.893C238.196 96.5197 228.521 97.5518 220.054 103.71C212.922 108.897 211.771 112.303 213.326 117.412C215.005 122.926 222.865 123.957 230.396 127.471C239.91 131.91 249.969 131.899 258.027 137.022C262.669 139.973 266.328 141.533 267.321 145.593C268.007 148.398 267.236 150.211 265.758 153.254C262.519 159.925 246.568 170.862 246.568 170.862L244.63 169.636C244.63 169.636 259.839 160.066 263.145 153.499C264.58 150.65 265.429 148.94 264.809 146.31C263.862 142.3 259.737 140.935 255.052 138.071C246.873 133.071 237.236 132.896 227.934 128.424C220.263 124.737 212.367 123.559 210.714 117.844C209.205 112.626 211.064 108.508 218.292 103.217C226.736 97.0353 237.882 95.2991 251.727 92.5198C283.592 86.1235 294.056 104.316 326.088 98.7024C332.121 97.6452 335.861 97.3092 341.365 95.3437C348.029 92.9641 353.111 90.9828 355.121 87.3582C356.544 84.7927 355.838 83.2556 353.822 81.2742C350.488 77.997 344.163 78.047 336.457 77.3528C328.037 76.5943 321.815 78.4641 313.102 78.0629C304.127 77.6496 296.191 78.6199 291.743 75.1843C289.232 73.245 289.275 71.5963 289.356 69.0008C289.566 62.2415 304.932 56.9587 307.814 55.9417Z" fill="#DDDDDD"/>
<path d="M307.814 55.9417C307.441 56.0482 307.912 56.3994 307.912 56.3994C307.912 56.3994 336.749 45.9742 350.202 49.1886C354.969 50.3279 357.949 51.0551 360.463 53.3428C365.012 57.4831 359.912 61.6981 357.004 67.1755C353.709 73.3817 346.521 76.7226 343.657 82.9196C341.394 87.8171 337.704 91.483 341.777 95.1906C344.909 98.0406 347.817 99.8668 354.885 100.209C364.324 100.665 371.726 98.2917 380.625 94.6949C387.292 92.0003 391.458 89.4529 396.442 86.012C422.098 68.2988 391.125 53.2296 419.496 36.3585C430.871 29.5942 437.566 24.0072 453.999 21.6191C467.84 19.6076 475.243 20.5047 484.781 23.913C495.076 27.5915 493.398 33.0201 496.874 39.4227C501.265 47.5111 496.44 53.8249 502.902 61.3241C506.625 65.6449 508.018 68.6855 515.712 71.2412C521.03 73.0074 525.045 73.3858 531.875 73.9055C546.843 75.0447 576.465 70.2293 576.465 70.2293L574.923 68.4284C574.923 68.4284 548.406 73.4281 533.615 72.3804C527.196 71.9258 523.35 71.6458 518.355 70.0042C510.738 67.5016 509.961 64.2608 506.434 59.9549C500.277 52.4376 504.524 46.3009 499.967 38.3297C496.21 31.7566 497.608 26.2354 486.898 22.478C477.118 19.0469 467.944 18.2549 453.848 20.2774C437.379 22.6404 428.565 28.8158 416.364 36.1906C388.283 53.1636 419.896 68.3934 393.31 85.8442C388.303 89.1303 385.841 91.3203 379.259 93.8425C371.29 96.896 364.878 99.1458 356.625 98.6836C350.784 98.3563 348.028 97.1813 345.003 94.9722C340 91.3186 343.12 87.3691 345.401 82.198C347.894 76.548 354.627 73.5291 357.978 67.8652C361.431 62.0304 367.171 57.5069 362.381 53.0781C359.677 50.5781 356.339 49.8206 351.078 48.6362C337.377 45.5519 310.249 55.2467 307.814 55.9417Z" fill="#DDDDDD"/>
<path d="M573.404 84.3407C573.404 84.3407 580.247 87.1493 581.546 97.0722C581.894 99.9899 580.354 102.145 578.148 104.194C575.891 106.377 572.549 106.384 570.529 108.617C571.925 106.503 571.518 103.987 573.904 102.3C570.342 103.376 568.503 105.972 568.026 109.361C567.601 112.618 566.061 114.773 562.232 115.127C564.183 113.653 563.523 111.623 563.436 109.607C563.227 111.974 561.286 113.09 559.077 113.573C556.385 114.223 555.22 114.91 553.162 116.829C554.213 113.364 552.404 111.484 556.889 109.849C559.349 108.969 562.068 107.335 560.095 104.467C559.429 109.508 554.938 107.921 551.314 109.488C548.752 110.634 549.272 112.526 547.837 114.326C546.402 116.126 543.911 116.423 541.668 116.412C545.419 115.43 544.479 111.469 545.369 108.671C546.367 105.428 550.923 104.69 552.818 101.782C551.124 99.1897 549.461 102.327 548.763 103.384C547.62 105.011 546.144 106.586 543.685 105.72C549.463 103.983 545.54 97.4414 549.717 94.8586C551.32 93.8686 555.383 95.4005 556.197 93.6303C557.465 90.9313 552.461 92.3302 551.392 93.02C551.672 91.5499 552.906 90.1033 554.452 89.4252C556.434 88.5339 557.833 89.7319 559.561 89.4163C561.863 89.0253 562.082 86.3005 559.506 86.2373C558.552 86.2139 556.552 87.7312 555.397 88.0609C556.811 85.3208 560.271 82.7651 563.44 82.1268C567.377 81.3284 570.099 83.0064 573.404 84.3407Z" fill="url(#paint0_linear_166_2)"/>
<path d="M575.309 87.8086C575.997 88.5334 575.949 88.5764 576.58 89.5182C577.932 91.4897 578.2 94.3424 576.176 95.9758C575.021 96.8781 573.662 96.6253 572.426 97.2657C571.119 97.9272 571.059 99.2755 570.362 100.313C570.302 99.5726 570.305 98.9852 570.128 98.2655C570.055 97.8296 569.937 97.3498 570.118 96.9382C569.619 97.7165 569.532 98.6294 568.986 99.4072C568.293 100.358 567.258 100.652 566.128 100.989C564.976 101.304 563.856 101.423 562.602 101.411C562.092 101.406 561.423 101.29 560.951 101.46C560.336 101.715 560.103 102.256 559.621 102.643C559.897 101.144 560.001 100.384 561.691 99.9657C563.429 99.5478 563.515 98.1345 564.652 97.1233C563.674 97.701 562.431 97.9715 561.764 96.7682C563.827 97.3979 564.68 95.9705 564.963 94.298C565.267 92.6911 565.214 91.2764 566.611 90.1589C565.753 90.1287 565.321 90.9729 564.789 91.4462C564.162 91.9621 563.456 92.1727 562.636 92.3168C562.733 92.2308 562.876 92.1452 562.926 92.0587C563.253 91.518 563.849 91.1541 564.175 90.6134C564.477 90.0942 564.662 89.5957 564.895 89.0541C565.362 87.9709 566.565 87.0256 567.614 86.4268C569.354 85.4215 572.544 85.7578 574.616 87.2143L574.818 87.3686C574.998 87.5009 575.154 87.6548 575.309 87.8086Z" fill="#FFC929"/>
<path d="M575.904 88.3992C576.648 89.2282 576.755 89.9006 576.73 90.9846C576.689 92.1951 575.5 93.0498 574.657 93.845C574.862 93.4816 574.809 93.1224 574.855 92.7198C574.401 93.1915 573.975 93.0062 573.464 93.2802C572.928 93.5764 572.643 94.1914 572.143 94.5003C572.377 93.9761 571.75 93.4274 572.155 92.9543C571.609 93.1464 571.803 93.7867 571.427 94.099C571.1 94.3667 570.384 94.4847 570.023 94.6706C570.062 94.5448 571.015 93.291 570.293 93.6397C570.156 93.7166 570.034 94.1862 569.833 94.3421C569.659 94.4525 569.398 94.5258 569.188 94.5775C568.705 94.6907 568.216 94.5844 567.78 94.7912C567.282 95.0309 567.038 95.474 566.781 95.9282C567.059 95.0937 566.887 94.5465 567.663 93.9916C568.039 93.7023 568.193 93.4528 568.459 93.1027C568.688 92.8092 568.986 92.6792 569.288 92.4109C568.333 92.1759 568.151 93.1516 567.358 93.3598C567.809 93.0264 567.673 92.5379 567.819 92.092C567.976 91.658 568.368 91.2422 568.827 91.0591C569.163 90.9187 570.034 91.0474 569.984 90.5267C569.937 89.9137 569.006 90.2449 568.731 90.4448C568.901 89.9996 569.293 89.5607 569.849 89.4497C570.331 89.3595 570.818 89.6042 571.052 89.0801C570.646 88.5377 570.067 89.0751 569.514 89.0477C570.303 88.4586 570.665 87.1881 571.903 87.4196C572.234 87.4867 573.029 88.2018 573.079 87.6608C573.113 87.2233 572.284 86.8996 571.926 86.9471C573.13 86.5314 574.847 87.2843 575.748 88.2447L575.904 88.3992Z" fill="#F9F079"/>
<path d="M569.077 76.2104C568.08 77.7797 567.152 79.2973 566.284 80.7526C565.415 82.2079 568.648 87.03 571.988 90.3212C575.301 93.5861 581.495 98.0966 583.091 97.3589C584.688 96.6211 586.351 95.8318 588.076 94.982L569.077 76.2104Z" fill="url(#paint1_linear_166_2)"/>
<path d="M618.002 78.9914C638.348 66.7671 658.741 50.5157 668.255 27.4862L645.178 4.68555C620.151 12.386 601.767 30.6241 587.681 49.0328L574.156 68.3581C572.914 70.259 571.725 72.0954 570.569 73.8949L590.622 93.7075C592.597 92.7178 594.621 91.7022 596.708 90.6398L618.002 78.9914ZM643.142 28.1632C645.764 30.8568 645.666 34.9853 642.883 37.4608C640.103 39.9335 635.694 39.8144 632.963 37.2178C630.34 34.5241 630.445 30.3909 633.225 27.9182C636.007 25.4427 640.409 25.5665 643.142 28.1632Z" fill="url(#paint2_linear_166_2)"/>
<path d="M598.747 95.8562L596.705 90.6406L618 78.9922C617.238 82.787 616.02 97.8651 616.02 97.8651L591.806 116.846L587.355 112.449L598.747 95.8562Z" fill="url(#paint3_linear_166_2)"/>
<path d="M567.473 49.8977C567.473 49.8977 583.595 49.5453 587.679 49.0332L574.155 68.3585L568.706 66.1731L550.434 75.9682L545.984 71.572L567.473 49.8977Z" fill="url(#paint4_linear_166_2)"/>
<path d="M669.295 24.7194C671.908 17.382 674.979 0.2748 674.723 0.0217463C674.465 -0.233292 656.135 1.79788 648.184 3.8608L669.295 24.7194Z" fill="url(#paint5_linear_166_2)"/>
<path d="M642.884 37.4614C645.667 34.9859 645.765 30.8574 643.143 28.1638C640.41 25.5671 636.009 25.4433 633.226 27.9188C630.446 30.3915 630.341 34.5247 632.964 37.2184C635.695 39.815 640.104 39.9341 642.884 37.4614Z" fill="url(#paint6_linear_166_2)"/>
<path d="M77.9988 420.133V387.315H6.96819L0 369.557L51.0252 253.346H90.5865L46.08 354.272H77.9988V325.95L85.4166 305.495H116.886V354.272H131.946V381.246L116.886 387.315V420.133H77.9988Z" fill="#6D6A6A"/>
<path d="M301.492 288.178C324.401 337.28 300.514 394.497 248.139 415.974C195.763 437.452 134.732 415.058 111.823 365.956C88.913 316.854 112.8 259.637 165.176 238.16C217.551 216.682 278.582 239.076 301.492 288.178Z" fill="url(#paint7_linear_166_2)"/>
<path d="M165.456 298.695C168.981 306.249 165.307 315.052 157.249 318.357C149.192 321.662 139.802 318.217 136.277 310.663C132.751 303.109 136.426 294.307 144.483 291.002C152.541 287.697 161.93 291.141 165.456 298.695Z" fill="url(#paint8_linear_166_2)"/>
<path d="M267.281 351.912C270.432 352.941 271.755 357.087 270.238 361.173C268.72 365.26 264.935 367.739 261.785 366.71C258.634 365.682 257.31 361.536 258.828 357.449C260.346 353.363 264.13 350.884 267.281 351.912Z" fill="url(#paint9_linear_166_2)"/>
<path d="M242.483 382.82C244.708 393.677 235.372 404.484 221.632 406.958C207.892 409.432 194.95 402.636 192.726 391.779C190.502 380.922 199.837 370.115 213.578 367.641C227.318 365.167 240.259 371.963 242.483 382.82Z" fill="url(#paint10_linear_166_2)"/>
<path d="M67.5625 364.372C70.0113 363.673 74.4635 370.702 77.507 380.072C80.5504 389.442 81.0325 397.605 78.5838 398.304C76.135 399.003 71.6827 391.974 68.6393 382.604C65.5959 373.234 65.1138 365.071 67.5625 364.372Z" fill="url(#paint11_linear_166_2)"/>
<path d="M105.583 340.626C109.809 339.42 115.701 346.038 118.745 355.408C121.788 364.778 120.83 373.352 116.604 374.558C112.379 375.765 106.486 369.147 103.443 359.776C100.399 350.406 101.358 341.833 105.583 340.626Z" fill="url(#paint12_linear_166_2)"/>
<path d="M186.995 419.061C187.16 416.867 195.758 415.247 206.198 415.442C216.639 415.636 224.968 417.571 224.803 419.765C224.637 421.958 216.04 423.578 205.599 423.384C195.159 423.189 186.829 421.254 186.995 419.061Z" fill="url(#paint13_linear_166_2)"/>
<path d="M159.828 444.784C159.856 444.414 165.806 444.224 173.119 444.361C180.431 444.497 186.336 444.907 186.308 445.277C186.28 445.646 180.33 445.836 173.018 445.7C165.705 445.563 159.8 445.153 159.828 444.784Z" fill="#150303"/>
<path d="M259.746 403.373C256.235 401.873 256.455 394.345 260.237 386.559C264.02 378.772 269.933 373.674 273.444 375.174C276.956 376.673 276.736 384.201 272.954 391.988C269.171 399.775 263.258 404.872 259.746 403.373Z" fill="url(#paint14_linear_166_2)"/>
<path d="M265.776 401.417C265.184 401.164 266.851 396.538 269.5 391.084C272.15 385.63 274.777 381.414 275.369 381.667C275.962 381.92 274.294 386.546 271.645 392C268.995 397.453 266.368 401.669 265.776 401.417Z" fill="#130406"/>
<path d="M261.457 297.409C259.471 298.679 255.264 296.137 252.061 291.732C248.858 287.327 247.871 282.727 249.858 281.458C251.844 280.188 256.051 282.73 259.254 287.135C262.457 291.54 263.444 296.14 261.457 297.409Z" fill="url(#paint15_linear_166_2)"/>
<path d="M262.972 296.443C261.821 297.178 258.291 294.204 255.088 289.799C251.885 285.394 250.222 281.226 251.373 280.491C252.524 279.755 256.054 282.729 259.257 287.134C262.46 291.54 264.123 295.707 262.972 296.443Z" fill="url(#paint16_linear_166_2)"/>
<path d="M230.488 314.01C230.488 319.164 226.032 323.341 220.535 323.341C215.038 323.341 210.582 319.164 210.582 314.01C210.582 308.857 215.038 304.68 220.535 304.68C226.032 304.68 230.488 308.857 230.488 314.01Z" fill="#3B1271"/>
<path d="M144.495 382.189C141.997 384.207 137.063 382.678 133.475 378.774C129.887 374.87 129.004 370.069 131.503 368.05C134.002 366.032 138.936 367.561 142.523 371.466C146.111 375.37 146.994 380.171 144.495 382.189Z" fill="#523776"/>
<path d="M249.263 391.614C251.432 393.944 249.832 398.579 245.69 401.967C241.548 405.355 236.433 406.213 234.264 403.883C232.096 401.553 233.696 396.918 237.838 393.53C241.98 390.142 247.095 389.284 249.263 391.614Z" fill="#9747FF"/>
<path d="M92.0625 207.847C92.0625 207.847 108.447 191.293 121.963 185.131C136.398 178.55 162.175 177.156 162.175 177.156C162.175 177.156 172.639 191.365 177.641 201.322C185.16 216.287 190.529 241.92 190.529 241.92L134.078 273.094C134.078 273.094 118.744 256.639 110.879 244.82C101.848 231.246 92.0625 207.847 92.0625 207.847Z" fill="#CACACA"/>
<path d="M144.167 159.232C130.65 165.395 114.266 181.948 114.266 181.948C114.266 181.948 124.051 205.348 133.083 218.922C140.947 230.741 156.281 247.195 156.281 247.195L166.077 250.095C166.077 250.095 150.742 233.641 142.878 221.821C133.846 208.248 124.061 184.848 124.061 184.848C124.061 184.848 140.446 168.295 153.962 162.132C168.396 155.551 194.173 154.158 194.173 154.158C194.173 154.158 204.637 168.367 209.639 178.323C216.585 192.147 221.696 215.073 222.435 218.49L222.528 218.438C222.528 218.438 219.184 195.058 212.733 181.465C207.249 169.912 194.173 154.158 194.173 154.158L184.378 151.258C184.378 151.258 158.601 152.651 144.167 159.232Z" fill="#ACAAAA"/>
<path d="M114.266 181.949C114.266 181.949 124.051 205.349 133.083 218.923C140.947 230.742 156.281 247.196 156.281 247.196L166.077 250.096C166.077 250.096 150.742 233.642 142.878 221.822C133.846 208.249 124.061 184.849 124.061 184.849L114.266 181.949Z" fill="#BBB8B8"/>
<path d="M107.859 199.275C107.815 198.961 108.082 198.695 108.398 198.723C110.405 198.9 111.95 198.866 114.229 198.664C118.8 198.26 121.294 197.329 125.571 195.764C127.628 195.012 128.759 194.528 130.726 193.589C134.435 191.82 136.408 190.6 139.748 188.273C142.961 186.035 145.022 184.961 147.486 182.052C147.636 181.875 147.887 181.818 148.09 181.93C151.35 183.725 151.401 186.866 152.894 189.239C152.894 189.239 146.803 191.358 143.357 194.314C139.625 197.515 137.046 198.707 132.273 200.597C127.779 202.377 124.483 203.164 119.642 203.739C115.429 204.239 110.878 206.639 110.878 206.639C109.256 203.715 108.245 202.003 107.859 199.275Z" fill="url(#paint17_linear_166_2)"/>
<path d="M221.758 284.894C221.964 283.778 221.758 281.994 221.758 281.994L239.801 286.344L238.512 290.452C238.512 290.452 245.266 297.269 246.245 302.777C246.761 305.676 245.291 312.201 240.832 312.201C232.842 312.201 229.679 308.812 225.109 303.743C221.03 299.219 217.202 295.427 218.922 289.727C219.548 287.654 221.365 287.016 221.758 284.894Z" fill="#C0C0C0"/>
<path d="M108.148 200.839C109.694 201.323 113.068 201.544 115.573 201.323C120.144 200.918 122.843 200.229 127.12 198.664C129.177 197.912 130.308 197.428 132.275 196.489C135.984 194.72 138.472 193.258 141.813 190.931C145.134 188.617 148.978 186.098 150.268 183.682C150.783 184.165 151.338 185.585 151.918 187.548C151.918 187.548 148.147 193.533 144.701 196.489C140.969 199.691 138.39 200.882 133.617 202.773C129.123 204.553 125.826 205.339 120.986 205.914C116.773 206.414 110.16 204.947 110.16 204.947C109.643 204.947 108.405 202.289 108.148 200.839Z" fill="url(#paint18_linear_166_2)"/>
<path d="M242.379 156.092C242.379 156.092 244.15 155.951 245.214 155.609C246.407 155.225 247.033 154.859 248.05 154.159C249.197 153.368 249.612 152.678 250.627 151.742C253.674 148.933 258.618 144.734 258.618 144.734C258.618 144.734 259.577 144.333 260.165 144.492C260.648 144.623 260.878 144.851 261.196 145.217C261.48 145.545 261.622 145.77 261.711 146.184C261.832 146.747 261.599 147.076 261.454 147.634C260.8 150.152 257.587 153.083 258.103 153.434L258.618 153.675C259.134 153.675 261.602 151.371 263.774 150.292C264.848 149.758 265.431 149.367 266.609 149.084C267.686 148.825 268.509 148.279 269.444 148.842C270.055 149.21 270.284 149.636 270.475 150.292C270.634 150.838 270.545 151.18 270.475 151.742C270.09 154.858 263.748 156.334 264.289 157.3C264.458 157.601 264.48 157.873 264.805 158.025C265.32 158.267 267.341 158.055 268.929 157.784C271.027 157.425 271.959 156.258 274.084 156.092C274.786 156.037 275.221 155.879 275.889 156.092C276.633 156.329 277.275 156.579 277.435 157.3C277.565 157.885 277.218 158.223 276.92 158.75C276.387 159.694 275.757 160.028 274.858 160.683C273.436 161.72 272.402 161.981 270.733 162.617C268.312 163.539 266.578 163.127 264.289 164.308C263.213 164.864 261.711 164.848 261.711 166C261.711 167.691 266.858 168.422 267.382 171.316C267.534 172.154 267.912 172.802 267.382 173.491C266.88 174.146 266.169 174.084 265.32 174.216C263.216 174.543 262.214 173.081 260.165 172.525C257.983 171.932 256.752 171.545 254.494 171.316C252.392 171.103 249.081 171.316 249.081 171.316L248.308 159.717L242.379 156.092Z" fill="#C0C0C0"/>
<path d="M191.539 313.316C192.425 312.146 193.896 310.379 193.896 310.379L203.326 311.848L209.382 309.784L213.542 301.326C213.542 301.326 214.546 303.697 215.114 305.241C215.67 306.756 216.163 307.573 216.424 309.156C216.942 312.308 216.258 314.226 215.114 317.231C213.42 321.679 211.056 323.647 207.517 327.018C204.094 330.28 197.563 334.114 197.563 334.114C197.563 334.114 190.432 337.325 187.085 335.093C185.284 333.891 184.586 332.666 183.942 330.688C182.844 327.317 184.669 325.163 186.038 321.88C187.553 318.245 189.127 316.499 191.539 313.316Z" fill="#C0C0C0"/>
<path d="M183.117 328.241C182.55 326.697 181.545 324.326 181.545 324.326C181.545 324.326 176.013 329.382 177.385 332.784C178.116 334.595 180.288 334.589 180.994 336.409C182.072 339.187 180.151 341.047 178.674 343.659C177.496 345.743 176.492 346.739 174.808 348.492C172.899 350.477 172.039 351.345 170.168 353.083C168.421 354.706 165.566 357.114 165.566 357.114C165.566 357.114 172.097 353.279 175.52 350.018C179.059 346.647 181.423 344.679 183.117 340.231C184.261 337.226 184.945 335.308 184.427 332.156C184.166 330.573 183.673 329.756 183.117 328.241Z" fill="#9C9C9C"/>
<path d="M159.542 336.316C157.13 339.5 155.556 341.245 154.041 344.88C152.672 348.164 150.849 350.317 151.945 353.689C152.589 355.668 153.67 357.433 155.089 358.093C154.961 357.336 154.7 357.734 154.444 356.225C154.188 354.716 153.837 353.276 154.041 351.392C154.287 349.119 154.965 347.907 155.991 345.834C157.09 343.612 157.653 342.21 159.542 340.517C160.38 339.766 160.944 339.441 161.899 338.826C165.228 336.682 171.969 337.857 171.329 334.848C170.599 331.416 161.899 333.38 161.899 333.38C161.899 333.38 160.428 335.146 159.542 336.316Z" fill="#D6D6D6"/>
<path d="M140.89 180.175C147.334 180.175 149.014 180.232 153.962 179.29C158.953 178.34 161.752 177.507 166.335 175.424C170.531 173.517 172.837 172.217 176.388 169.382C179.424 166.958 181.801 164.549 183.347 162.374C184.379 163.583 184.327 164.134 185.41 164.791C185.788 165.02 186.013 165.143 186.441 165.274C188.288 165.841 189.193 164.021 191.08 163.583C193.434 163.036 194.849 163.27 197.267 163.099C202.495 162.731 205.441 162.733 210.671 162.374C215.306 162.056 217.946 162.139 222.528 161.408C229.904 160.231 233.356 156.442 240.829 156.091C242.338 156.02 243.222 155.784 244.696 156.091C247.968 156.773 249.153 158.877 251.14 161.408C252.555 163.209 253.595 164.274 253.976 166.482C254.419 169.059 254.284 171.061 252.429 173.007C250.346 175.192 247.584 173.821 244.696 174.94C241.441 176.202 240.335 178.337 236.963 179.29C234.727 179.922 233.295 179.468 231.034 180.015C226.98 180.996 225.387 183.156 221.497 184.607C218.746 185.633 217.189 186.271 214.279 186.782C212.192 187.148 210.986 187.141 208.866 187.265C204.848 187.499 204.484 186.298 199.587 187.265C199.587 188.473 199.614 188.91 200.36 189.923C201.985 192.131 203.24 193.124 205 195.24C211.352 202.878 212.159 209.146 219.435 216.022C220.331 216.869 221.075 217.148 221.787 218.136C222.773 219.507 222.191 220.772 223.108 222.184C224.609 224.497 226.634 224.865 229.182 226.141C231.071 227.088 232.396 227.119 234.224 228.165C236.409 229.415 237.332 230.528 239.154 232.213C240.663 233.608 241.324 234.558 242.827 235.959C244.939 237.927 246.751 238.455 248.562 240.671C250.151 242.614 250.898 243.886 251.656 246.229C252.275 248.145 252.543 249.305 252.429 251.304C252.295 253.66 251.32 254.836 250.625 257.104C249.066 262.187 248.679 265.18 246.758 270.153C244.841 275.117 242.441 277.419 240.829 282.477C240.061 284.89 241.174 286.972 239.283 288.761C237.579 290.372 235.774 290.41 233.354 290.452C230.962 290.494 229.562 290.012 227.426 289.002C225.942 288.301 225.078 287.847 223.946 286.706C222.58 285.331 220.705 284.343 220.466 282.477C219.693 276.436 220.862 274.358 222.27 269.428C222.967 266.99 224.601 265.908 224.719 263.387C224.814 261.362 224.5 260.137 223.559 258.312C218.661 255.654 215.826 255.654 206.546 253.962C206.031 253.962 204.484 253.962 203.453 258.553C202.938 261.695 203.854 264.777 205 268.945C206.06 272.801 206.358 275.038 207.578 278.853C209.214 283.974 210.819 286.624 212.733 291.66C213.662 294.106 214.666 295.372 215.053 297.943C215.334 299.812 215.384 300.915 215.053 302.777C214.461 306.107 213.614 308.182 211.444 310.993C210.316 312.453 209.801 313.548 208.093 314.376C206.207 315.291 204.803 314.818 202.68 314.859C200.665 314.898 199.505 314.97 197.525 314.618C195.867 314.323 194.793 314.303 193.4 313.41C192.102 312.577 191.755 311.697 190.823 310.51C187.914 306.804 186.823 304.199 184.894 299.877C182.423 294.34 181.642 290.995 180.254 285.136C179.677 282.696 179.542 281.292 178.965 278.853C177.835 274.069 178.347 273.019 175.872 268.703C174.437 266.2 172.03 263.465 170.846 260.849C169.704 258.328 170.202 256.42 168.912 253.962C167.247 250.788 167.366 253.962 163.499 246.712C160.032 240.211 155.766 237.529 153.704 230.521C153.347 229.308 153.208 228.612 152.931 227.38C152.592 225.877 152.476 225.02 152.158 223.513C151.276 219.336 150.869 214.572 149.58 212.88C149.079 212.831 148.794 212.857 148.291 212.88C144.167 213.077 147.586 227.352 143.651 235.596C142.916 237.137 142.071 237.836 141.589 239.463C140.916 241.736 142.119 243.198 141.589 245.504C141.002 248.063 140.338 249.579 138.496 251.545C136.875 253.277 135.677 254.214 133.341 254.929C130.852 255.69 129.244 255.166 126.639 254.929C124.398 254.725 122.913 255.024 120.968 253.962C119.306 253.055 118.353 252.245 117.617 250.579C116.808 248.748 117.844 247.474 117.617 245.504C117.407 243.682 116.896 242.722 116.586 240.913C116.312 239.318 115.837 238.405 116.07 236.804C116.243 235.622 116.804 235.065 117.101 233.905C117.55 232.151 117.575 231.116 117.617 229.313C117.67 227.041 116.982 225.783 117.101 223.513C117.177 222.087 117.42 221.305 117.617 219.888C118.154 216.023 117.739 213.722 118.906 209.981C119.326 208.634 119.549 207.863 120.195 206.597C120.857 205.298 121.404 204.654 122.257 203.456C123.296 201.995 124.067 201.3 125.092 199.831C127.31 196.652 127.589 194.355 129.732 191.131C130.766 189.576 131.296 188.657 132.567 187.265C134.756 184.869 136.003 182.947 139.269 182.19C139.864 182.052 140.365 182.336 140.816 181.948C141.341 181.497 140.697 180.818 140.89 180.175Z" fill="url(#paint19_linear_166_2)"/>
<path d="M221.791 218.137C221.079 217.148 220.335 216.869 219.439 216.022C212.163 209.147 211.356 202.878 205.004 195.24C203.245 193.124 201.989 192.131 200.364 189.924C199.619 188.911 199.591 187.265 199.591 187.265C199.591 187.265 197.01 186.748 195.723 185.815C192.846 183.729 193.919 177.357 193.404 177.357C187.922 177.358 194.212 185.354 195.209 190.407C195.808 193.447 196.051 195.183 197.013 198.14C198.734 203.43 200.241 206.312 203.457 210.948C207.149 216.269 209.136 219.951 215.057 223.03C220.013 225.608 231.733 227.418 229.186 226.142C226.638 224.865 224.614 224.498 223.112 222.185C222.195 220.773 222.777 219.507 221.791 218.137Z" fill="#539B53"/>
<path d="M167.608 197.657L168.639 196.932C168.639 196.932 168.997 200.761 168.897 203.215C168.797 205.683 168.871 207.129 168.124 209.498C167.14 212.618 165.109 213.756 163.742 216.747C162.902 218.586 161.937 221.581 161.937 221.581C161.937 221.581 160.324 215.202 161.164 213.364C162.531 210.373 164.562 209.235 165.546 206.115C166.293 203.746 166.219 202.3 166.32 199.832C167.608 197.657 167.608 197.657 167.608 197.657Z" fill="#539B53"/>
<path d="M140.816 181.949C140.365 182.337 139.864 182.053 139.269 182.191C136.003 182.948 134.756 184.87 132.567 187.266C131.296 188.657 130.766 189.577 129.732 191.132C127.589 194.356 127.31 196.653 125.092 199.832C124.067 201.301 123.296 201.996 122.257 203.457C121.404 204.655 120.857 205.299 120.195 206.598C119.549 207.864 119.326 208.635 118.906 209.981C117.739 213.723 118.154 216.024 117.617 219.889C117.42 221.305 117.177 222.088 117.101 223.514C116.982 225.784 117.67 227.042 117.617 229.314C117.575 231.116 117.55 232.152 117.101 233.905C116.804 235.066 116.243 235.622 116.07 236.805C115.837 238.406 116.312 239.318 116.586 240.913C116.896 242.723 117.407 243.683 117.617 245.505C117.844 247.475 116.808 248.749 117.617 250.58C118.353 252.245 119.306 253.056 120.968 253.963C122.913 255.025 124.398 254.726 126.639 254.929C128.879 255.133 127.007 245.313 127.928 239.222C129.086 231.56 130.318 227.335 132.567 219.889C134.771 212.596 136.159 208.521 139.269 201.523C142.785 193.615 158.274 185.243 149.838 181.949H140.816Z" fill="#539B53"/>
<path d="M197.528 314.619C199.508 314.971 202.683 314.86 202.683 314.86C207.81 313.211 199.419 307.54 197.528 302.777C195.817 298.47 194.814 296.063 193.403 291.661C192.265 288.11 192.637 285.775 190.826 282.478C189.378 279.844 187.41 279.054 185.928 276.437C183.328 271.843 183.605 268.566 183.093 263.387C182.656 258.971 183.093 256.465 183.093 252.03C183.093 248.538 183.414 246.567 183.093 243.088C182.819 240.136 183.891 237.822 181.804 235.597C180.136 233.82 178.396 218.139 175.875 218.008C172.981 217.857 171.249 218.812 168.915 220.424C164.818 223.255 159.636 239.463 163.502 246.713C167.369 253.963 167.25 250.789 168.915 253.963C170.205 256.421 169.707 258.329 170.849 260.85C172.033 263.466 174.44 266.201 175.875 268.704C178.35 273.02 177.838 274.069 178.968 278.853C179.545 281.293 179.68 282.697 180.257 285.137L180.297 285.306C181.66 291.061 182.449 294.394 184.897 299.878C186.826 304.2 187.825 306.763 190.826 310.51C191.77 311.689 192.105 312.578 193.403 313.41C194.796 314.303 195.87 314.323 197.528 314.619Z" fill="#539B53"/>
<path d="M170.141 180.994L171.018 180.486C171.018 180.486 175.642 185.997 178.238 189.764C183.085 196.797 184.238 201.57 188.55 208.903C190.884 212.872 192.41 214.982 194.737 218.955C198.152 224.785 200.959 227.756 202.986 234.131C204.806 239.856 205.048 249.307 205.048 249.307L204.171 249.815C204.171 249.815 203.929 240.364 202.108 234.639C200.082 228.264 197.275 225.293 193.86 219.463C191.532 215.49 190.007 213.38 187.673 209.411C183.361 202.078 182.208 197.305 177.361 190.272C174.764 186.505 170.141 180.994 170.141 180.994Z" fill="#539B53"/>
<path d="M184.894 164.549C184.894 164.549 185.671 165.009 186.183 165.177C187.214 165.516 187.173 165.37 187.729 165.274C188.76 165.032 189.216 164.231 190.307 163.824C190.988 163.57 191.394 163.481 192.111 163.341C193.396 163.089 194.153 163.178 195.462 163.099C197.875 162.953 199.233 162.959 201.649 162.857C203.763 162.768 204.949 162.73 207.062 162.616C209.883 162.463 211.459 162.3 214.279 162.132C215.99 162.03 218.661 161.891 218.661 161.891C219.13 162.346 219.232 162.737 219.435 163.341C220.249 165.764 218.795 167.605 216.857 169.382C214.672 171.385 212.418 171.229 209.382 171.557C205.45 171.981 203.266 170.727 199.329 170.349C192.208 169.664 181.027 169.382 181.027 169.382L183.347 166.965L184.894 164.549Z" fill="#539B53"/>
<path d="M147.52 196.932H148.035C148.035 196.932 150.286 202.13 150.355 205.631C150.412 208.49 149.066 212.852 149.066 212.852C148.567 212.868 148.77 212.866 148.551 212.866C148.551 212.866 149.937 208.346 149.839 205.39C149.727 201.981 147.52 196.932 147.52 196.932Z" fill="#539B53"/>
<path d="M108.59 135.598C109.306 132.434 110.137 130.697 111.898 127.865C113.557 125.197 114.814 123.839 117.136 121.582C120.413 118.396 122.626 116.834 126.785 114.574C130.798 112.393 133.316 111.491 137.812 110.224C142.716 108.842 145.621 108.23 150.769 108.049C154.869 107.906 157.219 108.073 161.244 108.774C163.652 109.194 165.046 109.39 167.309 110.224C169.488 111.027 170.661 111.634 172.547 112.882C177.361 116.07 178.678 119.266 181.369 123.999C182.769 126.461 183.388 127.919 184.402 130.523C185.448 133.21 186.096 134.728 186.607 137.531C187.338 141.538 187.813 144.005 186.607 147.923C185.629 151.101 184.365 152.726 182.196 155.414C180.26 157.813 178.964 159.071 176.407 160.972C173.238 163.327 170.964 164.073 167.309 165.805C162.818 167.934 160.315 169.267 155.455 170.638C148.426 172.622 143.915 174.227 136.709 172.813C132.943 172.074 130.881 171.227 127.612 169.43C125.019 168.005 123.743 166.948 121.547 165.08C116.894 161.123 114.514 158.438 111.898 153.239C108.683 146.851 107.04 142.446 108.59 135.598Z" fill="url(#paint20_linear_166_2)"/>
<path d="M113.189 150.098L125.82 169.43C125.82 169.43 122.019 169.607 119.891 168.705C117.49 167.688 116.539 166.356 114.993 164.355C113.488 162.407 112.798 161.127 112.158 158.797C111.329 155.781 113.189 150.098 113.189 150.098Z" fill="#B7B6B2"/>
<g filter="url(#filter0_f_166_2)">
<path d="M184.074 130.558L185.219 129.799C185.219 129.799 186.34 131.463 186.937 132.584C187.751 134.112 188.123 135.012 188.655 136.634C188.911 137.417 189.357 137.852 189.227 138.66C189.1 139.449 188.082 140.432 188.082 140.432C188.082 140.432 187.5 137.934 186.937 136.381C186.08 134.02 184.074 130.558 184.074 130.558Z" fill="#62635E" fill-opacity="0.5"/>
</g>
<path d="M112.676 139.465C113.346 136.302 114.123 134.564 115.77 131.732C117.321 129.064 118.497 127.706 120.667 125.449C123.731 122.263 125.8 120.701 129.689 118.441C133.442 116.26 135.796 115.359 140 114.091C144.586 112.709 147.301 112.097 152.115 111.916C155.949 111.773 158.146 111.94 161.91 112.641C164.161 113.061 165.465 113.257 167.581 114.091C169.618 114.894 170.715 115.501 172.478 116.75C176.979 119.937 178.211 123.133 180.727 127.866C182.036 130.328 182.614 131.787 183.562 134.39C184.541 137.077 185.146 138.595 185.624 141.399C186.308 145.406 186.752 147.872 185.624 151.79C184.71 154.968 183.528 156.593 181.5 159.281C179.689 161.681 178.479 162.938 176.087 164.839C173.124 167.194 170.998 167.94 167.581 169.672C163.382 171.801 161.041 173.134 156.497 174.505C149.924 176.489 145.707 178.094 138.969 176.68C135.447 175.941 133.52 175.094 130.462 173.297C128.038 171.872 126.845 170.816 124.792 168.947C120.442 164.99 118.216 162.306 115.77 157.106C112.764 150.718 111.227 146.313 112.676 139.465Z" fill="url(#paint21_linear_166_2)"/>
<path d="M122.469 143.814C124.789 140.189 125.703 138.946 128.398 136.322C131.485 133.318 133.611 131.954 137.42 129.798C141.122 127.703 143.409 126.833 147.473 125.448C153.144 123.515 155.979 123.031 160.619 123.031C163.898 123.031 166.095 124.944 168.094 127.381C170.672 130.523 171.255 131.242 173.25 134.872C174.841 137.77 176.601 142.605 176.601 142.605C176.601 142.605 177.811 146.713 176.601 148.888C173.507 154.447 168.018 158.895 160.619 162.905C152.897 167.089 150.566 168.704 138.709 168.221C133.038 167.013 124.369 159.181 122.47 149.855C122.071 147.9 121.377 145.521 122.469 143.814Z" fill="url(#paint22_linear_166_2)"/>
<path d="M133.553 131.972C137.287 129.363 139.842 128.136 144.122 126.414C148.277 124.743 150.718 123.793 155.205 123.273C156.807 123.087 159.33 123.031 159.33 123.031C159.33 123.031 149.741 132.441 146.441 139.947C142.802 148.227 143.09 162.663 143.09 162.663L132.264 163.63C132.264 163.63 122.675 148.198 124.274 141.88C124.789 139.844 126.25 138.285 128.14 136.322C129.999 134.392 131.329 133.526 133.553 131.972Z" fill="url(#paint23_linear_166_2)"/>
<path fill-rule="evenodd" clip-rule="evenodd" d="M95.6137 158.923C92.8175 161.659 91.87 162.955 89.464 166.734C88.4561 168.317 88.9143 170.454 89.3185 172.342C89.3689 172.577 89.4182 172.808 89.464 173.034C91.4345 182.758 100.427 190.924 106.309 192.184C118.024 192.664 120.775 191.159 127.93 187.245L129.037 186.64C136.712 182.459 142.406 177.821 145.615 172.026C146.871 169.758 145.615 165.474 145.615 165.474C145.615 165.474 143.79 160.433 142.139 157.411C140.07 153.626 139.465 152.876 136.791 149.6C134.718 147.059 132.439 145.064 129.037 145.064C124.224 145.064 121.283 145.568 115.4 147.584C111.185 149.029 108.812 149.935 104.972 152.12C101.021 154.368 98.8161 155.79 95.6137 158.923ZM96.4016 159.322C93.7061 161.946 92.7929 163.189 90.473 166.813C89.5018 168.331 89.9428 170.38 90.3325 172.19C90.3808 172.416 90.4286 172.638 90.473 172.855C92.373 182.181 101.041 190.013 106.712 191.221C118.005 191.681 120.658 190.238 127.556 186.484C127.9 186.297 128.255 186.103 128.622 185.904C136.022 181.895 141.511 177.446 144.604 171.888C145.815 169.713 144.604 165.605 144.604 165.605C144.604 165.605 142.845 160.77 141.253 157.872C139.259 154.242 138.675 153.522 136.098 150.381C134.098 147.944 131.901 146.031 128.622 146.031C123.983 146.031 121.147 146.514 115.476 148.448C111.413 149.833 109.125 150.702 105.423 152.797C101.614 154.953 99.4887 156.318 96.4016 159.322Z" fill="url(#paint24_linear_166_2)"/>
<g filter="url(#filter1_d_166_2)">
<path d="M338.745 420.133V387.315H267.714L260.746 369.557L311.771 253.346H351.333L306.826 354.272H338.745V325.95L346.163 305.495H377.632V354.272H392.692V381.246L377.632 387.315V420.133H338.745Z" fill="#6D6A6A"/>
</g>
<defs>
<filter id="filter0_f_166_2" x="180.074" y="125.799" width="13.1758" height="18.6328" filterUnits="userSpaceOnUse" color-interpolation-filters="sRGB">
<feFlood flood-opacity="0" result="BackgroundImageFix"/>
<feBlend mode="normal" in="SourceGraphic" in2="BackgroundImageFix" result="shape"/>
<feGaussianBlur stdDeviation="2" result="effect1_foregroundBlur_166_2"/>
</filter>
<filter id="filter1_d_166_2" x="249.746" y="249.346" width="142.945" height="174.787" filterUnits="userSpaceOnUse" color-interpolation-filters="sRGB">
<feFlood flood-opacity="0" result="BackgroundImageFix"/>
<feColorMatrix in="SourceAlpha" type="matrix" values="0 0 0 0 0 0 0 0 0 0 0 0 0 0 0 0 0 0 127 0" result="hardAlpha"/>
<feOffset dx="-7"/>
<feGaussianBlur stdDeviation="2"/>
<feColorMatrix type="matrix" values="0 0 0 0 0 0 0 0 0 0 0 0 0 0 0 0 0 0 0.4 0"/>
<feBlend mode="normal" in2="BackgroundImageFix" result="effect1_dropShadow_166_2"/>
<feBlend mode="normal" in="SourceGraphic" in2="effect1_dropShadow_166_2" result="shape"/>
</filter>
<linearGradient id="paint0_linear_166_2" x1="541.668" y1="116.421" x2="579.09" y2="79.21" gradientUnits="userSpaceOnUse">
<stop stop-color="#F67C01"/>
<stop offset="1" stop-color="#BB5E00"/>
</linearGradient>
<linearGradient id="paint1_linear_166_2" x1="608.127" y1="25.7079" x2="643.803" y2="65.8133" gradientUnits="userSpaceOnUse">
<stop offset="0.213542" stop-color="#D2CECE"/>
<stop offset="1" stop-color="#393535"/>
</linearGradient>
<linearGradient id="paint2_linear_166_2" x1="608.127" y1="25.7079" x2="643.803" y2="65.8133" gradientUnits="userSpaceOnUse">
<stop offset="0.213542" stop-color="#D2CECE"/>
<stop offset="1" stop-color="#393535"/>
</linearGradient>
<linearGradient id="paint3_linear_166_2" x1="594.105" y1="87.5704" x2="611.2" y2="106.788" gradientUnits="userSpaceOnUse">
<stop stop-color="#404040"/>
<stop offset="1"/>
</linearGradient>
<linearGradient id="paint4_linear_166_2" x1="577.367" y1="71.0306" x2="558.785" y2="50.1424" gradientUnits="userSpaceOnUse">
<stop/>
<stop offset="1" stop-color="#7A7A7A"/>
</linearGradient>
<linearGradient id="paint5_linear_166_2" x1="649.787" y1="0.622184" x2="672.828" y2="26.5236" gradientUnits="userSpaceOnUse">
<stop stop-color="#8C8B8B"/>
<stop offset="1"/>
</linearGradient>
<linearGradient id="paint6_linear_166_2" x1="643.006" y1="38.0869" x2="633.344" y2="27.225" gradientUnits="userSpaceOnUse">
<stop offset="0.0885417" stop-color="#212121"/>
<stop offset="1" stop-color="#606060"/>
</linearGradient>
<linearGradient id="paint7_linear_166_2" x1="165.176" y1="238.16" x2="239.539" y2="419.501" gradientUnits="userSpaceOnUse">
<stop stop-color="#9747FF"/>
<stop offset="1" stop-color="#9785F1"/>
</linearGradient>
<linearGradient id="paint8_linear_166_2" x1="144.483" y1="291.002" x2="155.926" y2="318.899" gradientUnits="userSpaceOnUse">
<stop stop-color="#200543"/>
<stop offset="1" stop-color="#6D4C98"/>
</linearGradient>
<linearGradient id="paint9_linear_166_2" x1="258.828" y1="357.449" x2="270.07" y2="361.624" gradientUnits="userSpaceOnUse">
<stop stop-color="#2E0508"/>
<stop offset="1" stop-color="#7D060D"/>
</linearGradient>
<linearGradient id="paint10_linear_166_2" x1="213.578" y1="367.641" x2="220.687" y2="407.128" gradientUnits="userSpaceOnUse">
<stop stop-color="#200543"/>
<stop offset="1" stop-color="#5D4FA3"/>
</linearGradient>
<linearGradient id="paint11_linear_166_2" x1="79.0534" y1="398.593" x2="70.2366" y2="362.855" gradientUnits="userSpaceOnUse">
<stop stop-color="#200543"/>
<stop offset="1" stop-color="#65399E"/>
</linearGradient>
<linearGradient id="paint12_linear_166_2" x1="117.323" y1="374.776" x2="107.955" y2="339.142" gradientUnits="userSpaceOnUse">
<stop stop-color="#513179"/>
<stop offset="1" stop-color="#200543"/>
</linearGradient>
<linearGradient id="paint13_linear_166_2" x1="226.675" y1="418.454" x2="186.823" y2="418.444" gradientUnits="userSpaceOnUse">
<stop stop-color="#2A0001"/>
<stop offset="1" stop-color="#360103"/>
</linearGradient>
<linearGradient id="paint14_linear_166_2" x1="259.279" y1="402.949" x2="271.688" y2="374.295" gradientUnits="userSpaceOnUse">
<stop stop-color="#380103"/>
<stop offset="1" stop-color="#470205"/>
</linearGradient>
<linearGradient id="paint15_linear_166_2" x1="248.651" y1="280.176" x2="261.02" y2="298.095" gradientUnits="userSpaceOnUse">
<stop stop-color="#200543"/>
<stop offset="1" stop-color="#5D4083"/>
</linearGradient>
<linearGradient id="paint16_linear_166_2" x1="250.245" y1="279.158" x2="263.077" y2="296.757" gradientUnits="userSpaceOnUse">
<stop stop-color="#4B1E85"/>
<stop offset="1" stop-color="#200543"/>
</linearGradient>
<linearGradient id="paint17_linear_166_2" x1="142.584" y1="184.648" x2="108.859" y2="204.367" gradientUnits="userSpaceOnUse">
<stop stop-color="#778186"/>
<stop offset="1" stop-color="#474B4C"/>
</linearGradient>
<linearGradient id="paint18_linear_166_2" x1="143.102" y1="186.098" x2="110.598" y2="204.767" gradientUnits="userSpaceOnUse">
<stop stop-color="#C1C1C1"/>
<stop offset="1" stop-color="#929292"/>
</linearGradient>
<linearGradient id="paint19_linear_166_2" x1="209.897" y1="161.891" x2="182.145" y2="320.34" gradientUnits="userSpaceOnUse">
<stop stop-color="#9CC69B"/>
<stop offset="1" stop-color="#77DD77"/>
</linearGradient>
<linearGradient id="paint20_linear_166_2" x1="111.093" y1="131.684" x2="171.974" y2="142.096" gradientUnits="userSpaceOnUse">
<stop stop-color="#9F9F9F"/>
<stop offset="1" stop-color="#787877"/>
</linearGradient>
<linearGradient id="paint21_linear_166_2" x1="112.125" y1="140.385" x2="159.291" y2="141.759" gradientUnits="userSpaceOnUse">
<stop stop-color="#CBCBCB"/>
<stop offset="1" stop-color="#828380"/>
</linearGradient>
<linearGradient id="paint22_linear_166_2" x1="123.5" y1="146.23" x2="176.08" y2="147.605" gradientUnits="userSpaceOnUse">
<stop stop-color="#1B0A5D"/>
<stop offset="0.390625" stop-color="#1B0A5D"/>
<stop offset="0.970597" stop-color="#010005"/>
</linearGradient>
<linearGradient id="paint23_linear_166_2" x1="159.588" y1="125.689" x2="133.004" y2="146.168" gradientUnits="userSpaceOnUse">
<stop stop-color="#FFF9FF" stop-opacity="0.36"/>
<stop offset="1" stop-color="#1B0A5D" stop-opacity="0"/>
</linearGradient>
<linearGradient id="paint24_linear_166_2" x1="88.8907" y1="168.699" x2="146.115" y2="168.699" gradientUnits="userSpaceOnUse">
<stop stop-color="#5B5C59"/>
<stop offset="1" stop-color="#3F403E"/>
</linearGradient>
</defs>
</svg>
