<svg width="91" height="91" viewBox="0 0 91 91" fill="none" xmlns="http://www.w3.org/2000/svg">
<path d="M90.7344 45.3698C90.7344 70.4271 70.4219 90.7344 45.3646 90.7344C20.3073 90.7344 0 70.4271 0 45.3698C0 20.3125 20.3073 0 45.3646 0C70.4219 0 90.7344 20.3125 90.7344 45.3698Z" fill="#CBAACB"/>
<path d="M87.0729 45.3704C87.0729 68.4017 68.401 87.0736 45.3646 87.0736C22.3281 87.0736 3.65625 68.4017 3.65625 45.3704C3.65625 22.334 22.3281 3.66211 45.3646 3.66211C68.401 3.66211 87.0729 22.334 87.0729 45.3704Z" stroke="white" stroke-width="1.33333" stroke-miterlimit="10"/>
<path d="M23.0943 70.1916C22.9722 70.1522 22.85 70.1088 22.7258 70.0756C20.9888 69.6139 19.8853 68.0032 20.0095 66.2082C20.2642 62.5105 20.5271 58.8129 20.6948 55.1132C20.7466 53.9827 20.4836 52.842 20.3987 51.7033C20.2186 49.2789 19.906 46.8586 20.1503 44.4218C20.3925 42.0119 21.1337 39.8298 23.0654 38.2128C24.0343 37.4013 25.1626 36.9064 26.3717 36.5814C26.5063 36.5462 26.6388 36.5069 26.85 36.4468C25.7216 35.8692 24.7858 35.1735 24.0136 34.2688C23.173 33.2854 22.5995 32.1653 22.2269 30.9272C22.1689 30.7388 22.0157 30.538 21.848 30.4304C21.4008 30.1384 21.1482 29.7534 21.1358 29.2213C21.1254 28.83 21.1254 28.4366 21.1358 28.0453C21.1503 27.5132 21.407 27.1323 21.8563 26.8424C22.024 26.7348 22.1813 26.5339 22.2351 26.3435C23.2455 22.8342 26.1316 20.4243 29.8064 20.0434C33.1687 19.6935 36.5061 21.534 38.1872 24.6458C38.2825 24.8238 38.4812 24.9853 38.6696 25.064C39.7069 25.4946 40.3259 26.3662 40.3383 27.4863C40.3466 28.2544 40.3466 29.0204 40.3383 29.7885C40.3239 30.9086 39.7048 31.7802 38.6614 32.2047C38.5081 32.2668 38.3342 32.3682 38.2514 32.5007C36.8622 34.7657 36.4171 35.1943 33.9057 36.6062C34.4275 36.8692 34.9451 37.1073 35.4419 37.3888C36.4937 37.9851 37.3715 38.7905 38.0692 39.7718C39.8663 42.2976 41.6592 44.8297 43.4377 47.368C44.7027 49.1754 43.7813 51.5646 41.6509 52.0056C40.6572 52.2105 39.7773 51.931 39.0299 51.2457C38.8311 51.0635 38.6365 50.8751 38.3363 50.5915C38.4378 51.6163 38.5185 52.5024 38.6117 53.3865C38.9926 56.9889 39.3756 60.5913 39.7586 64.1937C39.827 64.8438 39.9139 65.4898 39.9657 66.1419C40.121 68.115 39.0133 69.6284 37.0837 70.1046C37.0237 70.1191 36.9699 70.1584 36.9119 70.1874H35.8332C35.7753 70.1605 35.7194 70.1232 35.6573 70.1088C34.3012 69.8189 33.4047 68.999 32.9078 67.7216C32.6366 67.0239 32.3716 66.3241 32.1025 65.6264C31.442 63.9163 30.7795 62.2062 30.0818 60.4008C29.9783 60.6286 29.9079 60.7673 29.8478 60.9102C28.9058 63.1979 27.9617 65.4836 27.028 67.7734C26.7568 68.438 26.3986 69.0508 25.7899 69.4297C25.2889 69.7423 24.7154 69.939 24.173 70.1874H23.0943V70.1916ZM30.0404 37.2543C29.705 37.277 29.1004 37.2977 28.5 37.3661C27.0094 37.5358 25.5767 37.9023 24.32 38.7635C22.3573 40.1093 21.5975 42.1051 21.3325 44.3618C21.0923 46.4218 21.3697 48.4694 21.4753 50.5232C21.5747 52.459 21.9888 54.3678 21.8335 56.3285C21.5706 59.6327 21.4091 62.9432 21.1855 66.2517C21.0964 67.5643 21.8045 68.6326 23.0322 68.9411C24.2227 69.2413 25.409 68.6533 25.8872 67.4504C27.3241 63.8294 28.7361 60.198 30.1522 56.5686C30.2888 56.2167 30.5083 55.9951 30.8892 56.1111C31.2826 56.2311 31.3965 56.5334 31.2702 56.9289C31.1128 57.4257 30.9451 57.9226 30.8209 58.4278C30.7712 58.6328 30.7671 58.8853 30.8416 59.0779C31.8913 61.8356 32.9534 64.5892 34.0238 67.3386C34.5144 68.5974 35.6863 69.2371 36.9078 68.9452C38.179 68.6409 38.9264 67.5705 38.7856 66.1896C38.4916 63.2994 38.179 60.4112 37.8684 57.5231C37.5579 54.6349 37.2432 51.7468 36.9181 48.8586C36.7898 47.7241 36.6283 46.5936 36.4771 45.4612C36.4274 45.0843 36.5372 44.7924 36.9285 44.72C37.3467 44.6413 37.5682 44.8794 37.6324 45.281C37.6469 45.3783 37.6697 45.4736 37.6821 45.5709C37.8166 46.5232 37.9429 47.4777 38.0858 48.43C38.1086 48.5791 38.1707 48.753 38.2721 48.8565C38.8104 49.4031 39.3508 49.9518 39.9201 50.4631C40.4853 50.9724 41.2845 51.0346 41.9284 50.6784C42.8828 50.1526 43.125 48.9683 42.4563 48.018C40.8104 45.6827 39.1251 43.3763 37.5144 41.0182C35.7691 38.4654 33.3861 37.2108 30.0362 37.2543H30.0404ZM33.5331 26.0888C32.1128 26.0888 30.6946 26.0826 29.2744 26.0909C28.3634 26.0971 27.8127 26.6499 27.8023 27.5567C27.792 28.2751 27.794 28.9935 27.8023 29.7119C27.8148 30.6208 28.3634 31.1798 29.2723 31.1819C32.0797 31.1902 34.885 31.1902 37.6924 31.1819C38.6013 31.1798 39.1541 30.6208 39.1665 29.714C39.1769 29.0287 39.1727 28.3434 39.1665 27.6581C39.1603 26.6271 38.6282 26.0909 37.5972 26.0888C36.2432 26.0847 34.8892 26.0888 33.5331 26.0888ZM36.9409 24.9129C35.6635 22.3125 32.3033 20.7639 29.2309 21.3001C26.4235 21.7887 23.6989 24.3062 23.4339 26.6768C24.4484 26.6768 25.4587 26.6872 26.4711 26.6644C26.6015 26.6623 26.7816 26.5215 26.8479 26.3952C27.3738 25.4077 28.1812 24.9108 29.3013 24.9108C31.4565 24.9129 33.6118 24.9108 35.767 24.9108C36.1376 24.9108 36.5103 24.9108 36.9409 24.9108V24.9129ZM36.9326 32.362C36.7007 32.362 36.5227 32.362 36.3467 32.362C34.0134 32.362 31.678 32.3579 29.3447 32.3641C28.206 32.3682 27.3758 31.8858 26.85 30.8713C26.7961 30.7678 26.6926 30.6146 26.6119 30.6146C25.5477 30.5981 24.4815 30.6022 23.4007 30.6022C24.0798 33.5069 26.7133 35.7036 29.8685 36.0576C32.6138 36.3661 35.8167 34.716 36.9326 32.362ZM26.6139 27.8528C25.5125 27.8528 24.4546 27.8424 23.3987 27.8548C22.1316 27.8714 22.3428 27.6209 22.3076 28.9811C22.2993 29.331 22.4339 29.4304 22.7672 29.4262C23.9577 29.4117 25.1502 29.4221 26.3407 29.418C26.4318 29.418 26.5228 29.3869 26.6139 29.3703V27.8528Z" fill="white"/>
<path d="M53.1811 70.1916C53.0755 70.1564 52.972 70.1129 52.8664 70.084C51.1107 69.6306 49.9451 68.0447 50.1231 66.2455C50.4503 62.9329 50.8229 59.6245 51.1728 56.3119C51.3529 54.608 51.531 52.9041 51.7049 51.1982C51.7215 51.0429 51.707 50.8855 51.707 50.6433C51.4565 50.8773 51.2639 51.0657 51.0631 51.2458C49.8809 52.3037 48.2184 52.3265 47.0487 51.3037C45.9182 50.3162 45.7485 48.6537 46.6594 47.3556C48.4337 44.8318 50.2101 42.3101 52.001 39.7988C52.9512 38.4655 54.1955 37.4862 55.7069 36.8485C55.8684 36.7802 56.0278 36.7077 56.2307 36.6166C55.9056 36.4489 55.6137 36.3081 55.3322 36.1508C53.8581 35.3185 52.7339 34.1446 51.9181 32.6623C51.8126 32.4718 51.6138 32.2854 51.415 32.2026C50.3819 31.7679 49.765 30.8962 49.7546 29.772C49.7484 29.0205 49.7484 28.269 49.7546 27.5174C49.7629 26.3663 50.3778 25.4926 51.4378 25.0537C51.6241 24.9771 51.8188 24.8073 51.914 24.6293C53.5641 21.5424 56.947 19.6832 60.301 20.0434C63.9655 20.4368 66.8351 22.8301 67.8413 26.3083C67.8992 26.5112 68.1021 26.6748 68.2429 26.8528C68.2719 26.888 68.3278 26.9004 68.3671 26.9294C69.3154 27.5961 69.218 29.8321 68.2201 30.4263C68.0918 30.5029 67.9324 30.6188 67.8972 30.7451C67.216 33.3082 65.6715 35.1695 63.2761 36.4262C63.3962 36.4738 63.4707 36.509 63.5473 36.5338C63.6239 36.5587 63.7068 36.5669 63.7854 36.5897C67.2346 37.5338 69.3236 39.9851 69.8454 43.6144C70.1787 45.9353 69.953 48.2438 69.7833 50.5522C69.6818 51.9186 69.4396 53.2789 69.3961 54.6453C69.3568 55.8647 69.4955 57.0904 69.5721 58.3119C69.7232 60.7881 69.8847 63.2663 70.0462 65.7424C70.0586 65.9184 70.1042 66.0923 70.1331 66.2683V66.8563C70.1 66.9805 70.0607 67.1026 70.0358 67.2269C69.8309 68.2455 69.3112 69.0695 68.4189 69.5995C67.982 69.8604 67.4727 69.9949 66.9966 70.1875H65.9179C64.2637 69.8045 63.3631 68.6927 62.7854 67.1503C61.9987 65.0489 61.096 62.9888 60.243 60.9123C60.183 60.7694 60.1147 60.6286 60.0153 60.4113C59.9014 60.6887 59.8228 60.8792 59.7482 61.0717C58.8973 63.2725 58.0423 65.4712 57.2017 67.6761C56.7959 68.7362 56.1085 69.5146 55.0423 69.9308C54.7877 70.0301 54.5206 70.1026 54.2597 70.1875H53.1811V70.1916ZM68.9137 46.956C68.8392 45.9684 68.8247 44.8028 68.6487 43.6641C68.1663 40.5565 66.4479 38.453 63.3465 37.7119C62.0588 37.4054 60.7006 37.2978 59.3735 37.2833C56.682 37.2543 54.4999 38.3868 52.9161 40.5627C51.1211 43.0306 49.382 45.5399 47.6221 48.0347C47.0445 48.8545 47.1501 49.8545 47.8561 50.4653C48.5683 51.0781 49.5621 51.0408 50.2971 50.3535C50.7981 49.8856 51.2908 49.4052 51.7649 48.9125C51.8892 48.7841 51.9782 48.5874 52.0051 48.4094C52.1645 47.3949 52.2991 46.3742 52.444 45.3577C52.4999 44.956 52.6697 44.6641 53.1355 44.7117C53.504 44.749 53.6635 45.0388 53.5993 45.5295C53.4626 46.5813 53.3053 47.6309 53.1873 48.6847C52.8622 51.5874 52.5496 54.4921 52.237 57.3968C51.9181 60.3657 51.6034 63.3367 51.2908 66.3076C51.2163 67.0095 51.415 67.6347 51.8788 68.1668C53.1127 69.5767 55.3259 69.1875 56.034 67.4111C56.9636 65.0778 57.8021 62.7094 58.7793 60.3988C59.2576 59.2684 59.4439 58.2187 58.8725 57.1007C58.8352 57.0283 58.8186 56.9475 58.8 56.8668C58.711 56.4859 58.8497 56.2084 59.2224 56.107C59.5826 56.0097 59.8062 56.2105 59.9325 56.5418C60.7192 58.6142 61.4956 60.6907 62.3031 62.7549C62.9324 64.3636 63.5825 65.966 64.2575 67.5561C64.7192 68.6451 65.8786 69.2144 66.9862 68.9598C68.1497 68.6948 68.9882 67.6782 68.922 66.5229C68.7708 63.8667 68.5804 61.2104 68.4189 58.5541C68.3361 57.2188 68.1601 55.8751 68.2346 54.5459C68.3754 52.0698 68.6673 49.604 68.9137 46.956ZM56.6137 31.184C58.0174 31.184 59.4211 31.1902 60.8227 31.1819C61.7296 31.1757 62.2803 30.6188 62.2927 29.7099C62.3031 28.9915 62.3031 28.2731 62.2927 27.5547C62.2803 26.6479 61.7275 26.0909 60.8186 26.0889C58.0112 26.0827 55.2059 26.0827 52.3985 26.0889C51.4896 26.0909 50.9409 26.6499 50.9306 27.5588C50.9223 28.2441 50.9264 28.9294 50.9306 29.6147C50.9368 30.6437 51.4689 31.1778 52.504 31.1799C53.8746 31.184 55.2452 31.1799 56.6158 31.1799L56.6137 31.184ZM66.6715 26.6748C66.274 23.9419 63.2078 21.4078 60.0774 21.2008C57.2472 21.0123 53.7794 22.8736 53.21 24.9108C53.3943 24.9108 53.5724 24.9108 53.7483 24.9108C56.0837 24.9108 58.417 24.917 60.7524 24.9088C61.8911 24.9046 62.7192 25.3912 63.2471 26.4036C63.3072 26.5195 63.4666 26.6603 63.5825 26.6624C64.6094 26.6831 65.6363 26.6748 66.6694 26.6748H66.6715ZM66.6756 30.596C65.628 30.596 64.5887 30.5898 63.5473 30.6064C63.4459 30.6064 63.3072 30.7451 63.2513 30.8528C62.7192 31.8879 61.8724 32.3662 60.7151 32.36C58.3818 32.3496 56.0464 32.3558 53.7131 32.3558C53.5413 32.3558 53.3715 32.3558 53.1769 32.3558C54.1521 34.6539 57.5019 36.3765 60.2596 36.0473C63.4231 35.6684 66.2305 33.2978 66.6756 30.594V30.596ZM63.4914 29.418C64.8392 29.418 66.1436 29.4263 67.4458 29.4014C67.5597 29.3994 67.7812 29.1571 67.7626 29.0598C67.6901 28.6602 68.0359 28.1799 67.5576 27.857C67.5452 27.8487 67.5266 27.8528 67.51 27.8528C66.1767 27.8528 64.8434 27.8528 63.4914 27.8528V29.418Z" fill="white"/>
<path d="M40.0938 38.7597C40.2159 38.6127 40.3236 38.3684 40.4975 38.3062C40.6734 38.2421 40.9985 38.2793 41.1124 38.4056C42.0109 39.3932 42.8825 40.4077 43.7438 41.4283C43.9488 41.6727 43.897 41.9604 43.6651 42.1757C43.4125 42.4097 43.104 42.4263 42.8784 42.1757C41.9902 41.1778 41.1206 40.1634 40.2532 39.1489C40.1848 39.0681 40.1662 38.9439 40.0938 38.7617V38.7597Z" fill="white"/>
<path d="M46.1543 41.819C46.262 41.614 46.3137 41.4525 46.4152 41.3366C47.2185 40.3946 48.0321 39.4588 48.8437 38.523C49.1046 38.2207 49.4172 38.1151 49.736 38.3967C50.0548 38.6782 49.9845 39.0012 49.7257 39.3014C48.9244 40.2248 48.1377 41.1627 47.3096 42.0612C47.1584 42.2248 46.8251 42.3055 46.5932 42.2786C46.4338 42.26 46.3054 41.9867 46.1543 41.819Z" fill="white"/>
<path d="M44.457 43.3239C44.5109 42.9698 44.7034 42.7421 45.0699 42.7587C45.4322 42.7752 45.6413 43.0071 45.6226 43.3694C45.604 43.7048 45.3887 43.9139 45.0471 43.9118C44.6806 43.9098 44.4964 43.68 44.457 43.3239Z" fill="white"/>
<path d="M26.9769 52.333C26.5214 52.1756 26.0162 52.097 25.6167 51.8485C24.6767 51.2667 23.7844 50.6063 22.8755 49.9707C22.5525 49.745 22.4262 49.4469 22.6643 49.0887C22.8755 48.774 23.2109 48.7761 23.6022 49.0535C24.4138 49.627 25.215 50.215 26.0494 50.7554C26.7885 51.2336 27.5172 51.1632 28.0721 50.6353C28.6249 50.1094 28.6891 49.3558 28.2646 48.5732C27.7139 47.5567 27.1694 46.536 26.6291 45.5132C26.4469 45.1716 26.4407 44.8362 26.8175 44.625C27.1673 44.4284 27.4531 44.5691 27.6332 44.9045C28.2501 46.0515 28.9002 47.184 29.4654 48.3579C30.3309 50.157 28.9955 52.2357 26.9769 52.333Z" fill="white"/>
<path d="M63.195 52.2485C61.1039 52.2319 59.7665 50.1678 60.6132 48.3873C61.1805 47.1968 61.8389 46.0498 62.4662 44.8863C62.636 44.5716 62.9072 44.4391 63.2467 44.6109C63.6028 44.7931 63.6649 45.1016 63.489 45.4391C62.9382 46.4929 62.3813 47.5446 61.814 48.5922C61.2302 49.6688 61.6857 50.8448 62.8182 51.0187C63.1867 51.0746 63.6525 50.9731 63.9714 50.7765C64.8471 50.2423 65.6566 49.6046 66.52 49.0477C66.7187 48.9194 67.0458 48.8552 67.2653 48.9214C67.6152 49.0291 67.7104 49.528 67.4226 49.7744C66.3171 50.7164 65.1763 51.6191 63.7974 52.1429C63.5738 52.2278 63.3171 52.2278 63.197 52.2464L63.195 52.2485Z" fill="white"/>
</svg>
