<svg width="144" height="144" viewBox="0 0 144 144" fill="none" xmlns="http://www.w3.org/2000/svg">
<path d="M8.86507 143.925C8.5148 143.812 8.16454 143.688 7.80834 143.593C2.82748 142.269 -0.336757 137.65 0.0194426 132.503C0.749652 121.9 1.50361 111.297 1.98448 100.689C2.13289 97.4471 1.37894 94.176 1.13553 90.9108C0.619045 83.959 -0.27739 77.0191 0.423135 70.0316C1.11772 63.1213 3.24305 56.8641 8.78195 52.2276C11.5603 49.9004 14.7958 48.4815 18.2628 47.5495C18.6487 47.4486 19.0286 47.3358 19.6342 47.1636C16.3987 45.5073 13.7153 43.5125 11.5009 40.9182C9.09066 38.0983 7.4462 34.8866 6.37761 31.3365C6.21138 30.7962 5.77207 30.2204 5.2912 29.9117C4.00888 29.0746 3.28461 27.9704 3.24899 26.4446C3.2193 25.3226 3.2193 24.1947 3.24899 23.0726C3.29054 21.5469 4.02669 20.4546 5.31494 19.6234C5.79581 19.3147 6.247 18.7389 6.40135 18.1927C9.29844 8.13005 17.5741 1.21978 28.1117 0.127434C37.7529 -0.875862 47.3228 4.40183 52.1433 13.3246C52.4164 13.8352 52.9863 14.2982 53.5266 14.5238C56.5008 15.7587 58.2759 18.258 58.3115 21.4697C58.3353 23.6722 58.3353 25.8688 58.3115 28.0713C58.27 31.283 56.4949 33.7824 53.5028 34.9994C53.0635 35.1775 52.5648 35.4684 52.3274 35.8483C48.3439 42.343 47.0675 43.5719 39.8663 47.6207C41.3623 48.3747 42.8465 49.0574 44.2713 49.8648C47.2871 51.5745 49.8043 53.8839 51.8049 56.6979C56.958 63.9406 62.0991 71.2011 67.1987 78.4795C70.826 83.6622 68.1842 90.5131 62.0754 91.7776C59.2258 92.3653 56.7027 91.5639 54.5595 89.5988C53.9896 89.0764 53.4316 88.5362 52.5708 87.7228C52.8617 90.6615 53.0932 93.2024 53.3603 95.7373C54.4527 106.067 55.551 116.397 56.6492 126.727C56.8452 128.591 57.0945 130.443 57.2429 132.313C57.6882 137.971 54.5121 142.31 48.9791 143.676C48.8069 143.717 48.6526 143.83 48.4863 143.913H45.3933C45.2271 143.836 45.0668 143.729 44.8887 143.688C41.0002 142.857 38.4296 140.506 37.0048 136.843C36.2271 134.842 35.4672 132.836 34.6955 130.835C32.8017 125.931 30.9019 121.028 28.9013 115.851C28.6045 116.504 28.4026 116.902 28.2305 117.311C25.5293 123.871 22.8222 130.425 20.1447 136.991C19.367 138.897 18.34 140.654 16.5946 141.741C15.1579 142.637 13.5135 143.201 11.9581 143.913H8.86507V143.925ZM28.7826 49.4789C27.8208 49.5442 26.0873 49.6036 24.3657 49.7995C20.0913 50.2863 15.9831 51.3371 12.3796 53.8067C6.75162 57.6655 4.57286 63.3885 3.81297 69.8594C3.12432 75.7664 3.91983 81.6378 4.2226 87.5269C4.50756 93.0777 5.69489 98.5513 5.24964 104.173C4.49568 113.648 4.03262 123.141 3.39147 132.628C3.13619 136.392 5.16653 139.455 8.68697 140.339C12.1005 141.2 15.5023 139.514 16.8736 136.065C20.9937 125.682 25.0425 115.269 29.1031 104.862C29.495 103.853 30.1242 103.218 31.2166 103.55C32.3446 103.894 32.6711 104.761 32.3089 105.895C31.8577 107.32 31.3769 108.745 31.0207 110.193C30.8782 110.781 30.8663 111.505 31.08 112.057C34.0899 119.965 37.1354 127.861 40.2047 135.744C41.6117 139.354 44.9718 141.188 48.4745 140.351C52.1196 139.479 54.2627 136.409 53.859 132.45C53.016 124.162 52.1196 115.88 51.2291 107.599C50.3386 99.3172 49.4362 91.0355 48.5041 82.7539C48.1361 79.5006 47.673 76.2592 47.2396 73.0118C47.0972 71.9313 47.4118 71.0943 48.5338 70.8865C49.733 70.6609 50.3683 71.3436 50.5523 72.4953C50.5939 72.7743 50.6592 73.0474 50.6948 73.3265C51.0807 76.0573 51.4428 78.7941 51.8524 81.525C51.9177 81.9524 52.0958 82.4511 52.3867 82.7479C53.9303 84.3152 55.4797 85.8884 57.1123 87.3548C58.733 88.8152 61.0246 88.9933 62.8709 87.9722C65.6077 86.4643 66.3023 83.0685 64.3847 80.3436C59.6651 73.647 54.8326 67.0336 50.2139 60.2717C45.2093 52.9518 38.3762 49.3542 28.7707 49.4789H28.7826ZM38.7977 17.4625C34.7252 17.4625 30.6585 17.4447 26.586 17.4684C23.9739 17.4862 22.3947 19.0713 22.365 21.6716C22.3353 23.7316 22.3413 25.7916 22.365 27.8516C22.4007 30.4578 23.9739 32.0607 26.5801 32.0667C34.6302 32.0904 42.6743 32.0904 50.7245 32.0667C53.3307 32.0607 54.9157 30.4578 54.9514 27.8576C54.981 25.8925 54.9692 23.9275 54.9514 21.9625C54.9336 19.006 53.4078 17.4684 50.4514 17.4625C46.5688 17.4506 42.6862 17.4625 38.7977 17.4625ZM48.5695 14.0905C44.9065 6.63401 35.2713 2.19339 26.4613 3.73099C18.4112 5.13204 10.5986 12.351 9.83868 19.1485C12.7476 19.1485 15.6447 19.1782 18.5478 19.1129C18.9218 19.1069 19.4383 18.7032 19.6282 18.3411C21.1361 15.5093 23.4514 14.0845 26.6632 14.0845C32.8432 14.0905 39.0233 14.0845 45.2034 14.0845C46.266 14.0845 47.3346 14.0845 48.5695 14.0845V14.0905ZM48.5457 35.4506C47.8808 35.4506 47.3702 35.4506 46.8656 35.4506C40.175 35.4506 33.4785 35.4387 26.7878 35.4565C23.5227 35.4684 21.1421 34.0851 19.6342 31.1762C19.4798 30.8793 19.183 30.44 18.9515 30.44C15.9 30.3925 12.8426 30.4044 9.74369 30.4044C11.6909 38.7335 19.2423 45.0323 28.2898 46.0475C36.1618 46.9321 45.3458 42.2005 48.5457 35.4506ZM18.9574 22.5205C15.7991 22.5205 12.7655 22.4908 9.73775 22.5265C6.10452 22.5739 6.71006 21.8556 6.60914 25.756C6.58539 26.7593 6.97127 27.0443 7.92707 27.0324C11.3407 26.9908 14.7602 27.0205 18.1737 27.0086C18.435 27.0086 18.6962 26.9196 18.9574 26.8721V22.5205Z" fill="#fff"/>
<path d="M95.1325 143.925C94.8297 143.824 94.5329 143.7 94.2301 143.616C89.1958 142.316 85.8535 137.769 86.364 132.61C87.302 123.111 88.3706 113.624 89.3739 104.126C89.8904 99.2399 90.4009 94.354 90.8996 89.4622C90.9471 89.0169 90.9056 88.5657 90.9056 87.8711C90.1872 88.542 89.6351 89.0822 89.0593 89.5987C85.6694 92.6324 80.9023 92.6977 77.5481 89.7649C74.3067 86.9332 73.8198 82.166 76.432 78.4437C81.5197 71.2069 86.6134 63.9761 91.7486 56.7749C94.4735 52.9517 98.0414 50.1437 102.375 48.3152C102.838 48.1193 103.295 47.9115 103.877 47.6503C102.945 47.1694 102.108 46.7657 101.301 46.3145C97.0737 43.928 93.8501 40.5619 91.5111 36.3113C91.2083 35.7651 90.6384 35.2308 90.0685 34.9933C87.1061 33.7466 85.337 31.2473 85.3073 28.0237C85.2895 25.8687 85.2895 23.7137 85.3073 21.5587C85.331 18.2579 87.0942 15.7526 90.1338 14.494C90.6681 14.2744 91.2261 13.7876 91.4992 13.277C96.2307 4.42546 105.931 -0.905666 115.549 0.127313C126.057 1.25528 134.285 8.11806 137.17 18.0916C137.336 18.6734 137.918 19.1424 138.322 19.653C138.405 19.7539 138.565 19.7895 138.678 19.8726C141.397 21.7843 141.118 28.1958 138.256 29.8997C137.888 30.1193 137.431 30.4518 137.33 30.8139C135.377 38.1635 130.948 43.5005 124.08 47.1041C124.424 47.2406 124.638 47.3416 124.857 47.4128C125.077 47.4841 125.314 47.5078 125.54 47.5731C135.431 50.2802 141.421 57.3092 142.917 67.7162C143.872 74.3712 143.225 80.9906 142.739 87.6099C142.448 91.5281 141.753 95.4285 141.628 99.3467C141.516 102.843 141.913 106.358 142.133 109.861C142.566 116.961 143.029 124.067 143.493 131.167C143.528 131.672 143.659 132.171 143.742 132.675V134.361C143.647 134.717 143.534 135.068 143.463 135.424C142.875 138.345 141.385 140.707 138.826 142.227C137.574 142.975 136.113 143.361 134.748 143.913H131.655C126.911 142.815 124.329 139.627 122.673 135.204C120.417 129.178 117.828 123.271 115.382 117.317C115.21 116.907 115.014 116.504 114.729 115.88C114.403 116.676 114.177 117.222 113.964 117.774C111.524 124.085 109.072 130.39 106.661 136.712C105.498 139.752 103.527 141.984 100.47 143.177C99.7393 143.462 98.9735 143.67 98.2255 143.913H95.1325V143.925ZM140.245 77.298C140.031 74.4662 139.99 71.1238 139.485 67.8587C138.102 58.9477 133.175 52.9161 124.281 50.7908C120.589 49.9121 116.694 49.6034 112.889 49.5619C105.171 49.4788 98.9141 52.7261 94.3726 58.9655C89.2255 66.042 84.2387 73.2373 79.1925 80.391C77.5362 82.7419 77.839 85.6093 79.8634 87.3606C81.9056 89.1178 84.7552 89.011 86.8627 87.04C88.2994 85.6983 89.7123 84.321 91.0718 82.9081C91.428 82.54 91.6833 81.9761 91.7604 81.4655C92.2176 78.5565 92.6034 75.6298 93.019 72.7149C93.1793 71.5631 93.6661 70.7261 95.0019 70.8626C96.0586 70.9695 96.5157 71.8006 96.3317 73.2076C95.9398 76.2234 95.4887 79.2333 95.1503 82.2551C94.2182 90.5783 93.3218 98.9074 92.4253 107.237C91.5111 115.75 90.6087 124.269 89.7123 132.788C89.4986 134.8 90.0685 136.593 91.3983 138.119C94.9366 142.162 101.283 141.046 103.313 135.952C105.979 129.262 108.383 122.47 111.185 115.845C112.557 112.603 113.091 109.593 111.452 106.388C111.345 106.18 111.298 105.948 111.245 105.717C110.989 104.624 111.387 103.829 112.456 103.538C113.489 103.259 114.13 103.835 114.492 104.785C116.748 110.727 118.974 116.682 121.289 122.601C123.094 127.213 124.958 131.808 126.894 136.368C128.217 139.49 131.542 141.123 134.718 140.393C138.055 139.633 140.459 136.718 140.269 133.405C139.836 125.789 139.289 118.172 138.826 110.555C138.589 106.726 138.084 102.873 138.298 99.0618C138.702 91.9615 139.539 84.8909 140.245 77.298ZM104.975 32.0725C109 32.0725 113.026 32.0903 117.045 32.0665C119.645 32.0487 121.224 30.4518 121.26 27.8456C121.289 25.7856 121.289 23.7255 121.26 21.6655C121.224 19.0653 119.639 17.4683 117.033 17.4624C108.983 17.4445 100.939 17.4445 92.8884 17.4624C90.2822 17.4683 88.709 19.0712 88.6793 21.6774C88.6556 23.6424 88.6674 25.6075 88.6793 27.5725C88.6971 30.523 90.2228 32.0547 93.1912 32.0606C97.1212 32.0725 101.051 32.0606 104.981 32.0606L104.975 32.0725ZM133.816 19.1424C132.676 11.306 123.884 4.03957 114.907 3.44591C106.792 2.90567 96.8482 8.24273 95.2156 14.0844C95.7439 14.0844 96.2545 14.0844 96.7591 14.0844C103.456 14.0844 110.146 14.1022 116.843 14.0785C120.108 14.0666 122.483 15.4617 123.996 18.3647C124.169 18.6972 124.626 19.1009 124.958 19.1068C127.903 19.1662 130.847 19.1424 133.81 19.1424H133.816ZM133.828 30.3865C130.824 30.3865 127.843 30.3687 124.857 30.4162C124.566 30.4162 124.169 30.8139 124.008 31.1226C122.483 34.0909 120.055 35.4623 116.736 35.4445C110.045 35.4148 103.349 35.4326 96.6582 35.4326C96.1654 35.4326 95.6786 35.4326 95.1206 35.4326C97.9167 42.0223 107.522 46.9616 115.43 46.0177C124.501 44.9313 132.551 38.1338 133.828 30.3805V30.3865ZM124.697 27.0085C128.562 27.0085 132.302 27.0323 136.036 26.961C136.363 26.9551 136.998 26.2605 136.944 25.9815C136.737 24.8357 137.728 23.4584 136.357 22.5323C136.321 22.5085 136.268 22.5204 136.22 22.5204C132.397 22.5204 128.574 22.5204 124.697 22.5204V27.0085Z" fill="#fff"/>
<path d="M57.6016 53.7949C57.9518 53.3734 58.2605 52.6728 58.7592 52.4947C59.2638 52.3107 60.1959 52.4176 60.5224 52.7797C63.0989 55.6115 65.5982 58.5204 68.0679 61.4472C68.6556 62.1477 68.5072 62.9729 67.8423 63.5904C67.118 64.2612 66.2335 64.3087 65.5864 63.5904C63.0395 60.7289 60.5461 57.8199 58.0587 54.911C57.8628 54.6794 57.8093 54.3232 57.6016 53.8008V53.7949Z" fill="#fff"/>
<path d="M74.9844 62.5675C75.2931 61.9798 75.4415 61.5167 75.7324 61.1842C78.0358 58.4831 80.3689 55.7997 82.6961 53.1163C83.4441 52.2496 84.3405 51.9468 85.2548 52.7542C86.169 53.5616 85.9672 54.4877 85.2251 55.3485C82.9276 57.9963 80.6717 60.6856 78.297 63.2621C77.8637 63.7311 76.9079 63.9626 76.2429 63.8854C75.7858 63.832 75.4178 63.0484 74.9844 62.5675Z" fill="#fff"/>
<path d="M70.1172 66.8849C70.2715 65.8697 70.8236 65.2167 71.8744 65.2641C72.9134 65.3116 73.513 65.9765 73.4595 67.0155C73.4061 67.9772 72.7887 68.5768 71.8091 68.5709C70.7583 68.5649 70.23 67.906 70.1172 66.8849Z" fill="#fff"/>
<path d="M19.9931 92.7154C18.687 92.2642 17.2385 92.0386 16.0927 91.3262C13.3974 89.658 10.8387 87.7642 8.23255 85.9417C7.30643 85.2946 6.9443 84.4397 7.62701 83.4126C8.23255 82.5103 9.19429 82.5162 10.3163 83.3117C12.6435 84.9562 14.941 86.6422 17.3335 88.1917C19.4528 89.563 21.5425 89.3612 23.1336 87.8473C24.7187 86.3394 24.9027 84.1785 23.6857 81.9344C22.1065 79.0195 20.5452 76.0927 18.9957 73.16C18.4733 72.1805 18.4555 71.2187 19.536 70.6132C20.5392 70.0492 21.3585 70.4529 21.875 71.4147C23.6441 74.7036 25.5082 77.9509 27.1289 81.317C29.6105 86.476 25.7813 92.4364 19.9931 92.7154Z" fill="#fff"/>
<path d="M123.853 92.4731C117.857 92.4256 114.022 86.5068 116.45 81.4012C118.077 77.9877 119.965 74.6987 121.763 71.3623C122.25 70.46 123.028 70.08 124.002 70.5728C125.023 71.0952 125.201 71.9798 124.696 72.9474C123.117 75.9692 121.52 78.985 119.893 81.989C118.219 85.076 119.525 88.4481 122.773 88.9467C123.829 89.107 125.165 88.8161 126.079 88.2521C128.591 86.7205 130.912 84.892 133.387 83.295C133.957 82.927 134.895 82.7429 135.525 82.9329C136.528 83.2416 136.801 84.6723 135.976 85.3788C132.806 88.08 129.534 90.6684 125.581 92.1703C124.939 92.4137 124.203 92.4137 123.859 92.4672L123.853 92.4731Z" fill="#fff"/>
</svg>
