<svg width="119" height="119" viewBox="0 0 119 119" fill="none" xmlns="http://www.w3.org/2000/svg">
<path d="M7.29981 118.822C7.01164 118.729 6.72348 118.626 6.43043 118.548C2.33263 117.459 -0.270626 113.659 0.022423 109.425C0.623173 100.702 1.24346 91.9786 1.63908 83.2506C1.76118 80.5838 1.14089 77.8927 0.940643 75.2064C0.515722 69.4871 -0.221784 63.7775 0.354545 58.0288C0.925991 52.3437 2.67452 47.1958 7.23143 43.3813C9.51721 41.4667 12.1791 40.2994 15.0314 39.5326C15.3489 39.4495 15.6615 39.3567 16.1597 39.2151C13.4978 37.8524 11.2902 36.2114 9.46837 34.077C7.4854 31.757 6.13249 29.1147 5.25335 26.194C5.11659 25.7495 4.75516 25.2757 4.35955 25.0218C3.30457 24.3331 2.70871 23.4246 2.6794 22.1694C2.65498 21.2463 2.65498 20.3183 2.6794 19.3952C2.71359 18.14 3.31922 17.2413 4.37908 16.5575C4.7747 16.3036 5.1459 15.8298 5.27288 15.3805C7.65635 7.10182 14.4649 1.41667 23.1342 0.517989C31.0661 -0.307432 38.9393 4.03458 42.9053 11.3755C43.1299 11.7955 43.5988 12.1765 44.0433 12.3621C46.4902 13.378 47.9506 15.4342 47.9799 18.0765C47.9994 19.8885 47.9994 21.6957 47.9799 23.5077C47.9457 26.15 46.4853 28.2062 44.0237 29.2075C43.6623 29.354 43.252 29.5933 43.0567 29.9059C39.7794 35.2492 38.7293 36.2602 32.8048 39.5912C34.0356 40.2115 35.2567 40.7731 36.4289 41.4374C38.91 42.844 40.9809 44.744 42.6269 47.059C46.8663 53.0177 51.096 58.991 55.2915 64.979C58.2757 69.2429 56.1022 74.8792 51.0764 75.9195C48.732 76.403 46.6563 75.7437 44.8931 74.127C44.4242 73.6972 43.9651 73.2527 43.2569 72.5836C43.4962 75.0013 43.6867 77.0917 43.9065 79.1772C44.8052 87.6756 45.7088 96.174 46.6123 104.672C46.7735 106.206 46.9786 107.73 47.1007 109.268C47.467 113.923 44.854 117.493 40.302 118.617C40.1604 118.651 40.0334 118.744 39.8966 118.812H37.352C37.2152 118.749 37.0834 118.661 36.9368 118.626C33.7377 117.943 31.6229 116.009 30.4507 112.995C29.8108 111.349 29.1857 109.698 28.5507 108.052C26.9927 104.018 25.4298 99.9837 23.7838 95.7247C23.5396 96.262 23.3735 96.5892 23.2319 96.9262C21.0096 102.323 18.7824 107.715 16.5797 113.117C15.9399 114.685 15.0949 116.131 13.659 117.024C12.477 117.762 11.1241 118.226 9.84445 118.812H7.29981V118.822ZM23.6861 41.1199C22.8949 41.1736 21.4687 41.2225 20.0523 41.3837C16.5357 41.7842 13.1559 42.6487 10.1912 44.6805C5.56105 47.8552 3.76857 52.5635 3.14339 57.8872C2.57683 62.7469 3.23131 67.5774 3.4804 72.4224C3.71484 76.9891 4.69167 81.4923 4.32536 86.1176C3.70507 93.9127 3.32411 101.722 2.79662 109.527C2.5866 112.624 4.25698 115.144 7.15328 115.872C9.96167 116.58 12.7603 115.193 13.8885 112.355C17.2781 103.813 20.6091 95.2461 23.9499 86.6842C24.2722 85.8538 24.7899 85.3312 25.6886 85.6048C26.6166 85.888 26.8852 86.6011 26.5873 87.534C26.2161 88.7062 25.8205 89.8784 25.5274 91.0701C25.4102 91.5536 25.4005 92.1495 25.5763 92.6037C28.0526 99.1094 30.5581 105.605 33.0832 112.091C34.2408 115.061 37.0052 116.57 39.8869 115.882C42.8857 115.164 44.6489 112.639 44.3168 109.381C43.6232 102.563 42.8857 95.7491 42.1531 88.9357C41.4205 82.1224 40.6781 75.309 39.9113 68.4956C39.6085 65.8191 39.2275 63.1523 38.8709 60.4807C38.7537 59.5918 39.0126 58.9031 39.9357 58.7322C40.9223 58.5466 41.4449 59.1082 41.5963 60.0558C41.6305 60.2853 41.6842 60.51 41.7135 60.7396C42.031 62.9863 42.3289 65.2379 42.6659 67.4846C42.7197 67.8362 42.8662 68.2465 43.1055 68.4907C44.3754 69.7801 45.6501 71.0744 46.9933 72.2808C48.3267 73.4823 50.2119 73.6288 51.7309 72.7887C53.9825 71.5482 54.5539 68.7544 52.9764 66.5126C49.0935 61.0033 45.1178 55.5624 41.3179 49.9993C37.2006 43.9771 31.5789 41.0174 23.6764 41.1199H23.6861ZM31.9257 14.7797C28.5752 14.7797 25.2295 14.7651 21.879 14.7846C19.73 14.7992 18.4308 16.1033 18.4064 18.2426C18.3819 19.9374 18.3868 21.6322 18.4064 23.327C18.4357 25.4711 19.73 26.7898 21.8741 26.7947C28.497 26.8142 35.115 26.8142 41.7379 26.7947C43.8821 26.7898 45.1861 25.4711 45.2155 23.3318C45.2399 21.7152 45.2301 20.0985 45.2155 18.4819C45.2008 16.0496 43.9456 14.7846 41.5133 14.7797C38.319 14.7699 35.1248 14.7797 31.9257 14.7797ZM39.965 12.0055C36.9515 5.87102 29.0245 2.21767 21.7764 3.48267C15.1535 4.63533 8.72598 10.5745 8.10081 16.1668C10.494 16.1668 12.8775 16.1912 15.2659 16.1375C15.5736 16.1326 15.9985 15.8005 16.1548 15.5026C17.3953 13.1728 19.3002 12.0006 21.9425 12.0006C27.0269 12.0055 32.1113 12.0006 37.1957 12.0006C38.0699 12.0006 38.9491 12.0006 39.965 12.0006V12.0055ZM39.9455 29.5787C39.3984 29.5787 38.9784 29.5787 38.5632 29.5787C33.0588 29.5787 27.5495 29.5689 22.0451 29.5836C19.3588 29.5933 17.4002 28.4553 16.1597 26.0621C16.0327 25.8179 15.7885 25.4565 15.598 25.4565C13.0875 25.4174 10.5722 25.4271 8.02266 25.4271C9.62466 32.2796 15.8373 37.4617 23.2807 38.2969C29.7571 39.0246 37.3129 35.132 39.9455 29.5787ZM15.6029 18.941C13.0045 18.941 10.5087 18.9166 8.01777 18.9459C5.02868 18.985 5.52686 18.394 5.44383 21.6029C5.42429 22.4283 5.74176 22.6627 6.52811 22.653C9.3365 22.6188 12.1498 22.6432 14.9582 22.6334C15.1731 22.6334 15.388 22.5602 15.6029 22.5211V18.941Z" fill="#CBAACB"/>
<path d="M78.2734 118.819C78.0244 118.736 77.7801 118.633 77.5311 118.565C73.3893 117.495 70.6395 113.754 71.0596 109.51C71.8313 101.695 72.7104 93.8901 73.5358 86.0754C73.9607 82.0558 74.3808 78.0361 74.791 74.0116C74.8301 73.6453 74.7959 73.2741 74.7959 72.7026C74.205 73.2545 73.7507 73.699 73.277 74.1239C70.4881 76.6197 66.5661 76.6734 63.8066 74.2607C61.1399 71.9309 60.7394 68.009 62.8884 64.9466C67.0741 58.9928 71.2647 53.0439 75.4895 47.1194C77.7313 43.9741 80.6667 41.6639 84.2321 40.1595C84.6131 39.9984 84.9892 39.8274 85.4678 39.6125C84.701 39.2169 84.0123 38.8848 83.3481 38.5136C79.8706 36.5502 77.2185 33.7808 75.2941 30.2838C75.045 29.8344 74.5761 29.3949 74.1073 29.1995C71.6701 28.1738 70.2146 26.1176 70.1902 23.4655C70.1755 21.6926 70.1755 19.9196 70.1902 18.1467C70.2097 15.4311 71.6603 13.37 74.161 12.3345C74.6006 12.1538 75.0597 11.7533 75.2844 11.3333C79.177 4.05102 87.1577 -0.334944 95.07 0.514898C103.715 1.44289 110.484 7.08896 112.858 15.2943C112.995 15.773 113.474 16.1588 113.806 16.5789C113.874 16.6619 114.006 16.6912 114.099 16.7596C116.336 18.3323 116.106 23.6072 113.752 25.0089C113.449 25.1896 113.073 25.4631 112.99 25.7611C111.383 31.8076 107.74 36.1985 102.089 39.1632C102.372 39.2755 102.548 39.3585 102.728 39.4171C102.909 39.4758 103.104 39.4953 103.29 39.549C111.427 41.7762 116.355 47.559 117.586 56.1209C118.372 61.5961 117.84 67.0419 117.439 72.4877C117.2 75.7113 116.629 78.9202 116.526 82.1437C116.433 85.0205 116.761 87.9119 116.941 90.7935C117.298 96.635 117.679 102.481 118.06 108.323C118.089 108.738 118.196 109.148 118.265 109.563V110.95C118.187 111.243 118.094 111.532 118.035 111.825C117.552 114.228 116.326 116.172 114.221 117.422C113.19 118.037 111.989 118.355 110.865 118.809H108.321C104.418 117.905 102.294 115.283 100.931 111.644C99.075 106.687 96.9456 101.827 94.9333 96.928C94.7916 96.591 94.6305 96.2589 94.396 95.746C94.1274 96.4005 93.9418 96.8499 93.766 97.3041C91.7586 102.496 89.7414 107.683 87.7585 112.885C86.8012 115.385 85.1796 117.222 82.6643 118.203C82.0636 118.438 81.4335 118.609 80.8181 118.809H78.2734V118.819ZM115.388 64.004C115.212 61.6742 115.178 58.9244 114.763 56.2382C113.625 48.9071 109.571 43.9448 102.255 42.1962C99.2167 41.4734 96.0127 41.2194 92.8819 41.1852C86.5325 41.1168 81.3847 43.7885 77.6483 48.9217C73.4137 54.7436 69.311 60.6632 65.1595 66.5486C63.7968 68.4827 64.0459 70.8418 65.7114 72.2826C67.3916 73.7283 69.736 73.6404 71.4698 72.0188C72.6518 70.915 73.8142 69.7819 74.9327 68.6195C75.2257 68.3167 75.4358 67.8527 75.4993 67.4326C75.8753 65.0394 76.1928 62.6315 76.5347 60.2334C76.6666 59.2859 77.0671 58.5972 78.166 58.7095C79.0354 58.7975 79.4115 59.4812 79.26 60.6388C78.9377 63.1199 78.5665 65.5962 78.2881 68.0822C77.5213 74.9298 76.7838 81.7823 76.0463 88.6347C75.2941 95.6386 74.5517 102.647 73.8142 109.656C73.6384 111.312 74.1073 112.787 75.2013 114.042C78.1123 117.368 83.3334 116.45 85.0038 112.259C87.1968 106.755 89.1749 101.167 91.4802 95.7167C92.6084 93.05 93.048 90.5737 91.7 87.9363C91.6121 87.7653 91.573 87.5749 91.529 87.3844C91.319 86.4857 91.6462 85.8312 92.5254 85.5919C93.3752 85.3623 93.9027 85.8361 94.2007 86.6176C96.0566 91.5066 97.8882 96.4054 99.793 101.275C101.278 105.07 102.811 108.85 104.404 112.601C105.493 115.17 108.228 116.513 110.841 115.913C113.586 115.288 115.564 112.889 115.408 110.164C115.051 103.898 114.602 97.6313 114.221 91.365C114.025 88.2147 113.61 85.0449 113.786 81.9092C114.118 76.0678 114.807 70.2508 115.388 64.004ZM86.3714 26.7965C89.6828 26.7965 92.9943 26.8112 96.3008 26.7916C98.4401 26.777 99.7393 25.4631 99.7686 23.319C99.793 21.6242 99.793 19.9294 99.7686 18.2346C99.7393 16.0953 98.4352 14.7815 96.2911 14.7766C89.6682 14.762 83.0501 14.762 76.4272 14.7766C74.2831 14.7815 72.9888 16.1002 72.9644 18.2444C72.9448 19.861 72.9546 21.4777 72.9644 23.0943C72.979 25.5217 74.2343 26.7819 76.6763 26.7867C79.9096 26.7965 83.1429 26.7867 86.3762 26.7867L86.3714 26.7965ZM110.099 16.1588C109.161 9.71175 101.927 3.73355 94.5425 3.24514C87.8659 2.80068 79.685 7.19153 78.3418 11.9975C78.7765 11.9975 79.1966 11.9975 79.6117 11.9975C85.121 11.9975 90.6255 12.0122 96.1348 11.9926C98.8211 11.9829 100.775 13.1307 102.02 15.519C102.162 15.7925 102.538 16.1246 102.811 16.1295C105.234 16.1784 107.656 16.1588 110.094 16.1588H110.099ZM110.108 25.4094C107.637 25.4094 105.185 25.3948 102.728 25.4338C102.489 25.4338 102.162 25.7611 102.03 26.015C100.775 28.4571 98.7771 29.5854 96.0469 29.5707C90.5424 29.5463 85.0331 29.5609 79.5287 29.5609C79.1233 29.5609 78.7228 29.5609 78.2637 29.5609C80.5641 34.9823 88.4667 39.046 94.9724 38.2694C102.435 37.3756 109.058 31.7832 110.108 25.4045V25.4094ZM102.597 22.6303C105.776 22.6303 108.853 22.6499 111.925 22.5913C112.194 22.5864 112.716 22.0149 112.673 21.7854C112.502 20.8427 113.317 19.7096 112.189 18.9477C112.16 18.9281 112.116 18.9379 112.077 18.9379C108.931 18.9379 105.786 18.9379 102.597 18.9379V22.6303Z" fill="#CBAACB"/>
<path d="M47.3984 44.6659C47.6866 44.3191 47.9406 43.7428 48.3508 43.5962C48.766 43.4448 49.5328 43.5327 49.8014 43.8307C51.9212 46.1604 53.9774 48.5536 56.0092 50.9615C56.4927 51.5379 56.3706 52.2168 55.8236 52.7247C55.2277 53.2766 54.5 53.3157 53.9676 52.7247C51.8723 50.3706 49.821 47.9773 47.7745 45.5841C47.6133 45.3936 47.5694 45.1006 47.3984 44.6707V44.6659Z" fill="#CBAACB"/>
<path d="M61.6992 51.8868C61.9532 51.4032 62.0753 51.0223 62.3146 50.7488C64.2097 48.5265 66.1291 46.3188 68.0437 44.1112C68.6591 43.3981 69.3966 43.149 70.1488 43.8133C70.901 44.4775 70.7349 45.2394 70.1244 45.9476C68.2342 48.126 66.3782 50.3385 64.4246 52.4582C64.068 52.8441 63.2817 53.0345 62.7347 52.971C62.3586 52.9271 62.0558 52.2824 61.6992 51.8868Z" fill="#CBAACB"/>
<path d="M57.6914 55.4369C57.8184 54.6017 58.2726 54.0645 59.1371 54.1036C59.9918 54.1426 60.4851 54.6897 60.4412 55.5444C60.3972 56.3356 59.8893 56.8289 59.0834 56.824C58.2189 56.8191 57.7842 56.277 57.6914 55.4369Z" fill="#CBAACB"/>
<path d="M16.4529 76.6887C15.3783 76.3175 14.1866 76.1319 13.244 75.5458C11.0266 74.1734 8.9215 72.6153 6.77735 71.1159C6.01543 70.5835 5.71749 69.8802 6.27917 69.0352C6.77735 68.2928 7.56859 68.2977 8.49169 68.9522C10.4063 70.3051 12.2964 71.6922 14.2648 72.967C16.0084 74.0952 17.7276 73.9292 19.0366 72.6837C20.3406 71.4431 20.492 69.6653 19.4908 67.8191C18.1916 65.421 16.9071 63.0131 15.6323 60.6003C15.2025 59.7944 15.1879 59.0032 16.0768 58.505C16.9022 58.041 17.5762 58.3731 18.0011 59.1644C19.4566 61.8702 20.9902 64.5418 22.3236 67.3111C24.3652 71.5555 21.2149 76.4591 16.4529 76.6887Z" fill="#CBAACB"/>
<path d="M101.902 76.4894C96.9688 76.4503 93.8136 71.5808 95.8112 67.3804C97.1495 64.572 98.7026 61.8662 100.183 59.1213C100.583 58.3789 101.223 58.0664 102.024 58.4717C102.864 58.9015 103.01 59.6293 102.595 60.4254C101.296 62.9114 99.9823 65.3926 98.644 67.864C97.2667 70.4037 98.3412 73.1779 101.013 73.5882C101.882 73.7201 102.981 73.4807 103.733 73.0167C105.799 71.7566 107.709 70.2523 109.746 68.9385C110.215 68.6357 110.986 68.4843 111.504 68.6405C112.329 68.8945 112.554 70.0716 111.875 70.6528C109.267 72.8751 106.576 75.0046 103.323 76.2403C102.796 76.4405 102.19 76.4405 101.907 76.4845L101.902 76.4894Z" fill="#CBAACB"/>
</svg>
