<svg width="145" height="191" viewBox="0 0 156 156" fill="none" xmlns="http://www.w3.org/2000/svg">
<path d="M9.61267 155.925C9.2332 155.802 8.85373 155.667 8.46784 155.565C3.07169 154.13 -0.356371 149.126 0.0295275 143.55C0.820619 132.063 1.63744 120.576 2.1584 109.083C2.31919 105.571 1.50237 102.028 1.23868 98.4902C0.679123 90.9587 -0.292054 83.4401 0.466879 75.8701C1.21938 68.3837 3.52191 61.6047 9.52262 56.5816C12.5326 54.0604 16.0379 52.5233 19.7939 51.5135C20.212 51.4042 20.6236 51.282 21.2797 51.0954C17.7744 49.301 14.8673 47.14 12.4683 44.3294C9.85707 41.2743 8.07551 37.7948 6.91781 33.9487C6.73773 33.3634 6.26178 32.7395 5.74082 32.4051C4.35159 31.4982 3.56693 30.302 3.52834 28.649C3.49618 27.4334 3.49618 26.2114 3.52834 24.9959C3.57336 23.3429 4.37088 22.1595 5.76655 21.2591C6.28751 20.9246 6.77632 20.3008 6.94354 19.709C10.0822 8.80742 19.0479 1.32099 30.464 0.13757C40.909 -0.949377 51.2768 4.76835 56.4993 14.4351C56.7952 14.9882 57.4126 15.4899 57.9979 15.7343C61.2201 17.0721 63.1432 19.7798 63.1818 23.2593C63.2075 25.6454 63.2075 28.0252 63.1818 30.4113C63.1368 33.8908 61.2137 36.5985 57.9721 37.917C57.4962 38.11 56.956 38.4251 56.6987 38.8367C52.3831 45.8729 51.0003 47.2043 43.1987 51.5907C44.8195 52.4075 46.4274 53.1471 47.971 54.0218C51.2382 55.8741 53.9652 58.3761 56.1327 61.4247C61.7154 69.2712 67.2852 77.1371 72.8099 85.0223C76.7397 90.6371 73.8776 98.0592 67.2594 99.4292C64.1722 100.066 61.4388 99.1977 59.117 97.0688C58.4995 96.5028 57.895 95.9175 56.9624 95.0364C57.2775 98.22 57.5284 100.973 57.8178 103.719C59.0012 114.91 60.1911 126.101 61.3809 137.292C61.5932 139.312 61.8633 141.318 62.0241 143.344C62.5065 149.474 59.0655 154.175 53.0712 155.655C52.8847 155.7 52.7175 155.822 52.5374 155.912H49.1865C49.0065 155.828 48.8328 155.712 48.6398 155.667C44.4271 154.767 41.6422 152.22 40.0986 148.252C39.2561 146.084 38.4328 143.91 37.5967 141.743C35.545 136.43 33.4869 131.118 31.3194 125.509C30.9979 126.217 30.7792 126.648 30.5927 127.092C27.6663 134.199 24.7334 141.299 21.8328 148.413C20.9902 150.477 19.8776 152.381 17.9867 153.558C16.4302 154.529 14.6486 155.14 12.9635 155.912H9.61267V155.925ZM31.1908 53.6038C30.1489 53.6745 28.2708 53.7388 26.4057 53.9511C21.7749 54.4785 17.3242 55.6169 13.4202 58.2924C7.323 62.473 4.96259 68.6731 4.13934 75.6836C3.39327 82.0831 4.25511 88.444 4.58313 94.8241C4.89185 100.838 6.17817 106.768 5.6958 112.858C4.87898 123.123 4.37731 133.408 3.6827 143.685C3.40614 147.763 5.60576 151.082 9.41972 152.04C13.1179 152.973 16.8032 151.146 18.2889 147.409C22.7525 136.16 27.1389 124.879 31.5381 113.605C31.9626 112.511 32.6444 111.823 33.8278 112.183C35.0498 112.556 35.4035 113.495 35.0112 114.724C34.5224 116.267 34.0014 117.811 33.6155 119.38C33.4612 120.017 33.4483 120.802 33.6799 121.4C36.9407 129.967 40.2401 138.521 43.5653 147.062C45.0896 150.972 48.7299 152.96 52.5246 152.053C56.4736 151.107 58.7954 147.782 58.3581 143.492C57.4448 134.514 56.4736 125.542 55.5088 116.57C54.5441 107.597 53.5665 98.6252 52.5567 89.6531C52.158 86.1286 51.6563 82.6169 51.1868 79.0988C51.0324 77.9282 51.3733 77.0214 52.5889 76.7963C53.8881 76.5519 54.5762 77.2915 54.7756 78.5392C54.8207 78.8415 54.8914 79.1374 54.93 79.4397C55.348 82.3982 55.7404 85.3632 56.1842 88.3218C56.2549 88.7848 56.4479 89.3251 56.763 89.6467C58.4352 91.3446 60.1139 93.049 61.8826 94.6376C63.6384 96.2198 66.121 96.4128 68.1213 95.3065C71.0863 93.6729 71.8388 89.994 69.7613 87.0419C64.6482 79.787 59.4128 72.6221 54.409 65.2965C48.9872 57.3663 41.5843 53.4687 31.1779 53.6038H31.1908ZM42.041 18.918C37.6289 18.918 33.2232 18.8987 28.8111 18.9244C25.9812 18.9437 24.2704 20.6609 24.2382 23.478C24.2061 25.7098 24.2125 27.9415 24.2382 30.1733C24.2768 32.9968 25.9812 34.7333 28.8047 34.7398C37.526 34.7655 46.2408 34.7655 54.9621 34.7398C57.7856 34.7333 59.5029 32.9968 59.5415 30.1798C59.5736 28.0509 59.5608 25.922 59.5415 23.7931C59.5222 20.5902 57.8692 18.9244 54.6663 18.918C50.46 18.9051 46.2537 18.918 42.041 18.918ZM52.6275 15.2648C48.6591 7.18664 38.2206 2.37578 28.676 4.04157C19.9547 5.55944 11.4907 13.3803 10.6675 20.7445C13.819 20.7445 16.9576 20.7767 20.1027 20.7059C20.5079 20.6995 21.0674 20.2622 21.2732 19.8698C22.9069 16.8019 25.4152 15.2584 28.8947 15.2584C35.59 15.2648 42.2854 15.2584 48.9807 15.2584C50.132 15.2584 51.2897 15.2584 52.6275 15.2584V15.2648ZM52.6017 38.4058C51.8814 38.4058 51.3283 38.4058 50.7816 38.4058C43.5331 38.4058 36.2782 38.393 29.0298 38.4122C25.4924 38.4251 22.9133 36.9265 21.2797 33.775C21.1124 33.4535 20.7909 32.9775 20.54 32.9775C17.2342 32.9261 13.9219 32.9389 10.5645 32.9389C12.6741 41.9625 20.8552 48.7865 30.657 49.8863C39.1853 50.8446 49.1351 45.7186 52.6017 38.4058ZM20.5465 24.3977C17.1248 24.3977 13.8383 24.3655 10.5581 24.4041C6.62196 24.4556 7.27798 23.6774 7.16865 27.903C7.14292 28.9899 7.56097 29.2986 8.59647 29.2858C12.2947 29.2407 15.9993 29.2729 19.6975 29.26C19.9805 29.26 20.2635 29.1636 20.5465 29.1121V24.3977Z" fill="white"/>
<path d="M103.074 155.925C102.746 155.816 102.424 155.681 102.096 155.591C96.6421 154.182 93.0211 149.255 93.5742 143.666C94.5904 133.376 95.7481 123.098 96.8351 112.807C97.3946 107.514 97.9477 102.221 98.488 96.9212C98.5394 96.4389 98.4944 95.95 98.4944 95.1975C97.7162 95.9243 97.118 96.5096 96.4942 97.0691C92.8217 100.356 87.6571 100.426 84.0232 97.2492C80.5116 94.1813 79.9842 89.0167 82.8141 84.9841C88.326 77.1439 93.8443 69.3102 99.4077 61.5086C102.36 57.3666 106.225 54.3245 110.92 52.3435C111.422 52.1313 111.917 51.9062 112.548 51.6232C111.538 51.1022 110.631 50.6649 109.756 50.1761C105.177 47.5906 101.684 43.9438 99.1504 39.3388C98.8224 38.7471 98.205 38.1682 97.5876 37.9109C94.3782 36.5603 92.4615 33.8526 92.4294 30.3602C92.4101 28.0255 92.4101 25.6908 92.4294 23.3561C92.4551 19.7802 94.3653 17.066 97.6583 15.7025C98.2371 15.4645 98.8417 14.9371 99.1376 14.384C104.264 4.79443 114.773 -0.981177 125.192 0.137928C136.576 1.35994 145.49 8.79491 148.616 19.6001C148.796 20.2304 149.427 20.7385 149.864 21.2916C149.954 21.4009 150.128 21.4395 150.25 21.5296C153.195 23.6005 152.893 30.5467 149.793 32.3926C149.394 32.6306 148.899 32.9907 148.79 33.3831C146.674 41.3454 141.876 47.1275 134.434 51.0315C134.807 51.1794 135.039 51.2887 135.277 51.3659C135.515 51.4431 135.772 51.4688 136.017 51.5396C146.732 54.4724 153.221 62.0875 154.842 73.3621C155.877 80.572 155.176 87.7433 154.649 94.9146C154.334 99.1594 153.581 103.385 153.446 107.63C153.324 111.418 153.755 115.226 153.993 119.02C154.463 126.713 154.964 134.411 155.466 142.103C155.504 142.65 155.646 143.19 155.736 143.737V145.564C155.633 145.95 155.511 146.329 155.434 146.715C154.797 149.879 153.183 152.439 150.411 154.086C149.054 154.896 147.471 155.314 145.992 155.912H142.641C137.502 154.722 134.705 151.269 132.91 146.477C130.466 139.949 127.662 133.549 125.012 127.098C124.826 126.655 124.613 126.217 124.305 125.542C123.951 126.404 123.706 126.996 123.475 127.594C120.831 134.431 118.175 141.261 115.564 148.111C114.303 151.404 112.168 153.822 108.856 155.115C108.065 155.423 107.235 155.649 106.425 155.912H103.074V155.925ZM151.948 83.7428C151.716 80.6749 151.671 77.0539 151.125 73.5165C149.626 63.8626 144.288 57.3281 134.653 55.0255C130.653 54.0736 126.433 53.7392 122.311 53.6942C113.95 53.6041 107.171 57.1222 102.25 63.8819C96.6743 71.5484 91.2717 79.3436 85.8048 87.0937C84.0104 89.6406 84.3384 92.7471 86.5316 94.6444C88.744 96.5482 91.8312 96.4324 94.1145 94.2971C95.6709 92.8436 97.2017 91.3514 98.6745 89.8207C99.0604 89.4219 99.337 88.8109 99.4206 88.2578C99.9158 85.1063 100.334 81.9355 100.784 78.7776C100.958 77.5298 101.485 76.623 102.932 76.7709C104.077 76.8867 104.572 77.7871 104.373 79.3114C103.948 82.5787 103.46 85.8395 103.093 89.1132C102.083 98.1304 101.112 107.154 100.141 116.178C99.1504 125.401 98.1728 134.63 97.2016 143.859C96.9701 146.04 97.5876 147.982 99.0282 149.635C102.861 154.015 109.737 152.806 111.937 147.287C114.824 140.039 117.429 132.681 120.465 125.503C121.951 121.992 122.529 118.731 120.754 115.258C120.639 115.033 120.587 114.782 120.529 114.531C120.253 113.348 120.684 112.486 121.841 112.171C122.96 111.868 123.655 112.492 124.047 113.521C126.491 119.959 128.903 126.41 131.412 132.823C133.367 137.82 135.386 142.798 137.483 147.738C138.917 151.121 142.519 152.889 145.96 152.098C149.574 151.275 152.179 148.117 151.973 144.528C151.504 136.276 150.912 128.025 150.411 119.773C150.153 115.624 149.607 111.45 149.838 107.321C150.276 99.6289 151.182 91.9689 151.948 83.7428ZM113.737 34.7466C118.098 34.7466 122.459 34.7659 126.813 34.7401C129.63 34.7208 131.341 32.9907 131.379 30.1672C131.412 27.9355 131.412 25.7037 131.379 23.4719C131.341 20.6549 129.624 18.9247 126.8 18.9183C118.079 18.899 109.364 18.899 100.643 18.9183C97.8191 18.9247 96.1147 20.6613 96.0826 23.4848C96.0568 25.6136 96.0697 27.7425 96.0826 29.8714C96.1018 33.0679 97.7548 34.7273 100.971 34.7337C105.228 34.7466 109.486 34.7337 113.744 34.7337L113.737 34.7466ZM144.982 20.7385C143.747 12.2487 134.222 4.37638 124.498 3.73321C115.705 3.14793 104.932 8.92998 103.164 15.2587C103.736 15.2587 104.289 15.2587 104.836 15.2587C112.091 15.2587 119.339 15.278 126.594 15.2523C130.132 15.2394 132.704 16.7508 134.344 19.8959C134.531 20.2561 135.026 20.6934 135.386 20.6999C138.576 20.7642 141.766 20.7385 144.976 20.7385H144.982ZM144.995 32.92C141.741 32.92 138.512 32.9007 135.277 32.9521C134.962 32.9521 134.531 33.3831 134.357 33.7175C132.704 36.9333 130.074 38.419 126.478 38.3997C119.23 38.3676 111.975 38.3869 104.727 38.3869C104.193 38.3869 103.665 38.3869 103.061 38.3869C106.09 45.526 116.497 50.8771 125.064 49.8545C134.891 48.6775 143.612 41.3133 144.995 32.9136V32.92ZM135.103 29.2604C139.29 29.2604 143.342 29.2861 147.388 29.2089C147.741 29.2025 148.43 28.45 148.372 28.1477C148.147 26.9064 149.221 25.4143 147.735 24.4109C147.696 24.3852 147.639 24.3981 147.587 24.3981C143.445 24.3981 139.303 24.3981 135.103 24.3981V29.2604Z" fill="white"/>
<path d="M62.4141 58.2798C62.7935 57.8231 63.128 57.0642 63.6682 56.8713C64.2149 56.6719 65.2247 56.7876 65.5784 57.18C68.3698 60.2479 71.0775 63.3994 73.753 66.5702C74.3898 67.3291 74.229 68.2231 73.5086 68.892C72.724 69.6188 71.7657 69.6702 71.0646 68.892C68.3054 65.7919 65.6042 62.6404 62.9093 59.4889C62.6971 59.2381 62.6392 58.8522 62.4141 58.2862V58.2798Z" fill="white"/>
<path d="M81.2461 67.7843C81.5805 67.1476 81.7413 66.6459 82.0565 66.2858C84.552 63.3594 87.0796 60.4523 89.6008 57.5452C90.4112 56.6061 91.3824 56.2781 92.3728 57.1528C93.3633 58.0275 93.1446 59.0309 92.3407 59.9635C89.8516 62.832 87.4076 65.7455 84.8349 68.5368C84.3654 69.0449 83.3299 69.2958 82.6096 69.2121C82.1144 69.1543 81.7156 68.3053 81.2461 67.7843Z" fill="white"/>
<path d="M75.9727 72.4616C76.1399 71.3618 76.738 70.6543 77.8764 70.7058C79.002 70.7572 79.6516 71.4776 79.5937 72.6031C79.5358 73.645 78.8669 74.2946 77.8057 74.2882C76.6673 74.2817 76.0949 73.5678 75.9727 72.4616Z" fill="white"/>
<path d="M21.6669 100.445C20.2519 99.9561 18.6826 99.7117 17.4413 98.9399C14.5213 97.1326 11.7493 95.0809 8.9258 93.1064C7.92247 92.4054 7.53014 91.4792 8.26977 90.3665C8.9258 89.3889 9.96773 89.3954 11.1833 90.2572C13.7045 92.0388 16.1936 93.8654 18.7855 95.544C21.0816 97.0297 23.3455 96.811 25.0692 95.171C26.7865 93.5373 26.9858 91.1962 25.6674 88.7651C23.9565 85.6071 22.265 82.4363 20.5864 79.2591C20.0204 78.1979 20.0011 77.156 21.1716 76.4999C22.2586 75.8889 23.1462 76.3263 23.7057 77.3682C25.6223 80.9313 27.6419 84.4494 29.3977 88.0962C32.0861 93.6853 27.9377 100.143 21.6669 100.445Z" fill="white"/>
<path d="M134.188 100.182C127.692 100.131 123.537 93.7186 126.168 88.1874C127.93 84.4892 129.975 80.9261 131.924 77.3115C132.452 76.3339 133.294 75.9223 134.349 76.4561C135.455 77.0221 135.648 77.9804 135.101 79.0288C133.391 82.3025 131.661 85.5698 129.898 88.8242C128.085 92.1686 129.5 95.8218 133.018 96.362C134.162 96.5357 135.61 96.2205 136.6 95.6095C139.321 93.9502 141.835 91.9692 144.517 90.2391C145.135 89.8404 146.151 89.641 146.833 89.8468C147.92 90.1812 148.216 91.7313 147.322 92.4966C143.887 95.423 140.343 98.2272 136.06 99.8544C135.365 100.118 134.568 100.118 134.195 100.176L134.188 100.182Z" fill="white"/>
</svg>
