<svg width="34" height="29" viewBox="0 0 34 29" fill="none" xmlns="http://www.w3.org/2000/svg">
<path d="M0 20.1793C0.0656523 19.5415 0.113797 18.9037 0.20571 18.2611C0.617131 15.5037 1.39183 12.895 2.99812 10.6699C3.40403 10.2055 3.8431 9.77738 4.31117 9.38953C4.40592 9.28943 4.46359 9.15452 4.47311 9.01069C4.47311 7.38503 4.47311 5.75938 4.47311 4.13372C4.46683 3.28002 4.69177 2.44346 5.11949 1.72986C5.5472 1.01625 6.15847 0.457655 6.87598 0.12473C6.98406 0.0631964 7.10104 0.0226349 7.22175 0.0048444C7.33294 -0.0121747 7.44596 0.0159861 7.5395 0.084012C7.63303 0.152038 7.7006 0.255223 7.72946 0.374094C7.77012 0.488377 7.77169 0.614913 7.73389 0.730366C7.69608 0.845819 7.62145 0.9424 7.52375 1.0023C7.39682 1.09341 7.23926 1.14136 7.08607 1.22289C6.63017 1.45994 6.24226 1.82933 5.96448 2.29093C5.6867 2.75253 5.52966 3.2887 5.51041 3.8412C5.45789 5.57235 5.51041 7.3083 5.51041 8.96273C5.9784 9.21763 6.42893 9.50932 6.85847 9.8355C7.24919 10.2193 7.61483 10.6328 7.95268 11.0727C7.95268 10.9576 7.95268 10.8521 7.95268 10.7514C7.95268 9.58614 7.95268 8.42085 7.95268 7.26035C7.94426 7.0837 7.8827 6.91508 7.77761 6.78081C7.515 6.45472 7.21737 6.1574 6.93726 5.85049C6.5521 5.4237 6.49958 5.13597 6.76218 4.85783C7.02479 4.5797 7.2874 4.67081 7.63755 5.05924L7.95706 5.39013C7.95706 5.1024 7.95706 4.91058 7.95706 4.70438C7.95706 4.27279 8.14526 4.0522 8.47352 4.06179C8.80178 4.07138 8.95935 4.30156 8.96372 4.70438C8.96372 5.7354 8.96372 6.76642 8.96372 7.88376C9.04981 7.79059 9.14039 7.70255 9.23509 7.62001C9.33104 7.53364 9.45293 7.48957 9.57695 7.49642C9.70098 7.50327 9.81821 7.56055 9.90575 7.65705C9.99328 7.75356 10.0448 7.88236 10.0503 8.01829C10.0558 8.15421 10.0148 8.28749 9.93538 8.39207C9.76666 8.61844 9.57911 8.82714 9.37514 9.01548C9.19919 9.14645 9.06688 9.33658 8.99819 9.55716C8.9295 9.77775 8.92816 10.0168 8.99436 10.2383C9.02943 10.2258 9.06209 10.2063 9.09065 10.1808C9.69422 9.48466 10.427 8.93848 11.2397 8.5791C11.2904 8.54649 11.3335 8.50131 11.3654 8.44718C11.3973 8.39305 11.4172 8.33147 11.4235 8.26739C11.4235 6.82876 11.4716 5.39013 11.4235 3.95149C11.4085 3.35023 11.2353 2.7665 10.9247 2.27053C10.6141 1.77455 10.1794 1.38744 9.67277 1.15575C9.55459 1.09341 9.3839 1.05505 9.33138 0.954342C9.21921 0.776471 9.16947 0.560189 9.19132 0.345321C9.23509 0.196662 9.46706 0.0815715 9.629 0.0144353C9.72091 -0.0239283 9.86535 0.0480034 9.97477 0.105549C10.678 0.413083 11.2828 0.941139 11.7133 1.62357C12.1439 2.30599 12.381 3.11245 12.3951 3.9419C12.4477 5.22229 12.3951 6.51226 12.3951 7.77826V8.21944C13.7052 8.00374 15.0434 8.27738 16.1942 8.9963C16.5094 7.64878 16.7676 6.30126 17.1571 4.9969C17.4884 3.97424 17.8832 2.97765 18.3389 2.01414C18.5174 1.67911 18.7591 1.38973 19.0479 1.16534C19.2229 0.999324 19.4467 0.907946 19.6782 0.907946C19.9097 0.907946 20.1334 0.999324 20.3084 1.16534C20.6299 1.4771 20.9164 1.82964 21.1619 2.21554C21.2845 2.39298 21.3589 2.46491 21.5996 2.38338C22.2633 2.12562 22.9698 2.02669 23.6714 2.09328C24.373 2.15986 25.0534 2.39041 25.6668 2.76939C26.2802 3.14837 26.8123 3.66698 27.2274 4.29028C27.6424 4.91358 27.9308 5.62711 28.0729 6.38278C28.1384 6.70301 28.304 6.98803 28.5412 7.18842C28.9789 7.59603 29.2984 8.09476 29.6792 8.54553C29.7662 8.6745 29.8845 8.77418 30.0206 8.83325C30.8727 9.02279 31.6646 9.45407 32.3169 10.084C32.9692 10.7139 33.4592 11.5204 33.7379 12.4228C34.0166 13.3253 34.0742 14.2921 33.905 15.2265C33.7358 16.161 33.3457 17.0305 32.7736 17.748C32.7211 17.8103 32.6729 17.8727 32.6204 17.9446C33.311 19.2797 33.7025 20.7753 33.7628 22.3085C33.7871 22.997 33.7253 23.686 33.5789 24.3561C33.4836 24.7984 33.2552 25.1926 32.9305 25.4753C32.6057 25.7581 32.2036 25.9128 31.7888 25.9146L31.2811 25.9674V27.8856H32.2747C32.6729 27.8856 33.0712 27.8856 33.4695 27.8856C33.6043 27.8842 33.7342 27.9406 33.8315 28.0428C33.9288 28.1449 33.9858 28.2847 33.9904 28.4322C33.9904 28.5055 33.9771 28.578 33.9512 28.6455C33.9254 28.7131 33.8875 28.7743 33.8399 28.8256C33.7922 28.877 33.7357 28.9174 33.6736 28.9445C33.6115 28.9717 33.5451 28.985 33.4783 28.9837C33.3689 28.9837 33.2594 28.9837 33.1456 28.9837H0.827219C0.678374 29.0133 0.525191 29.0025 0.381013 28.9523C0.236835 28.9022 0.106033 28.8142 0 28.696L0 28.2596C0.0755853 28.1338 0.181328 28.0333 0.305629 27.969C0.429931 27.9047 0.567991 27.8791 0.704668 27.8951C1.93893 27.8951 3.17757 27.8951 4.41621 27.8951H4.76198V26.3174C4.27615 26.2839 3.81659 26.2647 3.35264 26.2119C2.02209 26.0633 1.00667 25.4207 0.498957 23.9821C0.370749 23.6254 0.274017 23.256 0.210087 22.8791C0.113797 22.3228 0.0656523 21.757 0 21.1959V20.1793ZM11.5592 24.0156C11.7999 24.0156 11.9969 24.0156 12.1763 24.0156C13.148 23.9389 13.6119 23.5888 13.8526 22.7161C13.937 22.4032 13.9927 22.0819 14.0189 21.757C14.1618 19.6694 13.8011 17.5773 12.9729 15.6907C12.6685 14.8805 12.2071 14.1523 11.6205 13.5568C11.5541 13.4649 11.4696 13.3907 11.3733 13.3397C11.2771 13.2887 11.1715 13.2622 11.0646 13.2622C10.9577 13.2622 10.8521 13.2887 10.7559 13.3397C10.6596 13.3907 10.5751 13.4649 10.5087 13.5568C10.2767 13.7814 10.0669 14.0321 9.88286 14.3049C9.36386 15.1057 8.95945 15.9886 8.68361 16.9232C8.56106 17.3164 8.28969 17.4842 8.0052 17.3691C7.93457 17.3405 7.87052 17.2952 7.81754 17.2366C7.76456 17.1779 7.72392 17.1073 7.69849 17.0296C7.67305 16.952 7.66342 16.8691 7.67029 16.787C7.67715 16.7048 7.70033 16.6252 7.73821 16.5539C7.92642 16.012 8.1759 15.4893 8.34222 14.9474C8.40088 14.7742 8.40088 14.5836 8.34222 14.4104C8.08398 13.7678 7.81262 13.13 7.50187 12.5162C7.15676 11.7792 6.6788 11.1267 6.09691 10.598C5.49291 10.0705 5.0027 10.0417 4.43372 10.598C4.02362 11.0167 3.65803 11.4848 3.34389 11.9935C2.55999 13.3021 1.98018 14.7444 1.62818 16.2614C1.0486 18.3297 0.899045 20.5139 1.19049 22.6537C1.21445 23.055 1.32052 23.4453 1.50084 23.7956C1.68116 24.1459 1.93111 24.4473 2.23218 24.6774C3.01563 25.2001 3.89537 25.1569 4.77949 25.1569C4.77949 24.3369 4.77949 23.5601 4.77949 22.7592C4.76198 22.6442 4.71137 22.5384 4.63505 22.4571C4.27177 22.0495 3.89974 21.6515 3.53209 21.2439C3.26511 20.9465 3.23885 20.6205 3.45331 20.3807C3.66777 20.1409 3.95664 20.1553 4.23676 20.4526C4.40746 20.63 4.5694 20.8123 4.78386 21.0473C4.78386 19.4695 4.78386 17.9878 4.78386 16.5108C4.78386 16.0936 4.98082 15.8394 5.28282 15.8442C5.58482 15.849 5.77302 16.0984 5.7774 16.5204C5.78178 16.9424 5.7774 17.3739 5.7774 17.8247C6.1932 17.6137 6.42517 17.6425 6.59586 17.8918C6.76656 18.1412 6.72717 18.4098 6.41642 18.7502C6.28511 18.8941 6.16256 19.0523 6.01813 19.1818C5.93228 19.2565 5.86488 19.3536 5.82207 19.4642C5.77926 19.5747 5.7624 19.6953 5.77302 19.8148C5.77302 21.4501 5.77302 23.0901 5.77302 24.7254V25.1474C6.64839 25.0946 7.52375 25.1474 8.34222 24.6294C7.95907 24.3255 7.64735 23.926 7.43275 23.4641C7.21815 23.0022 7.10683 22.4911 7.10795 21.9728C7.05981 21.1288 7.10795 20.28 7.10795 19.436C7.10795 19.014 7.33992 18.7982 7.65943 18.8222C7.97894 18.8461 8.09711 19.0955 8.09711 19.5271C8.09711 20.304 8.04022 21.0808 8.09711 21.8529C8.20653 23.5025 9.19132 24.3321 10.5613 23.9821V18.3234C10.5613 17.8439 10.7363 17.6281 11.0646 17.6329C11.3929 17.6377 11.5592 17.8775 11.5592 18.3378V20.4862C11.5592 20.5725 11.5592 20.6588 11.5942 20.841C11.9093 20.4766 12.1676 20.1745 12.4302 19.882C12.5024 19.7792 12.6069 19.7096 12.7234 19.6865C12.8398 19.6635 12.96 19.6887 13.0604 19.7573C13.1332 19.8017 13.195 19.865 13.2402 19.9417C13.2854 20.0185 13.3126 20.1062 13.3195 20.1972C13.3265 20.2882 13.3128 20.3796 13.2799 20.4635C13.2469 20.5473 13.1956 20.621 13.1305 20.678C12.6928 21.1911 12.2026 21.6898 11.7474 22.1982C11.6589 22.2837 11.5976 22.3979 11.5723 22.5242C11.5504 23.023 11.5592 23.5025 11.5592 24.0348V24.0156ZM19.1836 21.7426C19.1863 21.6995 19.1863 21.6562 19.1836 21.6131C19.1836 19.6949 19.1836 17.7336 19.1836 15.7914C19.1717 15.6521 19.116 15.5216 19.026 15.4222C18.6365 14.9762 18.2294 14.5494 17.8355 14.1034C17.7771 14.0566 17.7286 13.9965 17.6931 13.9274C17.6576 13.8582 17.6361 13.7816 17.6299 13.7026C17.6236 13.6235 17.6329 13.544 17.6571 13.4692C17.6812 13.3944 17.7197 13.3262 17.7699 13.269C17.8227 13.2103 17.8866 13.1648 17.9571 13.1359C18.0276 13.107 18.103 13.0954 18.1781 13.1018C18.2531 13.1082 18.326 13.1325 18.3916 13.173C18.4571 13.2134 18.5138 13.2692 18.5577 13.3362C18.7503 13.5424 18.9297 13.763 19.1136 13.9788C19.1734 13.6634 19.1998 13.3416 19.1923 13.0197C19.1923 12.5833 19.363 12.3483 19.6782 12.3435C19.9933 12.3387 20.1859 12.5689 20.1859 13.0293V17.0287C20.1859 17.1294 20.1859 17.2349 20.1859 17.3452C20.2164 17.3364 20.2458 17.3235 20.2734 17.3068L21.0087 16.5683C21.2932 16.2614 21.604 16.2278 21.8228 16.4724C22.0417 16.717 22.0198 17.0239 21.7178 17.3596C21.2801 17.8391 20.8424 18.3186 20.4047 18.827C20.3303 18.9085 20.234 19.0188 20.2297 19.1195C20.2297 19.997 20.2297 20.8794 20.2297 21.757C21.2276 21.8721 21.8272 21.498 22.1905 20.5485C22.2909 20.28 22.37 20.0024 22.4268 19.7189C22.8201 17.3446 22.8718 14.9175 22.58 12.5257C22.4049 10.7706 22.081 9.03466 21.8184 7.29392C21.7572 6.87671 21.8753 6.59378 22.1686 6.51706C22.4618 6.44033 22.7244 6.65612 22.812 7.07812C22.8776 7.38983 22.9389 7.70633 23.0177 8.08037C23.4744 7.41064 24.0953 6.89685 24.8082 6.59885C25.5211 6.30085 26.2966 6.23091 27.0444 6.39717C26.6461 3.99945 23.7968 2.43134 21.7922 3.49593C21.8841 3.78845 21.9979 4.07618 22.0723 4.37829C22.173 4.77631 21.8797 5.18872 21.5515 5.07363C21.3571 4.97751 21.2015 4.807 21.1138 4.59408C20.7943 3.91793 20.5535 3.19861 20.2121 2.54163C19.8708 1.88466 19.5994 1.86068 19.2668 2.54163C18.8555 3.32791 18.5126 4.15475 18.2426 5.01129C17.0345 9.12001 16.5329 13.4387 16.7632 17.748C16.8179 18.6647 16.9722 19.5711 17.2228 20.4478C17.5073 21.4884 18.1463 21.8625 19.1836 21.7618V21.7426ZM25.6657 22.2221C25.6657 22.1358 25.6919 22.1022 25.6919 22.0687C25.6919 20.2848 25.6919 18.5009 25.6919 16.717C25.6765 16.5791 25.6195 16.4508 25.53 16.3525C25.2236 15.9976 24.9041 15.662 24.5933 15.3167C24.2826 14.9714 24.2563 14.6885 24.4883 14.4295C24.7203 14.1706 25.0135 14.2185 25.298 14.5254L25.7007 14.957C25.7007 14.6453 25.7007 14.4391 25.7007 14.2377C25.7007 14.1082 25.7007 13.9212 25.7882 13.8685C25.9436 13.7346 26.1334 13.6574 26.3309 13.6479C26.5892 13.6719 26.703 13.926 26.703 14.2089V17.4411L26.8912 17.2589C27.1713 16.9903 27.4426 16.9759 27.6527 17.2109C27.7022 17.2685 27.7402 17.3368 27.7644 17.4114C27.7885 17.486 27.7982 17.5653 27.7928 17.6442C27.7875 17.7231 27.7672 17.8 27.7333 17.8698C27.6994 17.9397 27.6526 18.0011 27.5958 18.0501C27.4888 18.1898 27.3701 18.3182 27.2413 18.4337C27.0372 18.5942 26.8778 18.8138 26.7812 19.0679C26.6846 19.322 26.6544 19.6006 26.6942 19.8724C26.738 20.6396 26.6942 21.4117 26.6942 22.1886C27.5039 22.0735 27.749 21.8769 27.8278 21.3062C28.007 20.01 28.4207 18.766 29.0446 17.6473C29.1214 17.5016 29.1607 17.3359 29.1584 17.1677C29.1584 15.0226 29.1584 12.8758 29.1584 10.7275C29.1694 9.95114 28.928 9.19583 28.4774 8.59665C28.0267 7.99746 27.3962 7.59348 26.6986 7.45696C26.0071 7.3466 25.302 7.49852 24.7002 7.88753C24.0984 8.27654 23.636 8.87926 23.3897 9.59573C23.3284 9.78797 23.306 9.9925 23.3241 10.1952C23.4335 11.5331 23.6042 12.871 23.6742 14.2089C23.8131 16.0966 23.7233 17.9961 23.4072 19.858C23.3788 19.9726 23.3788 20.0934 23.4072 20.208C23.592 20.7304 23.8971 21.1914 24.293 21.5461C24.6888 21.9008 25.1617 22.137 25.6657 22.2317V22.2221ZM13.8483 12.2045L14.1415 11.9119C14.1857 11.8478 14.2421 11.7949 14.3068 11.7569C14.3715 11.7189 14.4429 11.6967 14.5162 11.6919C14.5895 11.6871 14.6628 11.6997 14.7312 11.7289C14.7996 11.7581 14.8613 11.8033 14.9123 11.8612C14.9632 11.9191 15.002 11.9884 15.0262 12.0643C15.0503 12.1403 15.0591 12.221 15.052 12.3011C15.0449 12.3811 15.022 12.4585 14.985 12.5279C14.9479 12.5973 14.8976 12.6571 14.8374 12.7032C14.5661 13.0101 14.2903 13.3026 14.0189 13.6095C13.9577 13.6767 13.8614 13.7582 13.8658 13.8349C13.8549 14.3494 13.893 14.8637 13.9796 15.3694C14.1984 16.2662 14.5179 17.1294 14.7674 18.0165C14.8899 18.4625 14.9425 18.9277 15.0256 19.388C15.8353 19.1435 15.901 19.0763 15.7828 18.2179V18.0357C15.6331 15.543 15.727 13.04 16.0629 10.5692C16.0902 10.4572 16.0795 10.3382 16.0328 10.2341C15.9861 10.1301 15.9067 10.0481 15.8091 10.0033C15.2429 9.63841 14.6145 9.40429 13.9627 9.31538C13.3108 9.22646 12.6492 9.28464 12.0187 9.48634C11.3881 9.68803 10.8019 10.029 10.2961 10.4882C9.79027 10.9474 9.37558 11.5151 9.07752 12.1565C8.95557 12.3595 8.89882 12.6013 8.91626 12.8436C8.9337 13.0858 9.02432 13.3149 9.17381 13.4944C9.65088 12.8902 10.1367 12.2668 10.9245 12.1757C11.7124 12.0846 12.2814 12.6552 12.8591 13.2882C12.8591 12.6792 12.8591 12.1517 12.8591 11.6194C12.8526 11.543 12.8607 11.4659 12.8829 11.3931C12.9051 11.3203 12.9409 11.2534 12.9881 11.1967C13.0353 11.1399 13.0928 11.0946 13.1568 11.0636C13.2209 11.0326 13.2902 11.0166 13.3602 11.0166C13.4303 11.0166 13.4996 11.0326 13.5636 11.0636C13.6277 11.0946 13.6852 11.1399 13.7324 11.1967C13.7795 11.2534 13.8154 11.3203 13.8376 11.3931C13.8598 11.4659 13.8679 11.543 13.8614 11.6194C13.8439 11.7968 13.8351 11.9647 13.8351 12.214L13.8483 12.2045ZM31.2899 24.8213C32.1652 24.9124 32.5767 24.6055 32.6948 23.7231C32.9249 21.8825 32.5694 20.0113 31.6882 18.4241C31.5425 18.153 31.366 17.9033 31.1629 17.6808C30.8434 17.3164 30.6727 17.3212 30.3576 17.6808C30.176 17.8754 30.0159 18.0927 29.8805 18.3282C28.9966 19.8843 28.6073 21.7171 28.7732 23.5409C28.8607 24.5431 29.3422 24.9555 30.2438 24.8165V24.4328C30.2438 23.2675 30.2438 22.1022 30.2438 20.937C30.2438 20.4862 30.432 20.2464 30.7647 20.256C31.0973 20.2656 31.2505 20.4766 31.2592 20.889C31.268 21.3014 31.2592 21.7714 31.2592 22.2557L31.4343 22.1598C31.5395 22.0987 31.661 22.0805 31.7773 22.1082C31.8935 22.136 31.9971 22.208 32.0695 22.3115C32.1419 22.415 32.1785 22.5432 32.1728 22.6735C32.1671 22.8037 32.1194 22.9276 32.0383 23.023C31.9412 23.1542 31.8311 23.2732 31.71 23.3778C31.2286 23.7423 31.2023 24.2458 31.2899 24.8213ZM30.1738 9.99375V16.2278C30.1738 16.2902 30.1738 16.3477 30.1738 16.4436C30.9178 16.1367 31.4868 16.482 31.9989 17.0622C32.4394 16.5142 32.7471 15.8536 32.8936 15.1412C33.0401 14.4288 33.0206 13.6875 32.8371 12.9855C32.6536 12.2834 32.3119 11.6432 31.8434 11.1238C31.375 10.6044 30.7948 10.2224 30.1563 10.0129L30.1738 9.99375ZM27.7271 23.0757C27.4928 23.1702 27.2511 23.2408 27.005 23.2867C26.7249 23.3107 26.6986 23.4642 26.6986 23.7135C26.6986 24.9987 26.6986 26.2791 26.6986 27.5499C26.6986 27.6554 26.6986 27.7561 26.7205 27.8664H30.2219V25.9482C28.4493 26.0105 27.7884 24.8548 27.7271 23.0757ZM16.1461 27.8712V24.687C15.6077 24.5383 15.1 24.4184 14.6054 24.265C14.5229 24.2341 14.4348 24.2249 14.3485 24.2382C14.2621 24.2515 14.1797 24.2869 14.1081 24.3416C14.0366 24.3962 13.9777 24.4685 13.9364 24.5527C13.895 24.6369 13.8723 24.7305 13.8701 24.8261C13.8701 25.5694 13.8701 26.3079 13.8483 27.0463C13.8483 27.3197 13.8483 27.5978 13.8483 27.8856L16.1461 27.8712ZM19.1836 27.8712V23.7567C18.5665 24.0012 17.9493 24.2362 17.3453 24.5048C17.3024 24.5414 17.2673 24.5879 17.2424 24.6409C17.2174 24.6938 17.2033 24.7521 17.2009 24.8117C17.2009 25.6125 17.2009 26.4086 17.2009 27.2094V27.8903L19.1836 27.8712ZM22.3437 27.8712H23.4247V27.4588C23.4247 25.9674 23.3941 24.476 23.4247 22.9894C23.4452 22.7132 23.4068 22.4356 23.3126 22.1785C23.2185 21.9213 23.071 21.6917 22.882 21.5076C22.6807 21.689 22.524 21.9226 22.4261 22.1873C22.3283 22.452 22.2924 22.7392 22.3218 23.023C22.3655 24.4952 22.3218 25.977 22.3218 27.454L22.3437 27.8712ZM18.3826 22.836C16.9777 22.5626 16.4174 21.4692 16.0761 20.1505C15.7741 20.2848 15.4983 20.3999 15.227 20.5389C15.1937 20.561 15.1654 20.591 15.1441 20.6267C15.1229 20.6624 15.1093 20.7029 15.1044 20.7451C15.0344 21.546 14.9731 22.3468 14.9074 23.1812C15.4678 23.4419 16.0783 23.5467 16.6846 23.4865C17.2909 23.4263 17.8742 23.2028 18.3826 22.836ZM25.6963 27.8903C25.6963 26.4086 25.6963 24.9699 25.6963 23.5313C25.6899 23.4877 25.6737 23.4465 25.6493 23.4114C25.6249 23.3762 25.5929 23.3482 25.5562 23.3299C25.2017 23.21 24.8384 23.1141 24.4752 23.0086V27.8903H25.6963ZM20.2209 22.9223V27.876H21.3151V22.7976L20.2209 22.9223ZM10.535 27.8856V25.1617C10.2156 25.101 9.88999 25.0897 9.56773 25.1282C9.34013 25.1953 9.01187 25.4639 8.99436 25.6749C8.94679 26.4106 8.93657 27.1486 8.96372 27.8856H10.535ZM5.80366 26.3366V27.876H7.9308V26.1256L5.80366 26.3366ZM12.8066 27.8856V25.0706L11.5723 25.1761V27.8856H12.8066Z" fill="white"/>
</svg>
