<svg width="132" height="132" viewBox="0 0 132 132" fill="none" xmlns="http://www.w3.org/2000/svg">
<path d="M26.7491 42.1904C26.2271 41.9006 25.9105 41.7875 25.6721 41.582C18.4451 35.3643 13.0434 27.7529 8.7064 19.3297C8.18226 18.3122 8.23159 17.3626 9.11338 16.6062C18.0875 8.90651 27.9331 2.84909 39.7519 0.612765C49.9901 -1.32347 59.0485 1.40411 67.1531 7.73079C67.7286 8.17888 68.3001 8.63313 68.8468 9.11411C69.7553 9.90956 69.8437 10.8489 69.1037 11.7697C68.3617 12.6947 67.4429 12.779 66.4501 12.0883C64.1727 10.5036 61.9693 8.78934 59.5808 7.39164C55.916 5.24575 51.8996 4.09059 47.6346 3.89532C47.3776 3.88299 47.1207 3.89532 46.6397 3.89532C46.9933 4.40713 47.207 4.736 47.4393 5.05254C52.4772 11.926 57.5069 18.8056 62.5818 25.6523C62.9436 26.1394 63.589 26.5916 64.1748 26.7129C69.4819 27.8043 74.8035 28.8197 80.123 29.8515C80.2443 29.8741 80.382 29.8248 80.8362 29.7673C78.6143 26.569 76.489 23.5084 74.3595 20.452C74.0985 20.0779 73.7799 19.7449 73.5415 19.3585C72.9741 18.4438 73.1283 17.5887 73.9381 16.9248C74.7891 16.226 75.7284 16.1849 76.5034 17.0296C77.2392 17.8333 77.9422 18.6904 78.5321 19.6031C80.7314 23.0028 82.8814 26.4374 85.0499 29.8577C85.2678 30.201 85.424 30.6223 85.7241 30.871C89.0457 33.6212 92.3899 36.3447 95.6005 38.9716C95.4566 37.8986 95.247 36.5317 95.0908 35.1587C94.0692 26.2113 97.0106 18.8528 103.979 13.1325C109.356 8.71946 115.555 5.9631 122.21 4.12553C123.487 3.77199 124.325 4.20775 124.928 5.30947C128.348 11.5745 130.745 18.1704 131.197 25.3522C131.721 33.6808 128.656 40.4762 122.243 45.7915C117.686 49.5674 112.472 52.0977 106.908 53.9825C106.478 54.1285 106.052 54.2847 105.627 54.4409C105.588 54.4553 105.559 54.5005 105.438 54.6115C105.96 56.0421 106.529 57.5097 107.031 58.9978C117.436 89.8337 98.4268 123.243 66.6043 130.061C37.1538 136.371 8.18637 118.041 1.41161 88.7731C-0.187533 81.8626 -0.444464 74.8803 0.725087 67.8671C0.971741 66.3851 1.72815 65.7726 3.00869 65.9925C4.17824 66.1939 4.71266 67.0593 4.51945 68.459C1.99124 86.8163 7.5574 102.351 21.2734 114.717C31.6 124.026 44.0067 128.147 57.8851 127.315C78.8486 126.057 96.2932 112.738 103.255 92.9456C110.513 72.311 103.181 48.5089 85.572 35.5349C85.2822 35.3211 84.9739 35.1361 84.6758 34.9367C82.8835 36.3426 81.1343 37.7136 79.3255 39.1339C80.6636 40.1637 82.014 41.0887 83.237 42.1616C97.0106 54.2518 102.361 69.4066 97.9746 87.1554C93.652 104.647 81.9297 115.383 64.4831 119.79C59.9858 120.926 55.3713 121.019 50.7547 120.676C50.5739 120.661 50.3909 120.647 50.2121 120.616C48.9418 120.394 48.2718 119.603 48.4054 118.485C48.541 117.334 49.2995 116.836 50.6355 116.797C54.4073 116.69 58.2386 116.906 61.9343 116.308C79.4139 113.484 92.9963 99.2004 95.2079 81.6324C95.7937 76.983 95.6375 72.3685 94.5831 67.6143C91.4691 69.3737 88.464 71.0551 86.2133 73.7744C83.9852 76.4671 84.3326 79.6284 84.5957 82.7855C84.795 85.174 85.4898 87.7042 84.9656 89.9385C83.3994 96.6269 79.0686 101.143 72.5302 103.274C68.8632 104.468 65.6629 102.75 64.5756 99.0565C63.9034 96.7708 63.6033 94.3269 63.4841 91.9364C63.2498 87.252 63.258 82.5533 63.1655 77.8607C63.1655 77.7702 63.1573 77.6777 63.1491 77.5873C62.8284 74.0787 62.4811 73.832 59.0094 74.2143C55.8009 74.5658 52.5697 75.1557 49.3694 75.0509C42.4918 74.8248 37.7622 68.8249 38.6605 61.9659C39.2257 57.6412 41.5648 54.3874 44.7199 51.592C44.9851 51.3557 45.2585 51.1275 45.7518 50.702C39.7663 50.0237 34.5434 47.958 29.6843 44.6549C27.0677 46.659 24.704 48.9384 22.8356 51.6229C21.0227 54.2292 19.4996 57.0369 17.8984 59.785C17.7113 60.1057 17.6599 60.6977 17.8305 61.006C19.329 63.711 20.9692 66.3419 22.4142 69.0757C23.4358 71.0058 24.7862 72.3192 26.9752 72.8084C28.116 73.0633 29.2362 73.5298 30.2825 74.0643C32.8847 75.39 34.0378 77.7846 33.1519 80.5759C32.3708 83.0363 31.2218 85.3795 30.2228 87.7679C29.9782 88.3558 29.709 88.9354 29.4048 89.4945C28.0687 91.9508 27.7769 94.1666 29.3904 96.8592C31.4561 100.306 31.9905 104.312 31.4767 108.359C31.3698 109.202 31.5589 109.726 32.3194 110.127C34.6523 111.356 36.9483 112.655 39.2894 113.87C40.6419 114.571 41.1208 115.401 40.6645 116.55C40.2164 117.679 39.1764 118.043 37.8075 117.424C22.4964 110.516 13.1852 98.8407 10.9571 82.1627C8.87289 66.5557 14.1533 53.3967 25.8283 42.8214C25.9948 42.6714 26.2044 42.5666 26.7574 42.1986L26.7491 42.1904ZM93.4423 63.6884C91.3396 55.7584 83.6029 45.8676 76.3471 41.9581C75.9402 41.7382 75.1303 41.9047 74.6802 42.176C68 46.2211 60.9827 49.3619 53.1617 50.4286C52.8636 50.4698 52.5553 50.6157 52.3025 50.7883C51.1371 51.5838 49.9737 52.3834 48.8432 53.2241C46.1731 55.2137 43.8566 57.4994 42.8269 60.7922C41.0921 66.3419 44.7467 71.3346 50.5245 71.3058C51.3447 71.3017 52.1689 71.2771 52.9808 71.1722C55.5994 70.831 58.2057 70.3809 60.8306 70.0993C63.3259 69.83 64.923 70.8064 65.9363 73.0941C66.2816 73.8772 66.6434 74.7241 66.6886 75.5586C66.9311 80.0086 67.0483 84.4669 67.2662 88.919C67.3936 91.5068 67.4799 94.1131 67.8581 96.6701C68.2939 99.6156 69.9341 100.438 72.6699 99.2127C76.6883 97.4121 79.4735 94.3824 80.9863 90.2571C81.3193 89.3506 81.4097 88.2941 81.3604 87.3199C81.2864 85.916 80.9925 84.5244 80.7725 83.1288C79.7921 76.8802 81.3912 71.6471 86.8094 67.9616C88.9532 66.5043 91.1649 65.1498 93.4464 63.6863L93.4423 63.6884ZM79.9031 33.8494C79.5084 33.7076 79.3419 33.6233 79.1672 33.5904C73.8518 32.5462 68.5405 31.4815 63.2128 30.5031C62.6887 30.4065 61.9734 30.7087 61.5088 31.0478C55.0568 35.7342 48.6335 40.4597 42.2061 45.177C41.9245 45.3846 41.6696 45.6271 41.3634 45.884C43.8546 46.7987 48.5328 47.1481 51.7167 46.7514C62.3865 45.4195 71.2948 40.2727 79.9051 33.8494H79.9031ZM27.6905 106.341C27.8652 103.375 27.0266 100.031 25.1891 97.0072C24.0832 95.1881 23.8407 93.3259 24.5621 91.3938C25.3391 89.3116 26.2908 87.2931 27.1602 85.2459C27.8879 83.5317 28.6813 81.84 29.3061 80.0888C29.8816 78.4732 29.5713 77.8977 27.9804 77.2153C27.0636 76.8227 26.1202 76.4527 25.1541 76.2163C22.591 75.5935 20.7883 74.0704 19.5756 71.7724C19.0659 70.8064 18.5109 69.865 17.9868 68.9071C17.3372 67.7232 16.698 66.5331 15.9806 65.2094C11.73 78.8021 16.0176 96.3289 27.6905 106.341ZM26.4696 37.1258C29.3369 39.8431 32.4119 42.0732 35.8198 43.8594C36.5804 44.2582 37.0901 44.1698 37.7622 43.6744C43.908 39.1298 50.0826 34.6243 56.2469 30.1044C56.512 29.9091 56.7484 29.6727 57.176 29.2966C53.2912 28.5443 49.5646 28.09 46.0087 27.0561C42.6522 26.0818 40.1239 26.7252 37.4786 28.9656C34.0213 31.8926 30.2002 34.392 26.4696 37.1258ZM31.3636 7.10593C31.4849 7.33614 31.5466 7.50263 31.6473 7.64035C35.1395 12.4152 38.6255 17.1941 42.1547 21.9422C42.4404 22.3265 43.0139 22.6061 43.5011 22.7089C46.3479 23.309 49.207 23.8455 52.0661 24.3943C53.803 24.7273 55.5419 25.0397 57.5788 25.4179C57.1451 24.8054 56.9416 24.5094 56.7299 24.2217C51.9674 17.7264 47.2091 11.2271 42.4199 4.75244C42.202 4.45851 41.6594 4.18719 41.3182 4.23858C37.902 4.75244 34.5968 5.66917 31.3657 7.10593H31.3636ZM106.651 50.0155C112.961 47.6415 118.488 44.7659 122.755 39.9047C125.181 37.1422 126.704 33.9542 127.143 30.2606C126.971 30.2462 126.874 30.2092 126.806 30.238C122.221 32.1228 117.635 34.0077 113.06 35.9172C112.755 36.0446 112.41 36.3139 112.287 36.6037C110.439 40.9469 108.624 45.3065 106.653 50.0176L106.651 50.0155ZM102.975 48.4636C103.07 48.3609 103.197 48.2766 103.247 48.1594C104.953 44.0958 106.669 40.0383 108.32 35.9521C108.49 35.5287 108.361 34.8936 108.174 34.4352C106.416 30.0982 104.618 25.7797 102.825 21.4571C102.7 21.1549 102.536 20.8672 102.367 20.526C96.8215 27.2123 98.1945 38.9058 102.975 48.4616V48.4636ZM23.4604 34.5667C27.8776 31.3253 31.9063 28.3716 36.2083 25.2165C28.6566 23.7448 21.4317 22.3368 14.2068 20.9288C14.0917 21.0707 13.9786 21.2125 13.8635 21.3523C17.0351 25.718 20.2046 30.0838 23.4604 34.5647V34.5667ZM119.668 8.93117C114.338 10.8427 109.68 13.2003 105.697 16.7604C105.495 16.9392 105.36 17.4284 105.456 17.6668C107.134 21.8188 108.85 25.9524 110.683 30.3901C113.707 23.1693 116.611 16.2301 119.668 8.92912V8.93117ZM36.9771 21.4427C33.7685 17.0666 30.7388 12.9331 27.4891 8.50364C23.1768 11.2518 18.9282 13.9588 14.6775 16.6658C14.7412 16.822 14.8029 16.9803 14.8666 17.1365C22.1203 18.5486 29.376 19.9628 36.975 21.4427H36.9771ZM123.209 10.4337C120.309 17.3667 117.501 24.0819 114.56 31.1115C118.895 29.3253 122.909 27.681 126.909 25.9996C127.119 25.9112 127.335 25.5002 127.318 25.2556C126.944 20.1231 125.468 15.2948 123.209 10.4337Z" fill="#fff"/>
</svg>
