<svg width="91" height="91" viewBox="0 0 91 91" fill="none" xmlns="http://www.w3.org/2000/svg">
<path d="M90.7344 45.3698C90.7344 70.4271 70.4219 90.7344 45.3646 90.7344C20.3073 90.7344 0 70.4271 0 45.3698C0 20.3125 20.3073 0 45.3646 0C70.4219 0 90.7344 20.3125 90.7344 45.3698Z" fill="#A2D5C6"/>
<path d="M87.0729 45.3704C87.0729 68.4017 68.401 87.0736 45.3646 87.0736C22.3281 87.0736 3.65625 68.4017 3.65625 45.3704C3.65625 22.334 22.3281 3.66211 45.3646 3.66211C68.401 3.66211 87.0729 22.334 87.0729 45.3704Z" stroke="white" stroke-width="1.33333" stroke-miterlimit="10"/>
<path d="M29.2088 35.6726C28.99 35.5512 28.8574 35.5039 28.7575 35.4178C25.7291 32.8133 23.4656 29.6251 21.6483 26.0968C21.4286 25.6706 21.4493 25.2728 21.8188 24.956C25.5793 21.7307 29.7049 19.1934 34.6574 18.2567C38.9475 17.4456 42.7433 18.5882 46.1394 21.2383C46.3806 21.4259 46.62 21.6162 46.8491 21.8177C47.2298 22.1509 47.2669 22.5444 46.9568 22.9301C46.6459 23.3175 46.2609 23.3528 45.8449 23.0635C44.8905 22.3997 43.9672 21.6817 42.9664 21.0962C41.4307 20.1973 39.7477 19.7135 37.9605 19.6317C37.8528 19.6265 37.7452 19.6317 37.5436 19.6317C37.6918 19.846 37.7813 19.9838 37.8787 20.1164C39.9897 22.9955 42.0973 25.8772 44.2239 28.7452C44.3755 28.9492 44.6459 29.1386 44.8914 29.1894C47.1153 29.6466 49.3452 30.0719 51.5742 30.5041C51.6251 30.5136 51.6828 30.4929 51.8731 30.4688C50.9421 29.1292 50.0515 27.8471 49.1592 26.5669C49.0498 26.4102 48.9163 26.2707 48.8164 26.1088C48.5786 25.7257 48.6432 25.3675 48.9826 25.0894C49.3392 24.7967 49.7328 24.7795 50.0575 25.1333C50.3658 25.47 50.6604 25.829 50.9076 26.2113C51.8292 27.6353 52.7301 29.074 53.6388 30.5067C53.7301 30.6505 53.7955 30.827 53.9213 30.9312C55.3132 32.0832 56.7145 33.224 58.0599 34.3243C57.9996 33.8749 57.9117 33.3023 57.8463 32.7272C57.4182 28.9793 58.6507 25.897 61.5705 23.5009C63.8237 21.6524 66.4214 20.4978 69.2103 19.7281C69.7452 19.58 70.0966 19.7625 70.3489 20.224C71.7821 22.8483 72.7864 25.6112 72.9759 28.6194C73.1955 32.1081 71.9113 34.9546 69.2241 37.1811C67.3146 38.7627 65.1294 39.8225 62.7979 40.6121C62.6179 40.6732 62.4396 40.7386 62.2613 40.8041C62.2449 40.8101 62.2329 40.829 62.1821 40.8755C62.4008 41.4748 62.6394 42.0895 62.8496 42.7129C67.2095 55.6293 59.2442 69.6237 45.9095 72.4796C33.5687 75.1228 21.4304 67.4446 18.5915 55.185C17.9214 52.2904 17.8138 49.3657 18.3038 46.428C18.4072 45.8072 18.7242 45.5507 19.2607 45.6428C19.7508 45.7272 19.9748 46.0896 19.8938 46.676C18.8344 54.3654 21.1668 60.8727 26.9143 66.0523C31.2415 69.9517 36.4403 71.678 42.2558 71.3293C51.0402 70.8024 58.3501 65.2232 61.2673 56.9328C64.3086 48.2894 61.2363 38.3193 53.8576 32.8848C53.7361 32.7952 53.6069 32.7177 53.482 32.6342C52.731 33.2231 51.998 33.7974 51.2401 34.3923C51.8008 34.8237 52.3666 35.2111 52.8791 35.6606C58.6507 40.7249 60.8927 47.0729 59.0547 54.5074C57.2433 61.8344 52.3313 66.3313 45.0206 68.1772C43.1361 68.6534 41.2024 68.6921 39.268 68.5483C39.1922 68.5423 39.1155 68.5363 39.0406 68.5234C38.5083 68.4304 38.2275 68.0989 38.2835 67.6305C38.3403 67.1484 38.6581 66.94 39.218 66.9237C40.7985 66.8789 42.404 66.9693 43.9526 66.7188C51.2771 65.5358 56.9686 59.5528 57.8954 52.194C58.1408 50.2464 58.0754 48.3135 57.6335 46.3221C56.3286 47.0591 55.0694 47.7634 54.1263 48.9025C53.1926 50.0303 53.3382 51.3545 53.4484 52.677C53.532 53.6775 53.8231 54.7373 53.6035 55.6732C52.9472 58.4748 51.1324 60.3664 48.3926 61.2593C46.856 61.7595 45.515 61.0397 45.0594 59.4925C44.7777 58.5351 44.652 57.5114 44.602 56.5101C44.5038 54.5479 44.5073 52.5797 44.4685 50.6141C44.4685 50.5762 44.4651 50.5375 44.4616 50.4996C44.3272 49.0299 44.1817 48.9266 42.7269 49.0867C41.3824 49.2339 40.0285 49.481 38.6874 49.4371C35.8055 49.3424 33.8237 46.8292 34.2 43.9561C34.4369 42.1446 35.4171 40.7817 36.7392 39.6107C36.8503 39.5117 36.9648 39.4162 37.1715 39.2379C34.6634 38.9538 32.4749 38.0885 30.4387 36.7049C29.3423 37.5444 28.3518 38.4992 27.5689 39.6237C26.8092 40.7154 26.171 41.8915 25.5 43.0426C25.4216 43.1769 25.4001 43.4249 25.4716 43.554C26.0995 44.6871 26.7868 45.7891 27.3923 46.9343C27.8204 47.7427 28.3862 48.2929 29.3035 48.4978C29.7816 48.6046 30.251 48.8 30.6894 49.0239C31.7798 49.5792 32.263 50.5822 31.8918 51.7514C31.5645 52.782 31.083 53.7636 30.6644 54.764C30.5619 55.0103 30.4491 55.2531 30.3216 55.4872C29.7617 56.5161 29.6394 57.4443 30.3156 58.5721C31.1812 60.016 31.4051 61.6941 31.1898 63.3893C31.145 63.7423 31.2242 63.9619 31.5429 64.1298C32.5205 64.6446 33.4826 65.1888 34.4636 65.6976C35.0303 65.9912 35.231 66.3391 35.0398 66.8203C34.8521 67.293 34.4162 67.4454 33.8426 67.1863C27.4268 64.2925 23.5251 59.4021 22.5914 52.4161C21.718 45.8787 23.9307 40.3667 28.8229 35.9369C28.8927 35.8741 28.9805 35.8302 29.2122 35.6761L29.2088 35.6726ZM57.1555 44.6776C56.2744 41.356 53.0324 37.2129 49.992 35.5753C49.8215 35.4832 49.4821 35.5529 49.2935 35.6666C46.4943 37.361 43.5538 38.6766 40.2765 39.1234C40.1516 39.1406 40.0225 39.2018 39.9165 39.2741C39.4282 39.6073 38.9407 39.9422 38.4669 40.2944C37.3481 41.1278 36.3774 42.0852 35.9459 43.4645C35.219 45.7891 36.7504 47.8805 39.1715 47.8684C39.5151 47.8667 39.8605 47.8564 40.2007 47.8125C41.298 47.6695 42.3902 47.481 43.4901 47.363C44.5357 47.2502 45.2049 47.6592 45.6295 48.6175C45.7742 48.9455 45.9258 49.3002 45.9448 49.6498C46.0464 51.5138 46.0955 53.3813 46.1868 55.2462C46.2402 56.3301 46.2764 57.4219 46.4349 58.4929C46.6174 59.7267 47.3048 60.0711 48.4512 59.558C50.135 58.8037 51.3021 57.5347 51.936 55.8067C52.0755 55.427 52.1134 54.9844 52.0928 54.5763C52.0617 53.9883 51.9386 53.4054 51.8464 52.8208C51.4356 50.2034 52.1057 48.0113 54.3761 46.4676C55.2744 45.8572 56.2012 45.2898 57.1572 44.6768L57.1555 44.6776ZM51.4821 32.1787C51.3167 32.1193 51.247 32.084 51.1737 32.0703C48.9464 31.6329 46.7208 31.1869 44.4883 30.7771C44.2687 30.7366 43.9689 30.8632 43.7743 31.0052C41.0707 32.9683 38.3791 34.9477 35.6858 36.9236C35.5678 37.0106 35.461 37.1122 35.3327 37.2198C36.3766 37.6029 38.3369 37.7493 39.671 37.5831C44.1421 37.0252 47.875 34.8693 51.4829 32.1787H51.4821ZM29.6033 62.5438C29.6765 61.3015 29.3251 59.9006 28.5551 58.6341C28.0917 57.8722 27.99 57.0921 28.2924 56.2828C28.6179 55.4106 29.0167 54.5651 29.3811 53.7076C29.686 52.9895 30.0184 52.2809 30.2803 51.5474C30.5214 50.8707 30.3914 50.6296 29.7247 50.3437C29.3406 50.1793 28.9452 50.0243 28.5404 49.9253C27.4664 49.6644 26.711 49.0264 26.2028 48.0639C25.9892 47.6592 25.7567 47.2649 25.5371 46.8636C25.2649 46.3677 24.997 45.8692 24.6964 45.3147C22.9153 51.0084 24.7119 58.35 29.6033 62.5438ZM29.0917 33.5512C30.2932 34.6894 31.5817 35.6235 33.0097 36.3717C33.3284 36.5388 33.542 36.5017 33.8237 36.2942C36.399 34.3906 38.9863 32.5033 41.5694 30.61C41.6805 30.5282 41.7795 30.4292 41.9587 30.2717C40.3308 29.9566 38.7693 29.7663 37.2792 29.3332C35.8727 28.9251 34.8133 29.1946 33.7048 30.1331C32.2561 31.3591 30.6549 32.406 29.0917 33.5512ZM31.1424 20.9765C31.1932 21.0729 31.2191 21.1427 31.2613 21.2004C32.7246 23.2004 34.1854 25.2022 35.6643 27.1911C35.784 27.3521 36.0243 27.4692 36.2284 27.5122C37.4213 27.7636 38.6194 27.9883 39.8175 28.2182C40.5453 28.3577 41.2739 28.4886 42.1275 28.647C41.9457 28.3904 41.8605 28.2664 41.7718 28.1459C39.7761 25.4252 37.7822 22.7028 35.7754 19.9907C35.6841 19.8676 35.4567 19.7539 35.3137 19.7754C33.8822 19.9907 32.4972 20.3747 31.1433 20.9765H31.1424ZM62.6902 38.9504C65.3344 37.9559 67.6505 36.7514 69.4385 34.7152C70.4549 33.558 71.0931 32.2227 71.2774 30.6755C71.2051 30.6694 71.1646 30.6539 71.1362 30.666C69.2146 31.4555 67.293 32.245 65.3758 33.0449C65.2483 33.0983 65.1036 33.2111 65.0519 33.3325C64.2776 35.1517 63.5171 36.9779 62.6911 38.9512L62.6902 38.9504ZM61.1502 38.3003C61.1898 38.2573 61.2432 38.222 61.2639 38.1729C61.9788 36.4707 62.698 34.7712 63.3896 33.0595C63.4611 32.8822 63.4068 32.6161 63.3284 32.4241C62.592 30.6075 61.8384 28.7985 61.0873 26.9879C61.0348 26.8613 60.9659 26.7408 60.8953 26.5979C58.5715 29.3986 59.1468 34.2968 61.1502 38.2995V38.3003ZM27.8307 32.4792C29.6816 31.1215 31.3698 29.8842 33.1725 28.5626C30.0081 27.9462 26.9806 27.3564 23.9531 26.7666C23.9049 26.826 23.8575 26.8854 23.8093 26.944C25.1383 28.7727 26.4664 30.6014 27.8307 32.4784V32.4792ZM68.1449 21.7411C65.9115 22.5418 63.9598 23.5293 62.2906 25.0205C62.2062 25.0955 62.1493 25.3004 62.1898 25.4002C62.8926 27.1394 63.6118 28.8709 64.3801 30.7297C65.6471 27.7051 66.8641 24.7984 68.1449 21.7402V21.7411ZM33.4946 26.9819C32.1501 25.1488 30.8806 23.4174 29.5189 21.562C27.7118 22.7131 25.9315 23.847 24.1504 24.9809C24.1771 25.0464 24.2029 25.1127 24.2296 25.1781C27.2691 25.7696 30.3095 26.362 33.4938 26.9819H33.4946ZM69.6289 22.3704C68.4136 25.2745 67.237 28.0874 66.0045 31.0319C67.821 30.2837 69.5031 29.5949 71.1792 28.8907C71.2671 28.8536 71.3575 28.6814 71.3506 28.579C71.1939 26.4291 70.5755 24.4067 69.6289 22.3704Z" fill="white"/>
</svg>
