<svg width="145" height="191" viewBox="0 0 163 163" fill="none" xmlns="http://www.w3.org/2000/svg">
<path d="M87.968 0C89.0302 0.251072 90.1053 0.482831 91.1611 0.766093C98.146 2.63948 103.373 6.74676 106.908 13.0622C107.255 13.6802 107.912 14.2403 108.556 14.5558C111.755 16.1073 113.474 18.5987 113.603 22.1523C113.661 23.7875 113.648 25.4227 113.603 27.0579C113.519 30.7403 111.794 33.3347 108.427 34.8733C107.899 35.1115 107.32 35.5364 107.062 36.0257C104.146 41.5171 99.807 45.3926 94.0516 47.7102C93.8714 47.781 93.6975 47.8582 93.3499 48.0063C94.7469 49.1007 95.9701 50.1823 97.3156 51.0707C98.8671 52.0943 100.592 52.1136 102.318 51.4376C103.644 50.9162 104.951 50.3625 106.29 49.8861C111.105 48.1673 116.281 50.3368 118.361 54.914C120.479 59.5685 118.689 64.9634 114.092 67.3904C110.23 69.4312 106.296 71.3496 102.363 73.2616C101.436 73.7123 101.075 74.1693 101.21 75.2831C102.337 84.5728 105.131 93.386 108.698 101.98C110.938 107.375 113.281 112.738 115.753 118.036C117.466 121.706 118.367 125.279 115.824 129.173C116.661 129.173 117.215 129.173 117.775 129.173C124.946 129.173 132.124 129.173 139.296 129.173C151.464 129.173 160.605 136.867 162.742 148.879C162.775 149.073 162.91 149.246 163 149.433V156.714C161.59 160.789 158.667 162.148 154.457 162.141C105.82 162.064 57.1826 162.096 8.5454 162.09C4.41237 162.09 1.38662 159.959 1.02611 156.354C-0.0168078 146.002 3.7879 136.712 13.7085 131.575C17.0497 129.849 20.6355 129.154 24.3951 129.154C49.3994 129.167 74.4036 129.161 99.4078 129.161H100.953C94.3027 122.156 87.8907 115.397 81.7942 108.978C79.4122 111.141 77.1461 113.266 74.8092 115.313C72.2727 117.534 69.7362 119.762 67.0968 121.854C65.0109 123.502 62.5517 124.158 59.8543 124.113C54.8972 124.036 49.9401 124.107 44.9766 124.088C39.4273 124.068 35.1977 120.128 35.0883 114.901C34.9788 109.455 38.8737 105.457 44.5131 105.077C47.6161 104.871 50.7127 104.536 53.7964 104.131C56.2878 103.802 58.129 102.315 58.5217 99.8753C59.1075 96.2573 59.3071 92.5684 59.5775 88.9054C59.8672 85.017 58.9144 81.5856 56.6097 78.2573C54.8586 75.7273 53.6225 72.6307 52.9466 69.6114C51.7427 64.223 54.1698 59.723 57.659 55.796C61.5152 51.457 66.4337 48.7982 71.9444 47.1501C72.4337 47.002 72.9165 46.854 73.6053 46.648C73.1225 46.3196 72.807 46.0814 72.4658 45.8754C66.9487 42.5214 63.3307 37.7124 61.4058 31.5707C61.2191 30.9785 60.5753 30.5278 60.1247 30.0257C60.0217 29.9162 59.8479 29.8776 59.7191 29.7875C57.0474 28.0042 58.0517 25.2553 57.9358 22.8283C57.8586 21.206 58.7727 20.0858 60.1955 19.3068C60.6783 19.0429 61.2062 18.5472 61.3672 18.045C64.5989 8.02788 71.3392 2.06008 81.7362 0.263948C81.9293 0.231759 82.0967 0.0901285 82.2834 0C84.1825 0 86.0817 0 87.9808 0L87.968 0ZM100.599 69.9333C104.713 67.8603 108.755 65.9419 112.676 63.8046C115.258 62.3947 116.114 59.1629 114.897 56.4913C113.687 53.8325 110.713 52.4741 107.906 53.3561C106.805 53.7037 105.723 54.1351 104.661 54.5986C100.457 56.4591 96.6718 55.8797 93.2598 52.7703C91.0838 50.7939 88.483 49.6415 85.5602 49.4355C80.7834 49.1007 76.0839 49.6158 71.5388 51.2059C66.0603 53.1179 61.4122 56.163 58.3479 61.2295C56.8994 63.6179 55.9466 66.2123 56.6418 69.0578C57.7363 73.5513 60.0088 77.4783 63.0732 80.871C64.0581 81.959 65.674 82.7251 67.1418 83.0856C70.38 83.8839 73.2963 80.9032 72.6075 77.6393C72.3757 76.532 71.8156 75.4762 71.3006 74.4526C70.5667 72.9977 69.5817 71.6457 69.0345 70.1329C68.8156 69.5342 69.292 68.2402 69.8264 67.944C70.3736 67.6415 71.8221 67.9118 72.1118 68.3882C73.586 70.8024 75.1697 73.2552 76.0517 75.9075C77.8221 81.238 74.41 86.3367 68.8285 86.8968C67.0646 87.077 65.2298 86.5169 63.3822 86.2916C63.3822 86.6586 63.4144 87.2251 63.3822 87.7916C63.1504 91.68 63.1633 95.6006 62.5968 99.4375C61.8886 104.208 58.6569 107.35 54.408 107.897C51.1698 108.315 47.9123 108.631 44.6548 108.875C41.2299 109.139 38.8286 111.54 38.9252 114.779C39.0217 117.933 41.5067 120.27 44.8672 120.289C50.0882 120.315 55.3157 120.354 60.5303 120.251C61.6826 120.231 63.0023 119.91 63.9423 119.279C66.2084 117.753 68.4938 116.163 70.4122 114.244C74.8478 109.809 79.0774 105.167 83.3778 100.596C84.2598 99.6564 85.2383 99.2701 86.2748 100.171C87.3113 101.073 87.0989 102.122 86.2491 103.088C85.4959 103.944 84.7491 104.8 83.9315 105.734C91.0259 113.182 97.9851 120.528 105.009 127.815C106.245 129.096 107.931 129.437 109.708 128.961C113.088 128.06 114.517 124.751 113.011 121.287C110.198 114.817 107.223 108.412 104.59 101.865C100.509 91.7058 97.7083 81.1865 96.6396 70.2488C96.5237 69.0835 96.6975 68.1179 97.9336 67.7058C99.1568 67.2938 99.9679 67.9505 100.599 69.9397V69.9333ZM5.54541 146.819H158.391C158.152 146.111 157.991 145.519 157.76 144.946C154.83 137.729 147.968 132.985 140.12 132.978C101.346 132.946 62.571 132.952 23.79 132.978C19.0132 132.978 14.8029 134.646 11.2235 137.787C8.48103 140.195 6.5497 143.15 5.54541 146.819ZM4.71494 150.74C4.71494 151.918 4.71494 152.961 4.71494 153.997C4.71494 157.448 5.55185 158.285 9.00248 158.285C57.6268 158.285 106.258 158.285 154.882 158.285C155.41 158.285 155.944 158.317 156.466 158.259C157.882 158.098 158.931 157.3 159.092 155.922C159.285 154.229 159.137 152.497 159.137 150.74H4.7085H4.71494ZM93.8263 31.6544C97.6181 31.6544 101.416 31.6866 105.208 31.6416C107.951 31.6094 109.734 29.8004 109.805 27.0643C109.843 25.4291 109.856 23.7939 109.805 22.1652C109.715 19.603 107.938 17.7682 105.376 17.7553C97.7855 17.7103 90.1954 17.7103 82.6053 17.7553C80.0366 17.7682 78.2663 19.603 78.1761 22.1652C78.1246 23.6909 78.1504 25.2231 78.1633 26.7489C78.1954 29.8776 79.9465 31.6351 83.0753 31.6544C86.6611 31.6737 90.2405 31.6544 93.8263 31.6544ZM102.878 13.9313C99.0409 6.54719 89.307 2.37553 80.7577 4.26823C73.0839 5.9678 65.5646 13.1137 65.3392 18.9978C68.2877 18.9978 71.2362 19.0236 74.1847 18.9721C74.5646 18.9656 75.0989 18.6695 75.2791 18.354C77.1718 15.0708 80.0624 13.8669 83.7448 13.9184C90.0602 14.0021 96.3757 13.9377 102.871 13.9377L102.878 13.9313ZM102.788 35.4591C102.215 35.4591 101.713 35.4591 101.21 35.4591C95.1525 35.4591 89.0946 35.4591 83.0366 35.4591C79.7083 35.4591 77.1654 34.0879 75.395 31.2488C75.1633 30.8755 74.6547 30.4377 74.2684 30.4313C71.2684 30.3604 68.2749 30.3926 65.262 30.3926C66.1762 37.4484 74.0367 44.1887 82.7083 45.4377C90.44 46.5514 99.955 41.8776 102.788 35.4591ZM74.2684 26.5107V22.8926H61.8114V26.5879C65.8221 26.5879 69.7105 26.5879 73.6053 26.5879C73.8049 26.5879 74.0045 26.5429 74.2684 26.5107Z" fill="#242424"/>
<path d="M15.4743 0C15.867 0.128755 16.2533 0.270386 16.6524 0.37339C22.7876 1.96351 26.927 7.90556 26.1738 14.0601C25.382 20.5236 20 25.3261 13.5751 25.3197C7.13096 25.3132 1.77475 20.5236 0.976464 14.0601C0.216809 7.89912 4.35628 1.95708 10.4915 0.366952C10.8906 0.263948 11.2833 0.122317 11.676 0C12.9442 0 14.206 0 15.4743 0ZM22.4335 12.7661C22.4914 7.89268 18.5322 3.83046 13.6846 3.79827C8.77258 3.76609 4.78761 7.65449 4.71036 12.5536C4.63955 17.4141 8.6052 21.4828 13.4593 21.5214C18.3455 21.5665 22.3691 17.633 22.4335 12.7661Z" fill="#242424"/>
<path d="M40.1616 81.0839C40.1616 82.983 40.2002 84.8757 40.1552 86.7748C40.0715 89.9679 37.7152 92.3757 34.535 92.4272C30.6917 92.4916 26.8483 92.4916 22.9985 92.4272C19.8183 92.3757 17.4299 89.9615 17.3848 86.7748C17.3333 82.9315 17.3269 79.0817 17.3848 75.2384C17.4363 72.1289 19.8183 69.7277 22.9149 69.6762C26.8097 69.6053 30.711 69.6053 34.6058 69.6762C37.7024 69.7341 40.0457 72.1354 40.1423 75.2448C40.2002 77.189 40.1552 79.1397 40.1552 81.0903L40.1616 81.0839ZM36.3698 81.2062C36.3698 79.4165 36.3891 77.6203 36.3698 75.8306C36.3504 74.1633 35.7195 73.4744 34.1165 73.4616C30.5307 73.4358 26.9449 73.4487 23.3591 73.4616C21.9556 73.4616 21.1895 74.1761 21.1831 75.5989C21.1702 79.2362 21.1702 82.8736 21.1831 86.5109C21.1831 87.9272 21.9492 88.6418 23.3526 88.6482C26.9384 88.6611 30.5243 88.674 34.1101 88.6482C35.7131 88.6353 36.344 87.9465 36.3633 86.2791C36.3891 84.5924 36.3633 82.9057 36.3633 81.219L36.3698 81.2062Z" fill="#242424"/>
<path d="M149.719 24.6887C147.35 24.6887 144.974 24.7273 142.605 24.6823C137.951 24.5986 135.311 20.1823 137.526 16.1008C139.837 11.8454 142.225 7.62868 144.665 3.45058C147.06 -0.643836 152.32 -0.669587 154.708 3.41195C157.155 7.59005 159.53 11.8132 161.841 16.0621C164.107 20.2338 161.442 24.6243 156.672 24.6823C154.354 24.708 152.037 24.6823 149.719 24.6823V24.6887ZM149.7 20.8904C151.966 20.8904 154.238 20.9162 156.504 20.884C158.667 20.8518 159.44 19.5256 158.378 17.6201C156.15 13.6158 153.897 9.62438 151.618 5.64585C150.504 3.70165 148.901 3.70165 147.788 5.64585C145.509 9.62438 143.255 13.6158 141.028 17.6201C139.972 19.5256 140.745 20.8583 142.895 20.884C145.161 20.9162 147.434 20.8904 149.7 20.8904Z" fill="#242424"/>
<path d="M138.604 81.1348C140.123 81.9717 141.604 82.4738 142.672 83.433C145.138 85.6476 147.43 88.0618 149.747 90.4438C152.194 92.9609 152.207 96.2184 149.754 98.7613C147.449 101.15 145.106 103.506 142.711 105.804C140.168 108.244 136.904 108.212 134.393 105.759C132.018 103.442 129.662 101.098 127.35 98.7163C124.975 96.2635 124.969 92.9609 127.35 90.5146C129.7 88.094 132.031 85.6476 134.535 83.3944C135.604 82.4352 137.097 81.9524 138.604 81.1348ZM129.192 94.6154C129.584 95.2141 129.868 95.8386 130.318 96.2957C132.488 98.5167 134.683 100.712 136.898 102.888C138.102 104.072 139.003 104.111 140.168 102.978C142.466 100.738 144.739 98.4652 146.979 96.1669C148.08 95.0403 148.061 94.1519 146.947 93.0189C144.7 90.727 142.434 88.4545 140.136 86.2077C139.029 85.1197 138.108 85.1326 136.988 86.2335C134.696 88.4802 132.43 90.7528 130.183 93.0446C129.803 93.4309 129.584 93.9781 129.192 94.6154Z" fill="#242424"/>
</svg>
