<svg width="149" height="149" viewBox="0 0 149 149" fill="none" xmlns="http://www.w3.org/2000/svg">
<path d="M80.4466 0.859375C81.4171 1.08877 82.3994 1.30052 83.3641 1.55932C89.7459 3.27095 94.522 7.0236 97.7512 12.7937C98.0688 13.3584 98.6687 13.8701 99.2569 14.1583C102.18 15.5759 103.751 17.8522 103.868 21.099C103.921 22.593 103.909 24.087 103.868 25.581C103.792 28.9454 102.216 31.3158 99.1393 32.7216C98.657 32.9392 98.1276 33.3274 97.8923 33.7744C95.2278 38.7917 91.2634 42.3326 86.005 44.4501C85.8403 44.5148 85.6815 44.5853 85.3639 44.7206C86.6403 45.7205 87.7578 46.7087 88.9871 47.5204C90.4047 48.4556 91.981 48.4733 93.5574 47.8557C94.769 47.3792 95.9631 46.8734 97.1865 46.4381C101.586 44.8677 106.315 46.8499 108.215 51.0319C110.15 55.2845 108.515 60.2135 104.315 62.431C100.786 64.2956 97.1924 66.0484 93.5985 67.7953C92.7515 68.207 92.4222 68.6246 92.5457 69.6422C93.575 78.1298 96.1278 86.1821 99.3863 94.0344C101.433 98.9634 103.574 103.863 105.833 108.704C107.397 112.056 108.221 115.321 105.898 118.879C106.662 118.879 107.168 118.879 107.68 118.879C114.232 118.879 120.791 118.879 127.343 118.879C138.46 118.879 146.812 125.908 148.765 136.884C148.794 137.06 148.918 137.219 149 137.39V144.042C147.712 147.765 145.042 149.007 141.195 149.001C96.7571 148.93 52.3194 148.959 7.88176 148.954C4.10559 148.954 1.3411 147.007 1.01171 143.713C0.0588455 134.255 3.53504 125.767 12.599 121.073C15.6517 119.497 18.9279 118.862 22.363 118.862C45.2082 118.874 68.0535 118.868 90.8988 118.868H92.3104C86.2344 112.468 80.376 106.292 74.8059 100.428C72.6296 102.404 70.5592 104.345 68.424 106.216C66.1066 108.245 63.7891 110.28 61.3775 112.192C59.4718 113.698 57.2249 114.297 54.7604 114.256C50.2314 114.186 45.7023 114.25 41.1674 114.233C36.0972 114.215 32.2328 110.615 32.1328 105.839C32.0328 100.863 35.5913 97.2106 40.7439 96.8636C43.5789 96.6754 46.4081 96.3695 49.2256 95.9989C51.5019 95.699 53.1841 94.3402 53.5429 92.111C54.0781 88.8054 54.2605 85.4351 54.5075 82.0883C54.7722 78.5356 53.9017 75.4006 51.7959 72.3596C50.1961 70.048 49.0667 67.2188 48.4491 64.4602C47.3492 59.5371 49.5667 55.4257 52.7547 51.8377C56.2779 47.8733 60.7717 45.4441 65.8066 43.9383C66.2536 43.803 66.6948 43.6678 67.3241 43.4795C66.883 43.1796 66.5948 42.9619 66.283 42.7737C61.2423 39.7093 57.9366 35.3155 56.178 29.7042C56.0074 29.163 55.4192 28.7513 55.0075 28.2925C54.9133 28.1925 54.7545 28.1572 54.6369 28.0749C52.1959 26.4456 53.1135 23.934 53.0076 21.7166C52.937 20.2343 53.7723 19.2109 55.0722 18.4992C55.5133 18.258 55.9956 17.8051 56.1427 17.3463C59.0954 8.19409 65.2537 2.74158 74.753 1.10053C74.9294 1.07112 75.0823 0.941721 75.2529 0.859375C76.9881 0.859375 78.7232 0.859375 80.4584 0.859375L80.4466 0.859375ZM91.9869 64.7543C95.7454 62.8604 99.4393 61.1076 103.021 59.1548C105.38 57.8666 106.162 54.9139 105.051 52.473C103.945 50.0437 101.227 48.8027 98.6628 49.6085C97.657 49.9261 96.6689 50.3202 95.6984 50.7437C91.8575 52.4435 88.3989 51.9142 85.2815 49.0732C83.2935 47.2675 80.9172 46.2146 78.2468 46.0264C73.8824 45.7205 69.5887 46.1911 65.4361 47.6439C60.4306 49.3908 56.1838 52.173 53.3841 56.802C52.0606 58.9842 51.1901 61.3546 51.8254 63.9544C52.8253 68.06 54.9016 71.6479 57.7014 74.7477C58.6013 75.7417 60.0776 76.4417 61.4187 76.771C64.3773 77.5004 67.0418 74.7771 66.4124 71.795C66.2007 70.7833 65.689 69.8186 65.2184 68.8834C64.5479 67.5541 63.648 66.3189 63.148 64.9367C62.948 64.3897 63.3833 63.2074 63.8715 62.9368C64.3714 62.6604 65.6948 62.9074 65.9595 63.3427C67.3065 65.5484 68.7534 67.7894 69.5592 70.2127C71.1768 75.0829 68.0594 79.7414 62.9598 80.2531C61.3481 80.4178 59.6718 79.9061 57.9837 79.7002C57.9837 80.0355 58.0131 80.5531 57.9837 81.0707C57.7719 84.6234 57.7837 88.2054 57.2661 91.711C56.6191 96.0695 53.6664 98.9399 49.7843 99.4398C46.8257 99.8222 43.8495 100.11 40.8733 100.334C37.7441 100.575 35.5502 102.769 35.6384 105.728C35.7266 108.61 37.997 110.745 41.0674 110.762C45.8376 110.786 50.6137 110.821 55.378 110.727C56.4309 110.71 57.6367 110.415 58.4954 109.839C60.5658 108.445 62.6539 106.992 64.4067 105.239C68.4593 101.187 72.3237 96.9459 76.2528 92.7698C77.0587 91.911 77.9527 91.5581 78.8997 92.3816C79.8467 93.205 79.6526 94.1638 78.8762 95.0461C78.188 95.8284 77.5057 96.6107 76.7587 97.4635C83.2405 104.269 89.5988 110.98 96.016 117.638C97.1453 118.809 98.6864 119.121 100.31 118.685C103.398 117.862 104.704 114.839 103.327 111.674C100.757 105.763 98.0394 99.9104 95.6337 93.9285C91.9045 84.6469 89.3459 75.0359 88.3695 65.0426C88.2637 63.9779 88.4225 63.0956 89.5518 62.7192C90.6694 62.3428 91.4105 62.9427 91.9869 64.7602V64.7543ZM5.1408 135.002H144.789C144.571 134.355 144.424 133.814 144.212 133.29C141.536 126.697 135.266 122.362 128.096 122.356C92.6692 122.326 57.2426 122.332 21.8101 122.356C17.4457 122.356 13.599 123.879 10.3286 126.749C7.82294 128.949 6.05837 131.649 5.1408 135.002ZM4.38203 138.584C4.38203 139.66 4.38203 140.613 4.38203 141.56C4.38203 144.713 5.14668 145.477 8.29937 145.477C52.7253 145.477 97.1571 145.477 141.583 145.477C142.065 145.477 142.553 145.507 143.03 145.454C144.324 145.307 145.283 144.577 145.43 143.319C145.606 141.772 145.471 140.19 145.471 138.584H4.37615H4.38203ZM85.7991 29.7806C89.2636 29.7806 92.7339 29.81 96.1983 29.7689C98.704 29.7395 100.333 28.0866 100.398 25.5868C100.433 24.0928 100.445 22.5988 100.398 21.1107C100.316 18.7697 98.6923 17.0934 96.3513 17.0816C89.4165 17.0405 82.4818 17.0405 75.547 17.0816C73.2001 17.0934 71.5826 18.7697 71.5003 21.1107C71.4532 22.5047 71.4767 23.9046 71.4885 25.2986C71.5179 28.1572 73.1178 29.763 75.9764 29.7806C79.2526 29.7983 82.5229 29.7806 85.7991 29.7806ZM94.0691 13.5878C90.5635 6.84126 81.6701 3.02979 73.8589 4.75907C66.8477 6.31189 59.9776 12.8408 59.7718 18.2168C62.4657 18.2168 65.1596 18.2404 67.8535 18.1933C68.2005 18.1874 68.6887 17.9169 68.8534 17.6286C70.5827 14.6289 73.2237 13.529 76.5881 13.576C82.3582 13.6525 88.1284 13.5937 94.0632 13.5937L94.0691 13.5878ZM93.9867 33.2568C93.4632 33.2568 93.0045 33.2568 92.5457 33.2568C87.0108 33.2568 81.476 33.2568 75.9411 33.2568C72.9002 33.2568 70.5768 32.004 68.9593 29.4101C68.7476 29.0689 68.2829 28.6689 67.93 28.6631C65.189 28.5984 62.4539 28.6278 59.7012 28.6278C60.5364 35.0743 67.7182 41.2327 75.6411 42.3738C82.7053 43.3913 91.3987 39.1211 93.9867 33.2568ZM67.93 25.081V21.7754H56.5485V25.1516C60.2129 25.1516 63.7656 25.1516 67.3241 25.1516C67.5065 25.1516 67.6888 25.1104 67.93 25.081Z" fill="#fff"/>
<path d="M14.2108 0.859375C14.5696 0.977013 14.9225 1.10641 15.2872 1.20052C20.8927 2.65335 24.6747 8.08233 23.9865 13.7054C23.2631 19.6108 18.3458 23.9987 12.4757 23.9928C6.5879 23.987 1.69416 19.6108 0.964809 13.7054C0.270746 8.07645 4.0528 2.64747 9.65824 1.19464C10.0229 1.10053 10.3817 0.971131 10.7405 0.859375C11.8992 0.859375 13.0521 0.859375 14.2108 0.859375ZM20.5691 12.5232C20.6221 8.07057 17.0047 4.3591 12.5757 4.32969C8.08778 4.30028 4.44689 7.85294 4.3763 12.3291C4.3116 16.7699 7.93485 20.4872 12.3698 20.5225C16.8341 20.5637 20.5103 16.9699 20.5691 12.5232Z" fill="#fff"/>
<path d="M36.7695 74.9419C36.7695 76.6771 36.8048 78.4064 36.7636 80.1415C36.6872 83.0589 34.5344 85.2588 31.6288 85.3058C28.1173 85.3646 24.6058 85.3646 21.0884 85.3058C18.1828 85.2588 16.0006 83.0531 15.9594 80.1415C15.9123 76.63 15.9065 73.1127 15.9594 69.6012C16.0065 66.7602 18.1828 64.5663 21.0119 64.5192C24.5705 64.4545 28.1349 64.4545 31.6935 64.5192C34.5226 64.5722 36.6637 66.7661 36.7519 69.6071C36.8048 71.3834 36.7636 73.1656 36.7636 74.9478L36.7695 74.9419ZM33.3051 75.0537C33.3051 73.4185 33.3227 71.7775 33.3051 70.1423C33.2874 68.6189 32.711 67.9895 31.2464 67.9778C27.9702 67.9543 24.694 67.966 21.4178 67.9778C20.1355 67.9778 19.4356 68.6307 19.4297 69.9306C19.418 73.2538 19.418 76.5771 19.4297 79.9004C19.4297 81.1944 20.1297 81.8473 21.4119 81.8532C24.6881 81.8649 27.9643 81.8767 31.2406 81.8532C32.7051 81.8414 33.2816 81.212 33.2992 79.6886C33.3227 78.1476 33.2992 76.6065 33.2992 75.0655L33.3051 75.0537Z" fill="#fff"/>
<path d="M136.867 23.4167C134.702 23.4167 132.532 23.4519 130.368 23.4108C126.115 23.3343 123.703 19.2993 125.727 15.5702C127.838 11.6823 130.02 7.82964 132.25 4.0123C134.438 0.271417 139.243 0.247889 141.425 3.97701C143.661 7.79435 145.831 11.6529 147.943 15.5349C150.013 19.3464 147.578 23.3578 143.219 23.4108C141.102 23.4343 138.984 23.4108 136.867 23.4108V23.4167ZM136.849 19.9463C138.92 19.9463 140.996 19.9699 143.067 19.9405C145.043 19.911 145.749 18.6994 144.778 16.9583C142.743 13.2998 140.684 9.65303 138.602 6.01802C137.585 4.24169 136.12 4.24169 135.102 6.01802C133.02 9.65303 130.962 13.2998 128.926 16.9583C127.962 18.6994 128.668 19.9169 130.632 19.9405C132.703 19.9699 134.779 19.9463 136.849 19.9463Z" fill="#fff"/>
<path d="M126.708 74.9883C128.097 75.7529 129.449 76.2117 130.426 77.0881C132.679 79.1115 134.773 81.3172 136.89 83.4935C139.125 85.7933 139.137 88.7696 136.896 91.0929C134.79 93.2751 132.649 95.4279 130.461 97.5277C128.138 99.7569 125.156 99.7275 122.862 97.4865C120.691 95.369 118.538 93.228 116.427 91.0517C114.256 88.8107 114.251 85.7933 116.427 83.5582C118.574 81.3466 120.703 79.1115 122.991 77.0528C123.967 76.1764 125.332 75.7353 126.708 74.9883ZM118.109 87.305C118.468 87.852 118.727 88.4225 119.138 88.8401C121.121 90.8694 123.126 92.8751 125.15 94.8632C126.25 95.9455 127.073 95.9807 128.138 94.9455C130.238 92.8986 132.314 90.8223 134.361 88.7225C135.367 87.6932 135.349 86.8815 134.331 85.8463C132.279 83.7523 130.208 81.676 128.108 79.6232C127.097 78.6292 126.256 78.6409 125.232 79.6467C123.138 81.6995 121.068 83.7758 119.015 85.8698C118.668 86.2227 118.468 86.7227 118.109 87.305Z" fill="#fff"/>
</svg>
