<svg width="134" height="145" viewBox="0 0 134 145" fill="none" xmlns="http://www.w3.org/2000/svg">
<path d="M69.1394 0C70.6039 0.318593 72.0889 0.54983 73.5226 0.971194C83.4247 3.8745 89.7503 10.6266 93.707 19.8761C96.0913 25.4463 96.9341 31.3403 97.3965 37.3267C98.229 48.0715 98.7223 58.8523 100.783 69.4635C101.302 72.1407 101.908 74.8025 102.587 77.4386C102.741 78.0295 103.265 78.677 103.794 78.9956C109.4 82.4025 112.077 87.3458 112.042 93.9078C111.98 106.765 112.042 119.621 112.011 132.478C111.99 139.621 106.502 145.032 99.637 144.615C98.1262 144.523 96.5538 144.102 95.1664 143.475C87.1913 139.888 79.2367 136.245 71.3439 132.488C69.6019 131.661 68.1168 130.299 66.4057 129.107C63.3893 132.776 58.559 133.907 54.2991 135.998C49.0218 138.588 43.652 140.977 38.2976 143.403C31.53 146.47 24.0328 143.403 21.8438 136.64C21.4019 135.279 21.2117 133.778 21.2066 132.339C21.1603 119.483 21.2169 106.626 21.1603 93.7691C21.1346 87.2533 23.853 82.3819 29.3924 78.9905C29.9782 78.6308 30.4869 77.8497 30.6667 77.1663C33.1538 67.8037 34.161 58.2203 34.9729 48.5957C35.5844 41.3349 36.0725 34.0278 37.3058 26.8594C38.6521 19.0385 42.3365 12.2042 48.4206 6.88058C52.6034 3.22704 57.4388 0.960917 62.9679 0.241514C63.2403 0.205544 63.5024 0.0822175 63.7644 0C65.5527 0 67.346 0 69.1343 0H69.1394ZM66.6009 79.8897C64.5455 82.4179 62.6237 84.7919 60.6864 87.1506C59.1448 89.0261 57.9321 89.0673 56.2672 87.2944C53.2663 84.1034 50.291 80.8917 47.2695 77.7212C46.9509 77.3872 46.2675 77.0121 45.9335 77.1354C41.3756 78.8877 36.7508 80.5064 32.3471 82.5978C27.7172 84.7971 25.6001 88.7538 25.6772 93.9438C25.7645 99.8737 25.6977 105.809 25.7029 111.744C25.7029 112.201 25.744 112.664 25.7748 113.178H41.2882C41.2882 111.764 41.2882 110.454 41.2882 109.139C41.2882 106.595 41.2522 104.051 41.3242 101.513C41.3602 100.156 42.3519 99.2365 43.5492 99.2365C44.7619 99.2365 45.6663 100.141 45.7896 101.503C45.8256 101.924 45.8153 102.351 45.8153 102.772C45.8153 107.623 45.8153 112.474 45.8153 117.324C45.8153 117.823 45.8616 118.316 45.8873 118.943C48.4154 118.27 50.7432 117.545 53.1224 117.047C54.479 116.764 55.4399 116.101 55.7893 114.863C56.555 112.16 57.2384 109.431 57.7985 106.682C58.2815 104.293 58.3227 101.796 58.9598 99.4575C59.8899 96.0352 62.6442 94.7557 65.9997 95.8142C66.3234 95.917 66.7397 95.9787 67.048 95.8656C71.2976 94.3138 73.908 97.1246 74.4887 100.254C74.8843 102.376 74.9871 104.555 75.3828 106.677C75.8555 109.211 76.4054 111.739 77.1094 114.216C77.3611 115.105 77.9932 116.302 78.7332 116.559C81.4977 117.52 84.3805 118.152 87.3814 118.948V117.186C87.3814 112.381 87.3814 107.582 87.3814 102.777C87.3814 102.402 87.3711 102.022 87.3917 101.647C87.4842 100.187 88.3783 99.2365 89.6372 99.2365C90.8808 99.2365 91.8571 100.197 91.8828 101.652C91.9342 104.992 91.9034 108.337 91.9136 111.682C91.9136 112.181 91.965 112.674 91.9959 113.198H107.407C107.437 112.761 107.489 112.396 107.489 112.032C107.489 106.05 107.417 100.069 107.514 94.0928C107.602 88.7949 105.474 84.7765 100.716 82.5412C96.3482 80.4858 91.7698 78.8723 87.2581 77.1457C86.9292 77.0173 86.2406 77.3975 85.922 77.7315C82.9006 80.8969 79.9253 84.1136 76.9244 87.2996C75.2543 89.0724 74.0468 89.0313 72.5052 87.1557C70.5679 84.7971 68.6461 82.4179 66.5958 79.8949L66.6009 79.8897ZM35.7231 76.0049C39.5925 74.5507 43.2717 73.2712 46.8636 71.7913C51.7761 69.7667 53.8315 65.9436 52.9991 60.7279C52.9477 60.3939 52.7062 60.0496 52.4647 59.7978C46.1236 53.1742 43.7393 45.1425 44.0374 36.1551C44.1042 34.1922 44.6232 33.6218 46.5399 33.1439C52.6908 31.6126 57.0945 27.9694 59.7152 22.1987C60.1726 21.1864 60.7327 20.3848 61.9454 20.3488C63.1581 20.3129 63.7901 21.0682 64.2834 22.0651C68.9287 31.5201 76.5852 36.2014 87.0577 36.3915C88.8151 36.4224 89.7246 37.2805 89.6527 38.9968C89.2981 47.0901 86.7545 54.2841 80.9068 60.1113C80.619 60.399 80.285 60.7382 80.1977 61.1082C79.2522 65.2396 81.4155 69.6947 85.3774 71.3802C88.702 72.7933 92.1346 73.9649 95.5209 75.2342C96.1067 75.4551 96.7028 75.6504 97.4376 75.9124C97.3503 75.3729 97.2989 75.0543 97.2475 74.7357C96.2455 68.1378 95.0482 61.5604 94.2928 54.9367C93.4295 47.3676 93.1007 39.7367 92.2733 32.1573C91.5437 25.4566 89.2981 19.2543 85.0536 13.8948C77.171 3.95158 64.0419 1.60838 53.924 8.37591C47.8399 12.4405 44.3405 18.3294 42.2954 25.1997C40.3838 31.6229 40.4301 38.3082 39.7415 44.8959C38.8782 53.1742 37.9224 61.4422 36.9307 69.705C36.6892 71.7348 36.165 73.7337 35.7231 75.9998V76.0049ZM61.9556 27.6251C58.6104 32.5222 54.1347 35.7081 48.4925 37.373C48.5696 44.8548 50.4914 51.5915 55.964 56.8894C62.0533 62.7885 70.2802 63.1019 76.6726 57.8092C79.987 55.0652 82.2274 51.5504 83.5326 47.4857C84.2109 45.3738 84.6117 43.1745 85.141 41.0163C71.683 38.1129 71.2514 37.8663 61.9505 27.6251H61.9556ZM41.2831 117.905H25.6926C25.6926 122.561 25.6926 127.119 25.6926 131.676C25.6926 132.38 25.7029 133.095 25.8005 133.788C26.4839 138.793 31.4581 141.501 36.201 139.354C44.1247 135.767 52.0125 132.103 59.9053 128.455C62.8446 127.093 64.3194 124.755 64.3245 121.512C64.3348 114.683 64.3245 107.859 64.3245 101.03C64.3245 100.691 64.2372 100.352 64.1961 100.012C64.0368 99.9713 63.8723 99.9251 63.713 99.884C63.451 100.603 63.0656 101.307 62.9525 102.052C62.6031 104.38 62.4078 106.729 62.0584 109.051C61.4983 112.746 60.7429 116.405 58.2147 119.344C57.6341 120.017 56.7914 120.639 55.9538 120.885C52.2129 121.985 48.4309 122.961 44.6591 123.948C42.4752 124.518 41.3345 123.604 41.2933 121.307C41.2728 120.192 41.2933 119.072 41.2933 117.91L41.2831 117.905ZM68.9236 99.9559C68.8979 100.506 68.8568 100.958 68.8568 101.405C68.8568 107.998 68.8825 114.591 68.8414 121.183C68.8208 124.729 70.3932 127.149 73.6203 128.619C81.2768 132.113 88.9024 135.674 96.5487 139.179C102.263 141.799 107.458 138.449 107.484 132.134C107.504 127.802 107.489 123.47 107.484 119.138C107.484 118.727 107.432 118.321 107.407 117.915H91.8982C91.8982 119.056 91.9085 120.089 91.8982 121.122C91.8725 123.686 90.7677 124.534 88.3012 123.881C84.8943 122.977 81.508 121.985 78.0754 121.183C76.3334 120.778 75.1516 119.827 74.2061 118.393C72.315 115.526 71.6059 112.273 71.1178 108.954C70.7837 106.672 70.5833 104.37 70.2391 102.094C70.1209 101.307 70.2236 100.269 68.9287 99.9559H68.9236ZM56.8479 68.1634C59.9362 69.9106 63.0296 71.6782 66.1436 73.41C66.38 73.5436 66.8167 73.5384 67.0531 73.41C70.1671 71.6782 73.2554 69.9106 76.3386 68.1583C76.0559 66.7246 75.799 65.4092 75.5164 63.9858C69.4991 66.8685 63.5332 66.7092 57.6598 63.7545C57.372 65.3167 57.1151 66.6938 56.8427 68.1634H56.8479ZM63.1478 76.9402C60.1674 75.2547 57.3258 73.6463 54.5663 72.0842C53.3074 73.1273 52.1718 74.0677 50.995 75.044C53.4461 77.6647 55.8407 80.2237 58.3175 82.865C59.9362 80.8763 61.4726 78.9956 63.1478 76.9402ZM78.5995 72.0842C75.7682 73.6926 72.942 75.2958 70.0387 76.9453C71.719 79.0059 73.2503 80.8917 74.8587 82.8701C77.356 80.1929 79.7711 77.6133 82.1914 75.0235C80.9582 74.0163 79.8379 73.1016 78.5944 72.0893L78.5995 72.0842Z" fill="#fff"/>
<path d="M111.965 60.2913C110.665 60.2965 109.693 59.7004 109.072 58.5956C107.916 56.5247 106.271 54.9883 104.257 53.755C101.898 52.3111 101.919 49.4694 104.293 48.0306C106.312 46.8076 107.89 45.2147 109.113 43.1901C110.5 40.8931 113.383 40.8777 114.77 43.1695C116.019 45.2352 117.638 46.8385 119.703 48.0923C121.99 49.4797 121.97 52.3419 119.667 53.7396C117.607 54.9934 116.034 56.6378 114.724 58.6572C114.174 59.5 113.075 59.983 112.222 60.6305C112.139 60.5174 112.052 60.4044 111.97 60.2913H111.965ZM115.187 50.9494C114.118 49.9011 112.905 48.7089 111.97 47.7891C110.958 48.7552 109.745 49.9062 108.712 50.8928C109.781 51.9308 110.983 53.1024 111.882 53.976C112.879 53.0665 114.113 51.9308 115.187 50.9494Z" fill="#fff"/>
<path d="M21.2684 41.0273C22.332 41.8238 23.4368 42.2966 23.9867 43.1342C25.3278 45.1947 26.9414 46.8545 29.0482 48.134C31.2629 49.4803 31.2424 52.3477 29.0122 53.7094C26.9054 54.994 25.2867 56.6487 23.997 58.7452C22.6763 60.8983 19.8244 60.9086 18.4987 58.7606C17.178 56.6281 15.5131 54.9529 13.3703 53.6426C11.2224 52.3271 11.2481 49.4546 13.4063 48.1494C15.5594 46.8494 17.1883 45.1382 18.5552 43.0417C19.0742 42.2401 20.1738 41.8135 21.2684 41.0325V41.0273ZM21.2529 47.8C20.2509 48.7609 19.0433 49.9171 18.0105 50.9037C19.069 51.9366 20.2715 53.103 21.217 54.0228C22.1933 53.0928 23.4112 51.9417 24.5262 50.8883C23.4625 49.8863 22.2447 48.7352 21.2529 47.7949V47.8Z" fill="#fff"/>
<path d="M133.422 84.3552C133.098 85.866 132.523 86.8372 131.407 87.4641C129.347 88.6254 127.8 90.2646 126.572 92.2789C125.138 94.6324 122.276 94.6119 120.842 92.243C119.62 90.2184 118.016 88.6511 116.002 87.4281C113.71 86.0304 113.684 83.1579 115.971 81.7705C118.037 80.5167 119.655 78.9186 120.899 76.8477C122.245 74.6176 125.118 74.5559 126.474 76.7604C127.79 78.9032 129.486 80.5424 131.592 81.899C132.399 82.418 132.826 83.5176 133.427 84.3552H133.422ZM120.591 84.6122C121.557 85.6193 122.718 86.8269 123.633 87.7775C124.712 86.7241 125.909 85.5525 126.865 84.6122C125.889 83.6101 124.717 82.4128 123.736 81.4108C122.744 82.4231 121.567 83.6204 120.586 84.6122H120.591Z" fill="#fff"/>
<path d="M19.1863 84.2901C18.8574 85.7752 18.3589 86.7515 17.2953 87.363C15.1627 88.586 13.5338 90.2611 12.2543 92.3731C10.908 94.593 8.03551 94.6084 6.67892 92.3937C5.39428 90.292 3.74479 88.6579 1.65338 87.3681C-0.561356 86.0013 -0.551079 83.1493 1.68421 81.7927C3.74992 80.5389 5.36858 78.9408 6.62754 76.8854C8.04065 74.5884 10.8874 74.573 12.28 76.8648C13.5338 78.9305 15.1679 80.5081 17.1925 81.8133C18.0404 82.358 18.5285 83.4525 19.1811 84.3004L19.1863 84.2901ZM9.47432 81.469C8.41063 82.471 7.19792 83.6169 6.28325 84.4802C7.32125 85.6159 8.4466 86.8491 9.34585 87.8255C10.4866 86.7309 11.6942 85.5748 12.6448 84.6601C11.6377 83.6426 10.4558 82.4505 9.47432 81.4639V81.469Z" fill="#fff"/>
<path d="M43.8543 94.8155C42.5388 94.8155 41.2233 94.8515 39.9129 94.8052C38.3251 94.7538 37.4156 93.8906 37.4259 92.534C37.4361 91.1825 38.3405 90.3346 39.9438 90.3141C42.6672 90.2781 45.3856 90.2781 48.109 90.3141C49.6866 90.3346 50.668 91.2031 50.704 92.5031C50.74 93.8392 49.7071 94.7744 48.073 94.8155C46.6651 94.8515 45.2571 94.8206 43.8491 94.8155H43.8543Z" fill="#fff"/>
<path d="M68.8405 86.5291C68.8097 87.7573 67.7717 88.749 66.5436 88.7233C65.3103 88.6976 64.3185 87.6596 64.3442 86.4315C64.3699 85.2085 65.4182 84.2014 66.6412 84.227C67.859 84.2527 68.8713 85.3113 68.8405 86.524V86.5291Z" fill="#fff"/>
<path d="M66.5677 94.6637C65.3293 94.6483 64.3324 93.6257 64.3478 92.3924C64.3632 91.1694 65.4115 90.1469 66.6242 90.1623C67.8369 90.1777 68.8647 91.2311 68.8441 92.4438C68.8287 93.6771 67.801 94.674 66.5677 94.6586V94.6637Z" fill="#fff"/>
</svg>
