<svg width="145" height="191" viewBox="0 0 147 159" fill="none" xmlns="http://www.w3.org/2000/svg">
<path d="M75.8303 0C77.4366 0.349431 79.0654 0.603049 80.6378 1.0652C91.4984 4.24953 98.4362 11.6552 102.776 21.8C105.391 27.9094 106.315 34.3738 106.823 40.9397C107.736 52.7246 108.277 64.5488 110.537 76.1871C111.106 79.1235 111.771 82.0429 112.515 84.9342C112.684 85.5823 113.259 86.2924 113.839 86.6419C119.988 90.3785 122.925 95.8003 122.885 102.997C122.817 117.099 122.885 131.2 122.851 145.301C122.829 153.135 116.81 159.07 109.28 158.613C107.623 158.512 105.898 158.05 104.377 157.362C95.6295 153.428 86.905 149.432 78.2482 145.312C76.3376 144.405 74.7088 142.911 72.832 141.604C69.5237 145.628 64.2259 146.868 59.5536 149.162C53.7655 152.002 47.8759 154.623 42.0032 157.283C34.5806 160.648 26.3577 157.283 23.9568 149.866C23.4721 148.373 23.2636 146.727 23.258 145.149C23.2072 131.048 23.2692 116.947 23.2072 102.845C23.179 95.6989 26.1605 90.356 32.2361 86.6362C32.8786 86.2417 33.4365 85.385 33.6338 84.6355C36.3616 74.3667 37.4663 63.8556 38.3567 53.2994C39.0274 45.3358 39.5628 37.3214 40.9155 29.4592C42.3921 20.8813 46.4331 13.3854 53.1061 7.54657C57.6938 3.53939 62.9972 1.05393 69.0615 0.264891C69.3602 0.225439 69.6477 0.0901756 69.9351 0C71.8964 0 73.8634 0 75.8247 0H75.8303ZM73.0462 87.6225C70.7918 90.3954 68.6839 92.9992 66.5592 95.5862C64.8684 97.6433 63.5383 97.6884 61.7122 95.744C58.4208 92.244 55.1576 88.7215 51.8436 85.2441C51.4942 84.8778 50.7446 84.4664 50.3783 84.6016C45.3792 86.5235 40.3068 88.2988 35.4768 90.5927C30.3987 93.0049 28.0767 97.3446 28.1613 103.037C28.2571 109.541 28.1838 116.05 28.1894 122.56C28.1894 123.062 28.2345 123.569 28.2683 124.132H45.2834C45.2834 122.582 45.2834 121.145 45.2834 119.702C45.2834 116.913 45.2439 114.123 45.3228 111.339C45.3623 109.851 46.45 108.842 47.7632 108.842C49.0933 108.842 50.0852 109.834 50.2205 111.327C50.2599 111.79 50.2486 112.257 50.2486 112.72C50.2486 118.04 50.2486 123.36 50.2486 128.681C50.2486 129.227 50.2994 129.768 50.3275 130.456C53.1004 129.718 55.6535 128.923 58.263 128.376C59.7509 128.066 60.8048 127.339 61.1881 125.981C62.0278 123.016 62.7774 120.024 63.3917 117.008C63.9215 114.388 63.9666 111.649 64.6655 109.084C65.6856 105.331 68.7065 103.927 72.3868 105.088C72.7418 105.201 73.1983 105.269 73.5365 105.145C78.1975 103.443 81.0605 106.526 81.6974 109.958C82.1314 112.286 82.2441 114.675 82.6781 117.003C83.1966 119.781 83.7996 122.554 84.5717 125.271C84.8479 126.246 85.5411 127.559 86.3527 127.841C89.3849 128.895 92.5466 129.588 95.8381 130.462V128.528C95.8381 123.259 95.8381 117.995 95.8381 112.725C95.8381 112.314 95.8268 111.897 95.8493 111.485C95.9508 109.885 96.9314 108.842 98.3123 108.842C99.6762 108.842 100.747 109.896 100.775 111.491C100.832 115.154 100.798 118.823 100.809 122.492C100.809 123.039 100.865 123.58 100.899 124.155H117.801C117.835 123.676 117.892 123.276 117.892 122.876C117.892 116.315 117.813 109.755 117.92 103.2C118.016 97.3897 115.682 92.9823 110.463 90.5307C105.673 88.2763 100.651 86.5066 95.7028 84.6129C95.3421 84.472 94.5869 84.8891 94.2374 85.2554C90.9235 88.7272 87.6603 92.2553 84.3688 95.7496C82.5372 97.694 81.2127 97.6489 79.5219 95.5918C77.3971 93.0049 75.2893 90.3954 73.0405 87.6282L73.0462 87.6225ZM39.1796 83.3617C43.4235 81.7667 47.4588 80.3634 51.3984 78.7402C56.7864 76.5197 59.0408 72.3265 58.1277 66.606C58.0714 66.2396 57.8065 65.862 57.5416 65.5859C50.5868 58.3211 47.9717 49.5121 48.2986 39.6547C48.3719 37.5018 48.9411 36.8762 51.0433 36.352C57.7896 34.6725 62.6196 30.6766 65.494 24.3474C65.9956 23.2371 66.6099 22.3579 67.94 22.3185C69.2701 22.279 69.9633 23.1075 70.5043 24.2009C75.5993 34.5711 83.9969 39.7055 95.483 39.914C97.4105 39.9478 98.4081 40.889 98.3292 42.7714C97.9403 51.6481 95.1505 59.5385 88.7367 65.9296C88.4211 66.2453 88.0548 66.6172 87.959 67.023C86.922 71.5544 89.2947 76.4408 93.64 78.2893C97.2865 79.8392 101.051 81.1242 104.765 82.5163C105.408 82.7587 106.062 82.9728 106.868 83.2603C106.772 82.6685 106.715 82.3191 106.659 81.9696C105.56 74.733 104.247 67.519 103.418 60.2542C102.472 51.9524 102.111 43.583 101.204 35.2699C100.403 27.9206 97.9403 21.118 93.285 15.2397C84.6394 4.33407 70.2395 1.76406 59.1422 9.18664C52.4692 13.6447 48.6311 20.1035 46.388 27.6388C44.2914 34.6838 44.3421 42.0162 43.5869 49.2415C42.6401 58.3211 41.5918 67.3894 40.504 76.452C40.2392 78.6782 39.6643 80.8706 39.1796 83.3561V83.3617ZM67.9513 30.299C64.2822 35.6701 59.3733 39.1644 53.185 40.9905C53.2695 49.1964 55.3774 56.5852 61.3797 62.3959C68.0583 68.866 77.0815 69.2098 84.0927 63.4047C87.7279 60.3951 90.1852 56.5401 91.6167 52.0821C92.3607 49.7657 92.8003 47.3535 93.3808 44.9864C78.6202 41.802 78.1467 41.5315 67.9456 30.299H67.9513ZM45.2777 129.317H28.1782C28.1782 134.424 28.1782 139.423 28.1782 144.422C28.1782 145.194 28.1894 145.977 28.2965 146.738C29.0461 152.228 34.5017 155.198 39.7037 152.842C48.3944 148.908 57.0456 144.89 65.7025 140.888C68.9263 139.395 70.5438 136.83 70.5494 133.274C70.5607 125.784 70.5494 118.299 70.5494 110.809C70.5494 110.437 70.4536 110.065 70.4085 109.693C70.2338 109.648 70.0535 109.597 69.8788 109.552C69.5913 110.341 69.1686 111.113 69.0446 111.93C68.6614 114.484 68.4472 117.059 68.064 119.607C67.4496 123.659 66.6212 127.672 63.8483 130.896C63.2114 131.634 62.2871 132.316 61.3684 132.586C57.2654 133.792 53.1174 134.863 48.9806 135.945C46.5853 136.571 45.3341 135.568 45.289 133.048C45.2664 131.825 45.289 130.597 45.289 129.323L45.2777 129.317ZM75.5936 109.631C75.5655 110.234 75.5204 110.73 75.5204 111.22C75.5204 118.451 75.5485 125.682 75.5035 132.913C75.4809 136.802 77.2055 139.457 80.7449 141.068C89.1425 144.901 97.5063 148.807 105.893 152.65C112.16 155.525 117.858 151.85 117.886 144.924C117.909 140.172 117.892 135.421 117.886 130.67C117.886 130.219 117.83 129.774 117.801 129.329H100.792C100.792 130.58 100.803 131.713 100.792 132.846C100.764 135.658 99.5522 136.588 96.8469 135.872C93.1103 134.88 89.3961 133.792 85.6313 132.913C83.7207 132.468 82.4244 131.425 81.3874 129.853C79.3134 126.708 78.5356 123.14 78.0002 119.5C77.6339 116.997 77.4141 114.472 77.0364 111.976C76.9068 111.113 77.0195 109.975 75.5993 109.631H75.5936ZM62.3491 74.7612C65.7363 76.6775 69.1292 78.6162 72.5446 80.5156C72.8038 80.6621 73.2829 80.6565 73.5421 80.5156C76.9575 78.6162 80.3448 76.6775 83.7263 74.7556C83.4164 73.1832 83.1346 71.7403 82.8246 70.1792C76.2249 73.341 69.6815 73.1662 63.2396 69.9256C62.924 71.6389 62.6422 73.1493 62.3435 74.7612H62.3491ZM69.2588 84.3875C65.9899 82.5389 62.8732 80.7748 59.8467 79.0615C58.4659 80.2056 57.2203 81.237 55.9297 82.3078C58.6181 85.1821 61.2444 87.9889 63.961 90.8857C65.7363 88.7046 67.4215 86.6419 69.2588 84.3875ZM86.2062 79.0615C83.1008 80.8255 80.001 82.584 76.8166 84.3931C78.6596 86.6531 80.3391 88.7215 82.1032 90.8914C84.8423 87.955 87.4912 85.1258 90.1457 82.2853C88.7931 81.1806 87.5644 80.1774 86.2005 79.0671L86.2062 79.0615Z" fill="white"/>
<path d="M122.803 66.1278C121.377 66.1335 120.312 65.4797 119.63 64.268C118.362 61.9967 116.558 60.3115 114.349 58.9589C111.762 57.3752 111.784 54.2585 114.388 52.6804C116.603 51.339 118.333 49.5919 119.675 47.3713C121.196 44.852 124.358 44.8351 125.88 47.3488C127.249 49.6144 129.025 51.3728 131.29 52.748C133.798 54.2697 133.776 57.409 131.251 58.942C128.991 60.3171 127.266 62.1207 125.829 64.3356C125.226 65.2599 124.02 65.7897 123.085 66.4998C122.994 66.3758 122.899 66.2518 122.808 66.1278H122.803ZM126.336 55.8816C125.164 54.7319 123.834 53.4243 122.808 52.4155C121.698 53.4751 120.368 54.7375 119.235 55.8196C120.407 56.9581 121.726 58.2431 122.713 59.2012C123.806 58.2036 125.159 56.9581 126.336 55.8816Z" fill="white"/>
<path d="M23.328 44.998C24.4947 45.8716 25.7064 46.3901 26.3095 47.3088C27.7804 49.5688 29.5501 51.3892 31.8609 52.7926C34.29 54.2692 34.2675 57.4141 31.8214 58.9076C29.5107 60.3166 27.7354 62.1314 26.3207 64.4309C24.8723 66.7924 21.7443 66.8036 20.2902 64.4478C18.8418 62.1089 17.0157 60.2715 14.6655 58.8344C12.3097 57.3916 12.3379 54.241 14.705 52.8095C17.0665 51.3836 18.8531 49.5068 20.3522 47.2074C20.9215 46.3281 22.1276 45.8604 23.328 45.0037V44.998ZM23.3111 52.4263C22.2121 53.4802 20.8877 54.7483 19.7548 55.8304C20.9158 56.9632 22.2346 58.2426 23.2717 59.2514C24.3425 58.2313 25.6782 56.9689 26.9012 55.8135C25.7346 54.7145 24.3989 53.452 23.3111 52.4206V52.4263Z" fill="white"/>
<path d="M146.334 92.5206C145.979 94.1776 145.348 95.2428 144.125 95.9304C141.865 97.2041 140.168 99.002 138.821 101.211C137.249 103.793 134.11 103.77 132.537 101.172C131.196 98.9512 129.438 97.2323 127.228 95.8909C124.715 94.3579 124.686 91.2074 127.194 89.6857C129.46 88.3105 131.235 86.5577 132.599 84.2864C134.076 81.8404 137.226 81.7728 138.714 84.1906C140.157 86.5408 142.017 88.3387 144.328 89.8266C145.213 90.3958 145.68 91.6019 146.34 92.5206H146.334ZM132.261 92.8024C133.321 93.907 134.594 95.2315 135.598 96.2741C136.781 95.1188 138.094 93.8338 139.143 92.8024C138.072 91.7034 136.787 90.3902 135.71 89.2912C134.623 90.4015 133.332 91.7146 132.256 92.8024H132.261Z" fill="white"/>
<path d="M21.0434 92.4478C20.6827 94.0766 20.136 95.1475 18.9693 95.8181C16.6304 97.1595 14.8438 98.9968 13.4404 101.313C11.9638 103.748 8.8133 103.765 7.3254 101.336C5.91641 99.0306 4.10726 97.2384 1.81341 95.8238C-0.615691 94.3246 -0.604419 91.1966 1.84723 89.7087C4.11289 88.3336 5.88823 86.5808 7.26904 84.3264C8.81893 81.8071 11.9413 81.7902 13.4686 84.3038C14.8438 86.5695 16.636 88.2998 18.8566 89.7313C19.7865 90.3287 20.322 91.5292 21.0377 92.4591L21.0434 92.4478ZM10.3914 89.3537C9.22472 90.4527 7.89463 91.7095 6.89143 92.6564C8.0299 93.9019 9.26418 95.2545 10.2505 96.3254C11.5017 95.1249 12.8261 93.8568 13.8688 92.8536C12.7641 91.7377 11.4678 90.4301 10.3914 89.348V89.3537Z" fill="white"/>
<path d="M48.0976 103.994C46.6548 103.994 45.212 104.034 43.7748 103.983C42.0333 103.926 41.0357 102.98 41.047 101.492C41.0582 100.009 42.0502 99.0795 43.8086 99.0569C46.7957 99.0175 49.7771 99.0175 52.7642 99.0569C54.4944 99.0795 55.5709 100.032 55.6103 101.458C55.6498 102.923 54.517 103.949 52.7247 103.994C51.1805 104.034 49.6362 104 48.0919 103.994H48.0976Z" fill="white"/>
<path d="M75.5023 94.9043C75.4685 96.2513 74.33 97.3391 72.983 97.3109C71.6304 97.2827 70.5427 96.1443 70.5708 94.7973C70.599 93.4559 71.7488 92.3513 73.0901 92.3794C74.4259 92.4076 75.5361 93.5686 75.5023 94.8987V94.9043Z" fill="white"/>
<path d="M73.0092 103.826C71.6509 103.809 70.5575 102.688 70.5744 101.335C70.5913 99.9935 71.7411 98.872 73.0712 98.8889C74.4012 98.9058 75.5284 100.061 75.5059 101.391C75.489 102.744 74.3618 103.837 73.0092 103.82V103.826Z" fill="white"/>
</svg>
