<svg width="29" height="29" viewBox="0 0 29 29" fill="none" xmlns="http://www.w3.org/2000/svg">
<path d="M27.1228 2.59424C26.8352 3.1221 26.7301 3.68229 26.7313 4.27479C26.7313 4.3602 26.8228 4.5041 26.8878 4.51872C27.0418 4.55488 27.2088 4.55411 27.3634 4.51795C27.4289 4.50256 27.5242 4.3579 27.5223 4.27479C27.51 3.68537 27.4153 3.12056 27.1228 2.59424ZM4.60818 1.25456C4.56675 1.24379 4.52531 1.23225 4.48387 1.22148C4.38492 1.70086 4.27174 2.17641 4.19691 2.66118C4.17526 2.80277 4.24391 3.08902 4.30328 3.10287C4.49748 3.1498 4.70652 3.11056 4.90752 3.07978C4.9403 3.07439 4.98607 2.94435 4.98359 2.87356C4.96628 2.29491 4.86114 1.74549 4.60818 1.25456ZM7.13956 0.971393C6.86558 1.52234 6.73138 2.06021 6.75117 2.64194C6.75426 2.7389 6.88104 2.86817 6.9732 2.91203C7.07091 2.95974 7.20883 2.96436 7.30346 2.91357C7.39932 2.86125 7.52982 2.7212 7.53167 2.61578C7.54218 2.04713 7.41354 1.51696 7.13956 0.971393ZM10.9407 2.98513C10.8405 3.08978 10.7965 3.11826 10.7712 3.16365C10.29 4.00316 10.0822 4.94655 10.1076 5.9692C10.1175 6.35394 10.3098 6.53169 10.6098 6.53323C10.8436 6.534 11.0792 6.54246 11.3111 6.51399C11.5325 6.48706 11.6612 6.32008 11.6847 6.02999C11.749 5.23588 11.5808 4.49717 11.329 3.78463C11.2338 3.51454 11.0835 3.27523 10.9407 2.98513ZM0 25.1309C0.291916 24.6284 0.716801 24.3583 1.17447 24.216C2.30564 23.8628 3.43743 23.485 4.58592 23.2472C6.74251 22.7994 8.91456 22.4631 11.0755 22.0437C13.1609 21.6398 15.2458 21.225 17.3207 20.7472C18.4773 20.4817 19.6196 20.1 20.6629 19.379C20.7532 19.3167 20.8429 19.2497 20.9245 19.1712C21.4107 18.7003 21.3834 18.1478 20.8101 17.8562C20.3178 17.6061 19.7934 17.3907 19.2695 17.3153C17.7796 17.1021 16.2836 16.9567 14.7887 16.8074C13.2945 16.6573 11.791 16.5981 10.3339 16.0979C9.97337 15.974 9.61404 15.8117 9.28193 15.5993C8.31032 14.9752 8.04438 13.8926 8.52678 12.666C8.88302 11.758 9.46499 11.1109 10.1187 10.5599C11.5437 9.36032 13.1399 8.64854 14.7949 8.14684C16.0653 7.7621 17.3529 7.46815 18.5966 7.1442C16.6491 6.3424 14.5989 5.78683 12.48 5.44364C12.4726 5.61754 12.4683 5.77606 12.459 5.93457C12.4114 6.771 12.1114 7.22961 11.4639 7.42275C11.3099 7.46815 11.2703 7.55741 11.274 7.73747C11.282 8.16069 11.2808 8.58391 11.2746 9.00712C11.2697 9.35031 11.1243 9.55269 10.8949 9.54115C10.6339 9.5273 10.5349 9.32338 10.5325 9.02559C10.5294 8.59083 10.5417 8.1553 10.5219 7.72131C10.5176 7.62128 10.4205 7.45507 10.3506 7.44199C9.75443 7.32734 9.33512 6.72637 9.34748 5.81453C9.34996 5.60369 9.3481 5.39285 9.3481 5.152C9.28007 5.13892 9.21019 5.11661 9.13968 5.1143C7.15317 5.05274 5.17532 5.18509 3.21231 5.57368C2.40336 5.7345 1.59935 5.93534 0.793491 6.12079C0.529406 6.18157 0.329642 6.05076 0.286968 5.78067C0.242438 5.49596 0.361184 5.2705 0.635782 5.20818C1.65563 4.97733 2.67734 4.76188 3.69842 4.54257C3.85551 4.50871 4.01322 4.48255 4.18763 4.44946C4.19196 4.32789 4.19629 4.214 4.20062 4.1055C3.47763 3.75154 3.27168 3.26446 3.5067 2.07022C3.60503 1.56928 3.7813 1.06758 4.00889 0.637436C4.30761 0.0734037 4.80857 0.081868 5.14687 0.617429C5.61072 1.35152 5.77956 2.21334 5.70843 3.13211C5.67689 3.53762 5.47837 3.83772 5.14811 3.9847C5.06152 4.02317 4.99905 4.14244 4.92484 4.22477C4.94154 4.26479 4.95824 4.30557 4.97555 4.34558C5.55506 4.30018 6.13456 4.25401 6.72024 4.20785C6.77158 4.01009 6.80312 3.84311 6.61016 3.76924C6.1896 3.60919 6.00406 3.22521 5.99417 2.71043C5.97809 1.88015 6.13889 1.10144 6.54522 0.430445C6.89032 -0.138974 7.38695 -0.145899 7.72834 0.424289C8.16807 1.15838 8.34557 2.00173 8.26703 2.91203C8.23239 3.31294 8.03943 3.59841 7.73082 3.75C7.51992 3.85388 7.52054 3.85619 7.55394 4.19015C8.17178 4.19015 8.79396 4.19707 9.41552 4.17938C9.48293 4.17707 9.5689 4.04471 9.61033 3.94853C9.79587 3.51685 9.92513 3.03746 10.1546 2.64733C10.5826 1.91786 11.2103 1.90786 11.6395 2.6381C11.89 3.06439 12.0595 3.57764 12.2073 4.0778C12.2945 4.37252 12.4027 4.50102 12.647 4.53565C14.2606 4.76572 15.8488 5.16432 17.4086 5.7245C18.3938 6.07769 19.3549 6.53785 20.3419 6.88258C21.0371 7.12419 21.7613 7.23423 22.4658 7.43737C22.9308 7.57203 23.339 7.46508 23.7676 7.22423C24.6378 6.73483 25.5593 6.44012 26.4994 6.22851C26.5922 6.20774 26.7437 6.07385 26.74 6.00382C26.7276 5.78375 26.8872 5.4798 26.5643 5.36515C26.1821 5.22895 25.9935 4.85114 25.9768 4.38791C25.9459 3.53378 26.1104 2.72813 26.5309 2.03867C26.8828 1.46232 27.3615 1.46002 27.7134 2.03405C28.1426 2.73351 28.3034 3.54917 28.2688 4.41715C28.2534 4.79419 28.1173 5.16662 27.8149 5.28589C27.4704 5.42286 27.4487 5.6791 27.5118 6.03537C27.8142 6.03537 28.121 6.03076 28.4271 6.03691C28.5391 6.03922 28.6758 6.02229 28.7568 6.09231C28.8662 6.18773 29.0054 6.36394 28.9998 6.49706C28.9937 6.65173 28.8576 6.81409 28.7512 6.93952C28.7017 6.998 28.5898 6.9903 28.5063 6.98876C25.9545 6.94721 23.6847 8.02064 21.5665 9.69658C21.3834 9.84125 21.2035 9.99283 21.0185 10.1344C20.8175 10.2891 20.6277 10.2452 20.4953 10.0144C20.3562 9.77353 20.4193 9.54345 20.598 9.36724C20.7149 9.25182 20.8429 9.15256 20.9524 8.98712C20.2949 9.12639 19.635 9.25028 18.9807 9.40956C17.3244 9.81124 15.6806 10.276 14.1041 11.0463C13.4535 11.3648 12.8189 11.728 12.3044 12.3428C12.2642 12.3905 12.2314 12.4475 12.1238 12.6037C12.6903 12.6122 13.1807 12.6468 13.6693 12.6229C15.9434 12.5144 18.2157 12.3482 20.4904 12.2851C22.0786 12.242 23.6569 12.4444 25.1796 13.0754C26.2625 13.524 27.1921 14.2419 27.8483 15.4416C28.8978 17.3607 28.8143 19.2967 27.8928 21.2319C27.1401 22.8132 26.0739 24.0444 24.9439 25.1932C24.2791 25.8704 23.5901 26.5106 22.9265 27.1901C22.6828 27.4394 22.4744 27.7464 22.2635 28.0419C22.1163 28.2481 21.95 28.3135 21.7626 28.1811C21.5535 28.0334 21.5226 27.7626 21.6314 27.5371C21.7601 27.2708 21.9277 27.0146 22.12 26.8176C22.8696 26.0474 23.6421 25.311 24.3954 24.5461C25.4517 23.4727 26.4604 22.3361 27.189 20.8787C27.8328 19.5898 28.1037 18.2225 27.5879 16.762C27.1574 15.5447 26.4165 14.7082 25.4331 14.1988C24.2859 13.6048 23.0756 13.3863 21.8491 13.2832C19.2769 13.0669 16.7159 13.3763 14.1511 13.5302C13.4213 13.574 12.6767 13.5409 11.9556 13.4055C11.3037 13.2832 11.1553 12.5998 11.5715 11.9581C12.0545 11.2125 12.7175 10.7831 13.3991 10.4022C14.7906 9.62348 16.2625 9.16718 17.7475 8.77782C18.6783 8.53466 19.6183 8.3446 20.5535 8.12914C20.5844 8.12222 20.6122 8.09451 20.6363 8.01064C20.5114 8.00295 20.384 7.97217 20.2622 7.99217C18.9733 8.2007 17.677 8.36383 16.3986 8.6447C14.7424 9.00943 13.1381 9.61963 11.621 10.5415C10.8201 11.0286 10.0525 11.5926 9.50767 12.5014C9.32027 12.8138 9.17431 13.1839 9.07598 13.5548C8.9696 13.9564 9.10072 14.3104 9.37593 14.5759C9.83051 15.016 10.371 15.2253 10.9171 15.3146C12.3371 15.5462 13.7633 15.7278 15.1895 15.8917C16.8043 16.0772 18.4365 16.0702 20.0247 16.5365C20.4421 16.6589 20.8645 16.8328 21.24 17.0852C22.2357 17.7546 22.2827 19.0712 21.368 19.9061C20.671 20.5417 19.8688 20.8872 19.0512 21.1742C17.1977 21.8244 15.3021 22.2238 13.4009 22.5801C11.4527 22.9448 9.49777 23.2564 7.55084 23.6366C5.79255 23.9813 4.03858 24.3653 2.28956 24.7785C1.68408 24.9216 1.07984 25.1378 0.581976 25.6534C0.348814 25.895 0.166367 25.6888 0 25.4833V25.1309Z" fill="white"/>
<path d="M3.51173 16.1743C3.51173 16.0204 3.51297 15.9634 3.51173 15.9072C3.47648 14.593 3.70036 13.3287 4.14751 12.1583C4.38005 11.5497 4.30151 11.1057 4.03 10.6209C3.99228 10.5532 3.95702 10.4839 3.91992 10.4162C3.5173 9.67365 3.22105 9.6675 2.81843 10.3993C2.37375 11.2065 2.11338 12.1152 1.98412 13.0655C1.89197 13.7396 1.8697 14.4352 1.88022 15.1201C1.88702 15.5448 2.12327 15.8649 2.46838 15.9673C2.79493 16.0635 3.13199 16.1012 3.51173 16.1743ZM5.77717 17.2685C5.77779 17.2569 5.7784 17.2462 5.77902 17.2346C5.92993 17.2346 6.08145 17.2469 6.23112 17.2323C6.97266 17.1615 7.30539 16.7414 7.32209 15.8234C7.34436 14.6184 7.10996 13.4734 6.70796 12.3899C6.5453 11.9506 6.30657 11.5497 6.07032 11.1618C5.91199 10.901 5.69739 10.9225 5.51061 11.1603C5.43825 11.2526 5.35414 11.3357 5.29848 11.4412C4.57734 12.8031 4.25327 14.316 4.26069 15.9319C4.2644 16.6814 4.54457 17.0392 5.13273 17.1807C5.34424 17.2323 5.56194 17.2408 5.77717 17.2685ZM3.73871 17.0846V19.5762C3.73871 19.6816 3.74056 19.7878 3.73685 19.8932C3.72695 20.1887 3.59027 20.3664 3.36515 20.3664C3.14003 20.3664 2.99964 20.1894 2.9984 19.8916C2.99469 19.0814 2.98727 18.2703 2.9984 17.4601C3.00211 17.1692 2.96439 17.0384 2.68855 17.0015C1.7089 16.8699 1.09167 15.9973 1.07992 14.7699C1.06508 13.1132 1.41328 11.5674 2.06266 10.1315C2.21233 9.80139 2.42941 9.49975 2.66072 9.2512C3.10725 8.77181 3.66078 8.78182 4.10051 9.27429C4.3213 9.52129 4.49014 9.84217 4.67259 10.1384C4.75113 10.2654 4.80432 10.4154 4.86369 10.5432C4.9008 10.5362 4.91193 10.5386 4.91812 10.5324C5.73264 9.79138 6.33255 9.89988 6.92442 10.9387C7.51938 11.9836 7.8181 13.1833 7.9789 14.4306C8.0525 15.0039 8.09023 15.6025 8.04446 16.1773C7.95231 17.3308 7.36848 18.0172 6.44511 18.1388C6.22494 18.1672 6.16371 18.2565 6.16804 18.525C6.18164 19.3115 6.17484 20.0994 6.17237 20.8866C6.17051 21.2759 6.02393 21.5099 5.79263 21.5091C5.55761 21.5091 5.42031 21.2921 5.41784 20.8843C5.41289 20.0848 5.41042 19.2853 5.41969 18.4866C5.42279 18.2488 5.36403 18.1603 5.16736 18.1403C4.59528 18.0795 4.11721 17.7871 3.73871 17.0846ZM21.373 25.8059C20.6129 25.8059 19.8559 25.5043 19.559 25.3181C18.6023 24.7171 17.3876 24.9302 16.3164 25.1195C16.1915 25.1411 16.0684 25.1634 15.9472 25.1834C15.1543 25.315 14.6534 25.1357 14.1234 24.9464C13.8117 24.8348 13.4894 24.7194 13.0788 24.6594C12.0428 24.5078 11.1492 25.0757 11.1399 25.081C11.0162 25.1611 10.8634 25.1018 10.7985 24.9472C10.7342 24.7933 10.7818 24.6032 10.9055 24.5232C10.9475 24.4955 11.9433 23.8591 13.1375 24.0338C13.5896 24.1 13.9477 24.2277 14.2637 24.3408C14.7616 24.5193 15.1914 24.6732 15.8804 24.5586C15.9998 24.5386 16.1216 24.517 16.2459 24.4955C17.3907 24.2939 18.6889 24.0653 19.7873 24.7556C20.0711 24.9333 21.104 25.3473 21.9203 25.1026C22.0558 25.0618 22.1931 25.1665 22.2259 25.335C22.2586 25.5043 22.1745 25.6743 22.0385 25.7151C21.8245 25.7797 21.5987 25.8059 21.373 25.8059ZM26.5261 20.9366C26.403 20.9366 25.6447 20.8427 25.025 20.3972C24.5303 20.0425 23.9545 20.2256 23.4541 20.4249C23.3657 20.4595 23.2822 20.4957 23.2024 20.5303C22.7695 20.7158 22.3601 20.8912 21.8801 20.635C21.7515 20.5665 21.6915 20.381 21.7472 20.221C21.8022 20.0617 21.9513 19.9871 22.0793 20.0555C22.3663 20.2087 22.605 20.1194 23.0373 19.934C23.1208 19.8986 23.208 19.8609 23.2995 19.8247C23.9477 19.5662 24.6367 19.3915 25.278 19.8516C25.7827 20.2141 26.429 20.3049 26.5267 20.3064C26.6658 20.3087 26.779 20.4503 26.7778 20.6234C26.7772 20.7966 26.6652 20.9366 26.5261 20.9366ZM21.2512 23.2404C20.7799 23.2404 20.3303 23.0234 19.8918 22.8118C19.7013 22.7195 19.504 22.6241 19.3104 22.551C18.8064 22.3594 18.708 22.4079 18.4446 22.5387C18.3401 22.591 18.2096 22.6556 18.0351 22.718C17.9003 22.7657 17.7606 22.6687 17.7216 22.5017C17.6832 22.334 17.7612 22.1601 17.896 22.1116C18.0457 22.0585 18.1576 22.0031 18.2566 21.9539C18.6029 21.7815 18.8138 21.703 19.4589 21.9477C19.6698 22.0285 19.8757 22.1278 20.0755 22.224C20.6259 22.4902 21.1454 22.741 21.6556 22.5302C22.4386 22.2047 23.328 21.8869 23.965 22.227C24.093 22.2963 24.1524 22.481 24.0973 22.641C24.0423 22.8011 23.8933 22.8749 23.7646 22.8065C23.3144 22.5656 22.5617 22.8188 21.8158 23.1273C21.6241 23.2074 21.4361 23.2404 21.2512 23.2404Z" fill="white"/>
</svg>
