<svg width="61" height="68" viewBox="0 0 61 68" fill="none" xmlns="http://www.w3.org/2000/svg">
<path d="M24.4719 33.3319C25.8506 33.9701 27.196 34.6777 28.5027 35.4519C29.0627 35.8926 29.7555 36.1323 30.469 36.1323C31.1826 36.1323 31.8753 35.8926 32.4353 35.4519C33.5885 34.7552 34.7823 34.1276 36.0103 33.5724C36.0591 33.5289 36.1039 33.4812 36.1444 33.4299L35.5009 33.1003C35.3343 33.0483 35.1808 32.9614 35.0506 32.8454C34.9205 32.7294 34.8167 32.587 34.7464 32.4277C34.676 32.2685 34.6406 32.0961 34.6425 31.9221C34.6445 31.7481 34.6837 31.5766 34.7576 31.4189C34.8316 31.2613 34.9385 31.1213 35.0712 31.0082C35.2039 30.8951 35.3593 30.8116 35.527 30.7633C35.6948 30.7151 35.8709 30.7031 36.0437 30.7282C36.2164 30.7533 36.3818 30.815 36.5287 30.909C39.1296 32.0759 41.7125 33.2606 44.3134 34.4186C49.4614 36.7168 54.6154 39.003 59.7754 41.2774C60.1406 41.4019 60.4531 41.6454 60.6623 41.9687C60.8715 42.2919 60.9652 42.676 60.9284 43.0589C60.9284 45.5768 60.9284 48.0947 60.9284 50.6125C60.9633 50.9743 60.8805 51.3377 60.6922 51.6489C60.5039 51.9601 60.22 52.2026 59.8827 52.3406C50.2777 57.1329 40.6847 61.9548 31.1036 66.8065C30.8148 66.9748 30.4863 67.0635 30.1517 67.0635C29.8172 67.0635 29.4887 66.9748 29.1999 66.8065C24.165 64.2055 19.1242 61.6193 14.0774 59.048C14.0538 59.0528 14.0295 59.0528 14.0059 59.048C13.1569 58.6026 12.8798 57.988 13.2194 57.2665C13.5591 56.545 14.2562 56.3757 15.0963 56.8478L21.8889 60.3218L28.1452 63.5285C28.3597 63.6354 28.5921 63.7245 28.9228 63.8759C28.9228 61.9875 28.9228 60.206 28.9228 58.4245C28.9228 58.2285 28.5742 57.9791 28.3419 57.8544L11.0118 48.9468L3.33443 45.0097L2.44067 44.591V45.4818C2.44067 47.2633 2.44067 49.0448 2.44067 50.8263C2.44067 51.7794 1.98485 52.2961 1.21622 52.2961C0.447584 52.2961 0.000703275 51.7438 0.000703275 50.7729C0.000703275 48.1006 0.000703275 45.4907 0.000703275 42.8451C-0.00930613 42.5135 0.0877521 42.1874 0.2776 41.9148C0.467448 41.6422 0.740063 41.4375 1.05534 41.3309C8.69402 37.851 16.3476 34.3592 24.0161 30.8556C24.9098 30.4458 25.607 30.6151 25.9376 31.301C26.2683 31.9868 25.9376 32.6104 25.0439 33.0825L24.4719 33.3319ZM58.4348 44.5999C58.1398 44.7336 57.9343 44.8137 57.7376 44.9117L33.5078 57.0082C32.8017 57.3645 31.8275 57.5782 31.4611 58.1661C31.0946 58.754 31.3628 59.7072 31.3538 60.5088C31.3538 61.5866 31.3538 62.6734 31.3538 63.8759L36.3678 61.364C43.5179 57.8009 50.668 54.2201 57.8181 50.6214C58.0773 50.4878 58.4437 50.2206 58.4437 50.0068C58.4705 48.2609 58.4437 46.4705 58.4437 44.5999H58.4348ZM4.07625 42.6225C4.38907 42.8095 4.57676 42.9253 4.77339 43.0233C6.72178 44.0299 8.68806 45.0097 10.6275 46.0341C10.7916 46.1388 10.9823 46.1945 11.1772 46.1945C11.372 46.1945 11.5628 46.1388 11.7268 46.0341C13.3446 45.1433 14.9712 44.3772 16.5978 43.5399C17.143 43.2638 17.6882 42.9699 18.3317 42.6492C16.1241 41.509 14.0238 40.4312 11.9056 39.3712C11.8097 39.3295 11.7063 39.308 11.6017 39.308C11.4971 39.308 11.3937 39.3295 11.2978 39.3712C8.93831 40.4134 6.56985 41.4912 4.07625 42.6225ZM27.8414 47.5127C25.5712 46.3458 23.4262 45.2324 21.2722 44.1546C21.0215 44.0913 20.756 44.1264 20.5304 44.2525C18.4658 45.2858 16.4012 46.3547 14.3456 47.4147C14.1928 47.499 14.0464 47.5942 13.9076 47.6998C16.1063 48.831 18.2245 49.9267 20.3695 50.9956C20.5871 51.0847 20.8312 51.0847 21.0488 50.9956C23.2385 49.8821 25.4908 48.7152 27.8414 47.5127ZM37.3688 52.394L37.0471 52.2515C34.9825 51.1915 32.9268 50.1137 30.8533 49.0893C30.7072 49.0406 30.5527 49.0218 30.3991 49.0341C30.2456 49.0463 30.096 49.0894 29.9596 49.1606C28.4134 49.9177 26.894 50.7105 25.3567 51.4944L23.3547 52.5544C25.6427 53.7302 27.8235 54.8347 29.9417 55.9125C30.1474 55.9581 30.3627 55.9297 30.5494 55.8324C31.4432 55.387 32.337 54.9416 33.2933 54.4606L37.3688 52.394ZM56.8439 42.6492C54.3235 41.5268 52.0086 40.4846 49.6938 39.487C49.3736 39.3893 49.0281 39.418 48.7285 39.5672C46.8695 40.4579 45.0373 41.4288 43.1962 42.382C43.0387 42.4744 42.8866 42.5756 42.7403 42.6848C45.0284 43.8606 47.2091 44.9919 49.4257 46.0964C49.6776 46.156 49.9428 46.1178 50.1675 45.9895C51.4545 45.3749 52.7147 44.7246 53.9928 44.0922L56.8439 42.6492ZM33.1592 47.5127C35.4294 48.6796 37.628 49.8109 39.782 50.8976C39.9054 50.9326 40.0345 50.9428 40.1619 50.9275C40.2893 50.9122 40.4123 50.8717 40.5238 50.8085C42.4275 49.9177 44.3223 48.9201 46.2171 47.9759C46.4316 47.869 46.6282 47.7354 46.9231 47.5662C45.3259 46.8385 43.7685 46.0268 42.2577 45.1344C41.6152 44.6242 40.818 44.3464 39.9965 44.3464C39.175 44.3464 38.3778 44.6242 37.7353 45.1344C36.2569 46.0138 34.729 46.8079 33.1592 47.5127ZM23.7032 42.6136C23.9714 42.765 24.1322 42.8719 24.3021 42.9609C26.1879 43.9319 28.0827 44.885 29.9596 45.8826C30.1236 45.9874 30.3144 46.0431 30.5092 46.0431C30.7041 46.0431 30.8948 45.9874 31.0589 45.8826C32.909 44.9117 34.7859 43.9675 36.6538 43.0055L37.2795 42.6314C35.0629 41.5001 32.9626 40.4223 30.8354 39.3623C30.5979 39.2648 30.3312 39.2648 30.0936 39.3623C27.9933 40.4045 25.9198 41.4823 23.7032 42.6136ZM14.4707 37.9104C15.9058 38.5479 17.2998 39.2738 18.6446 40.0838C19.316 40.6217 20.1516 40.9149 21.013 40.9149C21.8745 40.9149 22.7101 40.6217 23.3815 40.0838C24.8138 39.2366 26.2906 38.4665 27.8056 37.7768C25.7857 36.7346 23.882 35.7458 21.9693 34.7838C21.8078 34.7063 21.6234 34.6904 21.451 34.7393C19.1361 35.7726 16.8749 36.8058 14.4707 37.9104ZM46.3601 38.0351L45.9489 37.8124C44.4201 37.2179 42.9279 36.5338 41.4801 35.7636C40.7724 35.2758 39.9256 35.0288 39.0656 35.0593C38.2057 35.0898 37.3786 35.3962 36.7075 35.9329C35.5518 36.6173 34.3582 37.2359 33.1324 37.7857C35.3668 38.9347 37.494 40.0304 39.6211 41.1082C39.7915 41.1974 39.9892 41.2196 40.1753 41.1705C42.213 40.1551 44.224 39.1218 46.3601 38.0351Z" fill="black"/>
<path d="M42.6696 10.76C42.7558 14.6764 41.5501 18.5129 39.2376 21.6806C36.7082 25.0833 34.0448 28.388 31.4172 31.7194C31.3126 31.9028 31.1612 32.0553 30.9783 32.1613C30.7954 32.2674 30.5875 32.3233 30.3759 32.3233C30.1643 32.3233 29.9565 32.2674 29.7736 32.1613C29.5907 32.0553 29.4392 31.9028 29.3347 31.7194C25.8913 27.6788 22.7799 23.3685 20.0306 18.8302C19.1417 17.2649 18.5726 15.5395 18.3563 13.7538C18.14 11.9681 18.2808 10.1574 18.7704 8.42618C19.1743 6.67144 20.0319 5.0526 21.258 3.73058C22.4842 2.40855 24.0361 1.42937 25.7596 0.890387C27.5608 0.191999 29.4945 -0.101461 31.4226 0.0309596C33.3507 0.16338 35.2257 0.718414 36.9138 1.65644C40.7391 3.74971 42.6428 7.00097 42.6696 10.76ZM30.3893 29.252C31.5602 27.8001 32.6863 26.464 33.7499 25.0833C34.8134 23.7026 36.02 22.0369 37.1372 20.487C38.815 18.1768 39.876 15.4794 40.2207 12.6484C40.5136 10.8836 40.2392 9.07178 39.4365 7.47191C38.6339 5.87204 37.3442 4.56608 35.7519 3.7408C32.3735 1.90585 28.9772 2.07509 25.572 3.56265C24.5184 4.01255 23.5791 4.6916 22.8229 5.55007C22.0667 6.40855 21.5127 7.42471 21.2015 8.52416C20.7255 9.94892 20.5459 11.4554 20.6734 12.9516C20.801 14.4479 21.233 15.9025 21.9433 17.2268C24.2671 21.547 27.3416 25.3327 30.3893 29.252Z" fill="black"/>
<path d="M9.83214 54.1843C10.2099 54.189 10.5704 54.3425 10.8349 54.6112C11.0995 54.8799 11.2467 55.242 11.2443 55.6185C11.2236 55.9973 11.0566 56.3535 10.7784 56.6125C10.5003 56.8715 10.1324 57.0132 9.7517 57.008C9.56004 57.0069 9.37051 56.9678 9.19411 56.8931C9.01771 56.8184 8.85795 56.7095 8.72409 56.5728C8.59024 56.4361 8.48495 56.2743 8.41434 56.0967C8.34373 55.9191 8.3092 55.7293 8.31275 55.5383C8.31687 55.3478 8.36025 55.1603 8.44017 54.9872C8.5201 54.8142 8.63487 54.6594 8.77736 54.5324C8.91985 54.4054 9.08701 54.309 9.26846 54.2491C9.44991 54.1893 9.64178 54.1672 9.83214 54.1843Z" fill="black"/>
<path d="M6.42727 53.1331C6.43939 53.5105 6.30165 53.8775 6.04396 54.1543C5.78627 54.4312 5.42942 54.5955 5.05088 54.6117C4.85764 54.6129 4.66608 54.576 4.48721 54.5031C4.30834 54.4302 4.1457 54.3228 4.00864 54.187C3.87158 54.0513 3.76282 53.8898 3.6886 53.712C3.61438 53.5342 3.57617 53.3435 3.57617 53.1509C3.57848 52.7752 3.72867 52.4153 3.99442 52.1488C4.26017 51.8823 4.62027 51.7304 4.99725 51.7257C5.1842 51.7233 5.36975 51.758 5.54315 51.8277C5.71654 51.8973 5.87433 52.0006 6.00736 52.1316C6.14039 52.2625 6.24601 52.4184 6.31809 52.5904C6.39017 52.7623 6.42728 52.9468 6.42727 53.1331Z" fill="black"/>
<path d="M30.4524 17.3605C29.4557 17.3587 28.482 17.0619 27.6547 16.5078C26.8275 15.9537 26.184 15.1672 25.8059 14.2481C25.4277 13.3289 25.332 12.3186 25.5308 11.3452C25.7296 10.3718 26.214 9.47916 26.9226 8.7805C27.6311 8.08185 28.5319 7.60865 29.5107 7.42093C30.4894 7.23321 31.5021 7.33941 32.4202 7.72608C33.3383 8.11274 34.1205 8.76245 34.6676 9.5928C35.2147 10.4231 35.5021 11.3967 35.4932 12.3901C35.4745 13.7117 34.9357 14.9732 33.9929 15.9028C33.0501 16.8325 31.7787 17.3559 30.4524 17.3605ZM27.8873 12.3633C27.8981 12.8713 28.0601 13.3646 28.3525 13.7807C28.645 14.1969 29.0549 14.5171 29.5302 14.7008C30.0055 14.8845 30.5249 14.9233 31.0224 14.8125C31.5199 14.7016 31.9732 14.4461 32.3247 14.0781C32.6763 13.7102 32.9104 13.2465 32.9972 12.7459C33.084 12.2452 33.0198 11.7302 32.8125 11.266C32.6052 10.8018 32.2644 10.4094 31.8331 10.1385C31.4018 9.86764 30.8995 9.73051 30.3899 9.74451C29.7126 9.77 29.0721 10.058 28.6047 10.5471C28.1372 11.0362 27.8799 11.6879 27.8873 12.3633Z" fill="black"/>
</svg>
