<svg width="29" height="32" viewBox="0 0 29 32" fill="none" xmlns="http://www.w3.org/2000/svg">
<g clip-path="url(#clip0_177_971)">
<path d="M11.6477 15.8651C12.304 16.1689 12.9443 16.5057 13.5663 16.8741C13.8329 17.0839 14.1626 17.198 14.5022 17.198C14.8418 17.198 15.1716 17.0839 15.4381 16.8741C15.987 16.5425 16.5552 16.2438 17.1397 15.9795C17.163 15.9588 17.1843 15.9361 17.2036 15.9117L16.8973 15.7548C16.818 15.7301 16.7449 15.6887 16.6829 15.6335C16.621 15.5783 16.5716 15.5105 16.5381 15.4347C16.5046 15.3589 16.4878 15.2769 16.4887 15.1941C16.4896 15.1112 16.5083 15.0296 16.5435 14.9546C16.5787 14.8795 16.6296 14.8129 16.6927 14.7591C16.7559 14.7052 16.8299 14.6655 16.9097 14.6425C16.9895 14.6195 17.0734 14.6138 17.1556 14.6258C17.2379 14.6377 17.3166 14.6671 17.3865 14.7119C18.6244 15.2673 19.8538 15.8311 21.0918 16.3823C23.5421 17.4762 25.9953 18.5644 28.4513 19.6469C28.6251 19.7062 28.7739 19.8221 28.8734 19.976C28.973 20.1298 29.0176 20.3126 29.0001 20.4949C29.0001 21.6933 29.0001 22.8918 29.0001 24.0902C29.0167 24.2624 28.9773 24.4354 28.8877 24.5835C28.798 24.7316 28.6629 24.8471 28.5024 24.9127C23.9307 27.1937 19.3646 29.4888 14.8043 31.7981C14.6668 31.8782 14.5104 31.9204 14.3512 31.9204C14.192 31.9204 14.0356 31.8782 13.8981 31.7981C11.5017 30.5601 9.10238 29.3292 6.70025 28.1053C6.68902 28.1076 6.67745 28.1076 6.66622 28.1053C6.26208 27.8933 6.13021 27.6007 6.29186 27.2573C6.45352 26.9139 6.78533 26.8333 7.18522 27.058L10.4183 28.7116L13.3962 30.2379C13.4983 30.2888 13.6089 30.3311 13.7663 30.4032C13.7663 29.5044 13.7663 28.6564 13.7663 27.8085C13.7663 27.7152 13.6004 27.5965 13.4897 27.5371L5.24111 23.2974L1.58686 21.4234L1.16145 21.2241V21.6481C1.16145 22.4961 1.16145 23.344 1.16145 24.192C1.16145 24.6456 0.944494 24.8915 0.578644 24.8915C0.212794 24.8915 9.06003e-05 24.6287 9.06003e-05 24.1665C9.06003e-05 22.8946 9.06003e-05 21.6523 9.06003e-05 20.3931C-0.00467362 20.2353 0.0415236 20.08 0.131886 19.9503C0.222249 19.8206 0.352007 19.7231 0.502071 19.6724C4.13788 18.016 7.78079 16.3541 11.4308 14.6864C11.8562 14.4914 12.188 14.5719 12.3454 14.8984C12.5028 15.2249 12.3454 15.5216 11.92 15.7464L11.6477 15.8651ZM27.8132 21.2284C27.6728 21.292 27.575 21.3301 27.4814 21.3768L15.9486 27.1344C15.6125 27.304 15.1488 27.4057 14.9744 27.6855C14.8 27.9654 14.9276 28.419 14.9234 28.8006C14.9234 29.3136 14.9234 29.8309 14.9234 30.4032L17.3099 29.2076C20.7132 27.5117 24.1164 25.8073 27.5197 24.0945C27.643 24.0309 27.8175 23.9037 27.8175 23.8019C27.8302 22.9709 27.8175 22.1187 27.8175 21.2284H27.8132ZM1.93995 20.2871C2.08884 20.3762 2.17817 20.4313 2.27176 20.4779C3.19915 20.957 4.13505 21.4234 5.05818 21.911C5.13627 21.9608 5.22707 21.9873 5.31981 21.9873C5.41255 21.9873 5.50334 21.9608 5.58143 21.911C6.35142 21.487 7.12566 21.1224 7.8999 20.7238C8.1594 20.5924 8.4189 20.4525 8.72519 20.2999C7.67444 19.7572 6.67473 19.2442 5.66651 18.7396C5.62089 18.7198 5.57165 18.7095 5.52187 18.7095C5.4721 18.7095 5.42286 18.7198 5.37724 18.7396C4.25416 19.2357 3.12683 19.7487 1.93995 20.2871ZM13.2515 22.6148C12.171 22.0594 11.15 21.5294 10.1248 21.0164C10.0054 20.9863 9.87905 21.003 9.77169 21.063C8.789 21.5548 7.80631 22.0636 6.82787 22.5681C6.75516 22.6082 6.68549 22.6536 6.61943 22.7038C7.66593 23.2423 8.67414 23.7638 9.69512 24.2725C9.79869 24.3149 9.91486 24.3149 10.0184 24.2725C11.0607 23.7426 12.1327 23.1871 13.2515 22.6148ZM17.7864 24.9382L17.6332 24.8703C16.6505 24.3658 15.6721 23.8528 14.6851 23.3652C14.6156 23.342 14.5421 23.3331 14.469 23.3389C14.3959 23.3447 14.3247 23.3652 14.2597 23.3991C13.5238 23.7595 12.8006 24.1369 12.0689 24.51L11.116 25.0145C12.205 25.5741 13.243 26.0999 14.2512 26.6129C14.3492 26.6345 14.4516 26.621 14.5405 26.5747C14.9659 26.3627 15.3913 26.1507 15.8465 25.9218L17.7864 24.9382ZM27.056 20.2999C25.8563 19.7657 24.7545 19.2696 23.6527 18.7947C23.5003 18.7482 23.3358 18.7619 23.1933 18.8329C22.3084 19.2569 21.4364 19.719 20.56 20.1727C20.4851 20.2167 20.4127 20.2648 20.3431 20.3168C21.4321 20.8765 22.4701 21.4149 23.5251 21.9407C23.645 21.969 23.7713 21.9508 23.8782 21.8898C24.4908 21.5972 25.0906 21.2877 25.6989 20.9867L27.056 20.2999ZM15.7827 22.6148C16.8632 23.1702 17.9097 23.7086 18.935 24.2259C18.9937 24.2426 19.0552 24.2474 19.1158 24.2401C19.1764 24.2328 19.235 24.2136 19.288 24.1835C20.1942 23.7595 21.096 23.2847 21.9979 22.8352C22.1 22.7844 22.1936 22.7208 22.334 22.6402C21.5737 22.2939 20.8324 21.9075 20.1133 21.4828C19.8075 21.2399 19.4281 21.1077 19.0371 21.1077C18.646 21.1077 18.2666 21.2399 17.9608 21.4828C17.2571 21.9013 16.5299 22.2793 15.7827 22.6148ZM11.2819 20.2829C11.4095 20.355 11.4861 20.4059 11.5669 20.4483C12.4645 20.9104 13.3664 21.364 14.2597 21.8389C14.3378 21.8888 14.4286 21.9153 14.5214 21.9153C14.6141 21.9153 14.7049 21.8888 14.783 21.8389C15.6636 21.3768 16.5569 20.9273 17.446 20.4695L17.7438 20.2914C16.6888 19.7529 15.6891 19.2399 14.6766 18.7354C14.5635 18.689 14.4366 18.689 14.3235 18.7354C13.3238 19.2314 12.3369 19.7445 11.2819 20.2829ZM6.88743 18.0443C7.57052 18.3478 8.23402 18.6933 8.87408 19.0788C9.19367 19.3348 9.59139 19.4744 10.0014 19.4744C10.4114 19.4744 10.8092 19.3348 11.1287 19.0788C11.8105 18.6756 12.5134 18.309 13.2345 17.9807C12.2731 17.4847 11.367 17.014 10.4566 16.5561C10.3797 16.5192 10.2919 16.5117 10.2099 16.535C9.10806 17.0268 8.03178 17.5186 6.88743 18.0443ZM22.066 18.1037L21.8703 17.9977C21.1426 17.7147 20.4323 17.3891 19.7432 17.0225C19.4064 16.7903 19.0033 16.6728 18.594 16.6873C18.1847 16.7018 17.791 16.8476 17.4716 17.1031C16.9215 17.4288 16.3534 17.7233 15.7699 17.9849C16.8335 18.5319 17.8459 19.0534 18.8584 19.5664C18.9395 19.6088 19.0336 19.6194 19.1221 19.5961C20.0921 19.1127 21.0492 18.6209 22.066 18.1037Z" fill="white"/>
<path d="M20.3088 5.12171C20.3498 6.98585 19.776 8.81191 18.6753 10.3197C17.4714 11.9392 16.2037 13.5122 14.953 15.0979C14.9032 15.1851 14.8311 15.2577 14.7441 15.3082C14.657 15.3587 14.5581 15.3853 14.4574 15.3853C14.3566 15.3853 14.2577 15.3587 14.1707 15.3082C14.0836 15.2577 14.0115 15.1851 13.9618 15.0979C12.3228 13.1746 10.8419 11.123 9.53327 8.96293C9.11015 8.21787 8.83929 7.39666 8.73634 6.54671C8.63339 5.69676 8.70038 4.8349 8.93345 4.01089C9.12567 3.17568 9.53387 2.40515 10.1175 1.7759C10.7011 1.14665 11.4398 0.68059 12.2601 0.424045C13.1174 0.0916306 14.0378 -0.0480485 14.9556 0.0149801C15.8733 0.0780088 16.7658 0.342191 17.5692 0.788665C19.39 1.78501 20.2961 3.33253 20.3088 5.12171ZM14.4637 13.9235C15.021 13.2324 15.557 12.5964 16.0633 11.9392C16.5695 11.2821 17.1438 10.4893 17.6756 9.75153C18.4741 8.65192 18.9792 7.36806 19.1432 6.02054C19.2826 5.18057 19.152 4.31818 18.77 3.55668C18.3879 2.79518 17.7741 2.17358 17.0162 1.78077C15.4081 0.907379 13.7916 0.987934 12.1708 1.69598C11.6693 1.91012 11.2222 2.23332 10.8623 2.64193C10.5024 3.05055 10.2387 3.53421 10.0906 4.05753C9.86403 4.73567 9.77851 5.4527 9.83922 6.16488C9.89992 6.87705 10.1056 7.56943 10.4436 8.19978C11.5497 10.2561 13.0131 12.058 14.4637 13.9235Z" fill="white"/>
<path d="M4.67961 25.7905C4.85939 25.7928 5.03098 25.8658 5.15691 25.9937C5.28285 26.1216 5.35289 26.2939 5.35175 26.4731C5.34189 26.6534 5.26244 26.823 5.13002 26.9462C4.99761 27.0695 4.8225 27.137 4.64132 27.1345C4.5501 27.134 4.45988 27.1154 4.37592 27.0798C4.29196 27.0443 4.21592 26.9925 4.15221 26.9274C4.08849 26.8623 4.03838 26.7853 4.00477 26.7007C3.97116 26.6162 3.95473 26.5259 3.95642 26.435C3.95838 26.3443 3.97903 26.255 4.01707 26.1727C4.05511 26.0903 4.10974 26.0166 4.17756 25.9562C4.24538 25.8958 4.32494 25.8499 4.41131 25.8214C4.49768 25.7929 4.589 25.7824 4.67961 25.7905Z" fill="white"/>
<path d="M3.05871 25.2903C3.06448 25.4699 2.99892 25.6446 2.87626 25.7764C2.75361 25.9081 2.58376 25.9864 2.40358 25.9941C2.31161 25.9947 2.22043 25.9771 2.13529 25.9424C2.05015 25.9077 1.97274 25.8566 1.9075 25.7919C1.84227 25.7273 1.7905 25.6505 1.75517 25.5658C1.71984 25.4812 1.70166 25.3904 1.70166 25.2988C1.70276 25.1199 1.77424 24.9487 1.90074 24.8218C2.02723 24.6949 2.19862 24.6226 2.37806 24.6204C2.46704 24.6193 2.55536 24.6358 2.63789 24.669C2.72042 24.7021 2.79553 24.7513 2.85884 24.8136C2.92216 24.8759 2.97243 24.9501 3.00674 25.032C3.04105 25.1138 3.05872 25.2016 3.05871 25.2903Z" fill="white"/>
<path d="M14.4937 8.26323C14.0193 8.26237 13.5558 8.12111 13.1621 7.85737C12.7683 7.59363 12.4621 7.21928 12.2821 6.7818C12.1021 6.34433 12.0565 5.86344 12.1512 5.40012C12.2458 4.9368 12.4763 4.51193 12.8136 4.17939C13.1509 3.84685 13.5796 3.62162 14.0455 3.53227C14.5113 3.44292 14.9933 3.49347 15.4303 3.67751C15.8673 3.86155 16.2396 4.1708 16.5001 4.56602C16.7605 4.96124 16.8972 5.42464 16.893 5.89744C16.8841 6.52652 16.6277 7.12695 16.1789 7.56944C15.7301 8.01192 15.125 8.26107 14.4937 8.26323ZM13.2728 5.88472C13.278 6.1265 13.355 6.36131 13.4942 6.55938C13.6334 6.75745 13.8285 6.90986 14.0548 6.99729C14.281 7.08471 14.5282 7.10322 14.765 7.05046C15.0018 6.9977 15.2176 6.87605 15.3849 6.70093C15.5522 6.52581 15.6636 6.30511 15.705 6.06681C15.7463 5.82851 15.7157 5.58335 15.6171 5.36241C15.5184 5.14146 15.3562 4.95469 15.1509 4.82576C14.9456 4.69684 14.7065 4.63157 14.4639 4.63823C14.1416 4.65037 13.8367 4.78743 13.6142 5.02025C13.3918 5.25306 13.2692 5.56324 13.2728 5.88472Z" fill="white"/>
</g>
<defs>
<clipPath id="clip0_177_971">
<rect width="29" height="31.9" fill="white"/>
</clipPath>
</defs>
</svg>
