<svg width="137" height="106" viewBox="0 0 137 106" fill="none" xmlns="http://www.w3.org/2000/svg">
<path d="M0 10.7254C0.196225 10.0511 0.381746 9.3732 0.595809 8.70604C2.16204 3.85394 6.72515 0.428926 11.8377 0.325462C14.3743 0.271947 16.911 0.279082 19.4476 0.318327C22.5373 0.368275 24.7957 2.64805 24.8706 5.75196C24.8955 6.81158 24.8741 7.87476 24.8741 9.13416C25.8374 9.13416 26.7115 9.13416 27.582 9.13416C30.8322 9.13416 34.0824 9.15914 37.3291 9.10562C37.7322 9.09848 38.3423 8.78453 38.4957 8.44559C40.2189 4.69235 42.9232 2.8407 46.6658 2.94774C50.1728 3.04763 52.8344 5.14902 54.3649 9.13416H55.9989C80.3914 9.13416 104.787 9.13416 129.18 9.1413C129.979 9.1413 130.789 9.14843 131.57 9.28401C134.767 9.84771 136.547 11.8956 136.719 15.1458C136.744 15.6345 136.736 16.1233 136.736 16.6157C136.736 43.5948 136.736 70.5739 136.736 97.5565C136.736 97.8669 136.736 98.1809 136.736 98.4913C136.669 103.176 134.314 105.555 129.605 105.559C102.229 105.573 74.8543 105.566 47.4757 105.566C47.3436 105.566 47.2081 105.57 47.0761 105.566C45.7631 105.495 44.8783 104.656 44.914 103.511C44.9461 102.416 45.7988 101.595 47.0475 101.574C49.0954 101.538 51.1433 101.563 53.1911 101.563C60.8475 101.563 68.5002 101.563 76.3599 101.563C76.0816 101.128 75.9032 100.803 75.6785 100.514C65.1751 86.8641 54.661 73.2247 44.1826 59.5567C43.6011 58.7968 43.016 58.5328 42.0813 58.5399C36.8296 58.5828 31.5779 58.5614 26.3226 58.5649C25.8874 58.5649 25.4521 58.6006 24.8741 58.6256C24.8741 59.1786 24.8741 59.6531 24.8741 60.1311C24.8741 66.496 24.8813 72.8643 24.8741 79.2292C24.867 83.0894 22.6907 85.2586 18.8376 85.2657C16.6113 85.2693 14.385 85.2408 12.1624 85.2729C7.58497 85.3442 4.00298 88.9405 4.00655 93.4287C4.01368 97.9133 7.60281 101.531 12.1909 101.549C20.5608 101.588 28.9271 101.56 37.2969 101.563C37.7429 101.563 38.2031 101.517 38.6277 101.613C39.6659 101.845 40.2689 102.551 40.2546 103.607C40.2403 104.599 39.6516 105.277 38.6777 105.505C38.2531 105.605 37.7929 105.566 37.3469 105.566C29.3338 105.566 21.3207 105.566 13.3112 105.566C6.16502 105.566 1.94798 102.291 0.15698 95.3552C0.135573 95.2768 0.0535158 95.2161 0 95.1448C0 67.0026 0 38.864 0 10.7254ZM24.9847 47.0233V54.5477C30.9607 54.5477 36.8331 54.5833 42.7092 54.5263C44.568 54.5084 45.8844 55.1685 47.0225 56.6526C58.2823 71.3481 69.5848 86.0078 80.8909 100.668C81.1656 101.024 81.5938 101.502 81.9612 101.513C84.9117 101.581 87.8658 101.552 91.0339 101.552C90.5915 100.949 90.3204 100.553 90.0278 100.175C79.7671 86.8462 69.5063 73.5172 59.2527 60.1811C58.7675 59.5496 58.2751 58.8967 57.954 58.176C57.2869 56.6847 57.9433 55.2469 59.5238 54.8152C60.3658 54.5833 61.2792 54.5584 62.1604 54.5584C85.1294 54.5441 108.095 54.5477 131.064 54.5477H132.662V47.0233C132.098 47.0233 131.62 47.0233 131.139 47.0233C124.595 47.0233 118.052 47.0233 111.509 47.0233C108.248 47.0233 106.864 45.6533 106.86 42.4174C106.86 33.202 106.86 23.9866 106.86 14.7712C106.86 14.2574 106.86 13.7401 106.86 13.2335H99.3289C99.3289 13.8578 99.3289 14.3858 99.3289 14.9174C99.3289 24.0437 99.3289 33.1699 99.3289 42.2961C99.3289 45.6498 97.9696 47.0233 94.6552 47.0233C80.502 47.0233 66.3453 47.0233 52.1922 47.0162C51.6641 47.0162 51.1076 47.0019 50.6188 46.8378C49.652 46.5096 49.2452 45.7461 49.3665 44.74C49.4807 43.7839 50.0622 43.2166 50.997 43.0632C51.4322 42.9918 51.8853 43.0204 52.3277 43.0204C59.4953 43.0204 66.6593 43.0204 73.8268 43.0204C74.3013 43.0204 74.7758 43.0204 75.3645 43.0204C75.3645 39.5632 75.3574 36.2774 75.3645 32.9915C75.3717 30.2265 76.4919 29.0849 79.2426 29.0777C84.0947 29.0634 88.9468 29.0777 93.7989 29.0706C94.2734 29.0706 94.7479 29.0278 95.2117 29.0064V13.1871H54.3506C53.4516 16.0092 51.682 17.9714 48.892 19.006C48.6245 19.1059 48.3818 19.6589 48.3711 20.0086C48.3176 21.6533 48.3711 23.3016 48.339 24.9499C48.3141 26.3555 47.4435 27.276 46.2626 27.2261C45.1174 27.1761 44.3682 26.3056 44.3468 24.9392C44.3254 23.3801 44.3111 21.821 44.3539 20.2654C44.3753 19.5234 44.2397 19.0881 43.4263 18.7955C41.1251 17.975 39.4982 16.3624 38.6812 14.0576C38.3922 13.237 37.9498 13.1264 37.2113 13.13C34.0075 13.1586 30.8001 13.1407 27.5963 13.1407C26.7258 13.1407 25.8517 13.1407 24.9883 13.1407V42.9561C25.4307 42.9811 25.7803 43.0168 26.13 43.0168C31.2033 43.0204 36.2801 43.0097 41.3534 43.0311C42.7127 43.0382 43.5547 43.8409 43.5547 45.0076C43.5547 46.1814 42.7199 46.9627 41.3606 47.0198C40.6042 47.0519 39.8479 47.0269 39.0915 47.0269C34.4214 47.0269 29.7548 47.0269 24.9954 47.0269L24.9847 47.0233ZM132.737 58.6648H63.1879C63.3698 58.9431 63.4555 59.0929 63.5625 59.2285C74.2264 73.0855 84.8832 86.9461 95.5863 100.771C95.936 101.221 96.7637 101.52 97.3666 101.524C107.956 101.57 118.548 101.56 129.141 101.556C132.209 101.556 132.733 101.039 132.733 98.0096C132.733 85.726 132.733 73.4423 132.733 61.1586C132.733 60.3595 132.733 59.5639 132.733 58.6684L132.737 58.6648ZM4.00655 84.3881C6.0901 82.6506 8.15938 81.5838 10.5212 81.409C13.0436 81.2235 15.5874 81.277 18.1204 81.2592C20.7177 81.2378 20.8747 81.1022 20.8783 78.562C20.8783 67.4807 20.8783 56.3957 20.8783 45.3108C20.8783 32.36 20.8783 19.4056 20.8783 6.4548C20.8783 4.7316 20.4716 4.32488 18.7733 4.31774C16.861 4.31061 14.9452 4.31774 13.0329 4.31774C7.30669 4.32131 4.01368 7.61431 4.01368 13.3476C4.01368 36.4486 4.01368 59.5496 4.01368 82.6506C4.01368 83.1251 4.01368 83.5996 4.01368 84.3916L4.00655 84.3881ZM110.931 13.1514V42.9169H132.63C132.68 42.7314 132.723 42.6458 132.723 42.5601C132.73 33.5267 132.744 24.4932 132.723 15.4562C132.723 13.8471 132.066 13.1764 130.418 13.1657C123.968 13.1264 117.521 13.1514 110.931 13.1514ZM95.2438 42.9597V33.1628H79.4567V42.9597H95.2438ZM45.995 15.3456C48.2712 15.3206 49.9695 14.0041 50.4262 12.2202C50.9078 10.3436 50.0551 8.39921 48.339 7.4502C46.705 6.54757 44.5965 6.84725 43.3086 8.19585C42.6842 8.85231 42.1562 9.52304 42.7056 10.547C42.8876 10.8823 42.8662 11.4889 42.6806 11.8278C42.2026 12.6876 42.6093 13.2763 43.1123 13.8614C43.9721 14.8639 45.0746 15.3634 45.995 15.342V15.3456Z" fill="#D28A1E"/>
<path d="M36.098 89.0183C36.5297 86.9133 35.8946 85.686 33.7683 84.6336C30.3896 82.9603 29.1017 78.7647 30.3004 75.1791C31.4707 71.672 35.017 69.271 38.6275 69.5492C42.3986 69.8382 45.5525 72.5889 46.2018 76.1531C46.901 80.0062 45.0423 83.7559 41.4995 85.2258C40.3436 85.7039 39.9939 86.2854 40.076 87.4592C40.1759 88.8756 40.1259 90.3027 40.0867 91.7262C40.0546 93.0106 39.2947 93.8026 38.1601 93.824C37.0256 93.8454 36.23 93.0748 36.1051 91.819C36.098 91.7298 36.098 91.6406 36.098 91.5514C36.098 90.7058 36.098 89.8603 36.098 89.0183ZM33.9038 77.7514C33.8931 80.0812 35.8126 82.022 38.1245 82.0184C40.4221 82.0149 42.3843 80.0312 42.3593 77.7407C42.3344 75.4895 40.4328 73.5808 38.178 73.5415C35.8732 73.5023 33.911 75.4324 33.9003 77.7514H33.9038Z" fill="#D28A1E"/>
<path d="M92.3869 78.5222C87.4563 76.2639 85.4191 72.9102 86.3146 68.6361C87.0852 64.9578 90.4603 62.2356 94.2885 62.2035C98.2593 62.1678 101.556 64.8151 102.43 68.7431C103.34 72.8317 101.249 76.2532 96.3898 78.5187C96.3898 80.2954 96.4005 82.1149 96.3898 83.9345C96.3756 85.5578 95.58 86.5139 94.3063 86.4711C93.0719 86.4283 92.3976 85.5542 92.3904 83.9416C92.3797 82.1221 92.3904 80.3025 92.3904 78.5258L92.3869 78.5222ZM98.5804 70.3736C98.5661 68.026 96.6717 66.1779 94.3027 66.2065C92.0158 66.235 90.157 68.0938 90.1356 70.37C90.1142 72.6997 92.0158 74.6049 94.3669 74.6013C96.7323 74.6013 98.5911 72.7354 98.5804 70.37V70.3736Z" fill="#D28A1E"/>
</svg>
