<svg width="31" height="30" viewBox="0 0 31 30" fill="none" xmlns="http://www.w3.org/2000/svg">
<path d="M30.3809 28.9181C30.3011 29.0214 30.199 29.1023 30.0835 29.1537C29.968 29.2051 29.8425 29.2255 29.718 29.2132H0.514388C0.0469982 29.1812 -0.132002 28.8577 0.10335 28.4027C1.23702 26.2935 2.37179 24.182 3.50767 22.0681C3.53167 22.0016 3.5689 21.9415 3.61677 21.892C3.66464 21.8425 3.722 21.8048 3.78485 21.7815C3.8477 21.7582 3.91453 21.7499 3.98069 21.7571C4.04684 21.7643 4.11073 21.7869 4.16791 21.8234C4.22508 21.8598 4.27416 21.9091 4.31173 21.968C4.3493 22.0268 4.37445 22.0937 4.38544 22.1641C4.39643 22.2344 4.39299 22.3064 4.37535 22.3752C4.35772 22.444 4.32632 22.5078 4.28334 22.5622C3.34193 24.3182 2.39942 26.0707 1.4558 27.8197C1.39282 27.937 1.33315 28.0579 1.25691 28.2072H6.80923V26.9737C6.38162 26.8812 5.94075 26.7924 5.50319 26.6822C5.34826 26.6525 5.20121 26.587 5.07227 26.4902C5.0077 26.4392 4.9546 26.3733 4.91688 26.2975C4.87915 26.2216 4.85775 26.1376 4.85426 26.0517C4.85076 25.9657 4.86525 25.8801 4.89667 25.801C4.92808 25.7218 4.97562 25.6513 5.0358 25.5944L6.08329 24.4427L5.70871 24.3396C5.60207 24.32 5.50283 24.2682 5.42259 24.1904C5.34236 24.1125 5.28443 24.0118 5.25558 23.9C5.22673 23.7882 5.22814 23.6698 5.25966 23.5588C5.29118 23.4478 5.3515 23.3487 5.43358 23.2731C5.76506 22.9177 6.07666 22.5622 6.42803 22.1641C6.28831 22.1439 6.15207 22.1019 6.02362 22.0396C5.88108 21.933 5.69214 21.7944 5.65899 21.6379C5.64779 21.5426 5.65624 21.4457 5.68373 21.3542C5.71122 21.2627 5.75709 21.1787 5.8181 21.1083C6.47857 20.4416 7.04773 19.6781 7.50866 18.8403C7.79373 18.3178 8.17162 18.3178 8.44012 18.8403C8.90099 19.6825 9.46884 20.4517 10.1274 21.1261C10.192 21.1992 10.2405 21.2871 10.2692 21.3831C10.2979 21.4791 10.306 21.5808 10.2931 21.6806C10.2633 21.8335 10.0611 21.9614 9.9119 22.0645C9.78827 22.1205 9.65757 22.1565 9.52407 22.1712C9.85555 22.5266 10.1439 22.8821 10.4489 23.2092C10.6213 23.394 10.797 23.5646 10.7207 23.8632C10.6828 23.9981 10.6071 24.1172 10.5039 24.2043C10.4008 24.2914 10.2751 24.3424 10.1439 24.3502C10.0533 24.3717 9.96461 24.4014 9.87875 24.4391C10.193 24.8126 10.5249 25.1686 10.8732 25.5055C10.9676 25.5818 11.0391 25.686 11.0787 25.8054C11.1183 25.9248 11.1244 26.054 11.0962 26.177C11.0679 26.3001 11.0066 26.4115 10.9198 26.4975C10.833 26.5835 10.7246 26.6403 10.608 26.6608C10.1539 26.7568 9.69975 26.867 9.23236 26.9737V28.2178H13.9593C13.9593 27.6313 13.9593 27.0448 13.9593 26.4404C13.9593 26.3942 13.84 26.3267 13.7637 26.3089C13.2234 26.1916 12.6798 26.0921 12.1395 25.9748C12.0011 25.9527 11.8719 25.8873 11.7681 25.7868C11.6643 25.6862 11.5905 25.555 11.5561 25.4096C11.4765 25.1074 11.6456 24.9368 11.8146 24.7519C12.2522 24.2791 12.6798 23.7957 13.1405 23.2803C12.8952 23.2163 12.7162 23.1665 12.5339 23.1238C12.4118 23.1003 12.2983 23.0406 12.2063 22.9513C12.1143 22.8621 12.0475 22.747 12.0135 22.6191C11.9871 22.4999 11.9944 22.3751 12.0346 22.2604C12.0747 22.1458 12.1459 22.0466 12.2389 21.9757C12.6731 21.5029 13.0974 21.0159 13.5648 20.4898L13.0477 20.3618C12.4544 20.2089 12.3317 19.8783 12.6731 19.3131C12.3085 18.6342 11.9406 17.9445 11.566 17.2585C11.5268 17.2012 11.4726 17.1579 11.4102 17.1341C11.3108 17.0878 11.2014 17.0665 11.1019 17.0239C10.8936 16.9155 10.6636 16.864 10.4323 16.8739C10.201 16.8838 9.97554 16.9549 9.776 17.0807C9.6352 17.173 9.47281 17.2203 9.30785 17.2171C9.14289 17.214 8.98218 17.1605 8.84453 17.063C8.28764 16.7075 7.78047 16.9741 7.26668 17.1554C7.19044 17.1803 7.12745 17.294 7.08105 17.3793L5.3474 20.5964C5.30144 20.691 5.24822 20.7814 5.18828 20.8666C5.12315 20.9623 5.02574 21.0271 4.91678 21.047C4.80782 21.0669 4.69592 21.0404 4.60488 20.9732C4.55563 20.9467 4.51195 20.9097 4.47651 20.8645C4.44108 20.8193 4.41463 20.7667 4.3988 20.7102C4.38297 20.6536 4.37809 20.5941 4.38446 20.5354C4.39082 20.4767 4.4083 20.4201 4.43582 20.3689C4.52864 20.1592 4.64465 19.9601 4.7673 19.761C5.98274 17.4883 7.20259 15.2121 8.42686 12.9323C8.72188 12.3849 9.11966 12.1538 9.597 12.328C9.83531 12.4411 10.0454 12.6128 10.2102 12.8292C10.3533 13.0352 10.4776 13.2554 10.5815 13.4869C10.6511 13.3624 10.7075 13.27 10.7572 13.174L15.2488 4.84165C15.6134 4.16269 16.1703 3.88542 16.7769 4.07382C17.095 4.1699 17.3644 4.3975 17.526 4.70657L21.9414 12.9039C21.9827 12.9609 22.0119 13.027 22.027 13.0974C22.0422 13.1678 22.0428 13.2409 22.0289 13.3116C22.015 13.3823 21.987 13.4489 21.9467 13.5068C21.9064 13.5647 21.8548 13.6125 21.7955 13.6468C21.5635 13.7819 21.3248 13.693 21.1591 13.3873C20.7746 12.6764 20.3867 11.9654 20.0221 11.2545C19.975 11.1516 19.9066 11.0617 19.8221 10.9915C19.7377 10.9212 19.6394 10.8726 19.5348 10.8492C19.2911 10.8042 19.0523 10.7328 18.8221 10.6359C18.5645 10.5055 18.2805 10.4466 17.9961 10.4647C17.7117 10.4827 17.4361 10.577 17.1946 10.739C16.9664 10.89 16.7042 10.9714 16.4361 10.9745C16.168 10.9777 15.9042 10.9024 15.6731 10.7568C15.387 10.6001 15.0728 10.5113 14.7519 10.4966C14.431 10.4819 14.1109 10.5415 13.8134 10.6715C13.5421 10.7371 13.2879 10.8669 13.0694 11.0514C12.8509 11.2359 12.6736 11.4705 12.5505 11.7379C12.156 12.5911 11.6688 13.3909 11.2246 14.2263C11.1942 14.2862 11.1763 14.3526 11.1723 14.4208C11.1683 14.4889 11.1782 14.5572 11.2014 14.6208C11.8842 15.9183 12.5836 17.2087 13.2798 18.5026L13.3659 18.6519C13.7604 18.0725 14.1284 17.5429 14.4897 17.0061C14.5858 16.8603 14.6687 16.7004 14.7549 16.544C15.0863 15.9539 15.3946 15.9752 15.7493 16.544C16.1637 17.2123 16.6078 17.8628 17.0752 18.4991C17.2907 18.7977 17.589 19.0287 17.8111 19.3238C17.8788 19.4016 17.9307 19.4935 17.9638 19.5938C17.9969 19.6941 18.0104 19.8007 18.0034 19.9068C17.9669 20.0703 17.7713 20.2267 17.6122 20.3156C17.4082 20.3983 17.1956 20.4544 16.9791 20.4826C17.2609 20.8381 17.5161 21.1403 17.778 21.446C17.9402 21.6461 18.1164 21.8326 18.305 22.0041C18.3869 22.0828 18.447 22.1842 18.4785 22.2972C18.5101 22.4102 18.5119 22.5303 18.4838 22.6443C18.4556 22.7583 18.3987 22.8618 18.3192 22.9433C18.2397 23.0248 18.1407 23.0811 18.0332 23.1061C17.8443 23.1629 17.6487 23.2021 17.4034 23.2625C17.662 23.5717 17.8907 23.8561 18.1293 24.1298C18.3183 24.3467 18.5172 24.5564 18.7194 24.759C18.8199 24.8276 18.8976 24.9284 18.9417 25.0471C18.9857 25.1658 18.9938 25.2964 18.9647 25.4202C18.9277 25.559 18.8549 25.6838 18.7546 25.78C18.6543 25.8763 18.5306 25.9401 18.3978 25.9641C17.8376 26.0921 17.2741 26.2094 16.6907 26.3196V28.1823H21.5469V26.9772C21.1027 26.8777 20.6586 26.7924 20.221 26.6822C20.0658 26.6513 19.9188 26.5846 19.7901 26.4867C19.728 26.4338 19.6774 26.367 19.6419 26.2909C19.6064 26.2148 19.5869 26.1313 19.5847 26.0463C19.5825 25.9613 19.5976 25.8768 19.6291 25.7987C19.6606 25.7207 19.7076 25.6509 19.7669 25.5944L20.811 24.4498C20.6353 24.4 20.5127 24.3751 20.3967 24.336C20.2921 24.3123 20.1959 24.2575 20.119 24.178C20.042 24.0984 19.9875 23.9973 19.9616 23.8861C19.9356 23.775 19.9394 23.6582 19.9724 23.5492C20.0053 23.4402 20.0662 23.3433 20.1481 23.2696C20.4795 22.9141 20.811 22.5586 21.1624 22.1463C20.9801 22.0965 20.8574 22.0752 20.7381 22.0361C20.6474 22.0156 20.564 21.9682 20.4972 21.8993C20.4305 21.8303 20.3832 21.7427 20.3607 21.6463C20.3383 21.5499 20.3415 21.4486 20.3702 21.3541C20.3988 21.2596 20.4516 21.1757 20.5226 21.1118C21.2131 20.4272 21.8022 19.6337 22.2696 18.7586C22.5149 18.3142 22.8961 18.3178 23.1414 18.7586C23.6089 19.6335 24.1992 20.426 24.8916 21.1083C24.9598 21.1714 25.0106 21.2534 25.0384 21.3453C25.0663 21.4372 25.0702 21.5355 25.0497 21.6296C25.0292 21.7237 24.9851 21.81 24.9222 21.8791C24.8593 21.9482 24.7799 21.9976 24.6927 22.0219C24.57 22.0645 24.4441 22.0859 24.2551 22.1321C24.5535 22.4875 24.8187 22.7897 25.0971 23.0954C25.2927 23.3051 25.5313 23.49 25.4286 23.8419C25.3258 24.1938 25.0606 24.3147 24.7656 24.3751C24.7258 24.3751 24.6894 24.3965 24.5966 24.4213C24.928 24.7981 25.2595 25.1607 25.591 25.4878C25.6844 25.5577 25.756 25.6561 25.7968 25.7701C25.8376 25.8842 25.8456 26.0087 25.8197 26.1276C25.7927 26.2627 25.7282 26.3859 25.6347 26.4811C25.5413 26.5762 25.4232 26.6389 25.296 26.6608C24.8617 26.7639 24.4275 26.8564 23.9701 26.9559V28.2036H29.118C29.0616 28.0863 29.0119 27.9761 28.9555 27.8695L22.2894 15.4918C22.0441 15.0332 22.0574 14.7417 22.3292 14.5817C22.601 14.4218 22.8264 14.5497 23.0817 15.019L30.2516 28.3316C30.2881 28.4027 30.3378 28.4702 30.3809 28.5378V28.9181ZM17.2377 22.3098C16.7603 21.6842 16.3029 21.1012 15.8653 20.5004C15.5736 20.0987 15.7394 19.7077 16.1968 19.6331C16.3493 19.6117 16.4985 19.5797 16.6542 19.5513L15.2488 17.6282L13.8466 19.5513C13.9858 19.5762 14.1151 19.6117 14.251 19.6295C14.7979 19.7077 14.9537 20.0845 14.6057 20.5573C14.2576 21.0301 13.8499 21.5349 13.472 22.0396C13.4057 22.1214 13.3361 22.1996 13.2334 22.3169C13.4985 22.3702 13.7007 22.4129 13.8963 22.4484C14.367 22.5302 14.5261 22.9248 14.2278 23.3194C13.8234 23.8561 13.3925 24.3858 12.9748 24.8906L12.7726 25.143C14.4066 25.5654 16.1108 25.5654 17.7448 25.143C17.6387 25.0221 17.5658 24.9403 17.4962 24.855C17.0918 24.3502 16.6741 23.8526 16.283 23.3371C15.9714 22.9283 16.1305 22.5338 16.6145 22.452C16.8299 22.3951 17.0321 22.3525 17.2377 22.3098ZM19.1967 9.75079C18.3746 8.21869 17.5923 6.76123 16.8067 5.30733C16.5681 4.87009 16.2764 4.87365 16.0344 5.30733C15.2896 6.7008 14.5449 8.08953 13.8002 9.47352C13.7597 9.55628 13.7243 9.64177 13.6941 9.72947C13.9328 9.65126 14.1217 9.59794 14.304 9.5304C14.4552 9.46221 14.6186 9.43067 14.7825 9.43804C14.9464 9.44542 15.1067 9.49152 15.2521 9.57305C15.6016 9.8013 16.003 9.92203 16.4123 9.92203C16.8215 9.92203 17.2229 9.8013 17.5725 9.57305C17.8199 9.4812 18.0865 9.46641 18.3415 9.5304C18.631 9.58222 18.9168 9.65586 19.1967 9.75079ZM21.7193 21.2398C22.5414 21.4531 22.6044 21.6842 22.0939 22.3951C21.8287 22.7506 21.5403 23.1061 21.242 23.5007L21.5337 23.5682C22.0872 23.6677 22.2265 24.0303 21.8883 24.4995C21.7723 24.6595 21.6563 24.8195 21.5337 24.9723C21.3116 25.2496 21.0862 25.5198 20.8409 25.8219C22.0668 26.1241 23.3408 26.1241 24.5667 25.8219L24.3645 25.5624C24.0695 25.2069 23.7679 24.8301 23.4861 24.4498C23.4157 24.3832 23.3658 24.2954 23.3429 24.1978C23.3201 24.1002 23.3253 23.9975 23.358 23.9032C23.3906 23.8089 23.4492 23.7274 23.5259 23.6695C23.6026 23.6116 23.6939 23.58 23.7877 23.5789L24.1623 23.4971C23.8308 23.0705 23.5259 22.6831 23.2375 22.2849C22.8231 21.7055 22.9624 21.3642 23.6386 21.2647C23.6386 21.2647 23.6618 21.2398 23.6817 21.2185L22.6872 19.8819L21.7193 21.2398ZM7.97605 19.9068L6.9816 21.2647C7.75727 21.446 7.85671 21.7233 7.38601 22.3809C7.11751 22.7506 6.82249 23.1061 6.51753 23.5113L6.84901 23.5824C7.34292 23.6784 7.48877 24.0552 7.18049 24.4747C6.96171 24.7733 6.72636 25.0612 6.49764 25.3527C6.37499 25.5091 6.24903 25.6584 6.10649 25.8326C7.33234 26.1359 8.60649 26.1359 9.83235 25.8326L9.64672 25.5944C9.34507 25.2141 9.03679 24.8444 8.7484 24.4533C8.68239 24.3865 8.63624 24.3003 8.61574 24.2055C8.59525 24.1107 8.60131 24.0116 8.63317 23.9204C8.66504 23.8293 8.72128 23.7503 8.79486 23.6933C8.86843 23.6364 8.95605 23.604 9.04673 23.6002C9.16938 23.5717 9.29535 23.5504 9.43788 23.522C9.12298 23.1061 8.8147 22.7222 8.52631 22.3205C8.08875 21.7162 8.21472 21.3962 8.91083 21.2789C8.91083 21.2789 8.93403 21.2505 8.95061 21.2292L7.97605 19.9068ZM7.92633 15.8152C8.26322 15.8806 8.5955 15.9708 8.92077 16.0854C9.05758 16.155 9.20766 16.1893 9.35903 16.1856C9.5104 16.1819 9.65886 16.1402 9.79257 16.0641C9.95283 15.9572 10.1349 15.8936 10.3231 15.8787C10.5113 15.8639 10.7001 15.8982 10.8732 15.9788L9.39148 13.238C9.31524 13.2985 9.2854 13.3127 9.27214 13.3376L7.92633 15.8152ZM15.7559 28.2178V26.4404H14.9173V28.2178H15.7559ZM7.76721 28.2178H8.28764V27.0519H7.76721V28.2178ZM23.0154 28.2178V27.0448H22.5049V28.2178H23.0154Z" fill="white"/>
<path d="M4.92627 2.1114C5.55901 2.14676 6.16091 2.41549 6.63009 2.87213C6.73138 2.96326 6.85919 3.01356 6.9914 3.01432C7.35433 2.98304 7.71914 3.04036 8.05845 3.18196C8.39775 3.32357 8.70273 3.54578 8.95046 3.83191C9.01959 3.89862 9.10939 3.93537 9.20239 3.935C9.46404 3.91226 9.72727 3.94644 9.9763 4.03548C10.2253 4.12452 10.455 4.26658 10.6516 4.45315C10.8482 4.63972 11.0076 4.86695 11.1203 5.12121C11.2329 5.37547 11.2966 5.65151 11.3073 5.93278C11.3166 6.20312 11.2761 6.47276 11.1882 6.72631C11.1002 6.97985 10.9666 7.21232 10.7948 7.41041C10.623 7.6085 10.4165 7.76833 10.187 7.88076C9.95758 7.99319 9.70973 8.05602 9.45763 8.06565C9.13763 8.03695 8.82176 7.96897 8.51622 7.86303C8.4079 7.82983 8.29307 7.82983 8.18474 7.86303C7.87144 8.01131 7.53275 8.08789 7.19029 8.08789C6.84784 8.08789 6.50915 8.01131 6.19585 7.86303C6.08094 7.8205 5.95607 7.8205 5.84116 7.86303C5.43395 8.04083 4.99346 8.11346 4.55524 8.07506C4.11703 8.03666 3.69338 7.88831 3.31848 7.64197C2.94359 7.39563 2.62796 7.05821 2.39707 6.65695C2.16619 6.25569 2.02652 5.80184 1.98934 5.33203C1.96283 4.90781 2.02009 4.48236 2.15741 4.0835C2.29472 3.68464 2.50897 3.32135 2.78618 3.01737C3.06338 2.71339 3.39728 2.47557 3.76606 2.31946C4.13484 2.16334 4.53019 2.09245 4.92627 2.1114ZM2.88434 5.08319C2.88024 5.43447 2.96229 5.78073 3.12226 6.0873C3.28223 6.39387 3.5145 6.64998 3.79582 6.82998C4.07714 7.00998 4.39763 7.10756 4.72518 7.11293C5.05273 7.1183 5.37584 7.03127 5.66216 6.86058C5.77412 6.77565 5.90788 6.73004 6.04502 6.73004C6.18216 6.73004 6.31593 6.77565 6.42789 6.86058C6.65729 7.03073 6.9296 7.12188 7.20853 7.12188C7.48745 7.12188 7.75976 7.03073 7.98917 6.86058C8.0932 6.7626 8.22693 6.70856 8.3654 6.70856C8.50386 6.70856 8.63759 6.7626 8.74163 6.86058C8.92129 7.02391 9.14917 7.11357 9.3847 7.11357C9.62024 7.11357 9.84812 7.02391 10.0278 6.86058C10.2023 6.70284 10.3233 6.4876 10.3719 6.2484C10.4205 6.0092 10.3939 5.7595 10.2963 5.5382C10.1991 5.30867 10.0293 5.12346 9.8169 5.01543C9.60452 4.90741 9.36332 4.88356 9.13609 4.94811C8.99285 5.00472 8.83516 5.00265 8.69325 4.9423C8.55135 4.88196 8.43519 4.76757 8.36705 4.62107C8.21966 4.3766 8.00585 4.18654 7.7545 4.07656C7.50315 3.96658 7.22637 3.94198 6.96157 4.0061C6.80776 4.05451 6.64385 4.05153 6.49166 3.99755C6.33947 3.94357 6.20622 3.84116 6.10966 3.70394C5.85409 3.4046 5.51838 3.19743 5.14862 3.11086C4.77886 3.0243 4.39318 3.0626 4.04453 3.22049C3.7005 3.3723 3.40643 3.63054 3.1998 3.96229C2.99317 4.29403 2.88335 4.68425 2.88434 5.08319Z" fill="white"/>
<path d="M24.3279 0C24.9526 0.00709397 25.561 0.215009 26.0744 0.596862C26.5878 0.978715 26.9826 1.51695 27.2077 2.14196C27.4328 2.76698 27.4778 3.45004 27.3371 4.10283C27.1963 4.75562 26.8762 5.34811 26.4181 5.80371C25.96 6.2593 25.3849 6.55704 24.7673 6.65844C24.1497 6.75983 23.518 6.66021 22.9538 6.37246C22.3895 6.08471 21.9188 5.62206 21.6023 5.04433C21.2859 4.4666 21.1384 3.80036 21.1788 3.13175C21.2405 2.2808 21.5988 1.48599 22.1823 0.905614C22.7659 0.325241 23.532 0.00190263 24.3279 0ZM24.2848 5.70896C24.7218 5.70825 25.1489 5.56844 25.5117 5.30723C25.8746 5.04603 26.1571 4.67519 26.3233 4.2417C26.4895 3.80821 26.5319 3.33158 26.4453 2.87218C26.3586 2.41279 26.1468 1.99131 25.8366 1.66114C25.5264 1.33097 25.1318 1.10698 24.7027 1.01753C24.2737 0.928076 23.8296 0.9772 23.4266 1.15867C23.0237 1.34015 22.68 1.64581 22.4392 2.03692C22.1983 2.42804 22.0712 2.88702 22.0738 3.3557C22.0773 3.98175 22.3119 4.58082 22.7262 5.02183C23.1406 5.46285 23.701 5.70991 24.2848 5.70896Z" fill="white"/>
</svg>
