<svg width="83" height="83" viewBox="0 0 83 83" fill="none" xmlns="http://www.w3.org/2000/svg">
<circle cx="41.207" cy="41.207" r="41.207" fill="#D3D3D3"/>
<path d="M44.299 54.5722C44.299 54.7871 44.3117 55.0019 44.2864 55.2168C44.2232 55.8614 43.9199 56.3669 43.3133 56.6576C42.7445 56.9103 42.239 56.784 41.7461 56.4301C37.7523 53.5612 33.7459 50.7049 29.7522 47.8359C29.234 47.4694 28.7032 47.2798 28.0586 47.2925C26.681 47.3177 25.3034 47.3051 23.9132 47.3051C22.8137 47.2925 22.1691 46.6605 22.1691 45.561C22.1565 42.5025 22.1565 39.444 22.1691 36.3728C22.1691 35.3112 22.8263 34.6666 23.8879 34.6666C25.2908 34.654 26.6937 34.6414 28.0839 34.6666C28.7158 34.6793 29.234 34.5023 29.7395 34.1485C29.8406 34.0726 29.9544 33.9968 30.0555 33.921L27.3761 31.507H27.3635C26.2008 31.4817 25.038 31.4944 23.8753 31.507C21.0696 31.5197 19.0095 33.5671 19.0095 36.3728C18.9968 39.444 18.9968 42.5278 19.0095 45.5989C19.0095 48.392 21.0822 50.4521 23.8879 50.4647C25.1012 50.4647 26.3145 50.4521 27.5404 50.4774C27.8059 50.4774 28.1218 50.5785 28.3367 50.7301C32.2167 53.4853 36.0841 56.2531 39.9514 59.0083C41.1394 59.8551 42.4412 60.1711 43.882 59.7793C46.0432 59.1853 47.446 57.3021 47.4587 54.964V49.5295L44.299 46.6985V54.5722ZM47.446 26.8813C47.4334 24.9224 46.5361 23.4184 44.7793 22.5337C43.0605 21.649 41.4175 21.9018 39.863 23.014C37.1836 24.9224 34.5169 26.8308 31.8502 28.7392L34.2641 30.9004C36.716 29.1436 39.1552 27.3995 41.6071 25.6428C42.1505 25.251 42.6813 24.9982 43.3385 25.3395C44.0336 25.6933 44.299 26.2747 44.299 27.033V39.899L47.4587 42.73V40.9985C47.4587 36.2844 47.484 31.5829 47.446 26.8813Z" fill="black"/>
<path d="M63.2813 40.5296C63.1676 45.4966 61.9669 49.6925 59.237 53.2945L56.8989 51.1965C58.5798 48.9342 59.5656 46.3433 59.9195 43.487C60.5641 38.2547 59.4013 33.5279 55.8625 29.4963C55.1927 28.7253 55.1927 27.7901 55.8878 27.1708C56.5703 26.5515 57.5182 26.6273 58.2007 27.3856C60.8042 30.2419 62.3082 33.6164 62.9401 37.3953C63.1423 38.5833 63.2055 39.784 63.2813 40.5296Z" fill="black"/>
<path d="M56.937 40.758C56.8486 43.9303 56.0397 46.597 54.2956 48.8719L51.9322 46.7487C54.3967 43.311 54.4094 38.4199 51.7932 35.0455C51.591 34.78 51.3635 34.5399 51.1486 34.2998C50.4535 33.5415 50.4282 32.6062 51.0854 31.9743C51.7679 31.3171 52.7158 31.3803 53.4488 32.1512C55.2435 34.0344 56.3051 36.2714 56.7222 38.8244C56.8486 39.5448 56.8865 40.2904 56.937 40.758Z" fill="black"/>
<path d="M62.2604 59.4382C61.7927 59.9564 60.9333 59.9438 60.3267 59.4003L46.3233 46.8377L43.1636 44.0067L29.9817 32.1771L27.5678 30.0159L22.2596 25.2512C21.653 24.7204 21.5519 23.861 22.0195 23.3428C22.4871 22.8246 23.3465 22.8372 23.9405 23.3681L29.6658 28.5119L32.0797 30.6731L43.1636 40.6196L46.3233 43.4506L50.0011 46.7492L52.3392 48.8472L54.968 51.2106L57.3061 53.2959L62.0202 57.5298C62.6142 58.0606 62.728 58.9201 62.2604 59.4382Z" fill="black"/>
</svg>
