<svg width="33" height="31" viewBox="0 0 33 31" fill="none" xmlns="http://www.w3.org/2000/svg">
<path d="M32.9991 28.1545C32.7133 27.3156 32.5446 26.4434 32.295 25.5939C32.2614 25.4789 32.2338 25.3603 32.1891 25.2496C32.035 24.8649 31.6907 24.6786 31.342 24.7858C30.9503 24.9061 30.7437 25.2566 30.8333 25.6827C30.8961 25.9822 30.9873 26.2756 31.0597 26.5734C31.076 26.641 31.1328 26.7332 31.0467 26.7789C31.0063 26.8 30.9236 26.7622 30.8711 26.7315C29.6246 25.9989 28.3807 25.2619 27.1333 24.5302C26.931 24.4116 26.9594 24.2227 26.9594 24.0392C26.9594 21.7711 26.9594 19.5031 26.9594 17.235C26.9594 16.1616 26.9534 15.0873 26.962 14.0139C26.9655 13.5975 26.8028 13.32 26.4395 13.1153C23.4687 11.4454 20.504 9.76329 17.5358 8.08729C17.3602 7.98803 17.2147 7.89492 17.2164 7.64897C17.2241 6.00547 17.2207 4.36197 17.2224 2.71847C17.2224 2.68685 17.2345 2.65523 17.2465 2.59637C17.5048 2.71672 17.6434 2.95828 17.8379 3.13045C17.9516 3.23058 18.048 3.3518 18.1633 3.44843C18.4483 3.68648 18.7986 3.67154 19.0707 3.41944C19.3522 3.15768 19.4038 2.82476 19.2049 2.50326C19.1542 2.42069 19.0879 2.34691 19.0199 2.27751C18.376 1.61783 17.732 0.957267 17.0838 0.301976C16.6896 -0.096821 16.3263 -0.101213 15.9363 0.292313C15.2795 0.954632 14.6261 1.62134 13.9779 2.29157C13.6129 2.66928 13.594 3.06896 13.9099 3.39045C14.2327 3.71898 14.6132 3.70053 14.9808 3.32018C15.221 3.07159 15.4422 2.80456 15.6651 2.55333C15.8296 2.67631 15.7891 2.78347 15.7891 2.87395C15.7917 4.42961 15.7848 5.98527 15.7969 7.54093C15.7986 7.82465 15.6884 7.96871 15.4542 8.10047C12.5024 9.76066 9.55745 11.434 6.60475 13.0925C6.20704 13.3156 6.04519 13.6151 6.04606 14.071C6.05466 17.38 6.04606 20.6889 6.05639 23.9979C6.05725 24.3115 5.96083 24.488 5.68794 24.6435C4.51633 25.3111 3.36022 26.0059 2.19635 26.6876C2.11888 26.7332 2.03796 26.8465 1.94499 26.7649C1.87612 26.7042 1.9424 26.5988 1.9622 26.5171C2.02935 26.2404 2.11457 25.969 2.17397 25.6906C2.26522 25.2619 2.06465 24.9132 1.67296 24.7893C1.31399 24.676 0.933495 24.8613 0.814697 25.276C0.531479 26.2642 0.269779 27.2585 0.0252991 28.2573C-0.0728378 28.6578 0.119991 28.9881 0.509094 29.1023C1.47841 29.3869 2.45289 29.6557 3.43081 29.9087C3.80958 30.0071 4.172 29.7506 4.27099 29.3737C4.36741 29.0057 4.18749 28.6473 3.81302 28.5094C3.56166 28.4171 3.29652 28.3627 3.03912 28.2836C2.93066 28.2502 2.75074 28.2704 2.7361 28.1501C2.71803 28.006 2.90225 27.9762 3.00727 27.9129C3.49795 27.6187 3.99208 27.3314 4.48448 27.0416C5.14475 26.6533 5.8119 26.2765 6.46271 25.8724C6.69944 25.7257 6.88366 25.7441 7.11437 25.875C9.97496 27.5001 12.8476 29.1041 15.697 30.7484C16.2712 31.0796 16.7223 31.0866 17.3008 30.7528C20.1588 29.1014 23.0409 27.4931 25.9109 25.8627C26.1348 25.7354 26.3104 25.7354 26.5342 25.8698C27.7187 26.5795 28.9136 27.2726 30.1041 27.9727C30.1756 28.0148 30.2616 28.0473 30.3012 28.187C30.0697 28.252 29.8364 28.3161 29.6048 28.3829C29.4499 28.4277 29.2906 28.4619 29.1434 28.5261C28.8042 28.6745 28.6415 29.0408 28.7423 29.3939C28.8413 29.7418 29.189 30.0044 29.5325 29.9166C30.5423 29.6583 31.5443 29.3702 32.5489 29.0891C32.7607 29.0303 32.8648 28.8361 33 28.6824V28.1562L32.9991 28.1545ZM17.2345 29.0347V28.6429C17.2345 25.839 17.2405 23.036 17.2259 20.233C17.2241 19.8957 17.3421 19.7262 17.6184 19.5716C20.1295 18.1644 22.6328 16.744 25.1388 15.3271C25.4426 15.155 25.4521 15.1576 25.4521 15.5072C25.453 18.3541 25.4495 21.2019 25.4573 24.0488C25.4573 24.3027 25.372 24.4423 25.1551 24.5636C23.4429 25.5219 21.7376 26.4925 20.0296 27.4579C19.1206 27.9718 18.2107 28.4839 17.2345 29.0347ZM15.7719 24.3844C15.7719 25.8083 15.7719 27.2313 15.7719 28.6552C15.7719 29.032 15.7685 29.0364 15.4439 28.8528C12.9001 27.4149 10.3589 25.9743 7.81337 24.5407C7.63173 24.438 7.55082 24.3185 7.55082 24.1033C7.55598 21.223 7.55512 18.3427 7.55082 15.4633C7.55082 15.2182 7.61021 15.1769 7.82284 15.2981C10.3735 16.7457 12.9251 18.1898 15.4809 19.6278C15.6961 19.749 15.7788 19.8931 15.7771 20.1469C15.7659 21.5594 15.7719 22.971 15.7719 24.3844ZM24.6507 13.8453C24.5525 13.9138 24.5112 13.948 24.4656 13.9744C21.8744 15.4387 19.2824 16.9021 16.693 18.3708C16.5363 18.4595 16.4218 18.4323 16.2789 18.3506C13.7265 16.9047 11.1724 15.4633 8.61913 14.0183C8.54165 13.9744 8.43318 13.9568 8.4108 13.825C8.46331 13.7908 8.51496 13.753 8.57006 13.7223C11.1509 12.2615 13.7334 10.8024 16.3108 9.33639C16.4855 9.23713 16.6069 9.29247 16.7533 9.37592C18.4698 10.3492 20.1898 11.3181 21.9071 12.2896C22.8067 12.7982 23.7046 13.3094 24.6498 13.8461L24.6507 13.8453Z" fill="white"/>
</svg>
