<svg width="372" height="319" viewBox="0 0 372 319" fill="none" xmlns="http://www.w3.org/2000/svg">
<path d="M27.7605 85.502C27.4705 81.192 27.1705 77.352 26.9705 73.502C26.7905 69.892 28.4805 67.602 32.0305 66.682C35.8905 65.682 39.7305 64.582 43.6105 63.642C45.5005 63.182 46.5105 62.502 46.5805 60.212C46.7605 54.052 47.7705 53.002 53.6405 51.432C115.941 34.792 178.241 18.152 240.531 1.51196C247.68 -0.398037 250.741 1.79196 250.391 8.97196C249.081 35.462 256.801 59.922 267.211 83.762C270.741 91.842 274.671 99.762 278.811 108.602C281.191 104.542 283.161 101.182 285.131 97.832C291.631 86.812 303.221 86.812 309.651 97.832C313.041 103.652 316.451 109.452 319.731 115.332C320.641 116.972 321.561 117.442 323.531 117.242C332.021 116.402 338.821 119.592 343.071 127.012C347.241 134.292 346.651 141.652 341.731 148.442C340.471 150.172 340.481 151.302 341.531 153.032C344.881 158.582 348.131 164.192 351.291 169.852C356.971 180.012 350.711 190.392 339.071 190.202C332.201 190.092 325.331 189.942 318.461 189.832C318.111 189.832 317.761 190.002 317.251 190.142C318.611 196.222 320.561 202.202 321.171 208.312C322.011 216.812 323.201 225.642 321.841 233.932C319.101 250.672 308.491 261.552 292.071 266.002C245.611 278.612 199.07 290.962 152.561 303.402C135.331 308.012 118.111 312.652 100.861 317.182C81.6205 322.232 63.5305 314.542 53.5505 297.342C44.8705 282.382 39.3505 266.242 36.8005 249.272C34.0105 230.672 32.0505 211.942 29.9705 193.252C26.9905 166.372 22.4205 139.942 9.63051 115.652C7.14051 110.922 4.24051 106.392 1.50051 101.792C-1.44949 96.842 -0.0494919 93.102 5.50051 91.552C12.8205 89.512 20.1705 87.572 27.7605 85.522V85.502ZM125.881 297.942C127.291 297.662 128.141 297.542 128.961 297.322C159.931 289.052 190.9 280.772 221.87 272.482C243.921 266.582 265.971 260.682 288.021 254.762C301.721 251.082 309.881 241.662 310.681 227.962C311.391 215.852 308.761 204.172 305.071 192.722C304.841 192.002 303.69 190.992 303.111 191.072C297.901 191.832 292.721 192.802 287.071 193.802C293.031 204.132 298.54 213.612 303.991 223.122C306.561 227.612 305.771 230.482 301.411 233.132C289.231 240.512 278.801 237.882 271.701 225.642C268.221 219.642 264.751 213.632 261.201 207.492C253.971 211.562 246.681 212.882 238.861 211.212C237.01 210.822 234.881 210.792 233.061 211.272C205.32 218.582 177.611 226.022 149.881 233.402C145.291 234.622 141.971 233.192 141.021 229.682C140.031 226.032 142.111 223.082 146.581 221.892C165.621 216.822 184.681 211.772 203.721 206.692C210.041 205.002 216.331 203.232 223.031 201.392C218.12 195.232 216.201 188.532 216.251 181.032C214.891 181.282 213.921 181.402 212.98 181.652C198.88 185.412 184.781 189.202 170.691 192.972C160.451 195.712 150.201 198.432 139.961 201.172C136.721 202.042 134.26 201.002 132.721 198.102C131.301 195.432 131.951 192.892 134.211 191.062C135.411 190.092 137.071 189.572 138.611 189.162C160.661 183.262 182.751 177.482 204.781 171.502C213.031 169.262 221.401 167.932 227.551 160.262C231.131 155.792 237.54 153.362 242.98 150.632C251.391 146.412 257.741 140.092 263.201 132.682C265.571 129.472 267.681 126.072 270.131 122.922C271.531 121.132 271.241 119.732 270.311 117.882C266.551 110.432 262.831 102.952 259.321 95.382C249.301 73.812 241.171 51.652 238.87 27.762C238.46 23.492 238.331 19.202 238.051 14.562C177.901 30.642 118.201 46.602 58.4005 62.592C58.4005 64.222 58.4005 65.462 58.4005 66.702C58.4505 86.062 62.5805 104.722 70.3005 122.272C80.2205 144.822 91.2705 166.892 102.181 189.002C111.281 207.442 120.911 225.672 126.241 245.652C130.821 262.842 134.571 280.222 125.891 297.952L125.881 297.942ZM15.6105 101.212C15.9805 102.042 16.0905 102.402 16.2805 102.712C29.5405 125.212 36.5005 149.762 39.7505 175.442C42.4405 196.702 44.5005 218.042 47.2605 239.292C49.3405 255.292 53.4505 270.792 60.6705 285.362C61.7305 287.492 63.0105 288.502 65.4205 288.802C76.8105 290.212 87.5005 281.452 87.5905 269.712C87.6505 262.292 87.0705 254.742 85.7005 247.442C82.0505 227.972 74.0005 209.962 66.3405 191.832C56.2105 167.872 46.1105 143.902 36.3705 119.782C33.5105 112.692 31.9005 105.092 29.6505 97.462C25.0205 98.702 20.5005 99.912 15.6205 101.222L15.6105 101.212ZM46.1705 75.392C37.1505 77.642 39.4205 75.922 39.8605 84.232C39.9605 86.212 40.4505 88.172 40.8105 90.132C44.6705 111.122 52.6905 130.722 61.0105 150.212C70.2505 171.862 79.9105 193.352 88.6805 215.192C95.6305 232.492 100.321 250.452 99.7605 269.392C99.3305 284.002 89.9605 296.012 75.8805 299.792C74.7705 300.092 73.6705 300.432 71.8305 300.962C74.2205 302.302 75.8705 303.402 77.6505 304.202C97.2505 313.002 119.031 298.852 119.021 277.242C119.021 258.792 113.751 241.472 106.011 225.042C95.5105 202.722 84.1505 180.812 73.1805 158.712C63.8005 139.812 55.3305 120.542 50.5905 99.892C48.7605 91.912 47.6605 83.762 46.1805 75.382L46.1705 75.392ZM286.501 119.612C285.751 120.672 285.351 121.272 284.921 121.842C277.971 131.252 270.98 140.622 264.151 150.112C263.531 150.972 263.51 152.902 264.051 153.872C269.1 162.892 274.401 171.772 279.471 180.782C280.601 182.792 281.691 183.162 283.921 182.642C289.981 181.242 296.101 179.972 302.251 179.092C307.961 178.272 313.751 178.022 319.971 177.482C308.761 158.102 297.801 139.152 286.501 119.622V119.612ZM252.87 158.652C247.811 161.572 243.081 164.292 238.361 167.032C237.281 167.652 236.191 168.272 235.201 169.012C228.361 174.112 226.331 183.622 230.471 191.102C234.581 198.532 243.921 202.162 251.711 198.632C258.01 195.782 263.891 192.012 270.161 188.532C264.341 178.472 258.751 168.792 252.881 158.642L252.87 158.652ZM297.761 101.212C292.971 106.672 292.961 106.812 296.011 112.082C308.051 132.902 320.101 153.722 332.141 174.542C334.361 178.382 337.041 179.202 341.691 177.152C327.101 151.942 312.541 126.772 297.761 101.212ZM291.111 224.762C286.061 216.032 281.171 207.592 276.121 198.862C274.461 199.862 273.151 200.642 271.631 201.552C275.781 208.692 279.621 215.522 283.691 222.212C285.221 224.732 287.701 225.682 291.111 224.762ZM329.941 129.292C329.431 129.612 328.931 129.932 328.421 130.252C329.961 132.832 331.501 135.412 333.041 138.002C333.511 137.722 333.98 137.452 334.461 137.172L329.941 129.292Z" fill="#DA7A36"/>
<path d="M342.849 96.4008C341.829 99.8508 340.949 104.021 339.319 107.881C338.229 110.461 335.599 111.501 332.679 110.611C329.849 109.751 327.979 107.711 328.469 104.811C329.169 100.681 330.219 96.5308 331.759 92.6408C332.799 90.0108 335.489 89.0908 338.389 89.9208C341.279 90.7508 342.569 92.8308 342.839 96.4008H342.849Z" fill="#DA7A36"/>
<path d="M354.111 127.693C351.911 125.723 349.861 124.513 348.721 122.723C347.201 120.343 348.051 117.633 350.271 116.093C353.521 113.833 357.041 111.903 360.601 110.163C363.171 108.903 365.921 109.823 367.081 112.173C367.981 114.003 368.421 117.653 367.381 118.563C363.541 121.913 358.991 124.453 354.121 127.693H354.111Z" fill="#DA7A36"/>
<path d="M364.629 153.993C361.549 153.103 357.639 152.253 353.949 150.823C351.019 149.683 350.129 146.973 350.919 143.993C351.739 140.943 354.079 139.273 357.079 139.743C360.869 140.333 364.629 141.393 368.239 142.713C371.099 143.763 372.449 146.303 371.739 149.353C370.999 152.523 368.749 154.083 364.629 153.993Z" fill="#DA7A36"/>
<path d="M204.949 45.6213C211.829 45.5913 216.329 49.3313 218.129 56.0213C222.179 71.0413 226.179 86.0813 230.219 101.101C232.379 109.151 234.599 117.191 236.739 125.251C239.079 134.071 235.549 140.141 226.739 142.491C199.519 149.771 172.299 157.051 145.069 164.291C136.299 166.621 130.439 163.221 128.079 154.481C121.869 131.531 115.679 108.581 109.529 85.6113C107.069 76.4313 110.429 70.6613 119.659 68.1813C146.869 60.8713 174.089 53.6013 201.319 46.3313C202.759 45.9513 204.249 45.7513 204.959 45.6213H204.949ZM131.549 121.281C136.509 114.921 141.009 109.141 145.509 103.371C149.529 98.2213 151.669 97.8613 157.139 101.451C162.229 104.791 167.299 108.141 172.609 111.651C178.559 102.371 184.269 93.4613 189.979 84.5613C193.979 78.3213 196.729 77.8813 202.619 82.5113C206.629 85.6713 210.649 88.8313 214.659 91.9813C214.849 91.8013 215.029 91.6313 215.219 91.4513C212.189 80.2113 209.149 68.9613 206.049 57.4613C177.319 65.1413 149.049 72.6913 120.529 80.3213C124.209 94.0213 127.779 107.281 131.549 121.291V121.281ZM166.119 121.731C161.719 118.831 157.499 116.051 153.099 113.151C147.409 120.471 141.889 127.541 136.419 134.651C135.999 135.191 135.599 136.071 135.749 136.661C137.139 142.151 138.639 147.621 140.159 153.271C168.979 145.561 197.249 137.991 225.639 130.391C224.069 124.501 222.639 119.091 221.149 113.701C220.929 112.901 220.539 111.971 219.929 111.481C212.759 105.741 205.529 100.071 198.079 94.1913C194.349 100.001 190.849 105.441 187.359 110.881C182.579 118.331 177.869 125.831 172.989 133.211C170.829 136.481 167.449 137.171 164.559 135.321C161.689 133.481 161.029 130.101 162.949 126.771C163.879 125.161 164.929 123.631 166.129 121.741L166.119 121.731Z" fill="#DA7A36"/>
<path d="M155.532 266.641C152.332 266.191 150.232 264.711 149.652 261.571C149.082 258.501 150.772 255.771 154.152 254.811C161.352 252.761 168.592 250.861 175.822 248.931C204.502 241.271 233.182 233.611 261.872 225.961C262.712 225.731 263.562 225.501 264.412 225.331C268.052 224.581 271.102 226.351 271.952 229.671C272.732 232.731 270.962 235.791 267.462 236.781C259.662 238.991 251.812 241.021 243.982 243.121C215.792 250.671 187.592 258.231 159.402 265.771C158.082 266.121 156.732 266.371 155.542 266.641H155.532Z" fill="#DA7A36"/>
<path d="M174.112 90.6616C174.182 94.5616 171.342 97.6116 167.492 97.7616C163.422 97.9216 160.272 94.9916 160.182 90.9616C160.092 86.9416 163.152 83.8416 167.192 83.8516C171.092 83.8716 174.042 86.7716 174.122 90.6516L174.112 90.6616Z" fill="#DA7A36"/>
</svg>
