<svg width="87" height="93" viewBox="0 0 87 93" fill="none" xmlns="http://www.w3.org/2000/svg">
<path d="M14.8212 92.0226C13.9512 91.4691 13.7921 90.6904 13.8794 89.7583C14.349 84.674 18.8886 80.6582 24.3675 80.5312C25.5839 80.5025 26.8002 80.5264 28.0885 80.5264C28.8173 78.1496 29.5358 75.8015 30.2929 73.3312C29.8438 73.3312 29.505 73.3312 29.1663 73.3312C22.6866 73.3312 16.2095 73.3335 9.7298 73.3312C3.95582 73.3288 0.00641553 69.6437 0.00384932 64.2526C-0.00128311 50.1783 -0.00128311 36.104 0.00384932 22.0297C0.00384932 16.6386 3.95325 12.9631 9.73493 12.9559C10.5689 12.9559 11.403 12.9368 12.237 12.9631C13.2147 12.9943 13.8614 13.5933 13.8511 14.4079C13.8409 15.2202 13.1916 15.8 12.2062 15.824C11.1489 15.8504 10.0891 15.8096 9.03179 15.8408C5.81632 15.9318 3.1141 18.371 3.10383 21.3684C3.06534 33.7966 3.08844 46.2225 3.08844 58.6507C3.08844 58.7082 3.11153 58.7657 3.15003 58.9598H4.22784C13.3687 58.9598 22.5095 58.9741 31.6504 58.9406C32.7436 58.9358 33.5109 59.2425 34.0062 60.1386C34.0216 60.165 34.0395 60.1889 34.0575 60.2153C34.8017 61.224 35.3252 62.6065 36.3517 63.1313C37.3422 63.6392 38.8537 63.2678 40.1343 63.2702C43.0213 63.275 45.9083 63.2415 48.7927 63.2894C49.6472 63.3038 50.2195 63.1265 50.6455 62.3861C51.1151 61.5738 51.7669 60.8526 52.2699 60.0547C52.7831 59.2425 53.476 58.9406 54.4871 58.943C63.628 58.9693 72.7688 58.9574 81.9097 58.9574C82.2869 58.9574 82.6667 58.9574 83.144 58.9574C83.144 58.562 83.144 58.2409 83.144 57.9223C83.144 45.9733 83.144 34.0243 83.144 22.0776C83.144 18.1889 80.6035 15.8312 76.418 15.8288C75.6173 15.8288 74.8141 15.8456 74.0134 15.8216C73.0229 15.7929 72.3813 15.2154 72.3762 14.3984C72.371 13.5813 73.0152 12.9607 73.9955 12.9655C75.4993 12.9703 77.0262 12.908 78.5017 13.1189C82.9182 13.749 86.1927 17.2448 86.2055 21.4044C86.244 35.898 86.2491 50.3915 86.2055 64.8851C86.1901 69.5838 82.0688 73.2952 76.9748 73.3216C70.3668 73.3575 63.7614 73.3312 57.1534 73.3312C56.8018 73.3312 56.4528 73.3312 55.9447 73.3312C56.6812 75.7535 57.3946 78.0897 58.1337 80.5192C59.1987 80.5192 60.2457 80.5169 61.2927 80.5192C67.1154 80.5408 71.5242 84.1325 72.3146 89.4876C72.4609 90.4796 72.4095 91.3924 71.4087 92.0202H14.8212V92.0226ZM3.08074 61.8326C3.08074 62.6496 3.08074 63.3613 3.08074 64.0753C3.08074 68.1437 5.5751 70.4583 9.95306 70.4583C27.5958 70.4583 45.2385 70.4583 62.8786 70.4583C67.562 70.4583 72.2453 70.4703 76.9286 70.4535C79.695 70.4439 82.1201 68.9033 82.7847 66.4713C83.1851 65.0049 83.1235 63.4284 83.2595 61.9764C82.9849 61.8733 82.9541 61.8542 82.9259 61.8542C73.6875 61.847 64.4517 61.835 55.2133 61.8542C54.9362 61.8542 54.5718 62.0842 54.3973 62.307C53.6685 63.2534 52.9807 64.231 52.3084 65.2134C51.8721 65.8483 51.3076 66.1574 50.4787 66.1526C45.5721 66.1359 40.6629 66.1359 35.7563 66.1526C34.93 66.155 34.3577 65.8627 33.9215 65.223C33.321 64.3388 32.6435 63.4978 32.0789 62.5945C31.712 62.0075 31.2783 61.811 30.5418 61.8134C23.1331 61.8422 15.7219 61.8302 8.31325 61.8302H3.08074V61.8326ZM17.1769 89.0947H69.0863C69.0581 88.9221 69.0529 88.8047 69.0196 88.6921C68.0855 85.5222 65.083 83.4041 61.4441 83.3993C52.914 83.3873 44.3839 83.3945 35.8538 83.3945C32.0687 83.3945 28.2861 83.3681 24.5009 83.4041C20.9082 83.44 17.7389 85.9175 17.1795 89.0922L17.1769 89.0947ZM33.4904 73.3551C32.7564 75.7631 32.0456 78.0993 31.3193 80.4881H54.9182C54.174 78.0657 53.4504 75.7008 52.7293 73.3551H33.4904Z" fill="#09BAEB"/>
<path d="M43.692 0.0141148C45.7065 1.09952 47.7133 2.20169 49.7406 3.27032C55.7661 6.44506 61.7915 9.6246 67.8427 12.761C68.8999 13.3097 69.3208 13.9806 69.3157 15.1187C69.272 23.294 69.2772 31.4692 69.3131 39.6445C69.3182 40.7179 68.8922 41.3457 67.9094 41.8584C60.0773 45.9412 52.2581 50.0456 44.4516 54.1716C43.515 54.6676 42.7528 54.6868 41.7853 54.1716C33.9866 50.0313 26.1648 45.9317 18.3327 41.8512C17.3524 41.3409 16.9187 40.7203 16.9239 39.6445C16.9624 31.4381 16.9598 23.2341 16.9239 15.0276C16.9187 13.9614 17.3242 13.3265 18.3148 12.8113C26.1776 8.7189 34.0174 4.58814 41.8623 0.464569C42.1036 0.337579 42.3166 0.165065 42.5424 0.0117188C42.9273 0.0117188 43.3122 0.0117188 43.6972 0.0117188L43.692 0.0141148ZM66.2106 27.3672C66.2106 23.5959 66.2003 19.8221 66.2234 16.0508C66.2259 15.4877 66.0951 15.1427 65.5202 14.8432C58.2784 11.067 51.0519 7.2669 43.8306 3.45482C43.3251 3.18886 42.9427 3.17448 42.4295 3.44523C35.1825 7.27409 27.9252 11.0862 20.6603 14.8839C20.1727 15.1403 20.0059 15.4182 20.0059 15.9286C20.0239 23.5336 20.0239 31.1362 20.0059 38.7412C20.0059 39.2635 20.1984 39.5295 20.6757 39.7787C27.9406 43.5788 35.1979 47.3908 42.4423 51.2197C42.9607 51.4952 43.3405 51.4593 43.8434 51.1957C51.0365 47.398 58.2373 43.6147 65.4484 39.8505C66.0284 39.5486 66.2337 39.2132 66.2285 38.595C66.1952 34.8524 66.2131 31.1098 66.2131 27.3696L66.2106 27.3672Z" fill="#09BAEB"/>
<path d="M76.9896 38.1167C76.9896 40.1222 76.9639 42.1277 77.0024 44.1331C77.0178 44.967 76.7099 45.5492 75.9605 46.0068C73.0966 47.7631 70.2558 49.553 67.3971 51.3188C66.4219 51.9226 65.4185 51.8196 64.9258 51.1056C64.4023 50.3461 64.6666 49.5721 65.6957 48.9276C68.226 47.3486 70.7486 45.7601 73.3019 44.2122C73.8075 43.9055 73.9255 43.5581 73.923 43.0358C73.9024 39.3555 73.8947 35.6728 73.9332 31.9925C73.9384 31.5252 74.1052 30.9023 74.449 30.6387C74.816 30.356 75.6141 30.193 75.9862 30.3823C76.4481 30.6195 76.9203 31.2593 76.946 31.7457C77.0486 33.8661 76.9896 35.9938 76.9922 38.1191L76.9896 38.1167Z" fill="#09BAEB"/>
<path d="M12.3184 37.5695C12.3184 39.3929 12.3491 41.2187 12.3004 43.0421C12.285 43.6315 12.5083 43.9478 13.0189 44.2568C15.5133 45.7735 17.9871 47.319 20.4481 48.8812C20.8279 49.1232 21.3283 49.473 21.3848 49.8252C21.4618 50.3092 21.3335 50.9969 20.9922 51.3227C20.4071 51.8786 19.5884 51.7924 18.875 51.3491C16.6655 49.9738 14.4406 48.6152 12.2465 47.216C8.65637 44.9253 9.28509 46.0227 9.2466 41.9471C9.21324 38.5974 9.23377 35.2478 9.24403 31.8981C9.2466 30.8199 9.92151 30.1466 10.8838 30.2113C11.7461 30.2688 12.3055 30.875 12.3132 31.8262C12.3286 33.7407 12.3184 35.6551 12.3184 37.5671V37.5695Z" fill="#09BAEB"/>
<path d="M48.8329 38.0198C50.5266 37.1189 52.1921 36.2395 53.8499 35.3506C54.8738 34.7995 56.2775 34.4449 56.7985 33.6135C57.3194 32.7796 56.9601 31.4642 56.973 30.3596C56.9832 29.4012 56.9601 28.4428 56.9807 27.4868C57.0012 26.5116 57.6351 25.8863 58.5409 25.9006C59.4109 25.915 60.037 26.5212 60.0473 27.4461C60.0678 29.7511 60.0473 32.056 60.0601 34.361C60.0653 35.1565 59.5956 35.607 58.9053 35.9735C55.8952 37.5669 52.8901 39.1651 49.9082 40.7992C49.5463 40.998 49.1948 41.3934 49.0742 41.7624C48.1863 44.4771 45.5533 46.2286 42.6073 46.0033C39.7178 45.7805 37.3491 43.6337 36.9976 40.9166C36.6588 38.3025 38.3756 35.7531 41.0727 34.8594C43.893 33.9273 46.8852 34.96 48.4608 37.4088C48.5738 37.5861 48.6841 37.7658 48.8406 38.0222L48.8329 38.0198ZM46.1923 40.3104C46.218 38.7505 44.8553 37.4279 43.1873 37.3944C41.5115 37.3609 40.0899 38.6188 40.0411 40.1762C39.9923 41.7743 41.3858 43.1281 43.0923 43.1377C44.7604 43.1497 46.1692 41.8654 46.1923 40.308V40.3104Z" fill="#09BAEB"/>
<path d="M37.4027 16.6317C34.7518 18.0478 32.1907 19.3991 29.6553 20.796C29.432 20.9182 29.2781 21.3207 29.2729 21.5963C29.2396 23.3909 29.2601 25.1879 29.2524 26.9849C29.2473 28.1087 28.6596 28.7724 27.7024 28.7628C26.7452 28.7556 26.1832 28.0991 26.1781 26.961C26.173 24.8357 26.2063 22.7104 26.1627 20.5851C26.1447 19.6579 26.5476 19.0924 27.397 18.6492C30.3892 17.0893 33.3609 15.496 36.3172 13.8787C36.679 13.6798 37.0357 13.2868 37.1563 12.9155C38.0365 10.1984 40.6515 8.44685 43.6104 8.6601C46.4974 8.86855 48.8634 11.001 49.2355 13.7301C49.5896 16.3274 47.8677 18.9007 45.1783 19.7969C42.3606 20.7361 39.3556 19.7082 37.7825 17.2666C37.667 17.0893 37.5644 16.9048 37.4001 16.6341L37.4027 16.6317ZM43.1048 11.5186C41.4317 11.521 40.0459 12.8124 40.0356 14.3746C40.0279 15.9368 41.4009 17.2427 43.0715 17.2642C44.778 17.2834 46.2048 15.956 46.1894 14.3627C46.174 12.8028 44.778 11.5162 43.1048 11.5186Z" fill="#09BAEB"/>
<path d="M60.0444 21.5434C60.0649 22.3197 59.3823 22.9882 58.5508 23.0097C57.7168 23.0289 57.0034 22.3939 56.9829 21.6128C56.9623 20.8317 57.6398 20.168 58.4764 20.1489C59.3104 20.1297 60.0238 20.7646 60.0444 21.5434Z" fill="#09BAEB"/>
<path d="M29.2479 33.0527C29.2633 33.8291 28.5756 34.4952 27.7415 34.5095C26.9101 34.5239 26.1992 33.8842 26.1838 33.1031C26.1685 32.322 26.8511 31.6631 27.6877 31.6487C28.5217 31.6343 29.2299 32.274 29.2453 33.0527H29.2479Z" fill="#09BAEB"/>
</svg>
