<svg width="27" height="30" viewBox="0 0 27 30" fill="none" xmlns="http://www.w3.org/2000/svg">
<path d="M17.4152 0.932792H18.2827V2.54524L19.1535 2.39266V0H20.0307V2.22968L20.9047 2.08058V0.943195H21.7754V1.9176L22.6494 1.77889V6.53994H23.5234V16.3776L27 15.8505V29.0275H0V15.9303H0.861085C0.919135 15.6979 0.957836 15.4899 1.02556 15.2922C1.25294 14.557 1.72655 13.939 2.35428 13.5584C2.43748 13.5165 2.50609 13.4472 2.55017 13.3605C2.59424 13.2739 2.61148 13.1743 2.59938 13.0764C2.59938 10.3994 2.59938 7.72241 2.59938 5.04886V4.6813H4.3409V1.86558H5.20843V0H9.56223V1.85171H10.4394V4.66049H12.1777V11.2108H15.6704V6.55728H16.538V2.87466C16.7504 2.8189 16.9658 2.77721 17.183 2.74983C17.3797 2.74983 17.4184 2.63886 17.412 2.45161C17.4152 1.95574 17.4152 1.4564 17.4152 0.932792ZM17.4152 11.2386V19.2627H17.47L18.7278 17.4664L19.9952 19.2765L20.0436 19.2557V16.9186L22.6462 16.5128V7.49701H16.567V11.2386H17.4152ZM15.6801 28.0878C15.6801 26.4233 15.722 24.7935 15.6608 23.1637C15.6253 22.2344 15.7898 21.4473 16.4058 20.7815C16.4992 20.6544 16.5482 20.4961 16.5444 20.3342C16.5444 18.3333 16.5444 16.3291 16.5444 14.3282C16.5444 14.2346 16.5444 14.141 16.5444 14.0612H10.4169C10.8784 14.5722 11.1825 15.2235 11.2876 15.9268H12.1906V28.0878H15.6801ZM9.58803 13.4336V11.2247H11.2876V5.62796H3.48304V13.1111C4.91173 13.1111 6.31784 13.1111 7.72396 13.1111C8.36053 13.0522 9.00078 13.163 9.58803 13.4336ZM26.1228 16.9394L20.9111 17.7404C20.937 18.2544 20.937 18.7695 20.9111 19.2835C20.8485 19.7105 20.8814 20.1474 21.007 20.558C21.1326 20.9687 21.3474 21.3413 21.6335 21.6449C21.736 21.7756 21.79 21.9423 21.7851 22.1131C21.7851 24.0064 21.7851 25.8997 21.7851 27.7965V28.0878H26.1228V16.9394ZM10.4427 28.0878H11.3038V18.7495H0.867535V28.0878H1.73829V19.6892H10.4459L10.4427 28.0878ZM20.8918 28.0878V22.5049H16.5638V28.0878H20.8918ZM21.7754 2.87813L17.4442 3.66528V6.52261H21.7754V2.87813ZM10.3685 15.9129C10.2834 15.3988 10.0349 14.9325 9.66553 14.5935C9.29614 14.2545 8.82873 14.0639 8.34317 14.0543C6.83815 14.0266 5.33313 14.0266 3.82812 14.0543C3.34251 14.0651 2.8753 14.256 2.50561 14.5947C2.13592 14.9334 1.88649 15.3991 1.79957 15.9129H10.3685ZM11.307 16.8769H0.87076V17.782H11.307V16.8769ZM5.22133 4.65009H9.55901V2.80878H5.22133V4.65009ZM10.4556 13.0868H16.5283V12.1852H10.4556V13.0868ZM18.731 19.0719L17.0121 21.5409H20.4532C19.8694 20.6913 19.3115 19.8903 18.731 19.0719ZM9.55578 28.0878V26.2569H7.84006V28.0878H9.55578ZM6.93705 28.0878V26.2569H5.22456V28.0878H6.93705ZM4.32477 28.0878V26.2534H2.61228V28.0878H4.32477ZM9.55901 23.4377H7.84651V25.2755H9.55901V23.4377ZM6.93705 25.2859V23.4446H5.22456V25.2859H6.93705ZM2.60905 23.4342V25.279H4.31832V23.4342H2.60905ZM7.84651 20.622V22.4598H9.55901V20.622H7.84651ZM5.22778 20.622V22.4702H6.93383V20.615L5.22778 20.622ZM4.33122 20.622H2.60905V22.4564H4.33122V20.622ZM6.10177 0.932792V1.83437H8.6818V0.932792H6.10177Z" fill="white"/>
<path d="M13.9194 15.9095H13.0809V15.001H13.9194V15.9095Z" fill="white"/>
<path d="M15.6578 15.9095H14.8354V14.9976H15.6707L15.6578 15.9095Z" fill="white"/>
<path d="M13.068 17.7716V16.8804H13.913V17.7716H13.068Z" fill="white"/>
<path d="M14.8354 16.8735H15.674V17.7717H14.8354V16.8735Z" fill="white"/>
<path d="M13.9226 18.7563V19.6545H13.0776V18.7563H13.9226Z" fill="white"/>
<path d="M14.8354 19.6545V18.7563H15.6772V19.6545H14.8354Z" fill="white"/>
<path d="M13.0776 20.6221H13.9129V21.5271H13.0776V20.6221Z" fill="white"/>
<path d="M13.0745 23.3996V22.5015H13.9097V23.3996H13.0745Z" fill="white"/>
<path d="M13.0844 24.3669H13.9132V25.2755H13.0844V24.3669Z" fill="white"/>
<path d="M13.9226 26.25V27.1516H13.0776V26.25H13.9226Z" fill="white"/>
<path d="M19.1827 14.0613H20.018V14.9629H19.1827V14.0613Z" fill="white"/>
<path d="M20.9242 14.9628V14.0647H21.7595V14.9628H20.9242Z" fill="white"/>
<path d="M19.1796 16.8424V15.9512H20.0213V16.8493L19.1796 16.8424Z" fill="white"/>
<path d="M21.7788 12.1887V13.0834H20.9307V12.1887H21.7788Z" fill="white"/>
<path d="M19.1827 12.1853H20.018V13.0869H19.1827V12.1853Z" fill="white"/>
<path d="M20.9242 11.2177V10.3162H21.7659V11.2177H20.9242Z" fill="white"/>
<path d="M20.0277 10.3093V11.2144H19.1827V10.3093H20.0277Z" fill="white"/>
<path d="M17.4155 11.2385V10.3196H18.2669V11.2316H17.4155V11.2385Z" fill="white"/>
<path d="M21.769 8.4436V9.34172H20.9337V8.4436H21.769Z" fill="white"/>
<path d="M20.0275 8.4436V9.34172H19.189V8.4436H20.0275Z" fill="white"/>
<path d="M18.2798 8.43677V9.33488H17.4413V8.43677H18.2798Z" fill="white"/>
<path d="M7.84021 7.46574V6.56763H8.68194V7.46574H7.84021Z" fill="white"/>
<path d="M8.68538 11.2177H7.8501V10.3162H8.68538V11.2177Z" fill="white"/>
<path d="M6.94356 8.4436V9.34172H6.10828V8.4436H6.94356Z" fill="white"/>
<path d="M6.94051 7.46926H6.10522V6.56421H6.94051V7.46926Z" fill="white"/>
<path d="M4.35437 6.56079H5.19288V7.46237H4.35437V6.56079Z" fill="white"/>
<path d="M4.36377 8.43335H5.1926V9.34187H4.36377V8.43335Z" fill="white"/>
<path d="M6.94051 11.2177H6.10522V10.3162H6.94051V11.2177Z" fill="white"/>
<path d="M4.34741 11.2073V10.3196H5.19237V11.2073H4.34741Z" fill="white"/>
<path d="M10.4298 9.36257H9.59131V8.44019H10.4298V9.36257Z" fill="white"/>
<path d="M8.68216 9.36252H7.8501V8.4436H8.68216V9.36252Z" fill="white"/>
<path d="M9.58801 6.56079H10.4233V7.46237H9.58801V6.56079Z" fill="white"/>
<path d="M25.2618 26.2603V27.1514H24.4169V26.2603H25.2618Z" fill="white"/>
<path d="M22.6754 18.7495H23.5139V19.6476H22.6754V18.7495Z" fill="white"/>
<path d="M25.2491 19.6649H24.4203V18.7529H25.2491V19.6649Z" fill="white"/>
<path d="M23.504 21.5409H22.6783V20.6289H23.504V21.5409Z" fill="white"/>
<path d="M25.2521 21.5339H24.4136V20.6323H25.2521V21.5339Z" fill="white"/>
<path d="M22.6689 23.4065V22.5049H23.5107V23.4065H22.6689Z" fill="white"/>
<path d="M25.2618 22.498V23.4031H24.4169V22.498H25.2618Z" fill="white"/>
<path d="M23.5107 25.2825H22.6754V24.3774H23.5107V25.2825Z" fill="white"/>
<path d="M25.2522 25.2824H24.4169V24.3843H25.2522V25.2824Z" fill="white"/>
<path d="M23.5139 26.25V27.1516H22.6721V26.25H23.5139Z" fill="white"/>
<path d="M19.1796 27.1549V23.4446H20.0213V27.1549H19.1796Z" fill="white"/>
<path d="M17.4379 23.4377H18.2732V27.1516H17.4379V23.4377Z" fill="white"/>
</svg>
