<svg
          width="124"
          height="141"
          viewBox="0 0 124 141"
          fill="none"
          xmlns="http://www.w3.org/2000/svg"
        >
          <path
            d="M112.103 11.6953C110.442 8.84029 108.419 6.65122 105.886 5.07064C100.065 1.43877 93.9812 1.61864 88.0886 4.39708C74.5329 10.7921 66.087 22.2197 62.6656 38.2321C61.9786 41.4545 62.464 44.6309 64.0055 47.4974C65.964 51.1407 67.8883 54.8224 70.0382 58.3203C73.7741 64.4053 79.0719 67.7731 85.5627 68.8447C85.8156 68.8868 86.1438 68.8217 86.3078 68.9787C86.6565 69.304 86.9196 69.7402 87.2204 70.1344C86.8342 70.3985 86.383 70.9649 86.0754 70.8807C83.3581 70.1191 80.6545 69.281 77.9714 68.3778C77.1886 68.1137 76.4811 67.5703 75.548 67.3751C77.0006 69.702 78.3678 72.1092 79.9401 74.3289C81.0544 75.9018 83.0812 76.1046 84.7458 75.1058C85.573 74.6083 86.3283 73.9462 87.1828 73.5367C87.5827 73.3453 88.1433 73.5864 88.632 73.6324C88.4646 74.149 88.4372 74.9144 88.1091 75.144C86.1403 76.5218 84.2229 78.3473 81.6525 77.5206C80.1862 77.0499 78.8122 76.5792 77.2262 76.9007C76.5837 77.0308 75.5822 76.472 75.1173 75.8674C73.2272 73.4142 72.0241 70.6358 72.3385 67.2259C72.4103 66.4604 72.1745 65.5266 71.8053 64.8684C68.9786 59.8588 66.1075 54.8798 63.1954 49.9314C60.6661 45.6336 60.0064 41.045 61.254 36.1042C65.4137 19.6441 74.4167 7.97538 88.8064 1.99752C95.4851 -0.777098 102.239 -0.39822 108.262 4.39325C115.087 9.82385 117.494 17.5048 116.502 26.6208C115.634 34.6079 112.1 40.9761 106.713 46.1541C106.518 46.3416 106.32 46.5215 106.125 46.709C106.064 46.7702 106.019 46.8544 105.965 46.931C105.995 47.0152 106.006 47.1453 106.06 47.1683C109.632 48.8369 111.16 51.9636 110.979 56.1427C110.859 58.9365 111.512 61.359 112.804 63.7356C116.219 70.0234 119.52 76.384 121.352 83.5444C122.795 89.1893 123.625 94.9146 123.636 100.789C123.646 107.18 119.907 112.469 114.561 113.61C109.072 114.785 103.839 111.513 101.747 105.519C99.3098 98.535 96.9275 91.5315 94.5247 84.5318C94.4187 84.2218 94.2102 83.8736 94.2615 83.5904C94.3367 83.1809 94.5315 82.5953 94.8049 82.4882C95.0749 82.381 95.6082 82.6757 95.8337 82.9742C96.1209 83.3569 96.22 83.9195 96.3909 84.4093C98.7732 91.3133 101.111 98.2365 103.545 105.118C105.086 109.48 109.034 112.213 112.941 111.819C117.364 111.371 121.028 108.095 121.581 103.311C121.961 100.043 121.708 96.6215 121.356 93.3187C120.457 84.8992 117.846 77.1073 113.932 69.8589C113.05 68.2247 112.291 66.4949 111.345 64.9105C109.711 62.1818 109.02 59.2503 109.164 55.9628C109.225 54.5545 108.788 53.1193 108.552 51.5349C104.194 54.1029 99.7542 54.4358 95.3416 54.7994C87.6989 55.427 80.0734 55.2204 72.4513 53.6972C72.3795 53.9804 72.3146 54.1986 72.2633 54.4205C72.1061 55.1324 71.9523 55.9781 71.0944 55.7753C70.1271 55.5495 70.3698 54.6195 70.5236 53.8924C70.9679 51.8028 71.3234 49.675 71.9557 47.6543C78.4772 26.7356 91.6023 14.8373 111.18 11.8139C111.423 11.7756 111.669 11.745 112.1 11.6876L112.103 11.6953ZM82.2267 45.0366C82.4523 45.0596 82.6027 45.094 82.7531 45.0902C89.5412 44.8912 96.3191 44.918 103.032 46.3148C103.346 46.3799 103.787 46.2077 104.054 45.978C107.547 42.9738 110.531 39.4453 112.431 34.9485C115.145 28.5267 115.839 21.9135 113.676 15.0784C113.358 14.0719 112.948 13.5782 111.939 13.7695C110.049 14.1293 108.152 14.4355 106.252 14.7187C105.425 14.8411 105.073 15.3272 104.816 16.2112C101.887 26.3032 96.5857 34.4777 88.8029 40.5551C86.7316 42.174 84.486 43.5134 82.2267 45.0442V45.0366ZM74.6286 45.5303C84.8415 44.9945 101.193 27.8225 102.882 15.8629C92.1184 17.9181 76.4606 34.3591 74.6286 45.5303ZM106.949 50.3983C106.949 50.1916 106.949 49.9811 106.946 49.7745C105.801 49.3535 104.676 48.8254 103.504 48.5307C98.78 47.3405 93.9675 46.9233 89.1447 47.0573C84.4211 47.1874 79.7043 47.639 74.984 47.9337C74.0133 47.9949 73.4015 48.4006 73.2785 49.5793C73.2067 50.2605 72.9914 50.9188 72.8375 51.6115C73.2238 51.7416 73.4596 51.8526 73.7091 51.8985C83.2214 53.5709 92.737 53.5594 102.239 51.8526C103.839 51.5655 105.38 50.892 106.949 50.3983Z"
            fill="black"
          />
          <path
            d="M17.5529 73.5078C15.8336 71.4527 13.9708 69.5813 12.4874 67.3884C7.08357 59.4166 5.17633 50.5608 8.2115 40.9434C11.127 31.7011 19.4567 26.1021 28.1828 26.8522C35.7194 27.499 41.9607 31.3375 47.614 36.5576C55.202 43.5611 60.117 52.5126 62.4754 63.2016C63.4564 67.641 62.8924 71.8431 60.6741 75.7122C57.7244 80.8596 54.7234 85.9726 51.8079 91.1429C51.4148 91.8394 51.1619 92.8153 51.2303 93.6228C51.5242 97.0327 50.304 99.792 48.448 102.28C47.6038 103.412 46.4109 103.504 45.1497 103.233C44.6096 103.118 43.9568 103.122 43.468 103.363C41.4822 104.339 39.5783 104.296 37.7087 103.068C36.8986 102.536 36.0407 102.065 35.323 101.403C35.0393 101.143 35.0666 100.45 34.9538 99.9528C35.3742 99.8839 35.8733 99.6237 36.2048 99.7882C37.0217 100.186 37.7531 100.787 38.5324 101.285C40.655 102.643 42.7707 102.188 44.1755 99.9872C45.4163 98.0431 46.5818 96.0377 47.7781 94.0591C47.843 93.9481 47.8704 93.8104 47.9866 93.4851C47.5662 93.6917 47.2688 93.8065 46.9988 93.9749C44.1311 95.7813 41.0242 96.7763 37.7839 97.2279C37.3396 97.2892 36.5158 96.8873 36.4167 96.5123C36.1672 95.5823 36.8918 95.3718 37.5822 95.2685C44.6199 94.2045 50.2083 90.5114 54.0809 83.772C55.9061 80.5955 57.6527 77.3693 59.4266 74.1584C59.6488 73.7528 59.8367 73.3203 60.0179 72.8878C61.4159 69.5621 61.4022 66.1561 60.5101 62.6811C56.5247 47.1471 47.949 36.1864 34.4514 30.3233C29.8063 28.3065 24.9494 28.0922 20.1642 30.1128C16.5377 31.6437 13.7008 34.2614 11.5304 37.92C14.0939 38.4482 16.5958 38.739 18.9816 39.4968C37.1516 45.2565 48.407 58.4905 52.7923 79.0494C52.9119 79.6082 53.1136 80.1822 53.0725 80.7295C53.0384 81.2079 52.7205 81.6595 52.5291 82.1225C52.1394 81.7896 51.7054 81.5025 51.3806 81.1045C51.2097 80.894 51.2234 80.4884 51.1619 80.2052C39.0691 81.8125 27.0856 82.6698 14.9996 78.2955C14.815 79.2637 14.316 80.5075 14.3946 81.7016C14.651 85.5631 13.5982 88.8735 11.7935 92.1073C8.28328 98.3952 5.14557 104.901 3.49126 112.176C2.37016 117.113 1.71049 122.104 1.71049 127.198C1.71049 132.644 4.88238 137.094 9.4078 138.013C14.0289 138.95 18.3868 136.203 20.1505 131.143C22.5226 124.339 24.84 117.511 27.1813 110.692C27.3488 110.202 27.4513 109.631 27.7487 109.264C27.9777 108.981 28.4972 108.797 28.8219 108.881C29.0475 108.943 29.2458 109.517 29.3005 109.892C29.3415 110.186 29.1535 110.527 29.0441 110.837C26.6139 117.925 24.2213 125.028 21.7365 132.089C19.8053 137.573 15.2081 140.623 9.92733 140.091C5.19684 139.613 0.900431 135.533 0.220252 130.037C-0.213832 126.547 0.0664427 122.877 0.435585 119.341C1.34477 110.626 4.07574 102.586 8.12947 95.0886C9.2574 93.0029 10.44 90.9401 11.3595 88.7433C11.9747 87.2776 12.2686 85.609 12.5182 83.994C12.7403 82.5473 12.5421 81.0127 12.8121 79.5852C13.3761 76.5695 15.0817 74.5335 17.5494 73.4963L17.5529 73.5078ZM41.2839 71.246C41.2327 71.1963 41.1575 71.0815 41.0583 71.0279C29.9225 64.9658 22.4337 55.3561 18.5885 42.1681C18.4655 41.7471 17.9425 41.2687 17.546 41.1845C15.5362 40.7712 13.5025 40.5033 11.4825 40.1359C10.6588 39.9866 10.2794 40.3349 9.96834 41.1845C8.60457 44.9235 8.38582 48.808 8.82674 52.7384C9.75301 61.001 13.6632 67.2889 19.4396 72.2602C19.8087 72.5779 20.4581 72.6429 20.9537 72.5855C22.9464 72.3559 24.9254 71.8775 26.9181 71.7703C31.6896 71.5101 36.4646 71.4106 41.2771 71.2422L41.2839 71.246ZM20.424 41.9308C23.3258 51.5176 28.1418 59.0339 35.1281 64.7707C39.3015 68.1997 43.8884 70.6528 49.2273 72.1263C43.7073 57.0017 34.301 47.1088 20.424 41.9308ZM16.6471 75.9801C16.6676 76.1408 16.6847 76.3054 16.7052 76.4661C20.9845 80.098 44.8284 80.2588 50.7039 77.8401C50.5227 77.0593 50.4339 76.225 50.1297 75.5094C49.9314 75.0463 49.4529 74.4837 49.0393 74.4187C39.9919 72.972 30.9343 72.9338 21.8937 74.4799C20.1198 74.7822 18.3971 75.4711 16.6505 75.9801H16.6471Z"
            fill="black"
          />
          <path
            d="M21.6133 95.5492C21.6201 92.9697 23.7529 91.2897 25.6397 92.3498C28.0323 93.6969 30.3326 95.2468 32.6226 96.8121C33.4942 97.4053 33.7847 98.4386 33.419 99.5791C32.8277 101.416 32.2569 103.261 31.6006 105.071C31.0435 106.606 29.7002 107.31 28.6202 106.449C25.7354 104.149 22.8608 101.768 21.9653 97.5775C21.8081 96.8389 21.7056 96.085 21.6167 95.5492H21.6133Z"
            fill="black"
          />
          <path
            d="M98.7846 65.7032C100.811 65.6955 102.117 67.3564 101.912 69.4001C101.632 72.2015 100.634 74.6355 98.8051 76.5835C97.7592 77.701 96.6381 78.7381 95.4965 79.7331C94.1327 80.9195 92.6186 80.4832 91.9657 78.7037C91.3026 76.9011 90.7353 75.0526 90.1474 73.2118C89.7645 72.0063 90.1234 70.9921 91.0531 70.3683C93.2748 68.8719 95.5409 67.4483 97.8036 66.0284C98.1591 65.8065 98.6069 65.7606 98.7812 65.707L98.7846 65.7032Z"
            fill="black"
          />
          <path
            d="M57.7559 13.8962C58.0942 11.2134 58.3437 8.8904 58.7129 6.59034C58.7744 6.19998 59.3521 5.90913 59.6904 5.57617C59.9399 6.00863 60.4356 6.46788 60.4014 6.86972C60.1929 9.19274 59.9092 11.5119 59.5298 13.8082C59.4614 14.2291 58.8428 14.5315 58.4771 14.8912C58.1899 14.497 57.9028 14.1029 57.7559 13.8962Z"
            fill="black"
          />
          <path
            d="M89.1157 94.9347C89.1157 95.8417 88.333 96.3545 87.7417 95.8187C85.9883 94.2266 84.2896 92.5581 82.625 90.855C82.4165 90.6445 82.3823 89.8753 82.5601 89.6342C82.748 89.3739 83.4453 89.2056 83.6436 89.3854C85.4243 91.0119 87.1504 92.715 88.8765 94.4142C89.02 94.5558 89.0679 94.8275 89.1157 94.9385V94.9347Z"
            fill="black"
          />
          <path
            d="M65.0122 102.288C64.9575 103.433 64.9849 104.588 64.8106 105.71C64.7354 106.192 64.2363 106.594 63.9321 107.034C63.6416 106.594 63.0982 106.15 63.1016 105.713C63.1221 103.429 63.2315 101.136 63.4331 98.863C63.4707 98.4191 64.0518 98.0364 64.3799 97.623C64.6431 98.0861 65.0806 98.5224 65.1353 99.0123C65.2515 100.091 65.1695 101.198 65.1695 102.296C65.1182 102.296 65.0635 102.296 65.0122 102.296V102.288Z"
            fill="black"
          />
          <path
            d="M34.5503 14.2754C34.916 14.5624 35.2237 14.7385 35.4561 14.9987C36.8472 16.5448 38.2588 18.068 39.5679 19.6983C39.8653 20.0696 39.7764 20.8273 39.8653 21.409C39.3492 21.298 38.6758 21.3784 38.3477 21.0378C36.878 19.5223 35.4834 17.9073 34.1162 16.2731C33.877 15.9899 33.7847 15.4197 33.8325 15.014C33.8633 14.7499 34.2769 14.5433 34.5537 14.2754H34.5503Z"
            fill="black"
          />
        </svg>