<svg width="43" height="92" viewBox="0 0 43 92" fill="none" xmlns="http://www.w3.org/2000/svg">
<path d="M20.3798 45H0.524805V23.495L11.5798 17.94V7.49H9.32481V16.62L0.524805 21.02V0.834998H20.3798V20.965L9.32481 26.465V38.345H11.5798V27.84L20.3798 23.44V45ZM42.455 45H22.6V0.834998H42.455V45ZM33.655 38.345V7.49H31.4V38.345H33.655Z" fill="white"/>
<path d="M20.3798 92H0.524805V70.495L11.5798 64.94V54.49H9.32481V63.62L0.524805 68.02V47.835H20.3798V67.965L9.32481 73.465V85.345H11.5798V74.84L20.3798 70.44V92ZM42.455 92H22.6V79.79L31.4 75.39V85.345H33.655V68.46L31.4 69.56V62.19L33.655 61.09V54.49H31.4V59.715L22.6 64.115V47.835H42.455V64.06L38.935 65.82L42.455 67.58V92Z" fill="white"/>
</svg>
