<svg width="39" height="39" viewBox="0 0 119 119" fill="none" xmlns="http://www.w3.org/2000/svg">
<path d="M59.32 0.339996C26.69 0.339996 0.140015 26.89 0.140015 59.52C0.140015 92.15 26.69 118.7 59.32 118.7C91.95 118.7 118.5 92.15 118.5 59.52C118.5 26.89 91.95 0.339996 59.32 0.339996ZM59.32 103.7C34.96 103.7 15.14 83.88 15.14 59.52C15.14 35.16 34.96 15.34 59.32 15.34C83.68 15.34 103.5 35.16 103.5 59.52C103.5 83.88 83.68 103.7 59.32 103.7Z" fill="white"/>
<path d="M32.95 60.41C32.95 57.2 33.52 54.08 34.66 51.13L32.9 47.62C30.99 51.48 29.92 55.82 29.92 60.41C29.92 74.14 39.48 85.63 52.31 88.59L50.88 85.05C40.48 81.68 32.94 71.91 32.94 60.41H32.95Z" fill="white"/>
<path d="M58.84 34.51C63.07 34.51 67.26 35.55 70.97 37.52C70.99 37.52 71 37.54 71.02 37.55L72.21 34.76C68.21 32.67 63.67 31.49 58.84 31.49C54.56 31.49 50.5 32.42 46.85 34.09L47.85 36.96C51.3 35.34 55 34.52 58.84 34.52V34.51Z" fill="white"/>
<path d="M83.62 52.84C84.36 55.26 84.75 57.81 84.75 60.41C84.75 71.53 77.7 81.04 67.84 84.7L65.97 88.45C78.5 85.28 87.77 73.93 87.77 60.41C87.77 56.31 86.92 52.42 85.38 48.88L83.62 52.83V52.84Z" fill="white"/>
<path d="M59.2 70.5L42.32 32.22H28.29L59.2 99.71L90.35 32.22H76.16L59.2 70.5Z" fill="white"/>
</svg>

