<svg width="90" height="90" viewBox="0 0 90 90" fill="none" xmlns="http://www.w3.org/2000/svg">
<path d="M55.0135 0C55.6504 0.189845 56.2873 0.366129 56.9106 0.596655C58.909 1.30998 60.6393 2.62209 61.8661 4.35449C63.0929 6.08688 63.7566 8.15544 63.7669 10.2787C63.7669 16.9911 63.7669 23.7035 63.7669 30.4159C63.7947 30.8121 63.7412 31.2098 63.6098 31.5846C63.4784 31.9594 63.2719 32.3034 63.0029 32.5954C62.7339 32.8875 62.4081 33.1214 62.0455 33.283C61.6829 33.4445 61.2912 33.5302 60.8943 33.5347C60.5114 33.516 60.1361 33.4204 59.7908 33.2536C59.4455 33.0868 59.1373 32.8522 58.8845 32.5637C58.6316 32.2753 58.4393 31.9389 58.3191 31.5745C58.1988 31.2102 58.1529 30.8254 58.1843 30.443C58.1843 23.9069 58.1843 17.3708 58.1843 10.8347C58.2408 9.52109 57.784 8.23706 56.9106 7.25478C56.4014 6.69108 55.7709 6.25049 55.0667 5.96625C54.3625 5.68202 53.603 5.56156 52.8455 5.61398H15.9485C14.1599 5.61398 12.3713 5.61398 10.5962 5.61398C9.93323 5.58079 9.27068 5.68726 8.65142 5.92648C8.03215 6.1657 7.46996 6.53236 7.00122 7.00273C6.53248 7.4731 6.16763 8.03671 5.93027 8.65709C5.69292 9.27747 5.58834 9.94081 5.62331 10.6042V68.195C5.58128 68.8689 5.68343 69.5441 5.92293 70.1753C6.16244 70.8066 6.53379 71.3794 7.01218 71.8556C7.49057 72.3318 8.06499 72.7004 8.69706 72.9367C9.32914 73.1729 10.0043 73.2715 10.6775 73.2259H39.5799C40.2004 73.1797 40.8179 73.3485 41.3286 73.7041C41.8394 74.0597 42.2123 74.5803 42.3848 75.1785C42.5758 75.7364 42.5798 76.3412 42.3965 76.9016C42.2131 77.4619 41.8522 77.9472 41.3686 78.2839C40.8931 78.6134 40.334 78.8015 39.7561 78.8263C29.7425 78.8263 19.7154 78.8263 9.7019 78.8263C7.41632 78.7034 5.23771 77.818 3.51364 76.3114C1.78956 74.8047 0.619354 72.7637 0.189702 70.5138C0.13824 70.3423 0.0748514 70.1747 0 70.0121L0 8.80066C0.0786451 8.64585 0.137813 8.48187 0.176152 8.31249C0.411918 6.99596 0.916204 5.74217 1.65756 4.6293C2.39891 3.51643 3.36143 2.56836 4.4851 1.84421C5.87207 1.11989 7.31263 0.503336 8.79404 0L55.0135 0Z" fill="white"/>
<path d="M89.9894 55.4078C89.9894 57.4012 89.9894 59.3946 89.9894 61.3879C90.1081 67.9955 87.6542 74.3902 83.1465 79.2198C79.2546 83.5224 74.5534 87.0152 69.3118 89.4985C68.761 89.7988 68.1437 89.9561 67.5164 89.9561C66.8892 89.9561 66.2719 89.7988 65.7211 89.4985C59.156 86.4935 53.4933 81.8178 49.2983 75.9382C46.4449 71.8088 44.9396 66.8964 44.9893 61.8761C44.9893 57.0351 44.9893 52.2076 44.9893 47.3665C44.9036 46.6588 45.0875 45.9448 45.5044 45.3668C45.9213 44.7887 46.5405 44.3891 47.2387 44.2477C53.5621 42.087 59.8855 39.9309 66.2089 37.7794C67.0086 37.4811 67.8888 37.4811 68.6885 37.7794C75.03 39.949 81.3986 42.0916 87.7536 44.2748C88.4625 44.4196 89.0891 44.8305 89.5049 45.423C89.9206 46.0156 90.094 46.745 89.9894 47.4615V55.4078ZM84.1899 49.048C84.1177 48.9912 84.0347 48.9497 83.946 48.926C78.6479 47.1089 73.3362 45.2918 68.0246 43.5018C67.641 43.3802 67.2293 43.3802 66.8457 43.5018C61.6967 45.2376 56.5612 47.0004 51.4121 48.7226C51.1484 48.772 50.915 48.9238 50.7627 49.1448C50.6104 49.3658 50.5516 49.6381 50.5991 49.9023C50.5991 53.7941 50.5991 57.6995 50.5991 61.5913C50.5629 65.2247 51.5693 68.7921 53.4988 71.8701C56.8906 77.0097 61.598 81.1447 67.1303 83.8439C67.2661 83.907 67.4141 83.9397 67.5639 83.9397C67.7137 83.9397 67.8616 83.907 67.9975 83.8439C72.2517 81.6635 76.0542 78.6956 79.2034 75.0974C81.8186 72.0192 83.8918 68.5749 84.1221 64.5204C84.4202 59.3946 84.1899 54.2416 84.1899 49.048Z" fill="white"/>
<path d="M29.3904 30.009H44.7156C45.2844 29.9639 45.8519 30.1102 46.3281 30.4247C46.8043 30.7391 47.162 31.2037 47.3443 31.7447C47.5119 32.1364 47.5899 32.5607 47.5726 32.9864C47.5553 33.4122 47.4433 33.8287 47.2446 34.2056C47.0459 34.5824 46.7656 34.9102 46.4242 35.1648C46.0828 35.4194 45.6889 35.5944 45.2712 35.6772C45.0908 35.6908 44.9096 35.6908 44.7292 35.6772H14.0381C13.6527 35.6905 13.2689 35.6214 12.9123 35.4745C12.5558 35.3275 12.2346 35.106 11.9704 34.8249C11.7062 34.5438 11.505 34.2095 11.3802 33.8444C11.2554 33.4792 11.2099 33.0916 11.2468 32.7075C11.2457 32.0958 11.4512 31.5017 11.83 31.0217C12.2088 30.5417 12.7387 30.2039 13.3335 30.0632C13.6898 30.0362 14.0477 30.0362 14.404 30.0632L29.3904 30.009Z" fill="white"/>
<path d="M24.394 50.648H14.2585C13.867 50.6866 13.4718 50.6427 13.0982 50.5192C12.7247 50.3957 12.3811 50.1953 12.0897 49.9309C11.7982 49.6665 11.5652 49.3439 11.4058 48.984C11.2464 48.6241 11.1641 48.2348 11.1641 47.8411C11.1641 47.4474 11.2464 47.058 11.4058 46.6981C11.5652 46.3382 11.7982 46.0156 12.0897 45.7512C12.3811 45.4868 12.7247 45.2864 13.0982 45.1629C13.4718 45.0394 13.867 44.9955 14.2585 45.0341H34.4482C34.8397 44.9955 35.235 45.0394 35.6085 45.1629C35.982 45.2864 36.3256 45.4868 36.6171 45.7512C36.9086 46.0156 37.1415 46.3382 37.3009 46.6981C37.4603 47.058 37.5427 47.4474 37.5427 47.8411C37.5427 48.2348 37.4603 48.6241 37.3009 48.984C37.1415 49.3439 36.9086 49.6665 36.6171 49.9309C36.3256 50.1953 35.982 50.3957 35.6085 50.5192C35.235 50.6427 34.8397 50.6866 34.4482 50.648H24.394Z" fill="white"/>
<path d="M22.4107 20.6523C19.7007 20.6523 16.9906 20.6523 14.2806 20.6523C13.8042 20.683 13.3279 20.5921 12.8962 20.3881C12.4645 20.1841 12.0917 19.8737 11.8127 19.4861C11.5337 19.0985 11.3577 18.6462 11.3011 18.1719C11.2445 17.6975 11.3093 17.2166 11.4893 16.7741C11.684 16.2437 12.0393 15.7873 12.5058 15.4688C12.9722 15.1504 13.5264 14.9856 14.0909 14.9977C19.7187 14.9977 25.342 14.9977 30.9608 14.9977C31.693 14.9867 32.3998 15.2655 32.9276 15.7734C33.4554 16.2813 33.7615 16.9772 33.7793 17.7098C33.7995 18.0783 33.7445 18.447 33.6174 18.7935C33.4903 19.1399 33.2939 19.4568 33.0402 19.7247C32.7865 19.9925 32.4808 20.2057 32.1419 20.3512C31.803 20.4968 31.438 20.5715 31.0692 20.571C28.1966 20.571 25.324 20.571 22.4513 20.571L22.4107 20.6523Z" fill="white"/>
<path d="M66.2336 66.0658L71.6536 58.811C72.9002 57.1566 74.1333 55.4751 75.3935 53.8208C75.6024 53.4946 75.8754 53.2143 76.1958 52.9969C76.5163 52.7795 76.8775 52.6295 77.2576 52.5559C77.6377 52.4824 78.0288 52.4869 78.4071 52.5691C78.7854 52.6513 79.1431 52.8096 79.4585 53.0343C79.7703 53.2587 80.0329 53.5445 80.2303 53.8741C80.4278 54.2038 80.5558 54.5704 80.6065 54.9513C80.6573 55.3323 80.6297 55.7196 80.5255 56.0895C80.4213 56.4594 80.2426 56.8041 80.0005 57.1024C76.3149 62.0655 72.6112 67.0105 68.8894 71.9374C68.6629 72.2986 68.3545 72.6013 67.9892 72.8209C67.6239 73.0405 67.2119 73.1708 66.7869 73.2012C66.3618 73.2316 65.9356 73.1612 65.5428 72.9958C65.15 72.8304 64.8017 72.5746 64.5262 72.2493C62.0511 69.8084 59.5895 67.345 57.1414 64.8589C56.8798 64.5918 56.6734 64.2757 56.5339 63.9288C56.3944 63.5818 56.3245 63.2107 56.3283 62.8368C56.332 62.4628 56.4094 62.0932 56.5559 61.7491C56.7024 61.4051 56.9152 61.0933 57.1821 60.8315C57.449 60.5697 57.7648 60.3631 58.1115 60.2235C58.4582 60.0839 58.829 60.0139 59.2027 60.0177C59.5764 60.0215 59.9457 60.0989 60.2895 60.2455C60.6333 60.3921 60.9449 60.605 61.2065 60.8722C62.8054 62.5808 64.4585 64.2758 66.2336 66.0658Z" fill="white"/>
</svg>
