<svg width="148" height="148" viewBox="0 0 148 148" fill="none" xmlns="http://www.w3.org/2000/svg">
<path d="M61.5632 47.8245C61.5632 58.6209 61.5409 69.4172 61.5968 80.2136C61.5968 81.1641 61.9211 82.232 62.4242 83.0427C73.7909 101.32 85.2023 119.575 96.6081 137.83C98.3972 140.698 98.0506 141.777 94.9196 143.018C70.3356 152.741 38.9641 148.084 18.4896 125.367C11.9592 118.116 6.15566 110.366 3.26507 100.962C-2.83479 81.125 -0.369125 62.188 10.5055 44.5425C21.1621 27.2549 36.6214 16.576 56.4809 12.2149C60.6463 11.3036 61.6583 12.2653 61.608 16.3467C61.485 26.8356 61.5688 37.3245 61.5688 47.8189L61.5632 47.8245ZM91.6376 139.35C91.1512 138.478 90.9276 138.031 90.6648 137.612C79.6448 119.955 68.608 102.315 57.6327 84.6306C57.0512 83.6968 56.699 82.45 56.6934 81.3486C56.6375 60.6225 56.6543 39.8964 56.6543 19.1702C56.6543 18.572 56.6543 17.9682 56.6543 17.3531C52.5504 17.8675 45.4106 20.4562 39.5959 23.5145C13.3234 37.3077 -0.313214 67.8909 7.04464 96.5955C9.05184 104.429 13.1725 111.166 18.1932 117.383C24.6957 125.429 32.2157 132.328 41.659 136.767C53.3947 142.286 65.7789 144.075 78.6104 142.191C82.9211 141.559 87.1424 140.346 91.6376 139.35Z" fill="#E13B3B"/>
<path d="M147.748 76.5476C147.099 106.751 135.431 129.607 111.328 145.821C108.991 147.392 107.967 147.129 106.475 144.736C94.3195 125.257 82.1645 105.778 70.0096 86.2984C68.2987 83.5532 68.746 82.284 71.8155 81.3279C95.0296 74.0875 118.249 66.8582 141.469 59.629C143.957 58.8574 145.12 59.4277 145.545 61.9549C146.428 67.2384 147.748 72 147.748 76.542V76.5476Z" fill="#1BE3FD"/>
<path d="M66.457 38.1807C66.457 26.7189 66.457 15.2572 66.457 3.78995C66.457 1.16773 67.2286 0.396164 69.8173 0.407346C101.737 0.558305 130.598 20.3563 142.272 50.112C143.144 52.3317 142.596 53.4163 140.125 54.1879C119.897 60.5282 99.6624 66.8517 79.4339 73.1808C76.5098 74.0977 73.5856 75.0147 70.6559 75.9204C67.7318 76.8262 66.457 75.8981 66.457 72.8677C66.457 61.3053 66.457 49.7374 66.457 38.1751V38.1807Z" fill="#B8F86E"/>
</svg>
