<svg width="148" height="148" viewBox="0 0 148 148" fill="none" xmlns="http://www.w3.org/2000/svg">
<path d="M61.5632 47.4173C61.5632 58.2136 61.5409 69.01 61.5968 79.8064C61.5968 80.7569 61.9211 81.8248 62.4242 82.6355C73.7909 100.913 85.2023 119.168 96.6081 137.422C98.3972 140.291 98.0506 141.37 94.9196 142.611C70.3356 152.334 38.9641 147.676 18.4896 124.96C11.9592 117.708 6.15566 109.959 3.26507 100.555C-2.83479 80.7177 -0.369125 61.7808 10.5055 44.1353C21.1621 26.8477 36.6214 16.1688 56.4809 11.8077C60.6463 10.8964 61.6583 11.858 61.608 15.9395C61.485 26.4284 61.5688 36.9172 61.5688 47.4117L61.5632 47.4173ZM91.6376 138.943C91.1512 138.071 90.9276 137.624 90.6648 137.204C79.6448 119.548 68.608 101.908 57.6327 84.2233C57.0512 83.2896 56.699 82.0428 56.6934 80.9414C56.6375 60.2153 56.6543 39.4891 56.6543 18.763C56.6543 18.1648 56.6543 17.5609 56.6543 16.9459C52.5504 17.4603 45.4106 20.049 39.5959 23.1073C13.3234 36.9005 -0.313214 67.4836 7.04464 96.1882C9.05184 104.021 13.1725 110.759 18.1932 116.976C24.6957 125.021 32.2157 131.921 41.659 136.36C53.3947 141.879 65.7789 143.668 78.6104 141.783C82.9211 141.152 87.1424 139.938 91.6376 138.943Z" fill="#242424"/>
<path d="M147.748 76.1403C147.099 106.343 135.431 129.2 111.328 145.414C108.991 146.985 107.967 146.722 106.475 144.329C94.3195 124.85 82.1645 105.37 70.0096 85.8912C68.2987 83.146 68.746 81.8768 71.8155 80.9207C95.0296 73.6803 118.249 66.451 141.469 59.2217C143.957 58.4502 145.12 59.0205 145.545 61.5476C146.428 66.8312 147.155 72.1427 147.748 76.1347V76.1403ZM109.902 140.432C123.745 130.871 133.435 118.308 138.78 102.469C142.984 90.0118 143.773 77.3201 141.178 64.2593C119.138 71.1699 97.2828 78.0245 75.2428 84.9351C86.8387 103.503 98.3395 121.914 109.902 140.432Z" fill="#242424"/>
<path d="M66.457 37.7734C66.457 26.3117 66.457 14.85 66.457 3.38272C66.457 0.760506 67.2286 -0.0110627 69.8173 0.000119422C101.737 0.151078 130.598 19.9491 142.272 49.7048C143.144 51.9244 142.596 53.0091 140.125 53.7807C119.897 60.121 99.6624 66.4445 79.4339 72.7736C76.5098 73.6905 73.5856 74.6074 70.6559 75.5132C67.7318 76.4189 66.457 75.4908 66.457 72.4605C66.457 60.8981 66.457 49.3302 66.457 37.7678V37.7734ZM71.4499 70.0843C93.3501 63.2408 115.066 56.4588 136.916 49.6321C130.9 35.783 121.736 24.7965 109.212 16.6727C97.7671 9.24776 85.1815 5.38992 71.4499 4.90349V70.0843Z" fill="#242424"/>
</svg>
