<svg width="94" height="96" viewBox="0 0 94 96" fill="none" xmlns="http://www.w3.org/2000/svg">
<g clip-path="url(#clip0_1502_10375)">
<path d="M8 64.0672V16.2557C8.05771 16.1469 8.10688 16.0338 8.14707 15.9172C8.44203 14.3003 9.19599 12.8054 10.3167 11.6154C11.4375 10.4253 12.8764 9.59177 14.4577 9.21659L15.1663 9H78.8605C78.9655 9.06325 79.0777 9.11326 79.1947 9.1489C81.1204 9.51114 82.8588 10.5478 84.1054 12.0773C85.3521 13.6068 86.0275 15.5316 86.0134 17.5146C86.0134 32.6395 86.0134 47.7555 86.0134 62.8624C86.0127 63.7821 85.8683 64.6958 85.5855 65.5697C85.0184 67.3328 83.8976 68.8597 82.3939 69.9179C80.8901 70.9761 79.0858 71.5075 77.2561 71.4311C71.1683 71.4311 65.0761 71.4311 58.9794 71.4311C58.7467 71.4048 58.5119 71.4586 58.3131 71.5839C58.1142 71.7091 57.9627 71.8985 57.8831 72.1215C55.9177 76.1825 53.8721 80.2435 51.9068 84.2233C51.4874 85.0706 50.9468 85.8506 50.3024 86.538C49.7361 87.1929 48.987 87.6586 48.154 87.8737C47.321 88.0888 46.4431 88.0432 45.6363 87.7428C44.8531 87.43 44.141 86.959 43.5434 86.3586C42.9458 85.7581 42.4751 85.0408 42.1601 84.2503C40.168 80.1893 38.1491 76.1283 36.1971 72.135C36.1117 71.9038 35.9517 71.7084 35.7431 71.5807C35.5344 71.4529 35.2892 71.4002 35.0473 71.4311C28.9774 71.4311 22.9074 71.4311 16.8375 71.4311C15.4225 71.5082 14.0119 71.2119 12.744 70.5712C11.4761 69.9305 10.3942 68.9674 9.60439 67.7762C8.95334 66.5948 8.41606 65.3528 8 64.0672ZM47 83.4517C47.3877 82.7748 47.6685 82.3281 47.9092 81.8544C50.0884 77.4549 52.2945 73.0691 54.4069 68.6426C54.6444 68.0317 55.0713 67.5155 55.6234 67.1713C56.1755 66.8271 56.823 66.6736 57.4686 66.7339C64.0333 66.7339 70.6112 66.7339 77.1892 66.7339C77.7613 66.7954 78.3397 66.7268 78.8823 66.5331C79.4248 66.3394 79.9178 66.0255 80.3252 65.6143C80.7326 65.2031 81.0442 64.705 81.2372 64.1563C81.4303 63.6076 81.4998 63.0222 81.4409 62.4428V17.9613C81.4981 17.3828 81.4286 16.7986 81.2373 16.2504C81.046 15.7022 80.7376 15.2035 80.3342 14.7898C79.9307 14.3762 79.442 14.0577 78.9031 13.8571C78.3641 13.6566 77.788 13.5789 77.216 13.6295H16.8108C16.2389 13.577 15.6626 13.6529 15.123 13.8518C14.5834 14.0506 14.0938 14.3675 13.6891 14.7799C13.2843 15.1923 12.9744 15.69 12.7814 16.2376C12.5884 16.7851 12.5171 17.3691 12.5725 17.9477C12.5725 22.469 12.5725 27.0038 12.5725 31.4844C12.5725 41.8174 12.5725 52.1459 12.5725 62.4698C12.54 63.0863 12.643 63.7023 12.8742 64.2735C13.1054 64.8447 13.459 65.3568 13.9095 65.7728C14.7491 66.4592 15.8145 66.7978 16.891 66.7204C23.4556 66.7204 30.0336 66.7204 36.6116 66.7204C37.2299 66.67 37.8479 66.8216 38.3749 67.1529C38.9018 67.4843 39.31 67.9779 39.5396 68.5613C41.6788 73.0014 43.8982 77.4143 46.0908 81.8408C46.3181 82.3281 46.5989 82.7748 47 83.4517Z" fill="white"/>
<path d="M54.1506 31.5247C54.1506 33.4334 54.1506 35.3285 54.1506 37.2237C54.0392 39.0679 53.2371 40.7995 51.9079 42.0655C50.5787 43.3315 48.8226 44.0363 46.9977 44.0363C45.1728 44.0363 43.4167 43.3315 42.0875 42.0655C40.7583 40.7995 39.9562 39.0679 39.8448 37.2237C39.7913 33.4424 39.7913 29.6657 39.8448 25.8935C39.8448 23.9728 40.5984 22.1307 41.9398 20.7725C43.2813 19.4144 45.1006 18.6514 46.9977 18.6514C48.8948 18.6514 50.7141 19.4144 52.0556 20.7725C53.397 22.1307 54.1506 23.9728 54.1506 25.8935C54.1506 27.7615 54.1506 29.6431 54.1506 31.5112V31.5247ZM44.4039 31.5247C44.4039 33.271 44.4039 35.0172 44.4039 36.7634C44.4039 37.1083 44.471 37.4498 44.6014 37.7684C44.7317 38.087 44.9228 38.3765 45.1636 38.6204C45.4045 38.8642 45.6904 39.0577 46.0051 39.1896C46.3198 39.3216 46.6571 39.3895 46.9977 39.3895C47.3383 39.3895 47.6756 39.3216 47.9903 39.1896C48.305 39.0577 48.5909 38.8642 48.8318 38.6204C49.0726 38.3765 49.2637 38.087 49.394 37.7684C49.5244 37.4498 49.5915 37.1083 49.5915 36.7634C49.5915 33.298 49.5915 29.8327 49.5915 26.3673C49.5915 26.0224 49.5244 25.6809 49.394 25.3623C49.2637 25.0437 49.0726 24.7542 48.8318 24.5103C48.5909 24.2665 48.305 24.073 47.9903 23.9411C47.6756 23.8091 47.3383 23.7412 46.9977 23.7412C46.6571 23.7412 46.3198 23.8091 46.0051 23.9411C45.6904 24.073 45.4045 24.2665 45.1636 24.5103C44.9228 24.7542 44.7317 25.0437 44.6014 25.3623C44.471 25.6809 44.4039 26.0224 44.4039 26.3673C44.3906 28.0458 44.4039 29.765 44.4039 31.4841V31.5247Z" fill="white"/>
<path d="M47.0009 63.9726C45.5788 63.978 44.1871 63.5564 43.0016 62.7612C41.8161 61.966 40.89 60.8329 40.3403 59.505C39.7907 58.1771 39.6421 56.714 39.9133 55.3007C40.1846 53.8873 40.8636 52.5871 41.8645 51.5643C42.8654 50.5414 44.1432 49.842 45.5366 49.5542C46.93 49.2664 48.3763 49.4033 49.6929 49.9474C51.0095 50.4916 52.1372 51.4187 52.9336 52.6116C53.7299 53.8044 54.1592 55.2095 54.1672 56.6493C54.1742 57.6073 53.9941 58.5573 53.6373 59.4446C53.2805 60.3319 52.754 61.1391 52.088 61.8196C51.422 62.5002 50.6297 63.0408 49.7567 63.4103C48.8837 63.7798 47.9471 63.9709 47.0009 63.9726ZM47.0009 59.3025C47.3464 59.3152 47.6909 59.2575 48.014 59.1327C48.3371 59.008 48.6321 58.8187 48.8815 58.5763C49.1309 58.3339 49.3297 58.0432 49.466 57.7214C49.6023 57.3997 49.6733 57.0535 49.6749 56.7034C49.6749 56.007 49.4016 55.339 48.9152 54.8465C48.4287 54.354 47.769 54.0773 47.0811 54.0773C46.3932 54.0773 45.7335 54.354 45.247 54.8465C44.7606 55.339 44.4873 56.007 44.4873 56.7034C44.4835 57.3777 44.74 58.0267 45.202 58.5122C45.6641 58.9977 46.2952 59.2813 46.9608 59.3025H47.0009Z" fill="white"/>
</g>
<defs>
<clipPath id="clip0_1502_10375">
<rect width="78" height="79" fill="white" transform="translate(8 9)"/>
</clipPath>
</defs>
</svg>
