<svg width="1402" height="243" viewBox="0 0 1402 243" fill="none" xmlns="http://www.w3.org/2000/svg">
<path d="M154.172 234L144.344 204.6H148.67L157.7 231.732H155.516L164.882 204.6H168.746L177.902 231.732H175.802L184.958 204.6H188.948L179.12 234H174.71L166.142 208.842H167.276L158.666 234H154.172ZM205.999 211.53C207.819 211.53 209.415 211.88 210.787 212.58C212.187 213.28 213.279 214.344 214.063 215.772C214.847 217.2 215.239 219.006 215.239 221.19V234H211.207V221.652C211.207 219.496 210.675 217.872 209.611 216.78C208.575 215.688 207.105 215.142 205.201 215.142C203.773 215.142 202.527 215.422 201.463 215.982C200.399 216.542 199.573 217.368 198.985 218.46C198.425 219.552 198.145 220.91 198.145 222.534V234H194.113V202.836H198.145V217.746L197.347 216.15C198.075 214.694 199.195 213.56 200.707 212.748C202.219 211.936 203.983 211.53 205.999 211.53ZM232.613 234.252C230.233 234.252 228.133 233.762 226.313 232.782C224.521 231.802 223.121 230.458 222.113 228.75C221.133 227.042 220.643 225.082 220.643 222.87C220.643 220.658 221.119 218.698 222.071 216.99C223.051 215.282 224.381 213.952 226.061 213C227.769 212.02 229.687 211.53 231.815 211.53C233.971 211.53 235.875 212.006 237.527 212.958C239.179 213.91 240.467 215.254 241.391 216.99C242.343 218.698 242.819 220.7 242.819 222.996C242.819 223.164 242.805 223.36 242.777 223.584C242.777 223.808 242.763 224.018 242.735 224.214H223.793V221.316H240.635L238.997 222.324C239.025 220.896 238.731 219.622 238.115 218.502C237.499 217.382 236.645 216.514 235.553 215.898C234.489 215.254 233.243 214.932 231.815 214.932C230.415 214.932 229.169 215.254 228.077 215.898C226.985 216.514 226.131 217.396 225.515 218.544C224.899 219.664 224.591 220.952 224.591 222.408V223.08C224.591 224.564 224.927 225.894 225.599 227.07C226.299 228.218 227.265 229.114 228.497 229.758C229.729 230.402 231.143 230.724 232.739 230.724C234.055 230.724 235.245 230.5 236.309 230.052C237.401 229.604 238.353 228.932 239.165 228.036L241.391 230.64C240.383 231.816 239.123 232.712 237.611 233.328C236.127 233.944 234.461 234.252 232.613 234.252ZM248.418 234V211.74H252.282V217.788L251.904 216.276C252.52 214.736 253.556 213.56 255.012 212.748C256.468 211.936 258.26 211.53 260.388 211.53V215.436C260.22 215.408 260.052 215.394 259.884 215.394C259.744 215.394 259.604 215.394 259.464 215.394C257.308 215.394 255.6 216.038 254.34 217.326C253.08 218.614 252.45 220.476 252.45 222.912V234H248.418ZM275.064 234.252C272.684 234.252 270.584 233.762 268.764 232.782C266.972 231.802 265.572 230.458 264.564 228.75C263.584 227.042 263.094 225.082 263.094 222.87C263.094 220.658 263.57 218.698 264.522 216.99C265.502 215.282 266.832 213.952 268.512 213C270.22 212.02 272.138 211.53 274.266 211.53C276.422 211.53 278.326 212.006 279.978 212.958C281.63 213.91 282.918 215.254 283.842 216.99C284.794 218.698 285.27 220.7 285.27 222.996C285.27 223.164 285.256 223.36 285.228 223.584C285.228 223.808 285.214 224.018 285.186 224.214H266.244V221.316H283.086L281.448 222.324C281.476 220.896 281.182 219.622 280.566 218.502C279.95 217.382 279.096 216.514 278.004 215.898C276.94 215.254 275.694 214.932 274.266 214.932C272.866 214.932 271.62 215.254 270.528 215.898C269.436 216.514 268.582 217.396 267.966 218.544C267.35 219.664 267.042 220.952 267.042 222.408V223.08C267.042 224.564 267.378 225.894 268.05 227.07C268.75 228.218 269.716 229.114 270.948 229.758C272.18 230.402 273.594 230.724 275.19 230.724C276.506 230.724 277.696 230.5 278.76 230.052C279.852 229.604 280.804 228.932 281.616 228.036L283.842 230.64C282.834 231.816 281.574 232.712 280.062 233.328C278.578 233.944 276.912 234.252 275.064 234.252ZM309.498 234L299.67 204.6H303.996L313.026 231.732H310.842L320.208 204.6H324.072L333.228 231.732H331.128L340.284 204.6H344.274L334.446 234H330.036L321.468 208.842H322.602L313.992 234H309.498ZM357.054 234.252C354.674 234.252 352.574 233.762 350.754 232.782C348.962 231.802 347.562 230.458 346.554 228.75C345.574 227.042 345.084 225.082 345.084 222.87C345.084 220.658 345.56 218.698 346.512 216.99C347.492 215.282 348.822 213.952 350.502 213C352.21 212.02 354.128 211.53 356.256 211.53C358.412 211.53 360.316 212.006 361.968 212.958C363.62 213.91 364.908 215.254 365.832 216.99C366.784 218.698 367.26 220.7 367.26 222.996C367.26 223.164 367.246 223.36 367.218 223.584C367.218 223.808 367.204 224.018 367.176 224.214H348.234V221.316H365.076L363.438 222.324C363.466 220.896 363.172 219.622 362.556 218.502C361.94 217.382 361.086 216.514 359.994 215.898C358.93 215.254 357.684 214.932 356.256 214.932C354.856 214.932 353.61 215.254 352.518 215.898C351.426 216.514 350.572 217.396 349.956 218.544C349.34 219.664 349.032 220.952 349.032 222.408V223.08C349.032 224.564 349.368 225.894 350.04 227.07C350.74 228.218 351.706 229.114 352.938 229.758C354.17 230.402 355.584 230.724 357.18 230.724C358.496 230.724 359.686 230.5 360.75 230.052C361.842 229.604 362.794 228.932 363.606 228.036L365.832 230.64C364.824 231.816 363.564 232.712 362.052 233.328C360.568 233.944 358.902 234.252 357.054 234.252ZM384.661 234.252C382.757 234.252 381.035 233.832 379.495 232.992C377.983 232.124 376.779 230.85 375.883 229.17C375.015 227.49 374.581 225.39 374.581 222.87C374.581 220.35 375.029 218.25 375.925 216.57C376.849 214.89 378.067 213.63 379.579 212.79C381.119 211.95 382.813 211.53 384.661 211.53C386.845 211.53 388.777 212.006 390.457 212.958C392.137 213.91 393.467 215.24 394.447 216.948C395.427 218.628 395.917 220.602 395.917 222.87C395.917 225.138 395.427 227.126 394.447 228.834C393.467 230.542 392.137 231.872 390.457 232.824C388.777 233.776 386.845 234.252 384.661 234.252ZM372.859 234V202.836H376.891V217.662L376.471 222.828L376.723 227.994V234H372.859ZM384.325 230.724C385.753 230.724 387.027 230.402 388.147 229.758C389.295 229.114 390.191 228.204 390.835 227.028C391.507 225.824 391.843 224.438 391.843 222.87C391.843 221.274 391.507 219.902 390.835 218.754C390.191 217.578 389.295 216.668 388.147 216.024C387.027 215.38 385.753 215.058 384.325 215.058C382.925 215.058 381.651 215.38 380.503 216.024C379.383 216.668 378.487 217.578 377.815 218.754C377.171 219.902 376.849 221.274 376.849 222.87C376.849 224.438 377.171 225.824 377.815 227.028C378.487 228.204 379.383 229.114 380.503 229.758C381.651 230.402 382.925 230.724 384.325 230.724ZM407.686 234.336C405.614 234.336 403.598 234.014 401.638 233.37C399.706 232.726 398.124 231.858 396.892 230.766L398.824 227.448C399.804 228.372 401.078 229.128 402.646 229.716C404.214 230.304 405.894 230.598 407.686 230.598C409.87 230.598 411.564 230.136 412.768 229.212C414 228.26 414.616 226.986 414.616 225.39C414.616 223.85 414.028 222.618 412.852 221.694C411.704 220.742 409.87 220.266 407.35 220.266H404.998V217.326L413.734 206.574L414.322 208.254H398.236V204.6H417.64V207.456L408.946 218.166L406.762 216.864H408.148C411.704 216.864 414.364 217.662 416.128 219.258C417.92 220.854 418.816 222.884 418.816 225.348C418.816 227 418.41 228.512 417.598 229.884C416.786 231.256 415.554 232.348 413.902 233.16C412.278 233.944 410.206 234.336 407.686 234.336ZM436.406 234V204.6H440.606V234H436.406ZM460.706 211.53C462.526 211.53 464.122 211.88 465.494 212.58C466.894 213.28 467.986 214.344 468.77 215.772C469.554 217.2 469.946 219.006 469.946 221.19V234H465.914V221.652C465.914 219.496 465.382 217.872 464.318 216.78C463.282 215.688 461.812 215.142 459.908 215.142C458.48 215.142 457.234 215.422 456.17 215.982C455.106 216.542 454.28 217.368 453.692 218.46C453.132 219.552 452.852 220.91 452.852 222.534V234H448.82V211.74H452.684V217.746L452.054 216.15C452.782 214.694 453.902 213.56 455.414 212.748C456.926 211.936 458.69 211.53 460.706 211.53ZM489.294 211.53C491.114 211.53 492.71 211.88 494.082 212.58C495.482 213.28 496.574 214.344 497.358 215.772C498.142 217.2 498.534 219.006 498.534 221.19V234H494.502V221.652C494.502 219.496 493.97 217.872 492.906 216.78C491.87 215.688 490.4 215.142 488.496 215.142C487.068 215.142 485.822 215.422 484.758 215.982C483.694 216.542 482.868 217.368 482.28 218.46C481.72 219.552 481.44 220.91 481.44 222.534V234H477.408V211.74H481.272V217.746L480.642 216.15C481.37 214.694 482.49 213.56 484.002 212.748C485.514 211.936 487.278 211.53 489.294 211.53ZM515.53 234.252C513.29 234.252 511.302 233.762 509.566 232.782C507.83 231.802 506.458 230.458 505.45 228.75C504.442 227.014 503.938 225.054 503.938 222.87C503.938 220.658 504.442 218.698 505.45 216.99C506.458 215.282 507.83 213.952 509.566 213C511.302 212.02 513.29 211.53 515.53 211.53C517.742 211.53 519.716 212.02 521.452 213C523.216 213.952 524.588 215.282 525.568 216.99C526.576 218.67 527.08 220.63 527.08 222.87C527.08 225.082 526.576 227.042 525.568 228.75C524.588 230.458 523.216 231.802 521.452 232.782C519.716 233.762 517.742 234.252 515.53 234.252ZM515.53 230.724C516.958 230.724 518.232 230.402 519.352 229.758C520.5 229.114 521.396 228.204 522.04 227.028C522.684 225.824 523.006 224.438 523.006 222.87C523.006 221.274 522.684 219.902 522.04 218.754C521.396 217.578 520.5 216.668 519.352 216.024C518.232 215.38 516.958 215.058 515.53 215.058C514.102 215.058 512.828 215.38 511.708 216.024C510.588 216.668 509.692 217.578 509.02 218.754C508.348 219.902 508.012 221.274 508.012 222.87C508.012 224.438 508.348 225.824 509.02 227.028C509.692 228.204 510.588 229.114 511.708 229.758C512.828 230.402 514.102 230.724 515.53 230.724ZM537.879 234L528.135 211.74H532.335L540.987 231.9H538.971L547.791 211.74H551.739L541.995 234H537.879ZM568.622 234V229.296L568.412 228.414V220.392C568.412 218.684 567.908 217.368 566.9 216.444C565.92 215.492 564.436 215.016 562.448 215.016C561.132 215.016 559.844 215.24 558.584 215.688C557.324 216.108 556.26 216.682 555.392 217.41L553.712 214.386C554.86 213.462 556.232 212.762 557.828 212.286C559.452 211.782 561.146 211.53 562.91 211.53C565.962 211.53 568.314 212.272 569.966 213.756C571.618 215.24 572.444 217.508 572.444 220.56V234H568.622ZM561.314 234.252C559.662 234.252 558.206 233.972 556.946 233.412C555.714 232.852 554.762 232.082 554.09 231.102C553.418 230.094 553.082 228.96 553.082 227.7C553.082 226.496 553.362 225.404 553.922 224.424C554.51 223.444 555.448 222.66 556.736 222.072C558.052 221.484 559.816 221.19 562.028 221.19H569.084V224.088H562.196C560.18 224.088 558.822 224.424 558.122 225.096C557.422 225.768 557.072 226.58 557.072 227.532C557.072 228.624 557.506 229.506 558.374 230.178C559.242 230.822 560.446 231.144 561.986 231.144C563.498 231.144 564.814 230.808 565.934 230.136C567.082 229.464 567.908 228.484 568.412 227.196L569.21 229.968C568.678 231.284 567.74 232.334 566.396 233.118C565.052 233.874 563.358 234.252 561.314 234.252ZM587.55 234.252C585.31 234.252 583.574 233.65 582.342 232.446C581.11 231.242 580.494 229.52 580.494 227.28V206.868H584.526V227.112C584.526 228.316 584.82 229.24 585.408 229.884C586.024 230.528 586.892 230.85 588.012 230.85C589.272 230.85 590.322 230.5 591.162 229.8L592.422 232.698C591.806 233.23 591.064 233.622 590.196 233.874C589.356 234.126 588.474 234.252 587.55 234.252ZM576.714 215.058V211.74H590.91V215.058H576.714ZM597.297 234V211.74H601.329V234H597.297ZM599.313 207.456C598.529 207.456 597.871 207.204 597.339 206.7C596.835 206.196 596.583 205.58 596.583 204.852C596.583 204.096 596.835 203.466 597.339 202.962C597.871 202.458 598.529 202.206 599.313 202.206C600.097 202.206 600.741 202.458 601.245 202.962C601.777 203.438 602.043 204.04 602.043 204.768C602.043 205.524 601.791 206.168 601.287 206.7C600.783 207.204 600.125 207.456 599.313 207.456ZM618.561 234.252C616.321 234.252 614.333 233.762 612.597 232.782C610.861 231.802 609.489 230.458 608.481 228.75C607.473 227.014 606.969 225.054 606.969 222.87C606.969 220.658 607.473 218.698 608.481 216.99C609.489 215.282 610.861 213.952 612.597 213C614.333 212.02 616.321 211.53 618.561 211.53C620.773 211.53 622.747 212.02 624.483 213C626.247 213.952 627.619 215.282 628.599 216.99C629.607 218.67 630.111 220.63 630.111 222.87C630.111 225.082 629.607 227.042 628.599 228.75C627.619 230.458 626.247 231.802 624.483 232.782C622.747 233.762 620.773 234.252 618.561 234.252ZM618.561 230.724C619.989 230.724 621.263 230.402 622.383 229.758C623.531 229.114 624.427 228.204 625.071 227.028C625.715 225.824 626.037 224.438 626.037 222.87C626.037 221.274 625.715 219.902 625.071 218.754C624.427 217.578 623.531 216.668 622.383 216.024C621.263 215.38 619.989 215.058 618.561 215.058C617.133 215.058 615.859 215.38 614.739 216.024C613.619 216.668 612.723 217.578 612.051 218.754C611.379 219.902 611.043 221.274 611.043 222.87C611.043 224.438 611.379 225.824 612.051 227.028C612.723 228.204 613.619 229.114 614.739 229.758C615.859 230.402 617.133 230.724 618.561 230.724ZM647.573 211.53C649.393 211.53 650.989 211.88 652.361 212.58C653.761 213.28 654.853 214.344 655.637 215.772C656.421 217.2 656.813 219.006 656.813 221.19V234H652.781V221.652C652.781 219.496 652.249 217.872 651.185 216.78C650.149 215.688 648.679 215.142 646.775 215.142C645.347 215.142 644.101 215.422 643.037 215.982C641.973 216.542 641.147 217.368 640.559 218.46C639.999 219.552 639.719 220.91 639.719 222.534V234H635.687V211.74H639.551V217.746L638.921 216.15C639.649 214.694 640.769 213.56 642.281 212.748C643.793 211.936 645.557 211.53 647.573 211.53ZM703.4 211.53C705.192 211.53 706.774 211.88 708.146 212.58C709.518 213.28 710.582 214.344 711.338 215.772C712.122 217.2 712.514 219.006 712.514 221.19V234H708.482V221.652C708.482 219.496 707.978 217.872 706.97 216.78C705.962 215.688 704.548 215.142 702.728 215.142C701.384 215.142 700.208 215.422 699.2 215.982C698.192 216.542 697.408 217.368 696.848 218.46C696.316 219.552 696.05 220.91 696.05 222.534V234H692.018V221.652C692.018 219.496 691.514 217.872 690.506 216.78C689.526 215.688 688.112 215.142 686.264 215.142C684.948 215.142 683.786 215.422 682.778 215.982C681.77 216.542 680.986 217.368 680.426 218.46C679.866 219.552 679.586 220.91 679.586 222.534V234H675.554V211.74H679.418V217.662L678.788 216.15C679.488 214.694 680.566 213.56 682.022 212.748C683.478 211.936 685.172 211.53 687.104 211.53C689.232 211.53 691.066 212.062 692.606 213.126C694.146 214.162 695.154 215.744 695.63 217.872L693.992 217.2C694.664 215.492 695.84 214.12 697.52 213.084C699.2 212.048 701.16 211.53 703.4 211.53ZM729.845 234.252C727.465 234.252 725.365 233.762 723.545 232.782C721.753 231.802 720.353 230.458 719.345 228.75C718.365 227.042 717.875 225.082 717.875 222.87C717.875 220.658 718.351 218.698 719.303 216.99C720.283 215.282 721.613 213.952 723.293 213C725.001 212.02 726.919 211.53 729.047 211.53C731.203 211.53 733.107 212.006 734.759 212.958C736.411 213.91 737.699 215.254 738.623 216.99C739.575 218.698 740.051 220.7 740.051 222.996C740.051 223.164 740.037 223.36 740.009 223.584C740.009 223.808 739.995 224.018 739.967 224.214H721.025V221.316H737.867L736.229 222.324C736.257 220.896 735.963 219.622 735.347 218.502C734.731 217.382 733.877 216.514 732.785 215.898C731.721 215.254 730.475 214.932 729.047 214.932C727.647 214.932 726.401 215.254 725.309 215.898C724.217 216.514 723.363 217.396 722.747 218.544C722.131 219.664 721.823 220.952 721.823 222.408V223.08C721.823 224.564 722.159 225.894 722.831 227.07C723.531 228.218 724.497 229.114 725.729 229.758C726.961 230.402 728.375 230.724 729.971 230.724C731.287 230.724 732.477 230.5 733.541 230.052C734.633 229.604 735.585 228.932 736.397 228.036L738.623 230.64C737.615 231.816 736.355 232.712 734.843 233.328C733.359 233.944 731.693 234.252 729.845 234.252ZM755.562 234.252C753.182 234.252 751.082 233.762 749.262 232.782C747.47 231.802 746.07 230.458 745.062 228.75C744.082 227.042 743.592 225.082 743.592 222.87C743.592 220.658 744.068 218.698 745.02 216.99C746 215.282 747.33 213.952 749.01 213C750.718 212.02 752.636 211.53 754.764 211.53C756.92 211.53 758.824 212.006 760.476 212.958C762.128 213.91 763.416 215.254 764.34 216.99C765.292 218.698 765.768 220.7 765.768 222.996C765.768 223.164 765.754 223.36 765.726 223.584C765.726 223.808 765.712 224.018 765.684 224.214H746.742V221.316H763.584L761.946 222.324C761.974 220.896 761.68 219.622 761.064 218.502C760.448 217.382 759.594 216.514 758.502 215.898C757.438 215.254 756.192 214.932 754.764 214.932C753.364 214.932 752.118 215.254 751.026 215.898C749.934 216.514 749.08 217.396 748.464 218.544C747.848 219.664 747.54 220.952 747.54 222.408V223.08C747.54 224.564 747.876 225.894 748.548 227.07C749.248 228.218 750.214 229.114 751.446 229.758C752.678 230.402 754.092 230.724 755.688 230.724C757.004 230.724 758.194 230.5 759.258 230.052C760.35 229.604 761.302 228.932 762.114 228.036L764.34 230.64C763.332 231.816 762.072 232.712 760.56 233.328C759.076 233.944 757.41 234.252 755.562 234.252ZM779.011 234.252C776.771 234.252 775.035 233.65 773.803 232.446C772.571 231.242 771.955 229.52 771.955 227.28V206.868H775.987V227.112C775.987 228.316 776.281 229.24 776.869 229.884C777.485 230.528 778.353 230.85 779.473 230.85C780.733 230.85 781.783 230.5 782.623 229.8L783.883 232.698C783.267 233.23 782.525 233.622 781.657 233.874C780.817 234.126 779.935 234.252 779.011 234.252ZM768.175 215.058V211.74H782.371V215.058H768.175ZM795.142 234.252C793.294 234.252 791.53 234 789.85 233.496C788.198 232.992 786.896 232.376 785.944 231.648L787.624 228.456C788.576 229.1 789.752 229.646 791.152 230.094C792.552 230.542 793.98 230.766 795.436 230.766C797.312 230.766 798.656 230.5 799.468 229.968C800.308 229.436 800.728 228.694 800.728 227.742C800.728 227.042 800.476 226.496 799.972 226.104C799.468 225.712 798.796 225.418 797.956 225.222C797.144 225.026 796.234 224.858 795.226 224.718C794.218 224.55 793.21 224.354 792.202 224.13C791.194 223.878 790.27 223.542 789.43 223.122C788.59 222.674 787.918 222.072 787.414 221.316C786.91 220.532 786.658 219.496 786.658 218.208C786.658 216.864 787.036 215.688 787.792 214.68C788.548 213.672 789.612 212.902 790.984 212.37C792.384 211.81 794.036 211.53 795.94 211.53C797.396 211.53 798.866 211.712 800.35 212.076C801.862 212.412 803.094 212.902 804.046 213.546L802.324 216.738C801.316 216.066 800.266 215.604 799.174 215.352C798.082 215.1 796.99 214.974 795.898 214.974C794.134 214.974 792.818 215.268 791.95 215.856C791.082 216.416 790.648 217.144 790.648 218.04C790.648 218.796 790.9 219.384 791.404 219.804C791.936 220.196 792.608 220.504 793.42 220.728C794.26 220.952 795.184 221.148 796.192 221.316C797.2 221.456 798.208 221.652 799.216 221.904C800.224 222.128 801.134 222.45 801.946 222.87C802.786 223.29 803.458 223.878 803.962 224.634C804.494 225.39 804.76 226.398 804.76 227.658C804.76 229.002 804.368 230.164 803.584 231.144C802.8 232.124 801.694 232.894 800.266 233.454C798.838 233.986 797.13 234.252 795.142 234.252ZM828.722 234.252C826.482 234.252 824.746 233.65 823.514 232.446C822.282 231.242 821.666 229.52 821.666 227.28V206.868H825.698V227.112C825.698 228.316 825.992 229.24 826.58 229.884C827.196 230.528 828.064 230.85 829.184 230.85C830.444 230.85 831.494 230.5 832.334 229.8L833.594 232.698C832.978 233.23 832.236 233.622 831.368 233.874C830.528 234.126 829.646 234.252 828.722 234.252ZM817.886 215.058V211.74H832.082V215.058H817.886ZM850.354 211.53C852.174 211.53 853.77 211.88 855.142 212.58C856.542 213.28 857.634 214.344 858.418 215.772C859.202 217.2 859.594 219.006 859.594 221.19V234H855.562V221.652C855.562 219.496 855.03 217.872 853.966 216.78C852.93 215.688 851.46 215.142 849.556 215.142C848.128 215.142 846.882 215.422 845.818 215.982C844.754 216.542 843.928 217.368 843.34 218.46C842.78 219.552 842.5 220.91 842.5 222.534V234H838.468V202.836H842.5V217.746L841.702 216.15C842.43 214.694 843.55 213.56 845.062 212.748C846.574 211.936 848.338 211.53 850.354 211.53ZM876.968 234.252C874.588 234.252 872.488 233.762 870.668 232.782C868.876 231.802 867.476 230.458 866.468 228.75C865.488 227.042 864.998 225.082 864.998 222.87C864.998 220.658 865.474 218.698 866.426 216.99C867.406 215.282 868.736 213.952 870.416 213C872.124 212.02 874.042 211.53 876.17 211.53C878.326 211.53 880.23 212.006 881.882 212.958C883.534 213.91 884.822 215.254 885.746 216.99C886.698 218.698 887.174 220.7 887.174 222.996C887.174 223.164 887.16 223.36 887.132 223.584C887.132 223.808 887.118 224.018 887.09 224.214H868.148V221.316H884.99L883.352 222.324C883.38 220.896 883.086 219.622 882.47 218.502C881.854 217.382 881 216.514 879.908 215.898C878.844 215.254 877.598 214.932 876.17 214.932C874.77 214.932 873.524 215.254 872.432 215.898C871.34 216.514 870.486 217.396 869.87 218.544C869.254 219.664 868.946 220.952 868.946 222.408V223.08C868.946 224.564 869.282 225.894 869.954 227.07C870.654 228.218 871.62 229.114 872.852 229.758C874.084 230.402 875.498 230.724 877.094 230.724C878.41 230.724 879.6 230.5 880.664 230.052C881.756 229.604 882.708 228.932 883.52 228.036L885.746 230.64C884.738 231.816 883.478 232.712 881.966 233.328C880.482 233.944 878.816 234.252 876.968 234.252ZM904.64 234V204.6H916.106C918.682 204.6 920.88 205.006 922.7 205.818C924.52 206.63 925.92 207.806 926.9 209.346C927.88 210.886 928.37 212.72 928.37 214.848C928.37 216.976 927.88 218.81 926.9 220.35C925.92 221.862 924.52 223.024 922.7 223.836C920.88 224.648 918.682 225.054 916.106 225.054H906.95L908.84 223.122V234H904.64ZM924.296 234L916.82 223.332H921.314L928.874 234H924.296ZM908.84 223.542L906.95 221.484H915.98C918.668 221.484 920.698 220.91 922.07 219.762C923.47 218.586 924.17 216.948 924.17 214.848C924.17 212.748 923.47 211.124 922.07 209.976C920.698 208.828 918.668 208.254 915.98 208.254H906.95L908.84 206.154V223.542ZM944.48 234.252C942.1 234.252 940 233.762 938.18 232.782C936.388 231.802 934.988 230.458 933.98 228.75C933 227.042 932.51 225.082 932.51 222.87C932.51 220.658 932.986 218.698 933.938 216.99C934.918 215.282 936.248 213.952 937.928 213C939.636 212.02 941.554 211.53 943.682 211.53C945.838 211.53 947.742 212.006 949.394 212.958C951.046 213.91 952.334 215.254 953.258 216.99C954.21 218.698 954.686 220.7 954.686 222.996C954.686 223.164 954.672 223.36 954.644 223.584C954.644 223.808 954.63 224.018 954.602 224.214H935.66V221.316H952.502L950.864 222.324C950.892 220.896 950.598 219.622 949.982 218.502C949.366 217.382 948.512 216.514 947.42 215.898C946.356 215.254 945.11 214.932 943.682 214.932C942.282 214.932 941.036 215.254 939.944 215.898C938.852 216.514 937.998 217.396 937.382 218.544C936.766 219.664 936.458 220.952 936.458 222.408V223.08C936.458 224.564 936.794 225.894 937.466 227.07C938.166 228.218 939.132 229.114 940.364 229.758C941.596 230.402 943.01 230.724 944.606 230.724C945.922 230.724 947.112 230.5 948.176 230.052C949.268 229.604 950.22 228.932 951.032 228.036L953.258 230.64C952.25 231.816 950.99 232.712 949.478 233.328C947.994 233.944 946.328 234.252 944.48 234.252ZM973.488 234V229.296L973.278 228.414V220.392C973.278 218.684 972.774 217.368 971.766 216.444C970.786 215.492 969.302 215.016 967.314 215.016C965.998 215.016 964.71 215.24 963.45 215.688C962.19 216.108 961.126 216.682 960.258 217.41L958.578 214.386C959.726 213.462 961.098 212.762 962.694 212.286C964.318 211.782 966.012 211.53 967.776 211.53C970.828 211.53 973.18 212.272 974.832 213.756C976.484 215.24 977.31 217.508 977.31 220.56V234H973.488ZM966.18 234.252C964.528 234.252 963.072 233.972 961.812 233.412C960.58 232.852 959.628 232.082 958.956 231.102C958.284 230.094 957.948 228.96 957.948 227.7C957.948 226.496 958.228 225.404 958.788 224.424C959.376 223.444 960.314 222.66 961.602 222.072C962.918 221.484 964.682 221.19 966.894 221.19H973.95V224.088H967.062C965.046 224.088 963.688 224.424 962.988 225.096C962.288 225.768 961.938 226.58 961.938 227.532C961.938 228.624 962.372 229.506 963.24 230.178C964.108 230.822 965.312 231.144 966.852 231.144C968.364 231.144 969.68 230.808 970.8 230.136C971.948 229.464 972.774 228.484 973.278 227.196L974.076 229.968C973.544 231.284 972.606 232.334 971.262 233.118C969.918 233.874 968.224 234.252 966.18 234.252ZM984.771 234V202.836H988.803V234H984.771ZM995.074 224.214V220.728H1006.37V224.214H995.074ZM1018.99 234L1009.16 204.6H1013.48L1022.51 231.732H1020.33L1029.7 204.6H1033.56L1042.72 231.732H1040.62L1049.77 204.6H1053.76L1043.93 234H1039.52L1030.96 208.842H1032.09L1023.48 234H1018.99ZM1066.16 234.252C1063.92 234.252 1061.94 233.762 1060.2 232.782C1058.46 231.802 1057.09 230.458 1056.08 228.75C1055.08 227.014 1054.57 225.054 1054.57 222.87C1054.57 220.658 1055.08 218.698 1056.08 216.99C1057.09 215.282 1058.46 213.952 1060.2 213C1061.94 212.02 1063.92 211.53 1066.16 211.53C1068.38 211.53 1070.35 212.02 1072.09 213C1073.85 213.952 1075.22 215.282 1076.2 216.99C1077.21 218.67 1077.71 220.63 1077.71 222.87C1077.71 225.082 1077.21 227.042 1076.2 228.75C1075.22 230.458 1073.85 231.802 1072.09 232.782C1070.35 233.762 1068.38 234.252 1066.16 234.252ZM1066.16 230.724C1067.59 230.724 1068.87 230.402 1069.99 229.758C1071.13 229.114 1072.03 228.204 1072.67 227.028C1073.32 225.824 1073.64 224.438 1073.64 222.87C1073.64 221.274 1073.32 219.902 1072.67 218.754C1072.03 217.578 1071.13 216.668 1069.99 216.024C1068.87 215.38 1067.59 215.058 1066.16 215.058C1064.74 215.058 1063.46 215.38 1062.34 216.024C1061.22 216.668 1060.33 217.578 1059.65 218.754C1058.98 219.902 1058.65 221.274 1058.65 222.87C1058.65 224.438 1058.98 225.824 1059.65 227.028C1060.33 228.204 1061.22 229.114 1062.34 229.758C1063.46 230.402 1064.74 230.724 1066.16 230.724ZM1083.29 234V211.74H1087.15V217.788L1086.78 216.276C1087.39 214.736 1088.43 213.56 1089.88 212.748C1091.34 211.936 1093.13 211.53 1095.26 211.53V215.436C1095.09 215.408 1094.92 215.394 1094.76 215.394C1094.62 215.394 1094.48 215.394 1094.34 215.394C1092.18 215.394 1090.47 216.038 1089.21 217.326C1087.95 218.614 1087.32 220.476 1087.32 222.912V234H1083.29ZM1100.23 234V202.836H1104.26V234H1100.23ZM1121.16 234.252C1119 234.252 1117.07 233.776 1115.36 232.824C1113.68 231.872 1112.35 230.542 1111.37 228.834C1110.39 227.126 1109.9 225.138 1109.9 222.87C1109.9 220.602 1110.39 218.628 1111.37 216.948C1112.35 215.24 1113.68 213.91 1115.36 212.958C1117.07 212.006 1119 211.53 1121.16 211.53C1123.03 211.53 1124.73 211.95 1126.24 212.79C1127.75 213.63 1128.96 214.89 1129.85 216.57C1130.78 218.25 1131.24 220.35 1131.24 222.87C1131.24 225.39 1130.79 227.49 1129.89 229.17C1129.03 230.85 1127.84 232.124 1126.32 232.992C1124.81 233.832 1123.09 234.252 1121.16 234.252ZM1121.49 230.724C1122.89 230.724 1124.15 230.402 1125.27 229.758C1126.42 229.114 1127.32 228.204 1127.96 227.028C1128.63 225.824 1128.97 224.438 1128.97 222.87C1128.97 221.274 1128.63 219.902 1127.96 218.754C1127.32 217.578 1126.42 216.668 1125.27 216.024C1124.15 215.38 1122.89 215.058 1121.49 215.058C1120.07 215.058 1118.79 215.38 1117.67 216.024C1116.55 216.668 1115.66 217.578 1114.98 218.754C1114.31 219.902 1113.98 221.274 1113.98 222.87C1113.98 224.438 1114.31 225.824 1114.98 227.028C1115.66 228.204 1116.55 229.114 1117.67 229.758C1118.79 230.402 1120.07 230.724 1121.49 230.724ZM1129.1 234V227.994L1129.35 222.828L1128.93 217.662V202.836H1132.96V234H1129.1ZM1164.64 234.336C1160.77 234.336 1157.73 233.23 1155.52 231.018C1153.31 228.806 1152.2 225.572 1152.2 221.316V204.6H1156.4V221.148C1156.4 224.424 1157.12 226.818 1158.55 228.33C1160 229.842 1162.05 230.598 1164.68 230.598C1167.34 230.598 1169.38 229.842 1170.81 228.33C1172.27 226.818 1172.99 224.424 1172.99 221.148V204.6H1177.07V221.316C1177.07 225.572 1175.96 228.806 1173.75 231.018C1171.57 233.23 1168.53 234.336 1164.64 234.336ZM1192.74 234.252C1190.5 234.252 1188.76 233.65 1187.53 232.446C1186.3 231.242 1185.68 229.52 1185.68 227.28V206.868H1189.71V227.112C1189.71 228.316 1190.01 229.24 1190.59 229.884C1191.21 230.528 1192.08 230.85 1193.2 230.85C1194.46 230.85 1195.51 230.5 1196.35 229.8L1197.61 232.698C1196.99 233.23 1196.25 233.622 1195.38 233.874C1194.54 234.126 1193.66 234.252 1192.74 234.252ZM1181.9 215.058V211.74H1196.1V215.058H1181.9ZM1202.48 234V211.74H1206.51V234H1202.48ZM1204.5 207.456C1203.71 207.456 1203.06 207.204 1202.52 206.7C1202.02 206.196 1201.77 205.58 1201.77 204.852C1201.77 204.096 1202.02 203.466 1202.52 202.962C1203.06 202.458 1203.71 202.206 1204.5 202.206C1205.28 202.206 1205.93 202.458 1206.43 202.962C1206.96 203.438 1207.23 204.04 1207.23 204.768C1207.23 205.524 1206.98 206.168 1206.47 206.7C1205.97 207.204 1205.31 207.456 1204.5 207.456ZM1214.21 234V202.836H1218.24V234H1214.21ZM1225.94 234V211.74H1229.98V234H1225.94ZM1227.96 207.456C1227.18 207.456 1226.52 207.204 1225.99 206.7C1225.48 206.196 1225.23 205.58 1225.23 204.852C1225.23 204.096 1225.48 203.466 1225.99 202.962C1226.52 202.458 1227.18 202.206 1227.96 202.206C1228.74 202.206 1229.39 202.458 1229.89 202.962C1230.42 203.438 1230.69 204.04 1230.69 204.768C1230.69 205.524 1230.44 206.168 1229.93 206.7C1229.43 207.204 1228.77 207.456 1227.96 207.456ZM1245.32 234.252C1243.08 234.252 1241.34 233.65 1240.11 232.446C1238.88 231.242 1238.26 229.52 1238.26 227.28V206.868H1242.29V227.112C1242.29 228.316 1242.59 229.24 1243.18 229.884C1243.79 230.528 1244.66 230.85 1245.78 230.85C1247.04 230.85 1248.09 230.5 1248.93 229.8L1250.19 232.698C1249.57 233.23 1248.83 233.622 1247.96 233.874C1247.12 234.126 1246.24 234.252 1245.32 234.252ZM1234.48 215.058V211.74H1248.68V215.058H1234.48ZM1255.62 242.4C1254.56 242.4 1253.52 242.218 1252.51 241.854C1251.5 241.518 1250.64 241.014 1249.91 240.342L1251.63 237.318C1252.19 237.85 1252.81 238.256 1253.48 238.536C1254.15 238.816 1254.86 238.956 1255.62 238.956C1256.6 238.956 1257.41 238.704 1258.06 238.2C1258.7 237.696 1259.3 236.8 1259.86 235.512L1261.25 232.446L1261.67 231.942L1270.4 211.74H1274.35L1263.56 236.226C1262.91 237.794 1262.19 239.026 1261.37 239.922C1260.59 240.818 1259.72 241.448 1258.77 241.812C1257.82 242.204 1256.77 242.4 1255.62 242.4ZM1260.91 234.714L1250.75 211.74H1254.95L1263.6 231.564L1260.91 234.714Z" fill="#111113"/>
<path d="M59.6031 144L0.403125 3.99999H51.2031L99.4031 122.2H69.2031L118.803 3.99999H165.203L106.003 144H59.6031ZM202.97 144V82.6L213.77 110.8L150.17 3.99999H199.97L242.97 77H213.97L257.37 3.99999H302.97L239.77 110.8L250.17 82.6V144H202.97ZM374.009 147.2C352.543 147.2 335.809 141.4 323.809 129.8C311.809 118.2 305.809 101.933 305.809 81V3.99999H353.009V79.6C353.009 90.2667 354.943 97.8667 358.809 102.4C362.676 106.8 367.876 109 374.409 109C381.076 109 386.276 106.8 390.009 102.4C393.876 97.8667 395.809 90.2667 395.809 79.6V3.99999H442.209V81C442.209 101.933 436.209 118.2 424.209 129.8C412.209 141.4 395.476 147.2 374.009 147.2ZM536.445 147.2C525.112 147.2 514.645 145.467 505.045 142C495.579 138.4 487.312 133.333 480.245 126.8C473.312 120.267 467.912 112.533 464.045 103.6C460.179 94.6667 458.245 84.8 458.245 74C458.245 63.2 460.179 53.3333 464.045 44.4C467.912 35.4667 473.379 27.7333 480.445 21.2C487.512 14.6667 495.845 9.66666 505.445 6.2C515.179 2.6 525.845 0.799996 537.445 0.799996C551.312 0.799996 563.645 3.13333 574.445 7.79999C585.379 12.4667 594.379 19.1333 601.445 27.8L571.245 54.4C566.845 49.3333 562.045 45.5333 556.845 43C551.779 40.3333 546.112 39 539.845 39C534.645 39 529.912 39.8 525.645 41.4C521.512 43 517.979 45.3333 515.045 48.4C512.112 51.4667 509.845 55.1333 508.245 59.4C506.645 63.6667 505.845 68.5333 505.845 74C505.845 79.2 506.645 84 508.245 88.4C509.845 92.6667 512.112 96.3333 515.045 99.4C517.979 102.467 521.445 104.867 525.445 106.6C529.579 108.2 534.179 109 539.245 109C544.579 109 549.779 108.133 554.845 106.4C559.912 104.533 565.312 101.4 571.045 97L597.445 129.4C588.912 135.133 579.179 139.533 568.245 142.6C557.312 145.667 546.712 147.2 536.445 147.2ZM556.445 123.4V70.2H597.445V129.4L556.445 123.4ZM707.917 144V40.6H666.917V3.99999H796.117V40.6H755.117V144H707.917ZM879.823 147.2C868.49 147.2 857.957 145.4 848.223 141.8C838.623 138.2 830.29 133.133 823.223 126.6C816.157 119.933 810.623 112.133 806.623 103.2C802.757 94.2667 800.823 84.5333 800.823 74C800.823 63.3333 802.757 53.6 806.623 44.8C810.623 35.8667 816.157 28.1333 823.223 21.6C830.29 14.9333 838.623 9.79999 848.223 6.2C857.957 2.6 868.49 0.799996 879.823 0.799996C891.29 0.799996 901.823 2.6 911.423 6.2C921.023 9.79999 929.357 14.9333 936.423 21.6C943.49 28.1333 948.957 35.8667 952.823 44.8C956.823 53.6 958.823 63.3333 958.823 74C958.823 84.5333 956.823 94.2667 952.823 103.2C948.957 112.133 943.49 119.933 936.423 126.6C929.357 133.133 921.023 138.2 911.423 141.8C901.823 145.4 891.29 147.2 879.823 147.2ZM879.823 109C884.223 109 888.29 108.2 892.023 106.6C895.89 105 899.223 102.733 902.023 99.8C904.957 96.7333 907.223 93.0667 908.823 88.8C910.423 84.4 911.223 79.4667 911.223 74C911.223 68.5333 910.423 63.6667 908.823 59.4C907.223 55 904.957 51.3333 902.023 48.4C899.223 45.3333 895.89 43 892.023 41.4C888.29 39.8 884.223 39 879.823 39C875.423 39 871.29 39.8 867.423 41.4C863.69 43 860.357 45.3333 857.423 48.4C854.623 51.3333 852.423 55 850.823 59.4C849.223 63.6667 848.423 68.5333 848.423 74C848.423 79.4667 849.223 84.4 850.823 88.8C852.423 93.0667 854.623 96.7333 857.423 99.8C860.357 102.733 863.69 105 867.423 106.6C871.29 108.2 875.423 109 879.823 109ZM1018.15 114L1015.55 62.2L1068.35 3.99999H1119.75L1060.55 69.2L1034.35 96L1018.15 114ZM975.955 144V3.99999H1022.35V144H975.955ZM1067.95 144L1026.75 89.6L1057.35 57.2L1122.55 144H1067.95ZM1172.08 56H1234.48V90H1172.08V56ZM1175.28 108.4H1245.28V144H1128.88V3.99999H1242.68V39.6H1175.28V108.4ZM1263.45 144V3.99999H1302.25L1373.45 89.2H1355.45V3.99999H1401.45V144H1362.65L1291.45 58.8H1309.45V144H1263.45Z" fill="#111113"/>
</svg>
