<svg width="708" height="708" viewBox="0 0 708 708" fill="none" xmlns="http://www.w3.org/2000/svg">
<line x1="354.336" y1="24.5" x2="354.336" y2="691.5" stroke="white" stroke-opacity="0.5" stroke-linecap="round" stroke-dasharray="5 5"/>
<line x1="687.336" y1="354.5" x2="20.3359" y2="354.5" stroke="white" stroke-opacity="0.5" stroke-linecap="round" stroke-dasharray="5 5"/>
<line x1="590.008" y1="122.535" x2="118.368" y2="594.175" stroke="white" stroke-opacity="0.5" stroke-linecap="round" stroke-dasharray="5 5"/>
<line x1="592.129" y1="591.344" x2="120.489" y2="119.703" stroke="white" stroke-opacity="0.5" stroke-linecap="round" stroke-dasharray="5 5"/>
<path d="M475.502 143.098C497.615 155.866 517.582 172.034 534.668 191.01L353.833 353.834L475.502 143.098Z" fill="#A7D2A4"/>
<path d="M465.031 253.84C482.937 273.755 495.168 298.113 500.443 324.369C505.719 350.626 503.847 377.817 495.023 403.103L353.832 353.829L465.031 253.84Z" fill="#3D833A"/>
<path d="M440.849 383.765C437.708 392.897 433.149 401.477 427.34 409.191L353.827 353.833L440.849 383.765Z" fill="#B7DBB7"/>
<path d="M563.411 512.392C535.014 549.926 497.058 579.145 453.51 596.996C409.961 614.848 362.418 620.677 315.847 613.874L353.83 353.83L563.411 512.392Z" fill="#5FAF5A"/>
<path d="M219.194 586.699C182.43 565.414 151.226 535.729 128.133 500.073C105.039 464.417 90.7124 423.802 86.3236 381.548L354.075 353.737L219.194 586.699Z" fill="#2E632B"/>
<path d="M349.2 588.275C309.711 587.494 271.058 576.751 236.83 557.042L353.837 353.833L349.2 588.275Z" fill="#CAE4C9"/>
<path d="M181.334 371.839C178.779 347.362 181.463 322.62 189.207 299.26C196.951 275.899 209.579 254.454 226.25 236.35C242.921 218.246 263.255 203.897 285.899 194.258C308.544 184.618 332.98 179.908 357.585 180.441L353.83 353.833L181.334 371.839Z" fill="#ECF6ED"/>
<path d="M339.913 216.493C368.915 213.554 398.103 219.873 423.294 234.543L353.827 353.828L339.913 216.493Z" fill="#5FAF5A"/>
<circle cx="355.336" cy="356.5" r="52" stroke="white" stroke-opacity="0.8" stroke-linecap="round" stroke-dasharray="5 5"/>
<circle cx="355.336" cy="356.5" r="89" stroke="white" stroke-opacity="0.7" stroke-linecap="round" stroke-dasharray="5 5"/>
<circle cx="355.336" cy="356.5" r="125" stroke="white" stroke-opacity="0.6" stroke-linecap="round" stroke-dasharray="5 5"/>
<circle cx="355.336" cy="356.5" r="156" stroke="white" stroke-opacity="0.5" stroke-linecap="round" stroke-dasharray="5 5"/>
<circle cx="355.336" cy="356.5" r="188" stroke="white" stroke-opacity="0.4" stroke-linecap="round" stroke-dasharray="5 5"/>
<circle opacity="0.3" cx="355.336" cy="356.5" r="221" stroke="white" stroke-opacity="0.3" stroke-linecap="round" stroke-dasharray="5 5"/>
<circle cx="355.336" cy="356.5" r="254" stroke="white" stroke-opacity="0.2" stroke-linecap="round" stroke-dasharray="5 5"/>
<circle cx="355.336" cy="356.5" r="293" stroke="white" stroke-opacity="0.1" stroke-linecap="round" stroke-dasharray="5 5"/>
<path d="M465.557 196.09C464.217 196.09 463.162 195.705 462.392 194.935C461.622 194.165 461.237 193.025 461.237 191.515V185.5H462.347V191.47C462.347 192.71 462.627 193.625 463.187 194.215C463.747 194.805 464.537 195.1 465.557 195.1C466.587 195.1 467.382 194.805 467.942 194.215C468.502 193.625 468.782 192.71 468.782 191.47V185.5H469.862V191.515C469.862 193.025 469.477 194.165 468.707 194.935C467.947 195.705 466.897 196.09 465.557 196.09ZM477.767 196.09C476.977 196.09 476.247 195.96 475.577 195.7C474.907 195.43 474.327 195.055 473.837 194.575C473.347 194.095 472.962 193.53 472.682 192.88C472.412 192.23 472.277 191.52 472.277 190.75C472.277 189.98 472.412 189.27 472.682 188.62C472.962 187.97 473.347 187.405 473.837 186.925C474.337 186.445 474.922 186.075 475.592 185.815C476.262 185.545 476.992 185.41 477.782 185.41C478.542 185.41 479.257 185.54 479.927 185.8C480.597 186.05 481.162 186.43 481.622 186.94L480.917 187.645C480.487 187.205 480.012 186.89 479.492 186.7C478.972 186.5 478.412 186.4 477.812 186.4C477.182 186.4 476.597 186.51 476.057 186.73C475.517 186.94 475.047 187.245 474.647 187.645C474.247 188.035 473.932 188.495 473.702 189.025C473.482 189.545 473.372 190.12 473.372 190.75C473.372 191.38 473.482 191.96 473.702 192.49C473.932 193.01 474.247 193.47 474.647 193.87C475.047 194.26 475.517 194.565 476.057 194.785C476.597 194.995 477.182 195.1 477.812 195.1C478.412 195.1 478.972 195 479.492 194.8C480.012 194.6 480.487 194.28 480.917 193.84L481.622 194.545C481.162 195.055 480.597 195.44 479.927 195.7C479.257 195.96 478.537 196.09 477.767 196.09ZM484.978 190.195H490.528V191.14H484.978V190.195ZM485.098 195.04H491.413V196H483.988V185.5H491.188V186.46H485.098V195.04ZM496.261 196L492.721 185.5H493.861L497.176 195.385H496.606L500.026 185.5H501.046L504.421 195.385H503.881L507.226 185.5H508.291L504.751 196H503.581L500.356 186.625H500.656L497.416 196H496.261Z" fill="black" fill-opacity="0.5"/>
<path d="M432.812 331V320.5H433.922V330.04H439.802V331H432.812ZM444.195 331.09C443.515 331.09 442.91 330.98 442.38 330.76C441.85 330.53 441.43 330.215 441.12 329.815C440.82 329.415 440.67 328.95 440.67 328.42C440.67 327.97 440.77 327.56 440.97 327.19C441.17 326.81 441.49 326.44 441.93 326.08C442.38 325.71 442.975 325.325 443.715 324.925C444.345 324.575 444.835 324.275 445.185 324.025C445.545 323.765 445.8 323.52 445.95 323.29C446.1 323.05 446.175 322.795 446.175 322.525C446.175 322.135 446.04 321.82 445.77 321.58C445.51 321.34 445.135 321.22 444.645 321.22C444.115 321.22 443.705 321.355 443.415 321.625C443.125 321.885 442.98 322.225 442.98 322.645C442.98 322.855 443.01 323.055 443.07 323.245C443.14 323.435 443.265 323.645 443.445 323.875C443.635 324.105 443.895 324.395 444.225 324.745L449.775 330.46L449.16 331.165L443.37 325.21C443.02 324.84 442.74 324.52 442.53 324.25C442.33 323.97 442.19 323.705 442.11 323.455C442.03 323.205 441.99 322.94 441.99 322.66C441.99 322.21 442.095 321.82 442.305 321.49C442.525 321.15 442.835 320.89 443.235 320.71C443.635 320.52 444.105 320.425 444.645 320.425C445.135 320.425 445.56 320.51 445.92 320.68C446.29 320.84 446.575 321.075 446.775 321.385C446.985 321.695 447.09 322.07 447.09 322.51C447.09 322.89 446.995 323.245 446.805 323.575C446.625 323.905 446.325 324.23 445.905 324.55C445.485 324.86 444.915 325.21 444.195 325.6C443.565 325.95 443.065 326.27 442.695 326.56C442.335 326.85 442.08 327.135 441.93 327.415C441.78 327.685 441.705 327.985 441.705 328.315C441.705 328.695 441.81 329.03 442.02 329.32C442.24 329.6 442.54 329.82 442.92 329.98C443.31 330.13 443.755 330.205 444.255 330.205C444.955 330.205 445.58 330.06 446.13 329.77C446.68 329.48 447.14 329.04 447.51 328.45C447.89 327.86 448.165 327.12 448.335 326.23L449.19 326.5C449 327.5 448.675 328.34 448.215 329.02C447.755 329.7 447.185 330.215 446.505 330.565C445.825 330.915 445.055 331.09 444.195 331.09ZM452.669 325.195H458.219V326.14H452.669V325.195ZM452.789 330.04H459.104V331H451.679V320.5H458.879V321.46H452.789V330.04ZM461.713 331V320.5H462.823V330.04H468.703V331H461.713Z" fill="black" fill-opacity="0.5"/>
<path d="M401.967 394.09C401.167 394.09 400.427 393.96 399.747 393.7C399.077 393.43 398.492 393.055 397.992 392.575C397.502 392.095 397.117 391.53 396.837 390.88C396.567 390.23 396.432 389.52 396.432 388.75C396.432 387.98 396.567 387.27 396.837 386.62C397.117 385.97 397.507 385.405 398.007 384.925C398.507 384.445 399.092 384.075 399.762 383.815C400.442 383.545 401.182 383.41 401.982 383.41C402.782 383.41 403.512 383.535 404.172 383.785C404.842 384.035 405.412 384.415 405.882 384.925L405.192 385.63C404.752 385.19 404.267 384.875 403.737 384.685C403.207 384.495 402.637 384.4 402.027 384.4C401.377 384.4 400.777 384.51 400.227 384.73C399.687 384.94 399.212 385.245 398.802 385.645C398.402 386.035 398.087 386.495 397.857 387.025C397.637 387.545 397.527 388.12 397.527 388.75C397.527 389.37 397.637 389.945 397.857 390.475C398.087 391.005 398.402 391.47 398.802 391.87C399.212 392.26 399.687 392.565 400.227 392.785C400.777 392.995 401.372 393.1 402.012 393.1C402.612 393.1 403.177 393.01 403.707 392.83C404.247 392.65 404.742 392.345 405.192 391.915L405.822 392.755C405.322 393.195 404.737 393.53 404.067 393.76C403.397 393.98 402.697 394.09 401.967 394.09ZM404.757 392.62V388.75H405.822V392.755L404.757 392.62ZM411.514 394.09C410.834 394.09 410.229 393.98 409.699 393.76C409.169 393.53 408.749 393.215 408.439 392.815C408.139 392.415 407.989 391.95 407.989 391.42C407.989 390.97 408.089 390.56 408.289 390.19C408.489 389.81 408.809 389.44 409.249 389.08C409.699 388.71 410.294 388.325 411.034 387.925C411.664 387.575 412.154 387.275 412.504 387.025C412.864 386.765 413.119 386.52 413.269 386.29C413.419 386.05 413.494 385.795 413.494 385.525C413.494 385.135 413.359 384.82 413.089 384.58C412.829 384.34 412.454 384.22 411.964 384.22C411.434 384.22 411.024 384.355 410.734 384.625C410.444 384.885 410.299 385.225 410.299 385.645C410.299 385.855 410.329 386.055 410.389 386.245C410.459 386.435 410.584 386.645 410.764 386.875C410.954 387.105 411.214 387.395 411.544 387.745L417.094 393.46L416.479 394.165L410.689 388.21C410.339 387.84 410.059 387.52 409.849 387.25C409.649 386.97 409.509 386.705 409.429 386.455C409.349 386.205 409.309 385.94 409.309 385.66C409.309 385.21 409.414 384.82 409.624 384.49C409.844 384.15 410.154 383.89 410.554 383.71C410.954 383.52 411.424 383.425 411.964 383.425C412.454 383.425 412.879 383.51 413.239 383.68C413.609 383.84 413.894 384.075 414.094 384.385C414.304 384.695 414.409 385.07 414.409 385.51C414.409 385.89 414.314 386.245 414.124 386.575C413.944 386.905 413.644 387.23 413.224 387.55C412.804 387.86 412.234 388.21 411.514 388.6C410.884 388.95 410.384 389.27 410.014 389.56C409.654 389.85 409.399 390.135 409.249 390.415C409.099 390.685 409.024 390.985 409.024 391.315C409.024 391.695 409.129 392.03 409.339 392.32C409.559 392.6 409.859 392.82 410.239 392.98C410.629 393.13 411.074 393.205 411.574 393.205C412.274 393.205 412.899 393.06 413.449 392.77C413.999 392.48 414.459 392.04 414.829 391.45C415.209 390.86 415.484 390.12 415.654 389.23L416.509 389.5C416.319 390.5 415.994 391.34 415.534 392.02C415.074 392.7 414.504 393.215 413.824 393.565C413.144 393.915 412.374 394.09 411.514 394.09ZM423.558 394.09C422.768 394.09 422.038 393.96 421.368 393.7C420.698 393.43 420.118 393.055 419.628 392.575C419.138 392.095 418.753 391.53 418.473 390.88C418.203 390.23 418.068 389.52 418.068 388.75C418.068 387.98 418.203 387.27 418.473 386.62C418.753 385.97 419.138 385.405 419.628 384.925C420.128 384.445 420.713 384.075 421.383 383.815C422.053 383.545 422.783 383.41 423.573 383.41C424.333 383.41 425.048 383.54 425.718 383.8C426.388 384.05 426.953 384.43 427.413 384.94L426.708 385.645C426.278 385.205 425.803 384.89 425.283 384.7C424.763 384.5 424.203 384.4 423.603 384.4C422.973 384.4 422.388 384.51 421.848 384.73C421.308 384.94 420.838 385.245 420.438 385.645C420.038 386.035 419.723 386.495 419.493 387.025C419.273 387.545 419.163 388.12 419.163 388.75C419.163 389.38 419.273 389.96 419.493 390.49C419.723 391.01 420.038 391.47 420.438 391.87C420.838 392.26 421.308 392.565 421.848 392.785C422.388 392.995 422.973 393.1 423.603 393.1C424.203 393.1 424.763 393 425.283 392.8C425.803 392.6 426.278 392.28 426.708 391.84L427.413 392.545C426.953 393.055 426.388 393.44 425.718 393.7C425.048 393.96 424.328 394.09 423.558 394.09ZM429.779 394V383.5H433.709C434.599 383.5 435.364 383.645 436.004 383.935C436.644 384.215 437.134 384.625 437.474 385.165C437.824 385.695 437.999 386.34 437.999 387.1C437.999 387.84 437.824 388.48 437.474 389.02C437.134 389.55 436.644 389.96 436.004 390.25C435.364 390.54 434.599 390.685 433.709 390.685H430.394L430.889 390.16V394H429.779ZM430.889 390.25L430.394 389.71H433.679C434.729 389.71 435.524 389.485 436.064 389.035C436.614 388.575 436.889 387.93 436.889 387.1C436.889 386.26 436.614 385.61 436.064 385.15C435.524 384.69 434.729 384.46 433.679 384.46H430.394L430.889 383.935V390.25Z" fill="black" fill-opacity="0.5"/>
<path d="M443.338 545.09C442.558 545.09 441.808 544.965 441.088 544.715C440.378 544.455 439.828 544.125 439.438 543.725L439.873 542.87C440.243 543.23 440.738 543.535 441.358 543.785C441.988 544.025 442.648 544.145 443.338 544.145C443.998 544.145 444.533 544.065 444.943 543.905C445.363 543.735 445.668 543.51 445.858 543.23C446.058 542.95 446.158 542.64 446.158 542.3C446.158 541.89 446.038 541.56 445.798 541.31C445.568 541.06 445.263 540.865 444.883 540.725C444.503 540.575 444.083 540.445 443.623 540.335C443.163 540.225 442.703 540.11 442.243 539.99C441.783 539.86 441.358 539.69 440.968 539.48C440.588 539.27 440.278 538.995 440.038 538.655C439.808 538.305 439.693 537.85 439.693 537.29C439.693 536.77 439.828 536.295 440.098 535.865C440.378 535.425 440.803 535.075 441.373 534.815C441.943 534.545 442.673 534.41 443.563 534.41C444.153 534.41 444.738 534.495 445.318 534.665C445.898 534.825 446.398 535.05 446.818 535.34L446.443 536.225C445.993 535.925 445.513 535.705 445.003 535.565C444.503 535.425 444.018 535.355 443.548 535.355C442.918 535.355 442.398 535.44 441.988 535.61C441.578 535.78 441.273 536.01 441.073 536.3C440.883 536.58 440.788 536.9 440.788 537.26C440.788 537.67 440.903 538 441.133 538.25C441.373 538.5 441.683 538.695 442.063 538.835C442.453 538.975 442.878 539.1 443.338 539.21C443.798 539.32 444.253 539.44 444.703 539.57C445.163 539.7 445.583 539.87 445.963 540.08C446.353 540.28 446.663 540.55 446.893 540.89C447.133 541.23 447.253 541.675 447.253 542.225C447.253 542.735 447.113 543.21 446.833 543.65C446.553 544.08 446.123 544.43 445.543 544.7C444.973 544.96 444.238 545.09 443.338 545.09ZM452.222 545.09C451.542 545.09 450.937 544.98 450.407 544.76C449.877 544.53 449.457 544.215 449.147 543.815C448.847 543.415 448.697 542.95 448.697 542.42C448.697 541.97 448.797 541.56 448.997 541.19C449.197 540.81 449.517 540.44 449.957 540.08C450.407 539.71 451.002 539.325 451.742 538.925C452.372 538.575 452.862 538.275 453.212 538.025C453.572 537.765 453.827 537.52 453.977 537.29C454.127 537.05 454.202 536.795 454.202 536.525C454.202 536.135 454.067 535.82 453.797 535.58C453.537 535.34 453.162 535.22 452.672 535.22C452.142 535.22 451.732 535.355 451.442 535.625C451.152 535.885 451.007 536.225 451.007 536.645C451.007 536.855 451.037 537.055 451.097 537.245C451.167 537.435 451.292 537.645 451.472 537.875C451.662 538.105 451.922 538.395 452.252 538.745L457.802 544.46L457.187 545.165L451.397 539.21C451.047 538.84 450.767 538.52 450.557 538.25C450.357 537.97 450.217 537.705 450.137 537.455C450.057 537.205 450.017 536.94 450.017 536.66C450.017 536.21 450.122 535.82 450.332 535.49C450.552 535.15 450.862 534.89 451.262 534.71C451.662 534.52 452.132 534.425 452.672 534.425C453.162 534.425 453.587 534.51 453.947 534.68C454.317 534.84 454.602 535.075 454.802 535.385C455.012 535.695 455.117 536.07 455.117 536.51C455.117 536.89 455.022 537.245 454.832 537.575C454.652 537.905 454.352 538.23 453.932 538.55C453.512 538.86 452.942 539.21 452.222 539.6C451.592 539.95 451.092 540.27 450.722 540.56C450.362 540.85 450.107 541.135 449.957 541.415C449.807 541.685 449.732 541.985 449.732 542.315C449.732 542.695 449.837 543.03 450.047 543.32C450.267 543.6 450.567 543.82 450.947 543.98C451.337 544.13 451.782 544.205 452.282 544.205C452.982 544.205 453.607 544.06 454.157 543.77C454.707 543.48 455.167 543.04 455.537 542.45C455.917 541.86 456.192 541.12 456.362 540.23L457.217 540.5C457.027 541.5 456.702 542.34 456.242 543.02C455.782 543.7 455.212 544.215 454.532 544.565C453.852 544.915 453.082 545.09 452.222 545.09ZM459.706 545V534.5H463.636C464.526 534.5 465.291 534.645 465.931 534.935C466.571 535.215 467.061 535.625 467.401 536.165C467.751 536.695 467.926 537.34 467.926 538.1C467.926 538.84 467.751 539.48 467.401 540.02C467.061 540.55 466.571 540.96 465.931 541.25C465.291 541.53 464.526 541.67 463.636 541.67H460.321L460.816 541.16V545H459.706ZM466.876 545L464.176 541.19H465.376L468.091 545H466.876ZM460.816 541.25L460.321 540.725H463.606C464.656 540.725 465.451 540.495 465.991 540.035C466.541 539.575 466.816 538.93 466.816 538.1C466.816 537.26 466.541 536.61 465.991 536.15C465.451 535.69 464.656 535.46 463.606 535.46H460.321L460.816 534.935V541.25Z" fill="black" fill-opacity="0.5"/>
<path d="M307.214 528V517.5H311.144C312.034 517.5 312.799 517.645 313.439 517.935C314.079 518.215 314.569 518.625 314.909 519.165C315.259 519.695 315.434 520.34 315.434 521.1C315.434 521.84 315.259 522.48 314.909 523.02C314.569 523.55 314.079 523.96 313.439 524.25C312.799 524.53 312.034 524.67 311.144 524.67H307.829L308.324 524.16V528H307.214ZM314.384 528L311.684 524.19H312.884L315.599 528H314.384ZM308.324 524.25L307.829 523.725H311.114C312.164 523.725 312.959 523.495 313.499 523.035C314.049 522.575 314.324 521.93 314.324 521.1C314.324 520.26 314.049 519.61 313.499 519.15C312.959 518.69 312.164 518.46 311.114 518.46H307.829L308.324 517.935V524.25ZM319.044 522.585H324.594V523.545H319.044V522.585ZM319.164 528H318.054V517.5H325.254V518.46H319.164V528Z" fill="black" fill-opacity="0.5"/>
<path d="M149.037 471.195H154.587V472.14H149.037V471.195ZM149.157 476.04H155.472V477H148.047V466.5H155.247V467.46H149.157V476.04ZM162.612 477.09C161.822 477.09 161.092 476.96 160.422 476.7C159.752 476.43 159.172 476.055 158.682 475.575C158.192 475.095 157.807 474.53 157.527 473.88C157.257 473.23 157.122 472.52 157.122 471.75C157.122 470.98 157.257 470.27 157.527 469.62C157.807 468.97 158.192 468.405 158.682 467.925C159.182 467.445 159.767 467.075 160.437 466.815C161.107 466.545 161.837 466.41 162.627 466.41C163.387 466.41 164.102 466.54 164.772 466.8C165.442 467.05 166.007 467.43 166.467 467.94L165.762 468.645C165.332 468.205 164.857 467.89 164.337 467.7C163.817 467.5 163.257 467.4 162.657 467.4C162.027 467.4 161.442 467.51 160.902 467.73C160.362 467.94 159.892 468.245 159.492 468.645C159.092 469.035 158.777 469.495 158.547 470.025C158.327 470.545 158.217 471.12 158.217 471.75C158.217 472.38 158.327 472.96 158.547 473.49C158.777 474.01 159.092 474.47 159.492 474.87C159.892 475.26 160.362 475.565 160.902 475.785C161.442 475.995 162.027 476.1 162.657 476.1C163.257 476.1 163.817 476 164.337 475.8C164.857 475.6 165.332 475.28 165.762 474.84L166.467 475.545C166.007 476.055 165.442 476.44 164.772 476.7C164.102 476.96 163.382 477.09 162.612 477.09ZM171.09 477.09C170.41 477.09 169.805 476.98 169.275 476.76C168.745 476.53 168.325 476.215 168.015 475.815C167.715 475.415 167.565 474.95 167.565 474.42C167.565 473.97 167.665 473.56 167.865 473.19C168.065 472.81 168.385 472.44 168.825 472.08C169.275 471.71 169.87 471.325 170.61 470.925C171.24 470.575 171.73 470.275 172.08 470.025C172.44 469.765 172.695 469.52 172.845 469.29C172.995 469.05 173.07 468.795 173.07 468.525C173.07 468.135 172.935 467.82 172.665 467.58C172.405 467.34 172.03 467.22 171.54 467.22C171.01 467.22 170.6 467.355 170.31 467.625C170.02 467.885 169.875 468.225 169.875 468.645C169.875 468.855 169.905 469.055 169.965 469.245C170.035 469.435 170.16 469.645 170.34 469.875C170.53 470.105 170.79 470.395 171.12 470.745L176.67 476.46L176.055 477.165L170.265 471.21C169.915 470.84 169.635 470.52 169.425 470.25C169.225 469.97 169.085 469.705 169.005 469.455C168.925 469.205 168.885 468.94 168.885 468.66C168.885 468.21 168.99 467.82 169.2 467.49C169.42 467.15 169.73 466.89 170.13 466.71C170.53 466.52 171 466.425 171.54 466.425C172.03 466.425 172.455 466.51 172.815 466.68C173.185 466.84 173.47 467.075 173.67 467.385C173.88 467.695 173.985 468.07 173.985 468.51C173.985 468.89 173.89 469.245 173.7 469.575C173.52 469.905 173.22 470.23 172.8 470.55C172.38 470.86 171.81 471.21 171.09 471.6C170.46 471.95 169.96 472.27 169.59 472.56C169.23 472.85 168.975 473.135 168.825 473.415C168.675 473.685 168.6 473.985 168.6 474.315C168.6 474.695 168.705 475.03 168.915 475.32C169.135 475.6 169.435 475.82 169.815 475.98C170.205 476.13 170.65 476.205 171.15 476.205C171.85 476.205 172.475 476.06 173.025 475.77C173.575 475.48 174.035 475.04 174.405 474.45C174.785 473.86 175.06 473.12 175.23 472.23L176.085 472.5C175.895 473.5 175.57 474.34 175.11 475.02C174.65 475.7 174.08 476.215 173.4 476.565C172.72 476.915 171.95 477.09 171.09 477.09ZM177.114 477L181.914 466.5H183.009L187.809 477H186.639L182.229 467.145H182.679L178.269 477H177.114ZM179.004 474.195L179.334 473.295H185.439L185.769 474.195H179.004Z" fill="black" fill-opacity="0.5"/>
<path d="M215.421 313.195H220.971V314.14H215.421V313.195ZM215.541 318.04H221.856V319H214.431V308.5H221.631V309.46H215.541V318.04ZM225.455 313.195H231.005V314.14H225.455V313.195ZM225.575 318.04H231.89V319H224.465V308.5H231.665V309.46H225.575V318.04ZM237.049 319.09C236.369 319.09 235.764 318.98 235.234 318.76C234.704 318.53 234.284 318.215 233.974 317.815C233.674 317.415 233.524 316.95 233.524 316.42C233.524 315.97 233.624 315.56 233.824 315.19C234.024 314.81 234.344 314.44 234.784 314.08C235.234 313.71 235.829 313.325 236.569 312.925C237.199 312.575 237.689 312.275 238.039 312.025C238.399 311.765 238.654 311.52 238.804 311.29C238.954 311.05 239.029 310.795 239.029 310.525C239.029 310.135 238.894 309.82 238.624 309.58C238.364 309.34 237.989 309.22 237.499 309.22C236.969 309.22 236.559 309.355 236.269 309.625C235.979 309.885 235.834 310.225 235.834 310.645C235.834 310.855 235.864 311.055 235.924 311.245C235.994 311.435 236.119 311.645 236.299 311.875C236.489 312.105 236.749 312.395 237.079 312.745L242.629 318.46L242.014 319.165L236.224 313.21C235.874 312.84 235.594 312.52 235.384 312.25C235.184 311.97 235.044 311.705 234.964 311.455C234.884 311.205 234.844 310.94 234.844 310.66C234.844 310.21 234.949 309.82 235.159 309.49C235.379 309.15 235.689 308.89 236.089 308.71C236.489 308.52 236.959 308.425 237.499 308.425C237.989 308.425 238.414 308.51 238.774 308.68C239.144 308.84 239.429 309.075 239.629 309.385C239.839 309.695 239.944 310.07 239.944 310.51C239.944 310.89 239.849 311.245 239.659 311.575C239.479 311.905 239.179 312.23 238.759 312.55C238.339 312.86 237.769 313.21 237.049 313.6C236.419 313.95 235.919 314.27 235.549 314.56C235.189 314.85 234.934 315.135 234.784 315.415C234.634 315.685 234.559 315.985 234.559 316.315C234.559 316.695 234.664 317.03 234.874 317.32C235.094 317.6 235.394 317.82 235.774 317.98C236.164 318.13 236.609 318.205 237.109 318.205C237.809 318.205 238.434 318.06 238.984 317.77C239.534 317.48 239.994 317.04 240.364 316.45C240.744 315.86 241.019 315.12 241.189 314.23L242.044 314.5C241.854 315.5 241.529 316.34 241.069 317.02C240.609 317.7 240.039 318.215 239.359 318.565C238.679 318.915 237.909 319.09 237.049 319.09ZM244.533 319V308.5H248.463C249.353 308.5 250.118 308.645 250.758 308.935C251.398 309.215 251.888 309.625 252.228 310.165C252.578 310.695 252.753 311.34 252.753 312.1C252.753 312.84 252.578 313.48 252.228 314.02C251.888 314.55 251.398 314.96 250.758 315.25C250.118 315.54 249.353 315.685 248.463 315.685H245.148L245.643 315.16V319H244.533ZM245.643 315.25L245.148 314.71H248.433C249.483 314.71 250.278 314.485 250.818 314.035C251.368 313.575 251.643 312.93 251.643 312.1C251.643 311.26 251.368 310.61 250.818 310.15C250.278 309.69 249.483 309.46 248.433 309.46H245.148L245.643 308.935V315.25ZM255.153 319V308.5H259.428C260.548 308.5 261.528 308.725 262.368 309.175C263.218 309.615 263.878 310.23 264.348 311.02C264.818 311.81 265.053 312.72 265.053 313.75C265.053 314.78 264.818 315.69 264.348 316.48C263.878 317.27 263.218 317.89 262.368 318.34C261.528 318.78 260.548 319 259.428 319H255.153ZM256.263 318.04H259.368C260.298 318.04 261.103 317.86 261.783 317.5C262.473 317.13 263.008 316.625 263.388 315.985C263.768 315.335 263.958 314.59 263.958 313.75C263.958 312.9 263.768 312.155 263.388 311.515C263.008 310.875 262.473 310.375 261.783 310.015C261.103 309.645 260.298 309.46 259.368 309.46H256.263V318.04Z" fill="black" fill-opacity="0.5"/>
<path d="M365.494 257V247.46H361.804V246.5H370.294V247.46H366.604V257H365.494ZM374.09 257.09C373.41 257.09 372.805 256.98 372.275 256.76C371.745 256.53 371.325 256.215 371.015 255.815C370.715 255.415 370.565 254.95 370.565 254.42C370.565 253.97 370.665 253.56 370.865 253.19C371.065 252.81 371.385 252.44 371.825 252.08C372.275 251.71 372.87 251.325 373.61 250.925C374.24 250.575 374.73 250.275 375.08 250.025C375.44 249.765 375.695 249.52 375.845 249.29C375.995 249.05 376.07 248.795 376.07 248.525C376.07 248.135 375.935 247.82 375.665 247.58C375.405 247.34 375.03 247.22 374.54 247.22C374.01 247.22 373.6 247.355 373.31 247.625C373.02 247.885 372.875 248.225 372.875 248.645C372.875 248.855 372.905 249.055 372.965 249.245C373.035 249.435 373.16 249.645 373.34 249.875C373.53 250.105 373.79 250.395 374.12 250.745L379.67 256.46L379.055 257.165L373.265 251.21C372.915 250.84 372.635 250.52 372.425 250.25C372.225 249.97 372.085 249.705 372.005 249.455C371.925 249.205 371.885 248.94 371.885 248.66C371.885 248.21 371.99 247.82 372.2 247.49C372.42 247.15 372.73 246.89 373.13 246.71C373.53 246.52 374 246.425 374.54 246.425C375.03 246.425 375.455 246.51 375.815 246.68C376.185 246.84 376.47 247.075 376.67 247.385C376.88 247.695 376.985 248.07 376.985 248.51C376.985 248.89 376.89 249.245 376.7 249.575C376.52 249.905 376.22 250.23 375.8 250.55C375.38 250.86 374.81 251.21 374.09 251.6C373.46 251.95 372.96 252.27 372.59 252.56C372.23 252.85 371.975 253.135 371.825 253.415C371.675 253.685 371.6 253.985 371.6 254.315C371.6 254.695 371.705 255.03 371.915 255.32C372.135 255.6 372.435 255.82 372.815 255.98C373.205 256.13 373.65 256.205 374.15 256.205C374.85 256.205 375.475 256.06 376.025 255.77C376.575 255.48 377.035 255.04 377.405 254.45C377.785 253.86 378.06 253.12 378.23 252.23L379.085 252.5C378.895 253.5 378.57 254.34 378.11 255.02C377.65 255.7 377.08 256.215 376.4 256.565C375.72 256.915 374.95 257.09 374.09 257.09ZM380.114 257L384.914 246.5H386.009L390.809 257H389.639L385.229 247.145H385.679L381.269 257H380.114ZM382.004 254.195L382.334 253.295H388.439L388.769 254.195H382.004Z" fill="black" fill-opacity="0.5"/>
</svg>
