<svg width="145" height="191" viewBox="0 0 149 159" fill="none" xmlns="http://www.w3.org/2000/svg">
<path d="M27.3165 31.2033H30.6917C61.3115 31.2033 91.9313 31.2033 122.551 31.2033C123.4 31.2033 124.242 31.1841 125.091 31.2224C129.097 31.4011 131.318 33.6342 131.375 37.6348C131.426 41.1632 131.388 44.6852 131.388 48.2774C132.517 48.456 133.513 48.5007 134.438 48.775C136.569 49.4131 137.832 50.8742 137.922 53.1265C138.011 55.4299 137.998 57.7396 137.966 60.0493C137.915 63.6287 136.486 65.1856 132.919 65.645C132.473 65.7024 132.032 65.7853 131.382 65.8874C131.382 68.9373 131.401 71.9233 131.382 74.903C131.343 79.2991 129.078 81.5769 124.708 81.628C123.017 81.6471 121.313 81.7556 119.635 81.5961C117.938 81.4366 117.243 82.1831 116.624 83.6761C112.049 94.7079 105.42 104.132 95.1407 110.653C94.6047 110.991 94.0815 111.82 94.0751 112.433C93.9858 117.193 94.0241 121.959 94.0241 127.019C95.3257 127.082 96.5125 127.223 97.6928 127.178C107.181 126.814 116.177 128.607 124.542 133.233C124.944 133.456 125.492 133.59 125.716 133.929C126.111 134.535 126.309 135.268 126.59 135.951C125.907 135.996 125.116 136.283 124.561 136.04C122.309 135.064 120.222 133.59 117.9 132.92C113.421 131.638 108.82 130.764 104.265 129.743C102.695 129.392 102.063 129.871 101.77 131.651C100.028 142.134 94.2091 149.593 84.2237 153.261C74.2447 156.93 65.0186 154.984 56.8452 148.182C56.373 147.787 55.7988 147.417 55.5436 146.9C55.2947 146.39 55.3968 145.707 55.3394 145.101C55.9647 145.12 56.6346 145.011 57.2025 145.203C57.6683 145.362 58.0001 145.898 58.4148 146.249C65.9501 152.559 74.4616 154.301 83.6303 150.824C92.7097 147.379 97.9034 140.507 99.3964 130.885C99.4411 130.592 99.3964 130.285 99.3964 129.615C97.8524 129.615 96.3147 129.43 94.8727 129.711C94.3176 129.82 93.737 130.936 93.5519 131.683C91.2805 141.126 82.6733 147.589 72.9622 147.072C64.5081 146.619 57.0111 140.5 54.8992 132.327C54.6886 131.51 54.4972 130.687 54.2675 129.743H49.8012C50.72 132.729 51.626 135.441 52.3661 138.197C52.6086 139.09 52.7426 140.768 52.3853 140.934C50.822 141.668 50.4647 140.111 50.1266 139.116C49.2907 136.659 48.4804 134.171 47.97 131.632C47.6701 130.164 47.2681 129.526 45.6666 129.577C26.5636 130.234 12.45 138.867 3.49822 155.814C3.45994 155.884 3.44718 155.967 3.40251 156.024C2.61134 156.956 2.73257 159.367 0.799288 158.442C-0.929814 157.606 0.607875 156.075 1.12469 155.08C10.3444 137.272 24.9684 127.912 45.0477 127.21C47.4978 127.127 49.9607 127.14 52.4108 127.21C53.8272 127.255 54.293 126.7 54.2739 125.321C54.2164 121.015 54.3249 116.701 54.1909 112.401C54.1654 111.597 53.5082 110.512 52.8191 110.072C42.7316 103.692 36.0832 94.5994 31.8338 83.6251C31.2213 82.0491 30.4493 81.4621 28.8159 81.5897C27.208 81.7173 25.5873 81.6599 23.9731 81.5897C20.7446 81.443 18.4859 79.28 18.3328 76.0515C18.1988 73.2887 18.2307 70.5132 18.2817 67.7441C18.3073 66.3787 18.0201 65.7088 16.4378 65.5556C13.1008 65.2302 11.6014 63.4246 11.5376 60.0429C11.4993 58.1224 11.5057 56.1955 11.5376 54.275C11.5886 50.3446 13.1901 48.8452 18.1158 48.2901C18.1669 47.5372 18.2562 46.7333 18.2626 45.9294C18.2817 43.0837 18.2243 40.238 18.2945 37.3923C18.3774 33.8639 19.9534 32.0901 23.3478 31.2416C24.0305 31.0693 24.8791 30.4631 25.1343 29.8442C33.397 9.66286 50.771 -0.124755 72.1583 0.876976C78.0219 1.15134 83.8345 2.54227 89.6854 3.31431C90.7254 3.45468 91.9696 3.37173 92.8884 2.91872C96.4614 1.1641 100.143 -0.0673312 104.15 0.00285381C104.788 0.0156147 105.413 0.717465 106.038 1.10029C105.426 1.5214 104.839 2.26791 104.207 2.31258C97.3994 2.78473 91.8101 5.54109 87.382 10.7539C86.9928 11.2133 85.9911 11.1495 85.2765 11.3345C85.3722 10.5944 85.2446 9.70752 85.6147 9.15242C86.4058 7.97204 87.465 6.97031 88.5943 5.68784C81.5886 3.85027 74.7806 2.91234 67.8515 3.2186C56.6091 3.71628 46.3876 6.93841 38.0675 14.914C33.397 19.3867 29.9261 24.6697 27.3101 31.2033H27.3165ZM128.829 56.4699C128.829 50.5488 128.829 44.6277 128.829 38.7067C128.829 34.6168 127.866 33.6342 123.859 33.6342C90.9423 33.6342 58.0256 33.647 25.1088 33.6597C21.8994 33.6597 20.6808 34.872 20.6808 38.1516C20.668 50.3 20.668 62.4483 20.6808 74.5967C20.6808 77.9911 21.8548 79.1779 25.2683 79.1907C36.1087 79.2162 46.9427 79.1779 57.7831 79.2162C60.3034 79.2226 62.1856 78.2974 63.6787 76.262C65.8608 73.2887 68.1577 70.392 70.4356 67.4953C73.4663 63.6479 77.3647 63.6734 80.4146 67.5591C82.7371 70.526 85.0532 73.4993 87.2991 76.5236C88.6518 78.3421 90.3872 79.2098 92.6204 79.2034C103.308 79.197 113.989 79.2226 124.676 79.1843C127.713 79.1715 128.817 77.9784 128.829 74.9285C128.855 68.7778 128.836 62.627 128.836 56.4762L128.829 56.4699ZM33.85 81.6344C34.1435 82.5914 34.2137 83.2933 34.5455 83.8484C37.4678 88.7869 39.8732 94.1656 43.5037 98.5298C53.5018 110.563 66.5307 115.77 82.099 112.994C94.4324 110.793 102.855 102.824 109.28 92.5577C111.373 89.2207 113 85.5966 115.092 81.628C113.529 81.628 112.7 81.628 111.877 81.628C105.566 81.628 99.2624 81.5514 92.9522 81.6599C89.5705 81.7173 87.0503 80.4476 85.0787 77.7423C82.9476 74.8264 80.7081 71.9871 78.4813 69.1351C76.3758 66.4425 74.4106 66.4361 72.3242 69.1095C69.957 72.1403 67.6154 75.1901 65.2738 78.2336C63.5128 80.5242 61.2413 81.6535 58.3191 81.6344C51.09 81.5897 43.8546 81.6216 36.6255 81.6216C35.8025 81.6216 34.9858 81.6216 33.8628 81.6216L33.85 81.6344ZM56.8643 112.312C56.8643 118.214 56.4049 123.854 56.9664 129.392C57.9043 138.644 65.7395 144.928 75.0103 144.539C83.9174 144.169 90.9104 137.221 91.3762 128.078C91.5931 123.86 91.4847 119.63 91.5038 115.406C91.5038 114.615 91.4145 113.824 91.3443 112.726C79.6617 117.786 68.33 117.142 56.8643 112.312ZM18.0839 62.9907V51.2889C14.9256 50.8551 14.1217 51.5059 14.0834 54.4154C14.0579 56.2529 14.0515 58.0905 14.0834 59.9281C14.1281 62.5887 15.0149 63.2969 18.0839 62.9843V62.9907ZM131.541 51.2379V63.0545C134.623 63.265 135.523 62.4994 135.574 59.7048C135.605 58.0203 135.599 56.3295 135.574 54.6451C135.535 51.6399 134.674 50.8997 131.541 51.2379Z" fill="white"/>
<path d="M38.6245 117.684C37.3804 115.999 36.3403 114.774 35.53 113.415C35.2238 112.905 35.4471 112.075 35.4279 111.393C36.0915 111.565 37.0167 111.514 37.3804 111.941C39.1605 114.06 40.8641 116.248 42.4018 118.539C42.7272 119.03 42.5294 120.408 42.0764 120.797C39.9772 122.59 37.7377 124.236 35.4598 125.8C35.0004 126.112 34.1391 125.844 33.4564 125.844C33.6287 125.187 33.5904 124.307 34.0115 123.924C35.2301 122.794 36.6275 121.863 38.229 120.644C32.7545 119.579 27.5927 118.896 22.616 117.524C17.1671 116.025 11.8011 114.111 6.57553 111.941C3.60862 110.71 0.616186 108.694 0.628947 104.961C0.641708 101.146 3.73623 99.3335 6.70314 97.7831C13.3899 94.2866 20.6891 92.7744 28.0202 91.4026C29.2261 91.1793 30.4448 90.8794 31.6571 90.873C32.2632 90.873 32.8694 91.4473 33.4691 91.7663C32.9842 92.2449 32.5695 93.0169 32.0016 93.1445C27.7395 94.1271 23.4072 94.8289 19.1769 95.92C15.9165 96.7622 12.7135 97.8915 9.59986 99.1676C7.78782 99.9141 6.05233 101.037 4.54655 102.3C2.47928 104.036 2.42823 105.905 4.57845 107.52C6.76056 109.159 9.19151 110.601 11.7118 111.635C19.7193 114.921 28.1989 116.42 36.7232 117.671C37.1698 117.735 37.6292 117.677 38.6118 117.677L38.6245 117.684Z" fill="white"/>
<path d="M110.075 118.22C116.953 116.74 123.876 115.419 130.697 113.703C134.168 112.829 137.524 111.381 140.791 109.887C142.973 108.892 145.704 107.744 145.704 104.93C145.704 102.001 142.915 100.808 140.65 99.8127C137.218 98.307 133.613 97.2095 130.071 95.9526C129.567 95.7739 128.942 95.7867 128.547 95.4868C128.074 95.1295 127.781 94.5297 127.411 94.0321C127.966 93.7513 128.598 93.1197 129.057 93.2345C135.035 94.6829 141.052 96.1823 145.889 100.285C149.264 103.15 149.206 106.653 145.85 109.537C141.658 113.142 136.509 114.851 131.297 116.147C125.197 117.659 118.982 118.718 112.819 119.975C111.945 120.154 111.077 120.332 109.845 120.581C111.377 121.768 112.723 122.655 113.852 123.759C114.331 124.224 114.363 125.15 114.592 125.864C113.852 125.813 112.934 126.017 112.398 125.66C110.235 124.199 108.212 122.527 106.087 121.009C104.939 120.192 104.881 119.382 105.711 118.322C107.274 116.325 108.722 114.233 110.381 112.318C110.847 111.776 111.862 111.7 112.621 111.412C112.512 112.235 112.621 113.173 112.238 113.85C111.543 115.094 110.566 116.185 109.705 117.34C109.82 117.64 109.941 117.94 110.056 118.233L110.075 118.22Z" fill="white"/>
<path d="M106.192 6.01367C115.22 6.83037 123.017 14.8059 123.17 23.6556C123.183 24.3766 122.52 25.1104 122.175 25.8441C121.728 25.1933 120.956 24.5744 120.873 23.8789C119.884 15.4567 114.64 10.078 106.224 8.85935C105.363 8.73175 104.597 7.95971 103.793 7.48118C104.591 6.99626 105.394 6.50497 106.192 6.02005V6.01367Z" fill="white"/>
<path d="M130.174 136.559C131.207 137.203 131.756 137.465 132.209 137.841C138.105 142.741 142.654 148.669 145.691 155.713C145.965 156.351 145.544 157.295 145.442 158.093C144.785 157.614 143.809 157.282 143.515 156.638C140.453 150.04 136.165 144.413 130.633 139.698C130.129 139.264 129.829 138.485 129.657 137.809C129.568 137.471 129.982 136.999 130.18 136.559H130.174Z" fill="white"/>
<path d="M127.867 24.624C126.935 21.421 125.959 18.2244 125.098 15.0023C124.894 14.243 125.098 13.3753 125.117 12.5586C125.851 13.018 126.916 13.2987 127.254 13.9623C129.583 18.4541 130.228 23.2714 129.513 28.2481C129.43 28.8287 128.696 29.32 128.263 29.8496C127.873 29.2243 127.229 28.631 127.159 27.9738C127.044 26.9338 127.306 25.8491 127.408 24.7772C127.561 24.7261 127.714 24.6687 127.867 24.6177V24.624Z" fill="white"/>
<path d="M121.9 7.4865C120.898 7.58858 120.031 7.95865 119.501 7.67791C117.217 6.49115 115.003 5.15763 112.84 3.75393C112.419 3.47957 112.227 2.66288 112.195 2.08225C112.183 1.88446 113.172 1.34212 113.414 1.47611C116.049 2.95 118.64 4.51959 121.217 6.09556C121.428 6.22317 121.485 6.61238 121.9 7.48012V7.4865Z" fill="white"/>
<path d="M116.988 90.6758C119.374 91.1224 121.269 91.384 123.1 91.8817C123.624 92.0221 123.962 92.8579 124.383 93.3747C123.828 93.6555 123.241 94.2233 122.724 94.1659C120.835 93.9617 118.94 93.6491 117.103 93.1705C116.471 93.0046 115.993 92.239 115.438 91.7477C116.044 91.333 116.643 90.9119 116.988 90.6758Z" fill="white"/>
<path d="M120.513 58.8945C119.218 56.9293 118.089 55.2002 116.953 53.4838C115.02 50.5488 115.154 50.2043 118.803 49.5535C116.934 46.7269 115.135 44.0089 113.131 40.9718C111.255 43.9514 109.558 46.6568 107.899 49.3046C108.882 49.8534 110.215 50.166 110.439 50.8487C110.668 51.5378 110.011 52.782 109.386 53.4519C105.806 57.2866 105.864 60.9745 109.552 64.6624C109.871 64.9814 110.081 65.4153 110.311 65.8173C111.281 67.5272 110.975 68.0951 108.997 68.2801C108.62 68.3184 108.244 68.3439 107.401 68.4141C108.965 70.8004 110.464 72.8932 111.727 75.1263C112.149 75.8665 111.944 76.9575 112.021 77.8891C111.255 77.4297 110.254 77.1362 109.762 76.4726C108.084 74.182 106.578 71.7575 105.009 69.3903C103.082 66.4808 103.235 66.1618 107.229 65.6897C105.168 62.5696 103.229 59.6282 101.047 56.3231C99.0112 59.5836 97.1736 62.5186 95.2786 65.5557C98.8963 66.3213 98.9857 66.551 97.1034 69.5562C95.5913 71.968 94.1493 74.4181 92.5159 76.747C92.1075 77.3276 91.0994 77.4935 90.3657 77.8444C90.4039 77.0277 90.1679 76.0579 90.5252 75.4135C91.7757 73.142 93.2241 70.9854 94.7682 68.5162C93.977 68.4013 93.4921 68.312 93.0008 68.261C91.495 68.1078 91.3674 67.1189 91.9672 66.1363C94.5193 61.9316 97.1545 57.7779 99.8087 53.6306C100.517 52.5204 101.442 52.5523 102.227 53.5923C102.916 54.5047 103.516 55.4809 104.364 56.7443C105.302 55.2704 106.087 54.0326 106.91 52.7373C103.618 51.8632 103.503 51.5825 105.187 48.8899C107.306 45.5019 109.418 42.1075 111.581 38.745C112.742 36.933 113.412 36.9202 114.605 38.6812C116.889 42.0565 119.11 45.47 121.356 48.8708C123.206 51.6846 123.078 51.9844 119.48 52.6544C120.596 54.3835 121.636 56.0296 122.708 57.6567C124.967 61.0957 124.897 61.268 120.647 61.989C122.3 64.4136 123.952 66.6978 125.413 69.1032C125.828 69.7859 125.675 70.8195 125.784 71.6873C124.999 71.2981 123.94 71.113 123.474 70.4878C121.496 67.8399 119.684 65.0708 117.827 62.3335C116.162 59.8771 116.455 59.322 119.486 59.105C119.709 59.0859 119.933 59.0093 120.494 58.8881L120.513 58.8945Z" fill="white"/>
<path d="M55.8557 61.1849C53.9607 62.8056 52.5378 64.9558 50.9108 65.128C49.4497 65.2812 47.7589 63.2522 45.7363 61.8995C44.6261 63.1437 43.3436 64.5666 42.0739 66.0022C41.187 67.0039 40.3256 67.106 39.3558 66.0787C38.3541 65.0132 37.2056 64.0816 36.3187 62.9395C35.9742 62.4929 36.172 61.6252 36.1209 60.9488C36.7398 61.0254 37.5629 60.8787 37.933 61.2232C38.8262 62.0463 39.5026 63.0991 40.6064 64.4836C42.176 62.6907 43.3308 61.4593 44.3836 60.1449C45.749 58.4413 46.9932 58.5689 48.2821 60.2151C48.8946 60.9999 49.5773 61.7273 50.3685 62.6524C51.6127 61.5103 52.608 60.5979 53.4439 59.8259C50.3111 56.725 47.2867 53.7389 44.1156 50.5998C41.7293 52.9988 39.0878 55.6594 36.4336 58.3137C32.8478 61.8995 29.2875 65.5109 25.6378 69.0329C25.1721 69.4795 24.2341 69.4348 23.5195 69.6199C23.5961 68.8989 23.3983 67.9099 23.8003 67.5016C30.2637 60.9297 36.81 54.4344 43.3245 47.9072C44.2241 47.0076 45.0089 47.0777 45.8766 47.9519C51.517 53.6113 57.1892 59.2389 62.7785 64.9494C63.2059 65.3896 63.0783 66.3659 63.2123 67.0996C62.4722 66.9401 61.5024 67.0294 61.0302 66.5828C59.2501 64.9047 57.6231 63.0608 55.8557 61.1849Z" fill="white"/>
<path d="M80.2234 57.1703C77.5244 57.8338 76.8928 62.4022 73.7153 59.1737C73.5303 59.212 73.358 59.1992 73.2623 59.2822C70.155 62.0322 69.7467 62.0322 67.2519 58.7781C66.901 58.3187 67.0477 57.4701 66.9648 56.8066C67.6284 56.8895 68.3493 56.8385 68.9427 57.0873C69.4723 57.3042 69.8615 57.8466 70.3528 58.2741C72.0628 57.5084 73.173 54.0438 75.6996 57.4638C76.4461 56.6981 77.065 56.0601 77.7797 55.3263C75.84 53.4951 74.079 51.8362 72.0181 49.8965C69.2171 52.7358 66.3076 55.7474 63.3088 58.676C62.4793 59.4864 61.5669 61.375 60.2334 60.0096C58.919 58.6633 60.8076 57.7636 61.6243 56.9214C64.6168 53.8333 67.7241 50.86 70.7101 47.7655C71.8777 46.5532 72.7519 46.5213 73.9386 47.7463C77.416 51.3258 81.0082 54.7903 84.4664 58.3889C84.9704 58.9121 84.9768 59.9139 85.2129 60.6923C84.377 60.4945 83.3498 60.5264 82.7564 60.0415C81.7036 59.1801 80.9188 57.9997 80.217 57.183L80.2234 57.1703Z" fill="white"/>
<path d="M58.7589 48.3225C57.8401 48.3225 56.9149 48.3991 56.0025 48.3098C53.68 48.0801 51.9701 46.3829 51.7659 44.1816C51.5617 41.9676 52.9526 40.1045 55.2432 39.3963C56.1556 39.1156 57.0936 38.7774 57.8911 38.267C59.9265 36.9653 62.7339 36.8888 64.5651 38.3116C66.4218 39.76 67.1683 41.6805 66.5813 43.9966C65.9624 46.4595 64.0163 48.1056 61.5152 48.3162C60.6028 48.3927 59.6776 48.3289 58.7589 48.3289C58.7589 48.3289 58.7589 48.3225 58.7589 48.3162V48.3225ZM54.9433 41.6294C54.6945 42.88 54.2224 43.7924 54.4712 44.4241C54.7073 45.0302 55.658 45.63 56.3598 45.7193C57.8656 45.9171 59.4097 45.815 60.9346 45.7895C62.6765 45.7576 63.9079 45.0111 64.0993 43.1608C64.2588 41.6103 63.5825 40.4299 62.0256 40.0471C60.3221 39.6324 59.0906 40.3023 58.3441 41.9549C57.285 44.3029 56.8128 44.3156 54.9433 41.6231V41.6294Z" fill="white"/>
<path d="M89.8206 52.4689C88.6785 52.3669 87.5173 52.3732 86.4007 52.1499C84.1165 51.6905 82.8085 49.9933 82.8404 47.7346C82.8723 45.4823 84.2569 43.8808 86.4964 43.364C87.2812 43.1854 88.0915 42.9174 88.7551 42.4835C90.9117 41.0862 93.5723 40.9267 95.4418 42.2794C97.3815 43.6767 98.0769 45.6355 97.6239 47.9388C97.1581 50.306 95.2057 51.9776 92.5834 52.2967C91.6773 52.4051 90.7458 52.3158 89.827 52.3158C89.827 52.3668 89.827 52.4179 89.8206 52.4689ZM85.9477 45.9992C85.7499 46.8095 85.2012 47.7602 85.4692 48.3344C85.7754 49.0044 86.758 49.6488 87.5237 49.7636C89.0295 49.9869 90.5927 49.8912 92.124 49.8147C93.751 49.7317 95.1674 48.9533 94.9888 47.2178C94.8803 46.1587 94.0062 44.7358 93.081 44.302C91.5178 43.5618 90.1716 44.4359 89.3676 46.063C89.0358 46.7393 88.4297 47.2816 87.9512 47.8814C87.3897 47.3582 86.8282 46.835 85.9413 46.0055L85.9477 45.9992Z" fill="white"/>
</svg>
