<svg width="91" height="91" viewBox="0 0 91 91" fill="none" xmlns="http://www.w3.org/2000/svg">
<path d="M90.7344 45.3698C90.7344 70.4271 70.4219 90.7344 45.3646 90.7344C20.3073 90.7344 0 70.4271 0 45.3698C0 20.3125 20.3073 0 45.3646 0C70.4219 0 90.7344 20.3125 90.7344 45.3698Z" fill="#FF6961"/>
<path d="M87.0729 45.3704C87.0729 68.4017 68.401 87.0736 45.3646 87.0736C22.3281 87.0736 3.65625 68.4017 3.65625 45.3704C3.65625 22.334 22.3281 3.66211 45.3646 3.66211C68.401 3.66211 87.0729 22.334 87.0729 45.3704Z" stroke="white" stroke-width="1.33333" stroke-miterlimit="10"/>
<path d="M30.1606 30.2276H31.2432C41.065 30.2276 50.8867 30.2276 60.7084 30.2276C60.9806 30.2276 61.2508 30.2215 61.523 30.2338C62.8082 30.2911 63.5205 31.0074 63.5389 32.2906C63.5552 33.4224 63.543 34.5521 63.543 35.7044C63.9052 35.7617 64.2245 35.776 64.5212 35.864C65.2048 36.0687 65.6101 36.5374 65.6387 37.2598C65.6674 37.9986 65.6633 38.7395 65.653 39.4804C65.6367 40.6285 65.1782 41.1279 64.0342 41.2753C63.8909 41.2937 63.7497 41.3203 63.5409 41.353C63.5409 42.3313 63.5471 43.2892 63.5409 44.2449C63.5286 45.655 62.8021 46.3857 61.4002 46.4021C60.8578 46.4082 60.3114 46.443 59.7731 46.3918C59.2287 46.3407 59.0056 46.5801 58.8071 47.059C57.3397 50.5976 55.2132 53.6205 51.9161 55.7121C51.7442 55.8206 51.5764 56.0867 51.5743 56.2831C51.5457 57.8099 51.558 59.3387 51.558 60.9617C51.9755 60.9822 52.3561 61.0272 52.7348 61.0129C55.7781 60.8962 58.6638 61.4713 61.3469 62.9551C61.4759 63.0267 61.6519 63.0697 61.7235 63.1782C61.8504 63.3726 61.9139 63.608 62.0039 63.827C61.7849 63.8413 61.5311 63.9334 61.3531 63.8556C60.6306 63.5425 59.9614 63.0697 59.2164 62.8548C57.7797 62.4435 56.3041 62.1631 54.8428 61.8356C54.3393 61.723 54.1367 61.8765 54.0426 62.4475C53.4838 65.8101 51.6173 68.2026 48.4144 69.3794C45.2134 70.5562 42.254 69.932 39.6323 67.7503C39.4809 67.6234 39.2967 67.5047 39.2148 67.339C39.135 67.1752 39.1677 66.9562 39.1493 66.7618C39.3499 66.768 39.5648 66.7332 39.7469 66.7946C39.8963 66.8457 40.0028 67.0176 40.1358 67.1302C42.5528 69.1543 45.283 69.713 48.224 68.5976C51.1364 67.4925 52.8023 65.2883 53.2812 62.202C53.2955 62.1078 53.2812 62.0096 53.2812 61.7947C52.7859 61.7947 52.2927 61.7353 51.8302 61.8254C51.6521 61.8602 51.4659 62.2183 51.4065 62.4578C50.6779 65.4868 47.917 67.56 44.8021 67.3942C42.0903 67.2489 39.6855 65.2862 39.0081 62.6645C38.9406 62.4025 38.8792 62.1385 38.8055 61.8356H37.3729C37.6676 62.7934 37.9582 63.6632 38.1956 64.5474C38.2734 64.8339 38.3163 65.3722 38.2017 65.4254C37.7003 65.6607 37.5857 65.1614 37.4772 64.8421C37.2091 64.0541 36.9492 63.256 36.7855 62.4414C36.6893 61.9707 36.5603 61.766 36.0466 61.7824C29.9191 61.9932 25.3919 64.7623 22.5205 70.1981C22.5083 70.2206 22.5042 70.2472 22.4898 70.2656C22.2361 70.5644 22.2749 71.3381 21.6548 71.0413C21.1002 70.7732 21.5934 70.282 21.7592 69.9627C24.7166 64.2506 29.4074 61.2482 35.8481 61.0231C36.634 60.9965 37.424 61.0006 38.2099 61.0231C38.6643 61.0374 38.8137 60.8594 38.8075 60.4173C38.7891 59.0358 38.8239 57.6523 38.7809 56.2729C38.7727 56.015 38.5619 55.6671 38.3409 55.5259C35.1052 53.4793 32.9726 50.5628 31.6096 47.0426C31.4131 46.5371 31.1655 46.3488 30.6415 46.3898C30.1258 46.4307 29.6059 46.4123 29.0881 46.3898C28.0525 46.3427 27.328 45.6489 27.2789 44.6133C27.2359 43.7271 27.2462 42.8368 27.2626 41.9486C27.2707 41.5106 27.1786 41.2957 26.6711 41.2466C25.6007 41.1422 25.1197 40.5631 25.0993 39.4783C25.087 38.8623 25.089 38.2442 25.0993 37.6282C25.1157 36.3675 25.6294 35.8865 27.2093 35.7085C27.2257 35.467 27.2544 35.2091 27.2564 34.9512C27.2626 34.0384 27.2441 33.1256 27.2666 32.2128C27.2933 31.0811 27.7988 30.5121 28.8876 30.2399C29.1066 30.1847 29.3788 29.9902 29.4606 29.7917C32.111 23.3182 37.6839 20.1787 44.5442 20.5001C46.425 20.5881 48.2895 21.0342 50.1663 21.2819C50.4999 21.3269 50.899 21.3003 51.1937 21.155C52.3398 20.5922 53.5207 20.1972 54.8059 20.2197C55.0106 20.2238 55.2112 20.4489 55.4117 20.5717C55.2153 20.7068 55.027 20.9462 54.8244 20.9605C52.6406 21.112 50.8478 21.9961 49.4274 23.6682C49.3026 23.8156 48.9813 23.7951 48.7521 23.8545C48.7827 23.6171 48.7418 23.3326 48.8605 23.1545C49.1143 22.7759 49.454 22.4546 49.8163 22.0432C47.5691 21.4538 45.3854 21.1529 43.1627 21.2512C39.5566 21.4108 36.2779 22.4443 33.6091 25.0026C32.111 26.4373 30.9976 28.1319 30.1585 30.2276H30.1606ZM62.7223 38.3322C62.7223 36.433 62.7223 34.5337 62.7223 32.6345C62.7223 31.3226 62.4132 31.0074 61.128 31.0074C50.5694 31.0074 40.0109 31.0115 29.4524 31.0156C28.423 31.0156 28.0321 31.4044 28.0321 32.4564C28.028 36.3532 28.028 40.2499 28.0321 44.1467C28.0321 45.2355 28.4087 45.6162 29.5036 45.6202C32.9808 45.6284 36.456 45.6162 39.9332 45.6284C40.7416 45.6305 41.3453 45.3337 41.8242 44.6808C42.5242 43.7271 43.261 42.798 43.9916 41.8688C44.9638 40.6347 46.2142 40.6429 47.1925 41.8893C47.9375 42.8409 48.6804 43.7947 49.4008 44.7648C49.8347 45.348 50.3914 45.6264 51.1077 45.6243C54.5358 45.6223 57.9618 45.6305 61.3899 45.6182C62.3641 45.6141 62.7182 45.2314 62.7223 44.2531C62.7305 42.2802 62.7243 40.3072 62.7243 38.3343L62.7223 38.3322ZM32.2563 46.4041C32.3504 46.7111 32.373 46.9362 32.4794 47.1143C33.4167 48.6984 34.1883 50.4237 35.3528 51.8235C38.5599 55.6835 42.7391 57.3535 47.7328 56.4632C51.6889 55.7571 54.3905 53.2009 56.4514 49.9079C57.1227 48.8375 57.6446 47.6751 58.3159 46.4021C57.8145 46.4021 57.5484 46.4021 57.2844 46.4021C55.2603 46.4021 53.2382 46.3775 51.2141 46.4123C50.1294 46.4307 49.321 46.0234 48.6886 45.1557C48.005 44.2204 47.2867 43.3096 46.5724 42.3948C45.897 41.5311 45.2667 41.5291 44.5974 42.3866C43.8381 43.3587 43.087 44.337 42.3359 45.3133C41.771 46.048 41.0424 46.4102 40.1051 46.4041C37.7863 46.3898 35.4654 46.4 33.1466 46.4C32.8826 46.4 32.6206 46.4 32.2604 46.4L32.2563 46.4041ZM39.6385 56.2442C39.6385 58.1374 39.4911 59.9466 39.6712 61.723C39.9721 64.6906 42.4853 66.7066 45.459 66.5817C48.3161 66.463 50.5592 64.2342 50.7086 61.3014C50.7782 59.9486 50.7434 58.5917 50.7496 57.2369C50.7496 56.9831 50.7209 56.7293 50.6984 56.3773C46.951 58.0002 43.3162 57.7935 39.6385 56.2442ZM27.1991 40.4239V36.6704C26.186 36.5312 25.9282 36.74 25.9159 37.6732C25.9077 38.2627 25.9056 38.8521 25.9159 39.4415C25.9302 40.2949 26.2147 40.5221 27.1991 40.4218V40.4239ZM63.5921 36.654V40.4443C64.5806 40.5119 64.8692 40.2663 64.8855 39.3699C64.8958 38.8296 64.8937 38.2872 64.8855 37.7469C64.8733 36.7829 64.597 36.5455 63.5921 36.654Z" fill="white" stroke="white" stroke-width="0.5"/>
<path d="M33.7853 57.9671C33.3862 57.4268 33.0526 57.0338 32.7927 56.5979C32.6944 56.4342 32.7661 56.1681 32.7599 55.9491C32.9728 56.0044 33.2695 55.988 33.3862 56.1251C33.9572 56.8046 34.5036 57.5066 34.9969 58.2413C35.1013 58.3989 35.0378 58.841 34.8925 58.9658C34.2192 59.5409 33.5008 60.069 32.7702 60.5704C32.6228 60.6707 32.3465 60.5847 32.1275 60.5847C32.1828 60.3739 32.1705 60.0915 32.3056 59.9687C32.6965 59.6064 33.1447 59.3076 33.6584 58.9167C31.9024 58.5749 30.2467 58.3559 28.6503 57.9159C26.9025 57.435 25.1813 56.821 23.5051 56.1251C22.5534 55.7301 21.5936 55.0834 21.5977 53.8861C21.6018 52.6622 22.5944 52.081 23.5461 51.5837C25.6909 50.4621 28.0322 49.9771 30.3838 49.5371C30.7706 49.4654 31.1615 49.3692 31.5504 49.3672C31.7448 49.3672 31.9392 49.5514 32.1316 49.6537C31.9761 49.8072 31.843 50.0549 31.6609 50.0958C30.2938 50.411 28.9041 50.6361 27.5472 50.9861C26.5014 51.2562 25.474 51.6185 24.4752 52.0278C23.894 52.2672 23.3373 52.6275 22.8543 53.0327C22.1912 53.5894 22.1748 54.189 22.8645 54.7068C23.5645 55.2328 24.3442 55.6953 25.1526 56.0269C27.7212 57.0809 30.4411 57.5618 33.1754 57.963C33.3187 57.9835 33.466 57.965 33.7812 57.965L33.7853 57.9671Z" fill="white" stroke="white" stroke-width="0.5"/>
<path d="M56.7092 58.1401C58.9155 57.6653 61.136 57.2416 63.3239 56.6911C64.4372 56.4107 65.5138 55.9461 66.5616 55.4672C67.2616 55.1479 68.1375 54.7795 68.1375 53.877C68.1375 52.9376 67.2432 52.5549 66.5166 52.2356C65.4155 51.7526 64.2592 51.4006 63.1233 50.9974C62.9616 50.9401 62.7611 50.9442 62.6342 50.848C62.4827 50.7334 62.3886 50.541 62.2699 50.3813C62.4479 50.2913 62.6505 50.0887 62.7979 50.1255C64.7156 50.5901 66.6455 51.0711 68.1969 52.387C69.2795 53.306 69.2611 54.4296 68.1846 55.3546C66.84 56.511 65.1884 57.0595 63.5163 57.4749C61.5597 57.96 59.5663 58.2997 57.5893 58.7029C57.3089 58.7602 57.0305 58.8175 56.6355 58.8973C57.1267 59.278 57.5586 59.5625 57.9208 59.9165C58.0743 60.0659 58.0845 60.3627 58.1582 60.5919C57.9208 60.5756 57.6261 60.641 57.4542 60.5264C56.7604 60.0578 56.1116 59.5215 55.4301 59.0345C55.0617 58.7725 55.0433 58.5126 55.3093 58.1728C55.8107 57.5322 56.2753 56.8609 56.8074 56.247C56.9569 56.073 57.2823 56.0484 57.5258 55.9563C57.491 56.2204 57.5258 56.5212 57.403 56.7381C57.1799 57.1372 56.8668 57.4872 56.5905 57.8576C56.6273 57.9538 56.6662 58.05 56.7031 58.1442L56.7092 58.1401Z" fill="white" stroke="white" stroke-width="0.5"/>
<path d="M55.4609 22.1465C58.3569 22.4085 60.8579 24.9667 60.907 27.8054C60.9111 28.0367 60.6982 28.272 60.5877 28.5074C60.4445 28.2986 60.1968 28.1001 60.1702 27.877C59.853 25.1755 58.1707 23.4502 55.4712 23.0593C55.1949 23.0183 54.9493 22.7707 54.6914 22.6172C54.9472 22.4617 55.2051 22.3041 55.4609 22.1485V22.1465Z" fill="white" stroke="white" stroke-width="0.5"/>
<path d="M63.158 64.0234C63.4896 64.2301 63.6656 64.3141 63.8109 64.4348C65.702 66.0066 67.1612 67.9079 68.1354 70.1674C68.2234 70.372 68.0883 70.6749 68.0556 70.9308C67.8448 70.7773 67.5317 70.6709 67.4375 70.4641C66.4551 68.3479 65.0798 66.5428 63.3054 65.0304C63.1437 64.8912 63.0475 64.6415 62.9923 64.4246C62.9636 64.3161 63.0966 64.1647 63.1601 64.0234H63.158Z" fill="white" stroke="white" stroke-width="0.5"/>
<path d="M62.4132 28.1162C62.1144 27.0888 61.8013 26.0635 61.525 25.0299C61.4595 24.7864 61.525 24.5081 61.5311 24.2461C61.7665 24.3935 62.1083 24.4835 62.2167 24.6963C62.9638 26.1372 63.1705 27.6824 62.9412 29.2787C62.9146 29.465 62.6793 29.6226 62.5401 29.7924C62.4153 29.5919 62.2086 29.4015 62.186 29.1907C62.1492 28.8571 62.2331 28.5092 62.2659 28.1654C62.315 28.149 62.3641 28.1306 62.4132 28.1142V28.1162Z" fill="white" stroke="white" stroke-width="0.5"/>
<path d="M60.4997 22.6202C60.1783 22.653 59.9 22.7717 59.7301 22.6816C58.9974 22.3009 58.2873 21.8732 57.5935 21.4229C57.4584 21.3349 57.397 21.073 57.3868 20.8867C57.3827 20.8233 57.6999 20.6493 57.7777 20.6923C58.6229 21.1651 59.4538 21.6685 60.2807 22.174C60.3482 22.215 60.3666 22.3398 60.4997 22.6182V22.6202Z" fill="white" stroke="white" stroke-width="0.5"/>
<path d="M58.9231 49.3047C59.6885 49.448 60.2964 49.5319 60.8838 49.6915C61.0516 49.7365 61.1601 50.0046 61.2951 50.1704C61.1171 50.2605 60.9288 50.4426 60.763 50.4242C60.1572 50.3587 59.5494 50.2584 58.9599 50.1049C58.7573 50.0517 58.6038 49.8061 58.4258 49.6485C58.6202 49.5155 58.8126 49.3804 58.9231 49.3047Z" fill="white" stroke="white" stroke-width="0.5"/>
<path d="M60.0547 39.1103C59.6392 38.48 59.2769 37.9253 58.9126 37.3748C58.2925 36.4333 58.3355 36.3228 59.5062 36.1141C58.9065 35.2074 58.3294 34.3356 57.6867 33.3614C57.085 34.3171 56.5406 35.1849 56.0085 36.0343C56.3237 36.2103 56.7514 36.3106 56.823 36.5295C56.8967 36.7506 56.6859 37.1497 56.4854 37.3646C55.3372 38.5946 55.3556 39.7775 56.5386 40.9605C56.6409 41.0628 56.7084 41.202 56.7821 41.3309C57.0932 41.8794 56.995 42.0615 56.3605 42.1209C56.2398 42.1332 56.119 42.1414 55.8489 42.1639C56.3503 42.9293 56.8312 43.6006 57.2365 44.3169C57.3715 44.5543 57.3061 44.9043 57.3306 45.2031C57.085 45.0558 56.7637 44.9616 56.6061 44.7488C56.0678 44.014 55.5848 43.2363 55.0814 42.477C54.4633 41.5438 54.5124 41.4414 55.7936 41.29C55.1325 40.2892 54.5104 39.3457 53.8104 38.2855C53.1576 39.3314 52.5681 40.2728 51.9603 41.247C53.1207 41.4926 53.1494 41.5663 52.5456 42.5302C52.0606 43.3038 51.598 44.0897 51.0741 44.8368C50.9431 45.023 50.6197 45.0762 50.3844 45.1888C50.3967 44.9268 50.3209 44.6157 50.4356 44.409C50.8367 43.6804 51.3013 42.9887 51.7966 42.1966C51.5428 42.1598 51.3872 42.1311 51.2296 42.1148C50.7466 42.0656 50.7057 41.7484 50.8981 41.4332C51.7167 40.0845 52.562 38.7522 53.4134 37.4219C53.6406 37.0658 53.9373 37.076 54.1891 37.4096C54.4101 37.7023 54.6025 38.0154 54.8747 38.4206C55.1755 37.9478 55.4273 37.5508 55.6913 37.1353C54.6352 36.855 54.5984 36.7649 55.1387 35.9012C55.8182 34.8145 56.4956 33.7257 57.1894 32.6471C57.5619 32.0659 57.7768 32.0618 58.1595 32.6266C58.8922 33.7093 59.6044 34.8042 60.3248 35.8951C60.9183 36.7976 60.8774 36.8938 59.7231 37.1087C60.0813 37.6634 60.4149 38.1914 60.7587 38.7133C61.4832 39.8164 61.4607 39.8717 60.0976 40.1029C60.6277 40.8807 61.1578 41.6133 61.6265 42.3849C61.7595 42.6039 61.7104 42.9355 61.7452 43.2138C61.4934 43.089 61.1537 43.0296 61.0043 42.829C60.3698 41.9797 59.7886 41.0915 59.193 40.2135C58.6589 39.4255 58.753 39.2474 59.7252 39.1779C59.7968 39.1717 59.8684 39.1472 60.0485 39.1083L60.0547 39.1103Z" fill="white" stroke="white" stroke-width="0.5"/>
<path d="M39.3137 39.8463C38.7058 40.3661 38.2494 41.0558 37.7275 41.1111C37.2589 41.1602 36.7165 40.5094 36.0677 40.0755C35.7116 40.4746 35.3003 40.931 34.893 41.3915C34.6085 41.7128 34.3322 41.7456 34.0211 41.416C33.6998 41.0743 33.3314 40.7755 33.0469 40.4091C32.9364 40.2658 32.9999 39.9875 32.9835 39.7706C33.182 39.7951 33.446 39.7481 33.5647 39.8586C33.8512 40.1226 34.0682 40.4603 34.4223 40.9044C34.9257 40.3293 35.2962 39.9343 35.6338 39.5127C36.0718 38.9662 36.4709 39.0072 36.8843 39.5352C37.0808 39.7869 37.2998 40.0203 37.5536 40.317C37.9527 39.9507 38.2719 39.658 38.54 39.4104C37.5352 38.4157 36.5651 37.4579 35.5479 36.451C34.7825 37.2205 33.9352 38.0739 33.0838 38.9253C31.9336 40.0755 30.7915 41.2339 29.6209 42.3636C29.4715 42.5069 29.1706 42.4926 28.9414 42.5519C28.966 42.3207 28.9025 42.0034 29.0315 41.8724C31.1047 39.7644 33.2045 37.681 35.2941 35.5873C35.5827 35.2987 35.8344 35.3212 36.1128 35.6016C37.922 37.417 39.7414 39.2221 41.5343 41.0538C41.6714 41.195 41.6304 41.5081 41.6734 41.7435C41.436 41.6923 41.1249 41.721 40.9735 41.5777C40.4025 41.0395 39.8806 40.448 39.3137 39.8463Z" fill="white" stroke="white" stroke-width="0.5"/>
<path d="M47.1352 38.5571C46.2695 38.77 46.0669 40.2354 45.0477 39.1998C44.9883 39.2121 44.9331 39.208 44.9024 39.2346C43.9057 40.1167 43.7747 40.1167 42.9744 39.0729C42.8619 38.9255 42.9089 38.6533 42.8823 38.4405C43.0952 38.4671 43.3265 38.4507 43.5168 38.5305C43.6867 38.6001 43.8115 38.7741 43.9691 38.9112C44.5176 38.6656 44.8737 37.5543 45.6842 38.6513C45.9236 38.4057 46.1221 38.201 46.3514 37.9657C45.7292 37.3783 45.1643 36.8462 44.5033 36.224C43.6048 37.1347 42.6715 38.1007 41.7096 39.0401C41.4436 39.3001 41.1509 39.9059 40.7232 39.4679C40.3016 39.036 40.9074 38.7475 41.1693 38.4773C42.1292 37.4868 43.1259 36.533 44.0837 35.5404C44.4582 35.1516 44.7386 35.1413 45.1193 35.5343C46.2347 36.6824 47.387 37.7937 48.4962 38.948C48.6579 39.1159 48.6599 39.4372 48.7357 39.6869C48.4676 39.6234 48.1381 39.6337 47.9477 39.4781C47.61 39.2018 47.3583 38.8232 47.1332 38.5612L47.1352 38.5571Z" fill="white" stroke="white" stroke-width="0.5"/>
<path d="M40.2494 35.7199C39.9547 35.7199 39.658 35.7444 39.3653 35.7158C38.6203 35.6421 38.0718 35.0977 38.0063 34.3916C37.9409 33.6814 38.387 33.0838 39.1218 32.8566C39.4144 32.7666 39.7153 32.6581 39.9711 32.4944C40.624 32.0769 41.5245 32.0523 42.1119 32.5087C42.7074 32.9733 42.9469 33.5893 42.7586 34.3323C42.5601 35.1222 41.9359 35.6503 41.1336 35.7178C40.8409 35.7424 40.5442 35.7219 40.2494 35.7219C40.2494 35.7219 40.2494 35.7199 40.2494 35.7178V35.7199ZM39.0256 33.573C38.9457 33.9741 38.7943 34.2668 38.8741 34.4694C38.9498 34.6638 39.2548 34.8562 39.4799 34.8848C39.9629 34.9483 40.4582 34.9155 40.9473 34.9074C41.5061 34.8971 41.9011 34.6577 41.9625 34.0641C42.0136 33.5668 41.7967 33.1882 41.2973 33.0654C40.7509 32.9324 40.3559 33.1473 40.1164 33.6773C39.7767 34.4305 39.6252 34.4346 39.0256 33.5709V33.573Z" fill="white" stroke="white" stroke-width="0.5"/>
<path d="M50.204 37.0484C49.8377 37.0157 49.4652 37.0177 49.107 36.9461C48.3744 36.7987 47.9548 36.2543 47.965 35.5298C47.9753 34.8074 48.4194 34.2937 49.1377 34.1279C49.3895 34.0706 49.6494 33.9846 49.8622 33.8454C50.554 33.3972 51.4074 33.3461 52.0071 33.78C52.6293 34.2282 52.8524 34.8565 52.707 35.5953C52.5576 36.3546 51.9314 36.8908 51.0902 36.9931C50.7996 37.0279 50.5008 36.9993 50.2061 36.9993C50.2061 37.0157 50.2061 37.032 50.204 37.0484ZM48.9617 34.9731C48.8983 35.233 48.7223 35.538 48.8082 35.7222C48.9065 35.9371 49.2216 36.1438 49.4672 36.1806C49.9502 36.2523 50.4517 36.2216 50.9429 36.197C51.4647 36.1704 51.9191 35.9207 51.8618 35.364C51.827 35.0243 51.5466 34.5679 51.2499 34.4287C50.7484 34.1913 50.3166 34.4717 50.0587 34.9936C49.9523 35.2105 49.7579 35.3845 49.6044 35.5769C49.4243 35.4091 49.2442 35.2412 48.9597 34.9752L48.9617 34.9731Z" fill="white" stroke="white" stroke-width="0.5"/>
</svg>
