<svg width="130" height="139" viewBox="0 0 130 139" fill="none" xmlns="http://www.w3.org/2000/svg">
<path d="M23.8573 27.252H26.8052C53.5475 27.252 80.2899 27.252 107.032 27.252C107.773 27.252 108.509 27.2352 109.25 27.2687C112.75 27.4247 114.689 29.3751 114.739 32.869C114.784 35.9506 114.75 39.0266 114.75 42.1639C115.736 42.32 116.606 42.359 117.414 42.5986C119.275 43.1558 120.378 44.4319 120.456 46.399C120.534 48.4107 120.523 50.4279 120.495 52.4452C120.451 55.5713 119.203 56.931 116.088 57.3322C115.697 57.3824 115.313 57.4548 114.745 57.544C114.745 60.2076 114.761 62.8156 114.745 65.4179C114.711 69.2574 112.733 71.2467 108.916 71.2913C107.439 71.308 105.951 71.4028 104.486 71.2635C103.003 71.1242 102.396 71.7761 101.855 73.0801C97.86 82.7149 92.0701 90.9455 83.0929 96.6406C82.6248 96.9359 82.1678 97.6603 82.1623 98.1953C82.0843 102.352 82.1177 106.515 82.1177 110.934C83.2545 110.99 84.291 111.112 85.3219 111.073C93.6082 110.756 101.465 112.322 108.771 116.362C109.122 116.557 109.601 116.674 109.796 116.969C110.142 117.498 110.314 118.139 110.56 118.735C109.963 118.774 109.272 119.025 108.788 118.814C106.821 117.961 104.998 116.674 102.97 116.089C99.058 114.968 95.0403 114.205 91.0615 113.313C89.6907 113.007 89.139 113.425 88.8827 114.98C87.3614 124.135 82.2793 130.649 73.5583 133.854C64.843 137.058 56.7852 135.358 49.6468 129.418C49.2344 129.072 48.7329 128.749 48.51 128.298C48.2927 127.852 48.3818 127.256 48.3317 126.726C48.8778 126.743 49.4629 126.648 49.9589 126.816C50.3657 126.955 50.6554 127.423 51.0176 127.729C57.5987 133.241 65.0324 134.762 73.0401 131.725C80.9698 128.716 85.5058 122.714 86.8097 114.311C86.8487 114.055 86.8097 113.787 86.8097 113.202C85.4612 113.202 84.1182 113.04 82.8588 113.286C82.374 113.38 81.8669 114.356 81.7053 115.007C79.7215 123.255 72.2042 128.9 63.7229 128.448C56.3394 128.053 49.7917 122.709 47.9472 115.57C47.7633 114.857 47.5961 114.138 47.3955 113.313H43.4948C44.2972 115.921 45.0885 118.29 45.7349 120.697C45.9467 121.477 46.0637 122.943 45.7516 123.088C44.3864 123.728 44.0743 122.369 43.779 121.499C43.049 119.354 42.3413 117.181 41.8955 114.963C41.6336 113.681 41.2825 113.124 39.8838 113.169C23.1998 113.743 10.8734 121.282 3.05524 136.083C3.0218 136.144 3.01066 136.216 2.97165 136.267C2.28066 137.08 2.38654 139.187 0.698073 138.379C-0.812071 137.649 0.530899 136.311 0.98227 135.442C9.03451 119.889 21.8067 111.714 39.3433 111.101C41.4831 111.029 43.6341 111.04 45.7739 111.101C47.011 111.14 47.4178 110.655 47.4011 109.452C47.3509 105.69 47.4457 101.923 47.3286 98.1674C47.3064 97.4653 46.7324 96.518 46.1306 96.1335C37.3205 90.561 31.5139 82.6202 27.8026 73.0355C27.2677 71.6591 26.5934 71.1464 25.1669 71.2579C23.7626 71.3693 22.3472 71.3192 20.9373 71.2579C18.1177 71.1297 16.145 69.2407 16.0113 66.421C15.8942 64.0081 15.9221 61.5841 15.9667 59.1656C15.989 57.9731 15.7382 57.388 14.3562 57.2542C11.4418 56.97 10.1323 55.393 10.0766 52.4396C10.0431 50.7623 10.0487 49.0794 10.0766 47.4021C10.1211 43.9694 11.5198 42.6599 15.8218 42.1751C15.8664 41.5175 15.9444 40.8154 15.95 40.1133C15.9667 37.6279 15.9165 35.1426 15.9778 32.6573C16.0503 29.5757 17.4267 28.0265 20.3912 27.2854C20.9875 27.1349 21.7286 26.6055 21.9515 26.065C29.1679 8.43924 44.3418 -0.108957 63.0208 0.765923C68.1419 1.00554 73.2184 2.22034 78.3284 2.89461C79.2367 3.01721 80.3233 2.94477 81.1258 2.54912C84.2464 1.01669 87.4617 -0.0588049 90.9612 0.00249242C91.5185 0.0136374 92.0646 0.626611 92.6107 0.96096C92.0757 1.32874 91.5631 1.98073 91.0114 2.01973C85.0655 2.4321 80.184 4.83941 76.3167 9.39213C75.9768 9.79335 75.1019 9.73763 74.4778 9.89923C74.5614 9.25282 74.4499 8.47825 74.7731 7.99344C75.4641 6.96253 76.3892 6.08765 77.3755 4.96758C71.2569 3.3627 65.3111 2.54355 59.2593 2.81103C49.4406 3.24568 40.5135 6.05979 33.247 13.0254C29.1679 16.9317 26.1365 21.5457 23.8518 27.252H23.8573ZM112.516 49.319C112.516 44.1477 112.516 38.9765 112.516 33.8052C112.516 30.2332 111.674 29.3751 108.175 29.3751C79.4262 29.3751 50.6777 29.3862 21.9292 29.3974C19.1263 29.3974 18.0619 30.4561 18.0619 33.3204C18.0508 43.9304 18.0508 54.5404 18.0619 65.1504C18.0619 68.115 19.0873 69.1515 22.0686 69.1626C31.5362 69.1849 40.9983 69.1515 50.466 69.1849C52.6671 69.1905 54.311 68.3825 55.6149 66.6049C57.5207 64.0081 59.5268 61.4782 61.5162 58.9483C64.1631 55.5881 67.5679 55.6103 70.2316 59.004C72.26 61.5952 74.2828 64.192 76.2443 66.8333C77.4257 68.4215 78.9414 69.1794 80.8917 69.1738C90.2257 69.1682 99.554 69.1905 108.888 69.1571C111.54 69.1459 112.504 68.1039 112.516 65.4402C112.538 60.0683 112.521 54.6965 112.521 49.3246L112.516 49.319ZM29.5636 71.2969C29.8199 72.1328 29.8812 72.7458 30.171 73.2306C32.7232 77.5437 34.824 82.2413 37.9947 86.0528C46.7268 96.5626 58.1058 101.11 71.7027 98.6857C82.4743 96.7632 89.83 89.8031 95.4415 80.837C97.2693 77.9226 98.6903 74.7574 100.518 71.2913C99.1528 71.2913 98.4284 71.2913 97.7095 71.2913C92.1983 71.2913 86.6927 71.2245 81.1815 71.3192C78.2281 71.3693 76.027 70.2604 74.3051 67.8977C72.4438 65.3511 70.4879 62.8713 68.5431 60.3804C66.7042 58.0288 64.9879 58.0232 63.1657 60.3581C61.0983 63.005 59.0532 65.6687 57.0081 68.3268C55.4701 70.3273 53.4862 71.3136 50.934 71.2969C44.6204 71.2579 38.3012 71.2858 31.9876 71.2858C31.2687 71.2858 30.5555 71.2858 29.5747 71.2858L29.5636 71.2969ZM49.6635 98.0894C49.6635 103.244 49.2623 108.17 49.7527 113.007C50.5718 121.087 57.4148 126.576 65.5117 126.236C73.2909 125.913 79.3983 119.844 79.8051 111.859C79.9946 108.176 79.8998 104.481 79.9165 100.792C79.9165 100.101 79.8385 99.4101 79.7772 98.4516C69.574 102.871 59.6773 102.308 49.6635 98.0894ZM15.7939 55.0141V44.7941C13.0356 44.4152 12.3334 44.9836 12.3 47.5247C12.2777 49.1295 12.2721 50.7344 12.3 52.3393C12.339 54.663 13.1136 55.2816 15.7939 55.0085V55.0141ZM114.884 44.7496V55.0698C117.575 55.2537 118.361 54.585 118.406 52.1443C118.434 50.6731 118.428 49.1964 118.406 47.7253C118.372 45.1006 117.62 44.4542 114.884 44.7496Z" fill="#fff"/>
<path d="M33.735 102.781C32.6483 101.31 31.74 100.24 31.0323 99.0528C30.7648 98.607 30.9599 97.8826 30.9432 97.2864C31.5227 97.4368 32.3307 97.3922 32.6483 97.7656C34.2031 99.6157 35.6909 101.527 37.0339 103.528C37.3181 103.957 37.1453 105.16 36.7497 105.5C34.9164 107.066 32.9604 108.504 30.971 109.869C30.5698 110.142 29.8175 109.908 29.2213 109.908C29.3717 109.334 29.3383 108.565 29.7061 108.231C30.7704 107.244 31.9908 106.431 33.3895 105.366C28.6083 104.436 24.1001 103.84 19.7536 102.642C14.9947 101.332 10.3082 99.6602 5.74438 97.7656C3.15317 96.6901 0.539672 94.9292 0.550817 91.6693C0.561962 88.3369 3.26462 86.7544 5.85582 85.4002C11.6958 82.3465 18.0707 81.0258 24.4735 79.8278C25.5267 79.6327 26.5911 79.3708 27.6498 79.3652C28.1792 79.3652 28.7086 79.8668 29.2324 80.1454C28.8089 80.5633 28.4467 81.2376 27.9507 81.349C24.2283 82.2072 20.4446 82.8202 16.75 83.7731C13.9025 84.5086 11.1051 85.495 8.38573 86.6095C6.80315 87.2614 5.28743 88.2422 3.97232 89.3456C2.16684 90.8613 2.12226 92.494 4.00019 93.9039C5.90598 95.336 8.0291 96.5954 10.2302 97.4981C17.2237 100.368 24.6295 101.677 32.0744 102.77C32.4645 102.825 32.8657 102.775 33.7238 102.775L33.735 102.781Z" fill="#fff"/>
<path d="M96.1348 103.25C102.142 101.957 108.188 100.804 114.145 99.3046C117.177 98.5412 120.108 97.2762 122.961 95.9723C124.867 95.103 127.252 94.0999 127.252 91.6424C127.252 89.0847 124.816 88.0426 122.838 87.1733C119.84 85.8582 116.692 84.8997 113.599 83.802C113.159 83.6459 112.613 83.6571 112.267 83.3952C111.855 83.0831 111.598 82.5593 111.275 82.1246C111.76 81.8794 112.312 81.3278 112.713 81.4281C117.934 82.693 123.189 84.0026 127.413 87.5857C130.361 90.0877 130.311 93.147 127.38 95.6658C123.719 98.8142 119.222 100.308 114.669 101.439C109.342 102.76 103.914 103.685 98.531 104.782C97.7676 104.938 97.0097 105.094 95.9342 105.312C97.2716 106.348 98.4474 107.123 99.4338 108.087C99.8517 108.494 99.8796 109.302 100.08 109.926C99.4338 109.881 98.6313 110.06 98.1632 109.747C96.2742 108.471 94.5077 107.011 92.652 105.685C91.649 104.972 91.5988 104.264 92.3233 103.339C93.6885 101.595 94.9535 99.7671 96.4023 98.0954C96.8091 97.6217 97.6951 97.5548 98.3583 97.3041C98.2635 98.0229 98.3583 98.8421 98.0239 99.4328C97.4165 100.519 96.5639 101.472 95.8116 102.481C95.9119 102.743 96.0178 103.005 96.1181 103.261L96.1348 103.25Z" fill="#fff"/>
<path d="M92.7437 5.25195C100.629 5.96523 107.438 12.9308 107.572 20.6599C107.583 21.2896 107.004 21.9304 106.703 22.5712C106.313 22.0028 105.638 21.4623 105.566 20.8549C104.702 13.4992 100.122 8.80163 92.7716 7.73728C92.0193 7.62583 91.3506 6.95156 90.6484 6.53363C91.345 6.11012 92.0471 5.68103 92.7437 5.25753V5.25195Z" fill="#fff"/>
<path d="M113.689 119.266C114.592 119.828 115.071 120.057 115.466 120.386C120.615 124.665 124.589 129.842 127.241 135.994C127.481 136.551 127.113 137.376 127.024 138.073C126.45 137.655 125.597 137.365 125.341 136.802C122.666 131.04 118.921 126.125 114.09 122.007C113.65 121.628 113.388 120.949 113.237 120.358C113.159 120.062 113.522 119.65 113.694 119.266H113.689Z" fill="#fff"/>
<path d="M111.677 21.5063C110.863 18.7089 110.011 15.9171 109.258 13.103C109.08 12.4399 109.258 11.682 109.275 10.9688C109.916 11.37 110.846 11.6152 111.142 12.1947C113.176 16.1177 113.739 20.325 113.114 24.6715C113.042 25.1786 112.401 25.6077 112.022 26.0702C111.682 25.5241 111.12 25.0058 111.058 24.4319C110.958 23.5236 111.186 22.5762 111.276 21.6401C111.409 21.5955 111.543 21.5453 111.677 21.5008V21.5063Z" fill="#fff"/>
<path d="M106.464 6.53914C105.589 6.6283 104.831 6.9515 104.369 6.70631C102.374 5.66983 100.44 4.50518 98.5512 3.27923C98.1834 3.03961 98.0163 2.32634 97.9884 1.81924C97.9772 1.64649 98.841 1.17283 99.0527 1.28985C101.354 2.5771 103.617 3.94793 105.868 5.32434C106.052 5.43578 106.102 5.77571 106.464 6.53356V6.53914Z" fill="#fff"/>
<path d="M102.174 79.1934C104.259 79.5834 105.914 79.8119 107.513 80.2466C107.97 80.3692 108.265 81.0991 108.633 81.5505C108.148 81.7957 107.635 82.2917 107.184 82.2415C105.535 82.0632 103.88 81.7901 102.275 81.3722C101.723 81.2273 101.305 80.5586 100.82 80.1295C101.35 79.7673 101.874 79.3995 102.174 79.1934Z" fill="#fff"/>
<path d="M105.253 51.4368C104.122 49.7204 103.135 48.2103 102.143 46.7113C100.455 44.1479 100.572 43.847 103.759 43.2786C102.127 40.81 100.555 38.4361 98.8055 35.7836C97.1672 38.386 95.685 40.7487 94.2361 43.0613C95.0943 43.5405 96.2589 43.8136 96.454 44.4099C96.6546 45.0117 96.0806 46.0983 95.5345 46.6834C92.4083 50.0325 92.4585 53.2534 95.6794 56.4743C95.958 56.7529 96.1419 57.1318 96.3425 57.4829C97.1895 58.9763 96.9221 59.4723 95.1946 59.6339C94.8658 59.6673 94.537 59.6896 93.8015 59.7509C95.1667 61.835 96.4763 63.6628 97.5796 65.6132C97.9474 66.2596 97.7691 67.2125 97.8359 68.0261C97.1672 67.6248 96.2924 67.3685 95.8633 66.789C94.3977 64.7884 93.0826 62.6709 91.7118 60.6035C90.0289 58.0625 90.1626 57.7838 93.651 57.3715C91.8511 54.6465 90.157 52.0776 88.2513 49.191C86.4736 52.0386 84.8688 54.6019 83.2137 57.2544C86.3733 57.9231 86.4513 58.1237 84.8075 60.7484C83.4868 62.8548 82.2274 64.9946 80.8008 67.0286C80.4442 67.5357 79.5638 67.6806 78.9229 67.9871C78.9564 67.2738 78.7502 66.4268 79.0622 65.8639C80.1544 63.8801 81.4194 61.9966 82.7679 59.8401C82.0769 59.7398 81.6534 59.6618 81.2243 59.6172C79.9092 59.4834 79.7978 58.6197 80.3216 57.7615C82.5506 54.0893 84.852 50.4616 87.1702 46.8395C87.7887 45.8698 88.5968 45.8977 89.2822 46.806C89.884 47.6029 90.4078 48.4555 91.149 49.5588C91.9681 48.2716 92.6535 47.1905 93.3724 46.0593C90.497 45.2959 90.3967 45.0507 91.8678 42.6991C93.7179 39.7401 95.5624 36.7755 97.4514 33.8388C98.4656 32.2563 99.0507 32.2451 100.093 33.7831C102.088 36.731 104.027 39.7122 105.988 42.6824C107.605 45.1398 107.493 45.4018 104.35 45.9869C105.325 47.497 106.234 48.9347 107.17 50.3557C109.143 53.3593 109.081 53.5097 105.37 54.1394C106.813 56.257 108.256 58.2519 109.533 60.3527C109.895 60.949 109.761 61.8517 109.856 62.6096C109.17 62.2697 108.245 62.1081 107.839 61.562C106.111 59.2494 104.528 56.8309 102.907 54.4403C101.452 52.2949 101.709 51.8101 104.356 51.6207C104.551 51.6039 104.746 51.5371 105.236 51.4312L105.253 51.4368Z" fill="#fff"/>
<path d="M48.7843 53.4377C47.1293 54.8531 45.8866 56.731 44.4657 56.8815C43.1896 57.0152 41.7128 55.2432 39.9464 54.0618C38.9768 55.1484 37.8567 56.3911 36.7478 57.6449C35.9732 58.5198 35.2209 58.6089 34.3739 57.7118C33.499 56.7812 32.496 55.9676 31.7214 54.9701C31.4205 54.58 31.5932 53.8222 31.5486 53.2315C32.0892 53.2984 32.808 53.1702 33.1312 53.4711C33.9114 54.19 34.502 55.1094 35.4661 56.3187C36.8369 54.7528 37.8455 53.6773 38.765 52.5294C39.9575 51.0415 41.0441 51.153 42.1698 52.5907C42.7047 53.2761 43.301 53.9113 43.992 54.7194C45.0786 53.7219 45.9479 52.925 46.6779 52.2507C43.9418 49.5425 41.3005 46.9346 38.531 44.1929C36.4468 46.2882 34.1398 48.6119 31.8217 50.9301C28.6899 54.0618 25.5805 57.2158 22.393 60.2918C21.9862 60.6819 21.1671 60.6429 20.543 60.8045C20.6098 60.1748 20.4371 59.3111 20.7882 58.9544C26.4331 53.2148 32.1505 47.542 37.84 41.8413C38.6257 41.0556 39.3111 41.1169 40.069 41.8803C44.995 46.8231 49.949 51.7381 54.8305 56.7254C55.2038 57.11 55.0924 57.9625 55.2094 58.6034C54.563 58.4641 53.716 58.5421 53.3036 58.152C51.7489 56.6864 50.3279 55.076 48.7843 53.4377Z" fill="#fff"/>
<path d="M70.0644 49.9307C67.7073 50.5102 67.1556 54.5001 64.3805 51.6805C64.2189 51.7139 64.0684 51.7028 63.9849 51.7752C61.2711 54.1769 60.9144 54.1769 58.7356 51.335C58.4291 50.9338 58.5573 50.1926 58.4848 49.6131C59.0643 49.6855 59.694 49.6409 60.2123 49.8583C60.6748 50.0477 61.0147 50.5214 61.4438 50.8947C62.9372 50.2261 63.9068 47.2002 66.1135 50.187C66.7655 49.5183 67.3061 48.9611 67.9302 48.3203C66.2361 46.721 64.6981 45.2721 62.8982 43.5781C60.4519 46.0578 57.9108 48.688 55.2918 51.2458C54.5674 51.9535 53.7705 53.603 52.6058 52.4105C51.4579 51.2347 53.1074 50.4489 53.8206 49.7134C56.4341 47.0163 59.1479 44.4195 61.7559 41.7169C62.7756 40.6581 63.5391 40.6302 64.5755 41.7001C67.6125 44.8263 70.7499 47.8522 73.7701 50.9951C74.2104 51.452 74.2159 52.3269 74.4221 53.0067C73.6921 52.834 72.795 52.8618 72.2767 52.4383C71.3573 51.686 70.6718 50.6551 70.0589 49.9419L70.0644 49.9307Z" fill="#fff"/>
<path d="M51.32 42.2039C50.5176 42.2039 49.7096 42.2708 48.9127 42.1927C46.8843 41.9921 45.3909 40.5099 45.2126 38.5873C45.0343 36.6537 46.2491 35.0265 48.2496 34.408C49.0465 34.1628 49.8656 33.8674 50.5622 33.4216C52.3398 32.2849 54.7917 32.218 56.391 33.4607C58.0126 34.7256 58.6646 36.4029 58.1519 38.4257C57.6114 40.5767 55.9118 42.0144 53.7274 42.1983C52.9305 42.2652 52.1225 42.2095 51.32 42.2095C51.32 42.2095 51.32 42.2039 51.32 42.1983V42.2039ZM47.9877 36.3583C47.7704 37.4506 47.358 38.2474 47.5753 38.7991C47.7815 39.3285 48.6118 39.8523 49.2248 39.9303C50.5399 40.1031 51.8884 40.0139 53.2203 39.9916C54.7415 39.9638 55.817 39.3118 55.9842 37.6957C56.1235 36.3416 55.5328 35.3107 54.1732 34.9764C52.6853 34.6142 51.6098 35.1993 50.9578 36.6425C50.0328 38.6932 49.6204 38.7044 47.9877 36.3528V36.3583Z" fill="#fff"/>
<path d="M78.4484 45.8241C77.4509 45.7349 76.4367 45.7405 75.4615 45.5454C73.4666 45.1442 72.3242 43.6619 72.3521 41.6893C72.3799 39.7222 73.5892 38.3235 75.5451 37.8721C76.2305 37.7161 76.9382 37.482 77.5178 37.1031C79.4013 35.8827 81.725 35.7434 83.3577 36.9248C85.0518 38.1452 85.6592 39.8559 85.2635 41.8676C84.8567 43.935 83.1515 45.395 80.8613 45.6736C80.07 45.7683 79.2564 45.6903 78.4539 45.6903C78.4539 45.7349 78.4539 45.7795 78.4484 45.8241ZM75.0659 40.1736C74.8931 40.8813 74.4139 41.7116 74.6479 42.2131C74.9154 42.7982 75.7736 43.361 76.4423 43.4613C77.7574 43.6564 79.1226 43.5728 80.46 43.5059C81.881 43.4335 83.1181 42.7536 82.9621 41.2379C82.8673 40.3129 82.1039 39.0702 81.2959 38.6913C79.9306 38.0449 78.7548 38.8083 78.0527 40.2293C77.7629 40.82 77.2336 41.2936 76.8156 41.8174C76.3252 41.3605 75.8349 40.9036 75.0603 40.1791L75.0659 40.1736Z" fill="#fff"/>
</svg>
