<svg width="145" height="191" viewBox="0 0 161 161" fill="none" xmlns="http://www.w3.org/2000/svg">
<path d="M32.7594 51.6701C32.12 51.3152 31.7323 51.1767 31.4403 50.925C22.5895 43.3102 15.9741 33.9887 10.6626 23.6729C10.0207 22.4268 10.0811 21.2638 11.1611 20.3375C22.1515 10.9077 34.2093 3.48925 48.6837 0.750447C61.2223 -1.62084 72.316 1.7196 82.2417 9.46781C82.9465 10.0166 83.6463 10.5729 84.3159 11.1619C85.4286 12.1361 85.5368 13.2865 84.6306 14.4143C83.7218 15.5471 82.5966 15.6503 81.3808 14.8045C78.5916 12.8636 75.8931 10.7642 72.968 9.05246C68.4797 6.42441 63.5609 5.0097 58.3375 4.77055C58.0229 4.75545 57.7082 4.77055 57.1191 4.77055C57.5521 5.39736 57.8139 5.80012 58.0984 6.18778C64.2682 14.6056 70.428 23.0309 76.6432 31.416C77.0863 32.0126 77.8767 32.5664 78.5941 32.715C85.0937 34.0516 91.611 35.2952 98.1257 36.5588C98.2743 36.5865 98.4429 36.5261 98.9992 36.4556C96.278 32.5387 93.6752 28.7905 91.0673 25.0473C90.7476 24.5891 90.3574 24.1813 90.0654 23.7081C89.3706 22.5879 89.5594 21.5407 90.5512 20.7276C91.5934 19.8718 92.7438 19.8214 93.6928 20.856C94.594 21.8403 95.4549 22.89 96.1774 24.0077C98.8709 28.1712 101.504 32.3776 104.16 36.5664C104.427 36.9868 104.618 37.5028 104.985 37.8074C109.053 41.1755 113.149 44.511 117.081 47.728C116.905 46.414 116.648 44.74 116.457 43.0585C115.206 32.1007 118.808 23.0888 127.341 16.0832C133.927 10.6786 141.519 7.30294 149.67 5.05249C151.233 4.61952 152.26 5.15318 152.998 6.50245C157.186 14.1751 160.121 22.2531 160.675 31.0485C161.317 41.2485 157.564 49.5707 149.71 56.0804C144.129 60.7047 137.743 63.8034 130.928 66.1118C130.402 66.2905 129.881 66.4818 129.36 66.6731C129.312 66.6908 129.277 66.7461 129.129 66.8821C129.768 68.6341 130.465 70.4314 131.08 72.254C143.822 110.018 120.542 150.934 81.5695 159.284C45.5019 167.012 10.0258 144.563 1.72878 108.719C-0.22967 100.256 -0.544331 91.705 0.888005 83.1161C1.19008 81.3011 2.11644 80.5509 3.68471 80.8203C5.11705 81.067 5.77154 82.1268 5.53492 83.841C2.43865 106.323 9.25546 125.349 26.0533 140.493C38.7002 151.893 53.8945 156.941 70.8912 155.921C96.565 154.38 117.929 138.068 126.455 113.829C135.344 88.5584 126.365 59.4083 104.799 43.5191C104.444 43.2573 104.067 43.0308 103.702 42.7866C101.506 44.5084 99.3642 46.1875 97.149 47.9269C98.7878 49.1881 100.442 50.3208 101.939 51.6349C118.808 66.4416 125.36 85.0015 119.988 106.738C114.695 128.16 100.338 141.308 78.9717 146.705C73.4639 148.097 67.8126 148.211 62.1588 147.79C61.9372 147.773 61.7132 147.755 61.4942 147.717C59.9385 147.445 59.1179 146.476 59.2815 145.107C59.4476 143.697 60.3765 143.088 62.0128 143.04C66.632 142.909 71.3242 143.173 75.8503 142.441C97.2573 138.982 113.892 121.49 116.6 99.9743C117.318 94.2802 117.126 88.6289 115.835 82.8064C112.021 84.9612 108.341 87.0204 105.584 90.3507C102.856 93.6484 103.281 97.52 103.603 101.387C103.848 104.312 104.698 107.41 104.056 110.147C102.138 118.338 96.8344 123.868 88.8269 126.479C84.336 127.941 80.4166 125.837 79.085 121.313C78.2618 118.514 77.8943 115.521 77.7483 112.593C77.4613 106.857 77.4714 101.102 77.3581 95.3551C77.3581 95.2443 77.3481 95.1311 77.338 95.0203C76.9453 90.7233 76.5199 90.4212 72.2682 90.8894C68.3387 91.3199 64.3815 92.0424 60.4621 91.914C52.0393 91.6371 46.247 84.2891 47.347 75.8889C48.0393 70.5926 50.904 66.6077 54.768 63.1842C55.0927 62.8947 55.4275 62.6153 56.0317 62.0942C48.7013 61.2635 42.3049 58.7336 36.3541 54.6883C33.1495 57.1427 30.2547 59.9344 27.9665 63.2219C25.7462 66.4139 23.8809 69.8525 21.9199 73.2181C21.6909 73.6108 21.6279 74.3358 21.8369 74.7133C23.672 78.0261 25.6808 81.2482 27.4504 84.5962C28.7015 86.9599 30.3554 88.5685 33.0363 89.1676C34.4334 89.4798 35.8053 90.0512 37.0866 90.7057C40.2735 92.3293 41.6857 95.262 40.6007 98.6804C39.6441 101.694 38.237 104.563 37.0136 107.488C36.714 108.208 36.3843 108.918 36.0117 109.603C34.3755 112.611 34.018 115.325 35.9941 118.622C38.524 122.844 39.1784 127.75 38.5491 132.707C38.4182 133.739 38.6498 134.381 39.5812 134.871C42.4383 136.377 45.2501 137.968 48.1173 139.455C49.7737 140.314 50.3602 141.331 49.8014 142.738C49.2526 144.12 47.9789 144.566 46.3024 143.808C27.5511 135.347 16.1478 121.049 13.4191 100.624C10.8665 81.51 17.3334 65.3944 31.6316 52.4429C31.8355 52.2592 32.0923 52.1308 32.7694 51.6802L32.7594 51.6701ZM114.438 77.9984C111.863 68.2867 102.388 56.1735 93.5015 51.3857C93.0031 51.1163 92.0112 51.3202 91.46 51.6525C83.2788 56.6065 74.6848 60.4529 65.1065 61.7594C64.7415 61.8097 64.3639 61.9885 64.0543 62.1999C62.627 63.1741 61.2022 64.1533 59.8177 65.1829C56.5477 67.6196 53.7107 70.4189 52.4496 74.4516C50.325 81.2482 54.8007 87.3627 61.8768 87.3275C62.8812 87.3224 63.8906 87.2922 64.885 87.1638C68.092 86.746 71.2839 86.1947 74.4985 85.8498C77.5545 85.5201 79.5104 86.7158 80.7514 89.5175C81.1743 90.4766 81.6174 91.5137 81.6728 92.5357C81.9698 97.9857 82.1133 103.446 82.3801 108.898C82.5362 112.067 82.6419 115.259 83.1051 118.391C83.6388 121.998 85.6475 123.005 88.9981 121.505C93.9193 119.3 97.3303 115.589 99.183 110.537C99.5908 109.427 99.7016 108.133 99.6411 106.94C99.5505 105.22 99.1906 103.516 98.9212 101.807C97.7205 94.1544 99.6789 87.7453 106.314 83.2318C108.94 81.4471 111.649 79.7882 114.443 77.9959L114.438 77.9984ZM97.8564 41.455C97.3731 41.2813 97.1692 41.1781 96.9552 41.1378C90.4455 39.859 83.9408 38.555 77.416 37.3568C76.7741 37.2385 75.8981 37.6086 75.3292 38.0239C67.4274 43.7633 59.5609 49.5506 51.6894 55.3277C51.3445 55.582 51.0323 55.879 50.6573 56.1937C53.7082 57.3139 59.4376 57.7418 63.3368 57.256C76.4041 55.6248 87.314 49.3215 97.8589 41.455H97.8564ZM33.9123 130.235C34.1263 126.602 33.0992 122.507 30.8487 118.804C29.4944 116.576 29.1974 114.295 30.081 111.929C31.0325 109.379 32.198 106.907 33.2628 104.4C34.1539 102.3 35.1256 100.229 35.8909 98.0838C36.5957 96.1052 36.2156 95.4004 34.2672 94.5647C33.1445 94.0839 31.9891 93.6308 30.806 93.3413C27.6669 92.5785 25.4592 90.7132 23.974 87.8989C23.3497 86.7158 22.6701 85.5629 22.0282 84.3898C21.2327 82.9398 20.4498 81.4823 19.5713 79.8612C14.3656 96.508 19.6166 117.973 33.9123 130.235ZM32.417 45.4675C35.9286 48.7954 39.6945 51.5266 43.8682 53.7141C44.7995 54.2025 45.4238 54.0943 46.247 53.4876C53.7737 47.9219 61.3356 42.404 68.8849 36.8685C69.2097 36.6293 69.4992 36.3398 70.0228 35.8792C65.2651 34.9578 60.7012 34.4015 56.3463 33.1353C52.2356 31.9421 49.1393 32.7301 45.8996 35.4739C41.6655 39.0585 36.9859 42.1195 32.417 45.4675ZM38.4107 8.70255C38.5592 8.98449 38.6347 9.18839 38.7581 9.35705C43.0349 15.2047 47.3042 21.0574 51.6264 26.8723C51.9763 27.3431 52.6787 27.6854 53.2752 27.8113C56.7617 28.5463 60.2632 29.2033 63.7648 29.8754C65.8919 30.2832 68.0215 30.6659 70.5161 31.1291C69.985 30.3789 69.7358 30.0164 69.4765 29.664C63.6439 21.7094 57.8164 13.7497 51.9512 5.82026C51.6843 5.46029 51.0198 5.12801 50.6019 5.19094C46.4182 5.82026 42.3704 6.94297 38.4132 8.70255H38.4107ZM130.614 61.2534C138.342 58.346 145.111 54.8243 150.337 48.8709C153.307 45.4877 155.172 41.5833 155.711 37.0598C155.5 37.0422 155.381 36.9969 155.298 37.0321C149.682 39.3404 144.066 41.6488 138.463 43.9874C138.09 44.1434 137.667 44.4732 137.516 44.8281C135.253 50.1472 133.03 55.4863 130.616 61.2559L130.614 61.2534ZM126.113 59.3529C126.229 59.227 126.385 59.1238 126.445 58.9803C128.535 54.0036 130.636 49.0345 132.658 44.0302C132.867 43.5116 132.708 42.7337 132.479 42.1724C130.327 36.8609 128.124 31.5721 125.929 26.2782C125.776 25.9082 125.574 25.5558 125.368 25.1379C118.576 33.3266 120.258 47.6475 126.113 59.3504V59.3529ZM28.7317 42.3335C34.1414 38.3637 39.0752 34.7464 44.3439 30.8824C35.0954 29.08 26.2471 27.3556 17.3989 25.6313C17.2579 25.805 17.1195 25.9787 16.9785 26.1499C20.8627 31.4966 24.7443 36.8433 28.7317 42.331V42.3335ZM146.556 10.9379C140.028 13.279 134.324 16.1663 129.446 20.5262C129.199 20.7453 129.033 21.3444 129.151 21.6364C131.205 26.7213 133.307 31.7836 135.553 37.2184C139.256 28.3751 142.813 19.8768 146.556 10.9354V10.9379ZM45.2854 26.2606C41.3559 20.9013 37.6454 15.8391 33.6656 10.4143C28.3843 13.7799 23.1811 17.0952 17.9753 20.4105C18.0534 20.6018 18.1289 20.7956 18.2069 20.9869C27.0904 22.7163 35.9765 24.4482 45.2829 26.2606H45.2854ZM150.893 12.778C147.341 21.2688 143.903 29.4928 140.3 38.1019C145.609 35.9144 150.526 33.9006 155.424 31.8414C155.681 31.7332 155.945 31.2297 155.925 30.9302C155.467 24.6445 153.66 18.7314 150.893 12.778Z" fill="white"/>
</svg>
