<svg width="83" height="83" viewBox="0 0 83 83" fill="none" xmlns="http://www.w3.org/2000/svg">
<circle cx="41.207" cy="41.207" r="41.207" fill="black"/>
<path d="M47.3327 40.8085C47.3327 45.413 47.3327 50.0299 47.3327 54.6344C47.3327 56.9491 45.9313 58.8134 43.7917 59.4015C42.3779 59.7893 41.0891 59.4765 39.913 58.6382C36.0843 55.9106 32.2556 53.1704 28.4144 50.4428C28.2017 50.2927 27.8889 50.1926 27.6136 50.1801C26.4125 50.155 25.1988 50.1801 23.9976 50.1676C21.2199 50.1676 19.1805 48.1281 19.168 45.3629C19.168 42.3225 19.168 39.2695 19.168 36.2291C19.168 33.4514 21.2199 31.4245 23.9851 31.412C25.1362 31.412 26.2999 31.3994 27.451 31.412C27.8639 31.412 28.1892 31.3119 28.527 31.0741C32.2806 28.3715 36.0468 25.6939 39.8129 23.0038C41.3519 21.9028 42.991 21.6525 44.6801 22.5284C46.4068 23.4167 47.3076 24.9057 47.3201 26.8325C47.3452 31.487 47.3201 36.154 47.3201 40.8085H47.3327ZM44.2046 40.8085C44.2046 36.2041 44.2046 31.5871 44.2046 26.9827C44.2046 26.232 43.9419 25.6564 43.2537 25.3061C42.6031 24.9807 42.0776 25.231 41.5396 25.6063C37.6233 28.4216 33.707 31.2118 29.7907 34.027C29.2902 34.3898 28.7772 34.565 28.1642 34.5525C26.7753 34.5275 25.399 34.5525 24.0101 34.5525C22.9466 34.5525 22.296 35.2031 22.296 36.2541C22.296 39.282 22.296 42.31 22.296 45.3379C22.296 46.4264 22.9341 47.0646 24.0352 47.0646C25.399 47.0646 26.7753 47.0896 28.1391 47.0646C28.7772 47.052 29.3028 47.2397 29.8157 47.6026C33.7696 50.4428 37.7359 53.2705 41.6897 56.0983C42.1777 56.4486 42.6907 56.5862 43.2412 56.3235C43.8418 56.0482 44.1421 55.5477 44.2046 54.8971C44.2297 54.6844 44.2046 54.4717 44.2046 54.259C44.2046 49.7797 44.2046 45.3004 44.2046 40.821V40.8085Z" fill="white"/>
<path d="M62.9991 40.3585C62.874 45.8638 61.3976 50.4057 57.9818 54.2218C57.5313 54.7223 57.0058 54.9851 56.3302 54.8099C55.7046 54.6473 55.3292 54.2218 55.1916 53.5962C55.079 53.0832 55.2416 52.6203 55.592 52.2449C57.9192 49.6925 59.258 46.6771 59.6709 43.2863C60.309 38.1063 59.1579 33.4268 55.6545 29.4354C54.9914 28.6722 54.9914 27.7463 55.667 27.1332C56.3427 26.5201 57.2811 26.6077 57.9568 27.3459C60.5342 30.1736 62.0357 33.5144 62.6488 37.268C62.849 38.4316 62.899 39.6328 62.9866 40.371L62.9991 40.3585Z" fill="white"/>
<path d="M56.724 40.5704C56.6239 44.1989 55.5604 47.1768 53.2081 49.6417C52.6576 50.2173 52.032 50.3299 51.3438 50.0045C50.7432 49.7168 50.3554 49.1162 50.4805 48.453C50.5556 48.0777 50.7683 47.6898 51.031 47.402C54.1841 43.9987 54.4593 38.556 51.6316 34.9025C51.4314 34.6397 51.2062 34.402 50.9935 34.1643C50.3053 33.4135 50.2803 32.4876 50.9434 31.862C51.6191 31.2114 52.5575 31.2865 53.2832 32.0372C55.0599 33.9015 56.1109 36.1161 56.5238 38.6436C56.6489 39.3693 56.6865 40.095 56.7365 40.5704H56.724Z" fill="white"/>
</svg>
