<svg width="70" height="17" viewBox="0 0 70 17" fill="none" xmlns="http://www.w3.org/2000/svg">
<path d="M11.22 1.32H14.2L9.32 16H6.06L1.62 2.7L0.56 1.72L0.12 1.32H4.12L7.68 11.76L11.22 1.32ZM30.0916 1.32H32.9716L27.9516 9.52V16H25.1516V9.52L21.0516 2.82L19.4116 1.32H23.0116L26.5716 6.98L30.0916 1.32ZM48.0367 1.32H50.7967V10.48C50.7967 13.84 48.6767 16.24 45.2567 16.24C41.7767 16.24 39.7167 13.88 39.7167 10.48V2.72L38.6367 1.72L38.1967 1.32H42.4767V10.48C42.4767 12.14 43.5167 13.56 45.2567 13.56C46.9767 13.56 48.0367 12.12 48.0367 10.48V1.32ZM66.1877 12.72V8.28H69.0077V14.24C68.5877 14.84 66.3877 16 64.6077 16C59.6677 16 56.5677 12.9 56.5677 8.5C56.5677 4.1 59.7677 0.999999 64.0277 0.999999C65.3277 0.999999 66.8677 1.28 68.0877 1.94L68.6477 1.38L69.0277 0.94L69.0077 2.58V5.32C68.2077 4.62 65.6477 3.7 64.5877 3.7C61.8677 3.7 59.6677 5.78 59.6677 8.5C59.6677 11.46 61.6477 13.3 64.6077 13.3C65.1877 13.3 65.7677 13.12 66.1877 12.72Z" fill="white"/>
</svg>
