<svg width="234" height="55" viewBox="0 0 234 55" fill="none" xmlns="http://www.w3.org/2000/svg">
<g filter="url(#filter0_d_1060_2156)">
<mask id="path-1-outside-1_1060_2156" maskUnits="userSpaceOnUse" x="1" y="-2" width="230" height="50" fill="black">
<rect fill="white" x="1" y="-2" width="230" height="50"/>
<path d="M37.66 1.96H46.6L31.96 46H22.18L8.86 6.1L5.68 3.16L4.36 1.96H16.36L27.04 33.28L37.66 1.96ZM100.275 1.96H108.915L93.8547 26.56V46H85.4547V26.56L73.1547 6.46L68.2347 1.96H79.0347L89.7147 18.94L100.275 1.96ZM160.11 1.96H168.39V29.44C168.39 39.52 162.03 46.72 151.77 46.72C141.33 46.72 135.15 39.64 135.15 29.44V6.16L131.91 3.16L130.59 1.96H143.43V29.44C143.43 34.42 146.55 38.68 151.77 38.68C156.93 38.68 160.11 34.36 160.11 29.44V1.96ZM220.563 36.16V22.84H229.023V40.72C227.763 42.52 221.163 46 215.823 46C201.003 46 191.703 36.7 191.703 23.5C191.703 10.3 201.303 0.999996 214.083 0.999996C217.983 0.999996 222.603 1.84 226.263 3.82L227.943 2.14L229.083 0.819999L229.023 5.74V13.96C226.623 11.86 218.943 9.1 215.763 9.1C207.603 9.1 201.003 15.34 201.003 23.5C201.003 32.38 206.943 37.9 215.823 37.9C217.563 37.9 219.303 37.36 220.563 36.16Z"/>
</mask>
<path d="M37.66 1.96H46.6L31.96 46H22.18L8.86 6.1L5.68 3.16L4.36 1.96H16.36L27.04 33.28L37.66 1.96ZM100.275 1.96H108.915L93.8547 26.56V46H85.4547V26.56L73.1547 6.46L68.2347 1.96H79.0347L89.7147 18.94L100.275 1.96ZM160.11 1.96H168.39V29.44C168.39 39.52 162.03 46.72 151.77 46.72C141.33 46.72 135.15 39.64 135.15 29.44V6.16L131.91 3.16L130.59 1.96H143.43V29.44C143.43 34.42 146.55 38.68 151.77 38.68C156.93 38.68 160.11 34.36 160.11 29.44V1.96ZM220.563 36.16V22.84H229.023V40.72C227.763 42.52 221.163 46 215.823 46C201.003 46 191.703 36.7 191.703 23.5C191.703 10.3 201.303 0.999996 214.083 0.999996C217.983 0.999996 222.603 1.84 226.263 3.82L227.943 2.14L229.083 0.819999L229.023 5.74V13.96C226.623 11.86 218.943 9.1 215.763 9.1C207.603 9.1 201.003 15.34 201.003 23.5C201.003 32.38 206.943 37.9 215.823 37.9C217.563 37.9 219.303 37.36 220.563 36.16Z" fill="white"/>
<path d="M37.66 1.96V0.959998H36.9432L36.713 1.63888L37.66 1.96ZM46.6 1.96L47.5489 2.27545L47.9862 0.959998H46.6V1.96ZM31.96 46V47H32.6814L32.9089 46.3155L31.96 46ZM22.18 46L21.2315 46.3167L21.4596 47H22.18V46ZM8.86 6.1L9.80854 5.78334L9.72728 5.53993L9.53886 5.36573L8.86 6.1ZM5.68 3.16L6.35888 2.4257L6.35267 2.42006L5.68 3.16ZM4.36 1.96V0.959998H1.77339L3.68733 2.69994L4.36 1.96ZM16.36 1.96L17.3065 1.63725L17.0755 0.959998H16.36V1.96ZM27.04 33.28L26.0935 33.6027L27.0427 36.3862L27.987 33.6011L27.04 33.28ZM37.66 2.96H46.6V0.959998H37.66V2.96ZM45.6511 1.64455L31.0111 45.6845L32.9089 46.3155L47.5489 2.27545L45.6511 1.64455ZM31.96 45H22.18V47H31.96V45ZM23.1285 45.6833L9.80854 5.78334L7.91146 6.41665L21.2315 46.3167L23.1285 45.6833ZM9.53886 5.36573L6.35886 2.42573L5.00114 3.89427L8.18114 6.83427L9.53886 5.36573ZM6.35267 2.42006L5.03267 1.22006L3.68733 2.69994L5.00733 3.89994L6.35267 2.42006ZM4.36 2.96H16.36V0.959998H4.36V2.96ZM15.4135 2.28275L26.0935 33.6027L27.9865 32.9573L17.3065 1.63725L15.4135 2.28275ZM27.987 33.6011L38.607 2.28112L36.713 1.63888L26.093 32.9589L27.987 33.6011ZM100.275 1.96V0.959998H99.719L99.4255 1.43189L100.275 1.96ZM108.915 1.96L109.768 2.48212L110.699 0.959998H108.915V1.96ZM93.8547 26.56L93.0018 26.0379L92.8547 26.2782V26.56H93.8547ZM93.8547 46V47H94.8547V46H93.8547ZM85.4547 46H84.4547V47H85.4547V46ZM85.4547 26.56H86.4547V26.2783L86.3077 26.038L85.4547 26.56ZM73.1547 6.46L74.0077 5.93803L73.9339 5.81748L73.8296 5.7221L73.1547 6.46ZM68.2347 1.96V0.959998H65.6597L67.5598 2.6979L68.2347 1.96ZM79.0347 1.96L79.8812 1.42758L79.5871 0.959998H79.0347V1.96ZM89.7147 18.94L88.8682 19.4724L89.7195 20.8258L90.5639 19.4681L89.7147 18.94ZM100.275 2.96H108.915V0.959998H100.275V2.96ZM108.062 1.43788L93.0018 26.0379L94.7076 27.0821L109.768 2.48212L108.062 1.43788ZM92.8547 26.56V46H94.8547V26.56H92.8547ZM93.8547 45H85.4547V47H93.8547V45ZM86.4547 46V26.56H84.4547V46H86.4547ZM86.3077 26.038L74.0077 5.93803L72.3017 6.98196L84.6017 27.082L86.3077 26.038ZM73.8296 5.7221L68.9096 1.2221L67.5598 2.6979L72.4798 7.1979L73.8296 5.7221ZM68.2347 2.96H79.0347V0.959998H68.2347V2.96ZM78.1882 2.49241L88.8682 19.4724L90.5612 18.4076L79.8812 1.42758L78.1882 2.49241ZM90.5639 19.4681L101.124 2.48811L99.4255 1.43189L88.8655 18.4119L90.5639 19.4681ZM160.11 1.96V0.959998H159.11V1.96H160.11ZM168.39 1.96H169.39V0.959998H168.39V1.96ZM135.15 6.16H136.15V5.72308L135.83 5.42624L135.15 6.16ZM131.91 3.16L132.59 2.42621L132.583 2.42006L131.91 3.16ZM130.59 1.96V0.959998H128.004L129.917 2.69994L130.59 1.96ZM143.43 1.96H144.43V0.959998H143.43V1.96ZM160.11 2.96H168.39V0.959998H160.11V2.96ZM167.39 1.96V29.44H169.39V1.96H167.39ZM167.39 29.44C167.39 34.2703 165.869 38.3311 163.199 41.1756C160.535 44.0126 156.655 45.72 151.77 45.72V47.72C157.145 47.72 161.575 45.8274 164.657 42.5444C167.732 39.2689 169.39 34.6897 169.39 29.44H167.39ZM151.77 45.72C146.786 45.72 142.91 44.0369 140.275 41.2217C137.632 38.3979 136.15 34.3402 136.15 29.44H134.15C134.15 34.7398 135.758 39.3221 138.815 42.5883C141.88 45.8631 146.314 47.72 151.77 47.72V45.72ZM136.15 29.44V6.16H134.15V29.44H136.15ZM135.83 5.42624L132.59 2.42624L131.231 3.89376L134.471 6.89376L135.83 5.42624ZM132.583 2.42006L131.263 1.22006L129.917 2.69994L131.237 3.89994L132.583 2.42006ZM130.59 2.96H143.43V0.959998H130.59V2.96ZM142.43 1.96V29.44H144.43V1.96H142.43ZM142.43 29.44C142.43 34.8124 145.851 39.68 151.77 39.68V37.68C147.25 37.68 144.43 34.0276 144.43 29.44H142.43ZM151.77 39.68C157.629 39.68 161.11 34.7532 161.11 29.44H159.11C159.11 33.9668 156.231 37.68 151.77 37.68V39.68ZM161.11 29.44V1.96H159.11V29.44H161.11ZM220.563 36.16L221.253 36.8841L221.563 36.5886V36.16H220.563ZM220.563 22.84V21.84H219.563V22.84H220.563ZM229.023 22.84H230.023V21.84H229.023V22.84ZM229.023 40.72L229.842 41.2935L230.023 41.0352V40.72H229.023ZM226.263 3.82L225.787 4.69954L226.443 5.05429L226.97 4.52711L226.263 3.82ZM227.943 2.14L228.65 2.84711L228.676 2.82127L228.7 2.79362L227.943 2.14ZM229.083 0.819999L230.083 0.832193L230.116 -1.90642L228.326 0.166379L229.083 0.819999ZM229.023 5.74L228.023 5.7278V5.74H229.023ZM229.023 13.96L228.364 14.7126L230.023 16.1638V13.96H229.023ZM221.563 36.16V22.84H219.563V36.16H221.563ZM220.563 23.84H229.023V21.84H220.563V23.84ZM228.023 22.84V40.72H230.023V22.84H228.023ZM228.204 40.1465C228.001 40.4355 227.485 40.9057 226.63 41.4693C225.803 42.0141 224.743 42.5922 223.548 43.1205C221.144 44.1842 218.303 45 215.823 45V47C218.683 47 221.812 46.0758 224.358 44.9495C225.638 44.3828 226.798 43.7534 227.73 43.1394C228.633 42.5443 229.414 41.9045 229.842 41.2935L228.204 40.1465ZM215.823 45C208.624 45 202.856 42.7446 198.895 38.9756C194.937 35.2096 192.703 29.857 192.703 23.5H190.703C190.703 30.343 193.119 36.2404 197.516 40.4244C201.91 44.6054 208.202 47 215.823 47V45ZM192.703 23.5C192.703 10.8576 201.85 2 214.083 2V-3.57628e-06C200.756 -3.57628e-06 190.703 9.7424 190.703 23.5H192.703ZM214.083 2C217.866 2 222.311 2.81903 225.787 4.69954L226.739 2.94046C222.895 0.860959 218.1 -3.57628e-06 214.083 -3.57628e-06V2ZM226.97 4.52711L228.65 2.84711L227.236 1.43289L225.556 3.11289L226.97 4.52711ZM228.7 2.79362L229.84 1.47362L228.326 0.166379L227.186 1.48638L228.7 2.79362ZM228.083 0.807805L228.023 5.72781L230.023 5.75219L230.083 0.832193L228.083 0.807805ZM228.023 5.74V13.96H230.023V5.74H228.023ZM229.681 13.2074C228.33 12.0253 225.655 10.7591 223.027 9.80278C220.395 8.84473 217.54 8.1 215.763 8.1V10.1C217.166 10.1 219.741 10.7353 222.344 11.6822C224.951 12.6309 227.315 13.7947 228.364 14.7126L229.681 13.2074ZM215.763 8.1C207.083 8.1 200.003 14.7557 200.003 23.5H202.003C202.003 15.9243 208.123 10.1 215.763 10.1V8.1ZM200.003 23.5C200.003 28.1707 201.571 32.046 204.391 34.7516C207.205 37.4524 211.175 38.9 215.823 38.9V36.9C211.59 36.9 208.151 35.5876 205.775 33.3084C203.405 31.034 202.003 27.7093 202.003 23.5H200.003ZM215.823 38.9C217.756 38.9 219.765 38.3008 221.253 36.8841L219.873 35.4359C218.841 36.4192 217.37 36.9 215.823 36.9V38.9Z" fill="black" mask="url(#path-1-outside-1_1060_2156)"/>
</g>
<defs>
<filter id="filter0_d_1060_2156" x="0.359375" y="0.820312" width="232.723" height="53.8984" filterUnits="userSpaceOnUse" color-interpolation-filters="sRGB">
<feFlood flood-opacity="0" result="BackgroundImageFix"/>
<feColorMatrix in="SourceAlpha" type="matrix" values="0 0 0 0 0 0 0 0 0 0 0 0 0 0 0 0 0 0 127 0" result="hardAlpha"/>
<feOffset dy="4"/>
<feGaussianBlur stdDeviation="2"/>
<feComposite in2="hardAlpha" operator="out"/>
<feColorMatrix type="matrix" values="0 0 0 0 0 0 0 0 0 0 0 0 0 0 0 0 0 0 0.25 0"/>
<feBlend mode="normal" in2="BackgroundImageFix" result="effect1_dropShadow_1060_2156"/>
<feBlend mode="normal" in="SourceGraphic" in2="effect1_dropShadow_1060_2156" result="shape"/>
</filter>
</defs>
</svg>
