<svg width="60" height="64" viewBox="0 0 60 64" fill="none" xmlns="http://www.w3.org/2000/svg">
<path d="M40.9609 0C41.4223 0.106321 41.9222 0.202977 42.3355 0.318964C44.1534 0.768098 45.815 1.70711 47.1417 3.03499L59.09 15.059C59.734 15.7066 59.7436 16.1898 59.09 16.8278C57.2252 18.7158 55.3571 20.5941 53.4859 22.4628C52.8419 23.1104 52.3997 23.1104 51.7269 22.4628L43.4698 14.9236L42.672 14.2181C42.672 15.1846 42.6143 16.1512 42.672 16.9921C42.8996 19.0641 42.4974 21.1568 41.5185 22.9944C40.365 25.0725 40.7399 27.3052 40.6918 29.4993C40.7 29.625 40.7361 29.7472 40.7975 29.857C42.1404 32.8069 42.8511 36.0078 42.8834 39.2519C43.1141 46.8007 43.3929 54.3592 43.6428 61.908C43.7005 63.6575 43.5563 63.7735 41.8164 63.7735H35.0877C34.0688 63.7735 33.8285 63.5898 33.6267 62.5749C32.5308 57.3104 31.4414 52.0395 30.3584 46.762C30.1966 45.8815 29.9651 45.0153 29.6663 44.1717C29.4453 45.2446 29.2146 46.3174 28.9935 47.3903L25.9175 62.6329C25.706 63.5995 25.4753 63.8025 24.4276 63.8025H17.1798C16.2186 63.8025 15.9014 63.4738 15.9302 62.5266C16.0776 58.2158 16.225 53.8791 16.3724 49.5167C16.5069 45.6505 16.6479 41.7843 16.7953 37.918C16.912 35.3015 17.5083 32.7292 18.5544 30.3306C18.7443 29.8387 18.8577 29.3203 18.8908 28.7937C19.16 26.3708 18.7084 23.922 17.5931 21.7572C17.0501 20.6589 16.8142 19.4327 16.9107 18.2099C16.9683 16.9341 16.9107 15.6486 16.9107 14.2471C16.6415 14.4694 16.4493 14.6143 16.2762 14.7787L7.94226 22.4338C7.16366 23.1394 6.76955 23.1297 6.01978 22.4338C4.18701 20.5973 2.36065 18.7609 0.540699 16.9244C-0.180233 16.1995 -0.180233 15.7646 0.540699 14.9913C4.68686 10.9447 8.79457 6.89478 12.8638 2.84168C14.3399 1.37557 16.2423 0.420786 18.2948 0.115987C18.4163 0.0869831 18.5352 0.0481956 18.6505 0L25.2158 0C25.473 0.29771 25.6985 0.621659 25.8887 0.966557C26.2257 1.93143 26.8584 2.76393 27.6958 3.34429C29.9163 4.83279 32.6366 3.74058 33.6747 1.11154C33.8752 0.716402 34.1169 0.343797 34.3957 0L40.9609 0ZM41.6146 61.7823C41.6146 61.6664 41.6146 61.6084 41.6146 61.5504C41.3454 53.6633 41.0955 45.7762 40.7975 37.889C40.6887 35.6053 40.1437 33.364 39.1923 31.2875C39.1154 31.1328 38.9327 30.9202 38.7981 30.9202C37.6254 30.9202 36.4623 30.9202 35.2319 30.9202C35.3569 31.2585 35.4722 31.5001 35.5491 31.7514C36.1119 32.9868 36.5281 34.2844 36.7892 35.6176C37.0775 38.672 37.462 41.7263 37.7504 44.7709C37.7581 44.925 37.7315 45.0788 37.6724 45.2211C37.6134 45.3634 37.5234 45.4907 37.4092 45.5935C37.2949 45.6964 37.1592 45.7722 37.012 45.8155C36.8648 45.8589 36.7098 45.8685 36.5584 45.8438C35.9625 45.7085 35.8375 45.2156 35.7798 44.7033C35.5588 42.5962 35.3473 40.4988 35.1262 38.3917C35.0685 37.8504 34.9916 37.3091 34.9147 36.6809C33.6651 37.5121 32.5212 38.295 31.3581 39.0393C31.2137 39.1051 31.099 39.2231 31.0367 39.3698C30.9744 39.5165 30.9691 39.6813 31.0217 39.8318C31.5023 42.0646 31.9829 44.2973 32.4059 46.5204C33.4312 51.4692 34.4629 56.4147 35.5011 61.3571C35.5011 61.531 35.7318 61.7823 35.876 61.792C36.4431 61.792 37.0198 61.792 37.6062 61.792C37.2698 58.5251 36.9333 55.3257 36.5969 52.1264C36.52 51.3919 36.8372 50.8989 37.4236 50.8216C37.5635 50.8027 37.7058 50.8132 37.8414 50.8525C37.9771 50.8918 38.1031 50.959 38.2116 51.0499C38.32 51.1408 38.4085 51.2533 38.4715 51.3804C38.5344 51.5075 38.5703 51.6464 38.5771 51.7881C38.7597 53.441 38.9231 55.0938 39.0961 56.7466C39.2692 58.3994 39.4518 60.0329 39.6344 61.705L41.6146 61.7823ZM20.5538 4.98744C20.15 4.07887 19.7752 3.27663 19.4387 2.45506C19.4225 2.38637 19.3921 2.32189 19.3495 2.26581C19.3068 2.20973 19.2529 2.1633 19.1913 2.12957C19.1296 2.09583 19.0616 2.07553 18.9916 2.06999C18.9216 2.06446 18.8512 2.0738 18.7851 2.09743C17.0298 2.31996 15.3989 3.1263 14.1519 4.38817L3.10722 15.3103C2.88698 15.505 2.65241 15.6827 2.40551 15.8419L4.15497 17.5527L7.20211 14.653C7.71157 14.1794 8.16335 13.6865 8.7401 13.2128C8.83477 13.1221 8.94629 13.051 9.0683 13.0036C9.19031 12.9561 9.32041 12.9333 9.45117 12.9365C9.58194 12.9396 9.71081 12.9686 9.83042 13.0219C9.95004 13.0751 10.0581 13.1515 10.1483 13.2467C10.2386 13.3419 10.3093 13.454 10.3565 13.5767C10.4036 13.6994 10.4263 13.8302 10.4231 13.9617C10.42 14.0932 10.3912 14.2227 10.3382 14.343C10.2853 14.4633 10.2093 14.5719 10.1147 14.6627C9.97447 14.8118 9.82689 14.9537 9.6725 15.088L5.62567 18.9349L7.10598 20.4717C10.0762 17.746 13.0945 15.0203 16.0455 12.2463C16.8396 11.4678 17.8092 10.8941 18.8716 10.5741C20.0731 10.2262 21.2459 9.78156 22.4859 9.36594C22.1494 8.61203 21.8611 7.90644 21.5246 7.22985C21.4661 7.15762 21.393 7.09873 21.3101 7.05707C21.2273 7.01541 21.1366 6.99194 21.044 6.98821C20.3011 6.94954 19.5568 6.94954 18.8139 6.98821C18.4985 7.01427 18.1992 7.13938 17.9584 7.34584C16.3627 8.80534 14.7863 10.3132 13.1522 11.792C13.0534 11.9051 12.9331 11.9973 12.7984 12.063C12.6637 12.1288 12.5173 12.1668 12.3678 12.1749C12.2182 12.183 12.0686 12.161 11.9277 12.1102C11.7867 12.0594 11.6573 11.9808 11.5469 11.879C11.1528 11.4634 11.2393 10.8544 11.768 10.3518C13.5079 8.69902 15.2477 7.0462 17.026 5.42239C17.3197 5.17705 17.6831 5.03155 18.0641 5.00677C18.8812 4.94877 19.6598 4.98744 20.5538 4.98744ZM19.977 61.7823C20.1597 60.1295 20.3423 58.5347 20.5057 56.9496C20.8614 53.6923 21.1978 50.435 21.5438 47.1777C21.8899 43.9204 22.2744 40.4988 22.63 37.1641C22.6923 35.5878 23.0477 34.0371 23.6778 32.5923C23.9308 32.0504 24.1554 31.4954 24.3507 30.9298C23.1395 30.9298 22.0245 30.9298 20.919 30.9298C20.8175 30.9386 20.7194 30.9712 20.6326 31.0249C20.5459 31.0786 20.4728 31.152 20.4192 31.2391C19.583 33.0012 19.0686 34.9001 18.9004 36.8452C18.7178 39.6675 18.6313 42.4899 18.5255 45.3025C18.3717 49.6392 18.2211 53.9726 18.0738 58.3027C18.0738 59.4529 18.0738 60.6128 18.0738 61.7823H19.977ZM28.6859 39.3389L24.6775 36.6615L21.9956 61.8597C22.5435 61.8597 23.0434 61.8597 23.5336 61.8597C24.0238 61.8597 24.0527 61.763 24.1392 61.3667C24.6294 58.8923 25.1581 56.418 25.6676 53.9532C26.6769 49.0721 27.6766 44.2297 28.6859 39.3389ZM21.4285 1.99111C22.4474 4.30118 23.4087 6.49527 24.3987 8.69902C24.4584 8.78227 24.5362 8.85077 24.6261 8.89933C24.7161 8.9479 24.8158 8.97525 24.9178 8.97932C28.1796 8.97932 31.4382 8.97932 34.6936 8.97932C34.8046 8.96869 34.9116 8.93267 35.0066 8.87404C35.1016 8.8154 35.1819 8.7357 35.2416 8.64102C36.2028 6.55326 37.1064 4.44616 38.0291 2.34873C38.0291 2.26174 38.0292 2.16509 38.1253 2.01044C37.414 2.01044 36.7603 2.01044 36.1067 2.01044C35.9186 1.98466 35.7274 2.02556 35.566 2.1261C35.4046 2.22663 35.2831 2.38054 35.2223 2.56138C34.6412 3.79834 33.6536 4.7959 32.4261 5.38577C31.1985 5.97564 29.8062 6.12171 28.484 5.79934C27.5729 5.59873 26.7211 5.18656 25.9968 4.5958C25.2724 4.00503 24.6955 3.25206 24.3122 2.39706C24.2656 2.29496 24.1977 2.20413 24.1132 2.13075C24.0286 2.05737 23.9293 2.00315 23.822 1.97178C23.1011 1.93311 22.3032 1.99111 21.4285 1.99111ZM39.0577 4.98744C39.9228 4.98744 40.663 4.98744 41.4031 4.98744C41.6284 4.97452 41.8538 5.01008 42.0643 5.09176C42.2749 5.17343 42.4656 5.29933 42.6239 5.46105C45.969 8.6378 49.3237 11.8049 52.6881 14.9623L55.4372 17.5333L57.1002 15.9482L56.7445 15.5229L45.9113 4.64914C44.5485 3.20824 42.7171 2.30634 40.7495 2.1071C40.6585 2.09941 40.567 2.11284 40.482 2.14635C40.397 2.17987 40.3208 2.23258 40.2592 2.30041C39.8459 3.16064 39.4422 4.03054 39.0577 4.98744ZM20.9094 28.8711H38.6828V25.9714H20.9094V28.8711ZM25.7156 16.9051H33.0019L34.4533 10.9994H25.0235L25.7156 16.9051ZM54.0242 18.9735C49.846 15.0493 45.6806 11.1251 41.5281 7.20085C41.3786 7.06929 41.1883 6.99411 40.9898 6.98821C40.1823 6.98821 39.3749 6.98821 38.5674 6.98821C38.4749 6.99501 38.3848 7.02185 38.3036 7.0669C38.2223 7.11194 38.1516 7.17412 38.0964 7.24918C37.7985 7.82911 37.5581 8.43805 37.2698 9.08564C38.7116 9.68491 40.1535 10.2358 41.5185 10.8641C42.0651 11.1063 42.5709 11.4323 43.018 11.8307C44.7002 13.3095 46.3727 14.8657 48.0934 16.4315L52.5727 20.52L54.0242 18.9735ZM34.5206 34.5061C34.0688 33.3656 33.6363 32.254 33.1653 31.1618C33.1227 31.0907 33.0639 31.0307 32.9937 30.987C32.9234 30.9433 32.8439 30.9171 32.7615 30.9105C30.807 30.9234 28.8461 30.9298 26.8787 30.9298C26.7346 30.9298 26.5135 30.9975 26.475 31.0941C25.9944 32.2347 25.5138 33.3849 25.0908 34.5254C26.6096 35.492 28.0611 36.5262 29.5318 37.4928C29.607 37.5281 29.689 37.5465 29.7721 37.5465C29.8551 37.5465 29.9372 37.5281 30.0124 37.4928C31.5119 36.5359 33.0019 35.5307 34.5206 34.5061ZM32.7135 23.903V18.9929H25.8694V23.903H32.7135ZM40.7014 18.6449C40.7014 16.9051 40.6437 15.2619 40.7014 13.6285C40.7317 13.4751 40.7306 13.3171 40.6981 13.1642C40.6656 13.0112 40.6024 12.8666 40.5125 12.739C40.4225 12.6115 40.3076 12.5037 40.1748 12.4223C40.042 12.3409 39.8941 12.2876 39.7402 12.2656C38.6347 11.8983 37.5774 11.415 36.4719 10.9801L34.9916 17.2047L40.7014 18.6449ZM23.0145 11.3184C21.6976 11.7533 20.4673 12.1593 19.2465 12.5942C19.1629 12.6309 19.0889 12.6867 19.0305 12.7572C18.9721 12.8277 18.9308 12.9109 18.91 13.0002C18.91 14.8463 18.91 16.6924 18.91 18.6062L23.7162 17.2047L23.0145 11.3184ZM40.3169 20.636L34.7802 19.2442V23.932C36.1259 23.932 37.4236 23.932 38.7212 23.932C38.8022 23.9211 38.8794 23.8909 38.9463 23.8438C39.0133 23.7967 39.0679 23.7341 39.1057 23.6613C39.5479 22.6658 39.9228 21.6895 40.3457 20.636H40.3169ZM19.2561 20.607C19.6694 21.6412 20.0443 22.6271 20.448 23.5937C20.5057 23.729 20.6499 23.9126 20.7556 23.9126C21.7842 23.9126 22.8031 23.9126 23.8124 23.9126V19.3311L19.2561 20.607Z" fill="black"/>
<path d="M37.1068 49.3429C36.8519 49.3519 36.6038 49.2586 36.4172 49.0837C36.2307 48.9088 36.1208 48.6665 36.1119 48.4102C36.103 48.1538 36.1957 47.9044 36.3697 47.7168C36.5436 47.5292 36.7846 47.4187 37.0395 47.4098C37.1657 47.4053 37.2916 47.4259 37.4099 47.4704C37.5282 47.5149 37.6367 47.5823 37.7291 47.669C37.8215 47.7556 37.896 47.8596 37.9484 47.9752C38.0007 48.0908 38.03 48.2156 38.0344 48.3425C38.0388 48.4694 38.0183 48.596 37.9741 48.715C37.9299 48.8339 37.8628 48.943 37.7767 49.0359C37.6905 49.1288 37.587 49.2037 37.4721 49.2564C37.3572 49.309 37.233 49.3384 37.1068 49.3429Z" fill="black"/>
</svg>
