<svg width="32" height="33" viewBox="0 0 32 33" fill="none" xmlns="http://www.w3.org/2000/svg">
<path d="M19.5948 7.72673C19.2785 6.85043 18.9623 6.04862 18.6638 5.21614C18.5168 4.81304 18.4054 4.3968 18.2495 3.9937C18.1505 3.54642 18.2224 3.07893 18.4516 2.68052C18.6808 2.2821 19.0512 1.98068 19.492 1.83381C19.9327 1.68694 20.4131 1.70492 20.8413 1.88431C21.2695 2.0637 21.6154 2.39193 21.8132 2.80632C22.2943 4.00685 22.7397 5.22052 23.1986 6.42543C23.4658 7.12209 23.7331 7.80998 23.9915 8.50664C24.1231 8.79888 24.1808 9.11818 24.1594 9.43714C24.138 9.7561 24.0383 10.0652 23.8688 10.3379C23.6993 10.6106 23.465 10.8389 23.1861 11.003C22.9072 11.1671 22.592 11.2622 22.2676 11.2801C21.0648 11.4335 19.8576 11.5693 18.6504 11.7183C17.9867 11.7928 17.7862 12.0118 17.7595 12.6691C17.7595 14.0186 17.7595 15.3724 17.7194 16.7263C17.6608 18.0555 17.811 19.3856 18.1649 20.6697C18.2228 20.8975 18.2718 21.1297 18.3342 21.4058C18.4767 21.3269 18.5881 21.2699 18.695 21.1998L21.0871 19.7145C21.3216 19.5515 21.5871 19.4367 21.8678 19.377C22.1484 19.3174 22.4384 19.314 22.7204 19.3672C23.0024 19.4204 23.2706 19.529 23.5089 19.6865C23.7472 19.8441 23.9507 20.0473 24.1073 20.2841C24.2671 20.522 24.3769 20.7889 24.43 21.0692C24.4832 21.3495 24.4787 21.6375 24.4168 21.916C24.355 22.1946 24.237 22.4581 24.0698 22.6911C23.9026 22.924 23.6897 23.1216 23.4436 23.2723C23.0872 23.5045 22.7308 23.7104 22.37 23.9558C22.3058 24.0063 22.2317 24.0434 22.1524 24.0647C22.073 24.086 21.9901 24.091 21.9087 24.0795C21.8272 24.068 21.7491 24.0402 21.679 23.9979C21.609 23.9555 21.5485 23.8994 21.5014 23.8331C21.4533 23.7668 21.4205 23.691 21.405 23.611C21.3895 23.531 21.3918 23.4486 21.4117 23.3696C21.4315 23.2905 21.4686 23.2166 21.5202 23.1529C21.5718 23.0892 21.6368 23.0373 21.7107 23.0006C22.0404 22.7772 22.3789 22.5625 22.713 22.3478C23.2921 21.9666 23.448 21.432 23.1317 20.9413C23.0543 20.8263 22.9529 20.7287 22.8343 20.655C22.7157 20.5813 22.5826 20.5332 22.4437 20.5137C22.3049 20.4943 22.1634 20.504 22.0286 20.5422C21.8938 20.5804 21.7688 20.6462 21.6617 20.7354C20.5926 21.4014 19.5324 22.0761 18.4633 22.7421C17.8798 23.1102 17.5011 22.9612 17.3541 22.304C17.1002 21.1823 16.8597 20.0606 16.6236 18.9434C16.5836 18.765 16.5642 18.5827 16.5657 18.4C16.5657 16.5218 16.5657 14.6422 16.5657 12.7611C16.5657 11.3721 17.2027 10.7105 18.6103 10.5703C19.8042 10.4433 20.998 10.2943 22.174 10.1322C22.2996 10.124 22.4216 10.0872 22.5302 10.0247C22.6389 9.96214 22.7312 9.87557 22.7999 9.77183C22.8687 9.66809 22.9119 9.55004 22.9262 9.42702C22.9405 9.304 22.9254 9.1794 22.8823 9.06309C22.1606 7.11332 21.4167 5.16794 20.655 3.22694C20.6222 3.13837 20.5713 3.05732 20.5055 2.98877C20.4398 2.92022 20.3604 2.8656 20.2724 2.82827C20.1844 2.79094 20.0896 2.77168 19.9938 2.77167C19.8979 2.77166 19.8031 2.79091 19.7151 2.82823C19.6247 2.86448 19.5427 2.91829 19.4739 2.98643C19.4052 3.05456 19.3511 3.13564 19.3149 3.2248C19.2788 3.31396 19.2612 3.40938 19.2634 3.50536C19.2656 3.60133 19.2874 3.69589 19.3275 3.78339C19.8057 5.09784 20.2867 6.41229 20.7708 7.72673C21.0425 8.46721 20.8644 8.73886 20.0804 8.83963C19.0558 8.97108 18.0402 9.18577 17.0111 9.24273C16.3356 9.25016 15.6619 9.17212 15.0066 9.01051C13.7816 8.76515 12.561 8.48473 11.3538 8.17803C11.003 8.0858 10.6793 7.91313 10.4094 7.67416C9.15665 6.42925 8.34448 4.82081 8.09305 3.08673C8.02624 2.74936 7.98169 2.40322 7.9416 2.05708C7.92113 1.80507 7.79992 1.57131 7.60453 1.40705C7.40914 1.24279 7.1555 1.16143 6.89922 1.18078C6.76576 1.18247 6.63427 1.21278 6.51393 1.26959C6.3936 1.3264 6.28731 1.40835 6.20249 1.50972C6.11766 1.61109 6.05635 1.72944 6.02281 1.85651C5.98927 1.98359 5.98432 2.11633 6.00831 2.24549C6.24722 3.35241 6.5446 4.44635 6.89922 5.52284C7.48811 7.23064 8.50544 8.76475 9.85707 9.9832C10.1533 10.2509 10.3865 10.5789 10.5404 10.9445C10.6943 11.31 10.7651 11.7042 10.748 12.0995C10.748 12.5069 10.748 12.9144 10.748 13.3219C10.7516 13.3998 10.7391 13.4777 10.7111 13.5507C10.6831 13.6237 10.6403 13.6903 10.5853 13.7465C10.5303 13.8026 10.4642 13.8472 10.391 13.8774C10.3179 13.9076 10.2393 13.9228 10.16 13.9222C10.0012 13.9153 9.8517 13.847 9.74403 13.732C9.63635 13.6171 9.57931 13.4649 9.58534 13.3088C9.58637 12.7716 9.55812 12.2349 9.5007 11.7007C9.45583 11.3944 9.31218 11.1102 9.09088 10.8902C6.99277 9.01489 5.84794 6.6226 5.13966 3.98932C5.00157 3.48107 4.90357 2.96405 4.80111 2.44704C4.74687 2.16027 4.75532 1.86543 4.8259 1.58213C4.89647 1.29882 5.02756 1.03354 5.21044 0.803927C5.39332 0.57431 5.62381 0.38562 5.88657 0.250401C6.14933 0.115183 6.43835 0.0365355 6.7344 0.0196886C7.01544 -0.018812 7.3015 -0.000722381 7.57521 0.0728587C7.84892 0.14644 8.10456 0.273977 8.32662 0.447724C8.54867 0.62147 8.73251 0.8378 8.86695 1.08358C9.00139 1.32935 9.08364 1.59944 9.1087 1.87744C9.23196 3.4214 9.76496 4.90653 10.6544 6.18445C11.1756 6.92054 11.9017 7.13085 12.7169 7.29297C13.8484 7.51642 14.9442 7.84941 16.0935 8.02029C16.7547 8.07256 17.4197 8.05051 18.0758 7.95457C18.5569 7.91076 19.0335 7.80998 19.5948 7.72673Z" fill="white"/>
<path d="M10.7879 16.7701C10.9616 17.8567 10.5251 18.8381 10.2444 19.8371C9.50943 22.5098 9.38025 25.1869 10.2801 27.8552C10.6051 28.8094 11.0736 29.7103 11.6699 30.528C11.742 30.6425 11.8367 30.7416 11.9484 30.8195C12.0601 30.8974 12.1866 30.9524 12.3203 30.9814C12.454 31.0104 12.5923 31.0128 12.727 30.9883C12.8616 30.9639 12.9899 30.9131 13.1043 30.839C13.2271 30.7723 13.3354 30.6824 13.4228 30.5743C13.5101 30.4663 13.575 30.3424 13.6135 30.2096C13.652 30.0769 13.6634 29.9379 13.6471 29.8008C13.6308 29.6637 13.5871 29.5311 13.5186 29.4107C13.0141 28.4471 12.5606 27.4585 12.1599 26.4488C11.4374 24.4849 11.4123 22.3382 12.0886 20.3585C12.16 20.1375 12.2764 19.933 12.4306 19.7577C12.5849 19.5823 12.7739 19.4396 12.986 19.3384C13.1981 19.2371 13.429 19.1794 13.6645 19.1687C13.9001 19.158 14.1353 19.1946 14.356 19.2763C14.6218 19.3696 14.8572 19.5314 15.0374 19.745C15.2177 19.9585 15.3362 20.2158 15.3806 20.49C15.6122 21.7606 15.826 23.0312 16.0399 24.3062C16.2314 25.4761 17.1936 25.9099 18.2092 25.257C18.6547 24.9635 19.1002 24.6655 19.5813 24.3807C19.9644 24.1397 20.3074 24.1836 20.5078 24.4903C20.5504 24.5628 20.5772 24.6433 20.5865 24.7265C20.5958 24.8098 20.5875 24.8941 20.5619 24.974C20.5364 25.0539 20.4942 25.1278 20.4381 25.1908C20.382 25.2539 20.3132 25.3048 20.2361 25.3403C19.6971 25.6908 19.1625 26.0413 18.6146 26.3743C18.2582 26.59 17.8516 26.7127 17.4335 26.7307C17.0154 26.7487 16.5995 26.6614 16.2253 26.4772C15.851 26.2929 15.5308 26.0177 15.2949 25.6777C15.059 25.3377 14.9152 24.944 14.8772 24.5341C14.7079 23.2941 14.4318 22.0629 14.2402 20.8273C14.1957 20.5601 14.0887 20.3892 13.7947 20.341C13.6723 20.3256 13.5483 20.3551 13.4465 20.4237C13.3446 20.4924 13.272 20.5955 13.2424 20.7134C12.9087 21.5769 12.7571 22.4982 12.7969 23.4212C12.8676 25.3061 13.4389 27.14 14.454 28.7403C14.7468 29.1949 14.8629 29.7381 14.781 30.2702C14.6992 30.8022 14.4249 31.2874 14.0086 31.6365C13.774 31.8422 13.4978 31.9967 13.1981 32.09C12.8985 32.1832 12.5822 32.213 12.27 32.1774C11.9578 32.1418 11.6568 32.0416 11.3868 31.8835C11.1167 31.7253 10.8838 31.5127 10.7033 31.2597C9.39033 29.4479 8.61883 27.311 8.47597 25.0905C8.33849 22.8181 8.6719 20.5418 9.45598 18.4C9.55251 18.0917 9.60498 17.7717 9.61189 17.4492C9.63862 16.8884 9.61189 16.3232 9.61189 15.7623C9.61189 15.3242 9.82571 15.0657 10.2088 15.0744C10.5919 15.0832 10.7834 15.3329 10.7879 15.7711V16.7745V16.7701Z" fill="white"/>
<path d="M14.2983 0.409442C14.7377 0.399846 15.1746 0.47798 15.5825 0.639121C15.9903 0.800263 16.3608 1.04107 16.6714 1.34699C16.982 1.6529 17.2263 2.01758 17.3896 2.41899C17.5529 2.82039 17.6317 3.25019 17.6214 3.68242C17.6214 4.55046 17.2708 5.38296 16.6468 5.99676C16.0227 6.61056 15.1763 6.95539 14.2938 6.95539C13.4113 6.95539 12.5649 6.61056 11.9409 5.99676C11.3168 5.38296 10.9662 4.55046 10.9662 3.68242C10.9558 3.24944 11.035 2.81889 11.1988 2.41689C11.3626 2.01488 11.6078 1.64979 11.9193 1.34375C12.2309 1.03771 12.6024 0.797092 13.0113 0.636489C13.4203 0.475885 13.8581 0.398642 14.2983 0.409442ZM14.2983 5.75048C14.8642 5.75048 15.4069 5.52936 15.8071 5.13578C16.2072 4.74219 16.432 4.20837 16.432 3.65175C16.432 3.09513 16.2072 2.56131 15.8071 2.16772C15.4069 1.77413 14.8642 1.55301 14.2983 1.55301C13.7324 1.55301 13.1896 1.77413 12.7895 2.16772C12.3893 2.56131 12.1645 3.09513 12.1645 3.65175C12.1645 4.20837 12.3893 4.74219 12.7895 5.13578C13.1896 5.52936 13.7324 5.75048 14.2983 5.75048Z" fill="white"/>
<path d="M3.82112 15.6923C3.82112 16.2795 3.82112 16.779 3.82112 17.2741C3.82112 18.0145 3.84339 18.7638 3.75875 19.4955C3.64739 20.4726 2.55601 21.0991 1.48691 20.8757C1.24491 20.841 1.01307 20.7564 0.806564 20.6276C0.60006 20.4987 0.423546 20.3284 0.288569 20.1278C0.153591 19.9272 0.063192 19.7009 0.0232853 19.4635C-0.0166213 19.2262 -0.00513619 18.9833 0.0569893 18.7506C0.215142 18.3071 0.530534 17.9345 0.945344 17.7011C1.36015 17.4677 1.84659 17.3892 2.31547 17.48L2.62283 17.5457V14.6364C2.60427 14.5049 2.62775 14.3711 2.69 14.2533C2.75226 14.1355 2.85021 14.0397 2.97029 13.9792C3.09379 13.926 3.23089 13.9114 3.36311 13.9373C3.49533 13.9631 3.61631 14.0282 3.70975 14.1238C4.15521 14.4918 4.64967 14.8467 5.11295 15.2148C5.48268 15.5039 5.55841 15.8194 5.32677 16.0911C5.09513 16.3627 4.73876 16.3802 4.36012 16.0911L3.82112 15.6923ZM1.90119 19.7584C2.31992 19.7584 2.60947 19.5305 2.61838 19.2019C2.6137 19.1151 2.59069 19.0301 2.55082 18.9525C2.51095 18.8749 2.45509 18.8063 2.38679 18.7511C2.31849 18.6958 2.23925 18.6552 2.15412 18.6318C2.06898 18.6083 1.97981 18.6025 1.89228 18.6148C1.48246 18.6148 1.19291 18.8645 1.19736 19.1932C1.20182 19.5218 1.48691 19.754 1.90119 19.7584Z" fill="white"/>
<path d="M28.6865 10.9864C28.6865 10.0225 28.6865 9.08044 28.6865 8.13403C28.6865 7.82733 28.731 7.55568 29.0429 7.41547C29.1737 7.36588 29.3169 7.35693 29.4531 7.38984C29.5893 7.42274 29.712 7.49591 29.8046 7.59949C30.2501 7.96754 30.7445 8.32244 31.2078 8.69048C31.2822 8.733 31.3464 8.79083 31.396 8.86003C31.4455 8.92922 31.4793 9.00814 31.4949 9.09138C31.5106 9.17461 31.5078 9.26019 31.4867 9.34224C31.4655 9.4243 31.4266 9.5009 31.3726 9.56678C31.317 9.62765 31.2495 9.67687 31.1741 9.71149C31.0987 9.74611 31.0169 9.76543 30.9338 9.7683C30.8506 9.77116 30.7677 9.75751 30.69 9.72815C30.6124 9.6988 30.5415 9.65435 30.4817 9.59745L29.8402 9.12425V9.5624C29.8402 10.5921 29.8402 11.6217 29.8402 12.6294C29.7994 13.1026 29.5772 13.5429 29.2186 13.8609C28.86 14.1789 28.3919 14.3508 27.9092 14.3419C27.4265 14.333 26.9653 14.1439 26.6191 13.8128C26.2729 13.4818 26.0676 13.0337 26.0449 12.5593C26.0891 12.0769 26.3257 11.6313 26.7031 11.3201C27.0804 11.0089 27.5677 10.8574 28.0584 10.8988C28.2499 10.9075 28.4415 10.9513 28.6865 10.9864ZM27.9426 12.0642C27.7704 12.0495 27.5993 12.1019 27.466 12.2101C27.3327 12.3182 27.2479 12.4735 27.2298 12.6426C27.2543 12.8103 27.3432 12.9625 27.4783 13.0676C27.6134 13.1728 27.7843 13.223 27.9559 13.2078C28.0442 13.2168 28.1334 13.2084 28.2183 13.1829C28.3032 13.1574 28.382 13.1155 28.4502 13.0595C28.5183 13.0035 28.5743 12.9347 28.6149 12.8571C28.6555 12.7794 28.6798 12.6946 28.6865 12.6075C28.6559 12.4409 28.562 12.292 28.4238 12.1911C28.2856 12.0902 28.1136 12.0448 27.9426 12.0642Z" fill="white"/>
<path d="M29.7023 2.77105C29.3517 2.8921 29.0336 3.08986 28.772 3.34943C28.5105 3.60901 28.3122 3.92361 28.1922 4.26952C28.0642 3.9272 27.8608 3.61694 27.5967 3.36092C27.3326 3.10491 27.0142 2.90946 26.6643 2.78857C27.0103 2.6684 27.3244 2.47332 27.5834 2.21776C27.8425 1.96219 28.0399 1.65266 28.161 1.31201C28.2932 1.65163 28.4999 1.95843 28.7663 2.21061C29.0326 2.46278 29.3522 2.65413 29.7023 2.77105Z" fill="white"/>
<path d="M0.315186 3.65176C0.546413 3.54138 0.764527 3.40619 0.965556 3.24867C1.09735 3.08771 1.20534 2.90922 1.28629 2.71851L2.29302 3.70872C2.0661 3.78596 1.86243 3.91784 1.7006 4.09232C1.53876 4.26681 1.42389 4.47837 1.36647 4.7077C1.25321 4.46798 1.11274 4.24162 0.947737 4.03295C0.752819 3.88192 0.540509 3.75398 0.315186 3.65176Z" fill="white"/>
<path d="M27.9426 23.4607C27.7209 23.5409 27.5197 23.668 27.3535 23.833C27.1872 23.9981 27.0598 24.197 26.9804 24.4158L26.0271 23.4694L26.9715 22.5537C27.0515 22.7682 27.1808 22.9616 27.3492 23.1189C27.5176 23.2762 27.7207 23.3931 27.9426 23.4607Z" fill="white"/>
<path d="M6.56515 27.9255L5.67423 28.8018L4.73877 27.8729C4.94782 27.8078 5.13789 27.6942 5.29294 27.5417C5.448 27.3891 5.56349 27.2022 5.62969 26.9966L6.56515 27.9255Z" fill="white"/>
</svg>
