<svg width="172" height="19" viewBox="0 0 172 19" fill="none" xmlns="http://www.w3.org/2000/svg">
<path d="M0.00893961 17.211C6.23377 16.0274 13.4321 16.3888 19.7909 16.2171C24.2206 16.0906 28.1234 16.2171 32.044 13.7685C35.277 11.7446 39.7603 10.3622 43.4845 9.74778C48.1732 8.97074 52.8084 8.88942 56.7647 11.8078L57.3453 12.2415C59.1047 11.4374 60.2925 9.77489 61.8018 8.60029C63.972 6.91971 67.3657 5.51923 70.0093 4.91386C75.7518 3.60373 81.0657 4.71508 85.9598 7.89553L89.5054 4.86869C101.241 -3.86851 114.798 0.134151 124.899 9.13338C125.926 10.0459 128.533 13.7414 129.4 14.1119C130.373 14.5275 137.295 13.6149 139.027 13.7053C147.226 14.148 155.487 15.7021 163.605 16.8857L171.652 18.2049L172 18.9096L126.488 19L40.3498 18.4488L11.1904 17.8887C7.63594 17.7712 3.43839 18.1416 0 17.22L0.00893961 17.211Z" fill="#FCDC91"/>
</svg>
