<svg width="208" height="26" viewBox="0 0 208 26" fill="none" xmlns="http://www.w3.org/2000/svg">
<path d="M0 23.672C12.1235 23.091 24.4621 20.8499 36.5946 19.6694L45.7679 18.8671C46.6736 18.821 48.5297 19.0331 49.2919 18.7287C50.3232 18.3229 51.7489 16.8105 52.7622 16.1557C55.4972 14.3665 59.4606 13.5918 62.6618 13.3151C66.3383 12.9924 69.9969 13.9238 73.3416 15.4363C79.0088 6.85942 85.3485 2.94909 95.284 0.957037C105.641 -1.12724 118.177 0.0163437 127.054 6.14006C131.107 8.93447 133.977 12.5589 136.667 16.6813C138.496 15.7499 140.46 14.6893 142.522 14.4956C151.068 13.6933 161.111 16.128 169.477 17.7512L208 25.7655C203.49 26.5494 197.293 25.1291 192.532 24.9816L162.932 24.8432L54.6542 24.8617L0.771168 24.5389L0.00896727 23.672H0Z" fill="#FCFAAA"/>
</svg>
