<svg width="126" height="21" viewBox="0 0 126 21" fill="none" xmlns="http://www.w3.org/2000/svg">
<path d="M32.1328 12.1003C34.4428 11.5603 36.6028 12.8003 38.9328 12.6703C43.0628 12.4303 46.9128 10.2703 51.1128 10.0803C54.6128 9.9203 57.7328 11.7303 61.1228 12.1403C64.2428 12.5203 67.7028 11.9103 70.8828 11.9403C77.2728 16.3703 87.9628 14.9003 95.4428 14.0803L95.7928 13.7603C98.7328 15.1703 119.333 13.6003 125.993 15.3803C117.843 15.7703 109.753 16.1803 102.143 19.3503C101.553 18.7103 100.873 18.0803 100.113 17.6403C94.2728 14.2703 86.5528 17.1103 80.7028 18.8503C80.4628 18.7403 80.2128 18.6403 79.9728 18.5503C74.7628 16.6403 69.2328 17.7803 64.3428 20.0803C62.4128 18.2803 60.3828 16.6903 57.9628 15.6103C51.7428 12.8203 46.4028 15.0803 40.4428 17.3003C37.8328 14.9803 35.5228 13.1803 32.1428 12.0903L32.1328 12.1003Z" fill="#69D4E0"/>
<path d="M43.47 8.29986C46.66 5.01986 47.86 5.26986 52.15 4.33986C52.41 4.27986 53.21 4.19987 53.41 4.05987C54.31 3.44987 55.06 1.92986 55.98 1.18986C57.29 0.129863 59.54 -0.150136 61.17 0.0698644C65.92 0.699864 69.27 4.12986 72.08 7.70986C75.55 6.90986 79.86 6.31986 83.19 7.90986C84.77 8.65986 86.12 10.0899 86.68 11.7599L89.43 11.9499C91.46 12.0999 94.37 12.1199 95.78 13.7499L95.43 14.0699C87.94 14.8999 77.25 16.3599 70.87 11.9299C67.7 11.8999 64.23 12.5099 61.11 12.1299C57.72 11.7199 54.59 9.89986 51.1 10.0699C46.9 10.2699 43.05 12.4199 38.92 12.6599C36.59 12.7999 34.43 11.5499 32.12 12.0899C25.39 13.3399 18.32 15.0299 11.46 15.1799C7.83001 14.0699 3.6 16.1799 0 15.2399L1.25 14.6699C3.28 13.7899 15.9 12.7999 19.26 12.2699C25.6 11.2599 28.75 8.92986 34.39 7.26987C37.86 6.24987 40.33 6.59986 43.47 8.29986Z" fill="#C5EFF4"/>
</svg>
