<svg width="438" height="300" viewBox="0 0 438 300" fill="none" xmlns="http://www.w3.org/2000/svg">
<path d="M23.078 7.09333C30.268 -1.72667 41.348 -1.44668 49.498 8.40332C52.508 12.0433 53.788 12.1133 57.568 9.28333C73.228 -2.43667 93.088 5.92333 97.268 25.6333C97.838 28.3033 97.228 32.1933 98.798 33.4233C100.558 34.7933 103.788 32.2833 106.358 31.4933C111.468 29.9233 116.548 32.5033 121.578 31.1633C123.438 34.8233 127.658 35.9633 130.028 39.2033C132.958 43.2033 134.918 47.4533 135.328 52.3933C135.448 53.8633 135.488 55.3333 135.598 57.3533C138.968 55.2533 141.828 53.1933 145.318 52.2933C156.218 49.4833 165.768 55.8633 166.888 66.9833C167.098 69.1033 167.308 69.8033 169.748 69.1033C175.878 67.3533 179.588 69.7833 180.558 76.1133C180.868 78.1233 181.368 79.3533 183.358 80.0533C184.298 80.3833 185.278 81.2933 185.738 82.2033C187.428 85.4933 190.558 84.8433 192.698 83.9833C195.058 83.0333 197.088 81.2833 199.848 81.2733C200.808 81.2733 201.158 80.6433 201.428 79.7333C203.038 74.1733 205.188 72.5133 210.898 72.2833C211.998 72.2433 213.118 72.2033 214.188 72.3833C216.088 72.7133 217.158 73.0233 216.668 70.1233C215.858 65.3333 218.858 62.0633 222.568 59.6233C230.388 54.4633 239.168 54.3133 248.038 55.3133C251.018 55.6533 254.258 57.8433 256.748 57.0933C259.598 56.2433 257.368 52.1233 258.608 49.5333C261.278 43.9333 268.448 40.0833 276.108 41.5333C279.838 42.2433 281.258 41.5333 282.468 37.9133C284.238 32.6433 288.568 29.2333 293.078 26.2033C309.158 15.4033 331.028 15.7733 344.678 27.0933C346.688 28.7633 348.648 30.5033 349.988 32.7933C352.148 37.4933 352.398 42.2933 350.588 47.1533C348.858 51.7933 345.858 52.6733 342.188 49.3833C335.218 43.1433 326.928 39.8633 317.808 39.8433C304.458 39.8133 292.938 47.7733 290.088 61.5833C289.008 66.7933 288.808 67.1133 283.568 67.6433C278.118 68.2033 276.358 69.6733 274.998 74.8233C274.098 78.2333 272.068 79.5233 268.578 78.6733C266.048 78.0633 263.588 77.1833 261.128 76.3433C250.868 74.9833 240.878 76.5733 230.968 79.0333C230.168 79.2333 229.218 79.2633 228.638 79.7933C224.238 83.8133 218.458 83.3733 213.228 84.6433C209.648 85.5133 206.128 86.0833 202.818 88.1533C200.098 89.8533 196.458 89.5933 193.198 89.8233C190.328 90.0333 187.448 90.1233 184.598 90.4733C181.548 89.6033 178.948 88.2933 176.658 85.7933C173.778 82.6533 169.268 83.3533 165.418 82.5833C163.948 82.2933 162.398 82.3733 160.888 82.4833C156.398 82.8133 153.338 81.4133 151.798 76.7033C150.468 72.6233 146.478 70.7033 142.228 71.2933C138.528 71.8033 134.958 72.8033 131.578 74.3933C129.508 75.3633 127.578 75.3433 125.788 73.9133C121.038 70.1233 115.848 69.8833 110.228 71.6133C105.448 73.0733 104.358 72.0533 104.558 67.0033C104.858 59.4033 101.288 56.0833 93.798 56.8133C88.878 57.2933 84.918 59.4233 81.728 63.1633C80.638 64.4433 79.718 66.7833 77.608 65.6133C75.508 64.4533 76.298 62.1033 77.008 60.3833C78.678 56.3233 78.038 52.2833 77.298 48.2233C76.148 41.8633 72.538 37.3533 66.458 35.3333C60.818 33.4633 55.958 35.6733 51.738 39.4833C45.038 45.5433 45.078 45.5333 40.348 37.8933C37.718 33.6533 34.678 30.3433 28.818 30.9733C24.758 31.4133 21.148 27.4533 20.658 22.6933C20.108 17.3233 20.058 11.9533 23.078 7.11331V7.09333Z" fill="#FDFDFD"/>
<path d="M437.49 93.721C437.26 94.581 437.02 95.441 436.79 96.291C424.09 95.751 411.73 98.811 399.18 99.881C392.5 100.451 385.84 101.301 379.18 102.071C378.25 102.181 377.36 102.561 376.45 102.821C354.51 104.631 332.53 103.511 310.57 103.631C276.09 103.831 241.61 103.641 207.13 103.661C203.82 103.661 200.55 103.561 197.31 102.811C196.07 101.801 193.77 101.551 194.61 99.051C195.4 97.561 196.87 97.201 198.33 96.741C202.78 95.351 207.23 93.691 211.9 93.531C218.68 93.311 223.69 88.861 229.65 86.731C230.42 86.461 231.09 85.871 231.86 85.661C235.21 84.721 238.2 83.291 240.18 80.251C245.37 78.391 250.76 78.331 256.16 78.591C257.68 78.661 259.02 79.321 260.21 80.251C261.34 82.321 262.92 83.901 264.98 85.131C268.92 87.491 271.54 87.271 274.96 84.221C280.85 78.961 287.52 76.661 295.43 78.821C298.26 79.591 300.35 81.281 302.03 83.461C303.58 85.451 304.79 85.561 306.69 83.881C313.59 77.791 320.88 72.251 329.41 68.511C338.46 64.541 347.63 61.631 357.68 63.931C361.25 67.111 362.95 71.511 364.95 75.641C366.48 78.811 368.44 80.181 371.96 79.821C376.54 79.351 380.85 80.721 384.07 81.941C380.5 80.451 375.75 79.401 370.78 79.801C368.25 80.001 366.54 79.111 365.63 76.731C364.35 73.411 361.92 70.681 360.76 67.291C361.69 64.421 363.49 61.991 365.11 59.551C367.57 55.841 374.23 55.381 377.98 58.131C379.65 59.351 380.5 61.351 382.32 62.381C384.05 65.101 383.95 68.141 383.78 71.161C383.69 72.781 383.72 73.471 385.86 73.461C391.17 73.431 396.73 73.141 399.92 78.931C400.68 80.311 402.43 79.801 403.75 79.751C409.43 79.531 415.01 79.961 420.33 82.151C421.6 82.671 422.89 83.161 424.08 83.831C425.63 84.711 427.4 85.671 427.41 87.691C427.42 89.951 424.88 89.321 423.56 90.531C425.57 91.311 428.72 88.481 429.44 92.431C429.64 92.371 429.93 92.381 430.02 92.251C433.63 87.081 435.04 93.051 437.48 93.721H437.49Z" fill="#79DBFD"/>
<path d="M23.0781 7.09375C22.4581 11.5837 21.9981 16.0837 22.2481 20.6237C22.5881 26.7937 24.9681 28.8438 31.0381 28.8138C36.6181 28.7838 39.3481 32.9138 42.1081 36.9538C43.3881 38.8338 43.1781 42.3138 45.4981 42.5338C46.8881 42.6638 48.5081 39.7338 50.0881 38.2538C55.0281 33.6338 60.7881 31.2837 67.4281 33.5237C74.4281 35.8837 78.0581 41.2338 79.3781 48.4738C80.3981 54.0238 80.1081 59.3338 77.8181 64.6638C81.7081 59.3938 86.2881 55.7038 92.8781 54.8838C102.878 53.6438 107.788 58.5638 106.258 68.5138C106.158 69.1538 106.048 69.7938 105.888 70.8138C108.588 70.1238 110.918 69.4938 113.258 68.9438C118.278 67.7638 122.838 68.8238 126.668 72.2338C128.188 73.5838 129.298 73.5838 130.998 72.6338C133.758 71.0838 136.798 70.2338 139.948 69.7038C148.018 68.3338 151.688 70.3138 154.338 78.0638C155.118 80.3438 156.598 80.5538 158.448 80.5138C163.268 80.4138 168.048 80.7837 172.788 81.6837C175.418 82.1837 177.908 82.9337 179.158 85.6237C180.168 87.7937 182.388 87.9738 184.218 88.7938C183.428 92.0238 185.538 95.5737 183.128 98.6237C174.478 98.7337 166.048 99.5538 158.118 93.7938C148.968 87.1538 138.398 87.8138 128.168 91.8138C122.808 93.9137 117.728 96.5038 111.638 95.7238C108.398 95.3038 106.168 94.6738 105.988 90.7638C105.848 87.6638 103.958 86.5338 100.868 87.0638C98.8181 87.4137 96.9981 88.4638 95.0681 89.1738C92.5981 90.0838 90.5381 89.5038 89.8781 86.8238C87.2881 76.2938 77.3981 75.9738 70.0281 79.2538C66.5081 80.8238 63.6181 81.3137 60.8581 77.9637C59.4781 76.2837 57.3681 76.0837 55.1881 76.1237C51.5481 76.1837 50.2881 74.5238 50.9781 70.8938C51.5181 68.0738 52.5981 65.3538 52.5281 62.4138C52.3881 56.7738 48.8981 54.4437 43.6881 56.6237C39.2081 58.4937 36.6281 62.0638 34.9681 66.5138C33.0681 71.6138 32.9881 71.5838 27.7481 70.0438C27.2181 69.8838 26.6481 69.7738 26.1181 69.8138C20.5781 70.1438 15.1881 70.0638 11.3981 65.0338C8.79808 63.5638 5.91809 64.3437 3.18809 63.9937C4.36809 63.2937 6.24808 63.3237 4.17808 60.9937C1.82808 58.3537 3.2481 52.0438 6.3881 48.4738C11.0181 43.2138 16.9981 41.4837 23.7981 42.0837C24.8681 42.1737 25.9181 42.3838 28.0081 42.6938C26.0281 40.4338 24.5981 38.8938 23.2681 37.2838C15.2181 27.5438 15.1381 14.9037 23.0481 7.12375L23.0781 7.09375Z" fill="#AFDAF7"/>
<path d="M11.44 64.9909C12.66 63.9209 13.66 64.7209 14.15 65.6709C15.95 69.1709 18.99 69.2609 22.27 68.9809C23.36 68.8909 24.61 68.6309 25.55 69.0209C31.14 71.3209 32.74 68.2309 34.25 63.5609C35.91 58.4309 40 55.3209 45.32 54.0409C50.5 52.8009 54.15 55.6009 54.52 61.0009C54.77 64.6609 53.84 68.0909 52.73 71.4909C51.99 73.7709 52.16 75.0209 55.06 74.2809C58.35 73.4409 61.17 74.4909 62.97 77.2909C64.26 79.3109 65.47 79.3909 67.33 78.3009C70.86 76.2409 74.67 75.4409 78.79 75.5709C85.49 75.7809 89.76 78.6909 91.26 85.3009C91.98 88.4909 93.01 88.2709 95.3 87.0609C97.1 86.1109 99.08 85.3309 101.07 84.9409C105.51 84.0609 108.33 86.4509 107.97 90.9609C107.78 93.3209 108.56 93.8609 110.62 93.8309C115.25 93.7709 119.62 93.6809 124.12 91.4109C134.49 86.1909 145.39 85.2809 156.32 90.2409C157.95 90.9809 159.56 91.8009 160.77 93.1609C162.85 95.5209 165.57 96.0709 168.55 96.3009C173.46 96.6809 178.36 97.3109 183.26 97.8409C186.57 95.6809 191.62 96.4809 194.8 99.6609C195.47 100.851 197.03 101.321 197.31 102.811C148.42 102.841 99.54 102.861 50.65 102.891C35.41 102.891 20.16 102.911 4.92001 102.911C2.89001 102.911 0.63 103.271 0 100.431C9.69 100.131 19.39 99.9109 29.07 99.4709C31.29 99.3709 34.37 100.051 34.61 96.2509C34.65 93.8709 36.27 93.8109 38.03 93.8509C39.43 93.8809 40.91 93.7909 41.42 92.1709C41.9 90.6409 41.07 89.3109 39.78 88.7809C37.38 87.7809 37.34 85.8909 37.17 83.7809C36.38 74.0709 28.41 68.3409 19 70.7909C17.1 71.2809 16.08 71.2009 15.06 69.3509C14.16 67.7209 12.66 66.4209 11.42 64.9809L11.44 64.9909Z" fill="#81BAEF"/>
<path d="M382.319 62.3835C381.019 64.5235 380.639 62.3635 380.149 61.8235C377.889 59.3435 375.239 58.1435 371.809 58.1935C368.829 58.2335 366.689 59.2934 365.739 62.0834C364.939 64.4434 363.339 65.9935 361.479 67.4235C358.489 66.6735 357.789 63.6535 356.039 61.7234C351.209 56.4235 345.539 54.6835 339.879 56.1035C345.999 54.4435 351.889 56.7035 356.609 62.4535C357.209 63.1835 358.079 63.8034 357.439 64.9334C339.469 63.8834 324.699 71.2335 311.399 82.4435C310.769 82.9734 310.199 83.5635 309.579 84.1035C307.719 85.7135 305.999 88.3235 303.929 88.6335C301.489 89.0035 301.529 85.2534 299.909 83.6234C294.239 77.9234 281.739 78.9134 276.179 85.7434C273.869 88.5834 268.939 90.0335 266.049 87.9435C263.729 86.2635 259.259 86.1634 259.969 81.5034C260.339 80.1834 258.859 79.2034 259.279 77.8734C259.479 76.4034 261.069 76.0535 261.689 74.9235C264.489 75.0335 266.989 76.2634 269.639 76.9634C271.489 77.4534 272.739 77.2935 273.149 74.9235C274.279 68.3335 276.999 65.7435 283.429 65.7635C287.009 65.7735 287.949 64.6334 288.289 61.1134C289.289 50.6234 299.399 40.6834 311.149 38.5934C323.399 36.4134 334.229 39.7135 343.429 48.1335C346.569 51.0135 347.039 50.9334 348.619 47.0034C350.479 42.3834 350.059 37.5634 349.999 32.7734C353.819 37.1134 356.199 42.1635 356.739 47.8935C357.049 51.1435 358.099 52.1134 361.529 51.8134C371.699 50.9334 378.799 54.7534 382.319 62.3734V62.3835Z" fill="#B4F0FC"/>
<path d="M123.367 28.0397C125.727 23.5797 129.327 20.7697 134.437 20.3197C141.497 19.7097 146.857 22.7197 150.837 28.6697C141.807 22.0997 132.797 18.9397 123.367 28.0297V28.0397Z" fill="#FDFDFD"/>
<path d="M255 26.7595C262.36 15.5895 278.56 14.4995 286.2 24.8495C275.16 16.5895 264.89 18.3395 255 26.7595Z" fill="#FDFDFD"/>
<path d="M357.442 64.9211C350.512 56.1411 347.172 55.2311 333.672 58.4311C341.512 52.2111 351.692 54.2411 358.612 63.4011C359.602 64.7111 360.532 66.0711 361.492 67.4111C364.672 74.7811 368.712 80.4411 378.272 79.6611C382.682 79.3011 386.852 82.0811 390.462 85.0711C383.452 81.5811 375.992 80.4511 368.302 80.4111C366.472 80.4011 365.812 78.9511 365.122 77.5811C362.892 73.1611 360.512 68.8311 357.442 64.9111V64.9211Z" fill="#E4F9F9"/>
<path d="M240.32 81.5796C235.72 81.5296 231.46 82.6296 227.68 85.4796C229.02 82.5196 231.67 81.5396 234.32 80.5696C242.66 77.4996 251.34 78.0496 259.97 78.1696C260.31 79.2796 262.79 80.3896 259.97 81.4996C253.41 78.3096 246.86 79.9096 240.32 81.5796Z" fill="#EBF8FB"/>
<path d="M29.2372 59.3971C23.3972 54.8271 17.1472 52.597 8.86719 56.037C15.7572 49.297 25.9672 51.3371 29.2372 59.3971Z" fill="#5CB9F1"/>
</svg>
