<svg width="184" height="41" viewBox="0 0 184 41" fill="none" xmlns="http://www.w3.org/2000/svg">
<path d="M72.232 34.2952C69.482 36.7752 69.3221 37.6452 71.3421 39.3452C81.6021 39.5352 91.872 39.6252 102.132 39.3052V39.2352C102.972 38.6852 103.972 38.5852 104.882 38.2652C106.582 37.6652 107.522 36.5752 107.722 34.7152C108.042 31.7852 109.892 30.9552 112.252 32.6852C113.532 33.6252 114.742 34.2152 116.272 33.4152C119.612 31.6652 122.992 31.8452 126.422 33.1352C127.402 33.5052 128.402 33.9252 129.492 33.8552C130.402 33.7952 131.532 33.6652 131.462 32.5352C131.402 31.4952 130.422 31.2152 129.402 31.4252C128.972 31.5152 128.492 31.9152 128.112 31.3252C128.112 30.8352 128.112 30.3452 128.112 29.8652C128.032 25.3752 124.862 23.2652 120.622 24.8352C119.892 25.1052 119.302 25.7752 118.282 25.6352C118.342 25.2152 118.382 24.8252 118.462 24.4452C119.782 17.8452 116.972 13.2552 110.432 11.6752C104.402 10.2152 99.192 11.9252 94.812 16.2652C92.552 18.5052 92.7321 21.2252 93.3321 24.0152C93.7387 25.9418 92.952 26.9618 90.972 27.0752C88.032 27.4052 85.022 27.2552 82.372 29.0652C81.492 29.6652 80.1521 29.3352 79.0221 29.3452C77.3621 29.3552 75.852 29.8552 74.382 30.5952C72.832 31.3752 72.072 32.5552 72.232 34.2952Z" fill="#FDFDFD"/>
<path d="M69.8669 6.46249C63.8169 -0.66751 53.5269 -2.08751 45.8169 3.15249C43.1569 4.96249 41.4369 7.30249 41.7469 10.6925C41.8469 11.8325 41.4269 11.9825 40.5069 11.6425C40.3569 11.5825 40.1969 11.5425 40.0369 11.5225C37.2169 11.1125 34.3769 10.9325 32.3969 13.4525C30.4469 15.9325 31.3269 18.5225 32.5769 21.0325C32.7169 21.3225 32.7869 21.6425 32.9369 22.0625C31.8869 22.3425 31.2069 21.6125 30.4369 21.3225C27.7369 20.2925 24.9569 19.6725 22.0769 19.8525C17.2869 20.1425 15.7669 23.0325 17.9169 27.7925C16.5369 28.0725 15.4269 27.1725 14.1569 27.0725C10.4369 26.8025 7.02689 27.4225 4.10689 29.9325C3.43689 30.5125 2.62691 30.9325 1.87691 31.4325C0.926908 32.1125 1.29688 32.9925 2.09688 32.9625C5.78688 32.8125 9.84692 34.6925 13.0769 32.4925C16.4569 30.1925 19.6869 30.4525 23.1969 31.1025C24.7769 31.3925 26.0469 31.0325 27.2169 29.9325C29.9869 27.3325 33.3069 25.9125 37.0969 25.6625C38.2969 25.5825 39.4069 25.2825 39.9769 24.1525C40.7769 22.5825 42.0969 22.2325 43.6569 22.3825C45.2369 22.5325 46.2669 21.9025 46.9869 20.4725C49.2169 16.0425 53.1169 14.0325 57.8169 13.5925C60.7969 13.3125 63.8269 13.3225 66.8269 13.8625C70.8569 14.5825 72.2269 12.8825 71.0369 8.87249C70.7769 7.99249 70.3569 7.22249 69.8569 6.48249L69.8669 6.46249Z" fill="#FDFDFD"/>
<path d="M72.2298 34.2891C74.2298 31.1091 77.2498 30.2291 80.7798 30.5291C82.1098 30.6391 83.3098 30.5491 84.3398 29.4591C85.0798 28.6791 86.1498 28.3491 87.2498 28.4691C88.7398 28.6291 89.9398 28.0791 90.9698 27.0691C90.5198 26.8691 90.0298 26.6291 89.9998 26.0991C89.9098 24.2091 88.6698 23.9791 87.1698 24.0391C86.1498 24.0791 85.2198 23.9291 85.0198 22.6591C84.9298 19.6691 84.0398 18.6291 81.1798 17.6791C80.0398 17.2991 78.7798 17.4791 77.7398 16.7991C75.6998 16.4391 73.7598 15.9791 73.7898 13.2891C72.2298 14.0691 72.5498 15.8191 71.8798 17.0691C71.1698 18.3891 70.6498 18.8491 69.0998 18.1091C63.2098 15.3191 59.3198 16.5791 55.0098 21.6191C53.1998 23.7391 49.8398 24.2691 48.4198 27.1691C48.1498 27.7191 46.7298 27.3391 45.8398 27.4191C42.9298 27.6991 40.2098 28.3491 38.5698 31.1291C38.0398 32.0291 37.7298 32.8991 38.5098 33.8191C48.7998 33.8491 59.0898 33.8691 69.3798 33.9091C70.3398 33.9091 71.3398 33.7091 72.2198 34.2891H72.2298Z" fill="#81BAEF"/>
<path d="M38.5191 33.8209C40.0891 29.6609 42.7391 28.1609 48.2791 28.5309C49.7291 28.6309 50.619 28.7709 50.559 26.7709C50.509 25.1409 51.7091 23.9909 53.4591 24.2109C54.6691 24.3609 55.169 23.9509 55.719 22.9809C58.889 17.4409 64.209 16.1609 69.559 19.7109C71.029 20.6909 71.749 20.9709 72.369 18.9009C72.919 17.0509 73.949 15.3309 73.789 13.3009C73.269 10.5709 71.849 8.35094 69.859 6.46094C69.989 7.10094 70.159 7.73094 70.249 8.37094C70.949 13.1509 70.759 13.1809 66.039 12.5609C61.689 11.9809 57.269 11.8209 53.049 13.5209C49.849 14.8109 47.279 16.8809 45.909 20.1209C45.469 21.1609 45.0391 21.4609 43.9391 21.2809C41.7191 20.9209 39.669 21.0309 38.909 23.7709C38.659 24.6609 37.7391 24.4909 37.0291 24.5209C32.8691 24.6909 29.299 26.2809 26.349 29.1709C25.409 30.0909 24.509 30.4209 23.309 29.9909C21.099 29.1909 18.5791 30.0909 16.4491 28.7209C15.9991 28.4309 15.2991 28.7709 15.2091 29.1809C14.7391 31.1509 12.7391 31.2209 11.5691 32.2909C11.0991 32.7209 10.5891 32.9209 10.0291 32.8109C7.60908 32.3509 5.17904 32.4409 2.73904 32.4709C2.05904 32.4709 1.61905 32.2409 1.87905 31.4409C1.05905 31.5809 0.429034 32.0409 0.609034 32.8909C0.849034 34.0609 1.91903 33.9109 2.78903 33.9209C9.67903 33.9409 16.5691 33.9509 23.4591 33.9309C28.4791 33.9309 33.5091 33.8709 38.5291 33.8409L38.5191 33.8209Z" fill="#AEDAF7"/>
<path d="M128.107 31.3198C128.707 32.2198 129.977 31.7598 130.737 32.6898C129.367 33.1298 128.197 32.5498 127.067 32.1398C123.077 30.6698 119.157 30.3298 115.367 32.6398C114.377 33.2498 113.887 32.6998 113.317 32.0998C112.047 30.7898 110.607 29.9898 108.747 30.7998C106.937 31.5898 106.217 32.9798 106.627 34.9298C106.837 35.9498 106.167 36.3798 105.427 36.7998C104.227 37.4798 102.987 38.0998 102.117 39.2298C103.087 39.2598 104.047 39.2898 105.017 39.3098C105.647 39.5698 106.307 39.4698 106.947 39.4698C120.787 39.4698 134.627 39.4798 148.467 39.4498C149.497 39.4498 151.297 40.0698 150.537 37.7498C148.047 35.3398 145.147 33.7498 141.667 33.3598C141.047 33.2898 140.667 32.9898 140.307 32.4898C137.717 28.9198 135.477 28.2598 131.407 29.8398C130.287 30.2798 129.207 30.8198 128.107 31.3098V31.3198Z" fill="#B7F1FB"/>
<path d="M174.017 34.8003C173.237 34.2303 172.327 34.3803 171.457 34.3303C170.897 34.3003 170.137 34.4203 169.897 33.9003C168.587 31.0603 166.097 31.3803 163.687 31.4403C162.957 32.2503 162.197 32.4603 161.347 31.6003C159.587 29.4503 157.147 29.5403 154.857 29.9603C151.827 30.5103 148.897 30.0403 145.917 29.7603C144.827 29.6603 144.097 29.1703 143.797 28.0903C143.627 27.4603 143.417 26.8403 142.727 26.5703C141.877 27.3903 141.397 28.4103 141.277 29.5803C141.107 31.1303 141.527 32.0603 143.267 32.6103C145.677 33.3803 148.467 33.5003 150.187 35.8003C150.677 36.4503 151.467 37.0803 151.557 37.7803C151.917 40.7903 153.987 40.6903 156.187 40.6803C164.647 40.6403 173.117 40.6603 181.577 40.6303C182.277 40.6303 183.247 40.8703 183.537 40.0503C183.867 39.1003 183.017 38.6403 182.257 38.2803C181.137 38.3103 180.017 38.2103 178.887 38.2403C176.067 38.3003 175.147 37.6403 174.007 34.7903L174.017 34.8003Z" fill="#7AD8FB"/>
<path d="M142.725 26.5753C142.665 29.8853 142.095 30.9353 146.665 31.0553C149.735 31.1353 152.766 31.5753 155.826 30.9553C157.996 30.5153 159.786 31.2753 161.246 32.8953C162.996 32.1653 163.256 31.4253 162.086 29.6753C159.736 26.1453 156.385 24.1453 152.235 23.3153C150.705 23.0053 149.086 23.4153 147.626 22.6953C145.386 23.2153 144.025 24.8453 142.735 26.5753H142.725Z" fill="#A1E7FA"/>
<path d="M138.227 22.1923C140.627 22.1723 142.137 20.7423 142.167 18.5023C142.197 15.9723 140.407 14.2323 137.847 14.2823C135.617 14.3323 133.967 15.9723 133.977 18.1323C133.997 20.4523 135.847 22.2223 138.227 22.2023V22.1923Z" fill="#B4EFFA"/>
<path d="M147.615 22.6992C147.175 24.1892 148.175 23.6992 148.965 23.7792C153.895 24.2792 158.525 25.4492 161.475 29.9792C162.155 31.0192 162.505 32.0192 161.245 32.9092C162.905 33.8592 163.895 33.6492 163.695 31.4592C160.865 24.9892 154.425 21.4892 147.625 22.7092L147.615 22.6992Z" fill="#E0F9FC"/>
<path d="M150.538 37.7656C150.428 39.7156 148.938 39.2356 147.818 39.2356C134.598 39.2356 121.388 39.2256 108.168 39.2156C107.118 39.2156 106.068 39.2856 105.008 39.3156C105.838 39.7456 106.748 39.6656 107.628 39.6656C121.338 39.6956 135.038 39.7256 148.748 39.7156C149.918 39.7156 151.848 40.1456 150.528 37.7656H150.538Z" fill="#7AD8FB"/>
<path d="M164.672 25.2592C165.292 26.7792 166.252 27.9492 168.032 27.9392C169.552 27.9392 170.232 26.9192 170.062 25.5192C169.872 23.9392 168.812 23.0692 167.222 23.1192C165.912 23.1592 164.902 23.7592 164.682 25.2592H164.672Z" fill="#B4EDFA"/>
<path d="M174.017 34.7991C173.297 34.9291 172.377 34.9191 173.117 36.0791C174.147 37.6891 175.257 39.1091 177.527 38.7591C179.087 38.5191 180.747 39.1691 182.257 38.2891C182.037 38.1791 181.837 38.0191 181.607 37.9791C179.367 37.6291 176.737 38.2691 175.527 35.3791C175.377 35.0291 174.537 34.9791 174.017 34.7891V34.7991Z" fill="#BAEFF6"/>
<path d="M102.118 39.3047C91.8581 39.3147 81.5881 39.3347 71.3281 39.3447C71.9781 39.7847 72.7281 39.7147 73.4481 39.7147C82.2181 39.7147 90.9781 39.7047 99.7481 39.6947C100.558 39.6947 101.378 39.7447 102.118 39.3047Z" fill="#7AD8FB"/>
<path d="M77.7422 16.8005C77.9422 17.6005 78.5822 17.7105 79.2522 17.7805C82.3022 18.0905 84.4922 19.4005 85.0222 22.6705C85.6422 20.3805 84.9422 18.8905 82.6522 17.6905C81.1122 16.8805 79.4722 16.6305 77.7522 16.8005H77.7422Z" fill="#C8E8F3"/>
<path d="M106.541 16.6612C102.951 13.5612 95.9009 17.4712 95.4609 26.3112C97.8309 21.2112 99.1709 15.3612 106.541 16.6612Z" fill="#88C1E1"/>
<path d="M166.771 34.1437C166.351 34.0437 165.941 34.0138 165.851 34.5638C165.761 35.1338 166.091 35.6137 166.591 35.6237C168.651 35.6937 170.711 35.6538 171.291 38.3138C171.311 38.4238 171.741 38.5638 171.901 38.5038C172.391 38.3138 172.281 37.9138 172.171 37.4938C171.681 35.6238 169.451 34.2237 166.771 34.1437Z" fill="#CEF5F9"/>
</svg>
