<svg width="1300" height="299" viewBox="0 0 1300 299" fill="none" xmlns="http://www.w3.org/2000/svg">
<path d="M616.281 274.04C638.791 268.46 643.251 260 669.571 263.28C669.451 263.33 669.331 263.37 669.201 263.42C664.551 265.06 659.281 265.27 654.721 267.22C649.311 269.54 645.351 275.01 638.971 275.54C631.171 272.87 623.521 275.96 616.281 274.04Z" fill="#FCFCFA"/>
<path d="M669.569 263.281C677.029 264.611 684.099 266.711 690.319 270.281C687.169 275.321 684.249 280.671 683.519 286.311L682.859 287.151C672.509 277.251 658.989 284.721 646.519 281.661C642.699 280.721 640.719 278.171 638.969 275.541C645.349 275.011 649.309 269.541 654.719 267.221C659.279 265.261 664.549 265.061 669.199 263.421C669.319 263.381 669.439 263.331 669.569 263.281Z" fill="#B7E8F6"/>
<path d="M1312.7 55.3128C1316.33 52.6428 1318.66 45.1828 1321.04 41.5128C1322.91 38.6228 1325.27 35.9228 1327.76 33.3428C1340.84 19.7728 1360.65 7.82281 1382.54 5.38281C1383.17 6.22281 1383.53 6.98281 1383.63 7.95281C1384.28 14.0328 1384.81 49.3828 1383.36 53.4628C1383.23 53.8428 1383.02 54.1628 1382.81 54.5228C1375.45 51.9428 1365.97 52.4128 1358.52 54.5928C1343.23 59.0728 1333.9 71.0628 1327.53 82.1628C1326.49 83.9628 1325.83 85.8228 1324.16 87.3428C1320.8 84.8728 1314.32 84.1428 1309.85 84.2228C1299.86 84.3928 1290.9 87.2328 1284.08 92.9928C1280.82 95.7428 1277.81 99.2128 1275.75 102.593C1274.63 104.433 1273.91 106.513 1272.24 108.113C1258.99 95.5428 1238.2 87.6828 1217.67 86.1228C1202.77 84.9928 1186.55 86.8328 1174.69 94.4428C1169.58 97.7228 1165.46 101.763 1162.18 106.243C1154.97 116.093 1149.59 133.433 1131.19 132.183C1126.74 131.883 1122.41 130.913 1118.14 129.933C1117.91 134.703 1109.9 142.753 1105.63 145.863C1101.25 149.053 1095.73 151.283 1089.62 151.093C1076.11 150.673 1061.58 135.933 1049.24 144.643C1040.84 150.563 1037.21 159.073 1027.62 164.623C1009.61 175.043 984.152 167.843 968.402 176.023C964.982 177.803 963.392 180.273 963.162 183.473C962.682 190.373 971.302 197.433 970.752 203.413C950.672 196.143 928.102 198.763 907.572 202.873C902.442 203.903 897.082 204.783 892.112 206.193C884.232 208.433 876.232 212.423 872.672 218.593C869.142 224.713 868.422 231.353 870.512 237.833C867.922 239.073 856.252 237.383 850.602 239.623C839.692 243.953 842.392 262.843 816.712 257.983C809.002 256.523 802.452 252.763 795.492 249.963C781.562 244.363 765.372 244.103 751.792 250.493C741.052 255.543 732.602 264.343 724.622 271.803C714.222 272.313 699.862 271.593 692.252 278.233C689.632 280.523 687.672 283.723 685.712 286.403C685.262 286.423 684.852 286.553 684.492 286.333C685.232 280.693 688.152 275.353 691.302 270.303C705.412 255.123 715.442 265.453 726.612 259.233C736.102 253.953 738.002 238.343 756.122 233.713C769.342 230.333 784.392 234.133 796.182 238.903C800.982 235.003 806.002 231.823 812.422 229.683C823.982 225.823 834.432 226.583 845.842 230.133C844.732 225.073 844.442 220.133 845.582 215.053C848.252 203.173 857.372 193.113 870.022 186.363C885.112 178.313 903.682 175.343 921.592 178.183C928.522 179.283 940.342 182.033 944.452 186.943C947.202 185.543 952.732 181.133 953.612 178.673C954.812 176.293 954.572 173.093 954.932 170.523C955.742 164.783 957.182 159.143 960.192 153.833C967.682 140.553 983.152 130.113 1000.29 124.943C1015.16 120.453 1035.37 119.143 1050.36 124.303C1053.06 120.843 1052.98 114.803 1054.2 110.813C1057.45 100.153 1063.69 89.9328 1071.83 81.0428C1091.13 59.9728 1119.81 46.9028 1152.38 42.7728C1182.33 38.9728 1214.21 44.3928 1238.84 58.4428C1244.48 61.6628 1262.22 73.1628 1263.25 78.2428C1265.43 76.7628 1266.37 74.7128 1267.81 72.8128C1271.69 67.7028 1276.38 62.9128 1282.66 59.4928C1291.75 54.5428 1301.99 53.8028 1312.66 55.3628L1312.7 55.3128Z" fill="#FCFCFA"/>
<path d="M1324.17 87.3452C1325.83 85.8252 1326.5 83.9652 1327.54 82.1652C1333.91 71.0652 1343.24 59.0752 1358.53 54.5952C1365.98 52.4152 1375.46 51.9552 1382.82 54.5252C1384.4 57.3952 1384.61 103.715 1383.13 106.445C1383.03 106.625 1382.92 106.795 1382.82 106.965C1383.29 107.805 1383.62 108.605 1383.68 109.525C1384.31 118.965 1384.59 198.105 1383.31 201.215C1383.13 201.665 1382.94 201.895 1382.65 202.325C1384.57 205.195 1384.74 231.255 1383.29 234.835C1383.14 235.195 1383 235.375 1382.77 235.725C1383.26 236.575 1383.61 237.385 1383.67 238.315C1384.09 243.985 1384.61 294.775 1383.27 297.605C1383.07 298.035 1382.87 298.235 1382.55 298.645C1374.69 297.755 1365.52 298.315 1357.56 298.325L1309.92 298.295L1128.39 298.165L883.952 298.095L702.982 297.165C678.232 297.165 653.392 296.695 628.662 297.195C621.232 296.555 613.872 295.495 606.512 294.515C597.142 293.225 567.702 290.225 561.172 287.375C555.542 287.405 548.652 286.075 543.212 284.925C540.082 284.785 536.852 284.215 533.742 283.825C529.412 283.255 525.132 282.525 520.852 281.775C514.672 281.045 508.492 279.965 502.342 279.055C463.182 274.145 424.132 269.045 384.362 268.515C384.082 267.335 383.962 266.255 383.922 265.055C385.612 263.995 386.202 263.005 387.152 261.515C391.022 255.425 392.282 256.485 399.222 254.365C405.302 252.515 401.632 250.425 402.622 247.085C403.022 245.735 404.732 245.345 405.372 244.075C405.822 243.175 406.382 243.075 407.392 242.565C407.432 241.505 408.042 240.575 408.542 239.605C412.002 236.375 410.812 238.505 414.402 237.405C416.052 236.895 416.052 236.475 417.992 236.295C418.382 237.035 418.612 237.165 419.382 237.665C420.032 236.805 420.592 236.205 421.532 235.495L422.442 235.945C424.332 231.755 436.312 226.845 441.362 224.935C456.112 219.365 474.832 219.145 490.162 223.395C506.122 227.815 519.232 236.795 526.362 248.825C526.542 249.135 526.722 249.455 526.892 249.765C533.672 243.355 543.572 240.555 553.982 239.825C569.722 238.715 585.532 242.545 597.602 250.555C605.772 255.975 610.172 261.645 613.472 269.475C614.152 271.105 614.692 273.385 616.092 274.715L617.202 274.035C624.452 275.945 632.102 272.855 639.922 275.535C641.672 278.165 643.652 280.715 647.482 281.655C659.962 284.715 673.502 277.245 683.862 287.145L684.522 286.305C684.882 286.535 685.292 286.405 685.742 286.375C687.702 283.695 689.652 280.495 692.282 278.205C699.892 271.555 714.252 272.285 724.652 271.775C732.632 264.305 741.082 255.515 751.822 250.465C765.402 244.075 781.582 244.335 795.522 249.935C802.492 252.735 809.032 256.495 816.742 257.955C842.422 262.825 839.722 243.925 850.632 239.595C856.272 237.355 867.952 239.035 870.542 237.805C868.452 231.325 869.172 224.675 872.702 218.565C876.262 212.405 884.252 208.405 892.142 206.165C897.112 204.755 902.482 203.875 907.602 202.845C928.132 198.735 950.702 196.115 970.782 203.385C971.332 197.415 962.722 190.345 963.192 183.445C963.422 180.255 965.012 177.775 968.432 175.995C984.182 167.805 1009.64 175.005 1027.65 164.595C1037.24 159.055 1040.87 150.545 1049.27 144.615C1061.6 135.915 1076.14 150.645 1089.65 151.065C1095.76 151.255 1101.27 149.025 1105.66 145.835C1109.94 142.725 1117.95 134.675 1118.17 129.905C1122.44 130.885 1126.77 131.855 1131.22 132.155C1149.62 133.405 1155 116.065 1162.21 106.215C1165.49 101.745 1169.62 97.6952 1174.72 94.4152C1186.59 86.8052 1202.8 84.9652 1217.7 86.0952C1238.23 87.6552 1259.02 95.5152 1272.27 108.085C1273.93 106.485 1274.66 104.405 1275.78 102.565C1277.84 99.1852 1280.85 95.7252 1284.11 92.9652C1290.93 87.2052 1299.9 84.3752 1309.88 84.1952C1314.35 84.1152 1320.84 84.8452 1324.19 87.3152L1324.17 87.3452Z" fill="#CFEEF4"/>
<path d="M1324.17 87.3452C1325.83 85.8252 1326.5 83.9652 1327.54 82.1652C1333.91 71.0652 1343.24 59.0752 1358.53 54.5952C1365.98 52.4152 1375.46 51.9552 1382.82 54.5252C1384.4 57.3952 1384.61 103.715 1383.13 106.445C1383.03 106.625 1382.92 106.795 1382.82 106.965C1364.36 100.005 1345.17 98.7552 1325.61 104.055C1311.58 107.855 1298.06 115.555 1291.55 126.245C1289.81 129.105 1285.96 139.975 1284.75 141.075C1278.35 135.935 1266.56 134.695 1257.85 134.595C1241.11 134.415 1223.39 140.385 1211.49 149.435C1200.79 157.575 1194.71 168.845 1194.62 180.535C1194.59 183.765 1197.93 192.865 1196.66 195.105C1193.44 193.805 1189.96 192.785 1186.63 191.665C1165.28 186.545 1146.17 188.665 1125.62 194.785C1120.63 196.275 1115.77 198.185 1110.76 199.585C1110.31 200.025 1086.32 214.355 1085.65 214.575C1083.54 211.905 1071.89 209.725 1068.11 209.035C1049.14 205.575 1030.38 208.755 1014.04 216.785C1006.86 220.305 1000.36 224.595 994.128 229.065C983.498 222.685 967.288 221.695 954.318 223.025C943.118 224.175 936.198 227.705 929.488 234.705C927.518 236.755 925.828 238.995 923.808 240.995C922.568 237.145 918.778 234.095 914.508 232.105C912.128 230.995 909.958 230.305 907.148 230.485C911.978 228.665 918.378 227.675 922.728 225.385C925.328 224.025 927.318 221.885 929.598 220.215C934.738 216.455 943.688 213.365 950.339 211.925C963.859 208.985 985.518 209.165 997.938 214.575C1003.8 211.565 1008.56 207.195 1014.55 204.145C1026.92 197.855 1043.39 196.555 1057.63 198.915C1065.96 200.295 1078.81 203.995 1083.73 209.925C1086.43 208.415 1088.67 205.335 1090.9 203.345C1094.96 199.745 1100.5 196.625 1104.05 192.765C1106.23 190.405 1107.78 187.515 1109.53 184.945C1114.94 176.995 1122 169.935 1132.51 165.805C1143.23 161.585 1154.49 161.975 1165.65 164.835C1170.68 166.125 1177.39 168.375 1179.91 172.285C1181.06 170.745 1182.53 154.685 1184.47 150.365C1190.99 135.925 1205.09 123.715 1222.71 117.065C1237.82 111.365 1255.57 109.755 1271.55 114.075C1271.77 113.875 1272.04 113.655 1272.21 113.415C1273.08 112.045 1272.77 109.485 1272.26 108.085C1273.92 106.485 1274.65 104.405 1275.77 102.565C1277.83 99.1852 1280.84 95.7252 1284.1 92.9652C1290.92 87.2052 1299.89 84.3752 1309.87 84.1952C1314.34 84.1152 1320.83 84.8452 1324.18 87.3152L1324.17 87.3452Z" fill="#B7E8F6"/>
<path d="M1110.75 199.591C1110.82 199.411 1110.86 199.221 1110.95 199.051C1113.52 194.281 1129.72 187.501 1135.85 185.721C1150.84 181.381 1166.03 182.691 1180.28 187.981C1182.48 188.801 1185.79 189.811 1186.62 191.661C1165.27 186.541 1146.16 188.661 1125.61 194.781C1120.62 196.271 1115.76 198.181 1110.75 199.581V199.591Z" fill="#45C2D9"/>
<path d="M1110.75 199.591C1115.76 198.191 1120.62 196.281 1125.61 194.791C1146.15 188.661 1165.27 186.551 1186.62 191.671C1189.95 192.791 1193.43 193.811 1196.65 195.111C1204.94 199.111 1218.33 209.731 1220.51 217.251C1220.68 217.821 1220.64 217.891 1220.62 218.401C1222.63 219.781 1223.53 221.721 1224.6 223.591L1223.85 224.541L1223.24 224.311L1224.64 224.511L1223.73 224.351C1222.37 223.371 1221.86 222.841 1219.83 223.021C1218.04 223.181 1216.71 223.721 1215.47 224.691C1214.26 226.561 1214.69 228.251 1215.52 230.181C1216.22 231.841 1217.32 232.901 1218.75 234.231C1219.41 234.831 1220.03 235.451 1220.68 236.061L1220.24 236.401C1218.92 237.431 1217.14 238.051 1215.78 239.071C1209.9 243.431 1209.2 249.201 1206.57 254.751C1198.94 247.651 1195.03 241.831 1181.87 240.841C1172.09 240.101 1162.07 243.091 1154.69 248.021C1141.59 256.771 1145.47 261.041 1138.91 269.441C1136.67 263.731 1122.65 256.781 1116.03 254.051C1094.52 245.171 1068.35 246.071 1045.66 251.641C1037.23 253.711 1027.74 256.381 1020.22 260.001C1016.18 261.951 1012.57 264.941 1008.31 266.521C996.973 262.791 986.573 263.951 975.113 266.421C973.073 263.211 966.093 261.051 961.973 259.971C952.703 257.551 938.003 255.601 928.873 259.241C924.813 260.861 915.883 268.521 913.103 268.781L911.353 266.971L907.833 265.991C906.803 265.121 904.823 264.611 903.423 264.181C892.043 260.771 877.213 262.691 866.383 266.431C869.383 257.471 872.323 248.531 880.173 241.291C887.343 234.681 896.173 231.221 907.153 230.491C909.963 230.311 912.133 231.011 914.513 232.111C918.783 234.091 922.573 237.141 923.813 241.001C925.833 239.001 927.523 236.751 929.493 234.711C936.203 227.711 943.123 224.181 954.323 223.031C967.293 221.701 983.503 222.691 994.133 229.071C1000.36 224.601 1006.86 220.311 1014.04 216.791C1030.38 208.771 1049.14 205.591 1068.11 209.041C1071.89 209.731 1083.53 211.911 1085.65 214.581C1086.32 214.361 1110.31 200.031 1110.76 199.591H1110.75Z" fill="#CFEEF4"/>
<path d="M1110.75 199.591C1115.76 198.191 1120.62 196.281 1125.61 194.791C1146.15 188.661 1165.27 186.551 1186.62 191.671C1189.95 192.791 1193.43 193.811 1196.65 195.111C1204.94 199.111 1218.33 209.731 1220.51 217.251C1220.68 217.821 1220.64 217.891 1220.62 218.401L1220.54 218.991C1205.36 208.251 1186.25 203.101 1165.79 203.901C1140.8 204.881 1125.83 214.411 1108.6 227.071C1103.34 230.941 1098.17 234.711 1091.46 237.031C1083 239.961 1074.42 238.001 1065.58 237.831C1060.14 237.731 1053.92 238.171 1048.61 239.171C1042.4 240.341 1036.06 242.451 1030.35 244.681C1026.9 246.031 1016.33 251.561 1013.57 251.861L1012.75 251.251C1014.79 248.821 1016.02 246.051 1018.21 243.641C1027.91 232.951 1043.02 227.701 1059.31 225.921C1065.87 225.201 1072.85 224.901 1079.1 223.071C1079.3 223.011 1079.49 222.951 1079.68 222.891C1079.81 222.821 1079.96 222.751 1080.08 222.681C1082.58 221.071 1085.18 217.041 1085.63 214.591C1086.3 214.371 1110.29 200.041 1110.74 199.601L1110.75 199.591Z" fill="#FCFCFA"/>
<path d="M992.748 229.074C998.968 224.604 1005.47 220.314 1012.64 216.794C1028.96 208.774 1047.7 205.594 1066.64 209.044C1070.41 209.734 1082.05 211.914 1084.15 214.584C1083.69 217.044 1081.1 221.064 1078.6 222.674C1078.48 222.754 1078.33 222.814 1078.2 222.884C1078.01 222.944 1077.82 223.004 1077.62 223.064C1071.38 224.894 1064.41 225.194 1057.86 225.914C1041.59 227.704 1026.5 232.944 1016.81 243.634C1014.63 246.044 1013.39 248.824 1011.36 251.244L1010.95 252.334C1007.96 252.114 1005.08 251.204 1002.16 250.674C992.318 248.874 985.778 251.024 978.248 255.984C976.618 257.064 975.128 258.474 973.228 259.244C969.548 254.564 960.188 251.714 953.688 250.484C943.728 248.584 931.308 249.154 922.438 253.514C913.748 257.794 914.458 263.604 910.058 266.964L906.548 265.984C905.518 265.114 903.548 264.604 902.138 264.174C890.768 260.764 875.958 262.684 865.148 266.424C868.148 257.464 871.078 248.524 878.918 241.284C886.078 234.674 894.898 231.214 905.858 230.484C908.668 230.304 910.838 231.004 913.208 232.104C917.468 234.084 921.258 237.134 922.498 240.994C924.508 238.994 926.198 236.744 928.168 234.704C934.878 227.704 941.779 224.174 952.969 223.024C965.919 221.694 982.108 222.684 992.728 229.064L992.748 229.074Z" fill="#45C2D9"/>
<path d="M1284.74 141.083C1285.95 139.973 1289.8 129.103 1291.54 126.253C1298.05 115.563 1311.58 107.873 1325.6 104.063C1345.16 98.7634 1364.35 100.013 1382.81 106.973C1383.28 107.813 1383.61 108.613 1383.67 109.533C1384.3 118.973 1384.58 198.113 1383.3 201.223C1383.12 201.673 1382.93 201.903 1382.64 202.333C1358.16 195.043 1331.86 195.693 1307.88 204.033C1291.72 209.663 1275.86 219.003 1269.4 232.283C1264.8 241.763 1266.14 250.253 1270.31 259.683C1270.6 260.313 1270.5 260.043 1270.6 260.733L1270.18 260.813C1266.12 257.673 1259.67 254.093 1254.08 253.113C1243.41 251.253 1230.89 252.273 1221.63 257.073C1218.11 258.903 1215.08 261.263 1211.49 262.993C1211.36 263.053 1211.23 263.113 1211.11 263.173C1210.74 260.273 1208.24 257.323 1206.54 254.753C1209.17 249.203 1209.88 243.433 1215.75 239.073C1217.11 238.063 1218.89 237.433 1220.21 236.403L1220.65 236.063C1220 235.453 1219.38 234.833 1218.72 234.233C1217.28 232.903 1216.19 231.843 1215.49 230.183C1214.66 228.253 1214.23 226.563 1215.44 224.693C1216.69 223.723 1218.02 223.183 1219.8 223.023C1221.83 222.843 1222.34 223.373 1223.7 224.353L1224.61 224.513L1223.21 224.313L1223.82 224.543L1224.57 223.593C1223.5 221.733 1222.6 219.783 1220.59 218.403C1220.61 217.903 1220.65 217.823 1220.48 217.253C1218.3 209.723 1204.91 199.113 1196.62 195.113C1197.88 192.873 1194.55 183.783 1194.58 180.543C1194.68 168.853 1200.75 157.593 1211.45 149.443C1223.35 140.393 1241.07 134.423 1257.81 134.603C1266.52 134.703 1278.31 135.943 1284.71 141.083H1284.74Z" fill="#45C2D9"/>
<path d="M1270.62 260.733C1270.52 260.043 1270.62 260.313 1270.33 259.683C1266.16 250.253 1264.81 241.763 1269.42 232.283C1275.88 219.013 1291.74 209.663 1307.9 204.033C1331.87 195.693 1358.18 195.043 1382.66 202.333C1384.58 205.203 1384.75 231.263 1383.3 234.843C1383.15 235.203 1383.01 235.383 1382.78 235.733C1383.27 236.583 1383.62 237.393 1383.68 238.323C1384.1 243.993 1384.62 294.783 1383.28 297.613C1383.08 298.043 1382.88 298.243 1382.56 298.653C1374.7 297.763 1365.53 298.323 1357.57 298.333L1309.93 298.303L1128.4 298.173L883.96 298.103L702.99 297.173C678.24 297.173 653.4 296.703 628.67 297.203C621.24 296.563 613.88 295.503 606.52 294.523C597.15 293.233 567.71 290.233 561.18 287.383C555.55 287.413 548.66 286.083 543.22 284.933C540.09 284.793 536.86 284.223 533.75 283.833C529.42 283.263 525.14 282.533 520.86 281.783C514.68 281.053 508.5 279.973 502.35 279.063C463.19 274.153 424.14 269.053 384.37 268.523C384.09 267.343 383.97 266.263 383.93 265.063C385.62 264.003 386.21 263.013 387.16 261.523C391.03 255.433 392.29 256.493 399.23 254.373C405.31 252.523 401.64 250.433 402.63 247.093C403.03 245.743 404.74 245.353 405.38 244.083C405.83 243.183 406.39 243.083 407.4 242.573C407.44 241.513 408.05 240.583 408.55 239.613C412.01 236.383 410.82 238.513 414.41 237.413C416.06 236.903 416.06 236.483 418 236.303C418.39 237.043 418.62 237.173 419.39 237.673C420.04 236.813 420.6 236.213 421.54 235.503L422.45 235.953C424.34 231.763 436.32 226.853 441.37 224.943C456.12 219.373 474.84 219.153 490.17 223.403C506.13 227.823 519.24 236.803 526.37 248.833C526.55 249.143 526.73 249.463 526.9 249.773C533.68 243.363 543.58 240.563 553.99 239.833C569.73 238.723 585.54 242.553 597.61 250.563C605.78 255.983 610.18 261.653 613.48 269.483C614.16 271.113 614.7 273.393 616.1 274.723L617.21 274.043C624.46 275.953 632.11 272.863 639.93 275.543C641.68 278.173 643.66 280.723 647.49 281.663C659.97 284.723 673.51 277.253 683.87 287.153C683.88 287.363 683.89 287.573 683.91 287.783C684.07 289.513 684.96 290.903 686.61 291.973C689.84 290.803 691.71 287.283 695.68 285.883C702.7 283.413 710.94 285.983 718.45 283.943C722.51 282.843 726.26 280.873 729.95 279.173C740.25 274.423 749.89 270.303 761.96 269.003C775.72 267.533 789.2 269.583 802.58 271.893C845.91 279.393 849.23 279.963 891.79 269.583C896.96 268.323 902.54 268.223 907.52 266.903L907.87 266.003L911.39 266.983L913.14 268.793C915.92 268.533 924.85 260.863 928.91 259.253C938.04 255.613 952.74 257.563 962.01 259.983C966.14 261.053 973.12 263.223 975.15 266.433C986.61 263.963 997.01 262.803 1008.35 266.533C1012.61 264.963 1016.21 261.963 1020.26 260.013C1027.78 256.383 1037.27 253.713 1045.7 251.653C1068.39 246.083 1094.56 245.183 1116.07 254.063C1122.69 256.793 1136.71 263.733 1138.95 269.453C1145.5 261.053 1141.63 256.783 1154.73 248.033C1162.11 243.093 1172.13 240.113 1181.91 240.853C1195.07 241.843 1198.98 247.663 1206.61 254.763C1208.31 257.333 1210.81 260.283 1211.18 263.183C1211.3 263.123 1211.43 263.063 1211.56 263.003C1215.15 261.273 1218.18 258.903 1221.7 257.083C1230.95 252.283 1243.48 251.253 1254.15 253.123C1259.74 254.103 1266.19 257.683 1270.25 260.823L1270.67 260.743L1270.62 260.733Z" fill="#92E0E9"/>
<path d="M215.891 110.527C227.911 108.917 240.331 109.067 250.601 114.877C257.041 118.517 261.081 123.757 262.261 129.897C262.941 133.427 262.461 136.867 261.751 140.367C257.251 139.857 252.791 139.257 248.511 138.007C232.171 133.227 222.781 122.417 215.891 110.527Z" fill="#FCFCFA"/>
<path d="M-76.9609 0.460938C-64.1609 4.63094 -56.8409 11.4009 -51.5609 21.4009C-47.7109 28.6909 -46.2009 36.2409 -45.4309 44.0409C-34.9709 39.5109 -24.5309 38.9509 -13.0609 41.5209C0.869064 44.6309 13.3291 51.7909 20.2591 61.8509C26.1291 70.3709 26.6891 79.6109 23.0691 88.7909C22.8691 89.2909 22.6591 89.7809 22.4291 90.2809C20.6691 87.8809 19.4191 85.2209 17.4791 82.9209C11.2891 75.6109 1.89906 70.0809 -9.22094 68.4209C-21.1609 66.6409 -29.4009 69.8409 -39.0009 74.9709C-39.3509 72.9909 -40.0509 71.2909 -41.0409 69.4409C-46.8509 58.5209 -62.6809 42.5709 -76.9609 37.9209V0.460938Z" fill="#FCFCFA"/>
<path d="M-76.9609 37.9219C-62.6809 42.5719 -46.8509 58.5219 -41.0409 69.4419C-40.0609 71.2819 -39.3609 72.9919 -39.0009 74.9719C-29.4009 69.8519 -21.1609 66.6419 -9.22094 68.4219C1.89906 70.0819 11.2991 75.6119 17.4791 82.9219C19.4291 85.2219 20.6791 87.8819 22.4291 90.2819C21.7491 91.7619 20.6291 93.1219 21.2491 94.6319C21.9491 94.5319 22.8191 94.5019 23.4691 94.3019C34.3091 92.0619 43.8191 92.8519 54.4391 95.3019C59.0991 86.0819 65.8291 78.2319 75.9491 72.1419C95.6191 60.3119 118.689 59.1319 142.349 61.4919C170.289 67.5019 193.309 76.4219 208.309 96.9919C211.469 101.332 213.819 105.832 215.889 110.532C222.779 122.422 232.169 133.242 248.509 138.012C252.789 139.262 257.239 139.862 261.749 140.372C260.689 142.512 253.809 153.552 254.209 154.262C273.379 154.282 292.609 159.922 306.219 170.662C312.339 175.502 317.409 181.432 320.629 187.772L321.829 187.732C331.399 183.282 344.679 182.912 355.219 185.072C360.229 186.102 365.219 187.682 369.709 189.712C390.499 196.342 407.819 217.042 416.149 232.652C416.489 233.292 416.809 233.942 417.109 234.592C417.199 235.132 417.369 235.752 417.359 236.302C415.409 236.482 415.419 236.902 413.769 237.412C410.179 238.512 411.369 236.382 407.909 239.612C407.409 240.582 406.799 241.512 406.759 242.572C405.759 243.092 405.199 243.192 404.749 244.082C404.109 245.352 402.399 245.742 401.999 247.092C401.009 250.432 404.669 252.522 398.599 254.372C391.659 256.492 390.409 255.432 386.539 261.522C385.589 263.012 384.999 264.002 383.319 265.062C383.359 266.252 383.479 267.342 383.759 268.522C381.719 268.612 379.569 268.602 377.559 268.882C367.749 269.522 332.749 271.142 324.659 269.352C309.909 269.112 295.019 266.382 280.599 264.082C275.709 262.502 271.029 260.712 266.329 258.832C262.279 257.252 236.799 244.892 236.099 244.892L234.369 246.332L233.059 246.812C226.139 245.672 220.939 249.882 213.499 248.962C212.519 249.442 211.999 249.772 211.379 250.542C209.219 252.642 207.589 254.802 206.159 257.252C208.489 257.752 210.179 256.452 212.839 257.082C213.889 258.672 214.839 260.402 216.299 261.792C213.789 264.332 211.349 266.942 208.709 269.402C200.939 277.142 186.729 291.362 177.779 297.532C127.429 290.822 77.3991 282.312 26.8691 276.412C-7.60094 272.382 -42.3709 270.622 -76.9509 267.372V37.9219H-76.9609Z" fill="#45C2D9"/>
<path d="M-76.9588 37.9184C-62.6788 42.5684 -46.8488 58.5184 -41.0388 69.4384C-40.0588 71.2784 -39.3588 72.9884 -38.9988 74.9684L-39.1888 75.6084C-36.2488 76.4984 -33.0188 77.1084 -30.1888 78.1584C-15.3488 83.6484 -2.77875 93.8185 3.90125 105.488C9.22125 114.788 10.2213 123.878 10.0113 133.898C17.1813 132.158 23.9213 131.808 30.7713 134.638C38.0313 137.638 41.8613 142.918 44.8013 148.668C49.7813 139.988 59.5912 134.968 70.7012 131.648C87.1913 126.728 104.601 126.568 120.751 132.418C134.161 137.278 155.111 150.588 163.411 159.958C174.771 153.828 187.751 150.658 201.541 152.598C214.761 154.458 224.441 159.998 234.251 166.758C236.951 168.618 239.681 170.838 242.641 172.398L243.411 169.298C243.761 163.788 241.821 157.158 240.371 151.748C244.931 152.878 249.521 153.558 254.201 154.248C273.371 154.268 292.601 159.908 306.211 170.648C312.331 175.488 317.401 181.418 320.621 187.758L321.821 187.718C331.391 183.268 344.671 182.898 355.211 185.058C360.221 186.088 365.211 187.668 369.701 189.698C390.491 196.328 407.811 217.028 416.141 232.638C416.481 233.278 416.801 233.928 417.101 234.578C416.041 234.438 415.541 234.428 414.771 233.778C412.561 231.908 410.961 228.418 409.291 226.158C406.711 222.658 403.781 219.328 400.591 216.138C388.811 204.378 370.701 191.968 351.091 190.268C337.751 189.108 325.511 193.708 315.321 200.088C309.591 195.468 303.211 191.108 295.901 188.098C279.221 181.228 263.111 182.708 245.811 186.818C233.931 176.558 220.221 167.258 202.541 163.928C188.831 161.348 176.191 163.638 164.271 169.258C160.251 164.048 155.831 160.048 149.571 156.388C132.601 146.478 109.721 141.788 88.7112 144.248C71.8612 146.228 54.2413 153.278 44.1113 164.128L43.4113 162.628C40.1313 155.738 34.8413 149.998 26.0213 146.938C17.8713 144.118 10.9413 144.828 2.89125 147.298C3.38125 145.538 3.88125 143.758 4.10125 141.968C5.62125 129.868 -1.33875 116.798 -11.1188 107.648C-20.9588 98.4384 -35.6387 91.2684 -51.1687 90.1984C-58.4887 81.7084 -66.1788 74.9284 -76.9688 69.0184V37.8984L-76.9588 37.9184Z" fill="#B7E8F6"/>
<path d="M321.82 187.73C331.39 183.28 344.67 182.91 355.21 185.07C360.22 186.1 365.21 187.68 369.7 189.71C369.25 189.82 368.12 190.21 367.72 190.18C365.39 190.02 361.96 188.67 359.61 188.12C354.37 186.9 349.06 186.2 343.61 185.85C336.52 185.4 329.53 188.8 322.48 188.96L321.83 187.72L321.82 187.73Z" fill="#FCFCFA"/>
<path d="M240.383 151.76C244.943 152.89 249.533 153.57 254.213 154.26C273.383 154.28 292.613 159.92 306.223 170.66C312.343 175.5 317.413 181.43 320.633 187.77L320.253 188.9L319.163 189.26C313.473 188.01 305.703 181.67 298.963 179.27C279.333 172.29 264.693 172.65 244.733 178.53L243.433 169.3C243.783 163.79 241.843 157.16 240.393 151.75L240.383 151.76Z" fill="#FCFCFA"/>
<path d="M54.4403 95.3003C59.1003 86.0803 65.8303 78.2303 75.9503 72.1403C95.6203 60.3103 118.69 59.1303 142.35 61.4903C170.29 67.5003 193.31 76.4203 208.31 96.9903C211.47 101.33 213.82 105.83 215.89 110.53C222.78 122.42 232.17 133.24 248.51 138.01C252.79 139.26 257.24 139.86 261.75 140.37C260.69 142.51 253.81 153.55 254.21 154.26C249.53 153.57 244.94 152.89 240.38 151.76C241.83 157.17 243.77 163.8 243.42 169.31L242.65 172.41C239.69 170.85 236.95 168.63 234.26 166.77C224.45 160.01 214.77 154.47 201.55 152.61C187.76 150.66 174.78 153.83 163.42 159.97C155.12 150.59 134.17 137.28 120.76 132.43C104.62 126.58 87.2003 126.75 70.7103 131.66C59.6003 134.97 49.7903 140 44.8103 148.68C41.8603 142.93 38.0403 137.64 30.7803 134.65C23.9303 131.82 17.1903 132.17 10.0203 133.91C10.2303 123.89 9.23032 114.8 3.91032 105.5C-2.75968 93.8303 -15.3397 83.6603 -30.1797 78.1703C-33.0097 77.1203 -36.2297 76.5103 -39.1797 75.6203L-38.9897 74.9803C-29.3897 69.8603 -21.1497 66.6503 -9.20969 68.4303C1.91031 70.0903 11.3103 75.6203 17.4903 82.9303C19.4403 85.2303 20.6903 87.8903 22.4403 90.2903C21.7603 91.7703 20.6403 93.1303 21.2603 94.6403C21.9603 94.5403 22.8303 94.5103 23.4803 94.3103C34.3203 92.0703 43.8303 92.8603 54.4503 95.3103L54.4403 95.3003Z" fill="#CFEEF4"/>
<path d="M54.4387 95.3003C59.0987 86.0803 65.8288 78.2303 75.9488 72.1403C95.6188 60.3103 118.689 59.1303 142.349 61.4903C142.709 71.7903 139.039 80.5103 129.809 88.1003C121.599 94.8603 110.499 98.7003 98.5787 98.8603C79.5987 99.1203 67.9487 95.7503 52.7987 107.67C51.7287 108.51 50.7287 109.4 49.7487 110.32C39.7987 99.5503 37.8188 100.16 23.4688 94.2903C34.3088 92.0503 43.8187 92.8403 54.4387 95.2903V95.3003Z" fill="#FCFCFA"/>
<path d="M318.148 216.749C326.698 210.309 338.658 207.629 350.348 207.779C367.508 207.989 383.328 214.859 395.048 224.399C400.638 228.949 404.228 234.079 407.898 239.629C407.398 240.599 406.788 241.529 406.748 242.589C405.748 243.109 405.188 243.209 404.738 244.099C404.098 245.369 402.388 245.759 401.988 247.109C400.998 250.449 404.658 252.539 398.588 254.389C391.648 256.509 390.398 255.449 386.528 261.539C385.578 263.029 384.988 264.019 383.308 265.079C383.348 266.269 383.468 267.359 383.748 268.539C381.708 268.629 379.558 268.619 377.548 268.899C373.678 266.069 370.458 263.329 364.928 262.849C364.728 262.829 364.518 262.819 364.318 262.799L364.918 261.649L362.498 262.949C360.028 261.569 357.528 257.899 354.648 257.459C352.188 257.089 350.768 258.329 348.818 259.279C347.858 257.699 347.338 256.869 345.348 256.009L342.958 257.179C343.868 254.379 345.298 251.239 345.188 248.349C342.668 245.889 339.418 245.559 335.688 245.019C336.548 239.899 330.848 240.919 330.858 238.469C330.858 235.169 332.518 235.919 330.418 232.359C330.838 231.889 330.968 231.259 331.168 230.699C330.148 228.929 325.668 222.199 323.298 221.779C322.018 221.559 321.588 222.299 320.088 221.699L318.148 216.739V216.749Z" fill="#92E0E9"/>
</svg>
