<svg width="441" height="52" viewBox="0 0 441 52" fill="none" xmlns="http://www.w3.org/2000/svg">
<path d="M162.838 21.1609C163.698 20.2909 164.638 19.411 166.018 19.051C168.698 18.341 172.298 19.111 175.228 18.521C178.858 17.791 181.758 15.6809 185.448 14.6909L186.608 15.4409L185.108 14.6209L186.288 14.4709C193.068 8.52094 202.478 4.48096 211.648 1.18096C218.538 -1.29904 220.818 0.620964 227.108 2.43096C227.978 3.45096 228.178 3.69097 228.308 4.90097C226.218 4.44097 224.358 4.41096 222.208 4.39096C218.118 3.00096 212.838 3.42097 208.728 4.65097C201.138 6.94097 196.758 12.0209 193.558 17.5409C187.748 16.9409 179.158 16.941 174.268 19.761C172.048 21.041 170.578 23.121 169.328 25.011C167.218 23.701 165.138 22.2409 162.828 21.1609H162.838Z" fill="#1495D8"/>
<path d="M194.84 17.5376C198.04 12.0176 202.43 6.93764 210.03 4.64764C214.14 3.40764 219.43 2.99763 223.52 4.38763C225.67 4.40763 227.53 4.43764 229.63 4.89764C238.93 7.49764 250.64 12.4576 255.82 19.3676C258.58 19.1176 261.29 19.6676 263.5 20.9676C270.4 19.7076 275.46 19.4576 281.64 22.5076C287.17 25.2376 291.89 30.3276 293.89 35.1676C299.72 33.0476 305.72 31.7576 312.06 33.5076C316.14 34.6376 319.76 37.6176 321.44 40.7276C321.71 41.2276 321.69 41.2076 321.84 41.6376C361.32 42.6376 400.63 49.4776 440.08 50.2376C433.88 51.4776 426.78 50.9776 420.37 51.1276C407.27 51.4276 394.19 51.6576 381.08 51.7176L249.28 51.7476L54.77 51.3176C36.57 51.1576 18.17 51.5976 0 51.0676C8.07 48.8476 17.34 48.1276 25.78 46.9676C37.24 45.3876 48.91 43.4376 60.5099 42.6476C72.0999 35.1376 87.71 34.0876 102.14 33.2076C105.16 32.5876 107.18 32.6176 110.31 32.8876C120.36 33.7476 120.15 29.9876 126.49 26.0276L127.63 26.4676C130.94 24.7176 134.33 23.0476 137.98 21.7476C146.87 18.5876 155.03 18.4876 164.1 21.1576C166.41 22.2276 168.49 23.6976 170.6 25.0076C171.85 23.1176 173.32 21.0376 175.55 19.7576C180.45 16.9376 189.04 16.9376 194.86 17.5376H194.84Z" fill="url(#paint0_linear_0_1)"/>
<path d="M254.469 19.3713C257.219 19.1213 259.929 19.6713 262.139 20.9713C261.379 21.7013 260.339 22.0813 259.309 22.5413C257.049 22.0713 256.009 20.7013 254.469 19.3713Z" fill="#1495D8"/>
<path d="M243.428 26.8728C245.418 26.7028 247.408 26.5428 249.398 26.6228C255.168 26.8428 258.668 28.8128 262.468 32.0428C254.688 31.2828 250.038 32.0928 242.898 34.6828C242.388 35.7928 240.988 37.4828 239.988 38.3728C238.708 39.5128 237.738 39.4128 235.968 39.4528C234.548 38.9928 233.428 38.5528 232.698 37.4428C231.798 36.0828 232.058 34.5728 232.788 33.2028C234.698 29.6228 239.178 28.2628 243.418 26.8828L243.428 26.8728Z" fill="#FCFCFA"/>
<path d="M193.573 17.5376C196.773 12.0176 201.153 6.93764 208.743 4.64764C212.843 3.40764 218.123 2.99763 222.223 4.38763C225.953 6.26763 229.213 8.81762 230.363 12.2876C230.083 12.4076 229.803 12.5276 229.513 12.6476C222.783 15.4776 217.183 15.8776 214.503 22.5076C213.433 25.1676 214.783 28.8076 213.423 31.0776C205.823 29.3176 194.633 26.5276 187.123 29.4676C182.663 31.2176 183.973 34.3376 181.033 36.1276C178.643 35.0276 176.403 33.7876 173.573 33.5676C170.933 34.5876 168.763 35.5776 165.773 34.8176C162.183 33.8976 158.623 32.2876 154.913 31.7076C147.823 30.6076 136.143 32.8676 129.683 35.2576C127.193 36.1776 123.093 38.8676 120.683 39.2576C117.883 39.7076 113.133 37.9176 109.993 37.8576C100.023 37.6776 89.0029 38.6676 79.2229 40.1776C74.9129 40.8376 64.4329 44.0076 60.5729 43.0876C60.0629 42.9676 59.8928 42.8576 59.3828 42.6476C70.9528 35.1376 86.5429 34.0876 100.953 33.2076C103.973 32.5876 105.983 32.6176 109.103 32.8876C119.133 33.7476 118.933 29.9876 125.263 26.0276L126.393 26.4676C129.703 24.7176 133.083 23.0476 136.723 21.7476C145.603 18.5876 153.753 18.4876 162.813 21.1576C165.123 22.2276 167.203 23.6976 169.313 25.0076C170.553 23.1176 172.033 21.0376 174.253 19.7576C179.143 16.9376 187.733 16.9376 193.543 17.5376H193.573Z" fill="#FCFCFA"/>
<path d="M100.963 33.2113C103.983 32.5913 105.993 32.6213 109.113 32.8913C119.143 33.7513 118.943 29.9913 125.273 26.0312L126.403 26.4713C122.743 29.3013 119.673 32.2312 117.433 35.8712C112.313 33.9912 106.543 33.4513 100.953 33.2113H100.963Z" fill="#1495D8"/>
<defs>
<linearGradient id="paint0_linear_0_1" x1="356.426" y1="-66.2794" x2="83.5937" y2="124.507" gradientUnits="userSpaceOnUse">
<stop stop-color="#69B8E6"/>
<stop offset="1" stop-color="#B9E1EE"/>
</linearGradient>
</defs>
</svg>
