<svg width="455" height="57" viewBox="0 0 455 57" fill="none" xmlns="http://www.w3.org/2000/svg">
<path d="M58.0803 42.6661C66.0703 39.0461 74.6503 35.5161 83.8503 34.3461C94.0303 33.0461 101.72 34.9361 109.93 39.6161C109.78 40.6661 109.56 41.7361 109.57 42.7961C97.1803 38.6161 83.6303 38.6861 70.5903 40.7161C66.6003 41.3361 62.6903 42.3661 58.6303 42.6361C58.4503 42.6461 58.2603 42.6561 58.0703 42.6661H58.0803Z" fill="#CFEEF4"/>
<path d="M182.374 11.4433C186.334 7.54325 189.944 4.04325 195.934 1.95325C204.184 -0.916754 212.704 0.413249 220.804 2.86325C223.534 3.94325 226.224 4.97325 228.704 6.38325C236.524 11.5332 241.194 16.9032 246.064 23.8232L249.104 25.2132C251.054 25.1332 251.124 24.8932 252.614 23.9332C257.954 20.4732 260.604 19.2033 267.734 19.7333C277.614 23.0733 282.624 27.0733 289.214 33.5833C292.774 31.6633 296.434 29.5332 301.034 30.3132C309.134 31.6732 313.324 40.2233 320.924 43.2933C327.124 43.2633 333.484 43.0633 339.644 43.6633C350.544 44.7333 361.174 47.2433 372.144 48.2633C399.594 50.8233 427.804 52.0532 454.954 56.0932C434.544 56.7032 414.104 55.9332 393.694 55.7032L302.144 55.3532L102.194 55.2333C68.4537 55.1933 34.5638 55.7733 0.84375 55.1933C14.9937 51.6233 29.2437 48.4433 43.6337 45.4833C48.1937 44.5533 53.4437 43.0333 58.0937 42.6533C58.2837 42.6533 58.4637 42.6333 58.6537 42.6233C62.7137 42.3633 66.6238 41.3332 70.6138 40.7032C83.6538 38.6632 97.2037 38.6032 109.594 42.7832C109.584 41.7232 109.804 40.6532 109.954 39.6032C112.114 36.7132 114.434 33.9032 117.264 31.3832C124.074 25.3132 134.484 18.3732 145.314 17.8932C151.144 17.6332 154.924 19.2533 159.194 22.1933C166.274 15.7133 171.994 13.4032 182.384 11.4332L182.374 11.4433Z" fill="#45C2D9"/>
<path d="M246.054 23.823L249.094 25.213C251.044 25.133 251.114 24.893 252.604 23.933C257.944 20.473 260.594 19.203 267.724 19.733C265.174 24.413 264.104 28.343 263.754 33.413C251.794 32.303 242.894 32.883 233.114 38.923C231.694 39.793 230.314 40.693 228.914 41.583L216.234 40.933C222.804 33.573 230.884 25.623 242.934 24.043C243.984 23.903 244.994 23.853 246.054 23.833V23.823Z" fill="#B7E8F6"/>
<path d="M220.795 2.86156C223.525 3.94156 226.215 4.97156 228.695 6.38156C217.225 17.0316 205.175 27.3716 192.875 37.4416C188.335 34.2116 184.225 32.2616 177.915 32.4416C167.115 32.7416 157.935 38.9716 148.495 42.4416C145.395 40.4216 141.455 37.1416 137.135 37.3716C133.905 37.5416 131.375 39.5316 129.135 41.1616C124.235 41.3116 119.325 41.4116 114.445 41.8116C122.595 37.5416 134.445 29.4416 144.555 29.6716C150.875 29.8116 154.835 32.4416 158.955 35.8216C164.625 31.0816 170.585 25.6916 178.975 24.0416C185.655 22.7316 191.015 24.4616 196.705 27.0816C201.795 17.7316 209.095 7.83156 220.795 2.85156V2.86156Z" fill="#B7E8F6"/>
<path d="M182.376 11.4433C186.336 7.54325 189.946 4.04325 195.936 1.95325C204.186 -0.916754 212.706 0.413249 220.806 2.86325C209.106 7.84325 201.806 17.7532 196.716 27.0932C191.016 24.4732 185.666 22.7433 178.986 24.0533C170.606 25.7033 164.636 31.0933 158.966 35.8333C154.846 32.4533 150.886 29.8232 144.566 29.6832C134.456 29.4532 122.606 37.5532 114.456 41.8232C112.606 42.6632 111.996 43.3433 109.836 42.8733C109.746 42.8533 109.676 42.8133 109.586 42.7933C109.576 41.7332 109.796 40.6632 109.946 39.6133C112.106 36.7233 114.426 33.9132 117.256 31.3932C124.066 25.3232 134.476 18.3832 145.306 17.9032C151.136 17.6432 154.916 19.2632 159.186 22.2032C166.266 15.7232 171.986 13.4133 182.376 11.4433Z" fill="#FCFCFA"/>
</svg>
