<svg width="388" height="245" viewBox="0 0 388 245" fill="none" xmlns="http://www.w3.org/2000/svg">
<path d="M288.769 162.283C290.289 163.543 291.269 165.243 291.919 166.993C293.749 171.923 295.539 176.443 301.459 178.243C304.579 179.193 305.819 182.883 306.319 186.173C306.669 188.503 307.279 189.953 310.099 189.763C312.349 189.613 313.389 190.993 313.479 193.393C313.559 195.803 312.699 197.963 312.359 200.253C311.269 203.383 308.659 203.323 306.169 202.913C304.099 202.573 302.119 202.393 300.309 202.913C301.769 202.693 303.709 201.803 304.709 203.953C305.579 205.813 304.289 207.203 303.059 208.473C305.109 206.713 307.589 206.693 310.069 206.283C314.889 205.483 319.949 204.923 323.049 200.273C328.309 195.693 334.279 195.933 339.219 201.383C341.069 203.423 342.629 204.173 345.019 202.803C348.049 203.053 350.849 199.953 354.009 202.173C354.999 203.033 355.839 204.063 356.669 205.073C358.739 207.613 360.819 208.703 364.519 208.043C371.419 206.803 382.389 212.273 383.209 222.543C383.369 224.503 383.999 226.113 385.299 227.673C388.779 231.873 388.009 234.633 382.979 236.603C381.859 237.043 380.849 237.533 380.059 238.433C377.069 240.883 373.839 239.113 370.809 238.703C367.469 238.253 364.179 237.433 360.769 237.503C358.459 237.553 356.569 236.633 354.649 235.383C350.829 232.893 346.839 232.193 342.679 234.873C340.019 236.583 337.739 235.553 335.489 233.673C330.639 229.623 325.689 225.703 319.479 223.793C314.179 222.153 309.169 221.783 304.429 225.483C301.629 227.663 299.209 226.503 297.259 223.923C292.979 218.283 288.169 213.173 282.509 208.863C276.659 204.403 270.139 201.513 262.989 200.053C250.039 197.413 236.289 204.483 230.829 216.323C229.569 219.063 229.829 220.753 232.499 222.573C235.839 224.843 239.249 225.973 243.239 225.673C248.229 225.293 252.879 226.383 257.099 229.123C258.759 230.203 260.529 231.583 259.489 233.693C258.539 235.623 256.329 235.083 254.719 234.473C249.369 232.473 243.949 231.703 238.279 232.683C235.549 233.153 233.479 231.443 231.529 229.933C228.229 227.383 224.609 225.473 220.689 224.153C217.459 223.063 214.289 222.253 210.959 224.343C208.859 225.663 206.679 225.063 206.619 222.163C206.569 219.823 205.349 218.833 203.609 217.803C195.529 213.003 186.859 209.253 178.919 204.203C175.949 202.313 172.899 200.543 170.249 198.173C168.879 196.943 167.609 195.663 168.479 193.653C169.209 191.973 170.769 191.313 172.469 191.453C179.989 192.083 187.339 190.813 194.749 189.893C199.109 189.353 203.189 191.963 207.389 193.183C208.349 193.463 209.419 194.633 210.239 193.923C215.549 189.323 218.309 194.173 221.659 196.853C222.229 197.313 222.709 197.883 222.659 197.833C219.839 194.603 215.899 192.313 210.709 191.043C206.859 190.103 203.209 187.403 199.279 185.853C197.759 185.253 197.149 183.533 196.409 182.063C192.159 173.573 184.649 170.443 175.469 173.263C174.209 173.653 172.949 174.063 171.699 174.503C168.599 175.583 166.239 174.613 164.549 171.863C163.629 170.363 162.889 168.743 161.539 167.533C160.649 166.733 159.469 165.623 158.459 166.443C155.309 169.013 151.709 167.663 148.309 168.113C140.589 169.133 133.479 171.923 127.439 176.883C124.629 179.193 121.699 180.183 118.159 180.183C111.259 180.183 104.319 180.723 97.8987 177.273C95.9587 176.233 93.6187 175.653 92.3587 173.793C89.2987 169.293 85.1787 168.373 79.9987 168.823C73.7187 169.373 67.3587 168.583 61.0487 169.183C52.3087 170.003 44.5387 172.373 41.6387 182.103C41.2287 183.483 40.6087 184.863 39.7587 186.083C39.4587 186.413 39.0987 186.663 38.6887 186.833C35.8887 187.303 34.7287 185.403 33.8087 183.323C32.5487 180.473 30.9187 178.403 27.4087 178.123C24.5787 177.903 23.2987 175.743 22.7087 173.033C22.0987 170.253 22.2187 167.673 24.3587 165.693C26.8287 163.403 29.2787 163.973 30.9387 165.833C25.1187 163.483 20.5287 156.563 12.2187 158.313C10.9387 158.583 9.50874 157.883 8.64874 156.863C5.36874 152.943 1.14874 153.293 -3.09126 154.303C-6.41126 155.103 -9.44126 155.583 -11.8713 152.433C-12.6713 151.393 -13.9613 151.643 -15.1213 151.493C-19.2813 150.953 -20.9113 148.263 -19.5913 144.313C-19.2113 143.193 -18.8213 141.983 -18.0013 141.193C-15.3113 138.623 -14.6613 135.923 -15.5613 132.123C-16.4613 128.313 -14.0113 125.123 -10.4313 123.853C-6.98126 122.623 -5.74126 119.523 -3.67126 117.213C-2.34126 115.733 -3.75126 113.613 -4.82126 112.013C-7.93126 107.363 -7.89126 101.693 -4.69126 97.7732C-1.69126 94.0832 3.04874 93.2232 8.57874 95.4032C10.0387 95.9732 11.4187 97.1732 13.0187 95.7332C14.2887 95.0032 15.6387 94.4632 16.8587 93.6132C24.5687 88.2432 35.5387 92.5632 37.8287 101.833C36.9987 106.623 34.1087 111.213 36.4887 116.673C38.8787 115.723 41.1087 114.363 43.7687 114.313C45.4587 114.283 45.5287 112.703 45.7887 111.363C47.0087 104.983 48.0387 103.883 54.0887 103.223C55.7887 103.043 56.1087 102.203 56.7087 100.913C58.7287 96.5532 60.4187 91.8932 65.2987 89.6332C66.3387 89.1532 69.3287 80.1532 68.9387 79.1832C67.8987 76.6632 65.4687 76.2232 63.2487 75.5132C60.6487 74.6832 57.5387 75.8832 55.3087 73.5932C52.9387 71.1632 55.3587 68.1732 54.4487 65.5532C54.0987 64.5332 54.0787 63.5332 54.7587 62.6232C56.9287 60.0332 59.8787 60.7832 62.6487 60.7932C64.5087 59.7232 66.3387 60.3532 68.1887 60.8732C74.8287 62.7432 81.4387 64.7232 88.4987 64.2132C90.6787 64.0532 92.9387 64.2932 94.5587 66.2132C95.3787 67.1832 96.4187 67.5732 97.7187 67.2032C100.389 66.4532 102.609 67.5232 104.139 68.6132C103.569 68.2332 102.239 66.9732 101.109 67.2232C95.9987 68.3532 92.4887 64.3732 88.0087 63.4732C82.8487 62.4332 79.3187 56.8132 82.4587 52.6032C77.8387 55.0032 70.2287 51.8232 68.1387 46.3732C67.1287 43.7532 65.8987 41.3332 64.4987 38.9032C62.8287 36.0132 62.6287 32.6632 64.5787 29.7032C65.9987 27.5532 66.6787 25.2632 66.9587 22.7732C68.8787 15.8932 72.9587 12.4832 80.4987 11.5332C85.6987 10.8832 90.7887 11.4732 95.6587 13.4132C97.7687 14.2532 98.9687 14.0232 99.3387 11.5632C99.4687 10.7232 99.9187 9.90316 100.369 9.15316C105.129 1.20317 118.769 -2.27684 129.889 1.59316C139.979 5.10316 144.159 12.2032 142.649 23.2632C142.629 23.4132 142.619 23.5632 142.579 23.6932C141.359 27.5732 141.319 30.0332 146.699 30.8532C152.319 31.7032 153.969 38.0432 150.479 43.6232C149.059 45.8932 148.379 47.1532 150.949 49.2232C153.719 51.4632 153.129 54.7832 151.679 57.7332C150.979 59.1632 149.959 60.4332 148.759 62.2732C150.679 62.0332 152.139 61.8132 153.609 61.6832C156.629 61.3932 159.209 62.3032 160.809 64.9632C162.269 67.3932 162.389 69.8932 160.539 72.3432C158.899 74.5032 160.159 74.6832 162.099 74.4332C165.239 74.0332 168.269 74.6332 171.109 75.9732C178.139 79.2932 181.039 88.3232 176.679 94.6332C174.899 97.2132 174.439 99.3432 174.639 102.433C174.849 105.813 174.239 108.593 178.349 110.273C180.789 111.273 180.679 113.133 179.819 120.753C191.229 110.863 203.379 109.723 215.389 117.913C224.989 124.463 227.449 134.453 225.239 145.613C226.229 146.023 226.649 145.343 227.159 144.893C234.289 138.663 240.909 138.783 247.819 145.323C252.199 149.463 254.519 154.883 256.799 160.193C257.239 160.193 257.599 160.303 257.759 160.173C268.529 151.193 274.379 151.073 286.829 159.603C287.469 160.473 287.279 161.943 288.739 162.213L288.769 162.283Z" fill="#FDFDFD"/>
<path d="M38.905 186.214C41.145 174.884 48.775 168.254 60.755 167.724C67.355 167.434 73.985 167.734 80.595 167.704C82.215 167.704 84.315 168.344 84.385 165.414C84.415 164.114 85.585 164.224 86.335 164.754C87.405 165.514 88.505 166.354 89.245 167.404C97.435 179.114 109.485 178.874 121.735 177.984C123.235 177.874 124.325 176.704 125.505 175.814C133.815 169.614 142.725 165.154 153.545 166.504C154.635 166.644 155.755 166.624 156.075 165.374C157.055 161.554 159.145 163.214 160.985 164.384C163.535 166.014 165.185 168.464 166.395 171.194C167.355 173.364 168.625 173.854 170.915 172.764C175.655 170.494 180.625 169.784 185.925 170.824C192.005 172.014 196.015 175.494 198.165 181.044C199.195 183.694 200.945 184.384 203.375 185.494C210.795 188.904 219.085 191.174 224.275 198.284C225.375 199.794 226.255 201.414 225.475 203.994C223.195 199.124 220.055 195.784 215.605 193.794C214.665 193.374 213.595 192.914 212.715 193.734C211.825 194.564 212.775 195.314 213.095 196.074C213.435 196.894 213.905 197.874 213.125 198.524C211.985 199.464 211.345 198.134 210.555 197.624C204.155 193.474 197.495 191.204 189.575 192.684C184.325 193.664 178.865 194.514 173.405 193.474C172.155 193.234 170.405 192.834 169.755 194.154C168.915 195.844 170.985 196.194 171.875 196.894C179.435 202.814 188.005 207.064 196.445 211.524C199.695 213.234 202.885 215.064 206.065 216.894C208.695 218.394 212.125 219.714 207.485 223.674C217.405 217.264 224.635 223.324 231.915 227.854C234.865 229.694 237.215 231.274 241.045 230.424C245.035 229.534 249.225 230.174 253.135 231.844C254.825 232.564 256.645 232.994 258.555 233.104C254.685 229.464 250.105 227.214 244.845 227.704C239.085 228.234 234.305 226.684 229.665 223.404C227.075 221.574 226.645 220.024 227.965 217.214C236.515 198.974 255.355 192.554 274.365 201.534C284.325 206.234 292.055 213.574 298.455 222.354C300.425 225.054 301.535 225.844 304.375 223.124C308.275 219.394 313.395 220.114 318.175 221.264C325.525 223.034 331.485 227.364 336.945 232.364C338.865 234.124 340.065 234.584 342.455 232.754C346.595 229.584 351.215 230.624 355.155 233.334C357.765 235.124 360.285 235.864 363.355 235.664C367.685 235.374 371.735 237.004 375.865 237.934C377.035 238.204 377.795 238.224 378.565 237.364C380.325 240.444 378.215 242.274 375.895 242.354C365.085 242.724 354.275 243.584 343.445 242.894C342.705 242.844 342.135 242.284 341.555 241.834C330.665 241.874 319.765 241.904 308.875 241.944C300.675 242.014 292.505 243.114 284.275 242.284C278.285 241.674 272.275 242.414 266.255 242.304C255.525 242.104 244.845 240.764 234.115 241.174C231.005 241.294 227.955 240.884 225.005 239.864C222.835 238.154 220.365 237.484 217.625 237.814C209.635 238.774 202.155 235.184 194.165 235.274C189.435 235.324 186.315 230.784 186.075 225.864C186.005 224.544 185.855 223.194 186.095 221.904C186.705 218.584 186.295 216.344 182.075 216.444C180.475 216.484 179.245 215.054 178.295 213.664C177.135 211.964 175.905 210.294 174.495 208.814C170.225 204.334 165.805 200.954 158.695 202.734C153.505 204.034 147.885 203.484 142.475 202.764C141.015 202.574 139.545 202.174 138.105 202.384C133.885 202.994 130.485 202.044 127.465 198.714C125.345 196.374 121.755 196.554 118.785 196.044C115.355 195.454 113.225 193.964 112.075 190.634C110.685 186.604 107.585 185.834 104.265 188.604C102.455 190.114 100.705 191.644 98.465 192.514C96.195 193.394 95.805 195.464 95.495 197.534C95.175 199.724 94.405 201.854 91.855 201.694C89.145 201.524 89.075 199.084 88.985 196.994C88.775 192.144 88.765 187.294 90.305 182.604C91.375 179.344 90.445 176.794 87.495 175.094C77.255 169.214 59.815 168.324 50.105 175.514C47.285 177.604 45.295 180.164 43.535 183.064C42.495 184.784 41.535 186.804 38.875 186.204L38.905 186.214Z" fill="#B4F0FB"/>
<path d="M224.312 238.202C235.802 239.662 247.392 239.422 258.932 239.932C275.592 240.662 292.212 242.272 308.912 241.952C303.092 242.482 297.272 243.262 291.442 243.492C279.412 243.962 267.362 244.382 255.322 244.392C159.132 244.472 62.9324 244.462 -33.2576 244.422C-35.1876 244.422 -38.1476 245.552 -38.8576 243.382C-39.6576 240.932 -36.9076 239.332 -35.0876 237.962C-31.0776 234.932 -26.5876 232.692 -21.8476 231.042C-19.9176 230.372 -18.5476 229.432 -17.8976 227.342C-15.3876 219.282 -11.1476 212.042 -7.06758 204.732C-4.30758 206.332 -4.58758 209.272 -4.32758 211.752C-4.00758 214.792 -2.47758 215.532 0.102421 215.022C3.01242 214.452 5.86242 214.202 8.82242 214.812C10.9724 215.252 12.2324 213.702 13.5224 212.172C16.9224 208.112 20.5724 204.262 25.0824 201.402C26.9624 200.212 29.0724 199.122 30.5624 202.062C27.1924 207.372 24.2424 212.922 21.5824 218.602C20.6824 220.532 19.4824 221.422 17.2324 221.552C8.24242 222.072 -0.297577 224.262 -7.96758 229.232C-0.397579 224.312 8.02242 222.082 16.8924 221.582C19.5524 221.432 20.7724 220.282 21.8524 218.142C24.4624 212.912 27.3724 207.842 30.2724 202.762C34.1224 196.022 45.5124 193.012 51.8124 197.722C52.2124 198.132 52.7824 198.972 53.1024 198.732C57.0124 195.912 57.1624 195.762 60.7424 197.522C69.0624 201.602 74.5024 208.242 77.7424 216.842C79.5724 221.702 79.5524 221.512 83.6024 218.702C90.7324 213.752 98.7024 211.452 107.362 212.742C113.972 213.732 118.772 217.272 120.172 224.222C120.582 226.242 121.512 226.942 123.492 226.722C125.682 226.482 127.902 226.662 130.092 226.532C134.712 226.252 138.452 227.782 141.132 231.612C142.532 233.602 144.492 234.332 146.822 234.412C149.022 234.482 151.232 234.512 153.432 234.472C169.142 234.202 184.842 235.142 200.502 235.912C207.892 236.272 215.312 237.402 222.792 237.422C223.432 237.422 223.892 237.762 224.302 238.202H224.312Z" fill="#6CACE7"/>
<path d="M224.312 238.199C206.402 238.219 188.522 237.459 170.632 236.619C162.852 236.259 155.052 236.489 147.262 236.479C143.732 236.479 140.892 235.799 138.832 232.219C135.952 227.209 130.632 228.649 126.032 228.579C124.872 228.559 123.662 228.729 122.562 229.079C119.592 230.009 117.782 230.229 118.172 225.899C118.602 221.129 114.772 216.589 109.782 215.409C98.7319 212.799 89.2019 215.719 81.2119 223.779C80.4519 224.549 80.2419 226.289 78.7319 225.819C77.4019 225.409 77.6819 223.839 77.4119 222.759C75.1819 213.729 70.8119 206.159 62.8319 200.989C60.2419 199.309 57.4419 198.179 54.0619 197.619C54.9319 199.849 57.2919 199.559 58.3719 201.579C55.5519 201.029 53.3819 199.809 51.2019 198.609C44.3919 194.819 38.6219 195.449 32.8419 200.549C32.0519 201.239 31.5419 202.649 30.0319 202.019C28.1619 200.839 27.0319 202.339 25.8019 203.239C21.3919 206.439 17.4819 210.149 14.2619 214.579C13.1719 216.079 11.9619 217.919 9.64188 217.149C5.53188 215.799 1.52187 216.729 -2.47813 217.519C-4.58813 217.939 -5.92813 217.679 -6.11813 215.199C-6.38813 211.699 -6.74812 208.219 -7.07812 204.719C-6.50813 203.289 -5.34813 202.089 -5.36813 200.419C-5.53813 199.179 -5.22812 198.099 -4.37812 197.169C1.60188 190.659 8.71188 186.429 17.7819 186.029C21.5619 185.859 24.8119 186.929 27.1419 189.929C29.5219 192.999 31.8319 192.359 34.1619 190.109C35.6419 188.679 37.1319 187.299 38.8919 186.219V186.199C42.4719 181.819 44.6419 176.499 49.7619 173.119C60.0119 166.359 78.3819 167.129 89.0019 173.489C92.3519 175.489 94.3719 178.309 92.5419 182.699C90.4519 187.709 90.8019 193.079 90.9219 198.379C90.9419 199.239 90.9219 200.379 92.0819 200.409C93.1319 200.429 93.3919 199.399 93.4919 198.489C93.5919 197.609 93.5519 196.719 93.7019 195.849C93.9019 194.689 93.8419 192.999 94.5619 192.509C98.4219 189.859 102.372 187.329 106.272 184.729C108.462 183.279 110.912 185.759 113.162 186.749C114.522 187.339 115.272 187.999 114.502 189.769C113.252 192.619 115.572 193.939 117.542 193.719C120.532 193.399 122.862 195.099 125.612 195.319C127.652 195.489 129.512 196.189 130.472 198.469C131.012 199.769 132.172 200.879 133.942 200.719C144.142 199.809 154.462 202.759 164.602 199.749C166.242 199.259 167.392 200.429 168.602 201.209C172.982 204.029 176.802 207.489 179.542 211.919C181.322 214.799 183.312 215.799 186.462 214.249C187.462 213.759 188.802 213.159 189.762 214.159C190.722 215.149 189.492 216.029 189.132 216.899C187.702 220.289 187.772 223.849 188.162 227.339C188.552 230.839 191.192 233.199 194.372 233.249C202.472 233.389 210.002 237.359 218.192 236.479C220.082 236.269 221.982 236.079 223.872 235.879C224.562 235.809 225.542 235.369 225.792 236.239C226.082 237.239 224.722 237.449 224.322 238.189L224.312 238.199Z" fill="#8DC6F3"/>
<path d="M38.8995 186.233C38.4595 189.053 36.6095 190.923 34.5095 192.563C30.3195 195.843 29.2595 195.803 26.0495 191.593C23.0895 187.713 19.1695 187.483 14.9795 188.243C8.76947 189.363 3.44947 192.303 -1.12053 196.663C-2.49053 197.973 -3.95053 199.193 -5.36053 200.453C-7.22053 199.593 -9.19053 198.893 -10.9305 197.833C-16.8505 194.203 -16.5605 187.963 -10.3805 184.733C-9.48053 184.263 -8.55053 183.863 -6.89053 183.093C-11.4805 179.853 -15.1705 176.413 -17.0805 171.503C-17.5605 170.273 -19.0805 170.463 -20.1605 170.083C-33.9905 165.263 -41.4605 148.393 -35.5905 135.023C-32.7405 128.523 -28.0205 124.173 -20.7005 123.533C-17.9605 123.293 -17.8105 122.343 -18.2105 119.913C-19.8305 110.033 -16.2605 101.983 -8.67053 95.743C-3.94053 91.853 1.56947 90.353 7.36947 93.073C10.3295 94.463 10.8695 93.513 10.7895 90.883C11.4395 90.323 12.1295 90.363 12.8495 90.753C14.7295 92.663 14.5795 94.733 13.2895 96.873C13.1895 99.243 12.2995 100.403 10.0595 98.663C7.85947 96.953 5.41947 96.203 2.67947 96.243C-0.420532 96.293 -2.99053 97.673 -3.93053 100.513C-4.99053 103.703 -6.78053 107.333 -3.40053 110.343C-1.27053 112.243 -1.64053 115.293 0.149467 117.313C0.359467 117.553 0.199471 118.133 0.209469 118.553C-4.86053 118.263 -4.12053 125.353 -9.14053 125.683C-12.6905 125.913 -14.8105 130.163 -13.2705 133.393C-11.7605 136.543 -12.6605 138.633 -14.8805 140.823C-16.0005 141.933 -16.9205 143.353 -17.5805 144.803C-19.2505 148.483 -18.2005 149.813 -14.1105 149.403C-12.7705 149.273 -10.9105 148.933 -10.5205 150.253C-9.18053 154.813 -6.37053 152.883 -3.57053 152.363C1.36946 151.443 6.45947 150.433 9.95947 155.673C10.8995 157.083 12.2095 156.543 13.5395 156.393C21.4095 155.523 32.3595 163.153 34.6995 171.153C32.7695 170.583 32.3795 168.593 31.1095 167.483C29.6695 166.223 28.1695 165.413 26.3195 166.243C24.5995 167.023 24.2795 168.753 24.3295 170.363C24.4495 173.733 24.7695 177.043 29.6295 176.453C32.3195 176.123 33.3295 178.113 34.5195 180.103C35.7995 182.243 35.5495 185.563 38.8795 186.243L38.8995 186.233Z" fill="#B5F0FB"/>
<path d="M54.8007 62.6936C56.4307 64.6636 57.8207 66.6136 56.5307 69.4336C55.1307 72.4936 56.7507 73.3436 59.5807 73.2436C63.5207 73.1036 67.2107 73.8436 70.1107 76.7936C71.7807 78.4836 72.2607 79.9036 70.9407 82.5236C68.7207 86.9436 67.5907 91.4236 62.7907 94.6136C59.5807 96.7436 57.4507 101.554 58.2107 106.824C55.2607 105.704 52.5807 103.474 49.9507 106.144C47.7107 108.424 47.5607 111.414 47.8607 114.404C48.0207 116.034 48.2607 117.554 45.7907 116.864C41.1907 115.574 38.1007 117.204 36.5707 122.264C32.1807 115.204 32.9307 108.744 36.3807 102.274C40.3907 103.184 43.0707 101.904 43.9707 97.6636C44.4307 95.4936 47.9807 94.5536 47.0207 92.3636C46.2307 90.5536 43.3607 90.1736 41.5307 88.9236C37.3607 86.0636 34.2207 82.5836 33.6207 77.3236C33.9307 75.8636 32.2007 74.8736 32.7007 73.3736C34.5007 73.3536 34.5407 71.9436 34.9107 70.6836C37.7407 60.9836 43.3807 58.3836 52.6807 62.4036C53.3107 62.6736 54.0907 62.6136 54.8007 62.7136V62.6936Z" fill="#B6F1FA"/>
<path d="M67.0116 22.8438C67.0816 23.5738 67.4316 24.4337 67.1616 25.0137C63.8516 32.3037 66.4016 38.7737 69.7816 45.1837C71.0716 47.6337 71.9216 50.4937 75.6016 49.9937C76.3616 49.8937 77.1816 49.7937 77.4416 50.6837C78.3216 53.6337 79.9616 52.1138 81.5016 51.4538C83.3616 50.6637 85.2216 49.6938 87.7316 51.4538C85.1216 52.4038 82.6916 53.4037 83.1016 56.4637C83.5116 59.5537 85.9416 60.9238 88.5016 61.5938C93.2816 62.8338 97.0716 66.2937 102.252 66.8737C105.652 67.2537 108.172 70.1437 109.442 74.0137C107.422 73.7737 107.182 72.2037 106.242 71.4137C103.722 69.2837 101.232 67.3037 97.5616 68.5137C96.8016 68.7637 95.5116 68.8437 95.0516 68.4037C91.7316 65.1837 87.6316 66.3137 83.7716 66.1837C76.3516 65.9337 69.4116 63.8337 62.6816 60.8637C60.4216 57.3237 57.7516 54.0237 56.9616 49.6837C55.5716 42.0037 57.0016 35.1137 62.7916 29.6637C64.8916 27.6837 66.3516 25.5937 67.0016 22.8537L67.0116 22.8438Z" fill="#B8F0F9"/>
<path d="M323.064 200.293C323.304 202.463 325.994 202.013 326.914 204.113C321.804 203.783 318.024 206.993 313.594 208.363C313.314 208.453 313.014 208.743 312.804 208.683C307.404 207.113 303.574 209.623 300.344 214.413C299.997 211.406 301.164 208.086 303.844 204.453C301.014 202.933 298.534 204.333 295.914 205.293C297.684 202.403 299.744 201.463 304.164 201.103C306.904 200.883 309.754 201.633 312.374 200.263C312.504 200.513 312.634 200.773 312.764 201.023C316.014 198.153 319.574 199.753 323.064 200.293Z" fill="#B1EBF8"/>
<path d="M32.716 73.3538C33.046 74.8638 38.236 73.0338 35.146 76.8938C32.866 78.0138 30.556 76.9438 28.256 76.9538C20.076 76.9838 17.656 78.6438 15.226 86.3738C14.666 88.1438 14.446 90.1638 12.256 90.8738C11.766 90.8738 11.266 90.8738 10.776 90.8638C10.126 86.6438 11.576 82.7938 13.226 79.1038C15.566 73.8838 20.576 71.7138 28.016 72.3838C29.596 72.5238 31.146 73.0238 32.706 73.3638L32.716 73.3538Z" fill="#E5F8FA"/>
<path d="M288.772 162.286C287.822 162.596 286.872 162.906 285.822 163.246C285.372 161.806 286.972 160.976 286.862 159.686C292.902 151.966 299.372 152.536 303.062 161.346C304.042 163.696 304.882 163.536 306.852 162.926C312.142 161.276 315.822 162.966 318.212 167.786C310.012 162.726 307.752 162.926 301.832 169.886C303.372 164.786 302.012 161.046 298.862 157.916C296.312 155.376 293.472 156.036 290.802 157.636C289.142 158.626 286.862 159.636 288.772 162.306V162.286Z" fill="#D3F2F6"/>
<path d="M176.391 100.702C179.131 94.7624 184.461 91.8524 191.181 92.3324C196.211 92.6924 199.201 94.9624 201.151 100.642C197.271 96.6624 193.391 94.9524 188.591 95.1324C183.691 95.3224 180.111 97.9324 176.391 100.702Z" fill="#CAF1F9"/>
<path d="M12.25 90.863C12.72 87.513 13.28 84.173 14.91 81.1431C18.52 74.4331 29.09 72.213 35.14 76.883C36.8 83.433 38.62 85.073 53.23 92.793C47.5 94.453 45.11 98.193 44.08 103.303C43.52 106.103 39.35 105.483 36.4 102.243C34.5 97.393 30.86 94.583 25.91 93.343C22.89 92.593 20.04 92.973 17.9 95.373C16.55 96.893 15.13 97.313 13.28 96.823C12.13 94.963 12.6 92.833 12.26 90.843L12.25 90.863Z" fill="#39B5F0"/>
<path d="M69.7839 108.404C78.4339 105.114 82.4139 112.084 87.8539 115.924C84.8639 114.494 81.0339 116.904 78.4239 113.704C77.4739 112.534 76.2639 113.394 76.0139 114.894C75.4239 118.424 74.0439 119.844 70.3139 117.854C67.6139 116.404 65.9039 118.564 65.7139 120.874C65.4539 123.994 63.8139 125.204 61.3139 126.624C57.2339 128.934 55.0439 132.704 55.6439 137.674C55.9739 140.394 55.3339 141.924 51.9939 142.184C46.7839 142.594 44.6339 146.574 45.3839 153.694C42.2939 151.994 41.4939 149.474 41.4539 146.414C41.4039 142.604 43.6939 139.964 46.6939 138.994C50.5539 137.754 51.6439 135.424 51.7439 131.954C51.9039 126.524 54.8139 123.264 59.8739 121.844C61.5239 121.384 62.1839 120.224 62.8339 118.874C64.1539 116.144 65.7939 114.234 69.2539 113.644C73.8239 112.874 70.1439 110.294 69.7839 108.404Z" fill="#BCEEF8"/>
<path d="M162.179 138.492C161.989 133.722 156.049 132.422 156.079 127.092C156.099 124.762 152.059 123.722 149.389 124.732C146.729 125.732 148.969 127.062 149.789 127.942C152.769 131.152 155.299 134.572 155.939 139.142C149.509 127.952 140.629 120.722 126.969 120.222C130.139 117.522 133.159 114.982 137.719 114.932C137.159 117.082 134.859 116.852 134.109 118.602C137.609 119.992 141.319 120.542 144.209 122.882C145.819 124.182 147.229 124.462 148.699 122.622C150.039 120.942 150.569 119.212 149.269 117.422C148.619 116.522 147.299 115.252 146.579 115.412C142.339 116.372 139.329 113.992 135.209 111.172C141.089 111.832 147.329 111.522 149.999 115.042C152.689 118.582 155.159 122.312 158.099 125.812C159.719 127.742 160.699 130.812 162.299 133.222C163.349 134.812 163.719 136.642 162.179 138.512V138.492Z" fill="#C2F0F7"/>
<path d="M102.851 25.7596C102.691 21.2496 105.171 19.1996 109.121 18.1896C110.951 17.7196 113.581 17.7196 112.451 14.4496C112.201 13.7196 112.541 12.7096 113.441 12.9396C116.521 13.7396 120.831 11.4096 122.341 16.3996C122.841 18.0596 124.821 18.3896 125.841 19.5996C127.731 21.8396 128.321 24.3496 127.331 27.7096C125.611 26.2596 125.431 24.2596 123.871 23.3796C122.981 22.8796 121.811 21.7196 121.171 22.3596C117.911 25.6396 115.061 22.6296 112.051 22.0596C108.301 21.3496 106.691 25.9196 102.861 25.7596H102.851Z" fill="#BEF1F9"/>
<path d="M99.5391 94.8198C110.869 91.2498 118.789 98.0298 116.889 109.87C114.619 106.17 113.299 102.53 110.329 99.9298C107.299 97.2798 103.609 96.2298 99.5391 94.8198Z" fill="#B7EFF9"/>
<path d="M30.0416 202.023C35.4816 196.283 41.8216 193.963 49.5316 196.963C50.2916 197.253 51.3516 197.363 51.2216 198.613C40.6216 195.153 34.8216 197.143 28.9316 206.693C26.4716 210.683 24.4016 214.923 22.4116 219.173C21.3616 221.423 20.1216 222.553 17.4816 222.583C8.18156 222.703 -0.468438 225.263 -8.34844 230.233C-9.87844 231.203 -11.2484 231.523 -12.8984 230.023C-7.14844 228.873 -2.81844 224.983 2.57156 223.293C6.97156 221.903 11.4416 221.223 15.9716 220.973C18.7616 220.813 20.1416 219.603 21.1816 217.193C23.5216 211.793 26.3816 206.663 30.0516 202.033L30.0416 202.023Z" fill="#DCEEF4"/>
<path d="M136.844 211.78C139.014 208.42 142.444 207.25 146.084 206.45C152.364 205.07 158.644 205.27 164.884 206.63C170.664 207.89 174.934 211.1 177.334 216.71C176.894 216.81 176.514 217 176.434 216.91C168.304 207.96 152.304 204.9 140.884 210.13C139.564 210.74 138.194 211.24 136.844 211.78Z" fill="#E4F3F8"/>
<path d="M136.844 211.781C135.474 213.251 134.104 214.711 132.734 216.181C133.514 214.121 134.504 212.271 136.844 211.781Z" fill="#E4F3F8"/>
</svg>
