<svg width="504" height="472" viewBox="0 0 504 472" fill="none" xmlns="http://www.w3.org/2000/svg">
<path d="M74.172 281.631C54.0275 277.249 35.1002 267.451 19.8731 253.563C18.7168 236.473 22.4536 218.569 30.0245 203.208C19.6418 214.917 12.5091 226.858 10.9754 242.426C1.38396 229.535 -3.10748 211.57 2.36989 196.477C5.83888 186.897 12.7282 178.9 20.4208 172.218C34.9663 159.583 52.5425 151.087 69.1085 141.265C85.6867 131.442 101.924 119.623 111.333 102.814C120.839 85.846 129.372 69.1705 139.219 52.3976C149.066 35.6247 161.299 19.4725 178.291 10.0149C192.264 2.23709 208.635 -0.489419 224.617 0.0704887C250.348 0.971211 275.97 10.4531 295.019 27.7616C314.068 45.0822 326.082 70.339 325.899 96.0826C325.851 102.193 325.12 108.388 322.71 114C317.61 125.855 305.998 133.28 295.847 141.265C270.006 161.592 243.532 182.674 229.084 212.19C218.361 234.088 214.806 259.844 199.251 278.613C185.362 295.373 163.246 304.113 141.483 304.381C119.719 304.648 98.382 297.09 79.7833 285.794C78.2131 284.845 74.2329 283.481 74.172 281.643V281.631Z" fill="#7267CB"/>
<path opacity="0.25" d="M62.3814 166.737C69.5263 161.515 77.8397 158.849 86.494 157.024C75.4906 163.499 65.1323 174.502 58.9733 185.688C69.3803 173.285 83.6701 164.935 96.7306 155.38C109.791 145.825 121.939 134.639 126.308 119.047C116.145 133.787 100.577 145.01 83.6458 150.84C96.7306 143.148 106.48 131.816 114.331 118.828C102.585 134.895 83.731 143.805 66.1669 153.189C48.6028 162.562 30.5397 174.21 22.9688 192.626C36.0901 173.529 57.111 162.44 77.6328 151.68C71.5834 156.159 66.9824 160.785 62.3692 166.737H62.3814Z" fill="white"/>
<g style="mix-blend-mode:multiply" opacity="0.5">
<path d="M140.435 133.545C129.395 145.558 114.935 153.787 100.754 161.869C86.5741 169.951 72.1747 178.325 61.366 190.546C50.5574 202.766 43.7533 219.722 47.6604 235.57C50.3139 246.354 57.6292 255.556 66.4782 262.275C75.3272 268.982 85.6612 273.437 96.0681 277.295C112.281 283.308 129.03 288.043 146.143 290.514C162.32 292.839 178.995 293.106 194.819 289.017C199.542 287.8 204.325 286.108 207.904 282.785C212.054 278.926 214.075 273.339 215.609 267.886C221.914 245.356 221.999 221.487 227.987 198.884C231.432 185.896 236.861 172.933 235.607 159.556C234.658 149.478 229.971 140.166 224.847 131.439C218.98 121.446 212.286 111.708 203.351 104.332C195.367 97.735 177.048 87.0603 168.029 96.2987C157.244 107.363 150.915 122.164 140.447 133.557L140.435 133.545Z" fill="#7267CB"/>
</g>
<g style="mix-blend-mode:multiply" opacity="0.5">
<path d="M138.158 158.016C128.652 167.948 118.306 177.199 110.406 188.458C102.446 199.802 97.1995 212.923 94.1566 226.446C91.7709 237.048 90.9066 248.891 96.7005 258.081C101.265 265.323 109.286 269.693 117.393 272.42C131.902 277.3 147.847 277.836 162.648 273.953C168.089 272.517 173.542 270.411 177.632 266.553C182.707 261.781 185.129 254.929 187.734 248.465C193.504 234.163 200.953 220.543 206.114 205.997C211.275 191.464 214.099 175.531 210.24 160.584C208.232 152.806 204.495 145.588 200.296 138.748C196.279 132.199 178.496 107.344 170.036 117.435C164.717 123.764 160.64 131.42 155.503 137.981C150.062 144.943 144.256 151.638 138.146 158.016H138.158Z" fill="#7267CB"/>
</g>
<path d="M92.3879 474.797C106.24 444.075 105.363 407.851 93.7633 376.216C92.1201 371.749 90.27 367.306 89.5519 362.608C87.9087 351.897 92.2662 341.295 96.0638 331.144C110.098 293.593 118.472 253.974 118.594 213.879C124.266 209.936 131.484 209.972 138.386 210.447C145.275 210.921 151.957 212.905 158.591 214.816C161.622 215.693 165.237 216.435 167.623 214.378C168.499 213.624 169.071 212.577 169.607 211.554C177.677 196.242 182.606 179.287 183.994 162.039C192.112 173.919 200.925 184.131 211.94 193.382C222.956 202.632 236.479 209.449 250.842 210.374C243.028 216.837 236.929 224.846 234.106 234.584C233.667 236.117 233.29 237.712 233.509 239.294C233.728 240.877 234.653 242.447 236.138 243.031C258.182 251.564 281.406 258.842 302.609 269.31C310.533 273.217 318.396 277.405 325.31 282.894C347.28 300.336 344.493 328.636 351.418 355.816C361.387 394.9 367.327 434.885 373.267 474.784H92.3879V474.797Z" fill="#FFC59A"/>
<g opacity="0.42">
<path d="M311.036 333.821C298.109 305.461 271.903 283.113 264.149 253.389C254.765 249.945 245.356 246.597 236.154 243.031C234.669 242.459 233.744 240.877 233.525 239.294C233.306 237.712 233.683 236.117 234.121 234.584C236.933 224.846 243.043 216.849 250.858 210.374C236.495 209.449 222.972 202.645 211.956 193.382C200.941 184.131 192.128 173.919 184.009 162.039C182.622 179.287 177.692 196.242 169.622 211.554C169.087 212.577 168.515 213.624 167.638 214.378C165.252 216.435 161.625 215.693 158.607 214.816C151.973 212.905 145.291 210.921 138.401 210.447C131.512 209.972 124.282 209.936 118.61 213.879C118.488 253.974 110.114 293.593 96.0795 331.144C92.2818 341.295 87.9243 351.897 89.5675 362.608C90.2856 367.306 92.1479 371.749 93.779 376.216C105.391 407.851 106.255 444.075 92.4035 474.797H300.056C307.846 453.581 315.186 432.158 318.765 409.884C322.879 384.347 321.759 357.35 311.036 333.809V333.821Z" fill="#F2AB88"/>
</g>
<path d="M234.12 234.576C236.931 224.838 243.042 216.841 250.856 210.366C236.493 209.441 222.97 202.637 211.955 193.374C200.939 184.123 192.127 173.911 184.008 162.031C182.706 178.123 178.336 193.946 171.203 208.431C187.526 225.167 210.202 235.696 233.523 237.546C233.621 236.536 233.852 235.537 234.132 234.564L234.12 234.576Z" fill="#F2AB88"/>
<path d="M302.869 416.242C304.744 407.527 305.036 398.556 304.731 389.646C303.806 362.673 297.282 335.81 284.867 311.843C280.655 303.713 275.774 295.922 272.171 287.512C267.607 276.849 265.185 265.286 265.014 253.698C255.35 250.132 245.637 246.687 236.143 243.023C234.658 242.451 233.733 240.869 233.513 239.287C233.294 237.704 233.672 236.11 234.11 234.576C234.244 234.113 234.39 233.651 234.536 233.201C212.042 227.443 191.326 214.748 176.026 197.281C174.175 202.162 172.033 206.934 169.599 211.547C169.063 212.569 168.491 213.616 167.615 214.371C165.229 216.428 161.602 215.685 158.583 214.809C151.949 212.898 145.267 210.914 138.378 210.439C131.488 209.964 124.258 209.928 118.586 213.872C118.465 253.966 110.09 293.585 96.056 331.136C92.2584 341.287 87.9008 351.889 89.544 362.6C90.2622 367.299 92.1245 371.741 93.7555 376.208C105.368 407.843 106.232 444.067 92.3801 474.789H276.103C280.911 466.208 285.548 457.553 290.003 448.79C295.31 438.358 300.398 427.671 302.857 416.23L302.869 416.242Z" fill="white"/>
<g opacity="0.5">
<path d="M114.93 411.535C135.513 438.472 166.089 456.839 198.722 466.005C210.261 469.243 222.408 471.421 234.227 469.401C253.045 466.2 268.43 452.993 282.258 439.835C288.891 433.53 295.391 427.103 301.806 420.567C302.195 419.131 302.56 417.694 302.865 416.234C304.739 407.519 305.031 398.548 304.727 389.638C303.802 362.665 297.278 335.802 284.862 311.835C283.219 308.671 281.491 305.555 279.762 302.439C267.615 313.625 254.895 324.178 241.664 334.049C237.818 336.922 233.655 339.831 228.872 340.196C222.141 340.707 216.201 336.094 211.186 331.578C199.72 321.269 189.057 310.119 178.407 298.97C173.246 293.577 168.061 288.137 163.995 281.88C160.173 275.989 157.41 269.477 154.976 262.892C148.5 245.364 144.082 226.79 135.647 210.273C129.622 210.017 123.524 210.431 118.594 213.864C118.472 253.958 110.098 293.577 96.0638 331.128C92.2662 341.279 87.9087 351.881 89.5519 362.592C90.27 367.291 92.1323 371.733 93.7633 376.2C105.375 407.835 106.24 444.059 92.3879 474.781H112.995C115.953 453.894 116.744 432.836 114.93 411.511V411.535Z" fill="#DDDDDD"/>
</g>
<path d="M299.283 143.609C291.456 218.26 258.191 219.282 242.988 218.247C237.474 217.87 232.106 216.312 226.97 214.267C204.829 205.455 186.973 187.501 175.848 166.419C164.722 145.338 159.963 121.31 159.415 97.4898C159.257 90.5639 161.144 83.7233 164.333 77.5765C168.703 69.1535 173.985 61.1931 180.047 53.8899C184.124 48.9847 188.616 44.3106 194.093 41.0242C199.205 37.9569 204.987 36.192 210.781 34.7922C224.194 31.5545 238.229 30.1425 251.837 32.4795C265.433 34.8287 278.615 41.1703 287.647 51.6016C295.583 60.7671 299.952 72.5495 302.338 84.4415C306.477 105.085 301.486 122.673 299.283 143.609Z" fill="#FFC59A"/>
<path d="M248.477 174.513C248.575 176.728 248.684 179.029 249.743 180.976C250.863 183.033 252.884 184.421 254.953 185.516C256.45 186.308 258.069 186.989 259.761 187.038C263.242 187.123 266.188 184.543 268.342 181.804C270.496 179.065 272.334 175.937 275.292 174.099C275.925 173.697 276.631 173.357 277.106 172.785C277.97 171.75 277.909 170.18 277.288 168.987C276.668 167.794 275.572 166.93 274.44 166.2C270.862 163.85 266.723 162.511 262.609 161.343C258.775 160.26 254.101 159.493 251.253 162.28C247.674 165.798 248.271 169.961 248.465 174.501L248.477 174.513Z" fill="#F2AB88"/>
<path d="M281.967 151.213C277.537 153.586 271.974 153.72 267.422 151.566C268.87 153.611 270.453 155.57 272.157 157.421C272.522 157.81 272.924 158.224 273.447 158.333C273.946 158.431 274.457 158.236 274.92 158.029C278.097 156.654 281.456 154.475 281.979 151.055" fill="#F2AB88"/>
<path d="M285.301 165.541C285.301 171.347 287.845 176.544 291.874 180.123C294.881 171.237 297.315 160.331 298.897 146.93C291.01 149.437 285.289 156.813 285.289 165.541H285.301Z" fill="#FFA087"/>
<path d="M218.063 165.54C228.845 165.54 237.587 156.799 237.587 146.016C237.587 135.233 228.845 126.492 218.063 126.492C207.28 126.492 198.539 135.233 198.539 146.016C198.539 156.799 207.28 165.54 218.063 165.54Z" fill="#FFA087"/>
<g style="mix-blend-mode:multiply" opacity="0.27">
<path d="M164.953 118.629C168.945 121.575 170.552 126.65 172.913 131.02C178.354 141.098 188.518 147.988 199.363 151.651C210.208 155.315 221.808 156.07 233.249 156.399C244.874 156.727 257.106 156.496 267.209 150.739C269.717 149.302 272.09 147.537 274.877 146.734C277.653 145.943 281.073 146.405 282.753 148.755C284.968 151.834 283.154 156.167 283.885 159.892C284.724 164.164 288.997 167.11 293.318 167.706C293.999 167.804 294.669 167.84 295.351 167.852C296.994 160.793 298.333 152.771 299.282 143.63C301.473 122.694 306.476 105.106 302.337 84.4625C299.952 72.5705 295.582 60.8003 287.646 51.6226C278.614 41.1913 265.432 34.8376 251.836 32.5006C238.24 30.1514 224.194 31.5755 210.78 34.8132C204.986 36.213 199.205 37.9658 194.092 41.0453C188.627 44.3317 184.124 49.0057 180.046 53.911C173.984 61.2141 168.702 69.1745 164.332 77.5975C161.143 83.7443 159.256 90.5849 159.415 97.5108C159.475 99.8843 159.585 102.27 159.719 104.644C155.227 103.086 149.799 104.644 147.133 108.806C145.478 111.387 145.052 114.576 145.453 117.631C152.464 116.292 159.475 114.612 164.953 118.653V118.629Z" fill="#F2AB88"/>
</g>
<path d="M147.123 108.781C145.236 111.727 144.932 115.488 145.662 118.908C146.393 122.329 148.048 125.481 149.862 128.476C151.371 130.971 153.051 133.454 155.449 135.122C157.834 136.789 161.096 137.507 163.713 136.229C166.099 135.073 167.511 132.541 168.278 130.009C169.081 127.344 169.349 124.52 169.032 121.757C168.546 117.497 166.659 109.962 163.372 106.822C158.686 102.355 150.592 103.401 147.135 108.781H147.123Z" fill="#FFC59A"/>
<path d="M152.047 114.451C151.073 115.961 150.927 117.896 151.293 119.649C151.67 121.401 152.522 123.02 153.447 124.554C154.226 125.832 155.09 127.11 156.307 127.962C157.537 128.814 159.204 129.191 160.555 128.534C161.773 127.938 162.503 126.648 162.905 125.345C163.318 123.982 163.452 122.533 163.294 121.109C163.051 118.918 162.077 115.048 160.385 113.441C157.975 111.153 153.824 111.688 152.047 114.451Z" fill="#F2AB88"/>
<path d="M279.318 136.328C277.967 137.923 277.432 140.041 277.054 142.098C276.616 144.52 276.421 147.283 277.992 149.182C279.051 150.46 280.828 151.105 282.459 150.776C280.962 154.306 277.663 157.02 273.914 157.812" stroke="#56052A" stroke-linecap="round" stroke-linejoin="round"/>
<path d="M273.857 169.862C272.36 168.998 270.57 168.864 268.915 168.389C266.444 167.683 264.265 166.247 262.087 164.896C259.908 163.545 257.619 162.23 255.088 161.829C252.556 161.427 249.696 162.109 248.138 164.141C246.981 165.651 246.689 167.671 246.884 169.558C247.505 175.51 252.495 180.196 257.985 182.57C260.407 183.617 263.036 184.335 265.653 184.03C270.984 183.41 282.316 174.719 273.857 169.862Z" fill="#DA6B58"/>
<path d="M262.674 173.001C267.117 174.839 271.986 175.569 276.769 175.192C277.219 173.281 276.513 171.382 273.86 169.861C272.363 168.997 270.574 168.863 268.918 168.388C266.447 167.682 264.269 166.246 262.09 164.895C259.911 163.544 257.623 162.229 255.091 161.827C253.265 161.535 251.269 161.827 249.711 162.765C253.01 167.256 257.525 170.859 262.674 173.001Z" fill="white"/>
<path d="M249.502 173.522C249.003 173.473 248.48 173.461 247.969 173.473C249.843 177.551 253.763 180.74 257.974 182.566C260.335 183.588 262.892 184.282 265.448 184.038C264.803 182.943 264.109 181.884 263.318 180.898C259.958 176.723 254.858 173.984 249.515 173.522H249.502Z" fill="#FF8E8A"/>
<path d="M176.323 114.952C176.018 114.891 175.726 114.842 175.422 114.781C175.665 115.025 175.957 115.122 176.323 114.952Z" fill="#6AAA9E"/>
<path d="M149.172 102.892C149.61 84.6464 157.096 66.9241 168.623 52.7682C180.149 38.6122 195.547 27.9131 212.21 20.4517C220.098 16.9219 228.375 14.0615 236.98 13.2459C243.809 12.6008 250.698 13.2581 257.453 14.4023C266.254 15.8994 275.103 18.2973 282.467 23.3365C291.376 29.4346 297.377 38.88 302.465 48.3984C308.064 58.8785 312.908 69.9671 314.564 81.7373C316.231 93.5076 314.454 106.093 307.723 115.892C297.852 113.311 286.958 109.355 277.427 105.728C277.963 102.49 277.659 99.1432 277.111 95.9054C275.821 88.298 274.019 80.7879 271.707 73.4239C273.118 77.0877 272.559 81.1896 271.901 85.0603C270.818 91.4505 269.54 97.8043 268.055 104.121C253.741 100.738 237.625 98.4129 222.946 97.5243C223.798 84.9994 225.453 72.5354 227.924 60.2296C220.317 71.805 213.926 84.1961 208.924 97.1226C205.443 98.2303 201.84 95.5646 198.213 95.0777C191.226 94.1405 184.093 94.2988 177.155 95.5646C170.132 102.916 158.897 105.899 149.196 102.868L149.172 102.892Z" fill="#7267CB"/>
<path opacity="0.25" d="M201.194 14.6016C184.396 22.0629 169.814 35.4642 161.623 51.9207C177.227 38.6533 193.927 26.0553 213.682 20.651C197.067 25.4224 183.325 35.8781 173.125 49.8393C186.831 37.3265 205.539 31.764 223.992 33.7967C203.385 39.3106 185.48 54.1725 176.265 73.4041C179.345 64.762 184.116 54.1846 189.752 46.9423C174.707 57.4345 163.582 73.4163 158.969 91.1629C158.251 81.3645 160.065 70.994 163.461 61.7799C149.986 77.2869 139.178 95.9952 132.203 115.312C133.566 104.309 135.185 93.2808 138.52 82.7156C141.855 72.1504 148.501 60.9401 156.194 52.9553C146.907 59.2482 139.372 68.0971 134.625 78.2729C139.324 59.8324 150.717 43.1691 166.211 32.0926C177.702 23.8766 187.756 18.8982 201.206 14.6016H201.194Z" fill="white"/>
<g style="mix-blend-mode:multiply" opacity="0.5">
<path d="M324.665 82.5966C323.776 76.3524 321.999 70.2908 319.674 64.4118C300.54 60.7602 271.303 56.2809 252.169 52.6294C236.796 49.6959 221.009 46.7625 205.575 49.4281C190.153 52.0938 176.314 61.4053 171.372 76.2551C165.639 76.7176 133.505 79.8701 123.195 81.1116C120.079 86.8568 116.951 92.6263 113.75 98.4201C125.666 99.3208 137.668 99.0044 149.511 97.4707C149.329 99.2721 149.195 101.074 149.158 102.887C158.859 105.918 170.094 102.924 177.117 95.584C184.055 94.3303 191.188 94.1599 198.174 95.0972C201.802 95.5841 205.392 98.2497 208.886 97.1421C213.901 84.2276 220.279 71.8366 227.886 60.249C225.415 72.5548 223.76 85.0188 222.908 97.5437C237.587 98.4445 253.703 100.757 268.017 104.141C269.502 97.8358 270.78 91.4699 271.863 85.0797C272.423 81.7811 272.898 78.3243 272.167 75.1109C274.237 81.9393 275.892 88.8895 277.085 95.9249C277.633 99.1626 277.937 102.498 277.401 105.748C286.944 109.375 297.826 113.331 307.697 115.911C314.428 106.113 326.32 94.3669 324.653 82.5966H324.665ZM150.217 92.395C150.217 92.395 150.217 92.4437 150.205 92.468C150.205 92.4437 150.205 92.4194 150.217 92.395Z" fill="#7267CB"/>
</g>
<path d="M179.842 84.2891C157.3 85.9323 135.11 89.3282 112.896 93.4423C108.989 100.466 106.47 106.88 102.562 113.903C127.478 109.558 151.53 109.899 176.312 114.962C175.192 115.498 174.669 113.526 174.547 112.284C173.561 101.975 177.992 94.477 179.83 84.2891H179.842Z" fill="#6AAA9E"/>
<g style="mix-blend-mode:multiply" opacity="0.5">
<path d="M174.555 112.285C173.91 105.554 175.577 100.015 177.33 94.1484C154.459 98.5912 131.211 100.977 107.987 103.156C106.295 106.686 104.627 110.215 102.57 113.903C127.182 109.607 150.966 109.899 175.431 114.78C174.92 114.269 174.64 113.112 174.567 112.272L174.555 112.285Z" fill="#6AAA9E"/>
</g>
<path d="M233.661 59.5432C223.01 59.2267 212.238 59.2389 201.843 61.6002C198.776 62.294 195.721 63.2191 193.031 64.838C190.888 66.1282 189.038 67.8445 187.322 69.6581C178.205 79.3469 172.996 92.4196 172.022 105.675C171.718 109.813 171.815 114.037 172.996 118.017C176.027 128.193 185.557 134.997 195.161 139.537C211.349 147.193 229.486 149.238 247.391 149.384C259.855 149.494 265.527 136.859 274.473 138.953C275.276 139.135 276.055 139.403 276.81 139.732C280.486 141.375 283.979 144.26 284.746 148.216C285.233 150.723 284.6 153.474 285.744 155.738C292.281 159.085 298.768 161.459 305.986 162.785C313.216 164.1 320.264 159.158 327.372 157.284C334.237 155.47 341.394 153.498 346.579 148.654C347.419 147.863 348.211 146.986 348.612 145.903C349.099 144.552 348.904 143.067 348.71 141.643C348.101 137.358 347.468 133.001 345.606 129.094C343.877 125.491 341.175 122.46 338.437 119.551C321.712 101.743 302.091 86.2119 279.488 76.9247C264.115 70.6075 247.634 68.5017 233.661 59.5067V59.5432Z" fill="#6AAA9E"/>
<g style="mix-blend-mode:multiply" opacity="0.5">
<path d="M285.767 155.767C292.303 159.114 298.791 161.487 306.009 162.814C310.866 163.703 315.625 161.767 320.384 159.832C308.102 158.104 296.089 154.488 284.891 149.133C285.122 151.385 284.745 153.758 285.767 155.767Z" fill="#6AAA9E"/>
<path d="M205.264 136.565C196.561 132.901 188.625 126.803 184.218 118.453C179.763 110.018 179.313 99.5743 183.013 90.7862C184.413 87.4511 186.373 84.3716 188.369 81.3529C190.888 77.5553 193.518 73.782 196.914 70.7512C202.5 65.7486 209.743 63.0829 216.79 60.5268C217.74 60.186 218.689 59.8452 219.626 59.4922C213.638 59.6991 207.674 60.2712 201.843 61.5979C198.776 62.2917 195.721 63.2168 193.031 64.8357C190.888 66.1259 189.038 67.8421 187.322 69.6557C178.205 79.3446 172.996 92.4172 172.022 105.672C171.718 109.811 171.815 114.035 172.996 118.015C176.027 128.19 185.557 134.995 195.161 139.535C211.349 147.191 229.486 149.236 247.391 149.382C252.223 149.418 256.033 147.544 259.404 145.365C250.762 145.231 241.901 144.513 232.869 143.588C223.485 142.626 213.942 140.204 205.239 136.54L205.264 136.565Z" fill="#6AAA9E"/>
</g>
<g style="mix-blend-mode:multiply" opacity="0.5">
<path d="M345.601 129.13C343.873 125.527 341.171 122.496 338.432 119.587C337.251 118.322 336.046 117.08 334.829 115.838C313.662 107.245 291.777 100.392 269.478 95.4018C252.498 91.6041 235.129 88.8655 217.76 89.7662C203.117 90.5208 188.547 93.8316 173.977 94.1968C172.979 97.9579 172.322 101.829 172.03 105.699C171.726 109.838 171.823 114.061 173.004 118.042C176.034 128.217 185.565 135.021 195.169 139.562C211.357 147.218 229.493 149.263 247.398 149.409C259.862 149.518 265.535 136.884 274.481 138.977C275.284 139.16 276.063 139.428 276.818 139.756C280.494 141.399 283.987 144.284 284.754 148.24C285.241 150.748 284.608 153.498 285.752 155.762C292.288 159.11 298.776 161.483 305.994 162.81C313.224 164.124 320.272 159.183 327.38 157.308C334.245 155.495 341.402 153.523 346.587 148.678C347.427 147.887 348.218 147.011 348.62 145.927C349.107 144.576 348.912 143.091 348.717 141.667C348.109 137.383 347.476 133.025 345.614 129.118L345.601 129.13Z" fill="#6AAA9E"/>
</g>
<path d="M248.064 60.892C242.843 58.6524 237.097 57.2161 231.474 57.9951C225.851 58.7741 220.349 62.0483 217.963 67.2092C216.381 70.6539 216.271 74.5733 216.186 78.3587L215.675 102.337C215.504 110.115 215.76 118.916 221.517 124.149C223.757 126.182 226.423 127.996 229.393 128.604C261.758 135.25 291.615 141.628 321.984 149.954C326.269 151.135 330.614 152.34 335.069 152.413C339.512 152.486 344.162 151.293 347.387 148.226C347.959 147.69 348.507 147.021 348.531 146.242C348.556 145.511 348.13 144.854 347.704 144.245C335.495 126.912 318.138 114.01 301.097 101.412C282.864 87.9502 268.903 69.814 248.064 60.892Z" fill="#8BD6C8"/>
<path d="M340.352 149.217L242.599 124.179C238.668 123.169 235.953 119.566 236.099 115.501L237.694 66.8619C237.876 61.3359 243.135 57.3922 248.49 58.7676L346.243 83.8052C350.175 84.8155 352.889 88.4184 352.743 92.4838L351.148 141.123C350.966 146.649 345.707 150.593 340.352 149.217Z" fill="#AEFFF1"/>
<path d="M334.005 141.84L249.776 120.272C246.38 119.407 244.055 116.291 244.176 112.798L245.552 71.9369C245.71 67.1777 250.238 63.7817 254.863 64.9624L339.093 86.5311C342.489 87.3953 344.814 90.5113 344.692 94.0046L343.317 134.866C343.158 139.625 338.63 143.021 334.005 141.84Z" fill="#842F82"/>
<g opacity="0.25">
<path d="M288.207 73.5C272.992 84.7347 258.325 96.7119 244.278 109.383L244.169 112.791C244.047 116.284 246.384 119.4 249.768 120.265L263.778 123.855C283.24 109.967 302.703 96.0911 322.178 82.2029L288.219 73.5H288.207Z" fill="white"/>
<path d="M254.848 64.9624C250.234 63.7817 245.706 67.1777 245.536 71.9369L244.672 97.7535C255.213 88.2595 266.192 79.2522 277.56 70.7806L254.848 64.9624Z" fill="white"/>
<path d="M344.683 94.0231C344.805 90.5298 342.468 87.4138 339.084 86.5496L338.816 86.4766C319.828 100.486 300.84 114.496 281.852 128.494L307.656 135.103C319.816 126.206 332 117.332 344.208 108.496L344.695 94.011L344.683 94.0231Z" fill="white"/>
<path d="M321.055 138.528L333.993 141.839C338.607 143.02 343.135 139.624 343.305 134.865L343.719 122.656C336.197 127.988 328.638 133.27 321.067 138.528H321.055Z" fill="white"/>
</g>
<g opacity="0.5">
<path d="M229.218 291.522C233.466 275.978 240.647 261.36 249.934 248.19C245.309 246.498 240.708 244.782 236.143 243.017C234.695 242.457 233.782 240.948 233.539 239.414C228.682 255.968 228.865 274.068 229.205 291.522H229.218Z" fill="#DDDDDD"/>
</g>
<path d="M441.727 60.3311C442.043 59.7104 442.384 59.0531 442.968 58.6758C444.453 57.7385 446.352 59.1018 447.35 60.5502C451.355 66.4049 450.478 74.195 449.261 81.1816C446.717 95.861 443.455 110.406 439.499 124.757C438.465 128.506 437.369 132.279 435.58 135.736C434.144 138.511 431.174 141.396 428.326 140.118C426.366 139.23 425.684 136.807 425.404 134.677C424.224 125.439 426.378 116.127 428.666 107.096C432.574 91.7103 434.655 74.5723 441.715 60.319L441.727 60.3311Z" fill="#F2AB88"/>
<path d="M373.561 238.725C356.812 252.369 340.064 266.002 323.315 279.646C317.107 284.71 310.887 289.761 304.68 294.825C288.905 307.678 273.118 320.532 257.867 334.006C245.756 344.705 233.535 354.991 221.205 365.422C196.277 333.276 169.9 302.931 142.513 272.855C142.173 251.31 136.72 229.863 126.751 210.766C112.217 212.141 97.9033 215.768 85.5853 223.595C73.2673 231.434 63.1768 243.106 58.5271 256.946C54.4739 269.033 57.955 288.033 60.7302 300.473C63.5054 312.912 68.7637 324.67 74.6427 335.99C89.6264 364.789 110.112 389.668 134.553 411.042C158.982 432.416 188.219 448.775 219.915 455.786C227.108 457.381 234.545 458.501 241.848 457.503C254.872 455.725 264.805 446.122 273.544 436.299C293.737 413.598 313.967 390.849 332.103 366.469C337.276 359.506 342.279 352.422 347.488 345.484C363.701 323.916 381.947 303.881 401.909 285.732C404.404 283.468 407.021 281.071 408.08 277.869C409.468 273.646 407.812 269.045 405.707 265.125C398.805 252.321 387.485 242.936 373.573 238.688L373.561 238.725Z" fill="#FFC59A"/>
<path d="M405.681 265.156C398.779 252.351 387.459 242.967 373.547 238.719C371.295 240.557 369.043 242.382 366.791 244.22C365.538 246.959 364.588 249.856 364.053 252.936C361.521 267.591 365.404 283.256 374.496 295.026C335.656 332.017 307.1 380.083 266.653 415.309C257.159 423.574 246.776 431.327 234.677 434.808C218.659 439.409 201.521 436.038 185.32 432.118C172.54 429.027 159.759 425.533 147.234 421.358C168.852 437.644 193.5 449.962 219.876 455.805C227.07 457.399 234.507 458.519 241.81 457.521C254.834 455.744 264.766 446.14 273.506 436.318C293.699 413.617 313.929 390.868 332.065 366.487C337.238 359.525 342.241 352.441 347.45 345.503C363.663 323.934 381.909 303.899 401.871 285.751C404.366 283.487 406.983 281.089 408.042 277.888C409.43 273.664 407.774 269.063 405.669 265.144L405.681 265.156Z" fill="#F2AB88"/>
<path d="M142.477 271.828C141.978 250.636 136.561 229.567 126.738 210.773C122.722 211.151 118.717 211.711 114.773 212.478C120.202 226.706 124.474 241.349 125.801 256.467C131.546 261.384 137.097 266.509 142.465 271.828H142.477Z" fill="#F2AB88"/>
<path d="M205.345 402.879C207.512 389.27 212.88 376.198 220.791 364.902C200.598 338.879 179.431 314.048 157.57 289.57C159.7 295.474 161.977 301.328 164.253 307.159C177.082 339.865 191.713 370.489 205.345 402.879Z" fill="#F2AB88"/>
<path d="M362.344 249.994C374.077 231.578 373.846 208.196 380.419 187.37C381.685 183.353 383.243 179.361 385.738 175.965C389.597 170.706 395.391 167.25 401.184 164.255C413.149 158.072 426.575 147.336 439.867 149.503C439.794 152.923 439.721 162.174 439.648 165.594C439.441 175.21 439.952 186.396 439.94 196.012C439.94 199.968 439.94 204.057 441.461 207.721C442.971 211.385 446.354 214.574 450.31 214.598C453.231 214.611 455.885 212.979 458.21 211.215C465.063 206.029 470.686 199.335 477.587 194.21C484.489 189.086 493.447 185.568 501.676 188.076C502.382 188.295 503.148 188.611 503.489 189.269C504.013 190.279 503.307 191.46 502.625 192.372C488.98 210.716 475.336 229.071 461.703 247.414C459.804 249.958 457.905 252.514 455.678 254.766C441.826 268.727 422.996 278.026 404.994 285.95C402.694 286.973 400.357 287.995 397.898 288.506C389.791 290.222 381.405 286.181 375.441 280.436C367.334 272.622 362.38 261.241 362.344 249.982V249.994Z" fill="#FFC59A"/>
<g opacity="0.72">
<path d="M426.568 154.318C423.975 156.009 421.869 158.334 419.946 160.756C413.495 168.863 406.752 179.854 409.588 189.823C416.477 214.033 415.881 239.655 415.236 264.826C430.499 244.597 433.737 233.934 453.127 214.118C452.226 214.422 451.289 214.605 450.327 214.605C446.372 214.581 442.976 211.392 441.478 207.728C439.969 204.064 439.957 199.987 439.957 196.019C439.969 186.403 439.458 175.217 439.665 165.601C439.738 162.181 439.811 152.93 439.884 149.51C439.762 149.485 439.64 149.485 439.531 149.461C438.545 149.753 437.559 150.033 436.573 150.313C433.116 151.311 429.599 152.346 426.58 154.318H426.568Z" fill="#F2AB88"/>
</g>
<path d="M434.821 70.1711C435.04 69.6721 435.308 69.1243 435.831 68.9296C436.257 68.7713 436.744 68.9052 437.17 69.0878C441.065 70.8406 441.747 76.0258 441.576 80.286C440.712 101.855 432.411 122.352 424.11 142.278C422.576 145.953 420.178 150.25 416.186 150.25C411.609 150.25 409.357 144.651 409.041 140.087C408.262 128.487 412.814 119.711 417.342 109.547C423.184 96.4259 428.99 83.2924 434.809 70.1589L434.821 70.1711Z" fill="#FFC59A"/>
<path d="M428.517 157.737C436.83 154.621 445.509 152.576 453.774 149.314C462.026 146.052 470.035 141.378 475.269 134.22C476.426 132.638 477.473 130.849 477.606 128.889C477.74 126.929 476.73 124.775 474.856 124.142C473.711 123.753 472.458 123.996 471.277 124.239C455.904 127.404 440.835 132.066 426.35 138.115C416.418 142.266 406.255 147.512 400.534 156.641C398.562 159.794 397.174 163.433 397.333 167.158C397.491 170.87 399.39 174.643 402.688 176.372C410.442 180.462 410.405 173.743 412.669 169.239C415.603 163.397 422.699 159.915 428.517 157.737Z" fill="#FFC59A"/>
<path d="M428.091 137.422C427.507 137.653 426.923 137.884 426.35 138.128C416.418 142.278 406.255 147.525 400.534 156.654C398.562 159.806 397.174 163.445 397.333 167.17C397.466 170.25 398.805 173.341 401.13 175.301C404.867 163.47 412.815 152.722 421.628 143.715C423.734 141.572 425.9 139.479 428.091 137.422Z" fill="#F2AB88"/>
<path d="M381.93 176.222C383.013 170.16 385.448 164.415 387.992 158.803C394.978 143.382 402.975 128.435 411.922 114.06C413.029 112.282 415.172 110.274 416.876 111.503C417.411 111.893 417.703 112.526 417.947 113.147C420.965 121.022 418.336 129.81 415.695 137.819C410.449 153.716 405.203 169.624 399.957 185.521C398.058 191.266 393.335 199.312 385.935 195.258C380.153 192.094 380.981 181.577 381.942 176.222H381.93Z" fill="#FFC59A"/>
<path d="M417.934 113.157C417.69 112.536 417.398 111.903 416.863 111.514C416.449 111.209 416.011 111.112 415.572 111.136C411.483 137.355 398.933 163.11 398.203 189.621C398.921 188.245 399.493 186.834 399.932 185.519C405.178 169.622 410.424 153.714 415.67 137.817C418.311 129.808 420.952 121.02 417.922 113.145L417.934 113.157Z" fill="#F2AB88"/>
<path d="M399.359 188.818C404.91 190.145 411.154 187.893 414.574 183.329C419.09 183.159 424.47 179.531 426.795 175.648" stroke="#D3835F" stroke-linecap="round" stroke-linejoin="round"/>
<path d="M426.328 174.679C428.312 177.393 431.927 177.357 434.386 175.361C436.845 173.352 438.293 169.847 439.109 166.305" stroke="#D3835F" stroke-linecap="round" stroke-linejoin="round"/>
<path d="M426.383 175.174C428.014 169.417 429.645 163.671 431.276 157.914" stroke="#D3835F" stroke-linecap="round" stroke-linejoin="round"/>
<path d="M413.383 183.249C415.988 177.309 418.154 171.175 419.858 164.906" stroke="#D3835F" stroke-linecap="round" stroke-linejoin="round"/>
<path d="M411.422 194C418.981 213.499 422.011 234.727 420.21 255.566" stroke="#D3835F" stroke-linecap="round" stroke-linejoin="round"/>
</svg>
