<svg width="455" height="56" viewBox="0 0 455 56" fill="none" xmlns="http://www.w3.org/2000/svg">
<path d="M58.0803 42.338C66.0703 38.718 74.6503 35.188 83.8503 34.018C94.0303 32.718 101.72 34.608 109.93 39.288C109.78 40.338 109.56 41.408 109.57 42.468C97.1803 38.288 83.6303 38.358 70.5903 40.388C66.6003 41.008 62.6903 42.038 58.6303 42.308C58.4503 42.318 58.2603 42.328 58.0703 42.338H58.0803Z" fill="#CFEEF4"/>
<path d="M182.374 11.1151C186.334 7.21513 189.944 3.71512 195.934 1.62512C204.184 -1.24488 212.704 0.0851243 220.804 2.53512C223.534 3.61512 226.224 4.64512 228.704 6.05512C236.524 11.2051 241.194 16.5751 246.064 23.4951L249.104 24.8851C251.054 24.8051 251.124 24.5651 252.614 23.6051C257.954 20.1451 260.604 18.8751 267.734 19.4051C277.614 22.7451 282.624 26.7451 289.214 33.2551C292.774 31.3351 296.434 29.2051 301.034 29.9851C309.134 31.3451 313.324 39.8951 320.924 42.9651C327.124 42.9351 333.484 42.7351 339.644 43.3351C350.544 44.4051 361.174 46.9151 372.144 47.9351C399.594 50.4951 427.804 51.7251 454.954 55.7651C434.544 56.3751 414.104 55.6051 393.694 55.3751L302.144 55.0251L102.194 54.9051C68.4537 54.8651 34.5638 55.4451 0.84375 54.8651C14.9937 51.2951 29.2437 48.1151 43.6337 45.1551C48.1937 44.2251 53.4437 42.7051 58.0937 42.3251C58.2837 42.3251 58.4637 42.3051 58.6537 42.2951C62.7137 42.0351 66.6238 41.0051 70.6138 40.3751C83.6538 38.3351 97.2037 38.2751 109.594 42.4551C109.584 41.3951 109.804 40.3251 109.954 39.2751C112.114 36.3851 114.434 33.5751 117.264 31.0551C124.074 24.9851 134.484 18.0451 145.314 17.5651C151.144 17.3051 154.924 18.9251 159.194 21.8651C166.274 15.3851 171.994 13.0751 182.384 11.1051L182.374 11.1151Z" fill="#45C2D9"/>
<path d="M246.054 23.4949L249.094 24.8849C251.044 24.8049 251.114 24.5649 252.604 23.6049C257.944 20.1449 260.594 18.8749 267.724 19.4049C265.174 24.0849 264.104 28.0149 263.754 33.0849C251.794 31.9749 242.894 32.5549 233.114 38.5949C231.694 39.4649 230.314 40.3649 228.914 41.2549L216.234 40.6049C222.804 33.2449 230.884 25.2949 242.934 23.7149C243.984 23.5749 244.994 23.5249 246.054 23.5049V23.4949Z" fill="#B7E8F6"/>
<path d="M220.795 2.53344C223.525 3.61344 226.215 4.64344 228.695 6.05344C217.225 16.7034 205.175 27.0434 192.875 37.1134C188.335 33.8834 184.225 31.9334 177.915 32.1134C167.115 32.4134 157.935 38.6434 148.495 42.1134C145.395 40.0934 141.455 36.8134 137.135 37.0434C133.905 37.2134 131.375 39.2034 129.135 40.8334C124.235 40.9834 119.325 41.0834 114.445 41.4834C122.595 37.2134 134.445 29.1134 144.555 29.3434C150.875 29.4834 154.835 32.1134 158.955 35.4934C164.625 30.7534 170.585 25.3634 178.975 23.7134C185.655 22.4034 191.015 24.1334 196.705 26.7534C201.795 17.4034 209.095 7.50344 220.795 2.52344V2.53344Z" fill="#B7E8F6"/>
<path d="M182.376 11.1151C186.336 7.21513 189.946 3.71512 195.936 1.62512C204.186 -1.24488 212.706 0.0851243 220.806 2.53512C209.106 7.51512 201.806 17.4251 196.716 26.7651C191.016 24.1451 185.666 22.4151 178.986 23.7251C170.606 25.3751 164.636 30.7651 158.966 35.5051C154.846 32.1251 150.886 29.4951 144.566 29.3551C134.456 29.1251 122.606 37.2251 114.456 41.4951C112.606 42.3351 111.996 43.0151 109.836 42.5451C109.746 42.5251 109.676 42.4851 109.586 42.4651C109.576 41.4051 109.796 40.3351 109.946 39.2851C112.106 36.3951 114.426 33.5851 117.256 31.0651C124.066 24.9951 134.476 18.0551 145.306 17.5751C151.136 17.3151 154.916 18.9351 159.186 21.8751C166.266 15.3951 171.986 13.0851 182.376 11.1151Z" fill="#FCFCFA"/>
</svg>
