<svg width="600" height="299" viewBox="0 0 600 299" fill="none" xmlns="http://www.w3.org/2000/svg">
<path d="M341.281 273.579C363.791 267.999 368.251 259.539 394.571 262.819C394.451 262.869 394.331 262.909 394.201 262.959C389.551 264.599 384.281 264.809 379.721 266.759C374.311 269.079 370.351 274.549 363.971 275.079C356.171 272.409 348.521 275.499 341.281 273.579Z" fill="#FCFCFA"/>
<path d="M394.569 262.82C402.029 264.15 409.099 266.25 415.319 269.82C412.169 274.86 409.249 280.21 408.519 285.85L407.859 286.69C397.509 276.79 383.989 284.26 371.519 281.2C367.699 280.26 365.719 277.71 363.969 275.08C370.349 274.55 374.309 269.08 379.719 266.76C384.279 264.8 389.549 264.6 394.199 262.96C394.319 262.92 394.439 262.87 394.569 262.82Z" fill="#B7E8F6"/>
<path d="M1037.7 54.8519C1041.33 52.1819 1043.66 44.7219 1046.04 41.0519C1047.91 38.1619 1050.27 35.4619 1052.76 32.8819C1065.84 19.3119 1085.65 7.36188 1107.54 4.92188C1108.17 5.76187 1108.53 6.52187 1108.63 7.49187C1109.28 13.5719 1109.81 48.9219 1108.36 53.0019C1108.23 53.3819 1108.02 53.7019 1107.81 54.0619C1100.45 51.4819 1090.97 51.9519 1083.52 54.1319C1068.23 58.6119 1058.9 70.6019 1052.53 81.7019C1051.49 83.5019 1050.83 85.3619 1049.16 86.8819C1045.8 84.4119 1039.32 83.6819 1034.85 83.7619C1024.86 83.9319 1015.9 86.7719 1009.08 92.5319C1005.82 95.2819 1002.81 98.7519 1000.75 102.132C999.632 103.972 998.912 106.052 997.242 107.652C983.992 95.0819 963.202 87.2219 942.672 85.6619C927.772 84.5319 911.552 86.3719 899.692 93.9819C894.582 97.2619 890.462 101.302 887.182 105.782C879.972 115.632 874.592 132.972 856.192 131.722C851.742 131.422 847.412 130.452 843.142 129.472C842.912 134.242 834.902 142.292 830.632 145.402C826.252 148.592 820.732 150.822 814.622 150.632C801.112 150.212 786.582 135.472 774.242 144.182C765.842 150.102 762.212 158.612 752.622 164.162C734.612 174.582 709.152 167.382 693.402 175.562C689.982 177.342 688.392 179.812 688.162 183.012C687.682 189.912 696.302 196.972 695.752 202.952C675.672 195.682 653.102 198.302 632.572 202.412C627.442 203.442 622.082 204.322 617.112 205.732C609.232 207.972 601.232 211.962 597.672 218.132C594.142 224.252 593.422 230.892 595.512 237.372C592.922 238.612 581.252 236.922 575.602 239.162C564.692 243.492 567.392 262.382 541.712 257.522C534.002 256.062 527.452 252.302 520.492 249.502C506.562 243.902 490.372 243.642 476.792 250.032C466.052 255.082 457.602 263.882 449.622 271.342C439.222 271.852 424.862 271.132 417.252 277.772C414.632 280.062 412.672 283.262 410.712 285.942C410.262 285.962 409.852 286.092 409.492 285.872C410.232 280.232 413.152 274.892 416.302 269.842C430.412 254.662 440.442 264.992 451.612 258.772C461.102 253.492 463.002 237.882 481.122 233.252C494.342 229.872 509.392 233.672 521.182 238.442C525.982 234.542 531.002 231.362 537.422 229.222C548.982 225.362 559.432 226.122 570.842 229.672C569.732 224.612 569.442 219.672 570.582 214.592C573.252 202.712 582.372 192.652 595.022 185.902C610.112 177.852 628.682 174.882 646.592 177.722C653.522 178.822 665.342 181.572 669.452 186.482C672.202 185.082 677.732 180.672 678.612 178.212C679.812 175.832 679.572 172.632 679.932 170.062C680.742 164.322 682.182 158.682 685.192 153.372C692.682 140.092 708.152 129.652 725.292 124.482C740.162 119.992 760.372 118.682 775.362 123.842C778.062 120.382 777.982 114.342 779.202 110.352C782.452 99.6919 788.692 89.4719 796.832 80.5819C816.132 59.5119 844.812 46.4419 877.382 42.3119C907.332 38.5119 939.212 43.9319 963.842 57.9819C969.482 61.2019 987.222 72.7019 988.252 77.7819C990.432 76.3019 991.372 74.2519 992.812 72.3519C996.692 67.2419 1001.38 62.4519 1007.66 59.0319C1016.75 54.0819 1026.99 53.3419 1037.66 54.9019L1037.7 54.8519Z" fill="#FCFCFA"/>
<path d="M1049.17 86.8843C1050.83 85.3643 1051.5 83.5043 1052.54 81.7043C1058.91 70.6043 1068.24 58.6143 1083.53 54.1343C1090.98 51.9543 1100.46 51.4943 1107.82 54.0643C1109.4 56.9343 1109.61 103.254 1108.13 105.984C1108.03 106.164 1107.92 106.334 1107.82 106.504C1108.29 107.344 1108.62 108.144 1108.68 109.064C1109.31 118.504 1109.59 197.644 1108.31 200.754C1108.13 201.204 1107.94 201.434 1107.65 201.864C1109.57 204.734 1109.74 230.794 1108.29 234.374C1108.14 234.734 1108 234.914 1107.77 235.264C1108.26 236.114 1108.61 236.924 1108.67 237.854C1109.09 243.524 1109.61 294.314 1108.27 297.144C1108.07 297.574 1107.87 297.774 1107.55 298.184C1099.69 297.294 1090.52 297.854 1082.56 297.864L1034.92 297.834L853.392 297.704L608.952 297.634L427.982 296.704C403.232 296.704 378.392 296.234 353.662 296.734C346.232 296.094 338.872 295.034 331.512 294.054C322.142 292.764 292.702 289.764 286.172 286.914C280.542 286.944 273.652 285.614 268.212 284.464C265.082 284.324 261.852 283.754 258.742 283.364C254.412 282.794 250.132 282.064 245.852 281.314C239.672 280.584 233.492 279.504 227.342 278.594C188.182 273.684 149.132 268.584 109.362 268.054C109.082 266.874 108.962 265.794 108.922 264.594C110.612 263.534 111.202 262.544 112.152 261.054C116.022 254.964 117.282 256.024 124.222 253.904C130.302 252.054 126.632 249.964 127.622 246.624C128.022 245.274 129.732 244.884 130.372 243.614C130.822 242.714 131.382 242.614 132.392 242.104C132.432 241.044 133.042 240.114 133.542 239.144C137.002 235.914 135.812 238.044 139.402 236.944C141.052 236.434 141.052 236.014 142.992 235.834C143.382 236.574 143.612 236.704 144.382 237.204C145.032 236.344 145.592 235.744 146.532 235.034L147.442 235.484C149.332 231.294 161.312 226.384 166.362 224.474C181.112 218.904 199.832 218.684 215.162 222.934C231.122 227.354 244.232 236.334 251.362 248.364C251.542 248.674 251.722 248.994 251.892 249.304C258.672 242.894 268.572 240.094 278.982 239.364C294.722 238.254 310.532 242.084 322.602 250.094C330.772 255.514 335.172 261.184 338.472 269.014C339.152 270.644 339.692 272.924 341.092 274.254L342.202 273.574C349.452 275.484 357.102 272.394 364.922 275.074C366.672 277.704 368.652 280.254 372.482 281.194C384.962 284.254 398.502 276.784 408.862 286.684L409.522 285.844C409.882 286.074 410.292 285.944 410.742 285.914C412.702 283.234 414.652 280.034 417.282 277.744C424.892 271.094 439.252 271.824 449.652 271.314C457.632 263.844 466.082 255.054 476.822 250.004C490.402 243.614 506.582 243.874 520.522 249.474C527.492 252.274 534.032 256.034 541.742 257.494C567.422 262.364 564.722 243.464 575.632 239.134C581.272 236.894 592.952 238.574 595.542 237.344C593.452 230.864 594.172 224.214 597.702 218.104C601.262 211.944 609.252 207.944 617.142 205.704C622.112 204.294 627.482 203.414 632.602 202.384C653.132 198.274 675.702 195.654 695.782 202.924C696.332 196.954 687.722 189.884 688.192 182.984C688.422 179.794 690.012 177.314 693.432 175.534C709.182 167.344 734.642 174.544 752.652 164.134C762.242 158.594 765.872 150.084 774.272 144.154C786.602 135.454 801.142 150.184 814.652 150.604C820.762 150.794 826.272 148.564 830.662 145.374C834.942 142.264 842.952 134.214 843.172 129.444C847.442 130.424 851.772 131.394 856.222 131.694C874.622 132.944 880.002 115.604 887.212 105.754C890.492 101.284 894.622 97.2343 899.722 93.9543C911.592 86.3443 927.802 84.5043 942.702 85.6343C963.232 87.1943 984.022 95.0543 997.272 107.624C998.932 106.024 999.662 103.944 1000.78 102.104C1002.84 98.7243 1005.85 95.2643 1009.11 92.5043C1015.93 86.7443 1024.9 83.9143 1034.88 83.7343C1039.35 83.6543 1045.84 84.3843 1049.19 86.8543L1049.17 86.8843Z" fill="#CFEEF4"/>
<path d="M835.753 199.13C840.763 197.73 845.623 195.82 850.613 194.33C871.153 188.2 890.273 186.09 911.623 191.21C914.953 192.33 918.433 193.35 921.653 194.65C929.943 198.65 943.333 209.27 945.513 216.79C945.683 217.36 945.643 217.43 945.623 217.94C947.633 219.32 948.533 221.26 949.603 223.13L948.853 224.08L948.243 223.85L949.643 224.05L948.733 223.89C947.373 222.91 946.863 222.38 944.833 222.56C943.043 222.72 941.713 223.26 940.473 224.23C939.263 226.1 939.693 227.79 940.523 229.72C941.223 231.38 942.323 232.44 943.753 233.77C944.413 234.37 945.033 234.99 945.683 235.6L945.243 235.94C943.923 236.97 942.143 237.59 940.783 238.61C934.903 242.97 934.203 248.74 931.573 254.29C923.943 247.19 920.033 241.37 906.873 240.38C897.093 239.64 887.073 242.63 879.693 247.56C866.593 256.31 870.473 260.58 863.913 268.98C861.673 263.27 847.653 256.32 841.033 253.59C819.523 244.71 793.353 245.61 770.663 251.18C762.233 253.25 752.743 255.92 745.223 259.54C741.183 261.49 737.573 264.48 733.313 266.06C721.973 262.33 711.573 263.49 700.113 265.96C698.073 262.75 691.093 260.59 686.973 259.51C677.703 257.09 663.003 255.14 653.873 258.78C649.813 260.4 640.883 268.06 638.103 268.32L636.353 266.51L632.833 265.53C631.803 264.66 629.823 264.15 628.423 263.72C617.043 260.31 602.213 262.23 591.383 265.97C594.383 257.01 597.323 248.07 605.173 240.83C612.343 234.22 621.173 230.76 632.153 230.03C634.963 229.85 637.133 230.55 639.513 231.65C643.783 233.63 647.573 236.68 648.813 240.54C650.833 238.54 652.523 236.29 654.493 234.25C661.203 227.25 668.123 223.72 679.323 222.57C692.293 221.24 708.503 222.23 719.133 228.61C725.363 224.14 731.863 219.85 739.043 216.33C755.383 208.31 774.143 205.13 793.113 208.58C796.893 209.27 808.533 211.45 810.653 214.12C811.323 213.9 835.313 199.57 835.763 199.13H835.753Z" fill="#CFEEF4"/>
<path d="M717.748 228.613C723.968 224.143 730.468 219.853 737.638 216.333C753.958 208.313 772.698 205.133 791.638 208.583C795.408 209.273 807.048 211.453 809.148 214.123C808.688 216.583 806.099 220.603 803.599 222.213C803.479 222.293 803.328 222.353 803.198 222.423C803.008 222.483 802.818 222.543 802.618 222.603C796.378 224.433 789.408 224.733 782.858 225.453C766.588 227.243 751.498 232.483 741.808 243.173C739.628 245.583 738.388 248.363 736.358 250.783L735.948 251.873C732.958 251.653 730.078 250.743 727.158 250.213C717.318 248.413 710.778 250.563 703.248 255.523C701.618 256.603 700.128 258.013 698.228 258.783C694.548 254.103 685.188 251.253 678.688 250.023C668.728 248.123 656.308 248.693 647.438 253.053C638.748 257.333 639.458 263.143 635.058 266.503L631.548 265.523C630.518 264.653 628.548 264.143 627.138 263.713C615.768 260.303 600.958 262.223 590.148 265.963C593.148 257.003 596.078 248.063 603.918 240.823C611.078 234.213 619.898 230.753 630.858 230.023C633.668 229.843 635.838 230.543 638.208 231.643C642.468 233.623 646.258 236.673 647.498 240.533C649.508 238.533 651.198 236.283 653.168 234.243C659.878 227.243 666.779 223.713 677.969 222.563C690.919 221.233 707.108 222.223 717.728 228.603L717.748 228.613Z" fill="#45C2D9"/>
<path d="M995.62 260.273C995.52 259.583 995.62 259.852 995.33 259.222C991.16 249.792 989.81 241.302 994.42 231.822C1000.88 218.552 1016.74 209.202 1032.9 203.572C1056.87 195.232 1083.18 194.582 1107.66 201.872C1109.58 204.742 1109.75 230.802 1108.3 234.382C1108.15 234.742 1108.01 234.923 1107.78 235.273C1108.27 236.123 1108.62 236.933 1108.68 237.863C1109.1 243.533 1109.62 294.322 1108.28 297.152C1108.08 297.582 1107.88 297.782 1107.56 298.192C1099.7 297.302 1090.53 297.862 1082.57 297.872L1034.93 297.842L853.4 297.713L608.96 297.643L427.99 296.713C403.24 296.713 378.4 296.243 353.67 296.743C346.24 296.103 338.88 295.042 331.52 294.062C322.15 292.772 292.71 289.772 286.18 286.923C280.55 286.952 273.66 285.622 268.22 284.472C265.09 284.332 261.86 283.762 258.75 283.372C254.42 282.802 250.14 282.072 245.86 281.322C239.68 280.592 233.5 279.512 227.35 278.602C188.19 273.692 149.14 268.592 109.37 268.062C109.09 266.882 108.97 265.802 108.93 264.602C110.62 263.542 111.21 262.552 112.16 261.062C116.03 254.972 117.29 256.032 124.23 253.912C130.31 252.062 126.64 249.972 127.63 246.632C128.03 245.282 129.74 244.892 130.38 243.622C130.83 242.722 131.39 242.623 132.4 242.113C132.44 241.053 133.05 240.122 133.55 239.152C137.01 235.922 135.82 238.052 139.41 236.952C141.06 236.443 141.06 236.022 143 235.842C143.39 236.582 143.62 236.713 144.39 237.213C145.04 236.353 145.6 235.752 146.54 235.042L147.45 235.493C149.34 231.303 161.32 226.392 166.37 224.482C181.12 218.912 199.84 218.692 215.17 222.942C231.13 227.362 244.24 236.342 251.37 248.372C251.55 248.682 251.73 249.002 251.9 249.312C258.68 242.902 268.58 240.102 278.99 239.372C294.73 238.262 310.54 242.092 322.61 250.102C330.78 255.522 335.18 261.193 338.48 269.023C339.16 270.653 339.7 272.932 341.1 274.262L342.21 273.583C349.46 275.493 357.11 272.403 364.93 275.083C366.68 277.713 368.66 280.262 372.49 281.202C384.97 284.262 398.51 276.792 408.87 286.692C408.88 286.902 408.89 287.112 408.91 287.322C409.07 289.052 409.96 290.442 411.61 291.512C414.84 290.342 416.71 286.823 420.68 285.423C427.7 282.952 435.94 285.522 443.45 283.482C447.51 282.382 451.26 280.413 454.95 278.713C465.25 273.963 474.89 269.842 486.96 268.542C500.72 267.072 514.2 269.123 527.58 271.433C570.91 278.933 574.23 279.502 616.79 269.122C621.96 267.862 627.54 267.762 632.52 266.442L632.87 265.542L636.39 266.523L638.14 268.333C640.92 268.073 649.85 260.402 653.91 258.792C663.04 255.152 677.74 257.103 687.01 259.523C691.14 260.593 698.12 262.762 700.15 265.972C711.61 263.502 722.01 262.342 733.35 266.072C737.61 264.502 741.21 261.503 745.26 259.553C752.78 255.923 762.27 253.252 770.7 251.192C793.39 245.622 819.56 244.722 841.07 253.602C847.69 256.332 861.71 263.273 863.95 268.993C870.5 260.593 866.63 256.322 879.73 247.572C887.11 242.632 897.13 239.653 906.91 240.393C920.07 241.383 923.98 247.203 931.61 254.303C933.31 256.873 935.81 259.822 936.18 262.722C936.3 262.662 936.43 262.602 936.56 262.542C940.15 260.812 943.18 258.442 946.7 256.622C955.95 251.822 968.48 250.792 979.15 252.662C984.74 253.642 991.19 257.223 995.25 260.363L995.67 260.282L995.62 260.273Z" fill="#92E0E9"/>
<path d="M134.891 110.066C146.911 108.456 159.331 108.606 169.601 114.416C176.041 118.056 180.081 123.296 181.261 129.436C181.941 132.966 181.461 136.406 180.751 139.906C176.251 139.396 171.791 138.796 167.511 137.546C151.171 132.766 141.781 121.956 134.891 110.066Z" fill="#FCFCFA"/>
<path d="M-157.961 37.4609C-143.681 42.1109 -127.851 58.0609 -122.041 68.9809C-121.061 70.8209 -120.361 72.5309 -120.001 74.5109C-110.401 69.3909 -102.161 66.1809 -90.2209 67.9609C-79.1009 69.6209 -69.7009 75.1509 -63.5209 82.4609C-61.5709 84.7609 -60.3209 87.4209 -58.5709 89.8209C-59.2509 91.3009 -60.3709 92.6609 -59.7509 94.1709C-59.0509 94.0709 -58.1809 94.0409 -57.5309 93.8409C-46.6909 91.6009 -37.1809 92.3909 -26.5609 94.8409C-21.9009 85.6209 -15.1709 77.7709 -5.05093 71.6809C14.6191 59.8509 37.6891 58.6709 61.3491 61.0309C89.2891 67.0409 112.309 75.9609 127.309 96.5309C130.469 100.871 132.819 105.371 134.889 110.071C141.779 121.961 151.169 132.781 167.509 137.551C171.789 138.801 176.239 139.401 180.749 139.911C179.689 142.051 172.809 153.091 173.209 153.801C192.379 153.821 211.609 159.461 225.219 170.201C231.339 175.041 236.409 180.971 239.629 187.311L240.829 187.271C250.399 182.821 263.679 182.451 274.219 184.611C279.229 185.641 284.219 187.221 288.709 189.251C309.499 195.881 326.819 216.581 335.149 232.191C335.489 232.831 335.809 233.481 336.109 234.131C336.199 234.671 336.369 235.291 336.359 235.841C334.409 236.021 334.419 236.441 332.769 236.951C329.179 238.051 330.369 235.921 326.909 239.151C326.409 240.121 325.799 241.051 325.759 242.111C324.759 242.631 324.199 242.731 323.749 243.621C323.109 244.891 321.399 245.281 320.999 246.631C320.009 249.971 323.669 252.061 317.599 253.911C310.659 256.031 309.409 254.971 305.539 261.061C304.589 262.551 303.999 263.541 302.319 264.601C302.359 265.791 302.479 266.881 302.759 268.061C300.719 268.151 298.569 268.141 296.559 268.421C286.749 269.061 251.749 270.681 243.659 268.891C228.909 268.651 214.019 265.921 199.599 263.621C194.709 262.041 190.029 260.251 185.329 258.371C181.279 256.791 155.799 244.431 155.099 244.431L153.369 245.871L152.059 246.351C145.139 245.211 139.939 249.421 132.499 248.501C131.519 248.981 130.999 249.311 130.379 250.081C128.219 252.181 126.589 254.341 125.159 256.791C127.489 257.291 129.179 255.991 131.839 256.621C132.889 258.211 133.839 259.941 135.299 261.331C132.789 263.871 130.349 266.481 127.709 268.941C119.939 276.681 105.729 290.901 96.7791 297.071C46.4291 290.361 -3.60094 281.851 -54.1309 275.951C-88.6009 271.921 -123.371 270.161 -157.951 266.911V37.4609H-157.961Z" fill="#45C2D9"/>
<path d="M-157.959 37.4575C-143.679 42.1075 -127.849 58.0575 -122.039 68.9775C-121.059 70.8175 -120.359 72.5275 -119.999 74.5075L-120.189 75.1475C-117.249 76.0375 -114.019 76.6475 -111.189 77.6975C-96.3488 83.1875 -83.7787 93.3575 -77.0987 105.028C-71.7787 114.328 -70.7787 123.417 -70.9887 133.438C-63.8187 131.698 -57.0787 131.348 -50.2287 134.178C-42.9687 137.178 -39.1387 142.458 -36.1987 148.208C-31.2187 139.528 -21.4088 134.507 -10.2988 131.188C6.19125 126.268 23.6013 126.108 39.7513 131.958C53.1613 136.818 74.1112 150.127 82.4112 159.497C93.7712 153.368 106.751 150.198 120.541 152.138C133.761 153.998 143.441 159.538 153.251 166.298C155.951 168.158 158.681 170.378 161.641 171.938L162.411 168.837C162.761 163.327 160.821 156.698 159.371 151.288C163.931 152.418 168.521 153.098 173.201 153.788C192.371 153.808 211.601 159.448 225.211 170.188C231.331 175.027 236.401 180.958 239.621 187.298L240.821 187.258C250.391 182.808 263.671 182.438 274.211 184.598C279.221 185.628 284.211 187.208 288.701 189.238C309.491 195.868 326.811 216.568 335.141 232.178C335.481 232.818 335.801 233.467 336.101 234.117C335.041 233.977 334.541 233.967 333.771 233.318C331.561 231.448 329.961 227.958 328.291 225.698C325.711 222.198 322.781 218.868 319.591 215.678C307.811 203.918 289.701 191.507 270.091 189.807C256.751 188.647 244.511 193.247 234.321 199.628C228.591 195.008 222.211 190.648 214.901 187.638C198.221 180.768 182.111 182.248 164.811 186.358C152.931 176.098 139.221 166.798 121.541 163.467C107.831 160.887 95.1912 163.178 83.2712 168.798C79.2512 163.588 74.8312 159.588 68.5712 155.928C51.6012 146.018 28.7212 141.328 7.71124 143.788C-9.13876 145.768 -26.7587 152.818 -36.8887 163.668L-37.5887 162.168C-40.8687 155.278 -46.1587 149.538 -54.9787 146.478C-63.1287 143.658 -70.0587 144.368 -78.1087 146.838C-77.6188 145.078 -77.1188 143.298 -76.8988 141.508C-75.3788 129.408 -82.3388 116.338 -92.1188 107.188C-101.959 97.9775 -116.639 90.8075 -132.169 89.7375C-139.489 81.2475 -147.179 74.4675 -157.969 68.5575V37.4375L-157.959 37.4575Z" fill="#B7E8F6"/>
<path d="M240.82 187.27C250.39 182.82 263.67 182.45 274.21 184.61C279.22 185.64 284.21 187.22 288.7 189.25C288.25 189.36 287.12 189.75 286.72 189.72C284.39 189.56 280.96 188.21 278.61 187.66C273.37 186.44 268.06 185.74 262.61 185.39C255.52 184.94 248.53 188.34 241.48 188.5L240.83 187.26L240.82 187.27Z" fill="#FCFCFA"/>
<path d="M159.383 151.299C163.943 152.429 168.533 153.109 173.213 153.799C192.383 153.819 211.613 159.459 225.223 170.199C231.343 175.039 236.413 180.969 239.633 187.309L239.253 188.439L238.163 188.799C232.473 187.549 224.703 181.209 217.963 178.809C198.333 171.829 183.693 172.189 163.733 178.069L162.433 168.839C162.783 163.329 160.843 156.699 159.393 151.289L159.383 151.299Z" fill="#FCFCFA"/>
<path d="M-26.5597 94.8394C-21.8997 85.6194 -15.1697 77.7694 -5.04968 71.6794C14.6203 59.8494 37.6903 58.6694 61.3503 61.0294C89.2903 67.0394 112.31 75.9594 127.31 96.5294C130.47 100.869 132.82 105.369 134.89 110.069C141.78 121.959 151.17 132.779 167.51 137.549C171.79 138.799 176.24 139.399 180.75 139.909C179.69 142.049 172.81 153.089 173.21 153.799C168.53 153.109 163.94 152.429 159.38 151.299C160.83 156.709 162.77 163.339 162.42 168.849L161.65 171.949C158.69 170.389 155.95 168.169 153.26 166.309C143.45 159.549 133.77 154.009 120.55 152.149C106.76 150.199 93.7803 153.369 82.4203 159.509C74.1203 150.129 53.1703 136.819 39.7603 131.969C23.6203 126.119 6.20031 126.289 -10.2897 131.199C-21.3997 134.509 -31.2097 139.539 -36.1897 148.219C-39.1397 142.469 -42.9597 137.179 -50.2197 134.189C-57.0697 131.359 -63.8097 131.709 -70.9797 133.449C-70.7697 123.429 -71.7697 114.339 -77.0897 105.039C-83.7597 93.3694 -96.3397 83.1994 -111.18 77.7094C-114.01 76.6594 -117.23 76.0494 -120.18 75.1594L-119.99 74.5194C-110.39 69.3994 -102.15 66.1894 -90.2097 67.9694C-79.0897 69.6294 -69.6897 75.1594 -63.5097 82.4694C-61.5597 84.7694 -60.3097 87.4294 -58.5597 89.8294C-59.2397 91.3094 -60.3597 92.6694 -59.7397 94.1794C-59.0397 94.0794 -58.1697 94.0494 -57.5197 93.8494C-46.6797 91.6094 -37.1697 92.3994 -26.5497 94.8494L-26.5597 94.8394Z" fill="#CFEEF4"/>
<path d="M-26.5613 94.8394C-21.9013 85.6194 -15.1712 77.7694 -5.05125 71.6794C14.6188 59.8494 37.6888 58.6694 61.3487 61.0294C61.7087 71.3294 58.0388 80.0494 48.8088 87.6394C40.5988 94.3994 29.4987 98.2394 17.5787 98.3994C-1.40126 98.6594 -13.0513 95.2894 -28.2013 107.209C-29.2713 108.049 -30.2713 108.939 -31.2513 109.859C-41.2013 99.0894 -43.1812 99.6994 -57.5312 93.8294C-46.6912 91.5894 -37.1813 92.3794 -26.5613 94.8294V94.8394Z" fill="#FCFCFA"/>
<path d="M237.148 216.288C245.698 209.848 257.658 207.168 269.348 207.318C286.508 207.528 302.328 214.398 314.048 223.938C319.638 228.488 323.228 233.618 326.898 239.168C326.398 240.138 325.788 241.068 325.748 242.128C324.748 242.648 324.188 242.748 323.738 243.638C323.098 244.908 321.388 245.298 320.988 246.648C319.998 249.988 323.658 252.078 317.588 253.928C310.648 256.048 309.398 254.988 305.528 261.078C304.578 262.568 303.988 263.558 302.308 264.618C302.348 265.808 302.468 266.898 302.748 268.078C300.708 268.168 298.558 268.158 296.548 268.438C292.678 265.608 289.458 262.868 283.928 262.388C283.728 262.368 283.518 262.358 283.318 262.338L283.918 261.188L281.498 262.488C279.028 261.108 276.528 257.438 273.648 256.998C271.188 256.628 269.768 257.868 267.818 258.818C266.858 257.238 266.338 256.408 264.348 255.548L261.958 256.718C262.868 253.918 264.298 250.778 264.188 247.888C261.668 245.428 258.418 245.098 254.688 244.558C255.548 239.438 249.848 240.458 249.858 238.008C249.858 234.708 251.518 235.458 249.418 231.898C249.838 231.428 249.968 230.798 250.168 230.238C249.148 228.468 244.668 221.738 242.298 221.318C241.018 221.098 240.588 221.838 239.088 221.238L237.148 216.278V216.288Z" fill="#92E0E9"/>
</svg>
