<svg width="201" height="32" viewBox="0 0 201 32" fill="none" xmlns="http://www.w3.org/2000/svg">
<path d="M51.0022 19.1975C54.6722 18.3375 58.1022 20.3175 61.7922 20.0975C68.3522 19.7075 74.4622 16.2975 81.1322 15.9775C86.6822 15.7175 91.6522 18.5975 97.0322 19.2475C101.982 19.8475 107.482 18.8775 112.522 18.9275C122.662 25.9575 139.632 23.6275 151.522 22.3175L152.072 21.8175C156.742 24.0475 189.442 21.5575 200.022 24.3775C187.072 24.9875 174.242 25.6475 162.152 30.6875C161.212 29.6775 160.132 28.6775 158.932 27.9775C149.652 22.6175 137.412 27.1275 128.112 29.9075C127.732 29.7375 127.342 29.5775 126.942 29.4375C118.682 26.4075 109.892 28.2175 102.122 31.8675C99.0622 29.0175 95.8322 26.4875 91.9922 24.7675C82.1122 20.3375 73.6422 23.9275 64.1722 27.4475C60.0222 23.7675 56.3622 20.9075 50.9922 19.1875L51.0022 19.1975Z" fill="#69D4E0"/>
<path d="M69.01 13.1707C74.07 7.9607 75.98 8.3707 82.8 6.8907C83.2101 6.8007 84.48 6.67069 84.8 6.4507C86.22 5.48069 87.41 3.0707 88.88 1.8907C90.96 0.210698 94.52 -0.239301 97.12 0.110699C104.67 1.1107 109.98 6.56069 114.44 12.2407C119.95 10.9607 126.79 10.0307 132.08 12.5607C134.59 13.7607 136.73 16.0307 137.62 18.6807L141.99 18.9807C145.22 19.2307 149.84 19.2507 152.07 21.8407L151.52 22.3407C139.64 23.6507 122.66 25.9807 112.52 18.9507C107.48 18.9007 101.97 19.8707 97.03 19.2707C91.65 18.6207 86.68 15.7407 81.13 16.0007C74.46 16.3107 68.35 19.7307 61.79 20.1207C58.1 20.3407 54.67 18.3607 51 19.2207C40.31 21.2107 29.0899 23.8807 18.1899 24.1207C12.4299 22.3607 5.71 25.7107 0 24.2107L1.97998 23.3107C5.20998 21.9107 25.2499 20.3407 30.5699 19.4907C40.6299 17.8907 45.63 14.1807 54.59 11.5507C60.11 9.93069 64.01 10.4907 69.01 13.1907V13.1707Z" fill="#C5EFF4"/>
</svg>
