<svg width="441" height="52" viewBox="0 0 441 52" fill="none" xmlns="http://www.w3.org/2000/svg">
<path d="M162.854 21.161C163.714 20.291 164.654 19.411 166.034 19.051C168.714 18.341 172.314 19.111 175.244 18.521C178.874 17.791 181.774 15.681 185.464 14.691L186.624 15.441L185.124 14.621L186.304 14.471C193.084 8.52096 202.494 4.48096 211.664 1.18096C218.554 -1.29904 220.834 0.620964 227.124 2.43096C227.994 3.45096 228.194 3.69096 228.324 4.90096C226.234 4.44096 224.374 4.41096 222.224 4.39096C218.134 3.00096 212.854 3.42096 208.744 4.65096C201.154 6.94096 196.774 12.021 193.574 17.541C187.764 16.941 179.174 16.941 174.284 19.761C172.064 21.041 170.594 23.121 169.344 25.011C167.234 23.701 165.154 22.241 162.844 21.161H162.854Z" fill="#1495D8"/>
<path d="M194.84 17.5376C198.04 12.0176 202.43 6.93763 210.03 4.64763C214.14 3.40763 219.43 2.99763 223.52 4.38763C225.67 4.40763 227.53 4.43763 229.63 4.89763C238.93 7.49763 250.64 12.4576 255.82 19.3676C258.58 19.1176 261.29 19.6676 263.5 20.9676C270.4 19.7076 275.46 19.4576 281.64 22.5076C287.17 25.2376 291.89 30.3276 293.89 35.1676C299.72 33.0476 305.72 31.7576 312.06 33.5076C316.14 34.6376 319.76 37.6176 321.44 40.7276C321.71 41.2276 321.69 41.2076 321.84 41.6376C361.32 42.6376 400.63 49.4776 440.08 50.2376C433.88 51.4776 426.78 50.9776 420.37 51.1276C407.27 51.4276 394.19 51.6576 381.08 51.7176L249.28 51.7476L54.77 51.3176C36.57 51.1576 18.17 51.5976 0 51.0676C8.07 48.8476 17.34 48.1276 25.78 46.9676C37.24 45.3876 48.91 43.4376 60.51 42.6476C72.1 35.1376 87.71 34.0876 102.14 33.2076C105.16 32.5876 107.18 32.6176 110.31 32.8876C120.36 33.7476 120.15 29.9876 126.49 26.0276L127.63 26.4676C130.94 24.7176 134.33 23.0476 137.98 21.7476C146.87 18.5876 155.03 18.4876 164.1 21.1576C166.41 22.2276 168.49 23.6976 170.6 25.0076C171.85 23.1176 173.32 21.0376 175.55 19.7576C180.45 16.9376 189.04 16.9376 194.86 17.5376H194.84Z" fill="url(#paint0_linear_389_9573)"/>
<path d="M254.469 19.3713C257.219 19.1213 259.929 19.6713 262.139 20.9713C261.379 21.7013 260.339 22.0813 259.309 22.5413C257.049 22.0713 256.009 20.7013 254.469 19.3713Z" fill="#1495D8"/>
<path d="M243.444 26.8728C245.434 26.7028 247.424 26.5428 249.414 26.6228C255.184 26.8428 258.684 28.8128 262.484 32.0428C254.704 31.2828 250.054 32.0928 242.914 34.6828C242.404 35.7928 241.004 37.4828 240.004 38.3728C238.724 39.5128 237.754 39.4128 235.984 39.4528C234.564 38.9928 233.444 38.5528 232.714 37.4428C231.814 36.0828 232.074 34.5728 232.804 33.2028C234.714 29.6228 239.194 28.2628 243.434 26.8828L243.444 26.8728Z" fill="#FCFCFA"/>
<path d="M193.573 17.5376C196.773 12.0176 201.153 6.93763 208.743 4.64763C212.843 3.40763 218.123 2.99763 222.223 4.38763C225.953 6.26763 229.213 8.81763 230.363 12.2876C230.083 12.4076 229.803 12.5276 229.513 12.6476C222.783 15.4776 217.183 15.8776 214.503 22.5076C213.433 25.1676 214.783 28.8076 213.423 31.0776C205.823 29.3176 194.633 26.5276 187.123 29.4676C182.663 31.2176 183.973 34.3376 181.033 36.1276C178.643 35.0276 176.403 33.7876 173.573 33.5676C170.933 34.5876 168.763 35.5776 165.773 34.8176C162.183 33.8976 158.623 32.2876 154.913 31.7076C147.823 30.6076 136.143 32.8676 129.683 35.2576C127.193 36.1776 123.093 38.8676 120.683 39.2576C117.883 39.7076 113.133 37.9176 109.993 37.8576C100.023 37.6776 89.0028 38.6676 79.2228 40.1776C74.9128 40.8376 64.4328 44.0076 60.5728 43.0876C60.0628 42.9676 59.8928 42.8576 59.3828 42.6476C70.9528 35.1376 86.5428 34.0876 100.953 33.2076C103.973 32.5876 105.983 32.6176 109.103 32.8876C119.133 33.7476 118.933 29.9876 125.263 26.0276L126.393 26.4676C129.703 24.7176 133.083 23.0476 136.723 21.7476C145.603 18.5876 153.753 18.4876 162.813 21.1576C165.123 22.2276 167.203 23.6976 169.313 25.0076C170.553 23.1176 172.033 21.0376 174.253 19.7576C179.143 16.9376 187.733 16.9376 193.543 17.5376H193.573Z" fill="#FCFCFA"/>
<path d="M100.971 33.2112C103.991 32.5912 106.001 32.6212 109.121 32.8912C119.151 33.7512 118.951 29.9913 125.281 26.0312L126.411 26.4712C122.751 29.3012 119.681 32.2312 117.441 35.8712C112.321 33.9912 106.551 33.4512 100.961 33.2112H100.971Z" fill="#1495D8"/>
<defs>
<linearGradient id="paint0_linear_389_9573" x1="356.119" y1="-64.4024" x2="83.2872" y2="126.384" gradientUnits="userSpaceOnUse">
<stop stop-color="#69B8E6"/>
<stop offset="1" stop-color="#B9E1EE"/>
</linearGradient>
</defs>
</svg>
