<svg width="332" height="91" viewBox="0 0 332 91" fill="none" xmlns="http://www.w3.org/2000/svg">
<path d="M105.54 54.6593C107.33 54.5393 109.17 54.5293 110.95 54.7893C114.82 55.3593 117.62 57.0393 119.91 60.1793C122.81 59.7593 125.74 59.5093 128.67 59.7293C134.85 60.1893 138.37 62.7193 142.29 67.2593C145.95 65.2393 150.08 64.8693 154.1 65.9793C156.94 66.7593 159.4 68.0993 160.88 70.7193C162.82 69.7693 164.78 69.1193 166.92 68.8293C171.64 68.1893 175.33 69.5293 179.03 72.3593C191.03 71.1193 202.97 72.3393 214.91 73.5593C221.56 74.2393 228.26 74.8593 234.87 75.8693C227.85 76.7793 220.43 76.3493 213.37 76.1093C207.76 75.9193 202.15 75.8293 196.54 75.8493C193.67 75.8493 190.82 76.0093 187.97 76.2693C185.56 76.4893 183.04 76.8993 180.62 76.7693C176.32 76.5393 174.2 73.6493 167.94 73.8593C155.55 74.2593 141.84 81.1993 129.3 79.5693C125.04 78.2093 122.6 78.2893 118.2 78.7993C116.88 78.9493 115.43 79.1493 114.11 78.9293C111.77 78.5293 109.78 76.1993 107.66 75.1893C105.95 74.3793 103.48 74.0793 101.6 73.8293C98.3301 73.3993 94.6401 73.3793 91.4701 74.3193C89.3601 74.9393 87.27 76.2093 85.03 76.1493C80.76 76.0393 77.7801 71.8793 72.7401 71.8093C67.2001 71.7293 61.69 73.0393 56.25 73.9193C52.33 74.5493 48.35 74.9293 44.39 75.2093C29.53 76.2393 14.96 74.4793 0.150024 73.4993L0 73.3093C1.88 72.9393 4.4001 73.3293 6.3501 73.3693C9.0901 73.4293 11.8301 73.3993 14.5601 73.3193C27.4201 72.9693 43.26 73.8893 55.38 69.4493C59.97 67.7693 64.0701 65.0693 68.5601 63.1593C74.8601 60.4793 80.0201 60.6293 86.3 63.1593C91.3101 57.4593 98.25 55.4293 105.54 54.6693V54.6593Z" fill="url(#paint0_linear_386_1071)"/>
<path d="M134.064 27.3663C147.184 23.7663 160.374 30.5463 164.784 43.1463C167.244 44.0463 169.604 42.9563 170.734 41.2763C173.434 37.2863 177.094 37.6463 180.854 38.2663C182.344 38.5063 183.334 38.4063 184.324 37.2763C185.694 35.7163 187.634 35.2763 189.574 35.2363C191.314 35.1963 191.994 34.6363 191.544 32.8663C190.614 29.2563 191.054 25.6263 191.714 22.0563C192.284 18.9963 193.664 16.3563 196.934 15.2463C198.094 14.8563 197.654 14.2663 197.034 13.7663C195.534 12.5563 193.734 12.6163 191.944 12.6463C188.774 12.7163 188.344 12.1163 188.724 9.00628C189.024 6.52628 190.384 4.74628 192.044 3.08628C197.124 -0.223719 202.514 -0.963719 208.184 1.31628C212.754 3.15628 216.394 6.21628 219.234 10.2263C221.394 13.2763 222.094 16.6763 221.394 20.7863C223.934 19.0163 226.564 18.3163 229.124 17.4763C244.764 12.3163 258.814 25.1563 256.804 41.2963C256.214 45.9863 254.174 48.2363 247.914 51.8063C253.204 53.3463 254.404 57.0463 253.564 61.8363C265.334 55.4663 278.574 63.5963 278.174 76.4063C280.604 74.7863 283.034 73.5863 285.974 73.7363C290.734 73.9863 294.124 76.8063 295.024 81.4863C295.334 83.0963 297.244 84.1463 298.914 83.6863C299.354 83.5663 299.834 83.5263 300.294 83.5663C310.644 84.4463 321.024 83.5163 331.374 84.5763H313.364C311.314 85.0463 309.204 84.4163 307.154 84.9263C306.384 85.5263 305.004 84.6763 304.554 86.0363C304.064 88.6363 303.584 89.1463 301.164 89.2263C298.864 89.2963 296.534 89.5263 294.354 88.3663C293.164 87.7363 291.904 88.1663 290.734 88.5363C289.084 89.0663 287.754 88.8763 286.594 87.4563C285.174 85.7363 283.254 85.2463 281.144 85.8463C278.874 86.4963 276.774 86.4963 274.404 85.8463C271.534 85.0563 268.404 85.3563 265.414 85.7263C262.014 86.1563 258.624 85.9863 255.234 85.9463C254.264 85.9363 253.354 85.6063 252.764 84.8463C251.544 83.2463 250.004 83.1263 248.204 83.5363C246.164 84.0063 245.184 83.3763 245.414 81.4463C246.324 73.9663 240.164 70.4063 233.884 69.7863C230.824 69.4863 228.094 70.4263 225.404 71.6663C224.984 71.8563 224.574 72.0963 224.154 72.2663C222.904 72.7863 221.344 73.9563 220.434 72.3763C219.414 70.6063 221.604 70.2963 222.524 69.3363C221.034 70.7163 219.794 70.5663 218.494 69.0463C217.234 67.5763 215.504 67.3363 213.604 67.7363C211.024 68.2763 210.374 67.8263 209.554 65.2763C207.234 58.0863 202.854 54.9063 195.254 54.9063C188.364 54.9063 181.994 56.7763 176.114 60.3363C175.254 60.8563 174.404 61.3963 173.784 62.2163C172.834 63.4163 171.844 64.5863 170.984 65.8463C170.314 66.8263 169.364 67.4463 168.244 67.0663C165.454 66.1363 163.144 66.8663 161.064 68.7763C160.784 69.0363 160.374 69.0963 159.984 69.1163C158.444 69.0263 157.804 67.7463 157.024 66.7463C153.064 61.6963 147.144 60.1863 141.324 62.8263C140.414 63.2463 139.554 63.7863 138.654 64.2163C136.844 65.0763 135.364 64.2163 135.584 62.2963C136.164 57.3963 136.714 52.4463 140.054 48.4163C141.014 47.2563 140.464 46.5863 139.274 46.2063C136.614 45.3563 133.984 45.4363 131.324 46.3663C127.914 47.5563 126.734 46.9063 125.724 43.4463C123.744 36.6363 126.334 30.7363 134.054 27.3563L134.064 27.3663Z" fill="#FDFDFD"/>
<path d="M134.062 27.3672C132.322 29.0172 130.502 30.5772 128.872 32.3272C125.742 35.6872 125.292 41.3272 127.572 45.2972C128.272 46.5272 129.022 46.0972 129.892 45.7272C133.552 44.1872 137.212 44.0472 140.922 45.6372C142.582 46.3472 143.152 46.9672 141.522 48.4772C138.102 51.6472 137.642 56.0872 136.932 60.3372C136.752 61.4072 135.852 62.9172 136.842 63.5972C137.862 64.2972 138.852 62.8272 139.832 62.3172C146.672 58.7472 153.442 60.2472 158.142 66.3972C158.742 67.1772 159.112 68.1772 160.062 68.6772C160.692 70.6872 160.142 71.8072 158.202 71.7572C156.472 71.7172 155.442 72.4272 154.642 73.7772C151.682 73.8972 148.942 75.0072 146.112 75.6672C144.822 75.1572 143.602 74.4772 142.262 74.0872C139.602 73.3072 137.802 73.9572 136.332 76.2772C136.042 76.7372 135.812 77.2872 135.332 77.5272C132.942 78.7672 130.512 80.3872 127.942 80.6472C124.172 81.0372 120.472 81.7672 116.732 82.2572C111.382 82.9572 105.972 83.0672 100.592 83.3372C100.142 83.3572 99.6623 83.2472 99.2423 83.5372C95.3723 83.5672 91.5022 83.5072 87.6422 83.6772C85.5122 83.7772 84.9923 82.7172 84.8723 80.9172C84.3723 73.0872 90.4823 68.0072 98.9723 69.2572C99.6523 69.3572 100.322 69.4972 101.602 69.7272C100.302 68.5572 99.4123 67.8172 98.5823 66.9972C94.3223 62.8172 94.9423 57.9372 100.162 54.9972C105.192 52.1572 110.552 51.7272 116.102 53.0972C116.832 53.2772 117.552 53.5072 118.282 53.7072C118.352 53.4472 118.472 53.2672 118.422 53.1772C113.552 44.1972 118.702 34.6372 126.282 30.1972C128.692 28.7872 131.262 27.7072 134.072 27.3672H134.062Z" fill="#B5F1FC"/>
<path d="M173 61.6496C174.49 59.6396 176.65 58.5396 178.83 57.5596C184.47 55.0196 190.34 53.5596 196.6 53.7796C203.52 54.0196 209.13 58.3796 210.6 65.1396C211.02 67.0496 211.61 67.3396 213.37 66.7396C215.77 65.9196 218.05 66.4296 219.56 68.6096C220.4 69.8296 221.04 69.7396 222.19 69.1296C223.31 68.5296 224.6 68.2596 226 68.2896C224.74 68.9196 223.45 69.4896 222.24 70.1896C221.54 70.5896 220.41 71.1396 220.92 72.0396C221.41 72.8996 222.31 72.0096 222.94 71.6896C226.49 69.9096 230.01 68.1996 234.19 68.7196C237.82 69.1696 241.15 70.2196 243.8 72.8496C246.25 75.2796 246.97 78.2796 246.42 81.6096C246.22 82.8396 246.39 83.2096 247.69 82.6696C249.95 81.7196 252.08 81.6496 253.54 84.0996C254.19 85.1896 255.24 85.0396 256.22 85.0096C261.55 84.8496 266.88 84.6596 272.21 84.4996C273.69 84.4496 275.15 84.4996 276.47 85.3396C277.36 85.9196 278.22 85.5596 279.12 85.2596C282.5 84.1396 285.69 83.8996 287.94 87.4296C288.5 88.3196 289.24 88.0096 289.98 87.6896C292 86.8296 293.89 86.7896 295.98 87.8196C297.96 88.7896 300.26 88.3596 302.39 88.0896C303.9 87.8996 303.97 86.8396 302.67 85.5396C303.68 84.3496 305.2 85.0696 306.39 84.5596C308.72 84.3396 311.05 84.3696 313.37 84.5896C311.42 85.4296 309.18 84.1096 307.29 85.4096C306.86 86.2496 306.18 87.0796 307.74 87.5696C309.12 87.9996 309.52 89.2896 309.99 90.4796C309.69 90.9096 309.25 90.9896 308.77 90.9896C298.37 90.9896 287.97 90.9696 277.58 90.9596C276.67 90.3396 275.64 90.5696 274.66 90.5596C264.25 90.5396 253.84 90.5596 243.43 90.5396C239.86 89.5696 236.21 88.9796 232.54 88.5396C232 88.4796 231.43 88.2596 230.93 88.3996C227.71 89.3396 225.49 87.7596 223.01 85.9296C217.34 81.7596 211.31 81.5796 205.27 85.4096C202.77 86.9996 202 86.6996 201.2 83.8896C200.26 80.5696 198.24 78.5596 194.83 77.5396C188.02 75.5196 181.74 72.4496 176.77 67.1496C176.07 66.4096 175.44 65.6496 175.1 64.6796C174.98 63.9996 175.24 63.4696 175.79 63.0796C181.16 59.2896 187.07 58.0396 191.35 58.7996C187.6 58.0996 182.09 59.0996 176.97 62.2996C176.19 62.7896 175.52 63.4496 174.53 63.4796C173.58 63.2396 173.18 62.5296 173.01 61.6396L173 61.6496Z" fill="#AAEEFB"/>
<path d="M192.029 3.09594C190.959 5.32594 189.989 7.57594 189.579 10.0559C189.349 11.4759 189.659 11.8259 191.099 11.6359C194.119 11.2259 196.999 11.4959 199.089 14.1459C199.459 14.6159 200.079 15.0259 199.759 15.7359C199.479 16.3359 198.829 16.1959 198.309 16.1959C195.469 16.1559 194.099 18.0459 193.379 20.3259C191.909 24.9759 191.559 29.7259 193.069 34.4559C193.529 35.9159 193.619 36.5159 191.679 36.3259C188.679 36.0259 185.739 36.3259 184.009 39.3959C183.459 40.3759 182.659 39.9459 181.979 39.6759C180.049 38.9059 178.059 38.8959 176.039 38.9759C174.349 39.0359 172.879 39.7659 172.269 41.2659C171.109 44.1359 167.999 43.6259 166.029 45.0859C165.249 45.6559 164.989 43.9859 164.789 43.1359C165.269 42.9359 165.469 42.5359 165.579 42.0659C166.749 37.2759 169.839 34.8959 174.729 34.8459C175.889 34.8359 176.299 34.4259 176.409 33.2359C176.749 29.6159 178.379 28.2259 181.979 28.1759C183.689 28.1459 185.339 28.4359 187.609 29.3759C184.499 24.5059 182.229 20.0159 183.279 14.6859C184.319 9.40594 187.449 5.68594 192.039 3.08594L192.029 3.09594Z" fill="#B5F0FA"/>
<path d="M106.134 36.2366C106.154 39.9266 103.394 42.6966 99.7342 42.6766C96.1442 42.6566 93.3942 39.9166 93.4142 36.4066C93.4342 32.9166 96.2242 30.1266 99.7342 30.0866C103.334 30.0366 106.114 32.7166 106.124 36.2466L106.134 36.2366Z" fill="#FDFDFD"/>
<path d="M226.359 17.43C234.559 9.20001 250.749 11.47 257.719 21.85C248.149 13.97 237.929 10.9 226.359 17.43Z" fill="#EFFAFD"/>
<path d="M170.111 4.42706C170.081 6.46706 168.471 7.99706 166.351 7.98706C164.321 7.98706 162.851 6.52706 162.821 4.50706C162.791 2.42706 164.361 0.817062 166.421 0.797062C168.511 0.777062 170.131 2.36706 170.101 4.42706H170.111Z" fill="#FBFDFD"/>
<path d="M295.399 61.4555C295.399 63.2355 294.139 64.5155 292.349 64.5655C290.519 64.6155 289.119 63.2455 289.109 61.3855C289.099 59.5155 290.469 58.0955 292.279 58.1255C294.089 58.1555 295.409 59.5655 295.399 61.4655V61.4555Z" fill="#FAFCFD"/>
<path d="M314.291 70.2385C314.131 71.6785 313.231 72.7285 311.531 72.7685C309.821 72.8085 308.821 71.8485 308.731 70.0985C308.641 68.3685 309.851 67.1485 311.531 67.1885C313.091 67.2285 314.281 68.4385 314.291 70.2285V70.2385Z" fill="#F9FCFD"/>
<path d="M173.006 61.6428C173.836 61.8128 174.376 62.2628 174.506 63.1428C174.916 63.9728 174.336 64.4528 173.846 64.9228C171.816 66.8628 170.146 69.0928 168.986 71.6228C167.636 74.5728 164.746 74.1928 162.356 74.8728C161.976 74.9828 161.336 74.5528 161.006 74.7928C158.226 76.8028 156.576 74.3628 154.586 73.2428C154.596 71.5128 155.376 70.1628 157.166 70.6428C159.226 71.1928 159.696 70.1828 160.076 68.6628C162.156 65.8428 164.856 64.8328 168.206 66.0228C169.306 66.4128 169.936 66.1828 170.436 65.1628C171.086 63.8428 171.886 62.6128 173.016 61.6328L173.006 61.6428Z" fill="#7CD9FB"/>
<path d="M224.375 55.3588C225.085 51.5888 224.435 50.4488 220.625 49.0888C219.465 48.6788 218.245 48.4288 217.045 48.1488C215.705 47.8388 214.335 47.8288 214.785 45.6488C215.085 44.1888 213.595 44.0188 212.505 44.1388C210.575 44.3588 209.695 43.5988 209.465 41.6788C209.315 40.4688 208.785 39.3388 208.015 38.3188C205.555 35.0188 204.235 34.6388 200.625 36.3288C201.285 34.4288 202.365 33.7488 204.385 34.1788C207.625 34.8788 209.685 37.0288 210.645 40.0688C211.255 42.0088 212.205 42.8888 214.265 42.7088C215.665 42.5888 216.775 43.2188 216.745 44.7888C216.715 46.4588 217.725 46.8188 219.025 47.1088C221.065 47.5688 223.055 48.0988 224.585 49.7288C226.595 51.8688 226.605 53.1188 224.385 55.3588H224.375Z" fill="#B9F0F9"/>
<path d="M154.573 73.2638C154.723 73.2938 154.902 73.2838 155.022 73.3638C158.822 76.0338 162.563 74.0238 166.323 73.2538C167.173 73.0838 167.642 72.5438 168.002 71.8138C169.642 68.5338 171.913 65.7238 174.493 63.1438C179.823 59.2638 185.683 57.3538 192.323 58.4738C194.063 58.7638 195.562 59.5738 196.792 60.8538C188.932 58.0538 181.803 59.1538 175.373 64.4738C172.773 66.5238 170.853 69.1738 169.483 72.1038C168.003 75.2638 164.952 74.7438 162.512 75.5038C161.722 75.7538 160.663 75.3038 159.873 76.1538C159.163 76.9138 158.473 76.4638 157.853 75.9338C153.823 72.5538 144.813 75.0838 143.703 80.5838C143.653 80.8038 143.543 81.0138 143.463 81.2338C142.729 83.4871 141.429 83.6504 139.562 81.7238C141.682 83.0938 142.323 82.2038 142.693 80.3038C143.113 78.1738 144.802 76.7738 146.162 75.2038C148.782 73.7538 151.623 73.2838 154.573 73.2538V73.2638Z" fill="#EBFAFB"/>
<path d="M134.344 79.473C136.024 79.283 137.164 79.313 138.234 79.863C138.594 80.043 138.914 80.363 138.734 80.773C138.524 81.233 138.134 81.053 137.764 80.883C136.794 80.453 135.804 80.073 134.354 79.473H134.344Z" fill="#EBFAFB"/>
<defs>
<linearGradient id="paint0_linear_386_1071" x1="121.542" y1="52.9035" x2="122.111" y2="29.1385" gradientUnits="userSpaceOnUse">
<stop stop-color="#93D8EF"/>
<stop offset="1" stop-color="#DAF0F5"/>
</linearGradient>
</defs>
</svg>
