<svg width="184" height="41" viewBox="0 0 184 41" fill="none" xmlns="http://www.w3.org/2000/svg">
<path d="M71.6539 34.2952C68.9039 36.7752 68.7439 37.6452 70.7639 39.3452C81.0239 39.5352 91.2939 39.6252 101.554 39.3052V39.2352C102.394 38.6852 103.394 38.5852 104.304 38.2652C106.004 37.6652 106.944 36.5752 107.144 34.7152C107.464 31.7852 109.314 30.9552 111.674 32.6852C112.954 33.6252 114.164 34.2152 115.694 33.4152C119.034 31.6652 122.414 31.8452 125.844 33.1352C126.824 33.5052 127.824 33.9252 128.914 33.8552C129.824 33.7952 130.954 33.6652 130.884 32.5352C130.824 31.4952 129.844 31.2152 128.824 31.4252C128.394 31.5152 127.914 31.9152 127.534 31.3252C127.534 30.8352 127.534 30.3452 127.534 29.8652C127.454 25.3752 124.284 23.2652 120.044 24.8352C119.314 25.1052 118.724 25.7752 117.704 25.6352C117.764 25.2152 117.804 24.8252 117.884 24.4452C119.204 17.8452 116.394 13.2552 109.854 11.6752C103.824 10.2152 98.6139 11.9252 94.2339 16.2652C91.9739 18.5052 92.1539 21.2252 92.7539 24.0152C93.1606 25.9418 92.3739 26.9618 90.3939 27.0752C87.4539 27.4052 84.4439 27.2552 81.7939 29.0652C80.9139 29.6652 79.5739 29.3352 78.4439 29.3452C76.7839 29.3552 75.2739 29.8552 73.8039 30.5952C72.2539 31.3752 71.4939 32.5552 71.6539 34.2952Z" fill="#FDFDFD"/>
<path d="M69.2888 6.46249C63.2388 -0.66751 52.9488 -2.08751 45.2388 3.15249C42.5788 4.96249 40.8588 7.30249 41.1688 10.6925C41.2688 11.8325 40.8488 11.9825 39.9288 11.6425C39.7788 11.5825 39.6188 11.5425 39.4588 11.5225C36.6388 11.1125 33.7988 10.9325 31.8188 13.4525C29.8688 15.9325 30.7488 18.5225 31.9988 21.0325C32.1388 21.3225 32.2088 21.6425 32.3588 22.0625C31.3088 22.3425 30.6288 21.6125 29.8588 21.3225C27.1588 20.2925 24.3788 19.6725 21.4988 19.8525C16.7088 20.1425 15.1888 23.0325 17.3388 27.7925C15.9588 28.0725 14.8488 27.1725 13.5788 27.0725C9.85875 26.8025 6.44876 27.4225 3.52876 29.9325C2.85876 30.5125 2.04878 30.9325 1.29878 31.4325C0.348783 32.1125 0.718754 32.9925 1.51875 32.9625C5.20875 32.8125 9.2688 34.6925 12.4988 32.4925C15.8788 30.1925 19.1088 30.4525 22.6188 31.1025C24.1988 31.3925 25.4687 31.0325 26.6387 29.9325C29.4087 27.3325 32.7288 25.9125 36.5188 25.6625C37.7188 25.5825 38.8288 25.2825 39.3988 24.1525C40.1988 22.5825 41.5187 22.2325 43.0788 22.3825C44.6588 22.5325 45.6888 21.9025 46.4088 20.4725C48.6388 16.0425 52.5388 14.0325 57.2388 13.5925C60.2188 13.3125 63.2488 13.3225 66.2488 13.8625C70.2788 14.5825 71.6488 12.8825 70.4588 8.87249C70.1988 7.99249 69.7788 7.22249 69.2788 6.48249L69.2888 6.46249Z" fill="#FDFDFD"/>
<path d="M71.6517 34.2891C73.6517 31.1091 76.6717 30.2291 80.2017 30.5291C81.5317 30.6391 82.7317 30.5491 83.7617 29.4591C84.5017 28.6791 85.5717 28.3491 86.6717 28.4691C88.1617 28.6291 89.3617 28.0791 90.3917 27.0691C89.9417 26.8691 89.4517 26.6291 89.4217 26.0991C89.3317 24.2091 88.0917 23.9791 86.5917 24.0391C85.5717 24.0791 84.6417 23.9291 84.4417 22.6591C84.3517 19.6691 83.4617 18.6291 80.6017 17.6791C79.4617 17.2991 78.2017 17.4791 77.1617 16.7991C75.1217 16.4391 73.1817 15.9791 73.2117 13.2891C71.6517 14.0691 71.9717 15.8191 71.3017 17.0691C70.5917 18.3891 70.0717 18.8491 68.5217 18.1091C62.6317 15.3191 58.7417 16.5791 54.4317 21.6191C52.6217 23.7391 49.2617 24.2691 47.8417 27.1691C47.5717 27.7191 46.1517 27.3391 45.2617 27.4191C42.3517 27.6991 39.6317 28.3491 37.9917 31.1291C37.4617 32.0291 37.1517 32.8991 37.9317 33.8191C48.2217 33.8491 58.5117 33.8691 68.8017 33.9091C69.7617 33.9091 70.7617 33.7091 71.6417 34.2891H71.6517Z" fill="#81BAEF"/>
<path d="M37.9409 33.8209C39.5109 29.6609 42.161 28.1609 47.701 28.5309C49.151 28.6309 50.0409 28.7709 49.9809 26.7709C49.9309 25.1409 51.1309 23.9909 52.8809 24.2109C54.0909 24.3609 54.5909 23.9509 55.1409 22.9809C58.3109 17.4409 63.6309 16.1609 68.9809 19.7109C70.4509 20.6909 71.1709 20.9709 71.7909 18.9009C72.3409 17.0509 73.3709 15.3309 73.2109 13.3009C72.6909 10.5709 71.2709 8.35094 69.2809 6.46094C69.4109 7.10094 69.5809 7.73094 69.6709 8.37094C70.3709 13.1509 70.1809 13.1809 65.4609 12.5609C61.1109 11.9809 56.6909 11.8209 52.4709 13.5209C49.2709 14.8109 46.7009 16.8809 45.3309 20.1209C44.8909 21.1609 44.4609 21.4609 43.3609 21.2809C41.1409 20.9209 39.0909 21.0309 38.3309 23.7709C38.0809 24.6609 37.161 24.4909 36.451 24.5209C32.291 24.6909 28.7209 26.2809 25.7709 29.1709C24.8309 30.0909 23.9309 30.4209 22.7309 29.9909C20.5209 29.1909 18.0009 30.0909 15.8709 28.7209C15.4209 28.4309 14.7209 28.7709 14.6309 29.1809C14.1609 31.1509 12.1609 31.2209 10.9909 32.2909C10.5209 32.7209 10.011 32.9209 9.45095 32.8109C7.03095 32.3509 4.60091 32.4409 2.16091 32.4709C1.48091 32.4709 1.04093 32.2409 1.30093 31.4409C0.480929 31.5809 -0.149091 32.0409 0.0309091 32.8909C0.270909 34.0609 1.3409 33.9109 2.2109 33.9209C9.1009 33.9409 15.9909 33.9509 22.8809 33.9309C27.9009 33.9309 32.931 33.8709 37.951 33.8409L37.9409 33.8209Z" fill="#AEDAF7"/>
<path d="M127.529 31.3198C128.129 32.2198 129.399 31.7598 130.159 32.6898C128.789 33.1298 127.619 32.5498 126.489 32.1398C122.499 30.6698 118.579 30.3298 114.789 32.6398C113.799 33.2498 113.309 32.6998 112.739 32.0998C111.469 30.7898 110.029 29.9898 108.169 30.7998C106.359 31.5898 105.639 32.9798 106.049 34.9298C106.259 35.9498 105.589 36.3798 104.849 36.7998C103.649 37.4798 102.409 38.0998 101.539 39.2298C102.509 39.2598 103.469 39.2898 104.439 39.3098C105.069 39.5698 105.729 39.4698 106.369 39.4698C120.209 39.4698 134.049 39.4798 147.889 39.4498C148.919 39.4498 150.719 40.0698 149.959 37.7498C147.469 35.3398 144.569 33.7498 141.089 33.3598C140.469 33.2898 140.089 32.9898 139.729 32.4898C137.139 28.9198 134.899 28.2598 130.829 29.8398C129.709 30.2798 128.629 30.8198 127.529 31.3098V31.3198Z" fill="#B7F1FB"/>
<path d="M173.439 34.8003C172.659 34.2303 171.749 34.3803 170.879 34.3303C170.319 34.3003 169.559 34.4203 169.319 33.9003C168.009 31.0603 165.519 31.3803 163.109 31.4403C162.379 32.2503 161.619 32.4603 160.769 31.6003C159.009 29.4503 156.569 29.5403 154.279 29.9603C151.249 30.5103 148.319 30.0403 145.339 29.7603C144.249 29.6603 143.519 29.1703 143.219 28.0903C143.049 27.4603 142.839 26.8403 142.149 26.5703C141.299 27.3903 140.819 28.4103 140.699 29.5803C140.529 31.1303 140.949 32.0603 142.689 32.6103C145.099 33.3803 147.889 33.5003 149.609 35.8003C150.099 36.4503 150.889 37.0803 150.979 37.7803C151.339 40.7903 153.409 40.6903 155.609 40.6803C164.069 40.6403 172.539 40.6603 180.999 40.6303C181.699 40.6303 182.669 40.8703 182.959 40.0503C183.289 39.1003 182.439 38.6403 181.679 38.2803C180.559 38.3103 179.439 38.2103 178.309 38.2403C175.489 38.3003 174.569 37.6403 173.429 34.7903L173.439 34.8003Z" fill="#7AD8FB"/>
<path d="M142.147 26.5753C142.087 29.8853 141.517 30.9353 146.087 31.0553C149.157 31.1353 152.187 31.5753 155.247 30.9553C157.417 30.5153 159.207 31.2753 160.667 32.8953C162.417 32.1653 162.677 31.4253 161.507 29.6753C159.157 26.1453 155.807 24.1453 151.657 23.3153C150.127 23.0053 148.507 23.4153 147.047 22.6953C144.807 23.2153 143.447 24.8453 142.157 26.5753H142.147Z" fill="#A1E7FA"/>
<path d="M137.648 22.1923C140.048 22.1723 141.558 20.7423 141.588 18.5023C141.618 15.9723 139.828 14.2323 137.268 14.2823C135.038 14.3323 133.388 15.9723 133.398 18.1323C133.418 20.4523 135.268 22.2223 137.648 22.2023V22.1923Z" fill="#B4EFFA"/>
<path d="M147.037 22.6992C146.597 24.1892 147.597 23.6992 148.387 23.7792C153.317 24.2792 157.947 25.4492 160.897 29.9792C161.577 31.0192 161.927 32.0192 160.667 32.9092C162.327 33.8592 163.317 33.6492 163.117 31.4592C160.287 24.9892 153.847 21.4892 147.047 22.7092L147.037 22.6992Z" fill="#E0F9FC"/>
<path d="M149.96 37.7656C149.85 39.7156 148.36 39.2356 147.24 39.2356C134.02 39.2356 120.81 39.2256 107.59 39.2156C106.54 39.2156 105.49 39.2856 104.43 39.3156C105.26 39.7456 106.17 39.6656 107.05 39.6656C120.76 39.6956 134.46 39.7256 148.17 39.7156C149.34 39.7156 151.27 40.1456 149.95 37.7656H149.96Z" fill="#7AD8FB"/>
<path d="M164.094 25.2592C164.714 26.7792 165.674 27.9492 167.454 27.9392C168.974 27.9392 169.654 26.9192 169.484 25.5192C169.294 23.9392 168.234 23.0692 166.644 23.1192C165.334 23.1592 164.324 23.7592 164.104 25.2592H164.094Z" fill="#B4EDFA"/>
<path d="M173.439 34.7991C172.719 34.9291 171.799 34.9191 172.539 36.0791C173.569 37.6891 174.679 39.1091 176.949 38.7591C178.509 38.5191 180.169 39.1691 181.679 38.2891C181.459 38.1791 181.259 38.0191 181.029 37.9791C178.789 37.6291 176.159 38.2691 174.949 35.3791C174.799 35.0291 173.959 34.9791 173.439 34.7891V34.7991Z" fill="#BAEFF6"/>
<path d="M101.54 39.3047C91.28 39.3147 81.01 39.3347 70.75 39.3447C71.4 39.7847 72.15 39.7147 72.87 39.7147C81.64 39.7147 90.4 39.7047 99.17 39.6947C99.98 39.6947 100.8 39.7447 101.54 39.3047Z" fill="#7AD8FB"/>
<path d="M77.1641 16.8005C77.3641 17.6005 78.0041 17.7105 78.6741 17.7805C81.7241 18.0905 83.9141 19.4005 84.4441 22.6705C85.0641 20.3805 84.3641 18.8905 82.0741 17.6905C80.5341 16.8805 78.8941 16.6305 77.1741 16.8005H77.1641Z" fill="#C8E8F3"/>
<path d="M105.963 16.6612C102.373 13.5612 95.3228 17.4712 94.8828 26.3112C97.2528 21.2112 98.5928 15.3612 105.963 16.6612Z" fill="#88C1E1"/>
<path d="M166.193 34.1437C165.773 34.0437 165.363 34.0138 165.273 34.5638C165.183 35.1338 165.513 35.6137 166.013 35.6237C168.073 35.6937 170.133 35.6538 170.713 38.3138C170.733 38.4238 171.163 38.5638 171.323 38.5038C171.813 38.3138 171.703 37.9138 171.593 37.4938C171.103 35.6238 168.873 34.2237 166.193 34.1437Z" fill="#CEF5F9"/>
</svg>
