<svg width="427" height="245" viewBox="0 0 427 245" fill="none" xmlns="http://www.w3.org/2000/svg">
<path d="M327.769 162.275C329.289 163.535 330.269 165.235 330.919 166.985C332.749 171.915 334.539 176.435 340.459 178.235C343.579 179.185 344.819 182.875 345.319 186.165C345.669 188.495 346.279 189.945 349.099 189.755C351.349 189.605 352.389 190.985 352.479 193.385C352.559 195.795 351.699 197.955 351.359 200.245C350.269 203.375 347.659 203.315 345.169 202.905C343.099 202.565 341.119 202.385 339.309 202.905C340.769 202.685 342.709 201.795 343.709 203.945C344.579 205.805 343.289 207.195 342.059 208.465C344.109 206.705 346.589 206.685 349.069 206.275C353.889 205.475 358.949 204.915 362.049 200.265C367.309 195.685 373.279 195.925 378.219 201.375C380.069 203.415 381.629 204.165 384.019 202.795C387.049 203.045 389.849 199.945 393.009 202.165C393.999 203.025 394.839 204.055 395.669 205.065C397.739 207.605 399.819 208.695 403.519 208.035C410.419 206.795 421.389 212.265 422.209 222.535C422.369 224.495 422.999 226.105 424.299 227.665C427.779 231.865 427.009 234.625 421.979 236.595C420.859 237.035 419.849 237.525 419.059 238.425C416.069 240.875 412.839 239.105 409.809 238.695C406.469 238.245 403.179 237.425 399.769 237.495C397.459 237.545 395.569 236.625 393.649 235.375C389.829 232.885 385.839 232.185 381.679 234.865C379.019 236.575 376.739 235.545 374.489 233.665C369.639 229.615 364.689 225.695 358.479 223.785C353.179 222.145 348.169 221.775 343.429 225.475C340.629 227.655 338.209 226.495 336.259 223.915C331.979 218.275 327.169 213.165 321.509 208.855C315.659 204.395 309.139 201.505 301.989 200.045C289.039 197.405 275.289 204.475 269.829 216.315C268.569 219.055 268.829 220.745 271.499 222.565C274.839 224.835 278.249 225.965 282.239 225.665C287.229 225.285 291.879 226.375 296.099 229.115C297.759 230.195 299.529 231.575 298.489 233.685C297.539 235.615 295.329 235.075 293.719 234.465C288.369 232.465 282.949 231.695 277.279 232.675C274.549 233.145 272.479 231.435 270.529 229.925C267.229 227.375 263.609 225.465 259.689 224.145C256.459 223.055 253.289 222.245 249.959 224.335C247.859 225.655 245.679 225.055 245.619 222.155C245.569 219.815 244.349 218.825 242.609 217.795C234.529 212.995 225.859 209.245 217.919 204.195C214.949 202.305 211.899 200.535 209.249 198.165C207.879 196.935 206.609 195.655 207.479 193.645C208.209 191.965 209.769 191.305 211.469 191.445C218.989 192.075 226.339 190.805 233.749 189.885C238.109 189.345 242.189 191.955 246.389 193.175C247.349 193.455 248.419 194.625 249.239 193.915C254.549 189.315 257.309 194.165 260.659 196.845C261.229 197.305 261.709 197.875 261.659 197.825C258.839 194.595 254.899 192.305 249.709 191.035C245.859 190.095 242.209 187.395 238.279 185.845C236.759 185.245 236.149 183.525 235.409 182.055C231.159 173.565 223.649 170.435 214.469 173.255C213.209 173.645 211.949 174.055 210.699 174.495C207.599 175.575 205.239 174.605 203.549 171.855C202.629 170.355 201.889 168.735 200.539 167.525C199.649 166.725 198.469 165.615 197.459 166.435C194.309 169.005 190.709 167.655 187.309 168.105C179.589 169.125 172.479 171.915 166.439 176.875C163.629 179.185 160.699 180.175 157.159 180.175C150.259 180.175 143.319 180.715 136.899 177.265C134.959 176.225 132.619 175.645 131.359 173.785C128.299 169.285 124.179 168.365 118.999 168.815C112.719 169.365 106.359 168.575 100.049 169.175C91.3087 169.995 83.5387 172.365 80.6387 182.095C80.2287 183.475 79.6087 184.855 78.7587 186.075C78.4587 186.405 78.0987 186.655 77.6887 186.825C74.8887 187.295 73.7287 185.395 72.8087 183.315C71.5487 180.465 69.9187 178.395 66.4087 178.115C63.5787 177.895 62.2987 175.735 61.7087 173.025C61.0987 170.245 61.2187 167.665 63.3587 165.685C65.8287 163.395 68.2787 163.965 69.9387 165.825C64.1187 163.475 59.5287 156.555 51.2187 158.305C49.9387 158.575 48.5087 157.875 47.6487 156.855C44.3687 152.935 40.1487 153.285 35.9087 154.295C32.5887 155.095 29.5587 155.575 27.1287 152.425C26.3287 151.385 25.0387 151.635 23.8787 151.485C19.7187 150.945 18.0887 148.255 19.4087 144.305C19.7887 143.185 20.1787 141.975 20.9987 141.185C23.6887 138.615 24.3387 135.915 23.4387 132.115C22.5387 128.305 24.9887 125.115 28.5687 123.845C32.0187 122.615 33.2587 119.515 35.3287 117.205C36.6587 115.725 35.2487 113.605 34.1787 112.005C31.0687 107.355 31.1087 101.685 34.3087 97.7654C37.3087 94.0753 42.0487 93.2154 47.5787 95.3954C49.0387 95.9654 50.4187 97.1654 52.0187 95.7254C53.2887 94.9954 54.6387 94.4553 55.8587 93.6053C63.5687 88.2353 74.5387 92.5553 76.8287 101.825C75.9987 106.615 73.1087 111.205 75.4887 116.665C77.8787 115.715 80.1087 114.355 82.7687 114.305C84.4587 114.275 84.5287 112.695 84.7887 111.355C86.0087 104.975 87.0387 103.875 93.0887 103.215C94.7887 103.035 95.1087 102.195 95.7087 100.905C97.7287 96.5453 99.4187 91.8854 104.299 89.6254C105.339 89.1453 108.329 80.1454 107.939 79.1754C106.899 76.6554 104.469 76.2154 102.249 75.5054C99.6487 74.6754 96.5387 75.8754 94.3087 73.5854C91.9387 71.1554 94.3587 68.1654 93.4487 65.5453C93.0987 64.5254 93.0787 63.5254 93.7587 62.6154C95.9287 60.0254 98.8787 60.7754 101.649 60.7854C103.509 59.7154 105.339 60.3454 107.189 60.8654C113.829 62.7354 120.439 64.7154 127.499 64.2054C129.679 64.0453 131.939 64.2854 133.559 66.2054C134.379 67.1754 135.419 67.5654 136.719 67.1954C139.389 66.4454 141.609 67.5154 143.139 68.6053C142.569 68.2253 141.239 66.9653 140.109 67.2153C134.999 68.3453 131.489 64.3653 127.009 63.4653C121.849 62.4253 118.319 56.8053 121.459 52.5953C116.839 54.9953 109.229 51.8154 107.139 46.3654C106.129 43.7454 104.899 41.3254 103.499 38.8954C101.829 36.0054 101.629 32.6554 103.579 29.6954C104.999 27.5454 105.679 25.2553 105.959 22.7653C107.879 15.8853 111.959 12.4754 119.499 11.5254C124.699 10.8754 129.789 11.4653 134.659 13.4053C136.769 14.2453 137.969 14.0154 138.339 11.5554C138.469 10.7154 138.919 9.89535 139.369 9.14535C144.129 1.19535 157.769 -2.28465 168.889 1.58535C178.979 5.09535 183.159 12.1954 181.649 23.2554C181.629 23.4054 181.619 23.5553 181.579 23.6853C180.359 27.5653 180.319 30.0254 185.699 30.8454C191.319 31.6954 192.969 38.0354 189.479 43.6154C188.059 45.8854 187.379 47.1453 189.949 49.2153C192.719 51.4553 192.129 54.7754 190.679 57.7254C189.979 59.1554 188.959 60.4253 187.759 62.2653C189.679 62.0253 191.139 61.8054 192.609 61.6754C195.629 61.3853 198.209 62.2954 199.809 64.9554C201.269 67.3854 201.389 69.8854 199.539 72.3354C197.899 74.4954 199.159 74.6754 201.099 74.4254C204.239 74.0254 207.269 74.6254 210.109 75.9653C217.139 79.2853 220.039 88.3154 215.679 94.6254C213.899 97.2054 213.439 99.3354 213.639 102.425C213.849 105.805 213.239 108.585 217.349 110.265C219.789 111.265 219.679 113.125 218.819 120.745C230.229 110.855 242.379 109.715 254.389 117.905C263.989 124.455 266.449 134.445 264.239 145.605C265.229 146.015 265.649 145.335 266.159 144.885C273.289 138.655 279.909 138.775 286.819 145.315C291.199 149.455 293.519 154.875 295.799 160.185C296.239 160.185 296.599 160.295 296.759 160.165C307.529 151.185 313.379 151.065 325.829 159.595C326.469 160.465 326.279 161.935 327.739 162.205L327.769 162.275Z" fill="#FDFDFD"/>
<path d="M77.905 186.207C80.145 174.877 87.775 168.247 99.755 167.717C106.355 167.427 112.985 167.727 119.595 167.697C121.215 167.697 123.315 168.337 123.385 165.407C123.415 164.107 124.585 164.217 125.335 164.747C126.405 165.507 127.505 166.347 128.245 167.397C136.435 179.107 148.485 178.867 160.735 177.977C162.235 177.867 163.325 176.697 164.505 175.807C172.815 169.607 181.725 165.147 192.545 166.497C193.635 166.637 194.755 166.617 195.075 165.367C196.055 161.547 198.145 163.207 199.985 164.377C202.535 166.007 204.185 168.457 205.395 171.187C206.355 173.357 207.625 173.847 209.915 172.757C214.655 170.487 219.625 169.777 224.925 170.817C231.005 172.007 235.015 175.487 237.165 181.037C238.195 183.687 239.945 184.377 242.375 185.487C249.795 188.897 258.085 191.167 263.275 198.277C264.375 199.787 265.255 201.407 264.475 203.987C262.195 199.117 259.055 195.777 254.605 193.787C253.665 193.367 252.595 192.907 251.715 193.727C250.825 194.557 251.775 195.307 252.095 196.067C252.435 196.887 252.905 197.867 252.125 198.517C250.985 199.457 250.345 198.127 249.555 197.617C243.155 193.467 236.495 191.197 228.575 192.677C223.325 193.657 217.865 194.507 212.405 193.467C211.155 193.227 209.405 192.827 208.755 194.147C207.915 195.837 209.985 196.187 210.875 196.887C218.435 202.807 227.005 207.057 235.445 211.517C238.695 213.227 241.885 215.057 245.065 216.887C247.695 218.387 251.125 219.707 246.485 223.667C256.405 217.257 263.635 223.317 270.915 227.847C273.865 229.687 276.215 231.267 280.045 230.417C284.035 229.527 288.225 230.167 292.135 231.837C293.825 232.557 295.645 232.987 297.555 233.097C293.685 229.457 289.105 227.207 283.845 227.697C278.085 228.227 273.305 226.677 268.665 223.397C266.075 221.567 265.645 220.017 266.965 217.207C275.515 198.967 294.355 192.547 313.365 201.527C323.325 206.227 331.055 213.567 337.455 222.347C339.425 225.047 340.535 225.837 343.375 223.117C347.275 219.387 352.395 220.107 357.175 221.257C364.525 223.027 370.485 227.357 375.945 232.357C377.865 234.117 379.065 234.577 381.455 232.747C385.595 229.577 390.215 230.617 394.155 233.327C396.765 235.117 399.285 235.857 402.355 235.657C406.685 235.367 410.735 236.997 414.865 237.927C416.035 238.197 416.795 238.217 417.565 237.357C419.325 240.437 417.215 242.267 414.895 242.347C404.085 242.717 393.275 243.577 382.445 242.887C381.705 242.837 381.135 242.277 380.555 241.827C369.665 241.867 358.765 241.897 347.875 241.937C339.675 242.007 331.505 243.107 323.275 242.277C317.285 241.667 311.275 242.407 305.255 242.297C294.525 242.097 283.845 240.757 273.115 241.167C270.005 241.287 266.955 240.877 264.005 239.857C261.835 238.147 259.365 237.477 256.625 237.807C248.635 238.767 241.155 235.177 233.165 235.267C228.435 235.317 225.315 230.777 225.075 225.857C225.005 224.537 224.855 223.187 225.095 221.897C225.705 218.577 225.295 216.337 221.075 216.437C219.475 216.477 218.245 215.047 217.295 213.657C216.135 211.957 214.905 210.287 213.495 208.807C209.225 204.327 204.805 200.947 197.695 202.727C192.505 204.027 186.885 203.477 181.475 202.757C180.015 202.567 178.545 202.167 177.105 202.377C172.885 202.987 169.485 202.037 166.465 198.707C164.345 196.367 160.755 196.547 157.785 196.037C154.355 195.447 152.225 193.957 151.075 190.627C149.685 186.597 146.585 185.827 143.265 188.597C141.455 190.107 139.705 191.637 137.465 192.507C135.195 193.387 134.805 195.457 134.495 197.527C134.175 199.717 133.405 201.847 130.855 201.687C128.145 201.517 128.075 199.077 127.985 196.987C127.775 192.137 127.765 187.287 129.305 182.597C130.375 179.337 129.445 176.787 126.495 175.087C116.255 169.207 98.815 168.317 89.105 175.507C86.285 177.597 84.295 180.157 82.535 183.057C81.495 184.777 80.535 186.797 77.875 186.197L77.905 186.207Z" fill="#B4F0FB"/>
<path d="M263.312 238.194C274.802 239.654 286.392 239.414 297.932 239.924C314.592 240.654 331.212 242.264 347.912 241.944C342.092 242.474 336.272 243.254 330.442 243.484C318.412 243.954 306.362 244.374 294.322 244.384C198.132 244.464 101.932 244.454 5.74242 244.414C3.81242 244.414 0.85242 245.544 0.14242 243.374C-0.65758 240.924 2.09242 239.324 3.91242 237.954C7.92242 234.924 12.4124 232.684 17.1524 231.034C19.0824 230.364 20.4524 229.424 21.1024 227.334C23.6124 219.274 27.8524 212.034 31.9324 204.724C34.6924 206.324 34.4124 209.264 34.6724 211.744C34.9924 214.784 36.5224 215.524 39.1024 215.014C42.0124 214.444 44.8624 214.194 47.8224 214.804C49.9724 215.244 51.2324 213.694 52.5224 212.164C55.9224 208.104 59.5724 204.254 64.0824 201.394C65.9624 200.204 68.0724 199.114 69.5624 202.054C66.1924 207.364 63.2424 212.914 60.5824 218.594C59.6824 220.524 58.4824 221.414 56.2324 221.544C47.2424 222.064 38.7024 224.254 31.0324 229.224C38.6024 224.304 47.0224 222.074 55.8924 221.574C58.5524 221.424 59.7724 220.274 60.8524 218.134C63.4624 212.904 66.3724 207.834 69.2724 202.754C73.1224 196.014 84.5124 193.004 90.8124 197.714C91.2124 198.124 91.7824 198.964 92.1024 198.724C96.0124 195.904 96.1624 195.754 99.7424 197.514C108.062 201.594 113.502 208.234 116.742 216.834C118.572 221.694 118.552 221.504 122.602 218.694C129.732 213.744 137.702 211.444 146.362 212.734C152.972 213.724 157.772 217.264 159.172 224.214C159.582 226.234 160.512 226.934 162.492 226.714C164.682 226.474 166.902 226.654 169.092 226.524C173.712 226.244 177.452 227.774 180.132 231.604C181.532 233.594 183.492 234.324 185.822 234.404C188.022 234.474 190.232 234.504 192.432 234.464C208.142 234.194 223.842 235.134 239.502 235.904C246.892 236.264 254.312 237.394 261.792 237.414C262.432 237.414 262.892 237.754 263.302 238.194H263.312Z" fill="#6CACE7"/>
<path d="M263.312 238.191C245.402 238.211 227.522 237.451 209.632 236.611C201.852 236.251 194.052 236.481 186.262 236.471C182.732 236.471 179.892 235.791 177.832 232.211C174.952 227.201 169.632 228.641 165.032 228.571C163.872 228.551 162.662 228.721 161.562 229.071C158.592 230.001 156.782 230.221 157.172 225.891C157.602 221.121 153.772 216.581 148.782 215.401C137.732 212.791 128.202 215.711 120.212 223.771C119.452 224.541 119.242 226.281 117.732 225.811C116.402 225.401 116.682 223.831 116.412 222.751C114.182 213.721 109.812 206.151 101.832 200.981C99.2419 199.301 96.4419 198.171 93.0619 197.611C93.9319 199.841 96.2919 199.551 97.3719 201.571C94.5519 201.021 92.3819 199.801 90.2019 198.601C83.3919 194.811 77.6219 195.441 71.8419 200.541C71.0519 201.231 70.5419 202.641 69.0319 202.011C67.1619 200.831 66.0319 202.331 64.8019 203.231C60.3919 206.431 56.4819 210.141 53.2619 214.571C52.1719 216.071 50.9619 217.911 48.6419 217.141C44.5319 215.791 40.5219 216.721 36.5219 217.511C34.4119 217.931 33.0719 217.671 32.8819 215.191C32.6119 211.691 32.2519 208.211 31.9219 204.711C32.4919 203.281 33.6519 202.081 33.6319 200.411C33.4619 199.171 33.7719 198.091 34.6219 197.161C40.6019 190.651 47.7119 186.421 56.7819 186.021C60.5619 185.851 63.8119 186.921 66.1419 189.921C68.5219 192.991 70.8319 192.351 73.1619 190.101C74.6419 188.671 76.1319 187.291 77.8919 186.211V186.191C81.4719 181.811 83.6419 176.491 88.7619 173.111C99.0119 166.351 117.382 167.121 128.002 173.481C131.352 175.481 133.372 178.301 131.542 182.691C129.452 187.701 129.802 193.071 129.922 198.371C129.942 199.231 129.922 200.371 131.082 200.401C132.132 200.421 132.392 199.391 132.492 198.481C132.592 197.601 132.552 196.711 132.702 195.841C132.902 194.681 132.842 192.991 133.562 192.501C137.422 189.851 141.372 187.321 145.272 184.721C147.462 183.271 149.912 185.751 152.162 186.741C153.522 187.331 154.272 187.991 153.502 189.761C152.252 192.611 154.572 193.931 156.542 193.711C159.532 193.391 161.862 195.091 164.612 195.311C166.652 195.481 168.512 196.181 169.472 198.461C170.012 199.761 171.172 200.871 172.942 200.711C183.142 199.801 193.462 202.751 203.602 199.741C205.242 199.251 206.392 200.421 207.602 201.201C211.982 204.021 215.802 207.481 218.542 211.911C220.322 214.791 222.312 215.791 225.462 214.241C226.462 213.751 227.802 213.151 228.762 214.151C229.722 215.141 228.492 216.021 228.132 216.891C226.702 220.281 226.772 223.841 227.162 227.331C227.552 230.831 230.192 233.191 233.372 233.241C241.472 233.381 249.002 237.351 257.192 236.471C259.082 236.261 260.982 236.071 262.872 235.871C263.562 235.801 264.542 235.361 264.792 236.231C265.082 237.231 263.722 237.441 263.322 238.181L263.312 238.191Z" fill="#8DC6F3"/>
<path d="M77.8995 186.225C77.4595 189.045 75.6095 190.915 73.5095 192.555C69.3195 195.835 68.2595 195.795 65.0495 191.585C62.0895 187.705 58.1695 187.475 53.9795 188.235C47.7695 189.355 42.4495 192.295 37.8795 196.655C36.5095 197.965 35.0495 199.185 33.6395 200.445C31.7795 199.585 29.8095 198.885 28.0695 197.825C22.1495 194.195 22.4395 187.955 28.6195 184.725C29.5195 184.255 30.4495 183.855 32.1095 183.085C27.5195 179.845 23.8295 176.405 21.9195 171.495C21.4395 170.265 19.9195 170.455 18.8395 170.075C5.00947 165.255 -2.46053 148.385 3.40947 135.015C6.25947 128.515 10.9795 124.165 18.2995 123.525C21.0395 123.285 21.1895 122.335 20.7895 119.905C19.1695 110.025 22.7395 101.975 30.3295 95.7352C35.0595 91.8452 40.5695 90.3452 46.3695 93.0652C49.3295 94.4552 49.8695 93.5052 49.7895 90.8752C50.4395 90.3152 51.1295 90.3552 51.8495 90.7452C53.7295 92.6552 53.5795 94.7252 52.2895 96.8652C52.1895 99.2352 51.2995 100.395 49.0595 98.6552C46.8595 96.9452 44.4195 96.1952 41.6795 96.2352C38.5795 96.2852 36.0095 97.6652 35.0695 100.505C34.0095 103.695 32.2195 107.325 35.5995 110.335C37.7295 112.235 37.3595 115.285 39.1495 117.305C39.3595 117.545 39.1995 118.125 39.2095 118.545C34.1395 118.255 34.8795 125.345 29.8595 125.675C26.3095 125.905 24.1895 130.155 25.7295 133.385C27.2395 136.535 26.3395 138.625 24.1195 140.815C22.9995 141.925 22.0795 143.345 21.4195 144.795C19.7495 148.475 20.7995 149.805 24.8895 149.395C26.2295 149.265 28.0895 148.925 28.4795 150.245C29.8195 154.805 32.6295 152.875 35.4295 152.355C40.3695 151.435 45.4595 150.425 48.9595 155.665C49.8995 157.075 51.2095 156.535 52.5395 156.385C60.4095 155.515 71.3595 163.145 73.6995 171.145C71.7695 170.575 71.3795 168.585 70.1095 167.475C68.6695 166.215 67.1695 165.405 65.3195 166.235C63.5995 167.015 63.2795 168.745 63.3295 170.355C63.4495 173.725 63.7695 177.035 68.6295 176.445C71.3195 176.115 72.3295 178.105 73.5195 180.095C74.7995 182.235 74.5495 185.555 77.8795 186.235L77.8995 186.225Z" fill="#B5F0FB"/>
<path d="M93.8007 62.6858C95.4307 64.6558 96.8207 66.6058 95.5307 69.4258C94.1307 72.4858 95.7507 73.3358 98.5807 73.2358C102.521 73.0958 106.211 73.8358 109.111 76.7858C110.781 78.4758 111.261 79.8958 109.941 82.5158C107.721 86.9358 106.591 91.4158 101.791 94.6058C98.5807 96.7358 96.4507 101.546 97.2107 106.816C94.2607 105.696 91.5807 103.466 88.9507 106.136C86.7107 108.416 86.5607 111.406 86.8607 114.396C87.0207 116.026 87.2607 117.546 84.7907 116.856C80.1907 115.566 77.1007 117.196 75.5707 122.256C71.1807 115.196 71.9307 108.736 75.3807 102.266C79.3907 103.176 82.0707 101.896 82.9707 97.6558C83.4307 95.4858 86.9807 94.5458 86.0207 92.3558C85.2307 90.5458 82.3607 90.1658 80.5307 88.9158C76.3607 86.0558 73.2207 82.5758 72.6207 77.3158C72.9307 75.8558 71.2007 74.8658 71.7007 73.3658C73.5007 73.3458 73.5407 71.9358 73.9107 70.6758C76.7407 60.9758 82.3807 58.3758 91.6807 62.3958C92.3107 62.6658 93.0907 62.6058 93.8007 62.7058V62.6858Z" fill="#B6F1FA"/>
<path d="M106.012 22.8359C106.082 23.5659 106.432 24.4259 106.162 25.0059C102.852 32.2959 105.402 38.7659 108.782 45.1759C110.072 47.6259 110.922 50.4859 114.602 49.9859C115.362 49.8859 116.182 49.7859 116.442 50.6759C117.322 53.6259 118.962 52.1059 120.502 51.4459C122.362 50.6559 124.222 49.6859 126.732 51.4459C124.122 52.3959 121.692 53.3959 122.102 56.4559C122.512 59.5459 124.942 60.9159 127.502 61.5859C132.282 62.8259 136.072 66.2859 141.252 66.8659C144.652 67.2459 147.172 70.1359 148.442 74.0059C146.422 73.7659 146.182 72.1959 145.242 71.4059C142.722 69.2759 140.232 67.2959 136.562 68.5059C135.802 68.7559 134.512 68.8359 134.052 68.3959C130.732 65.1759 126.632 66.3059 122.772 66.1759C115.352 65.9259 108.412 63.8259 101.682 60.8559C99.4216 57.3159 96.7516 54.0159 95.9616 49.6759C94.5716 41.9959 96.0016 35.1059 101.792 29.6559C103.892 27.6759 105.352 25.5859 106.002 22.8459L106.012 22.8359Z" fill="#B8F0F9"/>
<path d="M362.064 200.285C362.304 202.455 364.994 202.005 365.914 204.105C360.804 203.775 357.024 206.985 352.594 208.355C352.314 208.445 352.014 208.735 351.804 208.675C346.404 207.105 342.574 209.615 339.344 214.405C338.997 211.398 340.164 208.078 342.844 204.445C340.014 202.925 337.534 204.325 334.914 205.285C336.684 202.395 338.744 201.455 343.164 201.095C345.904 200.875 348.754 201.625 351.374 200.255C351.504 200.505 351.634 200.765 351.764 201.015C355.014 198.145 358.574 199.745 362.064 200.285Z" fill="#B1EBF8"/>
<path d="M71.716 73.346C72.046 74.856 77.236 73.026 74.146 76.886C71.866 78.006 69.556 76.936 67.256 76.946C59.076 76.976 56.656 78.636 54.226 86.366C53.666 88.136 53.446 90.156 51.256 90.866C50.766 90.866 50.266 90.866 49.776 90.856C49.126 86.636 50.576 82.786 52.226 79.096C54.566 73.876 59.576 71.706 67.016 72.376C68.596 72.516 70.146 73.016 71.706 73.356L71.716 73.346Z" fill="#E5F8FA"/>
<path d="M327.772 162.278C326.822 162.588 325.872 162.898 324.822 163.238C324.372 161.798 325.972 160.968 325.862 159.678C331.902 151.958 338.372 152.528 342.062 161.338C343.042 163.688 343.882 163.528 345.852 162.918C351.142 161.268 354.822 162.958 357.212 167.778C349.012 162.718 346.752 162.918 340.832 169.878C342.372 164.778 341.012 161.038 337.862 157.908C335.312 155.368 332.472 156.028 329.802 157.628C328.142 158.618 325.862 159.628 327.772 162.298V162.278Z" fill="#D3F2F6"/>
<path d="M215.391 100.695C218.131 94.7545 223.461 91.8445 230.181 92.3245C235.211 92.6845 238.201 94.9546 240.151 100.635C236.271 96.6546 232.391 94.9445 227.591 95.1245C222.691 95.3145 219.111 97.9245 215.391 100.695Z" fill="#CAF1F9"/>
<path d="M51.25 90.8552C51.72 87.5052 52.28 84.1652 53.91 81.1352C57.52 74.4252 68.09 72.2052 74.14 76.8752C75.8 83.4252 77.62 85.0652 92.23 92.7852C86.5 94.4452 84.11 98.1852 83.08 103.295C82.52 106.095 78.35 105.475 75.4 102.235C73.5 97.3852 69.86 94.5752 64.91 93.3352C61.89 92.5852 59.04 92.9652 56.9 95.3652C55.55 96.8852 54.13 97.3052 52.28 96.8152C51.13 94.9552 51.6 92.8252 51.26 90.8352L51.25 90.8552Z" fill="#39B5F0"/>
<path d="M108.784 108.397C117.434 105.107 121.414 112.077 126.854 115.917C123.864 114.487 120.034 116.897 117.424 113.697C116.474 112.527 115.264 113.387 115.014 114.887C114.424 118.417 113.044 119.837 109.314 117.847C106.614 116.397 104.904 118.557 104.714 120.867C104.454 123.987 102.814 125.197 100.314 126.617C96.2339 128.927 94.0439 132.697 94.6439 137.667C94.9739 140.387 94.3339 141.917 90.9939 142.177C85.7839 142.587 83.6339 146.567 84.3839 153.687C81.2939 151.987 80.4939 149.467 80.4539 146.407C80.4039 142.597 82.6939 139.957 85.6939 138.987C89.5539 137.747 90.6439 135.417 90.7439 131.947C90.9039 126.517 93.8139 123.257 98.8739 121.837C100.524 121.377 101.184 120.217 101.834 118.867C103.154 116.137 104.794 114.227 108.254 113.637C112.824 112.867 109.144 110.287 108.784 108.397Z" fill="#BCEEF8"/>
<path d="M201.179 138.484C200.989 133.714 195.049 132.414 195.079 127.084C195.099 124.754 191.059 123.714 188.389 124.724C185.729 125.724 187.969 127.054 188.789 127.934C191.769 131.144 194.299 134.564 194.939 139.134C188.509 127.944 179.629 120.714 165.969 120.214C169.139 117.514 172.159 114.974 176.719 114.924C176.159 117.074 173.859 116.844 173.109 118.594C176.609 119.984 180.319 120.534 183.209 122.874C184.819 124.174 186.229 124.454 187.699 122.614C189.039 120.934 189.569 119.204 188.269 117.414C187.619 116.514 186.299 115.244 185.579 115.404C181.339 116.364 178.329 113.984 174.209 111.164C180.089 111.824 186.329 111.514 188.999 115.034C191.689 118.574 194.159 122.304 197.099 125.804C198.719 127.734 199.699 130.804 201.299 133.214C202.349 134.804 202.719 136.634 201.179 138.504V138.484Z" fill="#C2F0F7"/>
<path d="M141.851 25.7518C141.691 21.2418 144.171 19.1918 148.121 18.1818C149.951 17.7118 152.581 17.7118 151.451 14.4418C151.201 13.7118 151.541 12.7018 152.441 12.9318C155.521 13.7318 159.831 11.4018 161.341 16.3918C161.841 18.0518 163.821 18.3818 164.841 19.5918C166.731 21.8318 167.321 24.3418 166.331 27.7018C164.611 26.2518 164.431 24.2518 162.871 23.3718C161.981 22.8718 160.811 21.7118 160.171 22.3518C156.911 25.6318 154.061 22.6218 151.051 22.0518C147.301 21.3418 145.691 25.9118 141.861 25.7518H141.851Z" fill="#BEF1F9"/>
<path d="M138.539 94.812C149.869 91.242 157.789 98.022 155.889 109.862C153.619 106.162 152.299 102.522 149.329 99.922C146.299 97.272 142.609 96.222 138.539 94.812Z" fill="#B7EFF9"/>
<path d="M69.0416 202.016C74.4816 196.276 80.8216 193.956 88.5316 196.956C89.2916 197.246 90.3516 197.356 90.2216 198.606C79.6216 195.146 73.8216 197.136 67.9316 206.686C65.4716 210.676 63.4016 214.916 61.4116 219.166C60.3616 221.416 59.1216 222.546 56.4816 222.576C47.1816 222.696 38.5316 225.256 30.6516 230.226C29.1216 231.196 27.7516 231.516 26.1016 230.016C31.8516 228.866 36.1816 224.976 41.5716 223.286C45.9716 221.896 50.4416 221.216 54.9716 220.966C57.7616 220.806 59.1416 219.596 60.1816 217.186C62.5216 211.786 65.3816 206.656 69.0516 202.026L69.0416 202.016Z" fill="#DCEEF4"/>
<path d="M175.844 211.772C178.014 208.412 181.444 207.242 185.084 206.442C191.364 205.062 197.644 205.262 203.884 206.622C209.664 207.882 213.934 211.092 216.334 216.702C215.894 216.802 215.514 216.992 215.434 216.902C207.304 207.952 191.304 204.892 179.884 210.122C178.564 210.732 177.194 211.232 175.844 211.772Z" fill="#E4F3F8"/>
<path d="M175.844 211.773C174.474 213.243 173.104 214.703 171.734 216.173C172.514 214.113 173.504 212.263 175.844 211.773Z" fill="#E4F3F8"/>
</svg>
