<svg width="438" height="104" viewBox="0 0 438 104" fill="none" xmlns="http://www.w3.org/2000/svg">
<path d="M23.078 6.35895C30.268 -2.46105 41.348 -2.18105 49.498 7.66895C52.508 11.3089 53.788 11.379 57.568 8.54895C73.228 -3.17105 93.088 5.18896 97.268 24.899C97.838 27.569 97.228 31.459 98.798 32.689C100.558 34.059 103.788 31.5489 106.358 30.7589C111.468 29.1889 116.548 31.769 121.578 30.429C123.438 34.089 127.658 35.229 130.028 38.469C132.958 42.469 134.918 46.719 135.328 51.659C135.448 53.129 135.488 54.599 135.598 56.619C138.968 54.519 141.828 52.459 145.318 51.559C156.218 48.749 165.768 55.129 166.888 66.249C167.098 68.369 167.308 69.069 169.748 68.369C175.878 66.619 179.588 69.0489 180.558 75.3789C180.868 77.3889 181.368 78.6189 183.358 79.3189C184.298 79.6489 185.278 80.559 185.738 81.469C187.428 84.759 190.558 84.109 192.698 83.249C195.058 82.299 197.088 80.5489 199.848 80.5389C200.808 80.5389 201.158 79.909 201.428 78.999C203.038 73.439 205.188 71.779 210.898 71.549C211.998 71.5089 213.118 71.469 214.188 71.649C216.088 71.979 217.158 72.2889 216.668 69.3889C215.858 64.5989 218.858 61.3289 222.568 58.889C230.388 53.729 239.168 53.579 248.038 54.579C251.018 54.919 254.258 57.109 256.748 56.359C259.598 55.509 257.368 51.389 258.608 48.799C261.278 43.199 268.448 39.349 276.108 40.799C279.838 41.509 281.258 40.799 282.468 37.179C284.238 31.909 288.568 28.499 293.078 25.469C309.158 14.669 331.028 15.0389 344.678 26.3589C346.688 28.0289 348.648 29.769 349.988 32.059C352.148 36.759 352.398 41.5589 350.588 46.4189C348.858 51.0589 345.858 51.939 342.188 48.649C335.218 42.409 326.928 39.129 317.808 39.109C304.458 39.079 292.938 47.0389 290.088 60.8489C289.008 66.0589 288.808 66.379 283.568 66.909C278.118 67.469 276.358 68.939 274.998 74.089C274.098 77.499 272.068 78.789 268.578 77.939C266.048 77.329 263.588 76.4489 261.128 75.6089C250.868 74.2489 240.878 75.839 230.968 78.299C230.168 78.4989 229.218 78.529 228.638 79.059C224.238 83.079 218.458 82.639 213.228 83.909C209.648 84.779 206.128 85.3489 202.818 87.4189C200.098 89.1189 196.458 88.859 193.198 89.089C190.328 89.299 187.448 89.389 184.598 89.739C181.548 88.8689 178.948 87.559 176.658 85.059C173.778 81.919 169.268 82.6189 165.418 81.8489C163.948 81.5589 162.398 81.639 160.888 81.749C156.398 82.079 153.338 80.679 151.798 75.969C150.468 71.889 146.478 69.969 142.228 70.559C138.528 71.069 134.958 72.069 131.578 73.659C129.508 74.629 127.578 74.609 125.788 73.179C121.038 69.389 115.848 69.1489 110.228 70.8789C105.448 72.3389 104.358 71.319 104.558 66.269C104.858 58.669 101.288 55.349 93.798 56.079C88.878 56.559 84.918 58.689 81.728 62.429C80.638 63.709 79.718 66.0489 77.608 64.8789C75.508 63.7189 76.298 61.369 77.008 59.649C78.678 55.589 78.038 51.549 77.298 47.489C76.148 41.129 72.538 36.6189 66.458 34.5989C60.818 32.7289 55.958 34.939 51.738 38.749C45.038 44.809 45.078 44.799 40.348 37.159C37.718 32.919 34.678 29.609 28.818 30.239C24.758 30.679 21.148 26.719 20.658 21.959C20.108 16.589 20.058 11.2189 23.078 6.37894V6.35895Z" fill="#FDFDFD"/>
<path d="M437.49 92.9866C437.26 93.8466 437.02 94.7066 436.79 95.5566C424.09 95.0166 411.73 98.0766 399.18 99.1466C392.5 99.7166 385.84 100.567 379.18 101.337C378.25 101.447 377.36 101.827 376.45 102.087C354.51 103.897 332.53 102.777 310.57 102.897C276.09 103.097 241.61 102.907 207.13 102.927C203.82 102.927 200.55 102.827 197.31 102.077C196.07 101.067 193.77 100.817 194.61 98.3166C195.4 96.8266 196.87 96.4666 198.33 96.0066C202.78 94.6166 207.23 92.9566 211.9 92.7966C218.68 92.5766 223.69 88.1266 229.65 85.9966C230.42 85.7266 231.09 85.1366 231.86 84.9266C235.21 83.9866 238.2 82.5566 240.18 79.5166C245.37 77.6566 250.76 77.5966 256.16 77.8566C257.68 77.9266 259.02 78.5866 260.21 79.5166C261.34 81.5866 262.92 83.1666 264.98 84.3966C268.92 86.7566 271.54 86.5366 274.96 83.4866C280.85 78.2266 287.52 75.9266 295.43 78.0866C298.26 78.8566 300.35 80.5466 302.03 82.7266C303.58 84.7166 304.79 84.8266 306.69 83.1466C313.59 77.0566 320.88 71.5166 329.41 67.7766C338.46 63.8066 347.63 60.8966 357.68 63.1966C361.25 66.3766 362.95 70.7766 364.95 74.9066C366.48 78.0766 368.44 79.4466 371.96 79.0866C376.54 78.6166 380.85 79.9866 384.07 81.2066C380.5 79.7166 375.75 78.6666 370.78 79.0666C368.25 79.2666 366.54 78.3766 365.63 75.9966C364.35 72.6766 361.92 69.9466 360.76 66.5566C361.69 63.6866 363.49 61.2566 365.11 58.8166C367.57 55.1066 374.23 54.6466 377.98 57.3966C379.65 58.6166 380.5 60.6166 382.32 61.6466C384.05 64.3666 383.95 67.4066 383.78 70.4266C383.69 72.0466 383.72 72.7366 385.86 72.7266C391.17 72.6966 396.73 72.4066 399.92 78.1966C400.68 79.5766 402.43 79.0666 403.75 79.0166C409.43 78.7966 415.01 79.2266 420.33 81.4166C421.6 81.9366 422.89 82.4266 424.08 83.0966C425.63 83.9766 427.4 84.9366 427.41 86.9566C427.42 89.2166 424.88 88.5866 423.56 89.7966C425.57 90.5766 428.72 87.7466 429.44 91.6966C429.64 91.6366 429.93 91.6466 430.02 91.5166C433.63 86.3466 435.04 92.3166 437.48 92.9866H437.49Z" fill="#79DBFD"/>
<path d="M23.0781 6.35938C22.4581 10.8494 21.9981 15.3494 22.2481 19.8894C22.5881 26.0594 24.9681 28.1094 31.0381 28.0794C36.6181 28.0494 39.3481 32.1794 42.1081 36.2194C43.3881 38.0994 43.1781 41.5794 45.4981 41.7994C46.8881 41.9294 48.5081 38.9994 50.0881 37.5194C55.0281 32.8994 60.7881 30.5494 67.4281 32.7894C74.4281 35.1494 78.0581 40.4994 79.3781 47.7394C80.3981 53.2894 80.1081 58.5994 77.8181 63.9294C81.7081 58.6594 86.2881 54.9694 92.8781 54.1494C102.878 52.9094 107.788 57.8294 106.258 67.7794C106.158 68.4194 106.048 69.0594 105.888 70.0794C108.588 69.3894 110.918 68.7594 113.258 68.2094C118.278 67.0294 122.838 68.0894 126.668 71.4994C128.188 72.8494 129.298 72.8494 130.998 71.8994C133.758 70.3494 136.798 69.4994 139.948 68.9694C148.018 67.5994 151.688 69.5794 154.338 77.3294C155.118 79.6094 156.598 79.8194 158.448 79.7794C163.268 79.6794 168.048 80.0494 172.788 80.9494C175.418 81.4494 177.908 82.1994 179.158 84.8894C180.168 87.0594 182.388 87.2394 184.218 88.0594C183.428 91.2894 185.538 94.8394 183.128 97.8894C174.478 97.9994 166.048 98.8194 158.118 93.0594C148.968 86.4194 138.398 87.0794 128.168 91.0794C122.808 93.1794 117.728 95.7694 111.638 94.9894C108.398 94.5694 106.168 93.9394 105.988 90.0294C105.848 86.9294 103.958 85.7994 100.868 86.3294C98.8181 86.6794 96.9981 87.7294 95.0681 88.4394C92.5981 89.3494 90.5381 88.7694 89.8781 86.0894C87.2881 75.5594 77.3981 75.2394 70.0281 78.5194C66.5081 80.0894 63.6181 80.5794 60.8581 77.2294C59.4781 75.5494 57.3681 75.3494 55.1881 75.3894C51.5481 75.4494 50.2881 73.7894 50.9781 70.1594C51.5181 67.3394 52.5981 64.6194 52.5281 61.6794C52.3881 56.0394 48.8981 53.7094 43.6881 55.8894C39.2081 57.7594 36.6281 61.3294 34.9681 65.7794C33.0681 70.8794 32.9881 70.8494 27.7481 69.3094C27.2181 69.1494 26.6481 69.0394 26.1181 69.0794C20.5781 69.4094 15.1881 69.3294 11.3981 64.2994C8.79808 62.8294 5.91809 63.6094 3.18809 63.2594C4.36809 62.5594 6.24808 62.5894 4.17808 60.2594C1.82808 57.6194 3.2481 51.3094 6.3881 47.7394C11.0181 42.4794 16.9981 40.7494 23.7981 41.3494C24.8681 41.4394 25.9181 41.6494 28.0081 41.9594C26.0281 39.6994 24.5981 38.1594 23.2681 36.5494C15.2181 26.8094 15.1381 14.1694 23.0481 6.38937L23.0781 6.35938Z" fill="#AFDAF7"/>
<path d="M11.44 64.2565C12.66 63.1865 13.66 63.9865 14.15 64.9365C15.95 68.4365 18.99 68.5265 22.27 68.2465C23.36 68.1565 24.61 67.8965 25.55 68.2865C31.14 70.5865 32.74 67.4965 34.25 62.8265C35.91 57.6965 40 54.5865 45.32 53.3065C50.5 52.0665 54.15 54.8665 54.52 60.2665C54.77 63.9265 53.84 67.3565 52.73 70.7565C51.99 73.0365 52.16 74.2865 55.06 73.5465C58.35 72.7065 61.17 73.7565 62.97 76.5565C64.26 78.5765 65.47 78.6565 67.33 77.5665C70.86 75.5065 74.67 74.7065 78.79 74.8365C85.49 75.0465 89.76 77.9565 91.26 84.5665C91.98 87.7565 93.01 87.5365 95.3 86.3265C97.1 85.3765 99.08 84.5965 101.07 84.2065C105.51 83.3265 108.33 85.7165 107.97 90.2265C107.78 92.5865 108.56 93.1265 110.62 93.0965C115.25 93.0365 119.62 92.9465 124.12 90.6765C134.49 85.4565 145.39 84.5465 156.32 89.5065C157.95 90.2465 159.56 91.0665 160.77 92.4265C162.85 94.7865 165.57 95.3365 168.55 95.5665C173.46 95.9465 178.36 96.5765 183.26 97.1065C186.57 94.9465 191.62 95.7465 194.8 98.9265C195.47 100.116 197.03 100.586 197.31 102.076C148.42 102.106 99.54 102.127 50.65 102.157C35.41 102.157 20.16 102.176 4.92001 102.176C2.89001 102.176 0.63 102.536 0 99.6965C9.69 99.3965 19.39 99.1765 29.07 98.7365C31.29 98.6365 34.37 99.3165 34.61 95.5165C34.65 93.1365 36.27 93.0765 38.03 93.1165C39.43 93.1465 40.91 93.0565 41.42 91.4365C41.9 89.9065 41.07 88.5765 39.78 88.0465C37.38 87.0465 37.34 85.1565 37.17 83.0465C36.38 73.3365 28.41 67.6065 19 70.0565C17.1 70.5465 16.08 70.4665 15.06 68.6165C14.16 66.9865 12.66 65.6865 11.42 64.2465L11.44 64.2565Z" fill="#81BAEF"/>
<path d="M382.319 61.6491C381.019 63.7891 380.639 61.6291 380.149 61.0891C377.889 58.6091 375.239 57.4091 371.809 57.4591C368.829 57.4991 366.689 58.5591 365.739 61.3491C364.939 63.7091 363.339 65.2591 361.479 66.6891C358.489 65.9391 357.789 62.9191 356.039 60.9891C351.209 55.6891 345.539 53.9491 339.879 55.3691C345.999 53.7091 351.889 55.9691 356.609 61.7191C357.209 62.4491 358.079 63.0691 357.439 64.1991C339.469 63.1491 324.699 70.4991 311.399 81.7091C310.769 82.2391 310.199 82.8291 309.579 83.3691C307.719 84.9791 305.999 87.5891 303.929 87.8991C301.489 88.2691 301.529 84.5191 299.909 82.8891C294.239 77.1891 281.739 78.1791 276.179 85.0091C273.869 87.8491 268.939 89.2991 266.049 87.2091C263.729 85.5291 259.259 85.4291 259.969 80.7691C260.339 79.4491 258.859 78.4691 259.279 77.1391C259.479 75.6691 261.069 75.3191 261.689 74.1891C264.489 74.2991 266.989 75.5291 269.639 76.2291C271.489 76.7191 272.739 76.5591 273.149 74.1891C274.279 67.5991 276.999 65.0091 283.429 65.0291C287.009 65.0391 287.949 63.8991 288.289 60.3791C289.289 49.8891 299.399 39.9491 311.149 37.8591C323.399 35.6791 334.229 38.9791 343.429 47.3991C346.569 50.2791 347.039 50.1991 348.619 46.2691C350.479 41.6491 350.059 36.8291 349.999 32.0391C353.819 36.3791 356.199 41.4291 356.739 47.1591C357.049 50.4091 358.099 51.3791 361.529 51.0791C371.699 50.1991 378.799 54.0191 382.319 61.6391V61.6491Z" fill="#B4F0FC"/>
<path d="M123.367 27.3053C125.727 22.8453 129.327 20.0353 134.437 19.5853C141.497 18.9753 146.857 21.9853 150.837 27.9353C141.807 21.3653 132.797 18.2053 123.367 27.2953V27.3053Z" fill="#FDFDFD"/>
<path d="M255 26.0251C262.36 14.8551 278.56 13.7651 286.2 24.1151C275.16 15.8551 264.89 17.6051 255 26.0251Z" fill="#FDFDFD"/>
<path d="M261.703 74.1896C262.473 75.9896 261.153 76.6796 259.973 77.4396C259.023 79.0496 257.533 78.2796 256.253 78.2096C247.823 77.7596 239.653 79.0396 232.803 81.1896C236.213 79.7796 237.853 79.6296 240.323 80.8496C239.413 83.6996 237.443 85.1296 234.583 86.0796C229.803 87.6796 225.013 89.4796 221.063 92.7996C219.153 94.3996 216.863 93.7496 214.743 94.0796C207.953 95.1396 201.393 97.1096 194.793 98.9296C190.943 98.3296 187.093 97.7196 183.253 97.1096C182.833 95.1396 182.433 93.1596 181.983 91.1896C181.553 89.2796 182.543 88.4196 184.223 88.0296C187.843 86.9396 191.623 87.0596 195.283 87.0496C201.653 87.0296 206.333 81.7996 212.653 81.9696C220.863 82.1896 227.323 76.4896 235.163 75.2896C243.983 73.9496 252.733 71.7496 261.693 74.1696L261.703 74.1896Z" fill="#AAE8FA"/>
<path d="M256.033 63.8903C252.643 60.0703 249.683 57.7803 244.453 58.4903C249.763 55.4403 254.063 57.4503 256.033 63.8903Z" fill="#83D0E6"/>
<path d="M357.442 64.1868C350.512 55.4068 347.172 54.4967 333.672 57.6967C341.512 51.4767 351.692 53.5067 358.612 62.6667C359.602 63.9767 360.532 65.3368 361.492 66.6768C364.672 74.0468 368.712 79.7068 378.272 78.9268C382.682 78.5668 386.852 81.3468 390.462 84.3368C383.452 80.8468 375.992 79.7168 368.302 79.6768C366.472 79.6668 365.812 78.2167 365.122 76.8467C362.892 72.4267 360.512 68.0968 357.442 64.1768V64.1868Z" fill="#E4F9F9"/>
<path d="M240.32 80.8452C235.72 80.7952 231.46 81.8952 227.68 84.7452C229.02 81.7852 231.67 80.8052 234.32 79.8352C242.66 76.7652 251.34 77.3152 259.97 77.4352C260.31 78.5452 262.79 79.6552 259.97 80.7652C253.41 77.5752 246.86 79.1752 240.32 80.8452Z" fill="#EBF8FB"/>
<path d="M29.2372 58.6627C23.3972 54.0927 17.1472 51.8627 8.86719 55.3027C15.7572 48.5627 25.9672 50.6027 29.2372 58.6627Z" fill="#5CB9F1"/>
</svg>
