<svg width="569" height="420" viewBox="0 0 569 420" fill="none" xmlns="http://www.w3.org/2000/svg">
<path d="M46.0657 394.344H2.1875V419.794H46.0657V394.344Z" fill="#FFFBF3"/>
<path d="M34.942 399.969H6.9375V401.246H34.942V399.969Z" fill="#D4D0C9"/>
<path d="M19.6936 404.273H6.9375V405.551H19.6936V404.273Z" fill="#D4D0C9"/>
<path d="M24.2673 408.727H6.9375V409.995H24.2673V408.727Z" fill="#D4D0C9"/>
<path d="M252.253 394.344H208.375V419.794H252.253V394.344Z" fill="#FFFBF3"/>
<path d="M241.13 399.969H213.125V401.246H241.13V399.969Z" fill="#D4D0C9"/>
<path d="M237.02 404.273H213.125V405.551H237.02V404.273Z" fill="#D4D0C9"/>
<path d="M230.455 408.727H213.125V409.995H230.455V408.727Z" fill="#D4D0C9"/>
<path d="M521.878 394.344H478V419.794H521.878V394.344Z" fill="#FFFBF3"/>
<path d="M510.755 399.969H482.75V401.246H510.755V399.969Z" fill="#D4D0C9"/>
<path d="M506.503 404.273H482.75V405.551H506.503V404.273Z" fill="#D4D0C9"/>
<path d="M489.691 408.727H482.75V409.995H489.691V408.727Z" fill="#D4D0C9"/>
<path d="M155.914 179.141H0V370.098H155.914V179.141Z" fill="#5B5B5C"/>
<path d="M149.881 185.367H6.00781V363.882H149.881V185.367Z" fill="#FAFAFA"/>
<path d="M143.67 192.641H12.25V356.603H143.67V192.641Z" fill="#FFB94D"/>
<path d="M143.663 277.625C143.663 277.625 48.0808 280.278 72.6373 294.883C97.1937 309.489 12.2422 316.126 12.2422 316.126V356.609H143.663V277.625Z" fill="#F5F5F5"/>
<path d="M143.66 249.747C143.66 249.747 143.99 215.231 98.0308 231.167C52.0712 247.094 59.3693 192.648 59.3693 192.648H143.669V249.756L143.66 249.747Z" fill="#3B51A9"/>
<path d="M20.8702 192.641C20.8702 192.641 34.1445 247.095 56.0478 263.684C77.9512 280.281 12.25 337.353 12.25 337.353V192.641H20.8791H20.8702Z" fill="#D94D72"/>
<path d="M318.572 203.938H202.328V320.181H318.572V203.938Z" fill="#5B5B5C"/>
<path d="M313.284 209.227H207.617V314.893H313.284V209.227Z" fill="white"/>
<path d="M308.393 214.117H212.508V309.994H308.393V214.117Z" fill="#E8E3E4"/>
<path d="M308.393 214.117H212.508V309.994H308.393V214.117Z" fill="#E8E3E4"/>
<path d="M308.39 291.631H289.89L300.333 302.083H293.008L277.081 286.155H256.633L239.312 268.852H263.53L244.887 250.201H287.255V236.891L308.39 262.528V291.631Z" fill="#7D99DA"/>
<path d="M266.721 257.477H248.221L258.655 267.92H251.339L235.412 252.001H214.955L212.508 249.545V234.69H221.861L212.508 225.337V216.047H245.586V214.117H254.966L266.721 228.374V257.477Z" fill="#FE7D00"/>
<path d="M267.248 309.991H245.97L212.508 276.528V255.25L267.248 309.991Z" fill="#FAFAFA"/>
<path d="M464.649 154H331.594V370.113H464.649V154Z" fill="#5B5B5C"/>
<path d="M458.288 160.039H337.953V364.075H458.288V160.039Z" fill="#FAFAFA"/>
<path d="M451.928 166.289H344.305V357.81H451.928V166.289Z" fill="#7D99DA"/>
<path d="M423.725 357.814C423.725 357.814 390.905 338.635 400.794 317.464C410.674 296.293 429.379 294.533 408.905 286.413C388.44 278.293 385.26 265.019 393.031 255.246C400.794 245.474 401.848 219.72 389.145 215.835C376.443 211.958 375.737 220.426 377.149 233.834C378.56 247.243 372.914 238.203 368.68 255.246C364.446 272.299 357.032 271.236 365.857 278.651C374.674 286.056 384.563 282.179 372.914 290.647C361.266 299.116 360.56 291.969 358.8 302.073C357.032 312.176 367.617 313.935 364.446 323.109C361.275 332.283 364.116 332.641 354.218 335.812C344.32 338.992 344.32 357.814 344.32 357.814H423.733H423.725Z" fill="#E8E3E4"/>
<path d="M398.116 166.29C398.116 166.29 397.607 181.967 382.073 184.79C366.548 187.613 356.31 196.787 366.199 202.433C376.079 208.078 397.25 205.318 391.962 214.108C386.664 222.898 388.031 231.67 382.082 236.878C376.132 242.086 355.623 265.588 357.382 243.711C359.151 221.835 366.226 231.357 355.265 216.895C344.305 202.433 344.305 201.012 344.305 201.012V166.281H398.116V166.29Z" fill="#E8E3E4"/>
<path d="M433.516 183.898L405.172 212.242V201.719L423.556 183.344V188.721L433.686 178.591V174.062H436.419V185.729L433.516 183.898Z" fill="#5B5B5C"/>
<path d="M422.055 211.601L393.711 239.945V229.422L412.086 211.038V216.424L422.216 206.295V201.766H424.949V213.423L422.055 211.601Z" fill="white"/>
<path d="M423.634 266.999L395.281 295.343V284.811L413.665 266.436V271.814L423.795 261.693V257.164H426.528V268.821L423.634 266.999Z" fill="#5B5B5C"/>
<path d="M412.172 294.702L383.828 323.046V312.514L402.203 294.139V299.517L412.333 289.387V284.867H415.066V296.525L412.172 294.702Z" fill="white"/>
<path d="M593.914 203.938H477.68V320.181H593.914V203.938Z" fill="#5B5B5C"/>
<path d="M588.628 209.227H482.961V314.893H588.628V209.227Z" fill="white"/>
<path d="M583.745 214.117H487.859V309.994H583.745V214.117Z" fill="#E8E3E4"/>
<path d="M583.745 214.117H487.859V309.994H583.745V214.117Z" fill="#E8E3E4"/>
<path d="M583.749 283.061C583.749 283.061 566.723 289.68 546.347 272.743C525.971 255.807 503.737 262.953 514.59 274.593C525.444 286.241 520.942 290.734 510.356 289.68C499.771 288.617 483.629 293.914 504.005 298.417C524.381 302.919 533.385 301.329 538.941 297.621C544.498 293.914 549.795 284.597 554.556 295.344C559.317 306.09 559.058 308.734 559.058 308.734L567.527 309.994H583.758V283.061H583.749Z" fill="#FE7D00"/>
<path d="M551.358 214.118C551.358 214.118 528.865 216.119 537.86 228.027C546.856 239.934 568.295 239.934 549.509 245.759C530.723 251.583 520.665 241.292 517.484 239.952C514.304 238.612 501.602 237.022 502.138 248.93C502.665 260.837 508.194 262.445 502.12 262.695C496.046 262.954 496.314 264.875 496.046 257.166C495.778 249.457 499.485 238.871 495.778 229.34C492.071 219.809 494.205 214.109 494.205 214.109H551.358V214.118Z" fill="#7D99DA"/>
<path d="M119 0H0V119H119V0Z" fill="#5B5B5C"/>
<path d="M114.183 4.8125H4.8125V114.183H114.183V4.8125Z" fill="#FAFAFA"/>
<path d="M108.385 10.6172H10.6172V108.385H108.385V10.6172Z" fill="#0E5680"/>
<path d="M62.459 59.4951C62.459 61.1299 61.1299 62.459 59.4951 62.459C57.8603 62.459 56.5312 61.1299 56.5312 59.4951C56.5312 57.8603 57.8603 56.5312 59.4951 56.5312C61.1299 56.5312 62.459 57.8603 62.459 59.4951Z" fill="white"/>
<path d="M66.5853 62.8346C60.8437 62.8346 56.1719 58.1629 56.1719 52.4212C56.1719 46.6796 60.8437 42.0078 66.5853 42.0078C72.327 42.0078 76.9988 46.6796 76.9988 52.4212C76.9988 58.1629 72.327 62.8346 66.5853 62.8346ZM66.5853 42.7455C61.249 42.7455 56.9096 47.0849 56.9096 52.4212C56.9096 57.7575 61.249 62.097 66.5853 62.097C71.9216 62.097 76.2611 57.7575 76.2611 52.4212C76.2611 47.0849 71.9216 42.7455 66.5853 42.7455Z" fill="#C9DFDD"/>
<path d="M75.1344 67.3703C63.8571 67.3703 54.6797 58.1929 54.6797 46.9156C54.6797 35.6383 63.8571 26.4609 75.1344 26.4609C86.4117 26.4609 95.5891 35.6383 95.5891 46.9156C95.5891 58.1929 86.4117 67.3703 75.1344 67.3703ZM75.1344 27.2052C64.2624 27.2052 55.424 36.0503 55.424 46.9156C55.424 57.7809 64.2691 66.626 75.1344 66.626C85.9997 66.626 94.8448 57.7809 94.8448 46.9156C94.8448 36.0503 85.9997 27.2052 75.1344 27.2052Z" fill="#C9DFDD"/>
<path d="M77.4504 108.379C77.4504 108.379 49.5462 104.757 36.3683 59.4952H24.1207C24.1207 59.4952 15.7874 47.0749 15.7874 32.6875H10.6172V108.372C10.6172 108.372 79.1184 108.372 77.4504 108.372V108.379Z" fill="#C9DFDD"/>
<path d="M57.6328 89.045C57.6328 89.045 88.6072 92.7465 95.2194 78.1797L98.6152 101.631C98.6152 101.631 75.1635 108.543 57.6328 89.0383V89.045Z" fill="#FFB94D"/>
</svg>
