<svg width="600" height="517" viewBox="0 0 600 517" fill="none" xmlns="http://www.w3.org/2000/svg">
<path d="M715.395 95V303.704L418.712 337.276L339.11 346.281L330.374 347.277L324.158 347.976L312.086 346.711L305.332 346.012L298.031 345.241L290.389 344.442L289.474 344.353L281.994 343.572L281.42 343.509L274.038 342.738L273.249 342.657L268.513 342.155L260.36 341.303L250.665 340.29L234 338.549L234.448 330.737L235.561 311.274V311.211C239.982 309.66 254.288 271.316 298.354 249.593C301.045 248.257 303.852 246.992 306.776 245.799C308.893 244.938 311.001 244.095 313.108 243.297C313.288 243.216 313.467 243.144 313.655 243.081C314.552 242.732 315.44 242.391 316.337 242.068C316.373 242.05 316.418 242.032 316.454 242.023C317.118 241.772 317.781 241.53 318.445 241.288C320.553 240.516 322.66 239.772 324.759 239.063C372.834 222.757 418.362 221.851 483.945 241.871C494.788 215.026 511.319 171.983 573.654 150.026C626.34 131.469 676.737 155.569 676.737 155.569C676.737 155.569 688.577 109.396 715.395 95Z" fill="#F3BF6C"/>
<path d="M715.389 213.227V314.749L418.706 337.279L392.148 339.298L397.682 325.001C397.682 325.001 398.068 323.503 399.1 320.956C403.503 310.013 419.693 279.634 467.678 264.073C529.431 244.054 558.895 265.885 558.895 265.885C558.895 265.885 572.089 218.097 636.2 201.611C672.535 192.274 700.904 201.333 715.389 213.227Z" fill="#FCDC91"/>
<path d="M22.5 517C165.266 517 281 401.266 281 258.5C281 115.734 165.266 0 22.5 0C-120.266 0 -236 115.734 -236 258.5C-236 401.266 -120.266 517 22.5 517Z" fill="url(#paint0_linear_0_1)"/>
<defs>
<linearGradient id="paint0_linear_0_1" x1="16.8145" y1="32.8483" x2="22.4731" y2="257.182" gradientUnits="userSpaceOnUse">
<stop stop-color="#FFB568"/>
<stop offset="1" stop-color="#F6FFED"/>
</linearGradient>
</defs>
</svg>
