<svg width="1106" height="27" viewBox="0 0 1106 27" fill="none" xmlns="http://www.w3.org/2000/svg">
<path d="M44.0657 0.632812H0.1875V26.0826H44.0657V0.632812Z" fill="#FFFBF3"/>
<path d="M32.942 6.25781H4.9375V7.53521H32.942V6.25781Z" fill="#D4D0C9"/>
<path d="M17.6936 10.5625H4.9375V11.8399H17.6936V10.5625Z" fill="#D4D0C9"/>
<path d="M22.2673 15.0156H4.9375V16.2841H22.2673V15.0156Z" fill="#D4D0C9"/>
<path d="M250.253 0.632812H206.375V26.0826H250.253V0.632812Z" fill="#FFFBF3"/>
<path d="M239.13 6.25781H211.125V7.53521H239.13V6.25781Z" fill="#D4D0C9"/>
<path d="M235.02 10.5625H211.125V11.8399H235.02V10.5625Z" fill="#D4D0C9"/>
<path d="M228.455 15.0156H211.125V16.2841H228.455V15.0156Z" fill="#D4D0C9"/>
<path d="M664.972 0.632812H621.094V26.0826H664.972V0.632812Z" fill="#FFFBF3"/>
<path d="M653.848 6.25781H625.844V7.53521H653.848V6.25781Z" fill="#D4D0C9"/>
<path d="M649.596 10.5625H625.844V11.8399H649.596V10.5625Z" fill="#D4D0C9"/>
<path d="M632.785 15.0156H625.844V16.2841H632.785V15.0156Z" fill="#D4D0C9"/>
<path d="M860.808 0.632812H816.93V26.0826H860.808V0.632812Z" fill="#FFFBF3"/>
<path d="M849.684 6.25781H821.68V7.53521H849.684V6.25781Z" fill="#D4D0C9"/>
<path d="M836.544 10.5625H821.68V11.8399H836.544V10.5625Z" fill="#D4D0C9"/>
<path d="M1105.1 0.632812H1061.22V26.0826H1105.1V0.632812Z" fill="#FFFBF3"/>
<path d="M1085.52 6.25781H1065.97V7.53521H1085.52V6.25781Z" fill="#D4D0C9"/>
<path d="M1089.01 10.5625H1065.97V11.8399H1089.01V10.5625Z" fill="#D4D0C9"/>
<path d="M1073.04 15.0156H1065.97V16.2841H1073.04V15.0156Z" fill="#D4D0C9"/>
<path d="M1077.38 19.3438H1065.97V20.6122H1077.38V19.3438Z" fill="#D4D0C9"/>
</svg>
