<svg width="179" height="258" viewBox="0 0 179 258" fill="none" xmlns="http://www.w3.org/2000/svg">
<path d="M85.9551 100.523C85.9551 100.523 88.7154 101.577 90.8325 101.783C92.9585 101.988 96.0314 104.213 96.8175 105.169C97.6036 106.133 104.026 113.029 104.134 113.905C104.241 114.78 102.49 114.494 101.9 113.798C101.311 113.101 95.7098 107.554 95.7098 107.554C95.7098 107.554 101.99 114.548 101.954 115.37C101.909 116.192 100.971 116.888 99.81 116.165C99.81 116.165 98.881 118.059 97.2463 116.415L93.9769 113.146C93.9769 113.146 95.3615 115.138 93.5481 114.566C92.5833 114.262 89.3407 110.144 88.4385 109.537C87.5363 108.92 84.0703 103.65 84.0703 103.65L85.9551 100.523Z" fill="#EEA886"/>
<path d="M63.6123 236.062C63.6123 236.062 66.0063 240.842 67.4534 241.788C68.9005 242.726 77.0116 250.623 78.682 251.347C80.3525 252.07 85.7032 253.089 85.6407 255.625C85.5692 258.162 71.8037 257.358 69.1238 256.42C66.444 255.483 61.9508 249.399 60.1374 249.462C58.324 249.533 58.9761 256.921 58.9761 256.921H57.0198C57.0198 256.921 54.5543 249.096 54.6347 246.344C54.7062 243.593 56.2248 236.062 56.2248 236.062H63.6123Z" fill="#162D40"/>
<path d="M30.0768 233.086C30.0768 233.086 31.1309 237.82 32.8549 239.473C34.579 241.125 41.0642 248.111 42.7079 248.861C44.3515 249.612 47.5048 250.139 48.4785 251.345C49.4522 252.551 48.8715 256.079 42.7079 255.704C36.5353 255.329 34.5254 255.382 33.0604 254.15C31.5954 252.908 26.861 248.629 25.4496 248.513V255.329H23.7613C23.7613 255.329 20.7777 246.369 21.8496 242.599C22.9216 238.83 22.868 233.702 22.868 233.702L30.0768 233.104V233.086Z" fill="#162D40"/>
<path d="M32.5173 30.3863C32.5173 30.3863 29.7034 37.6308 31.892 43.2317C31.892 43.2317 21.5745 42.5796 21.1815 41.4094C20.7884 40.2392 21.6013 29.3858 20.181 26.1789C18.7607 22.972 32.5173 30.3952 32.5173 30.3952V30.3863Z" fill="#EEA886"/>
<path d="M13.8399 127.53C13.8399 127.53 14.4384 129.111 14.349 130.282C14.2776 131.202 14.7957 132.72 14.9833 133.533C15.1798 134.346 15.6354 137.955 15.5282 138.839C15.4835 139.206 14.3044 141.296 14.2954 142.046C14.2865 142.797 14.4473 144.315 13.7952 144.279C13.1431 144.235 12.616 142.904 12.616 142.904C12.616 142.904 12.5625 143.583 11.9818 143.726C10.8473 143.994 10.365 143.44 10.365 143.44C10.365 143.44 9.8558 144.092 9.34663 144.083C8.23895 144.074 7.78338 143.52 7.78338 143.52C7.78338 143.52 7.23846 143.833 6.50597 143.654C5.56802 143.431 5.30897 142.511 5.30897 142.511C5.30897 142.511 4.0673 142.502 3.81718 141.85C3.56706 141.206 3.72785 140.608 3.67425 140.063C3.62065 139.509 4.5318 134.864 6.65783 131.827C8.79278 128.799 7.72084 124.984 7.72084 124.984L13.8488 127.521L13.8399 127.53Z" fill="#EEA886"/>
<path d="M12.8594 142.505C12.8594 142.505 13.6812 138.333 12.7522 137.207C11.8232 136.082 11.4391 137.574 11.4391 137.574C11.4391 137.574 11.841 136.109 10.6976 135.653C9.5453 135.198 9.19692 136.966 9.19692 136.966C9.19692 136.966 9.19692 135.769 7.91952 135.742C6.63318 135.716 6.67785 137.243 6.67785 137.243C6.67785 137.243 5.7399 135.546 4.73049 136.761C3.03324 138.824 3.81039 141.861 3.81039 141.861C3.81039 141.861 4.06946 142.576 5.30219 142.523C5.30219 142.523 5.81136 144.318 7.77659 143.532C7.77659 143.532 9.4113 144.934 10.3493 143.452C10.3493 143.452 12.1805 144.845 12.8415 142.514L12.8594 142.505Z" fill="#DB9C7C"/>
<path d="M33.519 40.7762C33.519 40.7762 39.6112 42.8843 42.3715 43.4739C45.1228 44.0635 50.8934 46.7165 50.42 56.7214C49.9555 66.7262 48.2315 75.4 47.6062 79.6967C46.9809 83.9934 47.3739 94.9361 48.3922 100.251C48.3922 100.251 33.7781 103.842 16.5912 100.251C16.5912 100.251 19.6373 91.1843 19.5569 88.835C19.4766 86.4946 9.40028 67.1907 8.92684 64.1446C8.46233 61.0985 6.42564 47.6545 11.035 44.6888C15.6444 41.7231 19.3961 42.1072 21.3524 40.7851C23.3087 39.4541 30.6694 39.8293 33.5279 40.7851L33.519 40.7762Z" fill="#B88CB5"/>
<path d="M41.3381 43.2277C41.3381 43.2277 48.0645 43.0401 52.8347 53.5898C57.6048 64.1395 58.775 70.3122 59.8648 71.795C60.9636 73.2779 64.7868 79.0664 68.5386 81.8713C72.2905 84.6851 87.9051 100.532 87.9051 100.532L83.6173 106.017C83.6173 106.017 61.1065 90.0716 58.7661 87.3382C56.4257 84.6047 42.1867 63.8984 41.3381 60.7719C40.4805 57.6454 33.9059 46.4524 41.3381 43.2188V43.2277Z" fill="#B88CB5"/>
<path d="M0.984714 95.6276C0.940049 99.8529 5.32609 128.644 5.32609 128.644L13.6068 128.992C13.6068 128.992 10.9538 100.425 10.0158 93.8679C9.73892 91.9294 9.97118 88.9191 10.4357 85.6407C10.7305 83.5593 11.1235 81.3619 11.5344 79.2716C12.6778 73.4831 13.991 68.436 13.991 68.436C13.991 68.436 21.4499 43.8527 9.98904 45.6572C9.98904 45.6572 6.02285 50.3916 4.73651 57.7702C3.45018 65.1576 2.15491 76.1718 2.38717 80.5132C2.61942 84.8546 1.01151 92.5279 0.984714 95.6366V95.6276Z" fill="#B88CB5"/>
<path d="M48.3849 100.249C48.3849 100.249 51.038 106.529 51.2791 108.119C51.5114 109.709 59.8458 130.442 60.4264 136.508C61.016 142.645 62.7668 159.019 63.3921 161.359C64.0174 163.7 61.9897 174.178 61.6681 176.518C61.3554 178.868 61.5162 217.154 64.3301 236.065C64.3301 236.065 57.7644 238.879 52.762 236.065C52.762 236.065 44.4812 206.524 44.9458 189.489C45.4103 172.454 47.581 165.263 44.9279 158.384C42.2838 151.506 26.812 130.871 25.2488 128.692C23.6855 126.503 13.8951 114.408 23.1674 101.312C32.4397 88.2168 48.3849 100.249 48.3849 100.249Z" fill="#1D3B54"/>
<path d="M16.3851 156.199C17.2069 161.665 16.3404 168.856 14.6253 188.866C12.9012 208.876 17.6357 233.093 17.6357 233.093C23.576 235.129 30.4097 233.093 30.4097 233.093C30.2489 231.69 30.4097 184.328 30.4097 180.112C30.4097 175.896 31.6245 171.099 31.9372 166.257C32.1516 162.952 33.688 156.869 35.4121 150.66C35.9302 148.793 36.4661 146.926 36.9842 145.113C37.279 144.095 37.5649 143.094 37.8418 142.129C40.2715 133.688 43.5499 101.101 43.5499 101.101C43.5499 101.101 25.4162 86.4865 16.5816 100.243C7.74698 113.991 12.2849 123.996 12.5975 125.72C12.9102 127.444 15.5632 150.732 16.394 156.199H16.3851Z" fill="#1D3B54"/>
<path d="M49.8033 74.659C49.8033 74.659 48.5795 99.269 54.4395 113.454C54.4395 113.454 35.0998 119.904 10.1324 113.454C10.1324 113.454 15.4832 95.812 15.0545 93.1143C14.6257 90.4166 5.2819 59.3213 8.15829 51.9963C11.0347 44.6803 46.918 51.5675 49.8033 74.6501V74.659Z" fill="#B88CB5"/>
<path d="M26.7357 1.8661C31.086 1.3748 42.3682 2.25916 41.5017 19.2137C40.6441 36.1683 34.4715 35.1589 28.2989 33.3545C22.1263 31.559 14.7835 18.4276 14.7835 14.9081C14.7835 11.3885 14.319 3.25962 26.7446 1.85716L26.7357 1.8661Z" fill="#EEA886"/>
<path d="M40.8779 11.447C40.8779 11.447 35.9738 17.7 31.0428 19.2007C31.0428 19.2007 27.2464 25.9897 20.6182 27.7227C20.6182 27.7227 6.49533 14.2162 18.3671 4.05949C30.2478 -6.09718 40.9494 6.26591 40.8779 11.4559V11.447Z" fill="#323657"/>
<path d="M31.9752 16.8615C31.8055 15.9324 29.7509 14.0476 28.1698 16.1558C26.5798 18.2639 29.474 23.1859 30.5727 23.1859C31.6715 23.1859 32.6094 20.3721 31.9841 16.8525L31.9752 16.8615Z" fill="#EEA886"/>
<path d="M16.3871 7.10579C16.0297 6.56982 5.32817 1.74607 3.10389 11.8223C0.879605 21.9075 11.7241 33.6275 13.6268 38.6656C15.5295 43.7038 13.6268 55.6649 13.6268 55.6649C13.6268 55.6649 19.2992 49.519 21.2733 43.2303C23.444 36.3252 24.1676 18.915 16.396 7.10579H16.3871Z" fill="#323657"/>
<path d="M23.9062 126.805C24.0492 127.117 33.0803 147.181 35.4118 150.655C35.9299 148.788 36.4659 146.921 36.984 145.108C36.984 145.108 24.21 127.242 23.9062 126.805Z" fill="#162D40"/>
<path d="M8.548 65.1719C8.548 65.1719 8.83386 77.928 10.4328 85.6549C10.7276 83.5736 11.1207 81.3761 11.5316 79.2858C11.469 79 8.85171 67.1728 8.53906 65.1808L8.548 65.1719Z" fill="#B8883D"/>
<path d="M81.2759 238.053C81.2759 238.053 80.5345 243.243 80.4451 244.029C80.3558 244.806 72.2001 243.573 72.2001 243.573L71.5391 237.392C71.5391 237.392 80.2575 237.329 81.2759 238.062V238.053Z" fill="#5C544D"/>
<path d="M80.5282 243.357C80.5282 243.357 83.1098 246.484 85.611 247.851C88.1122 249.217 92.0337 249.753 93.5077 251.165C94.5707 252.183 97.3934 256.569 87.0135 256.48C76.6335 256.39 71.64 257.096 70.5234 255.417C69.4157 253.737 72.1313 243 72.1313 243C72.1313 243 74.5878 243.893 80.5193 243.348L80.5282 243.357Z" fill="#3C4145"/>
<path d="M139.682 238.053C139.682 238.053 138.941 243.243 138.851 244.029C138.753 244.806 130.606 243.573 130.606 243.573L129.945 237.392C129.945 237.392 138.664 237.329 139.682 238.062V238.053Z" fill="#5C544D"/>
<path d="M138.936 243.357C138.936 243.357 141.518 246.484 144.019 247.851C146.52 249.217 155.712 250.334 157.186 251.745C158.249 252.764 160.027 256.864 145.431 256.48C135.06 256.203 130.057 257.096 128.941 255.417C127.824 253.737 130.548 243 130.548 243C130.548 243 132.862 243.947 138.936 243.348V243.357Z" fill="#3C4145"/>
<path d="M84.1797 103.977C84.1797 103.977 79.8383 116.858 80.41 127.97C80.9817 139.074 78.1678 151.231 77.0155 162.826C75.7292 175.761 70.4856 206.374 70.2891 213.297C70.1015 220.22 71.1019 242.302 71.1019 242.302L81.607 242.543C81.607 242.543 90.4327 189.017 92.7195 183.559C95.0063 178.101 106.342 139.163 106.717 134.795C107.101 130.427 84.1707 103.977 84.1707 103.977H84.1797Z" fill="#33373B"/>
<path d="M128.345 106.275C128.345 106.275 134.116 136.709 134.875 143.507C135.643 150.305 136.143 176.398 136.527 180.65C136.912 184.902 139.064 236.239 141.101 242.555H127.666C127.666 242.555 117.357 205.233 117.357 187.573C117.357 169.913 109.389 149.179 104.244 137.531C99.0987 125.882 87.3341 125.606 84.1719 103.988C84.1719 103.988 124.066 99.4233 128.345 106.284V106.275Z" fill="#3C4145"/>
<path d="M101.046 2.25185C101.046 2.25185 111.632 -1.7054 116.518 6.36097C121.395 14.4184 120.931 30.5601 115.589 32.5432C110.247 34.5263 102.234 33.4901 99.5008 28.443C96.7674 23.396 94.3019 16.1067 94.418 11.2383C94.5341 6.3699 98.2592 3.66324 101.037 2.25185H101.046Z" fill="#EEA886"/>
<path d="M113.811 32.0438C113.811 32.0438 113.382 34.8219 114.088 36.1886C114.793 37.5554 100.769 37.5911 100.769 37.5911C100.769 37.5911 99.6254 30.15 97.4726 23.8702C95.3108 17.5904 113.811 32.0438 113.811 32.0438Z" fill="#EEA886"/>
<path d="M97.4881 23.869C97.4881 23.869 98.4528 25.468 102.41 24.8427C106.367 24.2263 111.182 18.9649 112.835 18.3932C114.487 17.8125 114.505 16.8478 114.505 16.8478L115.541 18.3574L117.292 18.4646C117.292 18.4646 115.693 13.7659 118.105 11.8454C120.517 9.9248 115.604 -3.37623 102.928 1.05448C102.928 1.05448 93.1913 3.73432 93.5487 9.2727C93.897 14.8111 95.3174 21.1177 97.497 23.869H97.4881Z" fill="#323657"/>
<path d="M114.929 36.0271C114.929 36.0271 114.885 33.4187 113.697 33.1597C112.509 32.9095 100.628 31.7661 99.1719 32.3378V35.3839C99.1719 35.3839 101.977 37.108 114.921 36.0271H114.929Z" fill="#E2D2CA"/>
<path d="M114.222 14.8386C113.998 13.9095 111.64 11.2565 110.738 14.0971C109.836 16.9378 112.105 20.7611 113.373 20.4305C114.642 20.1 114.793 17.1879 114.231 14.8386H114.222Z" fill="#EEA886"/>
<path d="M114.929 36.0293C114.929 36.0293 121.441 38.3697 128.989 41.5766C128.989 41.5766 137.672 44.8193 138.61 54.4043C139.11 59.496 144.523 86.509 145.542 88.7868C146.56 91.0737 158.575 127.788 158.994 128.547C159.414 129.306 149.186 133.558 148.507 133.219C147.828 132.879 136.877 99.7296 135.769 97.2731C135.769 97.2731 129.462 77.3974 129.293 74.4317C129.293 74.4317 129.114 82.8733 128.775 85.2494C128.435 87.6166 134.384 133.648 134.215 134.916C134.045 136.185 107.184 137.801 96.4286 136.613C85.6824 135.425 76.9997 132.951 76.9997 132.951C76.9997 132.951 85.4591 96.6299 85.2 92.6012C84.6373 83.8291 81.6984 67.3033 81.6984 67.3033L72.9352 83.8291L84.1549 112.691L81.5822 121.463C81.5822 121.463 60.7329 89.957 60.054 87.0717C59.3751 84.1953 61.0724 80.5239 62.1711 78.1567C63.2699 75.7895 70.4965 57.7451 72.1938 55.2082C73.8821 52.6713 76.7495 42.4967 83.6636 39.665C89.4431 37.2978 99.1442 35.3594 99.1442 35.3594L114.893 36.0025L114.929 36.0293Z" fill="#3468AB"/>
<path d="M129.275 145.18L178.398 132.586L169.613 98.3201L120.49 110.914L129.275 145.18Z" fill="#565D63"/>
<path d="M163.286 136.047C163.286 136.047 164.689 138.316 165.198 138.959C165.707 139.602 163.938 140.013 163.179 139.361C162.42 138.709 163.286 136.047 163.286 136.047Z" fill="#C98462"/>
<path d="M153.056 143.796C153.056 143.796 152.226 142.929 152.047 142.375C152.047 142.375 151.797 141.339 151.583 140.616C151.511 140.383 151.449 140.187 151.386 140.062C151.154 139.544 150.475 138.481 150.26 137.078C150.046 135.676 149.43 129.396 149.43 129.396L153.235 128.44L156.29 127.797C156.29 127.797 162.892 134.38 163.249 135.667C163.285 135.792 163.311 135.917 163.329 136.033C163.526 137.15 163.195 138.061 163.231 138.65C163.24 138.865 163.213 141.053 162.704 141.464C161.998 142.036 161.275 142.143 160.685 141.947C160.685 141.947 159.256 143.001 158.059 142.938C158.059 142.938 156.773 143.947 155.308 143.447C155.308 143.447 153.887 144.332 153.047 143.796H153.056Z" fill="#DE9D7D"/>
<path d="M138.203 104.048C138.203 104.048 146.922 130.453 148.521 133.222C148.521 133.222 154.917 131.882 159.008 128.551L149.432 100.055L138.203 104.048Z" fill="#3468AB"/>
</svg>
