<svg width="1222" height="217" viewBox="0 0 1222 217" fill="none" xmlns="http://www.w3.org/2000/svg">
<path d="M156.102 25.4297H0.1875V216.388H156.102V25.4297Z" fill="#5B5B5C"/>
<path d="M150.068 31.6562H6.19531V210.171H150.068V31.6562Z" fill="#FAFAFA"/>
<path d="M143.858 38.9297H12.4375V202.892H143.858V38.9297Z" fill="#FFB94D"/>
<path d="M143.85 123.914C143.85 123.914 48.2683 126.567 72.8248 141.172C97.3812 155.778 12.4297 162.415 12.4297 162.415V202.898H143.85V123.914Z" fill="#F5F5F5"/>
<path d="M143.847 96.0364C143.847 96.0364 144.178 61.5198 98.2183 77.456C52.2587 93.3833 59.5568 38.9375 59.5568 38.9375H143.856V96.0453L143.847 96.0364Z" fill="#3B51A9"/>
<path d="M21.0577 38.9297C21.0577 38.9297 34.332 93.3844 56.2353 109.973C78.1387 126.57 12.4375 183.642 12.4375 183.642V38.9297H21.0666H21.0577Z" fill="#D94D72"/>
<path d="M316.572 50.2266H200.328V166.47H316.572V50.2266Z" fill="#5B5B5C"/>
<path d="M311.284 55.5156H205.617V161.183H311.284V55.5156Z" fill="white"/>
<path d="M306.393 60.4062H210.508V156.283H306.393V60.4062Z" fill="#E8E3E4"/>
<path d="M306.393 60.4062H210.508V156.283H306.393V60.4062Z" fill="#E8E3E4"/>
<path d="M462.649 0.289062H329.594V216.402H462.649V0.289062Z" fill="#5B5B5C"/>
<path d="M456.288 6.32812H335.953V210.364H456.288V6.32812Z" fill="#FAFAFA"/>
<path d="M449.928 12.5781H342.305V204.099H449.928V12.5781Z" fill="#7D99DA"/>
<path d="M306.39 137.92H287.89L298.333 148.372H291.008L275.081 132.444H254.633L237.312 115.141H261.53L242.887 96.4897H285.255V83.1797L306.39 108.817V137.92Z" fill="#7D99DA"/>
<path d="M264.721 103.766H246.221L256.655 114.209H249.339L233.412 98.2905H212.955L210.508 95.834V80.9786H219.861L210.508 71.6259V62.3357H243.586V60.4062H252.966L264.721 74.6631V103.766Z" fill="#FE7D00"/>
<path d="M265.248 156.28H243.97L210.508 122.817V101.539L265.248 156.28Z" fill="#FAFAFA"/>
<path d="M591.914 50.2266H475.68V166.47H591.914V50.2266Z" fill="#5B5B5C"/>
<path d="M586.628 55.5156H480.961V161.183H586.628V55.5156Z" fill="white"/>
<path d="M581.745 60.4062H485.859V156.283H581.745V60.4062Z" fill="#E8E3E4"/>
<path d="M581.745 60.4062H485.859V156.283H581.745V60.4062Z" fill="#E8E3E4"/>
<path d="M421.725 204.103C421.725 204.103 388.905 184.924 398.794 163.753C408.674 142.582 427.379 140.822 406.905 132.702C386.44 124.582 383.26 111.308 391.031 101.536C398.794 91.763 399.848 66.0095 387.145 62.1237C374.443 58.2468 373.737 66.7152 375.149 80.1234C376.56 93.5317 370.914 84.4916 366.68 101.536C362.446 118.588 355.032 117.525 363.857 124.94C372.674 132.345 382.563 128.468 370.914 136.936C359.266 145.405 358.56 138.259 356.8 148.362C355.032 158.465 365.617 160.224 362.446 169.398C359.275 178.573 362.116 178.93 352.218 182.101C342.32 185.281 342.32 204.103 342.32 204.103H421.733H421.725Z" fill="#E8E3E4"/>
<path d="M396.116 12.5792C396.116 12.5792 395.607 28.2564 380.073 31.0792C364.548 33.902 354.31 43.076 364.199 48.7216C374.079 54.3672 395.25 51.6069 389.962 60.3969C384.664 69.1868 386.031 77.9589 380.082 83.1667C374.132 88.3746 353.623 111.877 355.382 90.0004C357.151 68.1238 364.226 77.6462 353.265 63.1839C342.305 48.7216 342.305 47.3013 342.305 47.3013V12.5703H396.116V12.5792Z" fill="#E8E3E4"/>
<path d="M431.516 30.1867L403.172 58.5306V48.0077L421.556 29.6328V35.0104L431.686 24.8805V20.3516H434.419V32.0179L431.516 30.1867Z" fill="#5B5B5C"/>
<path d="M420.055 57.8898L391.711 86.2337V75.7108L410.086 57.327V62.7135L420.216 52.5836V48.0547H422.949V59.7121L420.055 57.8898Z" fill="white"/>
<path d="M421.634 113.288L393.281 141.632V131.1L411.665 112.725V118.103L421.795 107.982V103.453H424.528V115.111L421.634 113.288Z" fill="#5B5B5C"/>
<path d="M410.172 140.991L381.828 169.335V158.803L400.203 140.429V145.806L410.333 135.676V131.156H413.066V142.814L410.172 140.991Z" fill="white"/>
<path d="M581.749 129.35C581.749 129.35 564.723 135.969 544.347 119.033C523.971 102.096 501.737 109.242 512.59 120.882C523.444 132.53 518.942 137.023 508.356 135.969C497.771 134.906 481.629 140.203 502.005 144.706C522.381 149.208 531.385 147.618 536.941 143.911C542.498 140.203 547.795 130.886 552.556 141.633C557.317 152.379 557.058 155.023 557.058 155.023L565.527 156.283H581.758V129.35H581.749Z" fill="#FE7D00"/>
<path d="M549.358 60.4074C549.358 60.4074 526.865 62.4083 535.86 74.3158C544.856 86.2234 566.295 86.2234 547.509 92.0476C528.723 97.8718 518.665 87.5812 515.484 86.2412C512.304 84.9013 499.602 83.3112 500.138 95.2188C500.665 107.126 506.194 108.734 500.12 108.984C494.046 109.243 494.314 111.164 494.046 103.455C493.778 95.7458 497.485 85.1603 493.778 75.629C490.071 66.0976 492.205 60.3984 492.205 60.3984H549.358V60.4074Z" fill="#7D99DA"/>
<path d="M781.055 49.5781H621.094V209.539H781.055V49.5781Z" fill="#5B5B5C"/>
<path d="M774.58 56.0469H627.562V203.064H774.58V56.0469Z" fill="white"/>
<path d="M635.359 63.8516V195.263H766.771V63.8516H635.359ZM649.84 129.74C649.84 124.595 650.965 119.709 652.984 115.314C658.451 103.379 670.492 95.0809 684.481 95.0809C689.439 95.0809 694.156 96.126 698.417 98.0108C689.814 101.781 683.043 108.971 679.8 117.842C685.24 114.287 691.726 112.223 698.702 112.223C705.679 112.223 711.575 114.108 716.854 117.35C717.979 120.289 718.721 123.416 718.998 126.667C713.522 138.593 701.471 146.874 687.483 146.874C685.616 146.874 683.776 146.722 681.998 146.445C679.273 141.487 677.71 135.788 677.71 129.731C677.71 125.551 678.443 121.549 679.8 117.833C672.529 122.567 667.16 129.955 665.043 138.629C664.382 141.264 664.043 144.033 664.043 146.874C664.043 151.233 664.847 155.413 666.321 159.255C656.423 153.153 649.822 142.211 649.822 129.723L649.84 129.74Z" fill="#FFB94D"/>
<path d="M766.771 63.8516H635.359V195.263H766.771V63.8516Z" fill="#F5F5F5"/>
<path d="M698.722 112.228C691.746 112.228 685.251 114.291 679.82 117.847C683.063 108.976 689.834 101.785 698.436 98.0156C706.878 101.723 713.56 108.708 716.874 117.364C711.603 114.122 705.377 112.237 698.722 112.237V112.228Z" fill="#7D99DA"/>
<path d="M719.15 129.741C719.15 143.918 710.628 156.102 698.435 161.471C694.174 163.356 689.458 164.392 684.5 164.392C677.854 164.392 671.628 162.516 666.348 159.273C664.874 155.432 664.07 151.252 664.07 146.892C664.07 144.052 664.41 141.282 665.071 138.647C667.179 129.973 672.557 122.586 679.828 117.852C678.479 121.568 677.738 125.57 677.738 129.75C677.738 135.816 679.301 141.506 682.025 146.464C683.812 146.74 685.643 146.892 687.51 146.892C701.499 146.892 713.54 138.612 719.025 126.686C719.115 127.705 719.159 128.714 719.159 129.75L719.15 129.741Z" fill="#7D99DA"/>
<path d="M682.246 144.985C683.979 145.253 685.748 145.395 687.498 145.395C700.29 145.395 712.019 137.954 717.486 126.413C717.218 123.671 716.602 120.964 715.655 118.374C710.536 115.336 704.694 113.728 698.718 113.728C692.26 113.728 686.007 115.586 680.629 119.097L676.859 121.563L678.405 117.337C681.772 108.128 688.856 100.588 697.825 96.6488C702.407 94.621 707.303 93.5938 712.359 93.5938C714.279 93.5938 716.209 93.7456 718.093 94.0493C735.718 96.8542 748.51 111.861 748.51 129.745C748.51 142.001 742.373 153.328 732.082 160.036C726.213 163.86 719.398 165.887 712.359 165.887C707.285 165.887 702.389 164.86 697.816 162.841C690.589 159.652 684.506 154.096 680.692 147.182L682.228 144.985H682.246ZM684.881 148.29C688.374 153.444 693.314 157.589 699.031 160.108C703.22 161.957 707.713 162.895 712.368 162.895C718.826 162.895 725.079 161.037 730.457 157.535C739.899 151.38 745.526 140.992 745.526 129.745C745.526 113.344 733.797 99.5698 717.629 97.0061C715.896 96.7292 714.127 96.5863 712.368 96.5863C707.731 96.5863 703.238 97.5242 699.031 99.3822C692.152 102.402 686.48 107.726 683.005 114.327C687.874 111.969 693.233 110.736 698.718 110.736C705.418 110.736 711.966 112.585 717.647 116.087L718.076 116.355L718.254 116.828C719.451 119.955 720.202 123.224 720.487 126.556L720.523 126.949L720.354 127.306C714.476 140.116 701.577 148.388 687.489 148.388C686.623 148.388 685.748 148.352 684.872 148.299L684.881 148.29Z" fill="#5B5B5C"/>
<path d="M717.65 116.079C719.205 117.044 720.714 118.134 722.135 119.331C730.219 126.236 734.855 136.267 734.855 146.871C734.855 151.132 734.123 155.312 732.675 159.278C727.477 173.473 713.836 183.013 698.722 183.013C683.607 183.013 670.27 173.678 664.946 159.797C663.365 155.678 662.57 151.337 662.57 146.88C662.57 143.941 662.919 141.046 663.607 138.277C665.777 129.344 671.244 121.644 678.998 116.588L682.75 114.141L681.213 118.348C679.882 121.993 679.212 125.816 679.212 129.737C679.212 135.07 680.507 140.368 682.973 145.084C684.474 145.29 685.992 145.388 687.493 145.388C700.285 145.388 712.014 137.947 717.481 126.405C717.195 123.493 716.516 120.626 715.471 117.883L717.65 116.079ZM677.113 121.716C671.86 126.209 668.153 132.212 666.501 138.983C665.867 141.529 665.545 144.182 665.545 146.871C665.545 150.962 666.277 154.946 667.725 158.725C672.602 171.463 685.054 180.029 698.704 180.029C712.353 180.029 725.091 171.284 729.853 158.26C731.184 154.624 731.854 150.792 731.854 146.88C731.854 137.152 727.602 127.942 720.178 121.609C719.982 121.439 719.785 121.278 719.589 121.117C720.026 122.895 720.321 124.708 720.473 126.531L720.509 126.924L720.339 127.281C714.461 140.091 701.562 148.362 687.475 148.362C685.572 148.362 683.652 148.211 681.758 147.916L681.035 147.8L680.686 147.157C677.756 141.833 676.211 135.803 676.211 129.72C676.211 127.004 676.514 124.315 677.104 121.698L677.113 121.716Z" fill="#5B5B5C"/>
<path d="M718.001 132.442L717.518 126.806C717.268 123.929 716.643 121.089 715.651 118.373C710.533 115.336 704.691 113.728 698.715 113.728C692.256 113.728 686.003 115.586 680.626 119.097L676.856 121.562L678.401 117.337C681.376 109.217 687.227 102.392 694.713 98.1937C691.426 97.1217 687.995 96.5857 684.476 96.5857C671.55 96.5857 659.723 104.188 654.336 115.943L651.987 121.08L651.487 115.452C651.388 114.344 651.344 113.29 651.344 112.236C651.344 92.3069 667.557 76.0938 687.486 76.0938C700.662 76.0938 712.802 83.2668 719.162 94.8081C722.092 100.114 723.637 106.135 723.637 112.236C723.637 115.157 723.289 118.051 722.61 120.847C722.065 123.063 721.306 125.233 720.359 127.306L717.992 132.442H718.001ZM698.715 110.744C705.414 110.744 711.962 112.593 717.643 116.095L718.072 116.363L718.251 116.837C718.751 118.15 719.18 119.49 719.519 120.856C719.582 120.615 719.644 120.383 719.707 120.142C720.332 117.578 720.645 114.925 720.645 112.245C720.645 106.653 719.225 101.124 716.536 96.2642C710.694 85.6698 699.563 79.0952 687.477 79.0952C670.058 79.0952 655.739 92.5927 654.426 109.681C661.063 99.7658 672.327 93.6111 684.476 93.6111C689.541 93.6111 694.427 94.6384 699.018 96.6661L702.118 98.0329L699.01 99.3996C692.131 102.419 686.468 107.743 682.984 114.344C687.852 111.986 693.212 110.753 698.697 110.753L698.715 110.744Z" fill="#FE7D00"/>
<path d="M1015.94 10.5312H816.93V209.538H1015.94V10.5312Z" fill="#5B5B5C"/>
<path d="M1007.47 18.9922H825.391V201.071H1007.47V18.9922Z" fill="white"/>
<path d="M1001.01 25.4609H831.867V194.596H1001.01V25.4609Z" fill="#F5F5F5"/>
<path d="M1001 110.206C1001 110.206 991.983 143.999 945.853 136.361C882.323 125.847 912.552 65.9166 882.082 97.8248C851.612 129.724 908.693 122.819 872.845 144.856C837.006 166.894 828.422 183.536 828.422 183.536V194.603H1001V110.206H1001Z" fill="#FFB94D"/>
<path d="M942.867 161.994C942.867 161.994 943.198 133.043 926.279 100.518C909.351 67.9934 926.609 32.253 932.916 44.3213C939.223 56.3807 934.908 92.6481 944.198 110.023C953.488 127.397 968.755 152.284 958.464 156.598C948.173 160.913 942.867 161.994 942.867 161.994Z" fill="#206A94"/>
<path d="M887.948 25.4609C887.948 25.4609 851.609 47.2571 862.06 69.6608C872.512 92.0644 862.561 100.613 849.617 110.028C836.673 119.444 831.867 139.739 831.867 139.739C831.867 139.739 852.44 46.9713 831.867 25.4609H887.948Z" fill="#00B6DF"/>
<path d="M1221.18 49.5781H1061.22V209.539H1221.18V49.5781Z" fill="#5B5B5C"/>
<path d="M1214.7 56.0469H1067.69V203.064H1214.7V56.0469Z" fill="#FAFAFA"/>
<path d="M1206.91 63.8438H1075.49V195.264H1206.91V63.8438Z" fill="#0E5680"/>
<path d="M1145.18 129.554C1145.18 131.752 1143.39 133.538 1141.19 133.538C1139 133.538 1137.21 131.752 1137.21 129.554C1137.21 127.357 1139 125.57 1141.19 125.57C1143.39 125.57 1145.18 127.357 1145.18 129.554Z" fill="white"/>
<path d="M1150.72 134.042C1143 134.042 1136.72 127.763 1136.72 120.045C1136.72 112.327 1143 106.047 1150.72 106.047C1158.43 106.047 1164.71 112.327 1164.71 120.045C1164.71 127.763 1158.43 134.042 1150.72 134.042ZM1150.72 107.038C1143.54 107.038 1137.71 112.872 1137.71 120.045C1137.71 127.218 1143.54 133.051 1150.72 133.051C1157.89 133.051 1163.72 127.218 1163.72 120.045C1163.72 112.872 1157.89 107.038 1150.72 107.038Z" fill="#C9DFDD"/>
<path d="M1162.22 140.139C1147.06 140.139 1134.73 127.803 1134.73 112.644C1134.73 97.4847 1147.06 85.1484 1162.22 85.1484C1177.38 85.1484 1189.72 97.4847 1189.72 112.644C1189.72 127.803 1177.38 140.139 1162.22 140.139ZM1162.22 86.1489C1147.61 86.1489 1135.73 98.0386 1135.73 112.644C1135.73 127.249 1147.62 139.139 1162.22 139.139C1176.83 139.139 1188.72 127.249 1188.72 112.644C1188.72 98.0386 1176.83 86.1489 1162.22 86.1489Z" fill="#C9DFDD"/>
<path d="M1165.33 195.261C1165.33 195.261 1127.82 190.393 1110.11 129.551H1093.64C1093.64 129.551 1082.44 112.855 1082.44 93.5156H1075.49V195.252C1075.49 195.252 1167.57 195.252 1165.33 195.252V195.261Z" fill="#C9DFDD"/>
<path d="M1138.69 169.269C1138.69 169.269 1180.32 174.245 1189.21 154.664L1193.78 186.188C1193.78 186.188 1162.25 195.478 1138.69 169.26V169.269Z" fill="#FFB94D"/>
</svg>
