<svg width="90" height="46" viewBox="0 0 90 46" fill="none" xmlns="http://www.w3.org/2000/svg">
<path d="M86.0246 25.3203C87.5404 25.5714 88.4194 26.3787 89.5944 27.3115L89.4867 28.2443C88.2669 28.2174 86.1053 27.8676 84.9932 28.1546C84.6792 28.2353 83.89 29.0425 83.6568 29.0246C82.1858 28.9259 82.2844 27.5178 80.1408 28.1277C77.7909 28.8004 75.3244 30.6749 73.0641 31.7243C68.3015 33.9397 58.4443 36.5318 53.2422 35.3927C54.8387 33.5182 56.3994 32.8006 58.6058 31.8499C59.8615 31.1234 61.3324 28.8183 62.3818 27.6344L63.1352 28.5582L64.3192 27.3653C66.3103 27.3653 69.01 26.9527 70.6873 28.1187C72.813 28.0649 75.4679 28.3698 77.2707 27.1411L78.5264 26.8541C80.957 26.28 83.8989 26.5222 86.0246 25.3203Z" fill="#913669"/>
<path d="M63.1365 28.5606L64.3204 27.3677C66.3116 27.3677 69.0113 26.9551 70.6885 28.1211C67.8632 29.4127 65.0828 30.7132 62.0781 31.5922L63.1275 28.5606H63.1365Z" fill="#142F61"/>
<path d="M64.5725 18.726L78.9591 19.0668L79.6766 20.0893L83.1925 18.3672L83.7666 18.9861C82.475 20.2597 81.1565 20.8247 79.5241 21.5154C81.6229 23.0491 83.6589 24.2151 86.0178 25.3093C83.8832 26.5112 80.9502 26.278 78.5196 26.8431L77.2639 27.1301C75.4611 28.3589 72.8062 28.0539 70.6805 28.1077C69.0032 26.9417 66.3035 27.3454 64.3124 27.3543L63.1284 28.5472L62.375 27.6234L63.9626 23.9281L64.5725 18.717V18.726Z" fill="#872A65"/>
<path d="M48.2031 0.109375C54.1497 1.83146 58.4998 3.3921 61.63 9.1862C63.2535 12.1998 63.962 15.3929 64.5719 18.7294L63.962 23.9405L51.5935 23.5548C53.8986 21.9673 56.1229 19.8237 57.1365 17.1598C55.8808 13.7246 54.1497 7.28474 50.5172 5.65234C49.8176 5.33842 49.414 5.06038 48.813 4.60295L48.2031 0.118353V0.109375Z" fill="#91284E"/>
<path d="M42.2552 0.315663L48.2017 0.109375L48.8116 4.59397C49.4126 5.0514 49.8162 5.32944 50.5158 5.64337C54.1394 7.27576 55.8704 13.7246 57.1351 17.1508C56.1215 19.8147 53.8972 21.9673 51.5921 23.5459L39.2325 23.6356C38.1204 23.6804 36.6674 23.5728 35.6628 23.9943L34.2546 24.5594L33.2949 23.9854L33.6627 23.1423L32.6582 22.2812L32.6761 21.2587C34.0483 20.891 34.7928 20.8641 36.1471 21.3574L36.4969 21.4919L36.9992 19.5994L27.0703 19.8147C27.1779 14.8099 27.4201 11.9487 30.7477 8.05608C33.0349 3.91231 38.0127 1.75074 42.2552 0.297734V0.315663Z" fill="#F36772"/>
<path d="M36.9985 19.6128C38.1107 17.4243 38.2721 16.1866 40.5593 15.1641L41.3575 16.4108C43.8599 16.6171 45.0976 16.2942 46.9632 18.0342L46.5597 20.4559L46.2278 20.5456C43.7971 21.2093 41.3216 22.2587 39.2228 23.6579C38.1106 23.7027 36.6576 23.5951 35.6531 24.0167L34.2449 24.5817L33.2852 24.0077L33.653 23.1646L32.6484 22.3035L32.6663 21.281C34.0386 20.9133 34.7831 20.8864 36.1374 21.3797L36.4872 21.5142L36.9895 19.6218L36.9985 19.6128Z" fill="#EC7867"/>
<path d="M27.0859 19.8211C27.1936 14.8163 27.4357 11.9551 30.7633 8.0625C30.3417 9.68592 29.983 11.3721 29.3103 12.9148L30.1086 12.3139C30.3148 12.3677 31.2387 12.6637 31.4091 12.565L44.9885 13.5427L44.827 14.619L40.5756 15.1482C38.2884 16.1707 38.127 17.4084 37.0148 19.5969L27.0859 19.8122V19.8211Z" fill="#F49D68"/>
<path d="M30.7632 8.06304C33.0503 3.91927 38.0282 1.7577 42.2707 0.304688L42.0913 0.708299C41.8581 1.3182 41.894 1.71285 41.9478 2.34966L42.2976 2.66359C43.1138 3.44391 43.5712 3.81165 43.8762 4.90589C44.4412 6.95983 44.9076 8.1617 44.8358 10.3502C41.3109 12.7001 35.5169 9.91069 31.4269 12.5656C31.2565 12.6553 30.3327 12.3593 30.1264 12.3144L29.3281 12.9154C30.0008 11.3727 30.3596 9.68646 30.7811 8.06304H30.7632Z" fill="#ED8956"/>
<path d="M10.0965 19.7578L8.54481 17.39L9.18159 16.6455L11.5495 19.0044C13.0653 18.3407 13.1549 17.9102 14.007 16.5469L14.0967 16.9056C14.2851 17.5245 14.6438 17.8743 15.0654 18.3497C19.0298 18.8071 23.1825 18.9058 27.0751 19.8206L37.004 19.6054L36.5018 21.4979L36.152 21.3633C34.7976 20.87 34.0532 20.8969 32.6809 21.2647L32.663 22.2872L33.6675 23.1482L33.2998 23.9913L34.2595 24.5653L35.6676 24.0003C36.6722 23.5787 38.1252 23.6864 39.2374 23.6415L51.5969 23.5518L63.9654 23.9375L62.3779 27.6328C61.3375 28.8167 59.8576 31.1128 58.6019 31.8483C56.3955 32.7991 54.8348 33.5166 53.2383 35.3911C50.6372 38.5483 47.9644 43.5531 44.8073 45.8672C43.5874 45.5533 42.9865 45.3201 42.0985 44.4231C38.9952 41.2301 37.9997 40.3063 37.3718 35.8217L36.726 35.14L24.9943 34.9517C20.7608 34.279 17.2091 33.5076 13.2088 31.8394C9.5404 29.624 4.89435 28.3593 0.75058 27.3548L0.427702 27.283L0.382812 26.1977L1.95242 26.3502L3.54896 24.4487L4.08709 24.359C5.82712 22.1885 7.36085 20.5561 10.0875 19.7668L10.0965 19.7578Z" fill="#295280"/>
<path d="M39.235 23.6444L51.5945 23.5547L63.963 23.9404L62.3755 27.6357C61.335 28.8196 59.8552 31.1157 58.5995 31.8512L56.3213 28.6851L49.9263 28.2904L49.5405 27.6267C52.5273 27.6088 59.4784 28.3084 61.649 26.667V25.4113C59.8372 24.3171 57.0747 24.6669 54.967 24.6489C49.0473 24.5951 41.7105 25.4113 36.0061 24.1018L35.6562 24.0121C36.6608 23.5906 38.1138 23.6982 39.226 23.6533L39.235 23.6444Z" fill="#142F61"/>
<path d="M13.212 31.8308C17.024 29.4808 21.688 31.2298 25.4102 29.2745C26.9708 28.4583 28.4597 28.548 30.1818 28.5391L38.4155 28.9965C34.6933 30.5213 29.9127 27.4 27.213 30.8262C28.684 31.2029 30.0024 31.3375 31.4285 30.7275C32.4241 30.306 33.8143 30.5751 34.8817 30.6648C33.4466 31.8577 29.4553 31.8756 27.5269 32.0998L26.2533 31.472C25.9752 32.5483 25.7689 34.1538 24.9886 34.9341C20.7551 34.2614 17.2034 33.4901 13.2031 31.8218L13.212 31.8308Z" fill="#1B5C8B"/>
<path d="M13.2166 31.8359C9.54816 29.6205 4.90216 28.3559 0.758393 27.3513L0.43546 27.2796L0.390625 26.1943L1.96023 26.3468L3.55678 24.4453L3.87068 26.6697C5.86184 27.163 7.73642 27.5397 9.77242 27.728C10.3734 28.0151 11.5752 28.7774 12.1941 28.8851C15.2167 29.3784 20.4727 27.6383 23.7285 27.4051C27.2982 27.154 30.9756 27.45 34.5453 27.6383L30.1863 28.5532C28.4642 28.5532 26.9753 28.4725 25.4147 29.2887C21.6835 31.244 17.0195 29.495 13.2166 31.8449V31.8359Z" fill="#1C255F"/>
<path d="M37.3828 35.8146H38.0645C42.1275 35.68 47.4732 33.8055 51.5362 32.8906L51.7335 33.8145C49.1952 37.4201 46.2444 38.3798 43.1859 41.0705C42.6567 41.5369 42.2621 43.7075 42.1096 44.416C39.0063 41.223 38.0107 40.2992 37.3828 35.8146Z" fill="#5ADAD9"/>
</svg>
