<svg width="81" height="50" viewBox="0 0 81 50" fill="none" xmlns="http://www.w3.org/2000/svg">
<path d="M65.4453 15.2451C69.0509 14.1239 73.5535 14.5186 77.3205 14.4558C78.2802 15.0298 79.6525 15.5142 79.9216 16.6084L80.3432 19.1108C77.4192 20.1602 74.6298 19.0301 71.5982 18.4292L65.9835 17.2273L65.4453 15.2451Z" fill="#142F61"/>
<path d="M65.9995 18.5194L71.5963 18.4297C74.619 19.0217 77.4173 20.1607 80.3413 19.1113C78.7807 21.3895 73.74 22.7708 71.0851 23.3717C70.6456 23.4704 70.6187 23.4614 70.233 23.4883H56.7344L57.4609 22.3134C58.0977 21.4613 58.4744 20.7527 58.8421 19.7482L58.9587 19.4253C61.4163 19.3625 63.6048 19.0665 66.0085 18.5194H65.9995Z" fill="#3ABAC0"/>
<path d="M35.0569 5.0868C37.7477 5.10473 40.5819 4.95226 43.2458 5.32L47.8649 7.06002C50.2597 7.23043 52.8518 7.88518 55.2197 7.79549L58.4576 8.27086C59.1123 10.0109 59.5787 11.5177 61.0407 12.7644L60.1079 13.5089L54.4573 12.9438C50.2238 11.6522 43.7212 13.7241 40.3936 11.1231L39.7478 11.7599C38.3217 11.8227 36.9853 11.6343 35.5951 11.3024C34.7161 11.0962 33.8909 11.2935 33.0299 11.6074C30.0073 12.7106 26.2133 11.8227 23.2266 10.9168C25.1191 10.3338 27.1461 10.0647 29.0924 9.69696C30.9849 7.7058 33.4604 7.37394 35.048 5.10473L35.0569 5.0868Z" fill="#295280"/>
<path d="M35.0649 5.0868C37.7557 5.10473 40.5899 4.95226 43.2538 5.32L47.8729 7.06002C43.469 8.90767 38.6885 8.46818 34.1232 9.54449C32.5356 9.92119 30.7328 9.73284 29.1094 9.67903C31.0019 7.68786 33.4774 7.356 35.0649 5.0868Z" fill="#44AAB6"/>
<path d="M23.048 29.0391L26.7433 29.4158L27.1739 30.0795C28.1964 32.25 29.2816 34.1336 29.0305 36.6091C26.5101 34.295 24.1692 32.3846 23.0391 29.0391H23.048Z" fill="#B0EDDA"/>
<path d="M58.4609 8.26794C60.784 8.99444 63.0442 9.5595 64.9726 11.1112L65.6901 13.3266C69.511 14.2683 73.7534 12.3041 77.3142 14.4477C73.5471 14.5195 69.0446 14.1159 65.439 15.237C65.0533 14.6092 62.5419 13.7391 61.7616 13.3714L61.044 12.7436C59.5821 11.4968 59.1157 9.99002 58.4609 8.25V8.26794Z" fill="#1C255F"/>
<path d="M37.5 0.492188C40.8276 0.563941 43.9578 0.537032 47.115 1.72097C50.613 3.03047 52.7566 5.0306 55.2321 7.79311C52.8642 7.8828 50.2721 7.22805 47.8774 7.05764L43.2582 5.31762C42.7111 3.03944 43.5991 4.03502 44.1731 2.15149L37.509 0.492188H37.5Z" fill="#1F0756"/>
<path d="M17.7734 9.58695C22.0697 3.88254 30.7788 1.58643 37.5057 0.492188L44.1698 2.15149C43.5957 4.03502 42.7078 3.03944 43.2549 5.31762C40.5911 4.94988 37.7568 5.10235 35.066 5.08441C33.4785 7.35362 31.003 7.68548 29.1105 9.67664C27.1642 10.0444 25.1372 10.3135 23.2447 10.8965L21.8544 11.0848L22.1504 11.6319L20.7064 12.3943C19.2623 11.7575 19.0381 11.6947 18.2219 10.3673L17.8721 10.161L17.7734 9.59592V9.58695Z" fill="#142F61"/>
<path d="M18.2277 10.361L18.5865 9.96634C23.0352 5.29339 29.0446 5.22163 35.0629 5.07812C33.4753 7.34733 30.9999 7.67919 29.1074 9.67035C27.1611 10.0381 25.134 10.3072 23.2415 10.8902L21.8513 11.0785L22.1473 11.6256L20.7032 12.388C19.2592 11.7512 19.0349 11.6884 18.2188 10.361H18.2277Z" fill="#5ADAD9"/>
<path d="M28.0236 29.1496L41.3339 29.3738L40.15 44.1371C40.132 45.3569 39.9616 46.783 40.1769 47.9759C39.5132 48.9177 39.5939 49.0971 38.4817 49.2854L29.0371 36.594C29.2883 34.1185 28.203 32.235 27.1805 30.0645L26.75 29.4007L28.0326 29.1406L28.0236 29.1496Z" fill="#54D9D7"/>
<path d="M28.0236 29.1484L41.3339 29.3727L40.15 44.136L39.6387 42.8265L38.9122 40.9609C36.8314 36.3776 31.8445 31.7943 27.1805 30.0723L26.75 29.4085L28.0326 29.1484H28.0236Z" fill="#3ABAC0"/>
<path d="M41.3367 29.3781L55.6336 28.6875C55.8219 29.7997 56.5125 31.8357 55.8847 32.7326C51.9113 38.4011 45.2203 43.1638 40.1797 47.9892C39.9734 46.7963 40.1438 45.3702 40.1528 44.1504L41.3367 29.3871V29.3781Z" fill="#44AAB6"/>
<path d="M17.8714 10.1508L18.2212 10.357C19.0374 11.6845 19.2616 11.7473 20.7056 12.3841L22.1497 11.6217L21.8537 11.0746L23.2439 10.8862C26.2307 11.8011 30.0246 12.6801 33.0472 11.5769C33.9083 11.2629 34.7335 11.0656 35.6124 11.2719C37.0027 11.6038 38.3391 11.8011 39.7652 11.7293L40.4109 11.0925C43.7475 13.6936 50.2502 11.6217 54.4747 12.9133L60.1252 13.4783L61.058 12.7339L61.7756 13.3617C62.5559 13.7295 65.0673 14.5995 65.4529 15.2273L65.9911 17.2095L71.6058 18.4114L66.009 18.5011C63.5156 17.945 61.4437 17.7835 58.8875 17.954L58.2058 17.7028L44.7251 17.0301C42.3034 15.0569 34.0159 15.6937 30.796 15.5771C31.3251 15.5592 31.6301 15.2183 32.0696 14.9313C31.2175 14.0793 26.4011 13.9896 25.0378 14.2945C24.2126 14.4829 23.9256 15.2542 22.93 15.2453C22.0689 14.7071 21.6205 14.5995 21.2169 13.6487C19.5307 13.1913 17.701 13.2989 15.9609 13.272L17.8624 10.1328L17.8714 10.1508Z" fill="#2F4979"/>
<path d="M61.7689 13.3828C62.5493 13.7505 65.0606 14.6206 65.4463 15.2484L65.9845 17.2306L71.5992 18.4325L66.0024 18.5222C63.509 17.9661 61.4371 17.8046 58.8809 17.975L58.1992 17.7239C56.7821 16.2888 55.1945 16.5848 53.302 16.1722C50.7907 15.6251 48.082 15.5892 45.5078 15.4009C47.3644 14.2349 58.0467 13.8761 60.3249 14.0376C61.0873 14.0914 61.159 13.8313 61.751 13.3828H61.7689Z" fill="#142F61"/>
<path d="M1.14345 16.6256L1.60089 15.7825C2.73101 14.9573 3.56515 14.5896 4.94641 14.3564C8.73141 13.7106 12.1218 13.3698 15.9606 13.2891C17.7006 13.316 19.5303 13.2083 21.2165 13.6658C21.6201 14.6165 22.0686 14.7241 22.9296 15.2623C23.9252 15.2713 24.2122 14.4909 25.0374 14.3116C26.4007 14.0066 31.2172 14.0963 32.0692 14.9484C31.6298 15.2354 31.3338 15.5762 30.7956 15.5941C34.0155 15.7107 42.3031 15.0739 44.7248 17.0472C33.2801 17.1099 21.7367 16.9126 10.5073 19.4778C11.6105 21.5228 13.4941 22.3569 15.7633 22.9758C17.8082 23.5319 20.1761 23.6395 22.2839 23.783C20.5797 25.0387 18.1042 24.7965 16.0503 24.8952C14.974 24.9939 13.2967 24.4826 12.2384 24.2135C8.61481 23.2807 2.51576 21.7739 0.515625 18.4643L1.14345 16.6256Z" fill="#2E8BA9"/>
<path d="M1.14462 16.6266C3.47661 15.5503 5.18973 14.8865 7.76389 14.6623L10.9659 14.3125L11.5041 15.2632C9.90754 17.0033 9.18104 17.4069 6.93874 18.1423C8.03298 19.1828 9.03753 19.2545 10.4995 19.4698C11.6027 21.5148 13.4862 22.3489 15.7554 22.9678C17.8004 23.5239 20.1683 23.6315 22.276 23.775C20.5719 25.0307 18.0964 24.7885 16.0425 24.8872C14.9662 24.9858 13.2889 24.4746 12.2306 24.2055C8.607 23.2727 2.50794 21.7659 0.507812 18.4563L1.13567 16.6176L1.14462 16.6266Z" fill="#43B1CA"/>
<path d="M56.7401 23.5023H70.2387L60.7404 26.2289L55.7983 27.7896L55.6279 28.6865L41.331 29.3771L28.0207 29.1529L26.7381 29.413L23.0428 29.0363C22.998 27.5923 22.8634 26.9016 22.0562 25.6998C19.9933 25.628 18.0739 25.2872 16.0469 24.8925C18.0919 24.8028 20.5763 25.036 22.2804 23.7804L22.7648 23.6817C25.2851 25.0002 29.393 24.2288 32.2094 24.1302L56.7401 23.4844V23.5023Z" fill="#3C90AE"/>
<path d="M28.0233 29.1451L26.3281 27.8535C29.862 27.2257 33.9519 27.5576 37.5665 27.3602C45.3338 26.9297 52.9577 26.1763 60.7519 26.2122L55.8099 27.7728L55.6394 28.6697L41.3425 29.3604L28.0323 29.1361L28.0233 29.1451Z" fill="#235071"/>
<path d="M44.7264 17.0469L58.2071 17.7196L58.8888 17.9707C61.445 17.8003 63.5079 17.9707 66.0103 18.5178C63.6156 19.0739 61.4271 19.3609 58.9606 19.4237L58.844 19.7466C58.4852 20.7512 58.1085 21.4597 57.4627 22.3118L56.7362 23.4868L32.2054 24.1325C29.3891 24.2312 25.2812 25.0026 22.7609 23.6841L22.2765 23.7827C20.1688 23.6303 17.8009 23.5316 15.7559 22.9755C13.4867 22.3566 11.6032 21.5225 10.5 19.4775C21.7294 16.9213 33.2728 17.1097 44.7175 17.0469H44.7264Z" fill="#7FE3CE"/>
<path d="M58.8897 17.9774C61.4459 17.807 63.5088 17.9774 66.0112 18.5245C63.6165 19.0806 61.428 19.3676 58.9615 19.4304L58.8449 19.7533C58.4861 20.7579 58.1094 21.4664 57.4636 22.3185L55.7505 20.0672C53.7235 19.5919 52.0103 19.8071 49.9833 20.0672L51.5798 21.2153L51.1942 22.3544C49.1223 22.4441 49.1312 22.5517 47.6065 21.1704C46.862 21.1704 46.3598 21.1435 45.6691 20.8386C43.1847 19.7443 40.4491 19.7892 37.7673 19.6547L29.2734 19.4753C30.7085 18.3272 32.8791 18.7398 34.6908 18.6322C37.9108 18.4348 40.9065 17.9146 44.2161 18.1568C48.6021 18.4707 54.719 19.6457 58.8718 17.9864L58.8897 17.9774Z" fill="#44AAB6"/>
<path d="M37.7789 19.6418C40.4607 19.7853 43.1873 19.7315 45.6808 20.8257C46.3714 21.1307 46.8736 21.1486 47.6181 21.1576C49.1429 22.5388 49.1339 22.4312 51.2058 22.3415L51.5915 21.2024L49.9949 20.0544C52.022 19.8032 53.7351 19.579 55.7621 20.0544L57.4753 22.3056L56.7488 23.4806L32.218 24.1264C29.4017 24.225 25.2938 24.9964 22.7734 23.6779C27.2491 24.1443 32.3077 23.4806 36.8371 23.2833L36.2093 22.2967C37.16 21.4625 37.4022 20.8257 37.7879 19.6328L37.7789 19.6418Z" fill="#4FBAC3"/>
</svg>
