<svg width="338" height="157" viewBox="0 0 338 157" fill="none" xmlns="http://www.w3.org/2000/svg">
<path d="M251.423 16.581C255.701 16.5361 266.195 15.2446 269.523 17.4958C270.59 19.2 270.734 19.3525 270.572 21.3347C269.496 22.7518 268.814 23.3527 267.11 23.8819C266.249 22.6352 265.245 21.0476 263.881 20.2942C259.746 17.9981 255.405 20.2673 251.414 16.581H251.423Z" fill="#A3374B"/>
<path d="M158.438 3.37562L161.209 0.28125L190.493 0.496509L191.184 2.9451L176.573 3.23212C175.228 3.59985 172.761 3.28593 171.308 3.2949L158.438 3.37562Z" fill="#622268"/>
<path d="M188.969 143.831L201.696 143.688C200.162 148.199 197.229 152.522 194.862 156.639C192.799 152.989 189.408 147.984 188.969 143.84V143.831Z" fill="#1B5C8B"/>
<path d="M190.492 0.49363L231.257 0.421875L232.558 1.82107C232.28 2.03633 231.544 2.76284 231.257 2.83459C228.638 3.51625 224.019 2.85253 221.122 2.87047L191.183 2.94222L190.492 0.49363Z" fill="#671950"/>
<path d="M242.156 16.5547L251.439 16.5816C255.431 20.2679 259.772 17.9987 263.907 20.2948C265.27 21.0483 266.265 22.6358 267.135 23.8825L253.404 23.6673C251.269 23.6404 248.955 23.2188 247.08 24.2772L246.031 23.452C245.251 20.9944 243.546 18.7252 242.165 16.5547H242.156Z" fill="#D64437"/>
<path d="M94.2971 61.4047C92.5302 62.3464 87.6151 61.5123 85.4087 61.4854L54.0703 60.9472L66.2146 58.1847C67.9636 57.8529 70.5108 57.7991 72.0535 57.0546C74.242 56.0052 77.0763 56.3102 79.498 56.2474L96.5125 56.0859C95.508 57.8708 94.7276 59.3776 94.2971 61.3957V61.4047Z" fill="#F05C45"/>
<path d="M53.3779 17.8594L55.2255 18.7742L55.2973 20.0568C52.5437 22.7835 49.6646 26.0393 46.3281 28.0215C43.6463 29.618 40.2201 29.4655 37.8522 30.775C35.5023 32.0755 30.91 37.771 29.4301 40.1837L26.8649 40.2824C25.7886 39.0446 25.385 38.336 25.2684 36.6947L26.3716 35.4121L25.9949 34.3537L25.3043 34.0308C24.82 34.9008 24.4881 35.3403 24.6137 36.3718H24.1204L20.0394 30.6405C16.066 29.9857 12.8013 29.6359 9.61719 26.8914C14.5772 27.869 19.8779 28.165 24.9186 27.9766C31.3226 28.748 39.2783 28.1201 45.5208 26.5595C47.5927 24.6939 49.1892 23.0974 50.4898 20.6129L53.3868 17.8773L53.3779 17.8594Z" fill="#1B5C8B"/>
<path d="M148.918 17.4035L144.389 24.3098L142.873 26.5431L142.478 26.57L141.85 25.7538L118.531 25.987C116.1 26.0319 113.885 26.292 112.073 24.543C111.84 22.6864 112.458 21.7446 113.4 20.2378C118.907 16.4169 141.563 17.556 148.909 17.4125L148.918 17.4035Z" fill="#F05C45"/>
<path d="M298.047 54.9703L323.492 54.4232C327.34 54.3694 332.067 53.7684 335.583 55.4277C336.803 56.8 336.848 56.9345 337.027 58.7732C336.39 60.3877 335.556 60.89 334.094 61.7331L299.895 61.9125L299.751 58.7822L298.056 54.9613L298.047 54.9703Z" fill="url(#paint0_linear_20_1484)"/>
<path d="M97.3655 55.6172C98.37 56.1464 99.1324 56.4962 100.271 56.6666L115.277 60.4516C115.986 58.7385 116.057 57.985 117.699 56.9984L118.676 57.4469L118.757 58.9268L118.461 64.2455L118.075 74.6947L115.331 73.5825H114.999L114.47 73.726C107.214 72.0846 99.9127 70.6047 95.5806 64.2276L94.2891 61.4023C94.7196 59.3753 95.5089 57.8774 96.5045 56.0926L97.0695 55.8324L97.3476 55.6172H97.3655Z" fill="#5ADAD9"/>
<path d="M115.281 60.4531C115.99 58.74 116.062 57.9866 117.703 57L118.681 57.4485L118.761 58.9284L118.465 64.2471L118.08 74.6962L115.335 73.584L115.281 60.4531Z" fill="#FEFCF4"/>
<path d="M95.6016 64.2344C97.4941 64.8802 114.338 69.4545 114.473 69.7056C115.029 70.8178 114.966 72.3605 115.02 73.5893L114.491 73.7327C107.235 72.0914 99.9337 70.6115 95.6016 64.2344Z" fill="#348AA6"/>
<path d="M137.688 34.5364L137.67 35.0118L135.939 37.3976L132.423 42.3755L96.0887 42.0795L84.9669 42.2679C83.8458 42.2858 81.6304 42.4831 80.6169 42.1244C80.2581 41.9988 79.4867 41.1288 79.1549 40.8418C78.5539 38.8416 78.6347 38.8058 79.4957 36.8864C83.9175 33.3525 95.7748 34.653 101.461 34.6261L137.706 34.5454L137.688 34.5364Z" fill="#F05C45"/>
<path d="M18.0681 12.7897C28.3378 10.2156 43.3791 12.2964 52.8147 17.5075L53.3798 17.8573L50.4827 20.5929C49.1822 23.0774 47.5856 24.6739 45.5138 26.5395C39.2712 28.1002 31.3156 28.728 24.9116 27.9567C19.8619 28.145 14.5701 27.849 9.61011 26.8714L4.70393 22.6469C3.4034 22.1267 1.43915 19.9113 0.335938 18.9157C5.95065 16.1801 12.0228 14.3414 18.0591 12.7718L18.0681 12.7897Z" fill="#32A1B4"/>
<path d="M25.1721 12.7963L27.836 12.6797L28.2665 13.2717L28.0871 13.7111C27.5848 14.9937 27.235 16.1508 27.0467 17.5141L20.4453 17.6397C21.7458 16.3391 22.8311 15.2538 24.5532 14.5004L24.921 14.348L25.1721 12.7963Z" fill="#54D9D7"/>
<path d="M18.0669 12.7891H25.1705L24.9194 14.3497L24.5516 14.5022C22.8205 15.2466 21.7442 16.3409 20.4437 17.6414C17.1789 17.6683 10.0305 16.8431 7.68952 18.7805L8.97211 20.1259L8.95415 22.6193L8.00342 23.2561L7.44734 22.9332C6.55939 22.4489 5.68042 22.5834 4.71174 22.6641C3.41121 22.1439 1.44696 19.9285 0.34375 18.933C5.95847 16.1974 12.0306 14.3587 18.0669 12.7891Z" fill="#5AEEF0"/>
<path d="M18.2084 22.9328C18.4775 21.6682 18.5761 20.9237 18.047 19.7039L17.9125 19.4169C18.4865 19.4169 20.6929 19.2196 21.1234 19.4169C21.1772 19.4438 21.3207 20.843 21.4373 21.0224C21.814 21.5516 22.8365 22.1794 23.3568 22.6189L24.3075 21.9821C23.9936 21.139 23.8321 20.3049 23.6707 19.4259C25.7425 19.3541 26.8996 19.5156 28.7562 20.5022L29.115 20.6995L31.6712 19.103C32.3977 19.103 32.1824 19.0133 32.7654 19.3003C33.465 19.6411 34.0929 20.0268 34.8283 20.278C35.4293 20.4842 35.4831 20.8161 35.8329 21.3363L37.5101 19.1658L37.7433 18.7891L39.3578 21.0224C40.443 21.3812 40.8018 21.2377 41.905 21.0224L42.2189 19.7488L42.8648 19.4259C42.9455 20.6905 42.9185 21.5067 42.3714 22.6727L42.2369 22.9508L43.1966 24.2244C44.4702 24.2244 45.7797 23.8297 47.0264 23.5876C47.0982 23.184 47.0982 23.0225 47.3404 22.6279C48.1566 21.3363 49.1432 20.9686 50.4975 20.6098C49.197 23.0943 47.6005 24.6908 45.5286 26.5564C39.286 28.117 31.3304 28.7449 24.9264 27.9735C19.8767 28.1619 14.5849 27.8659 9.62493 26.8882L4.71875 22.6638C5.68742 22.583 6.56639 22.4485 7.45434 22.9328L8.01043 23.2557L8.96116 22.6189L8.97912 20.1255L12.1721 23.0674C13.2215 22.5651 13.8942 22.305 14.2889 21.1211L14.4144 20.6816C15.6522 21.5426 16.863 22.2691 18.2264 22.9149L18.2084 22.9328Z" fill="#3ABAC0"/>
<path d="M8.97014 20.1273L12.1632 23.0692C13.2126 22.5669 13.8852 22.3068 14.2799 21.1229L14.4055 20.6834C15.6432 21.5444 16.8541 22.2709 18.2174 22.9167L18.8901 23.7329L20.1727 23.0333L20.379 23.2755C22.4778 25.6254 28.5499 25.159 31.6263 25.8048L31.3573 26.5493C29.2585 26.8811 28.245 26.7555 26.2538 26.029C25.8681 26.6838 25.5183 27.4821 24.9263 27.9574C19.8767 28.1458 14.5848 27.8498 9.62487 26.8721L4.71875 22.6477C5.68742 22.5669 6.56639 22.4324 7.45434 22.9167L8.01043 23.2396L8.96116 22.6028L8.97912 20.1094L8.97014 20.1273Z" fill="#7FE3CE"/>
<path d="M253.578 33.8562C257.668 32.5467 264.332 33.327 268.664 33.3001L302.953 33.327C306.981 33.3091 312.766 32.6544 316.461 34.1432C317.869 35.9012 317.995 36.0268 318.049 38.2691C317.116 39.7221 316.569 41.0047 314.748 41.5159C313.779 41.785 312.398 41.6505 311.385 41.6325L300.182 41.4352L296.442 42.0361L295.814 54.019C295.007 56.4048 295.061 56.8891 292.773 58.1897L291.59 55.0415L291.32 54.4943C284.298 51.5166 277.804 49.6061 270.252 48.3953C266.592 47.8033 262.287 47.8302 258.861 46.5566C259.202 45.9288 259.74 45.5072 260.26 45.0229L259.444 42.8972C257.641 41.2379 256.143 38.4574 254.61 36.4663L253.587 33.8652L253.578 33.8562Z" fill="#F05C45"/>
<path d="M302.958 33.3227C306.985 33.3048 312.77 32.65 316.465 34.1389C317.874 35.8969 317.999 36.0224 318.053 38.2647C317.12 39.7177 316.573 41.0003 314.752 41.5116C313.784 41.7807 312.402 41.6461 311.389 41.6282L300.186 41.4309C302.088 40.6774 304.402 40.8927 306.429 40.8658L305.182 38.7401L302.375 38.5966C300.769 38.2827 299.227 37.4216 297.576 37.3768C295.791 37.323 294.132 38.3096 292.383 37.7356C290.069 36.9732 287.073 37.5562 284.598 37.2871L266.453 34.4169C268.121 33.825 270.884 34.0492 272.696 33.9685C277.952 33.7353 283.288 33.242 288.526 33.8429L302.967 33.3317L302.958 33.3227Z" fill="#A3374B"/>
<path d="M286.203 35.5389C291.423 35.4851 298.087 36.1308 302.913 34.8931C304.133 34.5792 308.492 37.2071 309.631 37.9695C310.366 39.1804 311.039 40.2387 311.389 41.62L300.186 41.4227C302.088 40.6693 304.402 40.8845 306.429 40.8576L305.182 38.7319L302.375 38.5884C301.63 38.0951 300.33 36.9381 299.531 36.6959C295.621 35.512 290.49 36.7228 286.203 35.5478V35.5389Z" fill="#BC3743"/>
<path d="M259.431 42.8845C264.696 41.7364 271.808 42.7051 277.28 42.6872L293.918 42.149L296.456 42.0234L295.828 54.0063C295.021 56.3921 295.075 56.8764 292.787 58.177L291.604 55.0288L291.334 54.4816C284.312 51.5039 277.818 49.5934 270.266 48.3826C266.606 47.7906 262.301 47.8175 258.875 46.5439C259.216 45.9161 259.754 45.4945 260.274 45.0102L259.458 42.8845H259.431Z" fill="#EDB753"/>
<path d="M232.566 1.82812C235.275 4.70724 237.544 8.54605 239.428 12.0171L240.755 14.5733C237.455 16.134 231.086 15.3178 227.409 15.3357L194.752 15.264L190.33 15.2191L169.486 14.968L150.875 14.7886L152.489 12.6539L152.866 12.044L158.445 3.38876L171.316 3.30804C172.76 3.29907 175.235 3.61299 176.581 3.24525L191.192 2.95824L221.131 2.88649C224.028 2.86855 228.647 3.53227 231.266 2.85061C231.553 2.77886 232.288 2.05235 232.566 1.83709V1.82812Z" fill="#872A65"/>
<path d="M190.414 3.54803L194.8 3.77226C195.957 5.52126 195.428 9.28831 195.383 11.414C193.966 12.4724 192.262 12.1405 190.513 12.1764L190.414 3.53906V3.54803Z" fill="#B963B1"/>
<path d="M152.489 12.6533L194.08 12.5547L194.752 15.2634L190.33 15.2185L169.486 14.9674L150.875 14.788L152.489 12.6533Z" fill="#240B36"/>
<path d="M239.419 12.0156L240.746 14.5718C237.445 16.1325 231.077 15.3163 227.4 15.3342L194.743 15.2625L194.07 12.5538L239.41 12.0156H239.419Z" fill="#211C41"/>
<path d="M158.43 3.37788L171.301 3.29716C172.745 3.28819 175.221 3.60211 176.566 3.23438L190.406 3.5483L190.504 12.1856L152.852 12.0421L158.43 3.38685V3.37788Z" fill="#C36AAE"/>
<path d="M226.574 81.0267C235.453 81.5558 245.355 80.2822 254.181 79.0804C257.993 78.5601 261.93 77.5197 265.778 77.5556C244.467 96.373 219.048 116.455 203.971 140.905L202.895 139.802L201.056 142.286L200.599 141.434L199.128 142.259L198.473 141.632L198.635 137.873H198.052C198.105 131.532 199.935 124.635 201.388 118.473C201.953 116.078 204.106 111.755 203.433 109.522L198.886 108.939L197.038 108.67C195.415 106.984 195.962 102.167 195.89 99.7095L196.419 97.3865L199.854 96.9111L195.495 93.8975L194.805 81.2778H208.895C214.447 81.2061 221.192 81.9056 226.583 81.0267H226.574Z" fill="#231749"/>
<path d="M201.159 140.728C201.948 137.266 203.876 133.741 205.455 130.574C208.944 123.552 212.496 116.986 217.51 110.923C219.492 110.43 221.393 111.264 223.268 111.874C223.322 113.784 217.949 118.744 216.496 120.466C211.375 126.547 206.899 132.933 202.89 139.795L201.051 142.279L200.594 141.427L201.159 140.719V140.728Z" fill="#5ADAD9"/>
<path d="M198.631 137.871L198.802 137.387L206.784 109.367L215.798 110.112C209.69 118.937 203.699 128.687 200.739 139.055L201.152 140.723L200.587 141.432L199.116 142.257L198.461 141.629L198.622 137.871H198.631Z" fill="#54D9D7"/>
<path d="M125.251 76.4375C137.36 78.339 151.369 80.7876 163.63 80.384L170.133 81.0297L194.798 81.2898L195.489 93.9095L199.848 96.9231L196.413 97.3985L195.884 99.7215C195.946 102.179 195.408 106.996 197.032 108.682L198.879 108.951L203.427 109.534C204.099 111.767 201.947 116.081 201.382 118.485C199.929 124.647 198.09 131.544 198.045 137.876H198.628L198.467 141.644L199.121 142.271L200.592 141.446L201.05 142.298L202.889 139.814L203.965 140.917C203.328 141.859 202.673 143.123 201.687 143.697L188.959 143.841C185.623 142.334 182.367 135.347 180.143 132.136C177.9 128.916 175.425 125.858 172.887 122.871C166.438 115.256 159.155 108.413 151.997 101.471L125.242 76.4465L125.251 76.4375Z" fill="url(#paint1_linear_20_1484)"/>
<path d="M182.462 93.3281C184.955 93.6959 187.099 93.3371 189.575 93.3909C190.059 94.8619 190.319 96.1803 190.436 97.723L187.897 97.4719L182.659 96.2072C182.005 94.808 182.103 94.7632 182.462 93.3371V93.3281Z" fill="#C892BB"/>
<path d="M190.406 93.2656C192.065 93.4629 193.859 93.5347 195.491 93.9024L199.85 96.9161L196.415 97.3914C195.276 97.6516 193.993 97.8399 193.042 98.5574L192.549 98.9521L190.424 97.7233C190.307 96.1806 190.038 94.8621 189.562 93.3912L190.397 93.2656H190.406Z" fill="#A689A2"/>
<path d="M187.901 97.4688C185.722 97.9891 183.094 98.2312 181.076 97.128L180.726 96.9128L179.147 98.1146C178.286 98.0608 177.309 98.007 176.573 97.5406C175.398 96.7962 174.815 96.2759 174.492 94.9216L175.793 94.2848C177.488 93.1816 177.999 92.6793 180.062 92.6075C181.309 92.5627 181.524 92.4551 182.457 93.334C182.107 94.7601 181.999 94.805 182.654 96.2042L187.892 97.4688H187.901Z" fill="#A689A2"/>
<path d="M195.884 99.7188C195.947 102.176 195.409 106.993 197.032 108.679L198.88 108.948C197.876 109.253 196.736 109.513 195.786 109.944C194.97 110.195 194.297 110.069 193.463 110.006L192.467 109.316L190.844 108.365L191.158 100.051L195.884 99.7277V99.7188Z" fill="#2C0E43"/>
<path d="M189.984 140.641C186.729 130.084 181.769 120.388 175.93 111.043L176.423 110.199C178.244 110.029 181.374 109.392 183.015 110.074L191.733 140.139L191.428 142.381C190.792 141.825 190.245 141.466 189.984 140.632V140.641Z" fill="#7FE3CE"/>
<path d="M189.532 141.991L189.03 141.776C187.917 141.292 186.751 139.005 186.123 137.964C183.388 133.48 180.724 128.905 177.54 124.717C174.473 120.69 169.656 116.68 167.477 112.205C169.082 111.093 171.064 111.075 172.966 110.859C175.459 112.958 177.208 116.357 178.832 119.147C182.993 126.259 186.617 133.865 189.622 141.543L189.532 142V141.991Z" fill="#7DF2EB"/>
<path d="M192.652 140.516L185.414 109.465L192.473 109.312L193.468 110.003C193.441 114.918 194.581 141.099 193.594 142.409L192.652 140.516Z" fill="#7FE3CE"/>
<path d="M198.889 108.945L203.436 109.528C204.109 111.762 201.956 116.076 201.391 118.48C199.938 124.641 198.099 131.539 198.055 137.871H198.638L198.476 141.638L199.131 142.266L200.602 141.441L201.059 142.293L202.898 139.808L203.974 140.912C203.337 141.853 202.683 143.118 201.696 143.692L188.969 143.835L189.534 141.997L189.624 141.539L189.991 140.642C190.251 141.477 190.798 141.835 191.435 142.391L191.74 140.149L192.664 140.526L193.606 142.418C194.592 141.118 193.444 114.928 193.48 110.013C194.314 110.075 194.996 110.201 195.803 109.95C196.754 109.519 197.893 109.268 198.898 108.954L198.889 108.945Z" fill="#7DF2EB"/>
<path d="M193.471 110C194.305 110.063 194.987 110.189 195.794 109.938L195.588 141.949L196.628 142.415C197.812 141.195 197.812 139.473 198.055 137.859H198.638L198.476 141.626L199.131 142.254L200.602 141.428L201.059 142.28L202.898 139.796L203.974 140.899C203.337 141.841 202.683 143.106 201.696 143.68L188.969 143.823L189.534 141.984L189.624 141.527L189.991 140.63C190.251 141.464 190.798 141.823 191.435 142.379L191.74 140.137L192.664 140.513L193.606 142.406C194.592 141.105 193.444 114.915 193.48 110H193.471Z" fill="#240B36"/>
<path d="M195.458 47.4688L234.491 47.11C242.402 46.9037 251.04 45.5225 258.843 46.5449C262.269 47.8186 266.583 47.7917 270.234 48.3836C277.786 49.6034 284.279 51.5049 291.302 54.4827L291.571 55.0298L292.755 58.178C295.042 56.8774 294.998 56.3931 295.796 54.0073L298.038 54.967L299.733 58.7879L299.877 61.9181C298.657 66.1785 297.285 68.6361 293.294 70.8156C285.06 75.3181 274.503 74.7979 265.758 77.5604C261.91 77.5335 257.973 78.5739 254.161 79.0852C245.335 80.2781 235.433 81.5517 226.554 81.0315L228.913 80.6368L228.482 77.6142L228.769 73.8292L228.679 66.4745L221.038 66.5193L205.377 67.1292L200.166 67.0306C198.686 66.8602 196.74 66.8333 195.484 65.9991C194.193 65.1381 192.534 64.8869 191.045 64.5192L190.264 64.3488L190.749 59.2274L190.946 63.5685C191.995 63.7479 192.767 63.703 193.825 63.5685V48.5271L185.367 48.276C188.488 48.2222 192.058 48.4823 195.063 47.5854L195.449 47.4598L195.458 47.4688Z" fill="#211C41"/>
<path d="M228.419 61.4297L228.697 66.4704L221.055 66.5152L205.395 67.1251L200.184 67.0265C198.704 66.8561 196.758 66.8291 195.502 65.995C194.211 65.134 192.551 64.8828 191.062 64.5151L199.251 64.3536C208.534 63.4478 218.266 64.7483 227.451 63.3939L228.419 61.4387V61.4297Z" fill="#2F4979"/>
<path d="M191.062 64.5208L199.251 64.3594C199.933 64.8975 201.063 66.0815 201.826 66.4044C202.48 66.6824 204.92 66.4582 205.781 66.4671C210.705 66.512 216.203 65.9021 221.055 66.521L205.395 67.1309L200.184 67.0322C198.704 66.8618 196.758 66.8349 195.502 66.0007C194.211 65.1397 192.551 64.8886 191.062 64.5208Z" fill="#2E637C"/>
<path d="M295.82 54.0078L298.063 54.9675L299.758 58.7884L299.901 61.9186C298.682 66.179 297.309 68.6366 293.318 70.8161C285.084 75.3186 274.527 74.7984 265.782 77.5609C261.935 77.534 257.997 78.5744 254.185 79.0857C245.36 80.2786 235.458 81.5522 226.578 81.032L228.937 80.6374L228.507 77.6147L228.794 73.8297L228.704 66.475L228.426 61.4343L229.054 59.9903L230.623 60.1517C231.556 61.3446 232.049 62.3312 232.48 63.7753C241.781 63.7214 251.306 62.6003 260.553 61.6406C270.778 60.5822 281.281 59.5508 291.336 57.3802L291.587 55.0303L292.771 58.1785C295.058 56.8779 295.013 56.3936 295.811 54.0078H295.82Z" fill="url(#paint2_linear_20_1484)"/>
<path d="M228.422 61.4362L229.05 59.9922L230.619 60.1536C231.552 61.3465 232.045 62.3331 232.476 63.7772L232.072 65.0598L232.09 79.3477C230.978 80.0473 230.225 80.4419 228.933 80.6303L228.503 77.6077L228.79 73.8227L228.7 66.4679L228.422 61.4273V61.4362Z" fill="#FEFCF4"/>
<path d="M291.581 55.0312L292.765 58.1794C288.513 61.0585 281.93 61.6505 276.907 62.4308L245.999 65.7943C242.223 66.0454 237.497 66.9154 233.846 66.4311L232.797 66.1889L232.07 65.0678L232.474 63.7852C241.775 63.7314 251.3 62.6102 260.548 61.6505C270.772 60.5922 281.275 59.5607 291.33 57.3902L291.581 55.0402V55.0312Z" fill="#235071"/>
<path d="M299.758 58.7891L299.901 61.9193C298.682 66.1797 297.309 68.6372 293.318 70.8167C285.084 75.3193 274.527 74.7991 265.782 77.5616C261.935 77.5347 257.997 78.5751 254.185 79.0863C245.36 80.2792 235.458 81.5529 226.578 81.0327L228.937 80.638C230.229 80.4497 230.991 80.055 232.094 79.3554C232.83 77.8665 232.659 75.4897 232.776 73.8125C236.471 72.485 241.655 72.6913 245.602 72.2787C260.5 70.7001 277.694 70.1799 291.677 64.637C295.139 63.2647 298.224 62.287 299.749 58.798L299.758 58.7891Z" fill="#295280"/>
<path d="M240.743 14.566L242.142 16.5482C243.523 18.7187 245.227 20.9879 246.007 23.4455L247.057 24.2706L247.371 25.0689L253.219 33.769L253.569 33.8408L254.591 36.4418C256.125 38.433 257.614 41.2134 259.425 42.8727L260.242 44.9984C259.721 45.4828 259.183 45.9043 258.842 46.5322C251.039 45.5097 242.402 46.8909 234.491 47.0972L195.457 47.456L194.865 47.1062C195.762 45.1778 195.053 40.8098 194.982 38.5944L182.299 38.4061L156.046 38.1729L135.938 37.3657L137.669 34.9798L137.687 34.5045L142.485 26.5398L142.88 26.5129L144.395 24.2796L148.925 17.3733L150.88 14.7543L169.491 14.9337L190.336 15.1848L194.757 15.2297L227.414 15.3014C231.092 15.2835 237.46 16.0997 240.76 14.5391L240.743 14.566Z" fill="#913669"/>
<path d="M253.219 33.7836L253.569 33.8553L254.591 36.4564C245.658 38.3937 235.388 38.1874 226.23 38.3668L194.982 38.609L182.299 38.4206L156.046 38.1874L135.938 37.3802L137.669 34.9944L158.961 35.2366H190.506L194.946 35.12L253.219 33.7656V33.7836Z" fill="url(#paint3_linear_20_1484)"/>
<path d="M247.37 25.0715L253.218 33.7716L194.946 35.1259L194.883 26.8563C199.305 26.3272 204.336 26.7666 208.812 26.7577L235.773 26.363C239.11 26.2554 244.662 26.9102 247.37 25.0625V25.0715Z" fill="#913669"/>
<path d="M240.74 14.5703L242.14 16.5525C243.521 18.723 245.225 20.9923 246.005 23.4498L247.055 24.275L247.369 25.0732C244.66 26.9209 239.108 26.2661 235.772 26.3738L208.81 26.7684C204.334 26.7774 199.303 26.3379 194.881 26.8671L192.352 26.6159C191.428 26.015 191.239 25.2795 190.881 24.3019L189.625 24.0059V23.7727L190.369 23.7368L190.316 15.2251L194.737 15.2699L227.394 15.3417C231.072 15.3237 237.44 16.1399 240.74 14.5793V14.5703Z" fill="#913669"/>
<path d="M190.329 15.2121L194.751 15.2569C194.948 17.9567 195.11 20.5488 194.877 23.2485C193.325 23.6611 191.98 23.7418 190.374 23.7149L190.32 15.2031L190.329 15.2121Z" fill="#B963B1"/>
<path d="M246.023 23.4453L247.073 24.2705L247.386 25.0687C244.678 26.9164 239.126 26.2616 235.789 26.3693L208.828 26.7639C204.352 26.7729 199.32 26.3334 194.899 26.8626L192.369 26.6114C191.446 26.0105 191.257 25.275 190.898 24.2974L246.023 23.4453Z" fill="#211C41"/>
<path d="M150.881 14.7836L169.492 14.9629L190.337 15.2141L190.39 23.7258L189.655 23.7617V23.9949L190.902 24.2909C191.261 25.2685 191.449 26.004 192.373 26.605L194.902 26.8561L194.965 35.1257L190.525 35.2244H158.98L137.688 34.9912L137.705 34.5158L142.504 26.5511L142.899 26.5242L144.414 24.2909L148.944 17.3846L150.899 14.7656L150.881 14.7836Z" fill="#C36AAE"/>
<path d="M189.639 23.9933L190.895 24.2893C191.254 25.267 191.442 26.0024 192.366 26.6034L190.249 26.8635H169.485L142.883 26.5316L144.399 24.2983L189.639 23.9844V23.9933Z" fill="#240B36"/>
<path d="M142.89 26.5402L169.492 26.8721C167.367 27.0873 163.51 26.8721 162.102 28.4507C160.496 30.2445 159.51 32.9263 158.98 35.2403L137.688 34.9982L137.705 34.5228L142.504 26.5582L142.899 26.5312L142.89 26.5402Z" fill="#C36AAE"/>
<path d="M169.474 14.9621L190.319 15.2132L190.372 23.725L189.637 23.7609C182.031 22.5859 172.631 23.5994 164.828 23.6174L169.474 14.9531V14.9621Z" fill="#C892BB"/>
<path d="M192.353 26.6172L194.883 26.8683L194.945 35.1379L190.506 35.2366H158.961C159.49 32.9315 160.477 30.2587 162.082 28.4559C163.49 26.8683 167.347 27.0836 169.473 26.8773H190.237L192.353 26.6172Z" fill="#C892BB"/>
<path d="M192.351 26.6172L194.88 26.8683L194.943 35.1379L190.503 35.2366L190.234 26.8773L192.351 26.6172Z" fill="#C36AAE"/>
<path d="M135.936 37.3828L156.045 38.19L182.298 38.4232L194.98 38.6116C195.052 40.818 195.76 45.195 194.864 47.1234L195.456 47.4732L195.07 47.5987C192.065 48.4867 188.495 48.2355 185.374 48.2894L193.841 48.5405V63.5818C192.774 63.7164 192.002 63.7522 190.953 63.5818L190.756 59.2407L190.271 64.3622L191.052 64.5326C192.54 64.9003 194.209 65.1514 195.491 66.0125C196.747 66.8466 198.684 66.8735 200.173 67.0439L205.384 67.1426L221.045 66.5327L228.686 66.4879L228.776 73.8426L228.489 77.6276L228.92 80.6502L226.561 81.0448C221.17 81.9238 214.425 81.2242 208.873 81.305H194.783L170.118 81.0448L163.615 80.3991C151.345 80.8027 137.344 78.3541 125.236 76.4526C123.424 75.4032 120.617 75.179 118.527 74.7754L118.069 74.7126L118.455 64.2635L118.751 58.9448L118.67 57.4648L117.693 57.0164C116.051 58.003 115.97 58.7564 115.271 60.4695L100.265 56.6845C99.1264 56.5051 98.355 56.1553 97.3594 55.6351C98.624 54.9535 100.158 54.514 101.512 54.0027C104.302 54.5588 117.271 48.8185 121.146 47.814C123.756 47.1413 126.491 47.1503 129.173 47.2041L132.402 42.3876L135.918 37.4097L135.936 37.3828Z" fill="url(#paint4_linear_20_1484)"/>
<path d="M118.469 64.2406L118.765 58.9219L119.958 60.4646L161.126 63.828L160.857 66.5457L134.344 65.1644C129.223 64.7429 123.554 63.6128 118.469 64.2406Z" fill="#2E8BA9"/>
<path d="M135.933 37.3828L156.042 38.19C154.643 40.6924 152.132 44.2712 152.293 47.1861H129.18L132.409 42.3607L135.924 37.3828H135.933Z" fill="#C36AAE"/>
<path d="M156.055 38.1953L182.307 38.4285L194.99 38.6169C195.062 40.8233 195.77 45.2003 194.873 47.1286L190.703 47.2273L152.296 47.2004C152.135 44.2854 154.646 40.7067 156.046 38.2043L156.055 38.1953Z" fill="#C892BB"/>
<path d="M182.298 38.4141L194.98 38.6024C195.052 40.8088 195.761 45.1858 194.864 47.1142L190.693 47.2128L190.639 39.0419L182.289 38.4141H182.298Z" fill="#B963B1"/>
<path d="M118.472 64.2405C123.557 63.6127 129.226 64.7428 134.347 65.1643L160.86 66.5456L160.905 72.8509L161.004 79.237C161.99 80.0263 162.259 80.0173 163.47 80.1787L163.631 80.3761C151.362 80.7797 137.361 78.3311 125.252 76.4296C123.441 75.3802 120.633 75.156 118.543 74.7524L118.086 74.6896L118.472 64.2405Z" fill="#2E637C"/>
<path d="M118.472 64.2405C123.557 63.6127 129.226 64.7428 134.347 65.1643L160.86 66.5456L160.905 72.8509L118.929 69.326L118.543 74.7614L118.086 74.6986L118.472 64.2495V64.2405Z" fill="#54D9D7"/>
<path d="M161.136 63.8298C161.271 62.6908 161.585 61.5875 161.854 60.4754L163.118 60L164.338 61.3902L164.06 63.9285L181.891 64.4936C184.564 64.4936 187.667 64.7806 190.295 64.3411L191.075 64.5115C192.564 64.8792 194.233 65.1304 195.515 65.9914C196.771 66.8256 198.708 66.8525 200.197 67.0229L205.408 67.1215L221.068 66.5116L228.71 66.4668L228.8 73.8215L228.513 77.6065L228.943 80.6291L226.584 81.0238C221.194 81.9028 214.449 81.2032 208.897 81.2839H194.807L170.141 81.0238L163.639 80.378L163.477 80.1807C162.266 80.0192 161.997 80.0282 161.011 79.2389L160.912 72.8529L160.867 66.5475L161.136 63.8298Z" fill="#7FE3CE"/>
<path d="M161.136 63.8298C161.271 62.6908 161.585 61.5875 161.854 60.4754L163.118 60L164.338 61.3902C164.275 67.3009 164.823 73.9112 164.051 79.7322L163.477 80.1807C162.266 80.0192 161.997 80.0282 161.011 79.2389L160.912 72.8529L160.867 66.5475L161.136 63.8298Z" fill="#FEFCF4"/>
<path d="M164.055 63.9375L181.885 64.5026C184.558 64.5026 187.662 64.7896 190.29 64.3501L191.07 64.5205C192.559 64.8882 194.227 65.1394 195.51 66.0004C196.765 66.8346 198.703 66.8615 200.192 67.0319L205.403 67.1305L210.892 73.5704L194.819 73.6332C194.801 71.8125 194.98 69.902 194.155 68.2338C186.119 68.3862 176.486 68.3145 168.539 67.1933L164.844 67.005L164.055 63.9554V63.9375Z" fill="#5ADAD9"/>
<path d="M164.055 63.9375L181.885 64.5026C184.558 64.5026 187.662 64.7896 190.29 64.3501L191.07 64.5205C192.559 64.8882 194.227 65.1394 195.51 66.0004C196.765 66.8346 198.703 66.8615 200.192 67.0319L168.539 67.1754L164.844 66.987L164.055 63.9375Z" fill="#348AA6"/>
<path d="M221.058 66.5214L228.7 66.4766L228.789 73.8313L228.502 77.6163L228.933 80.6389L226.574 81.0336C221.184 81.9125 214.439 81.213 208.887 81.2937L210.609 77.9213L210.923 73.9569C205.613 74.4143 200.178 74.1811 194.841 74.1632C189.639 74.1452 184.32 74.3695 179.172 73.5802L194.823 73.634L210.896 73.5712L205.407 67.1313L221.067 66.5214H221.058Z" fill="#32A1B4"/>
<path d="M210.927 73.9537L228.793 73.8281L228.506 77.6131L228.937 80.6358L226.578 81.0304C221.187 81.9094 214.443 81.2098 208.891 81.2905L210.613 77.9181L210.927 73.9537Z" fill="#295280"/>
<path d="M210.613 77.9222L228.506 77.6172L228.937 80.6398L226.578 81.0344C221.187 81.9134 214.443 81.2138 208.891 81.2946L210.613 77.9222Z" fill="#426997"/>
<path d="M164.052 79.7314C165.029 78.1259 164.698 75.2109 164.742 73.2825C168.761 72.4036 174.949 73.4261 179.174 73.5696C184.331 74.3678 189.641 74.1436 194.843 74.1526C200.18 74.1705 205.615 74.3947 210.925 73.9463L210.611 77.9106L208.889 81.2831H194.798L170.133 81.023L163.63 80.3772L163.469 80.1799L164.043 79.7314H164.052Z" fill="#2E8BA9"/>
<defs>
<linearGradient id="paint0_linear_20_1484" x1="305.156" y1="65.6205" x2="328.928" y2="47.8136" gradientUnits="userSpaceOnUse">
<stop stop-color="#E95044"/>
<stop offset="1" stop-color="#9F1F51"/>
</linearGradient>
<linearGradient id="paint1_linear_20_1484" x1="135.513" y1="115.966" x2="199.635" y2="100.22" gradientUnits="userSpaceOnUse">
<stop stop-color="#1C0E4C"/>
<stop offset="1" stop-color="#6E2374"/>
</linearGradient>
<linearGradient id="paint2_linear_20_1484" x1="264.681" y1="54.6529" x2="262.882" y2="73.4685" gradientUnits="userSpaceOnUse">
<stop stop-color="#1F879D"/>
<stop offset="1" stop-color="#349FB5"/>
</linearGradient>
<linearGradient id="paint3_linear_20_1484" x1="198.008" y1="47.5051" x2="191.911" y2="22.4614" gradientUnits="userSpaceOnUse">
<stop stop-color="#252138"/>
<stop offset="1" stop-color="#341357"/>
</linearGradient>
<linearGradient id="paint4_linear_20_1484" x1="148.191" y1="30.7006" x2="170.033" y2="74.1214" gradientUnits="userSpaceOnUse">
<stop stop-color="#2B1446"/>
<stop offset="1" stop-color="#6F3780"/>
</linearGradient>
</defs>
</svg>
