<svg width="36" height="21" viewBox="0 0 36 21" fill="none" xmlns="http://www.w3.org/2000/svg">
<path d="M19.0078 0.179688C20.8068 0.309183 21.9337 0.452679 23.1587 1.88063L24.6531 4.06105L24.3556 4.61753C23.4667 4.64903 22.8472 4.72603 22.1227 4.11355L22.0387 3.53957C21.6222 1.71963 20.4813 1.11415 19.0078 0.183185V0.179688Z" fill="#682A6C"/>
<path d="M12.9375 1.79313C14.8799 0.267185 16.6509 0.305683 19.0168 0.179688C20.4902 1.11066 21.6312 1.71613 22.0477 3.53607L22.1317 4.11005C21.1622 3.93156 20.1263 4.16255 19.2303 3.88956L20.0248 3.66907C20.0913 3.49058 20.1438 3.35058 20.1368 3.15809C20.1053 2.38811 19.8498 1.86663 19.2758 1.35214C16.9904 1.26815 15.1704 1.28215 12.9375 1.79313Z" fill="#913669"/>
<path d="M26.3238 5.51562C28.4307 5.91461 31.7556 6.4676 33.5756 7.47206L33.3971 7.69955C33.8346 7.93055 34.1286 8.01454 34.622 8.05304L35.14 8.52902L34.748 8.75652L34.2476 8.40653L34.0236 8.57452C33.4986 8.93851 32.6306 9.02251 32.0076 9.14501C30.6742 8.84402 29.0117 9.152 27.6258 9.215L27.4753 8.52553C27.2408 7.41956 26.8278 6.52709 26.3203 5.51562H26.3238Z" fill="#D9586E"/>
<path d="M12.9339 1.79074C15.1668 1.27976 16.9832 1.26925 19.2722 1.34975C19.8461 1.86423 20.1016 2.38572 20.1331 3.15569C20.1401 3.34818 20.0876 3.48818 20.0211 3.66668L19.2267 3.88716C16.9937 3.75067 14.4843 3.70167 12.3074 4.25115L11.0859 4.37365C11.4849 3.24669 12.0869 2.61321 12.9339 1.78723V1.79074Z" fill="#EC7867"/>
<path d="M12.0391 15.1624C14.041 14.9979 16.6764 14.7494 18.6223 15.1309L23.0812 15.4634L21.6392 16.6009L17.6984 20.8917L13.53 16.5309L12.0426 15.1624H12.0391Z" fill="#5CC1BA"/>
<path d="M12.0391 15.1624C14.041 14.9979 16.6764 14.7494 18.6223 15.1309L23.0812 15.4634L21.6392 16.6009C21.5097 16.5379 21.4398 16.4994 21.3068 16.4609C20.9078 16.3454 20.0713 16.2789 19.7038 16.4924L19.5218 16.6114C18.6398 15.9219 14.7095 16.4609 13.5265 16.5309L12.0391 15.1624Z" fill="#295280"/>
<path d="M12.3045 4.25837C14.478 3.70889 16.9909 3.75789 19.2238 3.89439C20.1198 4.16738 21.1522 3.93638 22.1252 4.11488C22.8497 4.73086 23.4692 4.65036 24.3581 4.61886L24.6556 4.06238L25.1526 5.47633L26.3216 5.51483C26.8255 6.5263 27.2385 7.41877 27.4765 8.52473L27.627 9.21421L13.6905 8.97621C10.4496 9.20371 6.72571 8.46523 3.56882 9.09871C3.11034 8.90272 2.71486 8.67873 2.29488 8.40923C2.64837 8.08375 2.85134 7.85275 3.04033 7.40827L2.10938 6.90779C3.63182 6.21831 5.28376 5.65133 6.91471 5.28384C8.25166 4.98285 9.63413 4.91635 10.9326 4.44037L11.0831 4.38087L12.3045 4.25837Z" fill="url(#paint0_linear_20_1573)"/>
<path d="M12.3082 4.25837C14.4816 3.70889 16.9945 3.75789 19.2275 3.89439C20.1234 4.16738 21.1559 3.93638 22.1289 4.11488C22.8533 4.73086 23.4728 4.65036 24.3618 4.61886L24.6593 4.06238L25.1563 5.47633L21.0894 5.53583L13.7816 5.40984V5.21034C15.8711 5.16484 18.16 5.43434 20.1899 4.90585L18.524 4.66786L18.356 4.40537L12.3047 4.25488L12.3082 4.25837Z" fill="#622268"/>
<path d="M25.1519 5.47656L26.3209 5.51506C26.8249 6.52653 27.2378 7.419 27.4758 8.52496L27.6263 9.21444L13.6898 8.97644L11.4219 8.46896C14.6068 7.94748 17.7917 8.22397 21.001 8.06648C21.8795 8.02448 23.0625 8.16448 23.801 7.69549C23.7275 7.24401 23.6855 6.60352 23.444 6.21504C23.1465 5.73555 21.666 5.64106 21.0851 5.53956L25.1519 5.48007V5.47656Z" fill="#913669"/>
<path d="M3.5727 9.09925C6.72959 8.46578 10.4535 9.20425 13.6944 8.97676L27.6309 9.21475C29.0168 9.15525 30.6793 8.84726 32.0127 9.14475L32.0478 9.59274L32.3802 9.65224L32.0092 10.0232C32.6147 10.4292 34.3157 10.2892 35.0647 10.1422C35.2991 10.0967 35.5336 9.99872 35.7506 9.90072L35.9991 10.1492C35.0086 10.7827 33.4862 11.0977 32.3067 10.9857C31.5193 11.0557 30.6198 11.0627 29.8568 11.2447C29.2198 11.2272 27.8269 11.0102 27.3544 11.4862C26.6719 12.1757 26.0349 13.4846 25.16 13.8381C24.3445 14.2966 23.7425 14.8041 23.081 15.462L18.6222 15.1295C16.6763 14.7481 14.0443 14.9966 12.0389 15.1611L10.128 13.3516L8.95902 12.7426L8.60553 12.2106C8.46904 11.7277 8.26955 11.3777 8.00006 10.9542L5.36814 10.9647L5.00066 11.0452C4.27268 10.7337 3.42921 10.9507 2.65573 10.7512C1.70377 10.5027 1.1333 10.2052 0.632812 9.36524C1.36429 9.70473 2.23226 10.0372 3.04073 9.89723L2.91822 9.52274L2.42125 9.39324L3.5692 9.08876L3.5727 9.09925Z" fill="#682A6C"/>
<path d="M7.99219 10.9528C9.18565 10.8373 10.3301 10.8548 11.5271 10.9108L12.1255 11.4078C10.7606 11.4463 9.81912 11.5268 8.59766 12.2058C8.46116 11.7228 8.26168 11.3728 7.99219 10.9493V10.9528Z" fill="#671950"/>
<path d="M24.1344 11.4766C24.4914 12.292 24.4459 12.551 24.3304 13.4015L18.6641 13.0235C18.3281 12.7505 17.8346 12.5475 17.4531 12.334C19.6056 11.7916 21.9295 11.8266 24.1344 11.4766Z" fill="#622268"/>
<path d="M8.96094 12.7421C9.25493 12.6896 9.58041 12.6476 9.8079 12.4376L10.1894 12.0596C11.3724 11.1496 15.9992 12.2171 17.4552 12.3326C17.8366 12.5426 18.3301 12.7491 18.6661 13.0221C15.9467 13.0011 12.7723 12.6966 10.1299 13.351L8.96094 12.7421Z" fill="#5A3874"/>
<path d="M18.6627 13.0269L24.329 13.4049L25.155 13.8459C24.3395 14.3044 23.7375 14.8119 23.0761 15.4699L18.6172 15.1374L19.8527 14.9064L20.1956 14.3989L19.9821 13.7059C19.5692 13.3699 19.1562 13.2124 18.6627 13.0234V13.0269Z" fill="#266A83"/>
<path d="M28.0238 10.7482C29.4342 10.6187 30.8727 10.6152 32.2761 10.8077L32.3006 10.9897C31.5132 11.0597 30.6137 11.0667 29.8507 11.2486C29.2137 11.2311 27.8208 11.0142 27.3483 11.4901C26.6658 12.1796 26.0288 13.4886 25.1539 13.8421L24.3279 13.4011C24.4434 12.5506 24.4854 12.2916 24.1319 11.4761C23.2499 11.0492 22.431 11.1961 21.5 10.9302L28.0238 10.7447V10.7482Z" fill="#2C0E43"/>
<path d="M10.1285 13.3502C12.7709 12.6922 15.9453 12.9967 18.6647 13.0212C19.1617 13.2102 19.5712 13.3677 19.9842 13.7037L20.1976 14.3967L19.8547 14.9041L18.6192 15.1351C16.6733 14.7536 14.0414 15.0021 12.0359 15.1666L10.125 13.3572L10.1285 13.3502Z" fill="#5CC1BA"/>
<path d="M3.5692 9.09925C6.72609 8.46578 10.45 9.20425 13.6909 8.97676L27.6274 9.21475C29.0133 9.15525 30.6758 8.84726 32.0092 9.14475L32.0443 9.59274L32.3767 9.65224L32.0057 10.0232C32.6112 10.4292 34.3122 10.2892 35.0611 10.1422C35.2956 10.0967 35.5301 9.99872 35.7471 9.90072L35.9956 10.1492C35.0051 10.7827 33.4827 11.0977 32.3032 10.9857L32.2787 10.8037C30.8718 10.6077 29.4368 10.6112 28.0264 10.7442C26.5284 9.97072 22.997 10.4467 21.2436 10.4362C18.9477 10.4782 6.26061 10.2612 5.36814 10.9647L5.00066 11.0452C4.27268 10.7337 3.42921 10.9507 2.65573 10.7512C1.70377 10.5027 1.1333 10.2052 0.632812 9.36524C1.36429 9.70473 2.23224 10.0372 3.04071 9.89723L2.91822 9.52274L2.42125 9.39324L3.5692 9.08876V9.09925Z" fill="#E4A650"/>
<path d="M21.2378 10.4383C21.0103 10.1408 21.0382 10.0883 21.0312 9.70685L21.2622 10.0253L21.3917 9.80834C22.1022 9.75934 22.1582 9.76984 22.7602 10.1513L23.0122 9.90284L23.3867 10.0253C23.9991 10.1933 24.3246 10.1198 24.8636 9.76284C25.3081 9.46535 26.6486 9.62985 27.205 9.64384L32.0419 9.59135L32.3744 9.65085L32.0034 10.0218C32.6089 10.4278 34.3098 10.2878 35.0588 10.1408C35.2933 10.0953 35.5278 9.99733 35.7447 9.89933L35.9932 10.1478C35.0028 10.7813 33.4803 11.0963 32.3009 10.9843L32.2764 10.8023C30.8694 10.6063 29.4345 10.6098 28.024 10.7428C26.5261 9.96933 22.9947 10.4453 21.2412 10.4348L21.2378 10.4383Z" fill="#E38687"/>
<defs>
<linearGradient id="paint0_linear_20_1573" x1="15.3626" y1="9.45675" x2="13.2575" y2="3.4667" gradientUnits="userSpaceOnUse">
<stop stop-color="#B64C74"/>
<stop offset="1" stop-color="#E98587"/>
</linearGradient>
</defs>
</svg>
