<svg width="312" height="101" viewBox="0 0 312 101" fill="none" xmlns="http://www.w3.org/2000/svg">
<path d="M241.867 44.5859C251.177 45.6622 260.541 46.8103 269.546 49.5011C266.891 49.9585 265.752 49.5638 263.169 48.9719C262.147 48.7387 261.68 48.7835 260.702 49.1423L260.003 50.38L260.424 51.6537C255.321 48.3351 247.796 49.1154 242.334 46.6578L241.867 44.5859Z" fill="#2F4979"/>
<path d="M277.77 56.1003C281.393 56.0106 290.246 54.8356 293.08 56.7191C293.609 58.1004 293.771 58.208 293.322 59.679C289.887 61.706 281.824 60.5849 277.617 60.5759L277.761 56.1003H277.77Z" fill="#D64437"/>
<path d="M223.125 11.3302L242.454 10.9535C245.494 10.9355 248.445 10.4781 251.109 11.9939C251.71 13.698 251.656 13.6532 250.885 15.2946C248.678 16.7924 245.369 16.03 242.821 15.9045C238.157 15.6713 232.489 15.3215 227.888 15.9403L223.125 11.3212V11.3302Z" fill="#BC3743"/>
<path d="M152.045 15.8786C144.421 15.4481 136.6 15.8248 128.958 15.7979C126.33 15.7979 122.321 16.2823 119.962 15.206L119.469 13.5915L120.599 12.0219H142.349C146.331 12.0488 151.049 11.5017 154.646 13.4031L152.045 15.8607V15.8786Z" fill="#F05C45"/>
<path d="M142.948 27.9277L117.296 27.9905C114.982 27.9905 110.363 28.5645 108.453 27.3985L108.094 25.7572C108.453 25.4074 109.332 24.3221 109.735 24.1606C111.995 23.2727 117.054 23.8108 119.61 23.8019L145.594 23.7839C144.769 25.1831 143.997 26.69 142.957 27.9367L142.948 27.9277Z" fill="#F05C45"/>
<path d="M233.867 23.0327L270.937 22.9609L272.453 24.4678C272.085 26.2347 272.04 26.2616 270.614 27.3827L245.707 27.5621C243.177 27.5621 238.549 26.9522 236.28 27.8581L233.867 23.0327Z" fill="url(#paint0_linear_20_1451)"/>
<path d="M160.594 91.4465L179.438 92.0115C182.918 92.0115 186.667 92.3165 190.067 91.4465L189.492 100.335C178.729 100.398 169.204 97.976 160.594 91.4375V91.4465Z" fill="#7C418C"/>
<path d="M190.074 91.4581C195.366 91.4581 200.613 91.2698 205.887 90.7406C209.923 90.337 217.627 87.7718 221.152 89.0185C213.116 96.9383 201.169 100.472 190.029 100.356H189.5L190.074 91.4581Z" fill="#682A6C"/>
<path d="M239.728 37.0516L293.426 36.3879C297.74 36.4058 306.557 35.4192 310.208 37.2668C311.535 39.0966 311.607 39.0965 311.383 41.3388C310.916 41.7604 309.957 42.8726 309.427 43.1148C307.104 44.1821 300.745 43.4556 297.92 43.4825L254.482 43.6619C251.89 43.6619 243.827 42.6932 241.871 43.8861C240.912 41.7335 240.365 39.3297 239.719 37.0516H239.728Z" fill="#D64437"/>
<path d="M60.182 43.8724C60.2896 42.1234 60.8906 41.666 62.0835 40.4731C63.3571 39.1995 65.4649 37.603 67.2587 37.2352C69.0974 36.8496 71.6536 37.1814 73.582 37.1724L86.7846 37.1455L138.932 37.0469C138.555 39.2264 138.241 41.2355 138.286 43.4599L138.734 44.0967L138.124 45.6932L137.559 45.5586C129.774 44.5182 121.029 45.5317 113.163 45.6932L78.9635 45.8905C74.2278 45.9084 68.64 46.5722 63.976 45.8367C62.5319 45.6125 61.2852 44.7783 60.1641 43.8814L60.182 43.8724Z" fill="#EC603A"/>
<path d="M60.1784 43.875C61.2996 44.7719 62.5373 45.5971 63.9903 45.8303C68.6543 46.5658 74.2421 45.902 78.9778 45.8841L113.177 45.6868C121.043 45.5253 129.788 44.5118 137.574 45.5522L137.403 45.8213C135.708 47.5972 133.869 47.3192 131.483 47.7138C128.03 48.2789 117.205 50.1355 115.33 52.9518C115.572 54.351 115.734 55.1941 117.115 55.9655C117.662 56.2704 118.433 56.3781 119.052 56.4857L120.12 58.145C113.787 57.7952 107.778 57.2032 101.419 57.7145C101.069 58.2526 100.746 58.7011 100.531 59.311C99.8133 58.8536 99.6429 58.5307 99.311 57.7593C100.127 56.0014 101.06 54.6111 102.226 53.0774C103.329 51.9563 106.047 51.1132 107.545 50.4584L0.335938 49.4987L60.1784 43.884V43.875Z" fill="#FCDC91"/>
<path d="M107.546 50.4484C116.892 47.6949 127.682 46.0625 137.405 45.8203C135.709 47.5962 133.871 47.3182 131.485 47.7128C128.032 48.2779 117.206 50.1345 115.331 52.9508C115.574 54.35 115.735 55.1931 117.116 55.9645C117.663 56.2694 118.435 56.3771 119.054 56.4847L120.121 58.144C113.789 57.7942 107.779 57.2022 101.42 57.7135C101.07 58.2516 100.748 58.7001 100.532 59.31C99.8148 58.8526 99.6444 58.5297 99.3125 57.7583C100.129 56.0004 101.061 54.6101 102.227 53.0764C103.331 51.9553 106.048 51.1121 107.546 50.4574V50.4484Z" fill="#5CC1BA"/>
<path d="M154.651 13.4165C160.875 7.84662 170.167 3.75667 178.275 2.10634C194.572 -1.21226 209.416 2.11531 223.121 11.3356L227.884 15.9548L233.867 23.0404L236.279 27.8659L239.723 37.0593C240.369 39.3285 240.916 41.7322 241.876 43.8938L241.858 44.5934L241.051 46.181L240.862 46.5846C231.615 46.0554 220.951 46.0375 211.937 44.2346L213.542 43.8131C214.08 41.6336 212.852 38.3239 212.314 36.1355C209.497 24.6908 205.874 13.8201 200.115 3.49656C188.787 2.31263 178.598 2.63552 167.943 7.04836C165.414 8.09776 163.01 9.45211 160.687 10.8961C148.426 18.52 141.986 30.3683 138.748 44.1001L138.3 43.4633C138.264 41.2479 138.569 39.2298 138.946 37.0503L142.955 27.9286C143.995 26.6819 144.767 25.1751 145.592 23.7759C147.377 20.9147 149.834 18.4034 152.058 15.8741L154.66 13.4165H154.651Z" fill="#91284E"/>
<path d="M138.736 44.0935C141.974 30.3706 148.414 18.5133 160.675 10.8895C162.998 9.44546 165.401 8.09111 167.931 7.04172C178.586 2.6199 188.775 2.30598 200.103 3.48992C205.87 13.8045 209.485 24.6841 212.301 36.1288C212.84 38.3173 214.068 41.6269 213.53 43.8064L211.925 44.228C196.623 43.6091 181.268 43.1876 165.976 44.3356C156.926 45.0173 147.858 46.856 138.817 47.2147C138.584 46.7125 138.297 46.2102 138.117 45.69L138.727 44.0935H138.736Z" fill="#ED8956"/>
<path d="M179.178 6.94997C181.33 6.91409 182.478 6.51945 184.227 7.83792L184.29 10.3941C182.326 13.1567 175.626 14.5558 172.415 16.1255C161.751 21.3635 156.647 28.8348 152.817 39.8221C152.046 40.7549 151.14 40.9253 150.028 41.2571L148.593 40.0373C147.516 36.0909 150.405 30.0815 152.315 26.6104C158.055 16.1703 168.011 10.134 179.187 6.93203L179.178 6.94997Z" fill="#FEFCF4"/>
<path d="M260.42 51.6541L259.999 50.3804L260.699 49.1427C261.685 48.7839 262.143 48.7391 263.165 48.9723C265.739 49.5642 266.887 49.9499 269.542 49.5014C272.403 50.5508 275.83 51.4926 277.175 54.5063L277.767 56.1117L277.623 60.5874C273.605 66.2738 263.219 67.9511 256.689 69.0812C254.922 69.3862 253.12 69.6552 251.317 69.6732C250.223 73.8797 249.191 78.176 245.2 80.5438C240.177 83.5306 230.338 84.3647 224.553 84.4903C223.647 85.737 222.319 88.1228 221.153 89.0197C217.628 87.764 209.924 90.3292 205.888 90.7418C200.623 91.271 195.367 91.4683 190.075 91.4593C186.685 92.3293 182.936 92.0244 179.447 92.0244L160.602 91.4593C157.903 89.217 155.804 86.8312 153.615 84.1136C151.337 83.396 148.512 83.3871 146.126 82.9565C138.547 81.5843 132.233 78.6334 127.38 72.4895L126.161 71.0275L119.281 69.5566L154.719 71.5836C159.212 70.8392 164.504 71.5657 169.105 71.6285L183.716 71.2248C190.586 71.2069 197.609 71.5926 204.417 70.5611L205.323 68.274L206.058 67.8614C213.799 67.5026 243.244 66.2559 248.07 63.0988L248.258 60.6322L246.42 59.9326C244.285 58.3092 239.468 59.7443 236.715 59.834L236.204 58.9101C243.576 57.4661 254.33 56.9728 260.681 52.9546L260.429 51.6541H260.42Z" fill="#872A65"/>
<path d="M224.554 84.4844C223.648 85.7311 222.32 88.1169 221.154 89.0138C217.629 87.7581 209.925 90.3233 205.889 90.7359C200.624 91.2651 195.368 91.4624 190.076 91.4534L190.031 85.1302L224.554 84.4844Z" fill="#913669"/>
<path d="M153.609 84.1094L190.024 85.1319L190.069 91.4551C186.679 92.3252 182.93 92.0202 179.441 92.0202L160.596 91.4551C157.897 89.2128 155.798 86.827 153.609 84.1094Z" fill="#C36AAE"/>
<path d="M126.157 71.0168L190.063 74.1829V83.0893C177.291 83.0355 164.303 83.4481 151.612 81.8695C147.163 81.3134 142.149 80.8111 137.916 79.3043C133.853 77.8603 131.198 73.9138 127.368 72.4698L126.148 71.0078L126.157 71.0168Z" fill="#C36AAE"/>
<path d="M260.422 51.6541L260 50.3804L260.7 49.1427C261.687 48.7839 262.144 48.7391 263.166 48.9723C265.741 49.5642 266.889 49.9499 269.544 49.5014C272.405 50.5508 275.831 51.4926 277.176 54.5063L277.768 56.1117L277.625 60.5874C273.607 66.2738 263.22 67.9511 256.691 69.0812C254.924 69.3862 253.121 69.6552 251.318 69.6732C241.335 69.0633 230.859 70.9019 220.85 71.4491L174.057 72.3101C167.77 72.2653 160.855 72.7944 154.711 71.5836C159.205 70.8392 164.496 71.5657 169.098 71.6285L183.708 71.2248C190.579 71.2069 197.602 71.5926 204.409 70.5611L205.315 68.274L206.051 67.8614C213.791 67.5026 243.237 66.2559 248.062 63.0988L248.251 60.6322L246.412 59.9326C244.277 58.3092 239.461 59.7443 236.707 59.834L236.196 58.9101C243.569 57.4661 254.323 56.9728 260.673 52.9546L260.422 51.6541Z" fill="url(#paint1_linear_20_1451)"/>
<path d="M138.142 45.6919C138.322 46.2121 138.609 46.7144 138.842 47.2167C147.874 46.8579 156.951 45.0192 166 44.3376C181.293 43.1806 196.648 43.6021 211.95 44.2299C220.964 46.0328 231.628 46.0597 240.875 46.5799L241.064 46.1763L241.871 44.5887L242.337 46.6606C247.799 49.1182 255.325 48.3378 260.428 51.6564L260.679 52.957C254.329 56.9752 243.575 57.4685 236.202 58.9125L236.714 59.8364C239.467 59.7467 244.284 58.3026 246.418 59.935L248.257 60.6346L248.069 63.1011C243.243 66.2583 213.797 67.514 206.057 67.8638L205.321 68.2764L204.416 70.5635C197.608 71.595 190.585 71.2093 183.715 71.2272L169.104 71.6308C164.503 71.5681 159.211 70.8415 154.717 71.586L119.28 69.559L119.199 69.5769C114.176 69.0477 103.521 67.3525 99.9782 63.4868C98.1036 61.4329 97.9601 59.7556 97.987 57.1187C99.0813 55.0827 100.328 54.2755 102.238 53.0826C101.072 54.6163 100.14 56.0065 99.3235 57.7645C99.6553 58.5448 99.8257 58.8677 100.543 59.3161C100.759 58.7062 101.081 58.2578 101.431 57.7196C107.79 57.2084 113.791 57.8003 120.132 58.1501L119.065 56.4908C118.446 56.3832 117.674 56.2846 117.127 55.9706C115.746 55.1903 115.585 54.3562 115.342 52.957C117.217 50.1407 128.043 48.284 131.496 47.719C133.891 47.3243 135.72 47.6024 137.416 45.8265L137.586 45.5574L138.151 45.6919H138.142Z" fill="#231749"/>
<path d="M178.743 47.5063C180.061 47.004 181.882 47.2283 183.29 47.2372C184.061 47.614 184.904 48.0265 185.451 48.7082C186.644 50.224 187.183 51.964 186.815 53.9103C186.429 56.0001 185.021 56.7087 183.442 57.7491C181.299 57.8837 179.72 58.09 177.855 56.7087C176.276 55.5427 175.801 54.1704 175.469 52.3048C176.159 49.9639 176.76 48.9593 178.743 47.5063Z" fill="#7DF2EB"/>
<path d="M198.843 46.875C199.911 46.8929 201.113 46.8929 202.117 47.3235C203.427 47.8795 204.575 49.0814 205.041 50.4358C205.579 51.9695 205.579 54.1042 204.7 55.5213C203.534 57.4048 202.503 57.5573 200.566 58.1313L199.121 57.9789C197.507 57.7187 196.153 56.9025 195.256 55.5123C194.045 53.6467 194.17 52.5256 194.529 50.3999C195.857 48.5343 196.619 47.6643 198.852 46.884L198.843 46.875Z" fill="#7DF2EB"/>
<path d="M119.047 56.4777L193.043 61.8054C196.729 61.9758 203.25 61.348 206.21 63.2136C206.918 63.662 207.609 63.5813 208.407 63.4737L205.77 63.9132L157.695 62.9983L139.317 61.0789C133.299 59.4017 126.33 59.0429 120.114 58.128L119.047 56.4688V56.4777Z" fill="#629F9B"/>
<path d="M219.102 60.3156L236.198 58.8984L236.709 59.8223C239.462 59.7326 244.279 58.2885 246.414 59.9209L248.252 60.6205L248.064 63.087C243.238 66.2442 213.793 67.4999 206.052 67.8497L205.774 63.9212L208.411 63.4817C207.613 63.5893 206.922 63.6701 206.214 63.2216C203.254 61.347 196.733 61.9838 193.047 61.8134C197.944 60.9614 203.532 61.3022 208.528 61.1676C211.855 60.468 215.694 60.5577 219.111 60.3245L219.102 60.3156Z" fill="#5CC1BA"/>
<path d="M219.102 60.3156L236.197 58.8984L236.708 59.8223C239.462 59.7326 244.278 58.2885 246.413 59.9209L226.734 62.1004C225.532 61.948 223.81 61.948 222.797 61.2753C221.783 60.6026 220.303 60.5219 219.111 60.3156H219.102Z" fill="#2E637C"/>
<path d="M208.52 61.1556C211.847 60.456 215.686 60.5457 219.104 60.3125C220.296 60.5188 221.785 60.5995 222.79 61.2722C223.803 61.9449 225.517 61.9449 226.727 62.0974L219.032 62.6266L208.403 63.4697C207.605 63.5773 206.914 63.658 206.206 63.2096C203.246 61.335 196.725 61.9718 193.039 61.8014C197.936 60.9493 203.524 61.2901 208.52 61.1556Z" fill="#388C96"/>
<path d="M208.516 61.1556C211.843 60.456 215.682 60.5457 219.099 60.3125C220.292 60.5188 221.781 60.5995 222.786 61.2722C223.799 61.9449 225.512 61.9449 226.723 62.0974L219.028 62.6266L208.525 61.1466L208.516 61.1556Z" fill="#3E7E8E"/>
<path d="M119.28 69.5467L119.199 69.5647C114.176 69.0355 103.521 67.3403 99.9782 63.4746C98.1036 61.4206 97.9601 59.7434 97.987 57.1065C99.0813 55.0704 100.328 54.2632 102.238 53.0703C101.072 54.604 100.14 55.9943 99.3235 57.7522C99.6553 58.5326 99.8257 58.8555 100.543 59.3039C100.759 58.694 101.081 58.2455 101.431 57.7074C107.79 57.1961 113.791 57.7881 120.132 58.1379C126.348 59.0528 133.308 59.4115 139.335 61.0888L157.713 63.0082L205.788 63.923L206.066 67.8516L205.33 68.2641L204.424 70.5513C197.617 71.5827 190.594 71.1971 183.724 71.215L169.113 71.6186C164.512 71.5558 159.22 70.8293 154.726 71.5738L119.289 69.5467H119.28Z" fill="#32A1B4"/>
<path d="M157.686 63.0078L205.76 63.9227L206.039 67.8512L205.303 68.2638C201.366 68.3086 194.011 69.3401 190.468 68.0844L189.804 67.8243C187.741 69.2773 159.614 68.5687 155.641 67.905L157.587 67.0529L157.677 63.0078H157.686Z" fill="#7FE3CE"/>
<path d="M100.523 59.3038C100.739 58.6939 101.062 58.2455 101.411 57.7073C107.771 57.1961 113.771 57.788 120.112 58.1378C126.328 59.0527 133.288 59.4115 139.315 61.0887L157.693 63.0081L157.603 67.0532L155.657 67.9053L118.282 64.3176L118.139 64.3356C113.026 64.1293 104.604 62.452 100.532 59.3038H100.523Z" fill="#92F2C5"/>
<path d="M100.523 59.3038C100.739 58.6939 101.062 58.2455 101.411 57.7073C107.771 57.1961 113.771 57.788 120.112 58.1378C126.328 59.0527 133.288 59.4115 139.315 61.0887L139.01 61.1246C138.185 61.2053 137.441 61.2143 136.607 61.1605C134.095 60.99 131.44 61.6897 128.92 61.869C125.745 62.1022 122.659 61.7435 119.628 62.9095L118.282 64.3176L118.139 64.3356C113.026 64.1293 104.604 62.452 100.532 59.3038H100.523Z" fill="#7FE3CE"/>
<defs>
<linearGradient id="paint0_linear_20_1451" x1="235.405" y1="25.0418" x2="270.492" y2="23.419" gradientUnits="userSpaceOnUse">
<stop stop-color="#D13B34"/>
<stop offset="1" stop-color="#B31F3F"/>
</linearGradient>
<linearGradient id="paint1_linear_20_1451" x1="222.858" y1="38.4196" x2="214.48" y2="71.3141" gradientUnits="userSpaceOnUse">
<stop stop-color="#256581"/>
<stop offset="1" stop-color="#207C8A"/>
</linearGradient>
</defs>
</svg>
