<svg width="1300" height="517" viewBox="0 0 1300 517" fill="none" xmlns="http://www.w3.org/2000/svg">
<path d="M504.5 517C647.266 517 763 401.266 763 258.5C763 115.734 647.266 0 504.5 0C361.734 0 246 115.734 246 258.5C246 401.266 361.734 517 504.5 517Z" fill="url(#paint0_linear_0_1)"/>
<path d="M1301.76 85.8047V294.509L1005.08 328.081L925.477 337.086L916.741 338.081L910.526 338.781L898.453 337.516L891.699 336.817L884.398 336.045L876.757 335.247L875.842 335.157L868.361 334.377L867.787 334.314L860.406 333.543L859.616 333.462L854.881 332.96L846.728 332.108L837.032 331.094L820.367 329.354L820.816 321.542L821.928 302.079V302.016C826.35 300.464 840.656 262.121 884.721 240.398C887.412 239.061 890.219 237.797 893.143 236.604C895.26 235.743 897.368 234.9 899.475 234.101C899.655 234.021 899.834 233.949 900.023 233.886C900.92 233.536 901.807 233.195 902.704 232.873C902.74 232.855 902.785 232.837 902.821 232.828C903.485 232.577 904.148 232.334 904.812 232.092C906.92 231.321 909.028 230.576 911.126 229.868C959.201 213.562 1004.73 212.656 1070.31 232.675C1081.16 205.83 1097.69 162.787 1160.02 140.831C1212.71 122.273 1263.1 146.374 1263.1 146.374C1263.1 146.374 1274.94 100.2 1301.76 85.8047Z" fill="#F3BF6C"/>
<path d="M1301.76 204.031V305.554L1005.07 328.084L978.516 330.102L984.05 315.805C984.05 315.805 984.435 314.307 985.467 311.76C989.871 300.818 1006.06 270.439 1054.05 254.878C1115.8 234.858 1145.26 256.689 1145.26 256.689C1145.26 256.689 1158.46 208.901 1222.57 192.416C1258.9 183.079 1287.27 192.138 1301.76 204.031Z" fill="#FCDC91"/>
<path d="M259 325.783L258.811 386.339C256.158 386.186 245.06 386.546 242.596 387.517C237.938 389.109 232.668 389.828 227.811 390.682L219.762 392.445C219.456 387.661 220.077 382.778 219.421 378.03L217.649 377.373C215.275 376.348 213.053 375.683 210.526 375.152L189.976 369.847L188.277 370.647C187.845 373.48 187.944 376.393 187.935 379.253L160.056 383.398C155.721 384.064 150.325 384.334 146.224 385.755L133.031 386.51L111.807 381.681L107.184 381.024L106.474 381.762L104.702 381.159C103.875 379.694 96.8598 378.21 91.6707 376.951V377.796L72.7848 381.834L70.6893 382.535L70.1677 411.087L70.1048 418.685L57.2444 416.239L56.9746 415.079L55.4277 416.212L55.2748 419.89L54.6903 418.326C34.3564 417.04 15.2187 417.885 -4 424V128.009C19.3646 127.721 39.2128 134.241 56.1292 150.886C67.9464 162.514 78.0818 180.966 78.8373 197.675C95.5558 185.876 113.587 182.675 133.508 186.128C135.036 186.389 136.475 186.65 137.932 187.189C154.867 194.114 170.92 208.924 177.961 225.992C180.264 231.577 182.287 238.429 182.719 244.499C182.926 247.404 182.17 251.576 183.07 254.247C200.337 250.938 214.897 253.078 229.655 263.024C235.797 267.16 241.436 272.169 245.888 278.113L248.613 281.243L258.865 280.964L259 325.783Z" fill="#FCDC91"/>
<defs>
<linearGradient id="paint0_linear_0_1" x1="498.815" y1="32.8483" x2="504.473" y2="257.182" gradientUnits="userSpaceOnUse">
<stop stop-color="#FFB568"/>
<stop offset="1" stop-color="#F6FFED"/>
</linearGradient>
</defs>
</svg>
