<svg width="249" height="111" viewBox="0 0 249 111" fill="none" xmlns="http://www.w3.org/2000/svg">
<path d="M77.9957 48.6098L64.5291 14.7899C64.403 14.487 64.2769 14.1589 64.1256 13.8561C60.6959 6.13301 53.7356 1.06003 45.464 0.151432C44.5561 0.0504775 43.6482 0 42.7152 0C32.9304 0 24.5327 5.67872 20.9264 14.7899L0.0708086 67.2108H13.2853L32.3252 19.3329C34.0905 14.8909 37.9489 12.266 42.7404 12.266C47.5319 12.266 51.0625 14.6889 52.9034 18.8029C52.9791 18.9795 53.0547 19.1562 53.1304 19.3329L66.6979 53.4052C66.6979 53.4052 66.6979 53.4557 66.7231 53.4557C70.1528 61.204 77.1131 66.2769 85.3847 67.1855L77.9705 48.5846L77.9957 48.6098Z" fill="#242424"/>
<path d="M117.814 12.4188V0.152813H190.494V12.4188H160.282V67.3636H148.026V12.4188H117.814Z" fill="#242424"/>
<path d="M246.68 0.152813H178.161V12.4188H246.68V0.152813Z" fill="#242424"/>
<path d="M198.008 27.6098H246.68V39.8758H198.008C193.872 39.8758 190.468 43.2578 190.417 47.397V67.3356H178.161V47.4727C178.161 39.0682 183.507 31.5471 191.401 28.7456C193.519 27.9884 195.764 27.6098 198.008 27.6098Z" fill="#242424"/>
<path d="M49.1204 38.287H35.9816C33.4346 38.287 31.3919 40.3566 31.3919 42.8804C31.3919 45.4295 33.4598 47.4739 35.9816 47.4739H49.1204C51.6675 47.4739 53.7102 45.4043 53.7102 42.8804C53.7102 40.3313 51.6423 38.287 49.1204 38.287Z" fill="#242424"/>
<path d="M7.60588 110.672V91.3138H0V87.7046H19.4737V91.3138H11.8678V110.672H7.60588Z" fill="#242424"/>
<path d="M27.5897 97.2525H38.9986V100.763H27.5897V97.2525ZM27.9176 107.096H40.8672V110.672H23.6557V87.7046H40.4083V91.281H27.9176V107.096Z" fill="#242424"/>
<path d="M57.2239 111C55.4754 111 53.8471 110.716 52.3391 110.147C50.8529 109.556 49.5524 108.736 48.4378 107.686C47.345 106.614 46.4926 105.357 45.8806 103.913C45.2687 102.469 44.9627 100.894 44.9627 99.1883C44.9627 97.4821 45.2687 95.9072 45.8806 94.4636C46.4926 93.0199 47.3559 91.7731 48.4706 90.7232C49.5852 89.6514 50.8856 88.8311 52.3719 88.2624C53.8581 87.6718 55.4863 87.3765 57.2567 87.3765C59.1363 87.3765 60.852 87.7046 62.4037 88.3609C63.9555 88.9952 65.2669 89.9467 66.3378 91.2153L63.584 93.8074C62.7534 92.9106 61.8246 92.2434 60.7973 91.8059C59.7701 91.3466 58.6554 91.1169 57.4534 91.1169C56.2513 91.1169 55.1476 91.3138 54.1422 91.7075C53.1587 92.1012 52.2954 92.659 51.5523 93.3808C50.831 94.1027 50.2628 94.9557 49.8475 95.94C49.4541 96.9244 49.2574 98.0071 49.2574 99.1883C49.2574 100.369 49.4541 101.452 49.8475 102.437C50.2628 103.421 50.831 104.274 51.5523 104.996C52.2954 105.718 53.1587 106.275 54.1422 106.669C55.1476 107.063 56.2513 107.26 57.4534 107.26C58.6554 107.26 59.7701 107.041 60.7973 106.603C61.8246 106.144 62.7534 105.455 63.584 104.536L66.3378 107.161C65.2669 108.408 63.9555 109.359 62.4037 110.016C60.852 110.672 59.1253 111 57.2239 111Z" fill="#242424"/>
<path d="M87.5347 87.7046H91.7966V110.672H87.5347V87.7046ZM75.6669 110.672H71.405V87.7046H75.6669V110.672ZM87.8625 100.829H75.3063V97.1868H87.8625V100.829Z" fill="#242424"/>
<path d="M98.9294 110.672V87.7046H102.437L116.829 105.389H115.092V87.7046H119.321V110.672H115.813L101.421 92.9871H103.159V110.672H98.9294Z" fill="#242424"/>
<path d="M137.207 111C135.415 111 133.765 110.705 132.257 110.114C130.749 109.524 129.437 108.703 128.323 107.653C127.208 106.582 126.345 105.335 125.733 103.913C125.121 102.469 124.815 100.894 124.815 99.1883C124.815 97.4821 125.121 95.9182 125.733 94.4964C126.345 93.0527 127.208 91.8059 128.323 90.756C129.437 89.6842 130.749 88.853 132.257 88.2624C133.765 87.6718 135.404 87.3765 137.174 87.3765C138.966 87.3765 140.606 87.6718 142.092 88.2624C143.6 88.853 144.911 89.6842 146.026 90.756C147.141 91.8059 148.004 93.0527 148.616 94.4964C149.228 95.9182 149.534 97.4821 149.534 99.1883C149.534 100.894 149.228 102.469 148.616 103.913C148.004 105.357 147.141 106.603 146.026 107.653C144.911 108.703 143.6 109.524 142.092 110.114C140.606 110.705 138.977 111 137.207 111ZM137.174 107.26C138.333 107.26 139.404 107.063 140.387 106.669C141.371 106.275 142.223 105.718 142.944 104.996C143.665 104.252 144.223 103.399 144.616 102.437C145.031 101.452 145.239 100.369 145.239 99.1883C145.239 98.0071 145.031 96.9353 144.616 95.9729C144.223 94.9885 143.665 94.1355 142.944 93.4136C142.223 92.6699 141.371 92.1012 140.387 91.7075C139.404 91.3138 138.333 91.1169 137.174 91.1169C136.016 91.1169 134.945 91.3138 133.961 91.7075C133 92.1012 132.147 92.6699 131.404 93.4136C130.683 94.1355 130.115 94.9885 129.699 95.9729C129.306 96.9353 129.109 98.0071 129.109 99.1883C129.109 100.348 129.306 101.419 129.699 102.404C130.115 103.388 130.683 104.252 131.404 104.996C132.125 105.718 132.978 106.275 133.961 106.669C134.945 107.063 136.016 107.26 137.174 107.26Z" fill="#242424"/>
<path d="M155.035 110.672V87.7046H159.297V107.063H171.296V110.672H155.035Z" fill="#242424"/>
<path d="M185.981 111C184.189 111 182.538 110.705 181.03 110.114C179.522 109.524 178.211 108.703 177.096 107.653C175.982 106.582 175.118 105.335 174.506 103.913C173.894 102.469 173.588 100.894 173.588 99.1883C173.588 97.4821 173.894 95.9182 174.506 94.4964C175.118 93.0527 175.982 91.8059 177.096 90.756C178.211 89.6842 179.522 88.853 181.03 88.2624C182.538 87.6718 184.178 87.3765 185.948 87.3765C187.74 87.3765 189.379 87.6718 190.866 88.2624C192.374 88.853 193.685 89.6842 194.8 90.756C195.914 91.8059 196.778 93.0527 197.39 94.4964C198.002 95.9182 198.308 97.4821 198.308 99.1883C198.308 100.894 198.002 102.469 197.39 103.913C196.778 105.357 195.914 106.603 194.8 107.653C193.685 108.703 192.374 109.524 190.866 110.114C189.379 110.705 187.751 111 185.981 111ZM185.948 107.26C187.106 107.26 188.177 107.063 189.161 106.669C190.144 106.275 190.997 105.718 191.718 104.996C192.439 104.252 192.997 103.399 193.39 102.437C193.805 101.452 194.013 100.369 194.013 99.1883C194.013 98.0071 193.805 96.9353 193.39 95.9729C192.997 94.9885 192.439 94.1355 191.718 93.4136C190.997 92.6699 190.144 92.1012 189.161 91.7075C188.177 91.3138 187.106 91.1169 185.948 91.1169C184.79 91.1169 183.719 91.3138 182.735 91.7075C181.774 92.1012 180.921 92.6699 180.178 93.4136C179.457 94.1355 178.889 94.9885 178.473 95.9729C178.08 96.9353 177.883 98.0071 177.883 99.1883C177.883 100.348 178.08 101.419 178.473 102.404C178.889 103.388 179.457 104.252 180.178 104.996C180.899 105.718 181.752 106.275 182.735 106.669C183.719 107.063 184.79 107.26 185.948 107.26Z" fill="#242424"/>
<path d="M214.529 111C212.737 111 211.087 110.716 209.579 110.147C208.092 109.556 206.792 108.736 205.677 107.686C204.563 106.614 203.699 105.357 203.087 103.913C202.475 102.469 202.169 100.894 202.169 99.1883C202.169 97.4821 202.475 95.9072 203.087 94.4636C203.699 93.0199 204.563 91.7731 205.677 90.7232C206.814 89.6514 208.136 88.8311 209.644 88.2624C211.152 87.6718 212.802 87.3765 214.595 87.3765C216.54 87.3765 218.288 87.6937 219.84 88.328C221.414 88.9624 222.736 89.892 223.807 91.1169L221.119 93.7417C220.222 92.8449 219.25 92.1887 218.201 91.7731C217.174 91.3357 216.037 91.1169 214.791 91.1169C213.589 91.1169 212.475 91.3138 211.447 91.7075C210.42 92.1012 209.535 92.659 208.792 93.3808C208.049 94.1027 207.469 94.9557 207.054 95.94C206.661 96.9244 206.464 98.0071 206.464 99.1883C206.464 100.348 206.661 101.419 207.054 102.404C207.469 103.388 208.049 104.252 208.792 104.996C209.535 105.718 210.409 106.275 211.414 106.669C212.42 107.063 213.535 107.26 214.758 107.26C215.895 107.26 216.988 107.085 218.037 106.735C219.108 106.363 220.124 105.75 221.086 104.897L223.512 108.08C222.31 109.042 220.911 109.775 219.315 110.278C217.742 110.759 216.146 111 214.529 111ZM219.479 107.522V98.9258H223.512V108.08L219.479 107.522Z" fill="#242424"/>
<path d="M235.755 110.672V101.583L236.706 104.208L226.74 87.7046H231.297L239.296 100.993H236.739L244.804 87.7046H249L239.034 104.208L240.017 101.583V110.672H235.755Z" fill="#242424"/>
<path d="M117.589 0.152813L98.5235 48.0307C96.7582 52.4727 92.8998 55.0976 88.1335 55.0976C83.3673 55.0976 79.8367 52.6985 77.9957 48.6098C77.8949 48.4079 77.8192 48.2326 77.7436 48.0307L64.1508 13.8575C60.6959 6.1344 53.7356 1.06003 45.464 0.151432L52.9034 18.8029L66.3448 52.5737C66.4457 52.8513 66.5718 53.1276 66.6979 53.4052C66.6979 53.4052 66.6979 53.4557 66.7231 53.4557C70.1528 61.204 77.1131 66.2769 85.3847 67.1855C86.2926 67.2865 87.2005 67.3384 88.1335 67.3384C97.9183 67.3384 106.316 61.6596 109.922 52.5484L130.803 0.152813H117.589Z" fill="#242424"/>
</svg>
