<svg width="200" height="120" viewBox="0 0 200 120" fill="none" xmlns="http://www.w3.org/2000/svg">
<path d="M56.5566 43.5458C56.5566 45.9961 56.8215 47.9829 57.285 49.4399C57.8148 50.8968 58.4771 52.4862 59.4043 54.2081C59.7354 54.7379 59.8678 55.2677 59.8678 55.7312C59.8678 56.3935 59.4705 57.0557 58.6096 57.718L54.4374 60.4995C53.8413 60.8968 53.2453 61.0955 52.7155 61.0955C52.0533 61.0955 51.391 60.7644 50.7288 60.1683C49.8016 59.175 49.0069 58.1153 48.3447 57.0557C47.6824 55.9299 47.0201 54.6716 46.2917 53.1485C41.1261 59.2412 34.636 62.2875 26.8215 62.2875C21.2586 62.2875 16.8215 60.6981 13.5764 57.5193C10.3314 54.3405 8.67578 50.1021 8.67578 44.8041C8.67578 39.175 10.6625 34.6054 14.7023 31.1617C18.742 27.718 24.1062 25.9961 30.9274 25.9961C33.1791 25.9961 35.497 26.1948 37.9473 26.5259C40.3976 26.8571 42.9142 27.3869 45.5632 27.9829V23.1485C45.5632 18.1154 44.5036 14.6054 42.4506 12.5524C40.3314 10.4995 36.7552 9.50608 31.6559 9.50608C29.338 9.50608 26.9539 9.77098 24.5036 10.367C22.0533 10.963 19.6692 11.6915 17.3513 12.6187C16.2917 13.0822 15.497 13.3471 15.0334 13.4796C14.5698 13.612 14.2387 13.6783 13.9738 13.6783C13.0466 13.6783 12.5831 13.016 12.5831 11.6253V8.38025C12.5831 7.32065 12.7155 6.52595 13.0466 6.06237C13.3778 5.59879 13.9738 5.13522 14.9009 4.67164C17.2188 3.47959 20.0003 2.48621 23.2453 1.69151C26.4903 0.830583 29.9341 0.433232 33.5764 0.433232C41.4572 0.433232 47.2188 2.22131 50.9274 5.79747C54.5698 9.37363 56.4241 14.8041 56.4241 22.0889V43.5458H56.5566ZM29.6692 53.612C31.8546 53.612 34.1062 53.2147 36.4903 52.42C38.8745 51.6253 40.9937 50.1683 42.7817 48.1816C43.8413 46.9233 44.636 45.5326 45.0334 43.9432C45.4307 42.3538 45.6956 40.4332 45.6956 38.1816V35.4001C43.7751 34.9365 41.7221 34.5392 39.6029 34.2743C37.4837 34.0094 35.4307 33.8769 33.3778 33.8769C28.9407 33.8769 25.6956 34.7379 23.5102 36.5259C21.3248 38.314 20.2652 40.8306 20.2652 44.1418C20.2652 47.2544 21.0599 49.5723 22.7155 51.1617C24.3049 52.8173 26.6228 53.612 29.6692 53.612ZM82.848 60.7644C81.6559 60.7644 80.8612 60.5657 80.3314 60.1021C79.8016 59.7048 79.338 58.7776 78.9407 57.5193L63.3778 6.32727C62.9804 5.00277 62.7817 4.14184 62.7817 3.67826C62.7817 2.61866 63.3115 2.02264 64.3711 2.02264H70.8612C72.1195 2.02264 72.9804 2.22131 73.444 2.68489C73.9738 3.08224 74.3711 4.00939 74.7685 5.26767L85.8943 49.1087L96.2254 5.26767C96.5566 3.94317 96.9539 3.08224 97.4837 2.68489C98.0135 2.28754 98.9407 2.02264 100.133 2.02264H105.431C106.689 2.02264 107.55 2.22131 108.08 2.68489C108.61 3.08224 109.073 4.00939 109.338 5.26767L119.802 49.6385L131.259 5.26767C131.656 3.94317 132.119 3.08224 132.583 2.68489C133.113 2.28754 133.974 2.02264 135.166 2.02264H141.325C142.384 2.02264 142.98 2.55244 142.98 3.67826C142.98 4.00939 142.914 4.34052 142.848 4.73787C142.782 5.13522 142.649 5.66502 142.384 6.3935L126.424 57.5855C126.027 58.91 125.563 59.771 125.033 60.1683C124.504 60.5657 123.643 60.8306 122.517 60.8306H116.821C115.563 60.8306 114.702 60.6319 114.172 60.1683C113.643 59.7048 113.179 58.8438 112.914 57.5193L102.649 14.8041L92.4506 57.4531C92.1195 58.7776 91.7221 59.6385 91.1923 60.1021C90.6625 60.5657 89.7354 60.7644 88.5433 60.7644H82.848ZM167.947 62.5524C164.504 62.5524 161.06 62.1551 157.749 61.3604C154.437 60.5657 151.855 59.7048 150.133 58.7114C149.073 58.1154 148.345 57.4531 148.08 56.8571C147.815 56.261 147.682 55.5988 147.682 55.0028V51.6253C147.682 50.2346 148.212 49.5723 149.206 49.5723C149.603 49.5723 150 49.6385 150.398 49.771C150.795 49.9034 151.391 50.1683 152.053 50.4332C154.305 51.4266 156.755 52.2213 159.338 52.7511C161.987 53.2809 164.57 53.5458 167.219 53.5458C171.391 53.5458 174.636 52.8173 176.888 51.3604C179.139 49.9034 180.331 47.7842 180.331 45.069C180.331 43.2147 179.735 41.6915 178.543 40.4332C177.351 39.175 175.1 38.0491 171.855 36.9895L162.252 34.0094C157.417 32.4862 153.841 30.2346 151.656 27.2544C149.47 24.3405 148.345 21.0955 148.345 17.6518C148.345 14.8703 148.941 12.42 150.133 10.3008C151.325 8.18158 152.914 6.32727 154.901 4.87032C156.888 3.34714 159.139 2.22131 161.788 1.42661C164.437 0.631907 167.219 0.300781 170.133 0.300781C171.59 0.300781 173.113 0.367006 174.57 0.565682C176.093 0.764357 177.484 1.02926 178.874 1.29416C180.199 1.62528 181.457 1.95641 182.649 2.35376C183.841 2.75111 184.768 3.14846 185.431 3.54581C186.358 4.07562 187.02 4.60542 187.417 5.20144C187.815 5.73125 188.014 6.45972 188.014 7.38687V10.4995C188.014 11.8902 187.484 12.6187 186.49 12.6187C185.961 12.6187 185.1 12.3538 183.974 11.824C180.199 10.1021 175.961 9.24118 171.259 9.24118C167.484 9.24118 164.504 9.8372 162.451 11.0955C160.398 12.3538 159.338 14.2743 159.338 16.9895C159.338 18.8438 160 20.4332 161.325 21.6915C162.649 22.9498 165.1 24.2081 168.61 25.3339L178.014 28.314C182.782 29.8372 186.225 31.9564 188.278 34.6716C190.331 37.3869 191.325 40.4995 191.325 43.9432C191.325 46.7909 190.729 49.3736 189.603 51.6253C188.411 53.8769 186.821 55.8637 184.768 57.4531C182.716 59.1087 180.265 60.3008 177.417 61.1617C174.437 62.0889 171.325 62.5524 167.947 62.5524Z" fill="#252F3E"/>
<path d="M180.463 94.737C158.675 110.83 127.019 119.373 99.8004 119.373C61.6547 119.373 27.2838 105.267 1.32354 81.8231C-0.729443 79.9688 1.12486 77.4522 3.57519 78.9092C31.6547 95.2006 66.2904 105.068 102.118 105.068C126.29 105.068 152.847 100.035 177.284 89.7039C180.926 88.0483 184.039 92.088 180.463 94.737ZM189.535 84.4059C186.754 80.8297 171.125 82.684 164.039 83.545C161.92 83.8099 161.588 81.9556 163.509 80.5648C175.959 71.8231 196.423 74.3397 198.807 77.2536C201.191 80.2337 198.145 100.697 186.489 110.499C184.701 112.022 182.979 111.227 183.774 109.24C186.423 102.684 192.317 87.9158 189.535 84.4059Z" fill="#FF9900"/>
</svg>
