<svg width="627" height="153" viewBox="0 0 627 153" fill="none" xmlns="http://www.w3.org/2000/svg">
<path d="M98.3761 85.8343C98.7271 79.575 101.794 74.0604 106.42 70.1513C110.958 66.3116 117.065 63.9648 123.728 63.9648C130.385 63.9648 136.492 66.3116 141.032 70.1513C145.655 74.0604 148.722 79.5749 149.076 85.8276C149.427 92.259 146.841 98.2336 142.304 102.662C137.677 107.167 131.097 109.994 123.728 109.994C116.359 109.994 109.765 107.167 105.142 102.662C100.602 98.2336 98.0217 92.2591 98.3761 85.8343Z" fill="#265787"/>
<path d="M58.0029 98.4811C58.0459 100.931 58.8275 105.69 59.9999 109.408C62.4639 117.276 66.6433 124.554 72.4588 130.969C78.4267 137.563 85.7756 142.859 94.2638 146.619C103.186 150.568 112.853 152.581 122.894 152.564C132.919 152.551 142.586 150.498 151.508 146.52C159.996 142.723 167.339 137.404 173.297 130.807C179.109 124.366 183.282 117.074 185.752 109.206C186.994 105.23 187.779 101.195 188.094 97.1472C188.402 93.1586 188.273 89.1634 187.706 85.1715C186.6 77.3929 183.908 70.0942 179.761 63.441C175.969 57.3274 171.081 51.9751 165.269 47.4701L165.282 47.4601L106.627 2.44687C106.574 2.40715 106.531 2.36418 106.474 2.32777C102.626 -0.624788 96.1548 -0.614842 91.9223 2.34434C87.6435 5.33661 87.1533 10.2851 90.9619 13.4064L90.9453 13.423L115.41 33.3064L40.8445 33.3859H40.7451C34.5818 33.3925 28.657 37.434 27.4847 42.5414C26.2792 47.7448 30.4653 52.0611 36.8736 52.0843L36.8637 52.1075L74.6579 52.0347L7.21642 103.774C7.13031 103.837 7.03757 103.903 6.95809 103.966C0.596125 108.835 -1.46045 116.931 2.54682 122.055C6.61371 127.265 15.2608 127.275 21.689 122.085L58.4963 91.9769C58.4963 91.9769 57.9598 96.0416 58.0029 98.4811ZM152.585 112.092C145.001 119.814 134.383 124.194 122.894 124.217C111.389 124.237 100.771 119.897 93.1874 112.188C89.4815 108.431 86.7592 104.108 85.0801 99.504C83.4342 94.9792 82.795 90.1763 83.2189 85.3304C83.6196 80.5937 85.0305 76.0755 87.2825 71.9876C89.4948 67.9692 92.5416 64.3381 96.3038 61.2664C103.676 55.262 113.062 52.0114 122.878 51.9982C132.704 51.985 142.083 55.2057 149.462 61.1902C153.217 64.2487 156.261 67.8666 158.473 71.8784C160.735 75.963 162.136 80.4646 162.553 85.2145C162.97 90.0538 162.331 94.8501 160.685 99.3782C159.003 103.996 156.29 108.319 152.585 112.092Z" fill="#EA7600"/>
<path d="M500.218 85.7322C500.784 79.4166 505.669 75.4114 513.131 75.4114C520.602 75.4114 525.484 79.4166 526.05 85.7322H500.218ZM525.285 101.326C523.374 106.006 518.87 108.777 512.753 108.777C505.093 108.777 499.937 103.997 499.728 96.4468H543.765V94.2258C543.765 75.3122 532.657 64.6836 512.753 64.6836C493.426 64.6836 481.738 75.4115 481.738 92.2364C481.738 109.164 493.608 119.875 512.753 119.875C524.242 119.875 533.151 115.94 538.642 109.022L525.285 101.326Z" fill="#265787"/>
<path d="M304.823 85.7608C305.405 79.4452 310.29 75.4401 317.758 75.4401C325.217 75.4401 330.098 79.4452 330.671 85.7608H304.823ZM329.906 101.354C327.992 106.048 323.491 108.819 317.361 108.819C309.714 108.819 304.544 104.026 304.342 96.4721H348.369V94.2643C348.369 75.3408 337.265 64.709 317.361 64.709C298.024 64.709 286.359 75.4401 286.359 92.265C286.359 109.193 298.222 119.904 317.361 119.904C328.846 119.904 337.762 115.981 343.263 109.054L329.906 101.354Z" fill="#265787"/>
<path d="M282.415 53.2461H266.535V118.179H282.415V53.2461Z" fill="#265787"/>
<path d="M352.32 70.4985H368.29V74.3646C373.943 68.3337 380.732 65.2852 388.389 65.2852C397.208 65.2852 403.885 68.3338 407.333 73.5239C410.211 77.8104 410.399 82.984 410.399 89.7828V118.18H394.407V93.2286C394.407 82.8748 392.324 78.095 383.229 78.095C374.039 78.095 368.29 83.5665 368.29 92.7519V118.18H352.32V70.4985Z" fill="#265787"/>
<path d="M461.833 93.0399C461.833 101.927 455.891 107.756 446.698 107.756C437.498 107.756 431.556 102.126 431.556 93.1425C431.556 84.0267 437.418 78.3996 446.698 78.3996C455.891 78.3996 461.833 84.126 461.833 93.0399ZM461.833 72.6599C457.796 68.3337 451.954 65.9604 443.833 65.9604C426.314 65.9604 414.352 76.7578 414.352 92.9406C414.352 108.806 426.231 119.904 443.545 119.904C451.483 119.904 457.312 117.898 461.833 113.4V118.18H477.812V49.1289L461.833 53.2466V72.6599Z" fill="#265787"/>
<path d="M230.241 78.3996C239.527 78.3996 245.366 84.0267 245.366 93.1425C245.366 102.126 239.434 107.756 230.241 107.756C221.054 107.756 215.119 101.927 215.119 93.0399C215.119 84.126 221.054 78.3996 230.241 78.3996ZM215.119 53.2466L199.133 49.1289V118.18H215.119V113.4C219.616 117.898 225.455 119.904 233.4 119.904C250.724 119.904 262.587 108.806 262.587 92.9406C262.587 76.7578 250.621 65.9604 233.112 65.9604C224.975 65.9604 219.136 68.3337 215.119 72.6599V53.2466Z" fill="#265787"/>
<path d="M547.703 118.18V70.4984H563.683V73.4443C568.468 67.6848 573.532 64.8184 579.291 64.8184C580.434 64.8184 581.871 65.0037 583.782 65.1924V78.7867C582.242 78.5848 580.526 78.5848 578.705 78.5848C569.415 78.5848 563.683 84.7084 563.683 95.1218V118.18H547.703Z" fill="#265787"/>
<path d="M604.241 87.0348V72.1846H611.505C612.444 72.1846 613.302 72.3791 614.08 72.7682C614.872 73.1572 615.496 73.7206 615.952 74.4584C616.421 75.1828 616.656 76.0682 616.656 77.1146C616.656 78.1609 616.415 79.053 615.932 79.7908C615.449 80.5286 614.805 81.0921 614 81.4811C613.195 81.8567 612.303 82.0445 611.324 82.0445H606.353V79.2475H610.519C611.082 79.2475 611.565 79.0664 611.967 78.7042C612.383 78.342 612.591 77.8054 612.591 77.0945C612.591 76.3566 612.383 75.8335 611.967 75.5249C611.565 75.203 611.089 75.042 610.539 75.042H608.104V87.0348H604.241ZM613.718 80.1732L617.099 87.0348H612.873L609.714 80.1732H613.718ZM610.056 95.8886C607.829 95.8886 605.743 95.4728 603.798 94.641C601.853 93.8093 600.142 92.6556 598.667 91.18C597.191 89.7044 596.037 87.994 595.206 86.0488C594.374 84.1037 593.958 82.0177 593.958 79.7908C593.958 77.564 594.374 75.478 595.206 73.5328C596.037 71.5877 597.191 69.8773 598.667 68.4016C600.142 66.926 601.853 65.7723 603.798 64.9406C605.743 64.1089 607.829 63.693 610.056 63.693C612.283 63.693 614.369 64.1089 616.314 64.9406C618.259 65.7723 619.969 66.926 621.445 68.4016C622.921 69.8773 624.074 71.5877 624.906 73.5328C625.738 75.478 626.154 77.564 626.154 79.7908C626.154 82.0177 625.738 84.1037 624.906 86.0488C624.074 87.994 622.921 89.7044 621.445 91.18C619.969 92.6556 618.259 93.8093 616.314 94.641C614.369 95.4728 612.283 95.8886 610.056 95.8886ZM610.056 91.6428C612.256 91.6428 614.248 91.1129 616.032 90.0532C617.83 88.98 619.258 87.5513 620.318 85.7671C621.378 83.9695 621.908 81.9774 621.908 79.7908C621.908 77.6042 621.371 75.6188 620.298 73.8347C619.238 72.0371 617.81 70.6084 616.012 69.5486C614.228 68.4754 612.242 67.9388 610.056 67.9388C607.883 67.9388 605.897 68.4754 604.1 69.5486C602.302 70.6084 600.873 72.0371 599.814 73.8347C598.754 75.6188 598.224 77.6042 598.224 79.7908C598.224 81.9774 598.754 83.9695 599.814 85.7671C600.873 87.5513 602.302 88.98 604.1 90.0532C605.897 91.1129 607.883 91.6428 610.056 91.6428Z" fill="#236192"/>
</svg>
