<svg width="158" height="114" viewBox="0 0 158 114" fill="none" xmlns="http://www.w3.org/2000/svg">
<path d="M157.395 55.4862C156.602 56.1786 155.894 57.0096 155.01 57.5481C151.501 59.6486 147.923 61.649 144.384 63.711C143.199 64.4034 142.061 64.665 140.753 63.9956C140.399 63.811 139.76 63.8495 139.399 64.0495C137.113 65.3036 134.844 66.5962 132.62 67.958C132.282 68.1657 131.958 68.8582 132.043 69.2275C133.613 75.7981 131.682 79.4604 125.065 82.0995C126.103 85.8695 125.634 89.401 122.772 92.2862C119.956 95.133 116.501 95.7485 112.608 94.6636C112.524 98.3567 111.131 101.303 107.992 103.227C104.868 105.135 101.598 105.12 98.1745 103.604C98.0975 104.219 98.0514 104.75 97.9591 105.274C96.8204 111.936 89.7727 115.43 83.7022 112.306C81.748 111.298 79.8783 110.136 77.9779 109.059C69.3915 115.66 61.159 110.075 60.4435 102.935C57.0197 104.512 53.6267 104.635 50.3798 102.558C47.1715 100.496 45.8789 97.395 45.8481 93.7019C37.6002 94.1481 33.4224 87.9545 34.5611 81.507C33.7379 81.2685 32.8915 81.0839 32.0914 80.7761C27.7289 79.1373 25.1207 74.621 26.0055 70.1046C26.2132 69.0352 25.9439 68.5505 25.036 68.058C22.7432 66.8193 20.5274 65.4267 18.2269 64.1957C17.7499 63.9418 17.0497 64.088 16.4496 64.0572C15.4263 64.011 14.2261 64.3034 13.4105 63.8725C9.40198 61.7182 5.49346 59.3639 1.54648 57.0942C0.492411 56.4556 0 55.54 0 54.3013C0 37.19 0 20.0864 0.0153878 2.97513C0.0153878 0.520768 2.13891 -0.741036 4.27782 0.459216C9.04806 3.1444 13.7798 5.89882 18.5116 8.66094C19.8734 9.46111 20.2504 10.7383 19.6041 11.9078C18.9271 13.1234 17.596 13.4158 16.1419 12.5925C12.8027 10.6998 9.4943 8.76096 6.16283 6.84517C5.73197 6.59897 5.28573 6.36815 4.69329 6.0527C4.66252 6.64513 4.62405 7.07599 4.62405 7.51454C4.62405 22.3715 4.63174 37.2285 4.60097 52.0778C4.60097 53.1164 4.87795 53.7319 5.80891 54.2474C8.67875 55.817 11.487 57.4866 14.48 59.21C21.3276 47.346 28.1521 35.5281 35.0689 23.5641C32.4068 22.0099 29.7601 20.4788 27.1288 18.94C26.5979 18.6323 26.0362 18.3553 25.59 17.9475C24.7206 17.1627 24.5898 16.1548 25.1668 15.1623C25.7823 14.1005 26.8441 13.5927 27.9213 14.1852C31.7297 16.2856 35.4844 18.4707 39.1929 20.7404C39.7391 21.0789 40.1777 22.0099 40.2008 22.687C40.2392 23.6179 40.6316 24.0411 41.3548 24.4412C43.5014 25.6337 45.6634 26.8032 47.7254 28.142C48.841 28.8652 49.672 30.0424 50.7876 30.7579C51.9648 31.5119 53.3189 32.0351 54.6346 32.5506C56.3965 33.2353 57.9891 33.0584 59.6972 31.9966C63.5133 29.6115 67.4603 27.4341 71.3765 25.2106C76.4161 22.3484 81.5171 22.31 86.5797 25.1182C89.9343 26.9802 93.2273 28.9498 96.5588 30.8579C98.9823 32.2428 101.568 32.5814 104.268 31.8889C105.461 31.5811 106.576 31.2272 107.192 29.9269C107.438 29.3961 108.154 29.0345 108.715 28.7036C111.223 27.2187 113.77 25.7876 116.271 24.295C116.648 24.0719 117.109 23.5872 117.109 23.2178C117.125 21.6098 118.017 20.725 119.302 19.9864C128.619 14.6314 137.921 9.25337 147.223 3.87532C148.908 2.90588 150.585 1.92876 152.278 0.959321C154.763 -0.471749 155.51 -0.35634 157.41 1.71333V55.5092L157.395 55.4862ZM81.0555 105.474C82.6481 106.389 84.1254 107.289 85.6565 108.113C88.3032 109.528 91.3884 108.736 92.781 106.335C94.2275 103.842 93.3427 100.834 90.6652 99.2107C89.3957 98.4413 88.057 97.772 86.8336 96.941C85.7796 96.2255 85.4718 95.1714 86.095 93.9789C86.6798 92.8709 87.9031 92.4863 89.1264 93.0248C89.5496 93.2095 89.9343 93.4634 90.3344 93.6942C93.5274 95.533 96.6588 97.4873 99.9364 99.1646C101.129 99.7724 102.699 100.042 104.022 99.8647C106.122 99.5954 107.446 98.0951 107.861 95.9793C108.284 93.825 107.361 91.763 105.407 90.6089C101.798 88.47 98.136 86.4234 94.5199 84.2922C93.2119 83.5228 92.8734 82.3072 93.4889 81.1531C94.1275 79.9605 95.4354 79.5989 96.7973 80.3145C98.0206 80.9608 99.1978 81.6763 100.398 82.3687C104.699 84.8462 108.984 87.3467 113.301 89.8088C115.209 90.8936 117.14 90.8705 118.925 89.5318C120.71 88.193 121.264 86.3465 120.787 84.2076C120.433 82.6149 119.417 81.5224 118.009 80.7145C112.724 77.6908 107.453 74.644 102.183 71.5819C100.713 70.7278 100.267 69.4814 100.921 68.2735C101.598 67.0194 102.968 66.7655 104.522 67.6272C105.414 68.1273 106.292 68.6505 107.184 69.1583C111.616 71.7127 116.04 74.2901 120.487 76.8214C122.557 77.9986 124.795 77.7524 126.48 76.2675C128.012 74.921 128.581 72.5436 127.481 70.5047C126.842 69.3198 125.773 68.1658 124.611 67.481C116.147 62.4876 107.623 57.6097 99.1131 52.6933C98.6669 52.4394 98.2053 52.2086 97.8052 51.8931C96.7819 51.0852 96.4972 50.0543 97.1589 48.9079C97.8206 47.7615 98.8669 47.5153 100.075 47.9692C100.498 48.1308 100.89 48.4001 101.283 48.6309C107.977 52.4932 114.67 56.3556 121.364 60.2102C121.818 60.4718 122.295 60.7026 123.103 61.1181C118.017 52.3086 113.139 43.8683 108.254 35.4127C107.9 35.5127 107.707 35.5512 107.523 35.6281C102.791 37.5439 98.236 37.19 93.8274 34.6049C90.6498 32.7352 87.4645 30.8887 84.2485 29.0883C80.917 27.2264 77.4701 27.0956 74.131 28.9498C68.9453 31.835 63.8211 34.8434 58.697 37.8286C57.2351 38.6826 56.4119 40.0137 56.258 41.7063C56.0733 43.7145 56.8427 45.3456 58.52 46.4458C60.305 47.6153 62.2054 47.5845 64.0442 46.5304C68.6606 43.8837 73.2769 41.237 77.8702 38.5518C79.8706 37.3824 81.8172 37.3593 83.8176 38.5441C85.9334 39.7983 88.0801 40.9908 90.1959 42.2372C91.7347 43.1451 92.204 44.43 91.4731 45.6533C90.7652 46.8536 89.388 47.069 87.8492 46.1919C86.0258 45.1532 84.1562 44.1838 82.4173 43.0143C81.2478 42.2218 80.3784 42.3834 79.2397 43.0605C74.8388 45.6764 70.4379 48.3 65.9369 50.7236C60.0434 53.8935 53.1266 50.5467 51.7801 43.9991C51.2723 41.5448 51.8647 39.2443 53.0342 37.0054C51.6955 36.4591 50.4875 35.9667 49.1334 35.4127C44.2324 43.9068 39.3544 52.347 34.4842 60.795C39.0236 57.9867 43.5476 56.771 48.0639 60.2564C52.0956 63.3724 52.7265 67.5887 50.9338 72.2974C55.6809 74.167 57.8814 77.6985 57.8429 82.6611C60.7743 82.438 63.2825 83.1227 65.4368 84.9308C67.5834 86.7235 68.6221 89.1086 68.9606 91.8323C77.4163 89.5241 84.3562 97.0487 81.0632 105.481L81.0555 105.474ZM142.93 59.2023C145.908 57.4866 148.716 55.8093 151.578 54.2474C152.524 53.7319 152.809 53.1318 152.801 52.0931C152.771 37.2439 152.778 22.3946 152.778 7.54532C152.778 7.10677 152.74 6.66821 152.709 5.99884C142.476 11.9078 132.412 17.7167 122.333 23.541C122.772 24.3027 123.095 24.8874 123.426 25.4568C126.673 31.081 129.927 36.7053 133.151 42.3449C133.497 42.9528 134.005 43.7683 133.836 44.2915C133.567 45.1071 132.928 46.0534 132.189 46.3996C131.004 46.9536 130.058 46.1534 129.435 45.084C127.258 41.3217 125.096 37.5516 122.918 33.7816C121.772 31.7966 120.618 29.8269 119.433 27.7803C116.817 29.296 114.316 30.7425 111.747 32.2274C117.917 42.9143 123.995 53.4396 130.112 64.0264C132.743 62.503 135.213 61.072 137.652 59.664C137.629 59.4639 137.652 59.3485 137.598 59.2639C136.867 57.9713 136.121 56.6941 135.39 55.4015C134.513 53.832 134.728 52.5086 135.959 51.7854C137.221 51.0468 138.421 51.4853 139.36 53.078C140.53 55.0553 141.668 57.048 142.915 59.2023H142.93ZM37.9464 27.7803C31.8144 38.4057 25.7208 48.9617 19.5887 59.5793C22.2201 61.1027 24.6898 62.5261 27.2827 64.0264C33.4224 53.3934 39.5083 42.8451 45.6404 32.2197C42.986 30.6886 40.5085 29.2576 37.9387 27.7726L37.9464 27.7803ZM35.8075 76.7983C36.0614 76.7522 36.6923 76.7983 37.154 76.5367C39.9622 74.9826 42.8321 73.5053 45.4788 71.705C47.5408 70.297 47.8177 67.3656 46.5021 65.219C45.1941 63.0955 42.4551 62.1029 40.2238 63.2262C37.5848 64.5573 35.0227 66.0576 32.5376 67.6503C30.6911 68.8351 30.0525 71.1433 30.7065 73.213C31.3912 75.3827 33.2531 76.7676 35.8152 76.7983H35.8075ZM44.7709 89.0086C47.3253 88.1084 50.4414 86.9158 52.4726 84.0999C53.7498 82.3303 53.3266 79.899 51.8801 78.2679C50.4337 76.6368 48.1178 76.0059 46.1559 76.9445C44.3632 77.8062 42.6166 78.7988 40.9778 79.9298C39.1929 81.1608 38.6004 83.5228 39.3237 85.5617C40.0546 87.6468 41.9242 88.9855 44.7786 89.0086H44.7709ZM64.2674 93.0633C64.3058 88.5931 60.4127 86.1003 56.9581 87.7853C55.5424 88.4777 54.1652 89.2779 52.8496 90.1473C50.5491 91.663 49.8797 94.5482 51.2031 96.8872C52.5418 99.2723 55.4424 100.18 57.9506 98.9184C59.3125 98.2336 60.6435 97.4642 61.9284 96.641C63.4441 95.6715 64.2366 94.2328 64.2674 93.0633ZM65.1599 102.342C65.1599 104.596 66.5832 106.505 68.7375 107.151C71.6074 108.02 76.216 105.535 77.1008 102.65C77.801 100.357 76.7546 97.9874 74.7773 96.6641C71.5535 94.5098 65.0368 98.449 65.1599 101.727C65.1599 101.934 65.1599 102.134 65.1599 102.342Z" fill="white"/>
</svg>
