<svg width="569" height="74" viewBox="0 0 569 74" fill="none" xmlns="http://www.w3.org/2000/svg">
<path d="M296.413 8H303.113L289.783 58.7073H283.223L272.475 25.2801H272.196L261.449 58.7073H254.888L241 8H247.7L258.238 47.8718H258.517L269.335 14.7988H275.337L286.154 47.8718H286.433L296.413 8Z" fill="#242424"/>
<path d="M302.504 41.3571C302.504 36.023 304.156 31.6085 307.459 28.1137C310.809 24.6199 315.02 22.873 320.091 22.873C325.162 22.873 329.35 24.6199 332.653 28.1137C336.003 31.6085 337.678 36.023 337.678 41.3571C337.678 46.7395 336.003 51.1539 332.653 54.6005C329.349 58.0953 325.161 59.8422 320.091 59.8412C315.021 59.8403 310.81 58.0919 307.459 54.5962C304.155 51.1034 302.503 46.6889 302.504 41.3528M308.925 41.3528C308.925 45.0836 309.995 48.1053 312.135 50.4178C314.275 52.7303 316.927 53.8865 320.091 53.8865C323.255 53.8865 325.907 52.7303 328.047 50.4178C330.187 48.1053 331.257 45.0836 331.257 41.3528C331.257 37.6701 330.187 34.6721 328.047 32.3586C325.863 29.9989 323.211 28.8186 320.091 28.8176C316.971 28.8166 314.318 29.9984 312.132 32.3629C309.991 34.6754 308.921 37.6735 308.922 41.3571" fill="#242424"/>
<path d="M348.654 58.7071H342.234V24.0051H348.375V29.6708H348.66C349.311 27.8294 350.649 26.2593 352.674 24.9605C354.698 23.6616 356.687 23.0127 358.64 23.0137C360.5 23.0137 362.082 23.2969 363.385 23.8635L361.426 30.1694C360.634 29.8399 359.378 29.6746 357.657 29.6737C355.238 29.6737 353.133 30.6651 351.342 32.6481C349.551 34.6311 348.655 36.9436 348.654 39.5856V58.7071Z" fill="#242424"/>
<path d="M396.434 58.7073H388.687L378.01 42.3478L372.775 47.5885V58.7073H366.355V8H372.775V39.2317L387.571 24.0054H395.806V24.2887L382.476 37.7445L396.434 58.424V58.7073Z" fill="#242424"/>
<path d="M424.216 49.077C424.216 52.0996 422.914 54.6491 420.309 56.7256C417.703 58.802 414.423 59.8407 410.469 59.8417C407.026 59.8417 404.001 58.9326 401.396 57.1144C398.844 55.3657 396.891 52.8533 395.812 49.9268L401.535 47.4481C402.372 49.5265 403.594 51.1433 405.199 52.2986C406.729 53.4309 408.576 54.0385 410.47 54.033C412.518 54.033 414.226 53.5844 415.596 52.6874C416.966 51.7903 417.654 50.728 417.655 49.5005C417.655 47.2843 415.979 45.6554 412.63 44.6138L406.768 43.1266C400.117 41.4269 396.79 38.1682 396.789 33.3505C396.789 30.1882 398.058 27.6502 400.594 25.7366C403.13 23.823 406.374 22.8672 410.328 22.8691C413.353 22.8691 416.088 23.6009 418.53 25.0646C420.972 26.5282 422.68 28.4875 423.656 30.9426L417.936 33.3505C417.28 31.8816 416.163 30.6738 414.76 29.915C413.253 29.0787 411.558 28.6521 409.84 28.6764C408.25 28.6523 406.688 29.0949 405.34 29.9512C404.01 30.801 403.345 31.8397 403.345 33.0672C403.345 35.0502 405.183 36.4666 408.858 37.3165L414.023 38.6621C420.815 40.3617 424.212 43.8305 424.212 49.0683" fill="#242424"/>
<path d="M446.513 59.8412C444.001 59.8412 441.709 59.2983 439.639 58.2124C437.569 57.1265 435.976 55.6864 434.858 53.8923H434.574L434.858 58.7081V74.0054H428.438V24.0062H434.578V28.8219H434.863C435.98 27.0288 437.575 25.5888 439.645 24.5019C441.716 23.415 444.006 22.8721 446.518 22.873C451.03 22.873 454.846 24.6671 457.964 28.2554C461.175 31.8918 462.78 36.259 462.78 41.3571C462.78 46.5044 461.175 50.8716 457.964 54.459C454.847 58.0472 451.031 59.8412 446.518 59.8412M445.471 53.8923C448.542 53.8923 451.125 52.712 453.219 50.3513C455.308 48.0388 456.352 45.0407 456.352 41.3571C456.352 37.7226 455.308 34.7246 453.219 32.3629C451.13 30.0013 448.547 28.821 445.471 28.8219C442.354 28.8219 439.749 30.0023 437.656 32.3629C435.608 34.7246 434.584 37.7226 434.585 41.3571C434.585 45.0398 435.609 48.0615 437.656 50.4221C439.745 52.7346 442.349 53.8909 445.471 53.8909" fill="#242424"/>
<path d="M480.359 22.8725C485.106 22.8725 488.852 24.1588 491.595 26.7315C494.338 29.3042 495.711 32.8336 495.712 37.3199V58.7105H489.571V53.8918H489.286C486.634 57.8577 483.098 59.8407 478.678 59.8407C474.91 59.8407 471.757 58.7076 469.221 56.4413C466.685 54.1751 465.417 51.3423 465.418 47.9429C465.418 44.3556 466.756 41.4992 469.43 39.3736C472.105 37.2481 475.676 36.1858 480.144 36.1867C483.958 36.1867 487.098 36.8949 489.565 38.3113V36.8183C489.565 34.5521 488.681 32.6279 486.913 31.0458C485.211 29.4898 482.993 28.6428 480.702 28.674C477.119 28.674 474.281 30.2084 472.188 33.2773L466.535 29.664C469.651 25.1354 474.256 22.8711 480.35 22.8711M472.054 48.0918C472.054 49.7915 472.763 51.2079 474.182 52.341C475.6 53.4741 477.262 54.0407 479.167 54.0407C481.864 54.0407 484.272 53.0256 486.389 50.9954C488.507 48.9652 489.565 46.5809 489.565 43.8426C487.564 42.2383 484.772 41.4356 481.191 41.4347C478.584 41.4347 476.409 42.072 474.665 43.3468C472.92 44.6216 472.05 46.2032 472.054 48.0918Z" fill="#242424"/>
<path d="M517.482 59.8412C512.409 59.8412 508.199 58.0943 504.85 54.6005C501.546 51.0133 499.894 46.5988 499.895 41.3571C499.895 36.023 501.547 31.6085 504.85 28.1137C508.2 24.6199 512.41 22.873 517.482 22.873C520.971 22.873 524.019 23.758 526.624 25.5281C529.23 27.2981 531.184 29.7416 532.486 32.8587L526.63 35.3374C524.815 30.9938 521.628 28.8219 517.069 28.8219C514.138 28.8219 511.602 30.0264 509.462 32.4352C507.368 34.8441 506.321 37.8185 506.321 41.3586C506.321 44.8986 507.368 47.8731 509.462 50.2819C511.601 52.6908 514.137 53.8952 517.069 53.8952C521.768 53.8952 525.071 51.7234 526.979 47.3797L532.701 49.8585C531.445 52.9745 529.479 55.4176 526.804 57.1876C524.128 58.9577 521.022 59.8432 517.487 59.8441" fill="#242424"/>
<path d="M552.031 59.8412C547.006 59.8412 542.865 58.0943 539.608 54.6005C536.351 51.1067 534.723 46.6923 534.723 41.3571C534.723 36.0702 536.305 31.6673 539.469 28.1484C542.632 24.6296 546.68 22.8711 551.612 22.873C556.682 22.873 560.718 24.5371 563.718 27.8651C566.719 31.1932 568.218 35.8558 568.216 41.8529L568.146 42.5611H541.283C541.378 45.9605 542.495 48.6988 544.633 50.7762C546.771 52.8536 549.33 53.8923 552.31 53.8923C556.403 53.8923 559.613 51.8149 561.941 47.6601L567.663 50.493C566.204 53.3396 563.992 55.718 561.277 57.3625C558.555 59.014 555.473 59.8403 552.031 59.8412ZM541.776 37.1787H561.38C561.19 34.7699 560.224 32.7749 558.483 31.1937C556.741 29.6125 554.403 28.8219 551.469 28.8219C549.049 28.8219 546.967 29.5774 545.223 31.0882C543.478 32.599 542.327 34.6292 541.769 37.1787" fill="#242424"/>
<path d="M28.8271 34.049V26.206H54.6918C54.979 27.792 55.1187 29.402 55.1091 31.015C55.1091 36.894 53.5239 44.176 48.4151 49.356C43.4487 54.607 37.1036 57.408 28.689 57.408C13.1032 57.408 0 44.526 0 28.704C0 12.882 13.1032 0 28.6918 0C37.3158 0 43.4515 3.4312 48.0733 7.9116L42.624 13.441C39.3097 10.2921 34.8304 7.8408 28.6918 7.8408C17.312 7.8408 8.41456 17.152 8.41456 28.704C8.41456 40.256 17.312 49.574 28.6918 49.574C36.0724 49.574 40.2797 46.564 42.9687 43.833C45.1606 41.609 46.6048 38.418 47.1646 34.056L28.8271 34.049Z" fill="#4285F4"/>
<path d="M94.5211 38.9264C94.5211 49.5754 86.3116 57.4094 76.2449 57.4094C66.1782 57.4094 57.9688 49.5754 57.9688 38.9264C57.9688 28.2154 66.1768 20.4434 76.2478 20.4434C86.3188 20.4434 94.524 28.2154 94.524 38.9264M86.5239 38.9264C86.5239 32.2784 81.7654 27.7254 76.2478 27.7254C70.7302 27.7254 65.9702 32.2754 65.9702 38.9264C65.9702 45.5074 70.7288 50.1274 76.2478 50.1274C81.7668 50.1274 86.5239 45.5024 86.5239 38.9264Z" fill="#EA4335"/>
<path d="M134.394 38.9264C134.394 49.5754 126.191 57.4094 116.117 57.4094C106.044 57.4094 97.8398 49.5754 97.8398 38.9264C97.8398 28.2154 106.046 20.4434 116.117 20.4434C126.188 20.4434 134.394 28.2154 134.394 38.9264ZM126.394 38.9264C126.394 32.2784 121.635 27.7254 116.117 27.7254C110.6 27.7254 105.84 32.2754 105.84 38.9264C105.84 45.5074 110.598 50.1274 116.117 50.1274C121.636 50.1274 126.394 45.5024 126.394 38.9264Z" fill="#FBBC04"/>
<path d="M172.611 21.5634V54.7484C172.611 68.4004 164.679 74.0014 155.299 74.0014C146.468 74.0014 141.159 67.9804 139.159 63.0804L146.129 60.1394C147.37 63.1494 150.402 66.7194 155.303 66.7194C161.304 66.7194 165.028 62.9384 165.028 55.8684V53.2094H164.752C162.959 55.4494 159.51 57.4094 155.165 57.4094C146.06 57.4094 137.715 49.3574 137.715 38.9974C137.715 28.5654 146.06 20.4434 155.165 20.4434C159.51 20.4434 162.959 22.4034 164.752 24.5744H165.028V21.5634H172.611ZM165.575 38.9974C165.575 32.4864 161.302 27.7234 155.85 27.7234C150.332 27.7234 145.711 32.4844 145.711 38.9974C145.711 45.4374 150.332 50.1264 155.85 50.1264C161.299 50.1264 165.575 45.4364 165.575 38.9974Z" fill="#4285F4"/>
<path d="M186.16 2.14258H178.16V56.288H186.16V2.14258Z" fill="#34A853"/>
<path d="M217.058 45.0174L223.265 49.2174C221.271 52.2274 216.437 57.4094 208.091 57.4094C197.745 57.4094 190.02 49.2874 190.02 38.9264C190.02 27.9424 197.815 20.4434 207.193 20.4434C216.643 20.4434 221.264 28.0754 222.782 32.2054L223.609 34.3054L199.254 44.5274C201.117 48.2374 204.014 50.1274 208.085 50.1274C212.155 50.1274 214.983 48.1044 217.058 45.0174ZM197.951 38.3684L214.229 31.5094C213.332 29.1964 210.643 27.5894 207.47 27.5894C203.401 27.5894 197.745 31.2304 197.951 38.3714" fill="#EA4335"/>
</svg>
