<svg width="158" height="158" viewBox="0 0 158 158" fill="none" xmlns="http://www.w3.org/2000/svg">
<path d="M78.4893 121.269C54.8657 121.174 35.7869 102.071 35.8106 78.5188C35.8342 54.8874 55.205 35.5798 78.6707 35.8007C102.389 36.0216 121.413 55.1477 121.278 78.6214C121.144 102.269 101.994 121.355 78.4893 121.269ZM81.1404 96.3509C85.5669 97.0374 89.8513 97.7239 94.1436 98.3314C94.475 98.3788 95.0984 97.9369 95.2404 97.5897C96.2425 95.0648 97.3392 92.5478 98.0336 89.9361C98.7831 87.0956 99.1382 84.1525 99.6826 81.1463H81.1483V96.3588L81.1404 96.3509ZM57.6509 75.9072H75.9407V60.6078C72.6031 60.1818 69.3444 59.7557 66.0778 59.3454C64.768 59.1797 63.1189 58.4853 62.2273 59.0219C61.2726 59.6058 60.9649 61.3338 60.4757 62.5962C58.8345 66.8649 57.8009 71.2598 57.6509 75.8993V75.9072ZM99.3355 75.9703C99.5169 71.6543 97.4181 63.188 95.1931 59.3927C94.9879 59.0456 94.2936 58.7536 93.8675 58.801C92.2579 59.0061 90.6798 59.4322 89.0781 59.6531C86.4427 60.0082 83.7915 60.2607 81.1877 60.5526V75.9703H99.3434H99.3355ZM57.6352 81.1148C57.9271 87.0404 59.3868 92.5084 61.888 97.7002C62.0537 98.0395 62.7875 98.3314 63.2057 98.2762C65.7464 97.9369 68.2634 97.4398 70.8041 97.0847C72.5242 96.8401 74.2601 96.7376 75.8776 96.5798V81.1148H57.6273H57.6352ZM57.2328 57.2071C54.7315 56.1025 52.3644 55.061 49.95 53.9958C44.5925 60.3554 41.5705 67.5987 40.9629 75.9229H52.5222C52.8615 69.3424 54.479 63.1485 57.2407 57.2071H57.2328ZM40.9314 81.1226C41.6178 89.5258 44.6083 96.8007 49.9737 103.105C52.4276 102.008 54.7947 100.951 57.2485 99.8621C54.4396 93.8813 52.9089 87.6558 52.5065 81.1226H40.9393H40.9314ZM107.084 103.105C112.449 96.7297 115.463 89.4864 116.094 81.1542H104.527C104.196 87.7268 102.563 93.9128 99.8247 99.8621C102.271 100.959 104.606 102 107.084 103.105ZM104.551 75.8914H116.11C115.424 67.5119 112.425 60.2528 107.092 53.9879C104.63 55.0846 102.294 56.1261 99.8404 57.2229C102.602 63.1564 104.204 69.3503 104.559 75.8914H104.551ZM81.1483 114.585C85.559 111.319 89.1649 107.634 92.2815 102.868C88.3916 102.387 84.8331 101.937 81.1483 101.48V114.578V114.585ZM75.9091 101.472C72.2086 101.945 68.6264 102.403 64.768 102.892C67.9557 107.634 71.4827 111.39 75.9091 114.522V101.472ZM92.3052 54.2088C89.0781 49.4194 85.5274 45.703 81.1483 42.5311V55.6133C84.8331 55.1477 88.3916 54.7059 92.3052 54.2088ZM75.8697 55.6133V42.5311C71.4748 45.7977 67.8689 49.4746 64.7996 54.2009C68.6737 54.6901 72.1928 55.1399 75.8697 55.6054V55.6133ZM103.36 50.2163C99.0672 46.5789 94.6171 44.0224 89.5199 42.5548C92.2263 45.8924 94.8538 49.1432 97.6312 52.5755C99.3039 51.889 101.174 51.1158 103.36 50.2163ZM67.5612 42.5233C62.4561 44.054 57.9666 46.5394 53.8952 50.0743C54.2029 50.2794 54.3528 50.4215 54.5343 50.5004C55.489 50.9264 56.4358 51.3683 57.4142 51.747C59.6788 52.6386 59.6077 52.5676 61.0596 50.6503C63.1347 47.9202 65.3361 45.2849 67.5612 42.5154V42.5233ZM53.7137 106.869C57.9823 110.475 62.4167 113.031 67.356 114.459C64.9574 111.343 62.5824 108.218 60.1522 105.141C59.9391 104.865 59.3237 104.636 59.0239 104.746C57.3196 105.362 55.6468 106.088 53.7137 106.877V106.869ZM89.6619 114.514C94.6171 112.968 99.1224 110.522 103.32 106.845C101.419 106.072 99.801 105.362 98.1361 104.762C97.8126 104.644 97.1735 104.817 96.9684 105.078C94.5066 108.186 92.1079 111.343 89.6619 114.514Z" fill="white"/>
<path d="M125.866 40.7317C124.201 42.4202 122.599 44.0772 120.966 45.7026C117.841 48.8114 113.707 48.9771 110.898 46.1208C108.128 43.3119 108.302 39.2247 111.347 36.1632C113.012 34.4905 114.693 32.8414 116.35 31.2081C112.665 26.3792 115.474 21.1243 119.419 20.138C120.555 19.854 121.818 19.8382 122.993 19.9802C125.384 20.2643 127.759 20.7061 130.142 21.1243C133.377 21.6924 135.405 23.6965 135.965 26.8921C136.368 29.1645 136.683 31.4527 137.086 33.7251C137.63 36.826 136.991 39.4851 134.269 41.3472C131.752 43.0673 129.069 42.8858 125.866 40.7475V40.7317ZM132.288 35.8003C131.791 32.7467 131.452 30.1903 130.9 27.689C130.765 27.0894 129.992 26.324 129.4 26.1978C126.891 25.6612 124.335 25.3141 121.794 24.9274C120.792 24.7775 119.845 25.1326 119.814 26.182C119.798 26.8369 120.319 27.7916 120.887 28.123C123.317 29.5354 123.601 31.0661 121.605 33.0781C119.388 35.319 117.155 37.544 114.914 39.7533C114.077 40.5818 113.572 41.505 114.496 42.4834C115.482 43.5328 116.46 43.0594 117.344 42.1678C119.632 39.8559 121.928 37.544 124.256 35.2637C126.039 33.5121 127.775 33.8277 128.848 36.1001C129.282 37.0154 129.937 37.7097 130.9 37.2915C131.554 36.9996 131.973 36.1632 132.296 35.8003H132.288Z" fill="white"/>
<path d="M31.2114 116.345C32.9236 114.609 34.5648 112.912 36.2454 111.255C39.2753 108.257 43.4256 108.139 46.203 110.948C48.9252 113.709 48.7989 117.812 45.8637 120.795C44.1752 122.515 42.4551 124.196 40.7666 125.884C44.4277 130.681 41.6345 135.936 37.6736 136.938C36.5847 137.215 35.3775 137.254 34.2571 137.12C31.7559 136.82 29.2783 136.37 26.8007 135.936C23.7788 135.4 21.6957 133.333 21.1592 130.342C20.7173 127.865 20.3228 125.379 19.9441 122.886C19.4864 119.88 20.307 117.323 22.9661 115.658C25.7356 113.93 28.4577 114.317 31.2114 116.353V116.345ZM35.7957 132.267C36.1587 131.952 37.0976 131.51 37.2396 130.879C37.3659 130.326 36.7741 129.285 36.2139 128.953C33.7758 127.525 33.4838 126.018 35.4801 124.006C37.6973 121.765 39.9302 119.54 42.1632 117.323C43.0548 116.439 43.5361 115.469 42.4867 114.475C41.5083 113.551 40.5851 114.049 39.7566 114.885C37.4684 117.205 35.1724 119.509 32.8526 121.789C31.0694 123.541 29.3256 123.225 28.2526 120.968C27.8186 120.061 27.2347 119.469 26.1853 119.722C25.0333 119.998 24.7729 120.866 24.9307 121.915C25.3095 124.353 25.6172 126.799 26.1537 129.206C26.2958 129.861 27.0611 130.721 27.6766 130.863C30.1778 131.431 32.7343 131.762 35.7878 132.259L35.7957 132.267Z" fill="white"/>
<path d="M116.364 125.829C114.66 124.164 112.956 122.538 111.299 120.865C108.277 117.828 108.135 113.701 110.936 110.916C113.729 108.131 117.84 108.28 120.894 111.302C122.566 112.959 124.207 114.656 125.864 116.352C127.75 114.971 129.644 114.277 131.869 114.743C134.994 115.405 137.432 118.041 137.195 121.213C136.942 124.598 136.39 127.983 135.641 131.296C135.041 133.916 133.029 135.423 130.393 135.912C127.924 136.378 125.43 136.749 122.937 137.135C120.002 137.585 117.469 136.843 115.773 134.279C113.895 131.439 114.305 128.63 116.364 125.829ZM132.295 121.228C131.948 120.865 131.474 119.934 130.851 119.816C130.291 119.706 129.281 120.337 128.957 120.913C127.608 123.264 126.038 123.58 124.105 121.662C121.864 119.445 119.639 117.22 117.422 114.979C116.562 114.111 115.623 113.496 114.573 114.514C113.532 115.524 114.076 116.486 114.952 117.354C117.232 119.603 119.505 121.86 121.754 124.148C123.592 126.018 123.3 127.714 120.957 128.85C120.041 129.292 119.497 129.9 119.773 130.941C120.049 131.999 120.862 132.299 121.856 132.149C124.342 131.77 126.851 131.446 129.305 130.902C129.944 130.76 130.772 129.963 130.914 129.332C131.482 126.831 131.806 124.274 132.303 121.228H132.295Z" fill="white"/>
<path d="M40.6562 31.3103C42.5183 33.1014 44.483 34.8451 46.282 36.7388C48.1757 38.7351 48.6649 41.1416 47.6944 43.7375C46.7239 46.3334 44.7671 47.7852 42.0291 48.0851C39.8593 48.3297 38.0051 47.5722 36.4743 46.0336C34.7385 44.2898 33.0184 42.5224 31.2431 40.7234C29.3967 42.0648 27.511 42.7986 25.2938 42.3409C22.0903 41.686 19.6522 39.0112 19.9047 35.7604C20.1572 32.4307 20.7174 29.0931 21.4433 25.8265C22.0114 23.2622 23.9445 21.7157 26.501 21.1949C29.1206 20.6663 31.7717 20.2875 34.4229 19.9088C37.3896 19.4827 39.8672 20.3822 41.4689 22.9939C43.1811 25.7792 42.7629 28.5013 40.672 31.3024L40.6562 31.3103ZM24.7967 35.8472C25.1044 36.1944 25.491 36.9834 26.1144 37.2675C27.0691 37.7093 27.7556 37.0939 28.2132 36.1707C29.4046 33.7484 31.0695 33.4959 33.0184 35.4211C35.2592 37.6383 37.4843 39.8634 39.7015 42.1042C40.5615 42.9801 41.5163 43.5639 42.5499 42.5382C43.5835 41.5125 43.0154 40.5577 42.1396 39.6898C39.8593 37.4411 37.5869 35.1765 35.346 32.8962C33.5234 31.042 33.8232 29.3535 36.1745 28.2015C37.0977 27.7518 37.6184 27.1363 37.3344 26.0948C37.0424 25.0375 36.2219 24.7613 35.2356 24.9112C32.7501 25.29 30.2489 25.6293 27.7871 26.15C27.1717 26.2842 26.3511 27.0022 26.2248 27.5861C25.6567 30.1425 25.3096 32.7463 24.8046 35.8314L24.7967 35.8472Z" fill="white"/>
<path d="M71.8456 138.658C71.8456 135.794 71.7115 133.056 71.8772 130.342C72.0823 127.067 74.8045 124.566 78.1105 124.313C81.2272 124.077 84.3833 126.262 85.0461 129.34C85.3617 130.807 85.267 132.369 85.3065 133.884C85.3459 135.455 85.3144 137.033 85.3144 138.642C85.843 138.792 86.2928 138.911 86.7425 139.037C89.4173 139.794 91.0822 141.562 91.6424 144.244C92.179 146.817 91.382 149.089 89.3384 150.722C87.0424 152.553 84.6516 154.281 82.2056 155.898C79.7912 157.492 77.2268 157.476 74.8124 155.843C72.4216 154.226 70.0624 152.553 67.7979 150.762C65.7385 149.136 64.9258 146.88 65.4308 144.307C65.9595 141.617 67.6164 139.834 70.2755 139.045C70.7252 138.911 71.1828 138.816 71.8456 138.65V138.658ZM76.856 136.567H76.8481C76.8481 138.192 76.8875 139.826 76.8402 141.451C76.7692 143.952 75.3016 144.962 72.9739 144.087C71.9955 143.716 71.2065 143.802 70.6463 144.702C70.0545 145.633 70.4017 146.43 71.2144 147.03C73.2817 148.56 75.341 150.107 77.4793 151.535C77.9448 151.843 78.9232 151.953 79.3414 151.669C81.6612 150.138 83.9336 148.513 86.0876 146.769C86.4979 146.438 86.6557 145.215 86.3717 144.741C86.0876 144.268 85.0146 143.897 84.4228 144.047C81.3613 144.828 80.2488 144.031 80.2409 140.82C80.233 137.664 80.2409 134.516 80.233 131.359C80.233 130.263 79.7517 129.45 78.6155 129.418C77.3925 129.379 76.856 130.192 76.856 131.367C76.856 133.103 76.856 134.839 76.856 136.567Z" fill="white"/>
<path d="M85.2366 18.4574C85.2366 21.2348 85.3786 24.0201 85.1971 26.7896C84.9841 30.0483 82.2225 32.5495 78.9165 32.7705C75.855 32.9756 72.8251 30.8531 72.044 27.839C71.8073 26.9395 71.7994 25.969 71.7836 25.0301C71.7442 22.8366 71.7757 20.6352 71.7757 18.3864C68.8248 17.8972 66.6549 16.5006 65.6686 13.6917C64.706 10.9695 65.5818 7.98699 67.9016 6.20378C70.1109 4.51526 72.3596 2.86618 74.6557 1.3039C77.22 -0.447748 79.8949 -0.424077 82.4592 1.31179C84.5896 2.75572 86.6411 4.31011 88.7162 5.82505C91.0439 7.51358 92.1801 9.80177 91.6672 12.6502C91.1307 15.6169 89.2764 17.4711 86.3018 18.1497C86.002 18.2207 85.71 18.3233 85.2366 18.4574ZM80.242 20.5641C80.242 18.8835 80.1947 17.2029 80.2499 15.5222C80.3367 13.1236 81.8201 12.1215 84.0609 12.9658C85.1025 13.3603 85.9309 13.2814 86.4912 12.2793C87.0356 11.3088 86.5858 10.5592 85.7968 9.97535C83.769 8.48408 81.7649 6.93758 79.6503 5.57256C79.1295 5.23327 78.0249 5.19382 77.5199 5.52522C75.3185 6.95336 73.1802 8.49197 71.1603 10.1568C70.6947 10.5435 70.4344 11.7822 70.7105 12.2793C70.9788 12.7685 72.1466 13.1394 72.762 12.9737C75.5789 12.2162 76.8334 13.0684 76.8492 16.043C76.865 19.1439 76.865 22.2448 76.8492 25.3457C76.8492 26.5845 77.1411 27.6733 78.5772 27.6496C80.0132 27.626 80.2657 26.5056 80.2499 25.2826C80.2262 23.7045 80.2499 22.1264 80.2499 20.5563L80.242 20.5641Z" fill="white"/>
<path d="M18.4371 85.2965C18.2871 85.8252 18.1688 86.2749 18.0425 86.7168C17.293 89.3916 15.5255 91.0644 12.8428 91.6246C10.2627 92.169 7.99029 91.38 6.357 89.3364C4.51856 87.0482 2.79847 84.6495 1.18095 82.2035C-0.499682 79.6629 -0.341875 77.0275 1.37032 74.5341C2.83003 72.4195 4.37653 70.3602 5.89936 68.285C7.60367 65.9495 9.91553 64.8764 12.756 65.4287C15.6518 65.9889 17.4666 67.8116 18.1372 70.7231C18.2082 71.023 18.3029 71.3228 18.445 71.8199C21.1434 71.8199 23.8577 71.7252 26.572 71.8436C29.3573 71.9698 31.6849 73.9345 32.4739 76.5462C33.2708 79.1894 32.5134 82.2114 30.2173 83.7185C28.8917 84.5864 27.1637 85.0598 25.562 85.2255C23.2265 85.4701 20.8515 85.2886 18.445 85.2886L18.4371 85.2965ZM20.6542 80.2231C22.0193 80.2231 23.3843 80.2231 24.7572 80.2231C25.0176 80.2231 25.2859 80.2152 25.5462 80.2231C26.7692 80.2625 27.7003 79.8049 27.6687 78.4793C27.6372 77.2563 26.7377 76.846 25.5857 76.8539C22.2718 76.8697 18.9657 76.9012 15.6518 76.8381C13.1348 76.7908 12.109 75.2995 12.977 72.9876C13.3715 71.9382 13.261 71.1176 12.259 70.5732C11.2806 70.0367 10.5468 70.5101 9.96287 71.307C8.50316 73.2954 7.05924 75.2995 5.59953 77.2958C4.99197 78.1242 4.9683 78.9212 5.57586 79.7575C7.06713 81.7932 8.53472 83.8447 10.0339 85.8646C10.6335 86.6694 11.4226 87.0324 12.3615 86.4485C13.261 85.8883 13.3557 85.1072 12.9928 84.1209C12.1169 81.7775 13.1111 80.3099 15.6123 80.231C17.293 80.1757 18.9736 80.2231 20.6542 80.2152V80.2231Z" fill="white"/>
<path d="M138.709 71.7812C139.198 68.8066 140.595 66.6446 143.412 65.6584C146.134 64.7036 149.101 65.5637 150.9 67.9071C152.596 70.1085 154.245 72.3572 155.807 74.6612C157.551 77.2334 157.52 79.9004 155.784 82.4647C154.34 84.5951 152.777 86.6387 151.27 88.7217C149.574 91.0573 147.286 92.1777 144.437 91.6569C141.471 91.1204 139.624 89.2425 138.946 86.2757C138.875 85.9759 138.772 85.684 138.646 85.2421C135.908 85.2421 133.178 85.3605 130.456 85.2105C127.173 85.0291 124.648 82.37 124.341 79.0561C124.057 76.0026 126.1 72.9569 129.122 72.089C130.014 71.8365 130.984 71.8049 131.923 71.7891C134.125 71.7497 136.334 71.7733 138.709 71.7733V71.7812ZM136.444 80.216C138.125 80.216 139.798 80.1765 141.479 80.2318C143.972 80.3107 144.982 81.794 144.106 84.1059C143.735 85.0843 143.822 85.8733 144.714 86.4335C145.724 87.0648 146.52 86.6071 147.144 85.7629C148.603 83.7745 150.111 81.8256 151.452 79.7583C151.807 79.2139 151.949 78.1172 151.641 77.6358C150.166 75.3555 148.556 73.1463 146.836 71.0317C146.489 70.6056 145.226 70.3925 144.832 70.6845C144.335 71.0474 143.948 72.1284 144.114 72.7439C144.871 75.5686 144.027 76.831 141.084 76.8547C137.888 76.8784 134.685 76.8705 131.489 76.8547C130.33 76.8547 129.462 77.2887 129.438 78.5117C129.422 79.7268 130.258 80.2318 131.426 80.2239C133.107 80.216 134.78 80.2239 136.46 80.2239L136.444 80.216Z" fill="white"/>
</svg>
