<svg width="156" height="156" viewBox="0 0 156 156" fill="none" xmlns="http://www.w3.org/2000/svg">
<path d="M35.7749 139.29C36.328 140.294 36.9278 141.315 37.4731 142.366C39.0466 145.412 38.1664 148.692 35.2297 150.468C33.0096 151.808 30.7584 153.093 28.4682 154.3C25.4458 155.889 22.0806 154.962 20.3903 151.995C13.8469 140.513 7.34252 129.007 0.869274 117.486C-0.8912 114.347 0.0903033 111.028 3.1984 109.19C5.24709 107.975 7.32694 106.806 9.41458 105.654C12.8031 103.784 16.1059 104.711 18.0612 108.045C18.4818 108.754 18.8791 109.471 19.3387 110.281C19.9073 109.977 20.3981 109.728 20.8732 109.455C27.2218 105.848 33.5237 102.14 39.9424 98.6584C44.7331 96.0645 49.7263 95.8697 54.961 97.7237C61.59 100.068 68.3593 102.031 75.0662 104.142C76.001 104.438 77.0059 104.516 77.925 104.843C82.7391 106.565 85.1928 111.449 83.7517 116.38C83.6583 116.715 83.5726 117.05 83.3856 117.735C84.6086 117.12 85.5823 116.699 86.5015 116.17C94.0809 111.776 101.645 107.367 109.209 102.958C112.683 100.933 116.274 99.2816 120.348 98.8688C125.263 98.3702 129.322 100.754 130.802 105.108C132.367 109.72 130.7 114.417 126.548 116.98C112.698 125.525 98.8092 134 84.9981 142.608C79.779 145.864 74.3729 146.588 68.4761 144.945C59.7984 142.522 51.0506 140.357 42.3884 137.864C39.8334 137.124 37.7769 137.264 35.7594 139.305L35.7749 139.29ZM33.1654 134.717C34.1547 134.164 35.1206 133.759 35.9307 133.151C37.6289 131.882 39.3504 131.858 41.3446 132.411C51.0272 135.091 60.741 137.654 70.4469 140.255C74.2795 141.284 77.9562 140.995 81.3837 138.892C95.6934 130.105 109.995 121.311 124.266 112.462C125.037 111.987 125.738 111.091 126.042 110.234C127.413 106.417 124.679 103.27 120.55 103.792C117.286 104.205 114.443 105.693 111.654 107.321C104.176 111.675 96.6749 115.991 89.2357 120.415C84.8345 123.032 80.1685 123.959 75.1986 122.814C69.6524 121.537 64.1528 120.049 58.6299 118.647C56.0827 118 55.07 116.863 55.5296 115.243C56.0126 113.56 57.3446 113.155 59.9152 113.848C64.4644 115.071 69.0058 116.325 73.5862 117.447C76.3437 118.117 78.595 116.816 79.0779 114.51C79.6076 112.002 78.0107 109.844 75.2142 109.291C74.4508 109.143 73.6797 109.019 72.9396 108.785C66.1314 106.62 59.3232 104.462 52.5462 102.226C49.8899 101.346 47.2648 101.112 44.6396 102.117C43.0505 102.725 41.4614 103.395 39.9814 104.228C34.2092 107.5 28.4838 110.849 22.7428 114.176C22.4468 114.347 22.1897 114.573 21.8703 114.799C25.6405 121.459 29.364 128.033 33.1576 134.733L33.1654 134.717ZM12.8576 109.634C12.4136 109.79 12.2578 109.813 12.1254 109.891C9.95986 111.106 7.76316 112.283 5.66773 113.607C5.34057 113.817 5.18477 114.838 5.39509 115.274C6.20522 116.949 7.19451 118.538 8.1137 120.158C13.4964 129.669 18.8947 139.173 24.2462 148.7C24.8849 149.837 25.4614 150.39 26.7778 149.556C28.4838 148.474 30.2598 147.508 32.0515 146.573C33.2199 145.958 33.4536 145.28 32.7603 144.096C30.922 140.972 29.1771 137.794 27.3932 134.639C22.9297 126.748 18.474 118.857 13.9871 110.982C13.6833 110.452 13.2004 110.024 12.8654 109.626L12.8576 109.634Z" fill="white"/>
<path d="M26.2086 84.7141C11.7665 84.7219 0.0429849 73.0607 0.0274055 58.6342C-0.00375331 44.1376 11.7587 32.3751 26.232 32.3985C40.6507 32.4218 52.3275 44.1454 52.3275 58.5875C52.3275 73.0374 40.6663 84.6986 26.2086 84.7141ZM43.7588 70.1007C48.9078 63.0198 49.0948 50.603 40.1911 42.7276C31.7081 35.2261 18.972 35.7013 11.0576 43.7714C2.91739 52.0753 3.95342 64.1182 8.62724 70.0383C10.6058 65.5125 13.8541 62.2175 18.2475 60.0597C14.267 54.2564 14.4462 48.7569 18.6838 44.675C22.5319 40.9671 28.5533 40.6322 32.7831 43.9117C34.8162 45.493 36.1561 47.5417 36.7403 50.0655C37.6127 53.8202 36.5144 57.0841 34.0528 60.0441C38.5475 62.2564 41.7335 65.5281 43.751 70.0929L43.7588 70.1007ZM26.341 79.7365C30.9603 79.682 35.2369 78.2409 39.046 75.3821C39.7082 74.8835 39.9185 74.4317 39.677 73.5593C37.9944 67.5846 32.456 63.3781 26.1619 63.3859C19.9223 63.3937 14.4384 67.5456 12.7168 73.4502C12.4208 74.4551 12.7168 74.9459 13.4646 75.4989C17.266 78.2798 21.4958 79.7054 26.341 79.7365ZM26.193 58.3226C29.418 58.3226 32.0353 55.7286 32.0509 52.5271C32.0665 49.3411 29.4491 46.7004 26.2553 46.6692C22.9837 46.6381 20.2806 49.3099 20.3196 52.5427C20.3507 55.7442 22.9837 58.3226 26.2008 58.3148L26.193 58.3226Z" fill="white"/>
<path d="M99.2061 11.6161C98.8088 12.5742 98.3648 13.3532 98.1779 14.1945C98.0143 14.9345 98.0455 15.7524 98.1779 16.5003C98.3103 17.1935 98.6141 17.9024 99.0114 18.4944C99.4009 19.0786 99.915 19.7408 100.53 19.9978C103.592 21.2831 103.67 21.3377 103.677 24.6872C103.677 26.0349 103.615 27.3903 103.693 28.7301C103.786 30.4516 102.969 31.4097 101.418 32.0018C98.505 33.1079 97.2197 36.1537 98.5284 38.9813C99.2451 40.5237 99.0581 41.7311 97.8118 42.884C96.5576 44.0447 95.3502 45.2676 94.1818 46.514C93.0678 47.698 91.7669 48.1031 90.4349 47.1761C88.0435 45.5169 86.2363 47.4176 84.2577 48.0719C83.8292 48.2121 83.6579 49.2092 83.4164 49.8324C82.5751 51.959 82.0921 52.3095 79.8565 52.3173C78.2985 52.3173 76.7406 52.3173 75.1905 52.3173C72.9938 52.3173 72.2537 52.0213 71.7474 49.9648C71.0775 47.2073 68.5848 47.3163 66.7542 46.4517C66.2479 46.2102 65.243 46.9346 64.4952 47.2852C63.1476 47.9161 62.0103 47.7058 60.9742 46.6308C59.7201 45.3222 58.4348 44.0291 57.1183 42.7827C55.9888 41.7077 55.5915 40.4302 56.4874 39.1605C58.1622 36.7846 56.3082 34.9619 55.6694 32.9677C55.5448 32.5938 54.7425 32.399 54.2206 32.1965C51.5175 31.1137 51.3617 30.9034 51.3617 27.9667C51.3617 26.51 51.4085 25.0611 51.3462 23.6123C51.2838 21.992 51.8837 20.7768 53.5039 20.4886C56.3627 19.9823 56.3705 17.3883 57.2196 15.4876C57.4611 14.9579 56.7912 13.953 56.4328 13.2208C55.7551 11.8186 55.9655 10.6502 57.1028 9.5752C58.3881 8.3678 59.6422 7.12145 60.8418 5.83615C61.9557 4.64432 63.2333 4.24705 64.5809 5.17402C66.9567 6.80207 68.8029 5.01044 70.7503 4.27042C71.2956 4.06788 71.5137 2.86827 71.7786 2.09709C72.2849 0.609253 73.282 -0.0372923 74.8399 0.00165618C76.4991 0.0483944 78.1583 0.00165618 79.8175 0.00944589C81.9831 0.00944589 82.7776 0.344403 83.2684 2.36973C83.9383 5.11949 86.4154 5.05718 88.2538 5.89846C88.7679 6.13994 89.7728 5.42329 90.5128 5.07275C91.8604 4.434 92.9977 4.63653 94.0338 5.71151C95.3268 7.05913 96.7056 8.32885 97.9676 9.69984C98.4661 10.2373 98.7699 10.9618 99.175 11.6317L99.2061 11.6161ZM78.9685 47.293C79.132 46.9346 79.3034 46.662 79.3735 46.366C79.8253 44.5042 80.9782 43.4994 82.8711 43.0865C84.0084 42.845 85.1223 42.2842 86.1428 41.6844C87.4281 40.921 88.6744 40.773 89.952 41.5286C90.9335 42.105 91.6345 42.0816 92.507 41.1858C93.3405 40.3368 93.5196 39.659 92.912 38.6464C92.1486 37.3845 92.2577 36.1381 93.0133 34.8294C93.6599 33.7155 94.2285 32.5081 94.5245 31.2695C94.9218 29.6337 95.7319 28.5353 97.3833 28.1692C98.5206 27.9122 98.7076 27.2111 98.7309 26.1517C98.7543 25.0456 98.4349 24.4224 97.3522 24.1575C95.7864 23.7758 94.9451 22.771 94.5635 21.1741C94.283 19.9823 93.7689 18.7982 93.1457 17.7466C92.2966 16.3133 92.0785 14.9345 92.9977 13.5168C93.6676 12.4886 93.1691 11.8887 92.4758 11.1331C91.7046 10.2841 91.0269 10.175 90.0766 10.7515C88.7601 11.546 87.4826 11.4447 86.1272 10.6424C85.0211 9.98806 83.8059 9.4272 82.5673 9.13898C80.8925 8.75729 79.8799 7.84589 79.4982 6.24121C79.2411 5.17402 78.6413 4.91696 77.6053 4.94812C76.6004 4.97928 75.8292 5.03381 75.5566 6.24121C75.1982 7.85368 74.1622 8.76508 72.4874 9.13898C71.2956 9.41162 70.1116 9.93353 69.06 10.5723C67.6111 11.4447 66.2479 11.5772 64.8301 10.6736C63.8954 10.0815 63.28 10.4009 62.5711 11.1331C61.8545 11.881 61.3871 12.4886 62.0492 13.5168C62.9684 14.9345 62.7581 16.3133 61.9012 17.7466C61.2936 18.7593 60.7717 19.881 60.5224 21.0261C60.1485 22.7554 59.2293 23.8459 57.5468 24.2121C56.3861 24.4613 56.316 25.1858 56.3316 26.1439C56.3472 27.0709 56.3238 27.8421 57.5156 28.1069C59.1748 28.473 60.1719 29.5168 60.5069 31.2773C60.7016 32.2744 61.1067 33.3026 61.6675 34.1439C62.7892 35.8421 62.9918 37.4857 61.8856 39.215C61.2625 40.1965 62.0648 40.6094 62.5711 41.1469C63.1008 41.7077 63.5682 42.3854 64.5186 41.7779C66.1933 40.7029 67.8214 40.8587 69.4417 41.9882C70.0259 42.3932 70.7347 42.736 71.428 42.8528C73.9051 43.2657 75.4086 44.6445 75.985 47.0671C76.0006 47.145 76.1252 47.1995 76.2343 47.2852H78.9607L78.9685 47.293Z" fill="white"/>
<path d="M128.832 84.7143C114.429 84.6987 102.736 72.9908 102.736 58.572C102.736 44.1221 114.546 32.3597 129.003 32.4064C143.352 32.4531 155.068 44.2779 155.036 58.6655C155.005 73.0375 143.243 84.7298 128.832 84.7143ZM128.933 79.7211C140.524 79.7055 150.02 70.2254 150.051 58.6421C150.082 46.9965 140.54 37.4152 128.91 37.3996C117.264 37.384 107.73 46.9342 107.737 58.5876C107.737 70.2644 117.241 79.7289 128.941 79.7211H128.933Z" fill="white"/>
<path d="M102.525 74.0499C101.886 74.9224 101.528 75.6935 100.928 76.1765C96.2855 79.9156 91.6039 83.6079 86.9145 87.2846C85.4578 88.4297 84.0401 88.3129 83.0897 87.0665C82.1783 85.8825 82.4042 84.5115 83.783 83.4131C88.488 79.6663 93.1774 75.9039 97.9603 72.2739C98.638 71.7597 99.9545 71.6507 100.788 71.9233C101.473 72.1492 101.879 73.2164 102.517 74.0577L102.525 74.0499Z" fill="white"/>
<path d="M70.2767 88.4076C69.3419 87.9168 68.6486 87.6675 68.1034 87.2391C63.4529 83.5935 58.818 79.9324 54.1909 76.2478C52.7654 75.1183 52.5006 73.6538 53.4353 72.4776C54.3701 71.3014 55.8657 71.2235 57.2835 72.3452C61.9651 76.0297 66.6389 79.7376 71.3049 83.4377C72.2786 84.2089 72.9018 85.2371 72.2553 86.4134C71.8268 87.1846 70.9778 87.7221 70.2767 88.4076Z" fill="white"/>
<path d="M75.0338 69.7118C75.0338 67.0166 75.0182 64.3214 75.0338 61.6261C75.0494 59.8033 76.0153 58.7439 77.5732 58.7751C79.0688 58.8062 79.9958 59.8345 80.0036 61.5872C80.0192 67.0322 80.027 72.4694 80.0036 77.9144C80.0036 79.6515 79.0377 80.6797 77.5421 80.6875C76.0309 80.6953 75.0572 79.6749 75.0338 77.9533C75.0026 75.2036 75.026 72.4616 75.026 69.7118H75.0338Z" fill="white"/>
<path d="M77.5439 39.8379C70.0269 39.8379 63.873 33.6997 63.8574 26.1826C63.8496 18.6811 70.0113 12.4961 77.5128 12.4883C85.0221 12.4883 91.1993 18.6499 91.1993 26.1514C91.1993 33.6685 85.0532 39.8302 77.5362 39.8379H77.5439ZM77.5439 34.8447C82.3035 34.8447 86.245 30.8798 86.2139 26.1203C86.1905 21.4231 82.3112 17.536 77.6063 17.4815C72.8623 17.4347 68.874 21.3763 68.8584 26.1358C68.8428 30.9031 72.7766 34.8525 77.5439 34.8447Z" fill="white"/>
<path d="M131.494 44.7459C134.407 45.5561 136.573 47.2075 137.882 49.8871C138.676 51.5074 138.294 52.9407 136.916 53.6262C135.591 54.2805 134.376 53.782 133.465 52.2085C131.969 49.6301 129.157 48.7343 126.532 49.9962C125.371 50.5493 124.592 51.4139 124.577 52.7537C124.561 54.0858 125.434 54.857 126.571 55.2465C127.786 55.6671 129.071 55.8852 130.31 56.2513C131.595 56.633 132.92 56.9602 134.127 57.5288C137.383 59.079 139.144 61.6574 138.887 65.3497C138.653 68.8005 136.425 70.709 133.442 71.8541C132.257 72.3059 131.229 72.4695 131.198 74.191C131.175 75.414 130.022 76.0917 128.705 75.9982C127.389 75.9048 126.485 75.1258 126.462 73.8561C126.446 72.6642 125.94 72.3137 124.935 71.9787C122.069 71.0206 120.043 69.1121 119.054 66.2144C118.501 64.5785 119.038 63.1764 120.339 62.6623C121.78 62.0936 123.042 62.7635 123.736 64.4539C125.107 67.8113 130.668 68.9018 133.231 66.3234C134.337 65.2095 134.182 63.3322 132.686 62.4597C131.549 61.7976 130.209 61.4704 128.931 61.0654C127.404 60.5824 125.792 60.3253 124.335 59.6944C121.399 58.4091 119.607 56.1656 119.576 52.8394C119.545 49.4198 121.297 47.0751 124.257 45.5483C124.896 45.2211 125.589 44.9952 126.252 44.7226C126.594 42.0974 127.272 41.1549 128.822 41.1237C130.411 41.0926 131.206 42.1442 131.478 44.7537L131.494 44.7459Z" fill="white"/>
</svg>
