<svg width="437" height="59" viewBox="0 0 437 59" fill="none" xmlns="http://www.w3.org/2000/svg">
<path d="M0 29.5C0 13.1872 13.1364 0 29.3863 0C45.6363 0 58.773 13.1872 58.773 29.5C58.773 45.8128 45.6363 59 29.3863 59C13.1364 59 0 45.8128 0 29.5ZM44.3453 29.5C44.3453 21.1914 37.6633 14.3306 29.3863 14.3306C21.1097 14.3306 14.4273 21.1914 14.4273 29.5C14.4273 37.8086 21.1097 44.6695 29.3863 44.6695C37.6633 44.6695 44.3453 37.8086 44.3453 29.5Z" fill="#242424"/>
<path d="M120.102 57.478H110.774L108.954 44.9932C107.892 37.6083 104.859 34.1068 98.0331 34.1068H80.2874V57.478H71.5664V1.52344H99.3983C112.29 1.52344 119.343 7.53757 119.343 17.3579C119.343 24.5139 115.475 29.0056 109.56 30.8329C114.035 32.5836 116.613 36.0099 117.675 42.7088L120.102 57.478ZM80.2874 26.8743H98.8673C106.451 26.8743 110.319 23.9809 110.319 18.0434C110.319 12.0292 106.451 9.1359 98.8673 9.1359H80.2874V26.8743Z" fill="#242424"/>
<path d="M129.426 29.6901C129.426 13.0177 142.091 0 159.153 0C176.52 0 188.578 12.713 188.578 29.3094C188.578 45.9818 175.989 58.9995 158.851 58.9995C141.56 58.9995 129.426 46.2866 129.426 29.6901ZM179.553 29.4618C179.553 17.357 170.984 8.06965 159.002 8.06965C147.02 8.06965 138.526 17.357 138.526 29.5377C138.526 41.7183 147.096 50.9299 159.002 50.9299C171.06 50.9299 179.553 41.7183 179.553 29.4618Z" fill="#242424"/>
<path d="M240.217 57.4764L221.03 27.4816L209.655 38.2921V57.4764H200.934V1.52188H209.655V28.471L238.473 1.44531H249.318L227.932 21.848L250.607 57.4764H240.217Z" fill="#242424"/>
<path d="M253.637 29.6901C253.637 13.0177 266.302 0 283.365 0C300.732 0 312.789 12.713 312.789 29.3094C312.789 45.9818 300.201 58.9995 283.062 58.9995C265.771 58.9995 253.637 46.2866 253.637 29.6901ZM303.765 29.4618C303.765 17.357 295.195 8.06965 283.213 8.06965C271.231 8.06965 262.737 17.357 262.737 29.5377C262.737 41.7183 271.307 50.9299 283.213 50.9299C295.271 50.9299 303.765 41.7183 303.765 29.4618Z" fill="#242424"/>
<path d="M364.428 57.4764L345.241 27.4816L333.866 38.2921V57.4764H325.145V1.52188H333.866V28.471L362.684 1.44531H373.529L352.143 21.848L374.818 57.4764H364.428Z" fill="#242424"/>
<path d="M377.848 29.6901C377.848 13.0177 390.512 0 407.576 0C424.943 0 437 12.713 437 29.3094C437 45.9818 424.412 58.9995 407.272 58.9995C389.981 58.9995 377.848 46.2866 377.848 29.6901ZM427.976 29.4618C427.976 17.357 419.406 8.06965 407.424 8.06965C395.442 8.06965 386.948 17.357 386.948 29.5377C386.948 41.7183 395.518 50.9299 407.424 50.9299C419.482 50.9299 427.976 41.7183 427.976 29.4618Z" fill="#242424"/>
</svg>
