<svg width="562" height="141" viewBox="0 0 562 141" fill="none" xmlns="http://www.w3.org/2000/svg">
<path fill-rule="evenodd" clip-rule="evenodd" d="M111.168 80.7683C109.973 86.5521 104.652 101.387 87.6948 109.423L80.8898 101.745L69.4064 113.33C62.868 113.242 56.4384 111.638 50.6201 108.645C44.8018 105.652 39.7524 101.351 35.8664 96.0765C37.0881 96.4576 38.3498 96.6952 39.6262 96.7846C41.506 96.8187 43.5433 96.1277 43.5433 92.9458V61.7024C43.5714 60.8984 43.4111 60.0991 43.0752 59.3685C42.7394 58.6379 42.2373 57.9965 41.6095 57.4959C40.9816 56.9952 40.2454 56.6492 39.4599 56.4856C38.6745 56.3221 37.8618 56.3456 37.0871 56.5542C31.7707 57.7741 27.5176 71.0861 27.5176 71.0861C27.4585 64.9387 28.7351 58.8522 31.2588 53.2497C33.7825 47.6473 37.4926 42.6632 42.1313 38.6442C50.0505 31.9135 57.7869 29.5847 63.6647 28.6719C57.8592 31.9903 54.5929 37.4072 54.5929 41.954C54.5929 49.2435 58.9821 48.3819 60.2835 47.307V89.4994C60.5035 90.0295 60.7893 90.5297 61.1341 90.988C61.7155 91.7943 62.4812 92.4491 63.3671 92.8973C64.2529 93.3456 65.2329 93.5743 66.2251 93.5643C70.6228 93.5643 76.3262 88.5312 76.3262 88.5312V54.3661C76.3262 50.8899 73.7148 46.6885 71.0992 45.2554C71.0992 45.2554 75.9392 44.4023 79.6819 47.2643C80.3838 46.4023 81.1306 45.5779 81.9191 44.7947C90.6209 36.2215 98.8336 33.7902 105.673 32.5704C105.673 32.5704 93.2238 42.3806 93.2238 55.5177C93.2238 65.2981 93.4747 89.1454 93.4747 89.1454C98.1064 93.6069 104.967 87.1663 111.168 80.7683Z" fill="black"/>
<path fill-rule="evenodd" clip-rule="evenodd" d="M69.9558 0.863282C56.1684 0.864129 42.691 4.96025 31.2277 12.6337C19.7644 20.3071 10.8302 31.2132 5.55475 43.9727C0.279347 56.7323 -1.10028 70.7723 1.59032 84.3173C4.28093 97.8623 10.9209 110.304 20.6706 120.069C30.4204 129.834 42.8419 136.483 56.3645 139.177C69.8871 141.87 83.9033 140.487 96.6409 135.201C109.378 129.915 120.265 120.964 127.924 109.481C135.583 97.9974 139.671 84.4967 139.67 70.6862C139.67 61.5162 137.867 52.436 134.363 43.9642C130.86 35.4923 125.724 27.7947 119.251 21.3109C112.777 14.8271 105.092 9.68421 96.6336 6.17578C88.1756 2.66735 79.1104 0.862157 69.9558 0.863282ZM69.9558 137.722C56.7195 137.722 43.7802 133.792 32.7743 126.426C21.7683 119.061 13.19 108.592 8.1241 96.3425C3.05822 84.0935 1.73232 70.6148 4.31407 57.6109C6.89582 44.607 13.2693 32.6621 22.6284 23.2866C31.9876 13.9111 43.9121 7.52619 56.8939 4.93927C69.8758 2.35235 83.332 3.67962 95.5608 8.75324C107.79 13.8269 118.242 22.4189 125.595 33.4429C132.949 44.4669 136.874 57.4277 136.874 70.6862C136.874 88.4644 129.824 105.514 117.275 118.086C104.725 130.657 87.7041 137.72 69.9558 137.722Z" fill="black"/>
<path fill-rule="evenodd" clip-rule="evenodd" d="M288.402 117.594H257.277V89.1074H287.913V95.4166H265.605V100.267H286.723V106.218H265.618V111.125H288.402V117.607V117.594Z" fill="black"/>
<path fill-rule="evenodd" clip-rule="evenodd" d="M467.479 117.595H436.844V89.5586H467.002V95.738H445.054V100.508H465.837V106.36H445.054V111.193H467.479V117.576V117.595Z" fill="black"/>
<path fill-rule="evenodd" clip-rule="evenodd" d="M330.607 117.594H318.015L301.434 96.2879H301.273V117.594H293.031V89.1074H305.827L322.204 110.439H322.365V89.1074H330.625V117.594H330.607Z" fill="black"/>
<path fill-rule="evenodd" clip-rule="evenodd" d="M430.405 117.594H417.814L401.233 96.2879H401.071V117.594H392.793V89.1074H405.589L421.966 110.439H422.127V89.1074H430.405V117.594Z" fill="black"/>
<path fill-rule="evenodd" clip-rule="evenodd" d="M354.938 117.972C352.298 117.972 350.026 117.906 348.122 117.774C346.468 117.69 344.827 117.446 343.221 117.045C342.043 116.752 340.934 116.234 339.955 115.519C339.098 114.853 338.425 113.981 337.997 112.985C337.482 111.779 337.154 110.502 337.024 109.197C336.85 107.448 336.77 105.69 336.783 103.932V103.098C336.77 101.328 336.855 99.5576 337.037 97.7963C337.159 96.4864 337.481 95.2028 337.991 93.9898C338.425 92.9978 339.1 92.1292 339.955 91.4624C340.935 90.7519 342.047 90.2435 343.227 89.967C344.829 89.5689 346.467 89.3268 348.116 89.244C350.037 89.1204 352.309 89.0586 354.932 89.0586H356.171C358.369 89.0586 360.294 89.106 361.946 89.2007C363.376 89.2715 364.799 89.445 366.203 89.7198C367.231 89.9118 368.223 90.2576 369.147 90.7456C369.89 91.1392 370.527 91.705 371.006 92.3955C371.479 93.1243 371.798 93.9425 371.941 94.7993C372.127 95.8788 372.214 96.9729 372.201 98.0682V99.1619H364.146V98.8159C364.162 98.2568 364.058 97.7008 363.842 97.1845C363.59 96.7001 363.17 96.3243 362.659 96.1278C361.865 95.8214 361.03 95.634 360.18 95.5717C359.115 95.4687 357.71 95.4151 355.967 95.411H355.26C353.678 95.411 352.327 95.4378 351.208 95.4914C350.268 95.5239 349.332 95.6418 348.413 95.8436C347.776 95.9795 347.175 96.2468 346.647 96.6284C346.196 96.9856 345.857 97.4636 345.668 98.0064C345.435 98.7056 345.297 99.4331 345.259 100.169C345.197 101.028 345.166 102.06 345.166 103.259V103.766C345.166 104.946 345.197 105.953 345.259 106.793C345.299 107.515 345.436 108.228 345.668 108.913C345.857 109.452 346.197 109.926 346.647 110.279C347.175 110.66 347.776 110.928 348.413 111.063C349.332 111.265 350.268 111.383 351.208 111.416C352.327 111.473 353.678 111.5 355.26 111.496H355.967C357.256 111.496 358.365 111.496 359.294 111.428C360.224 111.36 361.011 111.304 361.649 111.206C362.174 111.132 362.687 110.989 363.173 110.779C363.521 110.624 363.825 110.387 364.059 110.087C364.273 109.801 364.415 109.469 364.475 109.117C364.543 108.684 364.576 108.246 364.574 107.807V107.016H353.612V101.516H372.53V107.844C372.543 109.05 372.454 110.255 372.263 111.447C372.11 112.391 371.783 113.298 371.297 114.122C370.829 114.875 370.193 115.51 369.438 115.976C368.511 116.528 367.5 116.926 366.445 117.156C365.018 117.478 363.568 117.684 362.107 117.774C360.422 117.898 358.464 117.96 356.221 117.96L354.938 117.972Z" fill="black"/>
<path fill-rule="evenodd" clip-rule="evenodd" d="M386.719 117.662H378.348V89.3848H386.719V117.662Z" fill="black"/>
<path fill-rule="evenodd" clip-rule="evenodd" d="M193.095 74.1834C189.046 74.1834 185.498 74.0742 182.449 73.8559C179.792 73.701 177.152 73.3311 174.555 72.7498C172.622 72.3338 170.767 71.6164 169.059 70.6241C167.658 69.7828 166.469 68.6329 165.582 67.2625C164.668 65.7924 164.047 64.1599 163.754 62.4549C163.372 60.3053 163.194 58.1247 163.222 55.9418V23.8089H177.907V51.196C177.907 52.8892 177.967 54.3434 178.087 55.5587C178.171 56.6191 178.415 57.6608 178.812 58.6484C179.146 59.4669 179.691 60.183 180.392 60.7247C181.212 61.3123 182.141 61.7323 183.125 61.9605C184.494 62.3063 185.896 62.5133 187.307 62.5785C188.968 62.6712 190.938 62.7206 193.237 62.7206H194.476C196.769 62.7206 198.744 62.6671 200.4 62.5599C201.811 62.4892 203.213 62.2928 204.589 61.9729C205.575 61.7526 206.506 61.3319 207.322 60.737C208.013 60.188 208.554 59.4738 208.896 58.6607C209.297 57.6744 209.544 56.6323 209.627 55.571C209.742 54.3352 209.8 52.8933 209.8 51.2455V23.8027H224.492V55.9356C224.513 58.1106 224.348 60.2835 223.996 62.4302C223.724 64.1391 223.12 65.7785 222.218 67.2563C221.346 68.6253 220.169 69.7756 218.779 70.6179C217.075 71.6113 215.224 72.3288 213.295 72.7436C210.688 73.3264 208.037 73.6964 205.37 73.8497C202.292 74.0639 198.709 74.1731 194.619 74.1772L193.095 74.1834Z" fill="black"/>
<path fill-rule="evenodd" clip-rule="evenodd" d="M300.008 73.5712H278.047L249.135 36.3095H248.85V73.5712H234.449V23.7344H256.756L285.316 61.0332H285.595V23.7344H299.995V73.5465L300.008 73.5712Z" fill="black"/>
<path fill-rule="evenodd" clip-rule="evenodd" d="M343.303 48.8984C345.837 48.8984 347.851 48.8243 349.357 48.6698C350.554 48.6001 351.722 48.2689 352.777 47.6996C353.531 47.2457 354.078 46.5163 354.301 45.6666C354.568 44.5351 354.689 43.3743 354.661 42.2123V41.3534C354.687 40.2058 354.567 39.0594 354.301 37.9424C354.193 37.522 354.001 37.1279 353.735 36.7838C353.47 36.4397 353.138 36.1528 352.759 35.9402C351.69 35.393 350.519 35.0751 349.32 35.0071C347.814 34.8527 345.812 34.7785 343.303 34.7785H324.998V48.8984H343.303ZM369.452 73.5728H354.94V69.5315C354.95 68.2769 354.892 67.0227 354.766 65.7744C354.681 64.8485 354.427 63.946 354.016 63.1111C353.649 62.3986 353.1 61.7954 352.424 61.3623C351.589 60.8607 350.669 60.5152 349.71 60.3427C348.341 60.0727 346.953 59.9115 345.558 59.8607C343.906 59.7742 341.948 59.7309 339.684 59.7309H324.998V73.5728H310.449V23.7359H349.196C352.558 23.6808 355.918 23.9332 359.234 24.4898C361.47 24.8308 363.593 25.6947 365.43 27.011C366.948 28.2013 368.048 29.8414 368.572 31.695C369.201 34.0438 369.493 36.4696 369.439 38.9002V40.6489C369.46 42.3716 369.306 44.092 368.981 45.784C368.72 47.1273 368.214 48.4112 367.488 49.572C366.804 50.6298 365.896 51.5261 364.829 52.1982C363.593 52.9481 362.237 53.4811 360.82 53.774V54.0582C362.29 54.2733 363.733 54.6398 365.127 55.152C366.181 55.5368 367.101 56.2197 367.773 57.117C368.471 58.1385 368.921 59.3087 369.086 60.5342C369.348 62.3201 369.467 64.1241 369.439 65.9289V73.5481L369.452 73.5728Z" fill="black"/>
<path fill-rule="evenodd" clip-rule="evenodd" d="M433.269 73.5712H378.988V23.7344H432.414V34.7522H393.531V43.2242H430.357V53.6303H393.531V62.2135H433.269V73.5465V73.5712Z" fill="black"/>
<path fill-rule="evenodd" clip-rule="evenodd" d="M482.343 54.2672L472.162 34.2768H471.803L461.697 54.2672H482.343ZM508.046 73.6087H492.208L487.629 64.6671H456.479L451.974 73.6087H436.254L463.078 23.8027H481.104L508.046 73.6087Z" fill="black"/>
<path fill-rule="evenodd" clip-rule="evenodd" d="M561.539 73.6087H513.43V23.8027H528.115V62.0471H561.539V73.6334V73.6087Z" fill="black"/>
</svg>
