<svg width="156" height="155" viewBox="0 0 156 155" fill="none" xmlns="http://www.w3.org/2000/svg">
<path d="M30.0482 134.276V144.847H25.1788V75.0116H30.0656C26.6431 70.4368 23.42 66.1479 20.0495 61.6424C16.731 66.07 13.4992 70.3588 10.1027 74.8903H14.9635V134.874H10.1201V80.037H0C6.79291 70.974 13.3606 62.2143 20.0322 53.3159C21.6871 55.508 23.2727 57.6135 25.1009 60.0308C24.8842 46.7396 30.6114 37.4427 42.5164 31.8281C37.2744 27.6605 34.6057 22.3319 35.2642 15.6516C35.7321 10.8862 37.9415 6.94386 41.6586 3.90265C48.9107 -2.01516 59.4727 -1.08806 65.7197 5.90413C71.5855 12.4718 72.426 24.1688 63.0164 31.6722C65.3645 33.1971 67.7212 34.7567 70.1212 36.2556C70.3898 36.4203 70.9184 36.3423 71.2563 36.2123C75.5278 34.5574 79.7734 34.5661 84.045 36.221C84.3829 36.3509 84.9028 36.4029 85.1714 36.2296C87.5368 34.748 89.8588 33.2144 92.2762 31.6462C87.4414 27.8165 84.7988 22.7391 85.18 16.3448C85.4573 11.7353 87.3461 7.80164 90.7599 4.68245C97.7954 -1.74656 108.392 -1.47796 115.02 5.15899C121.311 11.4667 122.931 23.7702 112.82 31.8714C124.517 37.356 130.296 46.5836 130.157 59.8576C131.907 57.5442 133.432 55.5427 135.104 53.3332C141.733 62.171 148.3 70.922 155.05 79.9244H145.138V134.84H140.191V75.029H145.112C141.698 70.4715 138.475 66.1739 135.104 61.6684C131.795 66.0786 128.563 70.3762 125.158 74.899H130.001V144.882H125.14V134.363C111.953 148.018 96.2098 154.958 77.564 154.932C58.9701 154.906 43.2615 147.983 30.0482 134.294V134.276ZM100.109 98.7262C100.109 96.4388 100.178 94.3073 100.1 92.1845C99.7363 83.1302 95.586 76.3026 87.4848 72.317C79.3662 68.3227 71.3603 69.1632 64.0995 74.5611C55.9809 80.6002 54.326 89.178 55.3137 98.7522C56.6567 98.3276 57.9737 97.8684 59.3167 97.4958C62.6352 96.5514 62.6438 96.5687 62.6438 93.0423C62.6438 88.7361 62.6438 84.4299 62.6438 80.063H67.6692V95.2777H87.6667V80.0803H92.6314C92.6314 85.2443 92.6141 90.287 92.6661 95.3297C92.6661 95.8236 93.004 96.6207 93.3679 96.7507C95.5254 97.4785 97.7348 98.0504 100.126 98.7262H100.109ZM61.6388 70.1076H32.6389C35.1169 73.4174 37.4737 76.5626 40.0383 79.9937H30.2129V115.561C30.854 114.877 31.2699 114.417 31.7118 113.976C36.6159 109.02 42.1265 104.878 48.4168 101.845C49.8118 101.17 50.1671 100.381 50.2017 98.8908C50.3144 94.5933 50.2277 90.2177 51.0248 86.0155C52.2725 79.4392 56.1195 74.2838 61.6474 70.0989L61.6388 70.1076ZM115.15 79.933C117.68 76.5452 120.046 73.3741 122.498 70.0989H93.6452C94.347 70.6794 94.8669 71.104 95.3781 71.5459C100.438 75.8694 103.713 81.302 104.658 87.8697C105.204 91.708 105.03 95.6503 105.082 99.5493C105.1 100.572 105.42 101.048 106.313 101.577C109.934 103.717 113.599 105.822 116.996 108.274C119.838 110.319 122.333 112.841 124.993 115.171V79.9417H115.15V79.933ZM125.106 64.9176C125.106 62.4655 125.106 60.1868 125.106 57.8994C125.071 43.5598 113.097 33.2058 98.9391 35.3112C95.4127 35.8397 92.2069 37.2001 89.3996 39.3748C96.8857 47.7447 97.033 56.2012 90.2054 64.8743H112.681V45.0674H117.637V64.9262H125.114L125.106 64.9176ZM65.919 39.4095C65.4165 39.0456 65.0179 38.725 64.5847 38.4477C56.0675 33.0065 44.7345 34.1155 37.3177 41.0211C30.2389 47.5974 29.5457 55.9932 30.3082 64.8743H37.7163V45.0674H42.6637V64.8743H65.0785C58.1903 54.6676 58.3983 47.9786 65.9017 39.4095H65.919ZM52.6451 124.875C52.6191 138.626 63.7702 149.89 77.4773 149.942C91.2971 150.002 102.596 138.808 102.622 125.023C102.648 111.272 91.4877 100.009 77.7893 99.9565C63.9522 99.9046 52.6797 111.082 52.6538 124.867L52.6451 124.875ZM77.538 64.9696C84.4349 65.0129 90.0928 59.407 90.1188 52.5274C90.1361 45.6912 84.5995 40.0593 77.7979 39.99C70.8924 39.9207 65.1912 45.4833 65.1392 52.3542C65.0872 59.2597 70.6584 64.9349 77.538 64.9782V64.9696ZM40.151 17.4365C40.125 24.3334 45.7395 29.9739 52.6278 29.9826C59.4467 29.9826 65.0785 24.42 65.1305 17.6184C65.1825 10.7129 59.6113 5.03769 52.7317 4.99437C45.8348 4.95971 40.177 10.5483 40.151 17.4365ZM90.1274 17.4365C90.1101 24.3334 95.7246 29.9739 102.604 29.9739C109.423 29.9739 115.055 24.4114 115.098 17.6098C115.15 10.7042 109.579 5.02903 102.691 4.99437C95.794 4.95971 90.1361 10.5569 90.1188 17.4365H90.1274ZM99.1211 145.956C99.6323 145.817 99.8316 145.783 100.014 145.713C109.484 141.91 117.42 136.027 123.858 128.116C125.617 125.95 125.548 123.836 123.728 121.6C118.278 114.937 111.693 109.695 103.956 105.918C102.483 105.199 100.958 104.592 99.4503 103.925C111.078 116.731 109.64 134.857 99.1211 145.947V145.956ZM56.0329 103.994C55.643 104.098 55.4004 104.133 55.1751 104.228C45.6529 108.058 37.6903 113.984 31.2699 121.982C29.6497 124 29.771 126.123 31.4952 128.237C37.8029 135.966 45.5836 141.736 54.7939 145.549C55.1404 145.687 55.513 145.765 56.1022 145.93C45.2717 134.398 44.5092 116.367 56.0329 103.994Z" fill="white"/>
<path d="M14.972 140.029V144.864H10.1719V140.029H14.972Z" fill="white"/>
<path d="M140.174 144.839V140.021H144.974V144.839H140.174Z" fill="white"/>
<path d="M14.972 150.028V154.863H10.1719V150.028H14.972Z" fill="white"/>
<path d="M140.217 150.002H145V154.863H140.217V150.002Z" fill="white"/>
<path d="M57.6446 124.884C57.6706 113.924 66.6816 104.956 77.6594 104.965C88.6373 104.974 97.6136 113.967 97.6136 124.945C97.6136 136.001 88.5853 144.986 77.5208 144.943C66.5603 144.899 57.6186 135.871 57.6446 124.876V124.884ZM77.7114 109.964C69.4629 109.93 62.6786 116.645 62.644 124.876C62.6093 133.124 69.3242 139.908 77.5555 139.943C85.804 139.978 92.5882 133.263 92.6229 125.032C92.6576 116.774 85.9513 109.999 77.7114 109.964Z" fill="white"/>
<path d="M87.6144 124.963C87.6144 130.473 83.0916 134.97 77.581 134.944C72.0791 134.927 67.5996 130.387 67.6429 124.867C67.6775 119.426 72.1571 114.973 77.5983 114.964C83.1176 114.955 87.6231 119.443 87.6144 124.963ZM82.615 124.98C82.6324 122.268 80.3969 119.998 77.685 119.963C74.9643 119.929 72.6856 122.138 72.6249 124.85C72.573 127.631 74.8517 129.953 77.633 129.953C80.3449 129.953 82.5977 127.692 82.615 124.989V124.98Z" fill="white"/>
</svg>
