<svg width="449" height="449" viewBox="0 0 449 449" fill="none" xmlns="http://www.w3.org/2000/svg">
<g filter="url(#filter0_i_166_2)">
<circle cx="224.5" cy="224.5" r="224.5" fill="#D7D7D7" fill-opacity="0.4"/>
</g>
<path d="M304.5 21.5C316.667 32.8333 335.4 68.7 313 121.5" stroke="#FF9B9B" stroke-opacity="0.6"/>
<path d="M99 107.501C126 91.0007 204.4 71.6007 302 126.001" stroke="#FF9B9B" stroke-opacity="0.6"/>
<path d="M317 133C405.5 142 515 75 390 71.5" stroke="#FF9B9B" stroke-opacity="0.6"/>
<g opacity="0.8">
<path d="M34.5 280.5L33 271.5C34.3333 271.5 37.3 270.3 38.5 265.5C38.6667 267.667 39.2 272 40 272C41.3333 272 44 271.9 44 271.5C44 271.1 47 271.333 48.5 271.5C48.6667 273.333 50.2 276.5 55 274.5L58 274L59 276H62V274H65V280.5C68.3333 282 75.6 286.6 78 293C83.5 293.667 95.2 296.7 98 303.5L105.5 310C106.5 311 107 314.3 101 319.5L102 320L107.5 316L108.5 323.5C110.667 321 115.7 316.9 118.5 320.5L131 329C134.5 329.5 141.5 330 141.5 328C144 331 150.1 337.2 154.5 338C160 339 164 346.5 157.5 355.5C155.833 358.667 152.9 367.8 154.5 379V390C153.833 391.833 151.3 395.5 146.5 395.5C145.5 397 144.9 400.8 150.5 404C152.833 405.5 157.1 411.7 155.5 424.5C156.833 427 161.3 432.8 168.5 436C161 433.167 142.3 425.1 127.5 415.5C117 409.5 104 401 98 390C90 379.667 71.4 357.1 61 349.5C55.5 346.667 43.1 335.3 37.5 312.5V297C36.8333 292.167 32 286 29 283C27 283.333 21.9 282.9 17.5 278.5C15.5 272.333 10.9 259.5 8.5 257.5C6.33333 254.5 1.9 247.4 1.5 243C2.5 241.667 4.6 238 5 234C6.83333 228.333 11.5 221.999 17.5 222C20 222.667 26.1 225.7 30.5 232.5L31 240.5C32.5 238.667 35.8 235.1 37 235.5C38.1667 235.167 40.7 235.9 41.5 241.5H49C50.3333 242.167 52.1 243.6 48.5 244L27.5 243C26.5 243.667 23.9 244.9 21.5 244.5C20.5 243.302 19.6 241.124 24 242L29 239.5C29.6237 238.253 30.2181 235.926 28 235.958C27.6611 236.037 27.2609 236.097 26.8583 236.112C26.0909 236.213 25.6405 236.269 26.702 236.115C25.376 236.121 24.1062 235.586 25 233.5C21.8333 229.5 15.1 222.6 13.5 227C10.3333 230.167 5.2 239.4 10 251C10.6667 252.5 13.3 255.3 18.5 254.5C18.3333 261.333 19.1 275.7 23.5 278.5C23.3333 279.5 23.9 281.3 27.5 280.5H31C31.8333 281 33.7 281.7 34.5 280.5Z" fill="#FF9B9B" fill-opacity="0.6"/>
<path d="M28 235.958C30.2181 235.926 29.6237 238.253 29 239.5L24 242C19.6 241.124 20.5 243.302 21.5 244.5C23.9 244.9 26.5 243.667 27.5 243L48.5 244C52.1 243.6 50.3333 242.167 49 241.5H41.5C40.7 235.9 38.1667 235.167 37 235.5C35.8 235.1 32.5 238.667 31 240.5L30.5 232.5C26.1 225.7 20 222.667 17.5 222C11.5 221.999 6.83333 228.333 5 234C4.6 238 2.5 241.667 1.5 243C1.9 247.4 6.33333 254.5 8.5 257.5C10.9 259.5 15.5 272.333 17.5 278.5C21.9 282.9 27 283.333 29 283C32 286 36.8333 292.167 37.5 297C37.5 302 37.5 312.1 37.5 312.5C43.1 335.3 55.5 346.667 61 349.5C71.4 357.1 90 379.667 98 390C104 401 117 409.5 127.5 415.5C142.3 425.1 161 433.167 168.5 436C161.3 432.8 156.833 427 155.5 424.5C157.1 411.7 152.833 405.5 150.5 404C144.9 400.8 145.5 397 146.5 395.5C151.3 395.5 153.833 391.833 154.5 390V379C152.9 367.8 155.833 358.667 157.5 355.5C164 346.5 160 339 154.5 338C150.1 337.2 144 331 141.5 328C141.5 330 134.5 329.5 131 329L118.5 320.5C115.7 316.9 110.667 321 108.5 323.5L107.5 316L102 320L101 319.5C107 314.3 106.5 311 105.5 310L98 303.5C95.2 296.7 83.5 293.667 78 293C75.6 286.6 68.3333 282 65 280.5V274H62V276H59L58 274L55 274.5C50.2 276.5 48.6667 273.333 48.5 271.5C47 271.333 44 271.1 44 271.5C44 271.9 41.3333 272 40 272C39.2 272 38.6667 267.667 38.5 265.5C37.3 270.3 34.3333 271.5 33 271.5L34.5 280.5C33.7 281.7 31.8333 281 31 280.5H27.5C23.9 281.3 23.3333 279.5 23.5 278.5C19.1 275.7 18.3333 261.333 18.5 254.5C13.3 255.3 10.6667 252.5 10 251C5.2 239.4 10.3333 230.167 13.5 227C15.1 222.6 21.8333 229.5 25 233.5C23.8 236.3 26.5 236.306 28 235.958ZM28 235.958C27.847 235.961 27.6807 235.974 27.5 236C24.7 236.4 26.6667 236.139 28 235.958Z" stroke="#FF9B9B" stroke-opacity="0.6"/>
</g>
<path opacity="0.8" d="M217.499 10.0004C217.099 8.00035 218.666 4.16702 219.499 2.50035C203.899 0.500353 183 5.00035 174.5 7.50035C162.1 15.5004 144.667 33.8337 137.5 42.0004V52.5004C137.9 62.1003 145.333 61.5004 149 60.0004L164 43.0004C166 37.0004 174.833 35.8337 179 36.0004C187 27.2004 194.333 27.3337 197 28.5004C208.2 29.3004 209.332 22.5004 208.498 19.0004C207.698 12.2004 214.165 10.167 217.499 10.0004Z" fill="#FF9B9B" fill-opacity="0.6" stroke="#FF9B9B" stroke-opacity="0.6"/>
<path opacity="0.8" d="M130.501 29C137.301 26.6 141.001 21.3333 142.001 19L143 16L127 22.5C125.333 27.3333 119.9 37.2 111.5 38C103.1 38.8 101.334 43.3333 101.501 45.5C97.5014 49.5 102.168 53.8333 105.001 55.5C105.001 52.7 107.668 50.6667 109.001 50C113.401 56 117.168 45.1667 118.501 39C127.301 41.4 130.168 33.3333 130.501 29Z" fill="#FF9B9B" fill-opacity="0.6" stroke="#FF9B9B" stroke-opacity="0.6"/>
<g opacity="0.8">
<path d="M252.5 64.5004L249 61.5004L256.5 71.5C263.3 78.3 264 82 263.5 83C258.3 83.4 259.333 86.8333 260.5 88.5C263.7 91.7 263.167 94.8333 262.5 96C264.1 94.8 268.167 95.5 270 96C277.6 96.8 279.833 91.3333 280 88.5L265.5 75.5C262.7 74.3 263 71 263.5 69.5C267.1 65.5 262 64.5003 259 64.5004C258.6 58.9004 257.167 58.8337 256.5 59.5004L252.5 64.5004Z" fill="#FF9B9B" fill-opacity="0.6"/>
<path d="M249 74.5L242.5 83V85.5H244L242.5 87.5V91H247C248.6 90.2 253 89 255 88.5L254 76.5C252 77.3 249.833 75.5 249 74.5Z" fill="#FF9B9B" fill-opacity="0.6"/>
<path d="M252.5 64.5004L249 61.5004L256.5 71.5C263.3 78.3 264 82 263.5 83C258.3 83.4 259.333 86.8333 260.5 88.5C263.7 91.7 263.167 94.8333 262.5 96C264.1 94.8 268.167 95.5 270 96C277.6 96.8 279.833 91.3333 280 88.5L265.5 75.5C262.7 74.3 263 71 263.5 69.5C267.1 65.5 262 64.5003 259 64.5004C258.6 58.9004 257.167 58.8337 256.5 59.5004L252.5 64.5004Z" stroke="#FF9B9B" stroke-opacity="0.6"/>
<path d="M249 74.5L242.5 83V85.5H244L242.5 87.5V91H247C248.6 90.2 253 89 255 88.5L254 76.5C252 77.3 249.833 75.5 249 74.5Z" stroke="#FF9B9B" stroke-opacity="0.6"/>
</g>
<circle opacity="0.8" cx="300" cy="76" r="5" fill="#FF9B9B" fill-opacity="0.6"/>
<circle opacity="0.8" cx="354" cy="119" r="5" fill="#FF9B9B" fill-opacity="0.6"/>
<circle opacity="0.8" cx="335" cy="251" r="5" fill="#FF9B9B" fill-opacity="0.6"/>
<circle opacity="0.8" cx="94" cy="109" r="5" fill="#FF9B9B" fill-opacity="0.6"/>
<circle opacity="0.8" cx="261" cy="163" r="5" fill="#FF9B9B" fill-opacity="0.6"/>
<circle opacity="0.8" cx="309" cy="130" r="9" fill="#FF9B9B" fill-opacity="0.6"/>
<defs>
<filter id="filter0_i_166_2" x="0" y="0" width="449" height="463" filterUnits="userSpaceOnUse" color-interpolation-filters="sRGB">
<feFlood flood-opacity="0" result="BackgroundImageFix"/>
<feBlend mode="normal" in="SourceGraphic" in2="BackgroundImageFix" result="shape"/>
<feColorMatrix in="SourceAlpha" type="matrix" values="0 0 0 0 0 0 0 0 0 0 0 0 0 0 0 0 0 0 127 0" result="hardAlpha"/>
<feOffset dy="14"/>
<feGaussianBlur stdDeviation="28.15"/>
<feComposite in2="hardAlpha" operator="arithmetic" k2="-1" k3="1"/>
<feColorMatrix type="matrix" values="0 0 0 0 0 0 0 0 0 0 0 0 0 0 0 0 0 0 0.25 0"/>
<feBlend mode="normal" in2="shape" result="effect1_innerShadow_166_2"/>
</filter>
</defs>
</svg>
