<svg width="83" height="83" viewBox="0 0 83 83" fill="none" xmlns="http://www.w3.org/2000/svg">
<path d="M22.7569 41.6577C22.7236 31.3338 31.2103 22.8042 41.5343 22.7852C51.9392 22.7709 60.4687 31.1814 60.4925 41.4769C60.5116 52.0436 52.1439 60.497 41.6247 60.5255C31.2532 60.5588 22.7903 52.0959 22.7569 41.653V41.6577Z" fill="white"/>
<path d="M13.2368 5.67929C13.7128 5.67929 14.0651 5.67929 14.422 5.67929C23.2514 5.67929 32.0808 5.67929 40.9102 5.67929C42.7094 5.67929 43.0807 6.05532 43.0807 7.85928C43.0807 10.52 43.0807 13.1807 43.0807 15.8462C43.0807 17.4693 42.6571 17.8977 41.0578 17.8977C32.1998 17.8977 23.3371 17.8977 14.4792 17.8977H13.2416C13.2416 18.8496 13.2368 19.7397 13.2416 20.6298C13.2511 21.3914 13.1607 22.091 12.3515 22.448C11.5281 22.8098 10.9807 22.3624 10.4428 21.8245C7.56317 18.9305 4.66922 16.0509 1.78479 13.1569C0.732873 12.1003 0.737651 11.472 1.80384 10.4058C4.68827 7.51658 7.58223 4.6369 10.4619 1.73819C10.9807 1.21937 11.5138 0.800513 12.2944 1.10038C13.1083 1.41453 13.2559 2.09994 13.2464 2.87579C13.2321 3.77539 13.2464 4.67499 13.2464 5.67454L13.2368 5.67929Z" stroke="white" stroke-miterlimit="10" stroke-linejoin="round"/>
<path d="M70.0206 77.6274H68.7831C59.9537 77.6274 51.1243 77.6274 42.2901 77.6274C40.5575 77.6274 40.1768 77.237 40.1768 75.4854C40.1768 72.7628 40.1768 70.0403 40.1768 67.3177C40.1768 65.8897 40.648 65.4233 42.0807 65.4233C51.0005 65.4233 59.9203 65.4233 68.8449 65.4233H70.0206C70.0206 64.3952 70.0254 63.467 70.0206 62.5388C70.0159 61.7915 70.192 61.1585 70.9678 60.8539C71.7103 60.5588 72.2387 60.911 72.7384 61.4108C75.6848 64.3666 78.6406 67.3129 81.5869 70.2687C82.477 71.1636 82.4913 71.8823 81.6107 72.7676C78.6454 75.7472 75.6657 78.7126 72.6956 81.6874C72.1911 82.1967 71.6437 82.5014 70.9154 82.1872C70.192 81.8779 70.0159 81.2686 70.0206 80.5546C70.0254 79.6217 70.0206 78.6888 70.0206 77.6321V77.6274Z" stroke="white" stroke-miterlimit="10"/>
<path d="M53.219 7.6575C51.5293 7.6575 49.8396 7.6575 48.1499 7.6575C47.85 7.6575 47.5454 7.6575 47.2503 7.60515C46.4602 7.46235 45.9128 6.8055 46.0127 6.08201C46.1175 5.3014 46.5696 4.78259 47.3836 4.77783C51.2771 4.75879 55.1706 4.75403 59.0593 4.77783C59.9161 4.77783 60.5015 5.43944 60.4872 6.22005C60.473 7.01493 59.8637 7.62894 58.9213 7.64798C57.0221 7.68606 55.1182 7.6575 53.219 7.6575Z" stroke="white" stroke-miterlimit="10"/>
<path d="M59.0499 10.5658C60.8967 10.5658 62.7388 10.5563 64.5856 10.5658C65.6708 10.5706 66.3086 11.1132 66.3086 11.9937C66.3086 12.8695 65.6756 13.4502 64.5951 13.455C60.9063 13.474 57.2174 13.474 53.5286 13.455C52.4576 13.4502 51.8055 12.8648 51.8008 11.9985C51.8008 11.1274 52.4433 10.5706 53.5191 10.561C55.3659 10.5468 57.2079 10.561 59.0547 10.561L59.0499 10.5658Z" stroke="white" stroke-miterlimit="10"/>
<path d="M24.2082 72.9723C22.3043 72.9723 20.4003 72.977 18.4917 72.9723C17.7444 72.9723 17.2018 72.6201 16.9971 71.8918C16.8162 71.2397 17.0447 70.6733 17.6254 70.3354C17.8967 70.1783 18.2537 70.0974 18.5726 70.0926C22.3233 70.0783 26.074 70.0688 29.82 70.0926C30.829 70.0974 31.4573 70.6876 31.4573 71.5253C31.4573 72.3916 30.8052 72.9675 29.7391 72.9771C27.897 72.9961 26.0502 72.9771 24.2034 72.9771L24.2082 72.9723Z" stroke="white" stroke-miterlimit="10"/>
<path d="M30.1101 75.8853C31.8903 75.8853 33.6705 75.8757 35.4506 75.8853C36.593 75.8948 37.2593 76.4517 37.2546 77.337C37.2546 78.2223 36.5739 78.7745 35.4363 78.7792C31.8141 78.7887 28.1967 78.7887 24.5745 78.7792C23.4464 78.7792 22.7658 78.2033 22.7705 77.3227C22.7753 76.4422 23.4464 75.8948 24.5935 75.8853C26.4356 75.871 28.2728 75.8853 30.1149 75.8853H30.1101Z" stroke="white" stroke-miterlimit="10"/>
<path d="M50.4149 16.3752C51.3192 16.3752 52.2236 16.3562 53.1279 16.38C54.0608 16.4038 54.6749 16.9845 54.6796 17.7937C54.6844 18.5552 54.1085 19.2168 53.2422 19.2406C51.3145 19.2882 49.382 19.293 47.4543 19.2406C46.5452 19.2168 45.9502 18.5219 45.9978 17.7223C46.0406 16.9464 46.6308 16.399 47.5209 16.3752C48.4872 16.3514 49.4486 16.3705 50.4149 16.3705V16.3752Z" stroke="white" stroke-miterlimit="10"/>
<path d="M32.8748 67.1715C31.9704 67.1715 31.066 67.1953 30.1617 67.1667C29.1907 67.1334 28.5481 66.5099 28.5719 65.6864C28.5957 64.8868 29.205 64.3061 30.1474 64.287C31.9847 64.2585 33.822 64.2585 35.6593 64.287C36.6445 64.3013 37.2728 64.9296 37.249 65.7626C37.2252 66.5622 36.6112 67.1334 35.6735 67.1667C34.7406 67.1953 33.8077 67.1715 32.87 67.1715H32.8748Z" stroke="white" stroke-miterlimit="10"/>
<path d="M41.4956 32.3212C40.3247 32.3212 39.2109 32.5734 38.2113 33.0304L38.4874 33.8157C39.4299 33.3731 40.4437 33.1446 41.4956 33.1446C42.6522 33.1446 43.7993 33.4302 44.8179 33.9681C44.8179 33.9681 44.8274 33.968 44.8322 33.9728L45.1606 33.2112C44.0659 32.6401 42.8188 32.3164 41.5003 32.3164L41.4956 32.3212ZM39.3156 46.9861C36.4693 46.0627 34.4035 43.3877 34.4035 40.2367C34.4035 39.3561 34.5606 38.5041 34.8747 37.695L34.394 36.7335C33.8704 37.7902 33.5801 38.9801 33.5801 40.2367C33.5801 43.9969 36.1979 47.1431 39.7107 47.9523L39.3204 46.9861H39.3156ZM48.759 37.0809L48.2783 38.1614C48.4829 38.823 48.5877 39.5227 48.5877 40.2367C48.5877 43.2829 46.66 45.8818 43.9564 46.8861L43.4423 47.9142C46.8741 47.0479 49.4111 43.9398 49.4111 40.2367C49.4111 39.1134 49.1779 38.0472 48.759 37.0809Z" fill="#9785F1"/>
<path d="M50.1204 32.5234L41.5908 51.0009L33.1279 32.5234H36.9691L41.5908 43.0045L46.2316 32.5234H50.1204Z" fill="#9785F1"/>
</svg>
