<svg width="79" height="79" viewBox="0 0 79 79" fill="none" xmlns="http://www.w3.org/2000/svg">
<path d="M78.08 19.3616V60.9849C77.8093 61.8511 77.6276 62.7521 77.2602 63.5719C75.5008 67.5006 71.2433 69.6506 67.098 68.7574C62.8174 67.8332 59.8862 64.206 59.8708 59.7823C59.8592 55.7684 59.8708 51.7546 59.8708 47.7408C59.8708 47.4469 59.8476 47.153 59.8321 46.8746H57.307C57.2877 47.0718 57.2606 47.2187 57.2606 47.3695C57.2606 54.0245 57.2529 60.6833 57.2761 67.3382C57.2761 67.5896 57.5004 67.9492 57.7246 68.0768C59.0742 68.8502 59.7934 69.9909 59.8592 71.5377C59.8901 72.2492 59.8708 72.9607 59.8708 73.6722C59.8592 76.5105 58.3124 78.065 55.4934 78.065C38.4713 78.065 21.4492 78.065 4.42713 78.065C4.22219 78.065 4.02112 78.065 3.81618 78.0611C1.72032 77.9877 0.0730156 76.3404 0.0188789 74.2484C-0.00432246 73.3358 -0.00818936 72.4193 0.0188789 71.5067C0.0614149 70.0451 0.734254 68.9043 1.99873 68.2083C2.52076 67.9221 2.62129 67.6128 2.61743 67.083C2.60582 56.4645 2.60584 45.846 2.60584 35.2236C2.60584 25.3166 2.6097 15.4057 2.60197 5.49873C2.60197 3.55368 3.30574 1.96439 4.94531 0.897121C5.56788 0.491097 6.32579 0.293885 7.02183 0C22.3193 0 37.6168 0 52.9181 0C52.9568 0.0309352 52.9916 0.0773382 53.0341 0.0889389C55.9459 0.962859 57.249 2.65656 57.249 5.63408C57.2529 16.4305 57.249 27.2269 57.249 38.0194C57.249 38.3403 57.249 38.6613 57.249 39.0286C58.0147 39.0286 58.672 39.0286 59.3294 39.0286C64.3757 39.0286 67.6703 42.3271 67.6742 47.3811C67.6742 51.3176 67.6742 55.2542 67.6742 59.1945C67.6742 59.4729 67.6626 59.7591 67.7051 60.0298C67.8057 60.6485 68.3896 61.155 68.9773 61.1357C69.6463 61.1125 70.0601 60.7374 70.2225 60.1032C70.2766 59.8867 70.2728 59.6508 70.2728 59.4227C70.2728 49.2373 70.2805 39.0518 70.2573 28.8664C70.2573 28.5339 70.0833 28.124 69.8512 27.8842C68.4785 26.4535 67.0632 25.0691 65.6673 23.6616C64.2095 22.1883 63.5289 20.4211 63.7183 18.3407C63.7763 17.7104 63.7957 17.0608 63.9658 16.4575C64.2906 15.3091 64.078 14.4158 63.0687 13.7004C62.6201 13.3833 62.2567 12.9348 61.8777 12.5249C60.8723 11.4306 60.5436 10.1351 60.9342 8.71213C61.7192 5.82355 65.2458 4.9187 67.446 7.06483C69.9363 9.49324 72.3454 12.0067 74.8434 14.4313C76.3013 15.8466 77.6276 17.3044 78.0684 19.3654L78.08 19.3616ZM54.6505 67.6205V66.7543C54.6505 46.4028 54.6505 26.0552 54.6505 5.70368C54.6505 3.54208 53.6992 2.59082 51.5415 2.59082C37.1373 2.59082 22.7292 2.59082 8.32498 2.59082C6.18658 2.59082 5.21212 3.56915 5.21212 5.71141C5.21212 26.0629 5.21212 46.4105 5.21212 66.762C5.21212 67.0327 5.21212 67.3073 5.21212 67.6166H54.6543L54.6505 67.6205ZM57.307 44.2257C57.9837 44.2257 58.614 44.2257 59.2443 44.2257C61.5335 44.2257 62.4732 45.1693 62.4771 47.4662C62.481 51.6347 62.4307 55.7994 62.5041 59.9679C62.5699 63.5487 65.5358 66.3638 69.0585 66.3367C72.6006 66.3096 75.466 63.4674 75.4737 59.8442C75.4969 46.7083 75.4853 33.5724 75.4815 20.4366C75.4815 19.3461 75.1064 18.391 74.3369 17.6176C71.4676 14.7368 68.5945 11.8598 65.7137 8.99441C65.5087 8.78947 65.2303 8.59612 64.9558 8.53425C64.3951 8.40664 63.8769 8.55359 63.583 9.09882C63.2737 9.67112 63.3394 10.2473 63.7841 10.7191C64.5729 11.5466 65.3695 12.3664 66.2048 13.1475C66.7384 13.6502 66.9356 14.2031 66.8157 14.9185C66.6495 15.893 66.5489 16.879 66.3865 17.8574C66.1081 19.5085 66.5102 20.8929 67.7515 22.0723C69.2248 23.4721 70.613 24.9608 72.0786 26.3684C72.678 26.9446 72.9022 27.5671 72.9022 28.3908C72.8829 38.6806 72.8906 48.9704 72.8868 59.2603C72.8868 59.5155 72.8945 59.7707 72.8752 60.022C72.6934 62.725 69.9982 64.4844 67.5698 63.4442C65.907 62.7327 65.0872 61.418 65.0834 59.6083C65.0834 55.4398 65.095 51.2751 65.0756 47.1066C65.064 44.2064 63.293 42.0564 60.5359 41.6891C59.4918 41.5499 58.4168 41.6659 57.3032 41.6659V44.218L57.307 44.2257ZM29.8907 70.2655C25.5482 70.2655 21.2056 70.2655 16.8631 70.2655C12.6714 70.2655 8.48352 70.2655 4.2918 70.2655C3.03506 70.2655 2.62129 70.6947 2.61355 71.9708C2.61355 72.4773 2.61355 72.9878 2.61355 73.4943C2.61355 75.1107 2.96545 75.4626 4.57408 75.4626C21.4879 75.4626 38.4056 75.4626 55.3194 75.4626C55.5244 75.4626 55.7255 75.4703 55.9304 75.4587C56.7309 75.4046 57.1988 74.9676 57.2452 74.1633C57.2838 73.4789 57.2645 72.7906 57.2606 72.1061C57.2606 70.6212 56.901 70.2655 55.42 70.2655C46.9128 70.2655 38.4017 70.2655 29.8946 70.2655H29.8907Z" fill="white"/>
<path d="M29.6975 28.6406C31.0509 28.6445 31.7856 29.2284 32.3889 30.0946C35.7569 34.9553 39.1405 39.8082 42.5202 44.6612C42.9262 45.2451 43.3477 45.8174 43.7305 46.4168C44.4613 47.5536 44.4459 48.764 43.5952 49.8158C39.7515 54.5798 35.9 59.3361 32.0215 64.0653C30.846 65.4999 28.928 65.3878 27.6867 63.872C24.7285 60.2564 21.7897 56.6215 18.847 52.9944C18.0311 51.989 17.2074 50.9913 16.3992 49.9782C15.4286 48.7601 15.3668 47.5382 16.2484 46.266C20.038 40.802 23.843 35.3458 27.6442 29.8858C28.2049 29.0815 28.9628 28.6406 29.7014 28.6406H29.6975ZM28.6496 33.2925C28.5916 33.2732 28.5336 33.2538 28.4794 33.2384C25.6721 37.2715 22.8686 41.3047 20.0612 45.3379C22.8724 44.3673 25.5754 43.2962 28.2706 42.2018C28.433 42.1361 28.6341 41.8886 28.6341 41.7262C28.6573 38.915 28.6496 36.1076 28.6496 33.2964V33.2925ZM39.7012 45.4346C39.7399 45.3998 39.7785 45.365 39.8211 45.3302C37.0137 41.297 34.2063 37.2677 31.3951 33.2345C31.252 36.0805 31.2443 38.8492 31.2636 41.6141C31.2636 41.8113 31.4299 42.1129 31.5962 42.1825C34.2914 43.2846 36.9944 44.3557 39.6973 45.4346H39.7012ZM28.4872 60.732C28.5413 60.7011 28.5954 60.6702 28.6496 60.6392C28.6496 58.6594 28.6689 56.6834 28.6264 54.7035C28.6225 54.4677 28.3402 54.1235 28.1082 54.0268C25.8848 53.1065 23.6458 52.2249 21.4069 51.3393C21.2561 51.2775 21.0859 51.2581 20.7263 51.1692C23.3983 54.4599 25.9428 57.596 28.4911 60.7282L28.4872 60.732ZM20.4363 48.1414C23.2746 49.2744 25.9157 50.3301 28.5877 51.3973V44.8855C25.8732 45.9682 23.2514 47.0161 20.4363 48.1414ZM31.2752 51.4089C33.9859 50.3223 36.6386 49.2628 39.446 48.1375C36.6231 47.0123 33.9821 45.9566 31.2752 44.8777V51.4089ZM39.1018 51.2311C39.0748 51.1924 39.0438 51.1537 39.0167 51.1189C36.5303 52.1166 34.0401 53.1026 31.5652 54.1274C31.4067 54.1931 31.2714 54.5102 31.2675 54.7151C31.2365 55.8056 31.252 56.8999 31.252 57.9943C31.252 58.8914 31.252 59.7885 31.252 60.9099C33.9743 57.5534 36.5419 54.3942 39.1057 51.2349L39.1018 51.2311Z" fill="white"/>
<path d="M29.8983 5.19922C36.2516 5.19922 42.6049 5.19922 48.9543 5.19922C51.0734 5.19922 52.0401 6.15434 52.0401 8.25794C52.0401 13.1612 52.0401 18.0683 52.0401 22.9715C52.0401 25.0751 51.0695 26.038 48.9543 26.038C36.2748 26.038 23.5952 26.038 10.9156 26.038C8.79656 26.038 7.80664 25.0364 7.80664 22.898C7.80664 18.0451 7.80664 13.1921 7.80664 8.33914C7.80664 6.19301 8.78882 5.20309 10.9118 5.20309C17.238 5.20309 23.5681 5.20309 29.8944 5.20309L29.8983 5.19922ZM49.4029 23.3853V7.85191H10.4555V23.3853H49.4029Z" fill="white"/>
</svg>
