<svg width="82" height="82" viewBox="0 0 82 82" fill="none" xmlns="http://www.w3.org/2000/svg">
<mask id="path-1-outside-1_166_2" maskUnits="userSpaceOnUse" x="0" y="0" width="82" height="82" fill="black">
<rect fill="white" width="82" height="82"/>
<path d="M80.8958 1C81.051 1.44876 81.3362 1.89332 81.3362 2.34208C81.3655 7.94108 81.3572 13.5359 81.3572 19.1349C81.3572 19.6549 81.4452 20.2253 80.8077 20.4686C80.1828 20.7076 79.8473 20.2337 79.4824 19.8688C78.543 18.9252 77.6077 17.9773 76.6347 16.9959C76.4292 17.1847 76.2572 17.3273 76.0979 17.4866C71.0483 22.5362 66.0071 27.5942 60.9449 32.6312C60.5549 33.0212 60.4878 33.3232 60.6807 33.8474C62.5177 38.746 62.5009 43.6572 60.6765 48.56C60.5339 48.9417 60.4374 49.2227 60.8107 49.5959C66.0155 54.7839 71.1993 59.9971 76.3914 65.2018C76.446 65.2564 76.5173 65.2983 76.6221 65.3738C77.6371 64.3588 78.6269 63.3187 79.6796 62.3457C79.9605 62.0857 80.4596 61.8718 80.8161 61.9221C81.3907 62.0018 81.3697 62.5806 81.3697 63.0629C81.3697 68.7667 81.3697 74.4664 81.3697 80.1702C81.3697 81.1181 81.1139 81.3697 80.1576 81.3697C74.4538 81.3697 68.7542 81.3697 63.0503 81.3697C62.568 81.3697 61.9892 81.3865 61.9095 80.8119C61.8592 80.4554 62.0731 79.9605 62.3373 79.6795C63.2936 78.6436 64.3211 77.6748 65.3612 76.6431C65.1557 76.4208 64.9921 76.2321 64.816 76.0559C59.7832 71.0273 54.7504 65.9987 49.7301 60.9575C49.3485 60.5717 49.0507 60.4878 48.5181 60.6849C43.6195 62.5093 38.7083 62.5177 33.8055 60.6849C33.4364 60.5465 33.1471 60.4165 32.7654 60.7981C27.5774 66.0071 22.3685 71.1909 17.1679 76.383C17.1134 76.4376 17.0756 76.5089 16.9875 76.6263C17.9815 77.6161 19.0049 78.5849 19.9569 79.6208C20.2337 79.9228 20.4895 80.4428 20.4308 80.8161C20.3386 81.4326 19.7137 81.3655 19.2104 81.3655C13.5862 81.3655 7.96205 81.3739 2.33789 81.3446C1.89332 81.3446 1.44876 81.051 1.0042 80.8958C1.0042 74.7222 1.0042 68.5486 1.0042 62.3751C1.6333 61.6747 2.01495 61.6579 2.6818 62.3206C3.69675 63.3313 4.70331 64.3504 5.70567 65.3612C5.83988 65.2564 5.90699 65.2144 5.96152 65.1599C11.1369 59.9845 16.3039 54.8007 21.4919 49.6421C21.8526 49.2856 21.7939 49.013 21.6471 48.6187C19.8059 43.6992 19.7933 38.7628 21.6135 33.8391C21.8191 33.2855 21.7645 32.9793 21.3493 32.5683C16.3333 27.5648 11.3424 22.5404 6.33897 17.5244C6.16283 17.344 5.9699 17.1805 5.73504 16.9624C4.69492 18.0193 3.69256 19.0468 2.67342 20.0618C2.00238 20.7286 1.62491 20.7034 1 19.9946V1H19.9947C20.6867 1.64588 20.7034 2.01076 20.0324 2.68599C19.0216 3.70513 17.9983 4.71169 16.9792 5.72664C17.1008 5.86924 17.1637 5.94893 17.2392 6.02442C22.3936 11.1914 27.5564 16.3501 32.6983 21.5297C33.0841 21.9197 33.3861 21.8274 33.7971 21.6764C38.6999 19.8562 43.6153 19.8395 48.5097 21.6764C49.0717 21.8861 49.382 21.7855 49.7847 21.3787C54.7839 16.3543 59.8042 11.3466 64.8202 6.33477C65.0005 6.15443 65.1683 5.9657 65.3864 5.73503C64.3714 4.73266 63.3816 3.76385 62.4044 2.78665C61.6453 2.03173 61.6327 1.8388 62.2241 1C68.4522 1 74.6761 1 80.9042 1L80.8958 1ZM27.4768 41.1199C27.3971 48.5181 33.4784 54.7588 40.8514 54.8426C48.5013 54.9307 54.7504 48.9207 54.8343 41.4009C54.9223 33.7384 48.9207 27.5984 41.2499 27.4935C33.7007 27.3887 27.5606 33.4658 27.4768 41.1199ZM58.1349 53.2951C58.9821 54.1255 59.8167 54.9517 60.6555 55.7695C61.0917 56.1931 61.3937 56.6796 60.861 57.1829C60.341 57.682 59.8629 57.3716 59.4435 56.9354C58.6885 56.1512 57.921 55.3753 57.3045 54.7462C55.1404 56.4993 53.0854 58.1601 50.8709 59.9551C51.0135 60.0516 51.3071 60.19 51.5252 60.4081C56.6209 65.487 61.7082 70.5744 66.7956 75.6617C67.5924 76.4585 67.5882 76.7186 66.783 77.528C66.1161 78.1991 65.4493 78.8701 64.6902 79.6334H79.6124V64.6063C78.8324 65.4241 78.2116 66.0952 77.57 66.741C76.7102 67.6134 76.4795 67.6092 75.5946 66.7243C70.4863 61.6202 65.3822 56.5119 60.2739 51.4077C60.081 51.2148 59.8755 51.0345 59.6574 50.829C59.1415 51.6636 58.676 52.4185 58.1349 53.2909V53.2951ZM31.5701 22.5656C31.3227 22.3852 31.1549 22.293 31.0291 22.1629C25.8663 17.0043 20.7118 11.8415 15.5532 6.67868C14.7857 5.91118 14.7857 5.64276 15.5616 4.87107C16.241 4.20003 16.9288 3.54157 17.7551 2.74051H2.76987V17.7467C3.52899 16.954 4.13293 16.3081 4.75784 15.6748C5.65955 14.7605 5.88182 14.7647 6.79192 15.6748C11.8667 20.7328 16.9456 25.7908 22.0204 30.8487C22.2133 31.0417 22.423 31.222 22.4817 31.2765C24.1635 29.1711 25.8117 27.1035 27.5439 24.9352C27.1958 24.6164 26.7218 24.2096 26.2773 23.7693C25.0568 22.5698 24.8849 22.163 25.3378 21.6806C25.8159 21.1732 26.2186 21.3283 27.418 22.5614C27.9423 23.0982 28.412 23.6896 28.8818 24.2306C29.859 23.6267 30.6307 23.1485 31.5701 22.5656ZM17.5118 79.6376C17.537 79.5789 17.5621 79.5202 17.5915 79.4614C16.933 78.8282 16.2704 78.1991 15.6203 77.5532C14.7773 76.7228 14.7815 76.4711 15.6203 75.6323C20.7034 70.545 25.7908 65.4619 30.8739 60.3745C31.071 60.1774 31.2598 59.9719 31.5072 59.7077C29.0327 58.3866 26.9357 56.6964 25.0442 54.4945C24.7003 54.8972 24.4277 55.2537 24.1174 55.564C22.9892 56.6922 21.8442 57.8036 20.7118 58.9234C20.3218 59.3093 19.8772 59.4183 19.462 59.0324C19.0133 58.6089 19.1265 58.1433 19.5417 57.7323C19.7095 57.5687 19.8772 57.401 20.0408 57.2332C21.3745 55.8702 22.704 54.5029 24.0712 53.1021C23.6476 52.4101 23.1863 51.6636 22.6956 50.8625C22.4523 51.089 22.2426 51.2735 22.0455 51.4707C16.9246 56.5915 11.8038 61.7166 6.67869 66.8375C5.94054 67.5756 5.64277 67.584 4.9256 66.8543C4.24197 66.1581 3.57932 65.4367 2.90828 64.7279C2.85795 64.774 2.80762 64.8202 2.75729 64.8663V79.6376H17.5202H17.5118ZM64.8705 2.72374C64.837 2.78665 64.7992 2.84956 64.7657 2.91247C65.4073 3.52479 66.0574 4.12453 66.6865 4.74525C67.6008 5.64696 67.5966 5.87763 66.6991 6.77934C61.6244 11.8709 56.5454 16.9624 51.4707 22.0539C51.2777 22.2468 51.0974 22.4523 50.8919 22.6704C51.7097 23.1737 52.4437 23.6225 53.316 24.1551C53.92 23.505 54.5323 22.8298 55.1698 22.1755C56.0631 21.2612 56.9732 20.3553 57.8917 19.462C58.2566 19.1055 58.7011 19.0426 59.0744 19.4243C59.4477 19.8017 59.3806 20.2295 59.0366 20.6112C58.8605 20.8041 58.6718 20.9844 58.4872 21.169C57.1829 22.4733 55.8744 23.7776 54.5239 25.1281C56.6544 26.9525 58.353 29.0411 59.7706 31.7085C60.0306 31.3269 60.1606 31.0542 60.3578 30.8571C65.466 25.7237 70.5827 20.5986 75.6994 15.4735C76.4334 14.7396 76.7479 14.727 77.4567 15.4567C78.1361 16.1571 78.7778 16.8995 79.4405 17.6208L79.6292 17.4405V2.72374H64.8705ZM29.666 51.3323C27.33 48.69 26.0676 45.5781 25.7824 42.0593H21.9323C22.2217 46.6979 23.8825 50.6738 26.9651 54.0877C27.8836 53.1525 28.7392 52.2801 29.666 51.3364V51.3323ZM54.05 26.9106C50.657 23.8993 46.6895 22.2175 42.0635 21.9994V25.7614C47.2892 26.6296 48.1197 27.2503 51.3616 29.6031C52.2508 28.714 53.1315 27.8332 54.05 26.9148V26.9106ZM40.3272 21.9868C35.6551 22.2426 31.6917 23.9118 28.303 26.9357C29.234 27.8626 30.1148 28.7433 31.0333 29.6576C33.6503 27.3384 36.8 26.0927 40.3272 25.8075V21.9868ZM42.0132 60.3452C46.7147 60.0516 50.7032 58.4117 54.0793 55.3627C53.1357 54.4107 52.2759 53.5467 51.3742 52.6408C48.8117 54.8426 45.8423 56.1721 42.4242 56.4573C42.2774 56.4699 42.0342 56.7341 42.03 56.8893C41.9964 58.0049 42.0132 59.1247 42.0132 60.3494V60.3452ZM60.3368 42.009C59.1247 42.009 58.0343 42.0216 56.9396 42.0006C56.4951 41.9922 56.4489 42.2355 56.4154 42.5878C56.126 45.7165 54.9601 48.4887 52.9805 50.9212C52.8547 51.0764 52.7414 51.2484 52.7037 51.3029C53.6222 52.2382 54.4903 53.1231 55.4005 54.0542C58.4117 50.657 60.06 46.6811 60.3368 42.0048V42.009ZM40.3649 60.341C40.3649 59.2044 40.344 58.1433 40.3733 57.078C40.3859 56.6041 40.214 56.4573 39.7526 56.4154C36.5652 56.1386 33.7552 54.9349 31.2975 52.8882C31.1843 52.796 31.05 52.7247 31.092 52.7498C30.1567 53.6851 29.2802 54.5658 28.3827 55.4634C31.7253 58.4285 35.7012 60.0726 40.3649 60.341ZM26.9022 28.2778C23.8489 31.7169 22.1881 35.6928 21.9491 40.3104H25.8243C26.076 36.7497 27.3509 33.6419 29.6283 30.9955C28.714 30.0854 27.85 29.2215 26.9022 28.2778ZM60.341 40.3607C60.0306 35.6383 58.4034 31.6582 55.3963 28.2946C54.4568 29.2298 53.576 30.1022 52.666 31.0039C54.8594 33.5581 56.1721 36.54 56.4573 39.9581C56.4699 40.1049 56.7383 40.3398 56.8935 40.344C58.0091 40.3775 59.1289 40.3607 60.341 40.3607Z"/>
</mask>
<path d="M80.8958 1C81.051 1.44876 81.3362 1.89332 81.3362 2.34208C81.3655 7.94108 81.3572 13.5359 81.3572 19.1349C81.3572 19.6549 81.4452 20.2253 80.8077 20.4686C80.1828 20.7076 79.8473 20.2337 79.4824 19.8688C78.543 18.9252 77.6077 17.9773 76.6347 16.9959C76.4292 17.1847 76.2572 17.3273 76.0979 17.4866C71.0483 22.5362 66.0071 27.5942 60.9449 32.6312C60.5549 33.0212 60.4878 33.3232 60.6807 33.8474C62.5177 38.746 62.5009 43.6572 60.6765 48.56C60.5339 48.9417 60.4374 49.2227 60.8107 49.5959C66.0155 54.7839 71.1993 59.9971 76.3914 65.2018C76.446 65.2564 76.5173 65.2983 76.6221 65.3738C77.6371 64.3588 78.6269 63.3187 79.6796 62.3457C79.9605 62.0857 80.4596 61.8718 80.8161 61.9221C81.3907 62.0018 81.3697 62.5806 81.3697 63.0629C81.3697 68.7667 81.3697 74.4664 81.3697 80.1702C81.3697 81.1181 81.1139 81.3697 80.1576 81.3697C74.4538 81.3697 68.7542 81.3697 63.0503 81.3697C62.568 81.3697 61.9892 81.3865 61.9095 80.8119C61.8592 80.4554 62.0731 79.9605 62.3373 79.6795C63.2936 78.6436 64.3211 77.6748 65.3612 76.6431C65.1557 76.4208 64.9921 76.2321 64.816 76.0559C59.7832 71.0273 54.7504 65.9987 49.7301 60.9575C49.3485 60.5717 49.0507 60.4878 48.5181 60.6849C43.6195 62.5093 38.7083 62.5177 33.8055 60.6849C33.4364 60.5465 33.1471 60.4165 32.7654 60.7981C27.5774 66.0071 22.3685 71.1909 17.1679 76.383C17.1134 76.4376 17.0756 76.5089 16.9875 76.6263C17.9815 77.6161 19.0049 78.5849 19.9569 79.6208C20.2337 79.9228 20.4895 80.4428 20.4308 80.8161C20.3386 81.4326 19.7137 81.3655 19.2104 81.3655C13.5862 81.3655 7.96205 81.3739 2.33789 81.3446C1.89332 81.3446 1.44876 81.051 1.0042 80.8958C1.0042 74.7222 1.0042 68.5486 1.0042 62.3751C1.6333 61.6747 2.01495 61.6579 2.6818 62.3206C3.69675 63.3313 4.70331 64.3504 5.70567 65.3612C5.83988 65.2564 5.90699 65.2144 5.96152 65.1599C11.1369 59.9845 16.3039 54.8007 21.4919 49.6421C21.8526 49.2856 21.7939 49.013 21.6471 48.6187C19.8059 43.6992 19.7933 38.7628 21.6135 33.8391C21.8191 33.2855 21.7645 32.9793 21.3493 32.5683C16.3333 27.5648 11.3424 22.5404 6.33897 17.5244C6.16283 17.344 5.9699 17.1805 5.73504 16.9624C4.69492 18.0193 3.69256 19.0468 2.67342 20.0618C2.00238 20.7286 1.62491 20.7034 1 19.9946V1H19.9947C20.6867 1.64588 20.7034 2.01076 20.0324 2.68599C19.0216 3.70513 17.9983 4.71169 16.9792 5.72664C17.1008 5.86924 17.1637 5.94893 17.2392 6.02442C22.3936 11.1914 27.5564 16.3501 32.6983 21.5297C33.0841 21.9197 33.3861 21.8274 33.7971 21.6764C38.6999 19.8562 43.6153 19.8395 48.5097 21.6764C49.0717 21.8861 49.382 21.7855 49.7847 21.3787C54.7839 16.3543 59.8042 11.3466 64.8202 6.33477C65.0005 6.15443 65.1683 5.9657 65.3864 5.73503C64.3714 4.73266 63.3816 3.76385 62.4044 2.78665C61.6453 2.03173 61.6327 1.8388 62.2241 1C68.4522 1 74.6761 1 80.9042 1L80.8958 1ZM27.4768 41.1199C27.3971 48.5181 33.4784 54.7588 40.8514 54.8426C48.5013 54.9307 54.7504 48.9207 54.8343 41.4009C54.9223 33.7384 48.9207 27.5984 41.2499 27.4935C33.7007 27.3887 27.5606 33.4658 27.4768 41.1199ZM58.1349 53.2951C58.9821 54.1255 59.8167 54.9517 60.6555 55.7695C61.0917 56.1931 61.3937 56.6796 60.861 57.1829C60.341 57.682 59.8629 57.3716 59.4435 56.9354C58.6885 56.1512 57.921 55.3753 57.3045 54.7462C55.1404 56.4993 53.0854 58.1601 50.8709 59.9551C51.0135 60.0516 51.3071 60.19 51.5252 60.4081C56.6209 65.487 61.7082 70.5744 66.7956 75.6617C67.5924 76.4585 67.5882 76.7186 66.783 77.528C66.1161 78.1991 65.4493 78.8701 64.6902 79.6334H79.6124V64.6063C78.8324 65.4241 78.2116 66.0952 77.57 66.741C76.7102 67.6134 76.4795 67.6092 75.5946 66.7243C70.4863 61.6202 65.3822 56.5119 60.2739 51.4077C60.081 51.2148 59.8755 51.0345 59.6574 50.829C59.1415 51.6636 58.676 52.4185 58.1349 53.2909V53.2951ZM31.5701 22.5656C31.3227 22.3852 31.1549 22.293 31.0291 22.1629C25.8663 17.0043 20.7118 11.8415 15.5532 6.67868C14.7857 5.91118 14.7857 5.64276 15.5616 4.87107C16.241 4.20003 16.9288 3.54157 17.7551 2.74051H2.76987V17.7467C3.52899 16.954 4.13293 16.3081 4.75784 15.6748C5.65955 14.7605 5.88182 14.7647 6.79192 15.6748C11.8667 20.7328 16.9456 25.7908 22.0204 30.8487C22.2133 31.0417 22.423 31.222 22.4817 31.2765C24.1635 29.1711 25.8117 27.1035 27.5439 24.9352C27.1958 24.6164 26.7218 24.2096 26.2773 23.7693C25.0568 22.5698 24.8849 22.163 25.3378 21.6806C25.8159 21.1732 26.2186 21.3283 27.418 22.5614C27.9423 23.0982 28.412 23.6896 28.8818 24.2306C29.859 23.6267 30.6307 23.1485 31.5701 22.5656ZM17.5118 79.6376C17.537 79.5789 17.5621 79.5202 17.5915 79.4614C16.933 78.8282 16.2704 78.1991 15.6203 77.5532C14.7773 76.7228 14.7815 76.4711 15.6203 75.6323C20.7034 70.545 25.7908 65.4619 30.8739 60.3745C31.071 60.1774 31.2598 59.9719 31.5072 59.7077C29.0327 58.3866 26.9357 56.6964 25.0442 54.4945C24.7003 54.8972 24.4277 55.2537 24.1174 55.564C22.9892 56.6922 21.8442 57.8036 20.7118 58.9234C20.3218 59.3093 19.8772 59.4183 19.462 59.0324C19.0133 58.6089 19.1265 58.1433 19.5417 57.7323C19.7095 57.5687 19.8772 57.401 20.0408 57.2332C21.3745 55.8702 22.704 54.5029 24.0712 53.1021C23.6476 52.4101 23.1863 51.6636 22.6956 50.8625C22.4523 51.089 22.2426 51.2735 22.0455 51.4707C16.9246 56.5915 11.8038 61.7166 6.67869 66.8375C5.94054 67.5756 5.64277 67.584 4.9256 66.8543C4.24197 66.1581 3.57932 65.4367 2.90828 64.7279C2.85795 64.774 2.80762 64.8202 2.75729 64.8663V79.6376H17.5202H17.5118ZM64.8705 2.72374C64.837 2.78665 64.7992 2.84956 64.7657 2.91247C65.4073 3.52479 66.0574 4.12453 66.6865 4.74525C67.6008 5.64696 67.5966 5.87763 66.6991 6.77934C61.6244 11.8709 56.5454 16.9624 51.4707 22.0539C51.2777 22.2468 51.0974 22.4523 50.8919 22.6704C51.7097 23.1737 52.4437 23.6225 53.316 24.1551C53.92 23.505 54.5323 22.8298 55.1698 22.1755C56.0631 21.2612 56.9732 20.3553 57.8917 19.462C58.2566 19.1055 58.7011 19.0426 59.0744 19.4243C59.4477 19.8017 59.3806 20.2295 59.0366 20.6112C58.8605 20.8041 58.6718 20.9844 58.4872 21.169C57.1829 22.4733 55.8744 23.7776 54.5239 25.1281C56.6544 26.9525 58.353 29.0411 59.7706 31.7085C60.0306 31.3269 60.1606 31.0542 60.3578 30.8571C65.466 25.7237 70.5827 20.5986 75.6994 15.4735C76.4334 14.7396 76.7479 14.727 77.4567 15.4567C78.1361 16.1571 78.7778 16.8995 79.4405 17.6208L79.6292 17.4405V2.72374H64.8705ZM29.666 51.3323C27.33 48.69 26.0676 45.5781 25.7824 42.0593H21.9323C22.2217 46.6979 23.8825 50.6738 26.9651 54.0877C27.8836 53.1525 28.7392 52.2801 29.666 51.3364V51.3323ZM54.05 26.9106C50.657 23.8993 46.6895 22.2175 42.0635 21.9994V25.7614C47.2892 26.6296 48.1197 27.2503 51.3616 29.6031C52.2508 28.714 53.1315 27.8332 54.05 26.9148V26.9106ZM40.3272 21.9868C35.6551 22.2426 31.6917 23.9118 28.303 26.9357C29.234 27.8626 30.1148 28.7433 31.0333 29.6576C33.6503 27.3384 36.8 26.0927 40.3272 25.8075V21.9868ZM42.0132 60.3452C46.7147 60.0516 50.7032 58.4117 54.0793 55.3627C53.1357 54.4107 52.2759 53.5467 51.3742 52.6408C48.8117 54.8426 45.8423 56.1721 42.4242 56.4573C42.2774 56.4699 42.0342 56.7341 42.03 56.8893C41.9964 58.0049 42.0132 59.1247 42.0132 60.3494V60.3452ZM60.3368 42.009C59.1247 42.009 58.0343 42.0216 56.9396 42.0006C56.4951 41.9922 56.4489 42.2355 56.4154 42.5878C56.126 45.7165 54.9601 48.4887 52.9805 50.9212C52.8547 51.0764 52.7414 51.2484 52.7037 51.3029C53.6222 52.2382 54.4903 53.1231 55.4005 54.0542C58.4117 50.657 60.06 46.6811 60.3368 42.0048V42.009ZM40.3649 60.341C40.3649 59.2044 40.344 58.1433 40.3733 57.078C40.3859 56.6041 40.214 56.4573 39.7526 56.4154C36.5652 56.1386 33.7552 54.9349 31.2975 52.8882C31.1843 52.796 31.05 52.7247 31.092 52.7498C30.1567 53.6851 29.2802 54.5658 28.3827 55.4634C31.7253 58.4285 35.7012 60.0726 40.3649 60.341ZM26.9022 28.2778C23.8489 31.7169 22.1881 35.6928 21.9491 40.3104H25.8243C26.076 36.7497 27.3509 33.6419 29.6283 30.9955C28.714 30.0854 27.85 29.2215 26.9022 28.2778ZM60.341 40.3607C60.0306 35.6383 58.4034 31.6582 55.3963 28.2946C54.4568 29.2298 53.576 30.1022 52.666 31.0039C54.8594 33.5581 56.1721 36.54 56.4573 39.9581C56.4699 40.1049 56.7383 40.3398 56.8935 40.344C58.0091 40.3775 59.1289 40.3607 60.341 40.3607Z" fill="white"/>
<path d="M80.8958 1C81.051 1.44876 81.3362 1.89332 81.3362 2.34208C81.3655 7.94108 81.3572 13.5359 81.3572 19.1349C81.3572 19.6549 81.4452 20.2253 80.8077 20.4686C80.1828 20.7076 79.8473 20.2337 79.4824 19.8688C78.543 18.9252 77.6077 17.9773 76.6347 16.9959C76.4292 17.1847 76.2572 17.3273 76.0979 17.4866C71.0483 22.5362 66.0071 27.5942 60.9449 32.6312C60.5549 33.0212 60.4878 33.3232 60.6807 33.8474C62.5177 38.746 62.5009 43.6572 60.6765 48.56C60.5339 48.9417 60.4374 49.2227 60.8107 49.5959C66.0155 54.7839 71.1993 59.9971 76.3914 65.2018C76.446 65.2564 76.5173 65.2983 76.6221 65.3738C77.6371 64.3588 78.6269 63.3187 79.6796 62.3457C79.9605 62.0857 80.4596 61.8718 80.8161 61.9221C81.3907 62.0018 81.3697 62.5806 81.3697 63.0629C81.3697 68.7667 81.3697 74.4664 81.3697 80.1702C81.3697 81.1181 81.1139 81.3697 80.1576 81.3697C74.4538 81.3697 68.7542 81.3697 63.0503 81.3697C62.568 81.3697 61.9892 81.3865 61.9095 80.8119C61.8592 80.4554 62.0731 79.9605 62.3373 79.6795C63.2936 78.6436 64.3211 77.6748 65.3612 76.6431C65.1557 76.4208 64.9921 76.2321 64.816 76.0559C59.7832 71.0273 54.7504 65.9987 49.7301 60.9575C49.3485 60.5717 49.0507 60.4878 48.5181 60.6849C43.6195 62.5093 38.7083 62.5177 33.8055 60.6849C33.4364 60.5465 33.1471 60.4165 32.7654 60.7981C27.5774 66.0071 22.3685 71.1909 17.1679 76.383C17.1134 76.4376 17.0756 76.5089 16.9875 76.6263C17.9815 77.6161 19.0049 78.5849 19.9569 79.6208C20.2337 79.9228 20.4895 80.4428 20.4308 80.8161C20.3386 81.4326 19.7137 81.3655 19.2104 81.3655C13.5862 81.3655 7.96205 81.3739 2.33789 81.3446C1.89332 81.3446 1.44876 81.051 1.0042 80.8958C1.0042 74.7222 1.0042 68.5486 1.0042 62.3751C1.6333 61.6747 2.01495 61.6579 2.6818 62.3206C3.69675 63.3313 4.70331 64.3504 5.70567 65.3612C5.83988 65.2564 5.90699 65.2144 5.96152 65.1599C11.1369 59.9845 16.3039 54.8007 21.4919 49.6421C21.8526 49.2856 21.7939 49.013 21.6471 48.6187C19.8059 43.6992 19.7933 38.7628 21.6135 33.8391C21.8191 33.2855 21.7645 32.9793 21.3493 32.5683C16.3333 27.5648 11.3424 22.5404 6.33897 17.5244C6.16283 17.344 5.9699 17.1805 5.73504 16.9624C4.69492 18.0193 3.69256 19.0468 2.67342 20.0618C2.00238 20.7286 1.62491 20.7034 1 19.9946V1H19.9947C20.6867 1.64588 20.7034 2.01076 20.0324 2.68599C19.0216 3.70513 17.9983 4.71169 16.9792 5.72664C17.1008 5.86924 17.1637 5.94893 17.2392 6.02442C22.3936 11.1914 27.5564 16.3501 32.6983 21.5297C33.0841 21.9197 33.3861 21.8274 33.7971 21.6764C38.6999 19.8562 43.6153 19.8395 48.5097 21.6764C49.0717 21.8861 49.382 21.7855 49.7847 21.3787C54.7839 16.3543 59.8042 11.3466 64.8202 6.33477C65.0005 6.15443 65.1683 5.9657 65.3864 5.73503C64.3714 4.73266 63.3816 3.76385 62.4044 2.78665C61.6453 2.03173 61.6327 1.8388 62.2241 1C68.4522 1 74.6761 1 80.9042 1L80.8958 1ZM27.4768 41.1199C27.3971 48.5181 33.4784 54.7588 40.8514 54.8426C48.5013 54.9307 54.7504 48.9207 54.8343 41.4009C54.9223 33.7384 48.9207 27.5984 41.2499 27.4935C33.7007 27.3887 27.5606 33.4658 27.4768 41.1199ZM58.1349 53.2951C58.9821 54.1255 59.8167 54.9517 60.6555 55.7695C61.0917 56.1931 61.3937 56.6796 60.861 57.1829C60.341 57.682 59.8629 57.3716 59.4435 56.9354C58.6885 56.1512 57.921 55.3753 57.3045 54.7462C55.1404 56.4993 53.0854 58.1601 50.8709 59.9551C51.0135 60.0516 51.3071 60.19 51.5252 60.4081C56.6209 65.487 61.7082 70.5744 66.7956 75.6617C67.5924 76.4585 67.5882 76.7186 66.783 77.528C66.1161 78.1991 65.4493 78.8701 64.6902 79.6334H79.6124V64.6063C78.8324 65.4241 78.2116 66.0952 77.57 66.741C76.7102 67.6134 76.4795 67.6092 75.5946 66.7243C70.4863 61.6202 65.3822 56.5119 60.2739 51.4077C60.081 51.2148 59.8755 51.0345 59.6574 50.829C59.1415 51.6636 58.676 52.4185 58.1349 53.2909V53.2951ZM31.5701 22.5656C31.3227 22.3852 31.1549 22.293 31.0291 22.1629C25.8663 17.0043 20.7118 11.8415 15.5532 6.67868C14.7857 5.91118 14.7857 5.64276 15.5616 4.87107C16.241 4.20003 16.9288 3.54157 17.7551 2.74051H2.76987V17.7467C3.52899 16.954 4.13293 16.3081 4.75784 15.6748C5.65955 14.7605 5.88182 14.7647 6.79192 15.6748C11.8667 20.7328 16.9456 25.7908 22.0204 30.8487C22.2133 31.0417 22.423 31.222 22.4817 31.2765C24.1635 29.1711 25.8117 27.1035 27.5439 24.9352C27.1958 24.6164 26.7218 24.2096 26.2773 23.7693C25.0568 22.5698 24.8849 22.163 25.3378 21.6806C25.8159 21.1732 26.2186 21.3283 27.418 22.5614C27.9423 23.0982 28.412 23.6896 28.8818 24.2306C29.859 23.6267 30.6307 23.1485 31.5701 22.5656ZM17.5118 79.6376C17.537 79.5789 17.5621 79.5202 17.5915 79.4614C16.933 78.8282 16.2704 78.1991 15.6203 77.5532C14.7773 76.7228 14.7815 76.4711 15.6203 75.6323C20.7034 70.545 25.7908 65.4619 30.8739 60.3745C31.071 60.1774 31.2598 59.9719 31.5072 59.7077C29.0327 58.3866 26.9357 56.6964 25.0442 54.4945C24.7003 54.8972 24.4277 55.2537 24.1174 55.564C22.9892 56.6922 21.8442 57.8036 20.7118 58.9234C20.3218 59.3093 19.8772 59.4183 19.462 59.0324C19.0133 58.6089 19.1265 58.1433 19.5417 57.7323C19.7095 57.5687 19.8772 57.401 20.0408 57.2332C21.3745 55.8702 22.704 54.5029 24.0712 53.1021C23.6476 52.4101 23.1863 51.6636 22.6956 50.8625C22.4523 51.089 22.2426 51.2735 22.0455 51.4707C16.9246 56.5915 11.8038 61.7166 6.67869 66.8375C5.94054 67.5756 5.64277 67.584 4.9256 66.8543C4.24197 66.1581 3.57932 65.4367 2.90828 64.7279C2.85795 64.774 2.80762 64.8202 2.75729 64.8663V79.6376H17.5202H17.5118ZM64.8705 2.72374C64.837 2.78665 64.7992 2.84956 64.7657 2.91247C65.4073 3.52479 66.0574 4.12453 66.6865 4.74525C67.6008 5.64696 67.5966 5.87763 66.6991 6.77934C61.6244 11.8709 56.5454 16.9624 51.4707 22.0539C51.2777 22.2468 51.0974 22.4523 50.8919 22.6704C51.7097 23.1737 52.4437 23.6225 53.316 24.1551C53.92 23.505 54.5323 22.8298 55.1698 22.1755C56.0631 21.2612 56.9732 20.3553 57.8917 19.462C58.2566 19.1055 58.7011 19.0426 59.0744 19.4243C59.4477 19.8017 59.3806 20.2295 59.0366 20.6112C58.8605 20.8041 58.6718 20.9844 58.4872 21.169C57.1829 22.4733 55.8744 23.7776 54.5239 25.1281C56.6544 26.9525 58.353 29.0411 59.7706 31.7085C60.0306 31.3269 60.1606 31.0542 60.3578 30.8571C65.466 25.7237 70.5827 20.5986 75.6994 15.4735C76.4334 14.7396 76.7479 14.727 77.4567 15.4567C78.1361 16.1571 78.7778 16.8995 79.4405 17.6208L79.6292 17.4405V2.72374H64.8705ZM29.666 51.3323C27.33 48.69 26.0676 45.5781 25.7824 42.0593H21.9323C22.2217 46.6979 23.8825 50.6738 26.9651 54.0877C27.8836 53.1525 28.7392 52.2801 29.666 51.3364V51.3323ZM54.05 26.9106C50.657 23.8993 46.6895 22.2175 42.0635 21.9994V25.7614C47.2892 26.6296 48.1197 27.2503 51.3616 29.6031C52.2508 28.714 53.1315 27.8332 54.05 26.9148V26.9106ZM40.3272 21.9868C35.6551 22.2426 31.6917 23.9118 28.303 26.9357C29.234 27.8626 30.1148 28.7433 31.0333 29.6576C33.6503 27.3384 36.8 26.0927 40.3272 25.8075V21.9868ZM42.0132 60.3452C46.7147 60.0516 50.7032 58.4117 54.0793 55.3627C53.1357 54.4107 52.2759 53.5467 51.3742 52.6408C48.8117 54.8426 45.8423 56.1721 42.4242 56.4573C42.2774 56.4699 42.0342 56.7341 42.03 56.8893C41.9964 58.0049 42.0132 59.1247 42.0132 60.3494V60.3452ZM60.3368 42.009C59.1247 42.009 58.0343 42.0216 56.9396 42.0006C56.4951 41.9922 56.4489 42.2355 56.4154 42.5878C56.126 45.7165 54.9601 48.4887 52.9805 50.9212C52.8547 51.0764 52.7414 51.2484 52.7037 51.3029C53.6222 52.2382 54.4903 53.1231 55.4005 54.0542C58.4117 50.657 60.06 46.6811 60.3368 42.0048V42.009ZM40.3649 60.341C40.3649 59.2044 40.344 58.1433 40.3733 57.078C40.3859 56.6041 40.214 56.4573 39.7526 56.4154C36.5652 56.1386 33.7552 54.9349 31.2975 52.8882C31.1843 52.796 31.05 52.7247 31.092 52.7498C30.1567 53.6851 29.2802 54.5658 28.3827 55.4634C31.7253 58.4285 35.7012 60.0726 40.3649 60.341ZM26.9022 28.2778C23.8489 31.7169 22.1881 35.6928 21.9491 40.3104H25.8243C26.076 36.7497 27.3509 33.6419 29.6283 30.9955C28.714 30.0854 27.85 29.2215 26.9022 28.2778ZM60.341 40.3607C60.0306 35.6383 58.4034 31.6582 55.3963 28.2946C54.4568 29.2298 53.576 30.1022 52.666 31.0039C54.8594 33.5581 56.1721 36.54 56.4573 39.9581C56.4699 40.1049 56.7383 40.3398 56.8935 40.344C58.0091 40.3775 59.1289 40.3607 60.341 40.3607Z" stroke="white" mask="url(#path-1-outside-1_166_2)"/>
<path d="M41.1538 74.6572V74.6572H41.1496V74.6572C36.8004 74.6273 32.5883 73.8247 28.5406 72.1727C28.1001 71.9944 27.7538 71.7857 27.5615 71.5166C27.4614 71.3764 27.4028 71.2193 27.397 71.0479C27.3912 70.8788 27.4372 70.713 27.5184 70.5531C27.6218 70.3489 27.7497 70.1929 27.9049 70.0868C28.0617 69.9795 28.2314 69.9336 28.4002 69.9267C28.7208 69.9137 29.0536 70.0436 29.3242 70.1535L41.1538 74.6572ZM41.1538 74.6572C45.477 74.6273 49.6429 73.8544 53.6491 72.2358C54.1517 72.0331 54.5308 71.8231 54.7471 71.559C54.8606 71.4204 54.9314 71.2646 54.9495 71.0904C54.9673 70.9192 54.9324 70.749 54.8655 70.5817L54.8653 70.5814C54.799 70.4162 54.7066 70.2703 54.5758 70.1591C54.443 70.0463 54.2845 69.981 54.1062 69.957C53.7646 69.9111 53.3427 70.0165 52.8371 70.2204C49.3877 71.6101 45.8018 72.3589 42.0863 72.4629L42.0862 72.4629M41.1538 74.6572L42.0862 72.4629M42.0862 72.4629C37.6754 72.5878 33.4194 71.814 29.3243 70.1535L42.0862 72.4629ZM41.1517 74.6572C41.1519 74.6572 41.152 74.6572 41.1521 74.6572C41.152 74.6572 41.1519 74.6572 41.1517 74.6572Z" fill="white" stroke="white" stroke-width="0.5"/>
<path d="M70.5967 54.7958L70.5972 54.796C70.8008 54.8757 70.9927 54.9056 71.1726 54.8806C71.3547 54.8553 71.5059 54.7762 71.6296 54.6683C71.8647 54.4632 72.0076 54.1462 72.1156 53.8762C73.7438 49.8412 74.6018 45.6488 74.5999 41.6274L74.6036 41.6237L74.6039 41.5205C74.6166 36.8595 73.8183 32.6965 72.2121 28.6896L72.2119 28.689C72.0076 28.1835 71.7994 27.805 71.5356 27.5913C71.3965 27.4786 71.2405 27.4103 71.0664 27.3943C70.8961 27.3786 70.7263 27.4146 70.5589 27.4806L70.5589 27.4806L70.5584 27.4808C70.3932 27.5464 70.2477 27.6389 70.137 27.7702C70.0248 27.9032 69.9601 28.062 69.9362 28.2399C69.8904 28.5814 69.9943 29.003 70.1964 29.5051L70.1965 29.5054C71.3488 32.3591 72.0519 35.3252 72.3224 38.388L72.3224 38.388C72.7718 43.464 72.0066 48.3607 70.1001 53.0854C69.986 53.3666 69.8778 53.6977 69.9177 54.0098C69.9386 54.1734 69.9999 54.332 70.1178 54.4717C70.2343 54.6096 70.3952 54.7164 70.5967 54.7958Z" fill="white" stroke="white" stroke-width="0.5"/>
<path d="M27.5604 10.8291C27.4076 11.0898 27.3933 11.4009 27.5098 11.7252L27.5099 11.7253C27.6313 12.0635 27.8512 12.2814 28.1398 12.3729C28.4141 12.4599 28.7152 12.4216 28.9925 12.3315L28.9934 12.3312C29.1638 12.2751 29.3287 12.2064 29.4851 12.1397C29.5054 12.1311 29.5255 12.1225 29.5454 12.1139C29.6823 12.0554 29.8127 11.9997 29.9453 11.9508L29.9465 11.9504C35.2613 9.9636 40.7175 9.29573 46.295 10.3472L46.2952 10.3473C47.9651 10.6609 49.5941 11.1679 51.2372 11.6794C51.8851 11.881 52.5353 12.0834 53.191 12.2749C53.5879 12.3915 53.9707 12.4164 54.2806 12.3006C54.6112 12.1771 54.8237 11.9057 54.8725 11.5259L54.8725 11.5254C54.922 11.1348 54.8029 10.8424 54.582 10.6271C54.3786 10.4289 54.1004 10.3088 53.862 10.2134C49.9668 8.64168 45.9257 7.80098 41.7256 7.60171L41.8358 7.49163L41.1199 7.57593C40.4842 7.6508 39.84 7.71136 39.1925 7.77222C37.7266 7.91 36.2441 8.04935 34.8055 8.35991C33.2089 8.70293 31.6389 9.21779 30.0851 9.72735C29.4781 9.92641 28.8735 10.1247 28.2708 10.3115L28.2704 10.3117C27.9689 10.4057 27.7096 10.5747 27.5604 10.8291Z" fill="white" stroke="white" stroke-width="0.5"/>
<path d="M12.4944 28.336L12.2781 28.3003L12.4057 28.1493C12.3544 28.106 12.3011 28.0534 12.2405 27.9917C12.2286 27.9796 12.2164 27.9671 12.2038 27.9543C12.155 27.9043 12.1017 27.8498 12.0476 27.7984C11.9138 27.6712 11.741 27.5281 11.5248 27.4666C11.3483 27.416 11.1813 27.4079 11.0255 27.4445C10.8694 27.4811 10.7401 27.5589 10.6338 27.6567C10.4295 27.845 10.3005 28.1179 10.2049 28.3558C7.38779 35.3415 6.88875 42.4885 8.79407 49.7803L8.79418 49.7807C9.07085 50.832 9.44279 51.8635 9.81019 52.8824C9.9483 53.2654 10.0858 53.6466 10.2173 54.0264C10.322 54.3291 10.4885 54.6219 10.7474 54.7982C11.0231 54.9859 11.3625 55.0143 11.7362 54.8592C12.1101 54.704 12.3275 54.4457 12.3889 54.1187C12.446 53.8148 12.36 53.4927 12.2309 53.2044C12.2206 53.179 12.211 53.1504 12.1984 53.1127L12.1974 53.1095C12.1857 53.0744 12.171 53.0305 12.1534 52.9875C9.05275 45.0994 9.0488 37.2223 12.1662 29.3389C12.2305 29.1793 12.286 29.0091 12.3542 28.7998C12.3575 28.7895 12.3609 28.7792 12.3643 28.7688L12.4944 28.8787V28.3402V28.336Z" fill="white" stroke="white" stroke-width="0.5"/>
<path d="M40.1187 47.8405C40.1181 47.9603 40.117 48.0801 40.116 48.1998C40.1124 48.6055 40.1088 49.0102 40.1235 49.4093C40.1336 49.7101 40.2313 49.9701 40.4334 50.1524C40.6327 50.3323 40.8995 50.4055 41.187 50.4055L41.1891 50.4055C41.4811 50.403 41.7449 50.3237 41.9398 50.1377C42.1351 49.9516 42.2272 49.6912 42.2419 49.3963L42.2419 49.3961C42.2432 49.3703 42.2445 49.3443 42.2458 49.3181C42.2615 49.0065 42.2784 48.672 42.2497 48.3435C42.2303 48.1099 42.2557 47.985 42.3076 47.9012C42.3588 47.8184 42.4644 47.7298 42.7147 47.6393L42.7153 47.6391C43.4382 47.3759 43.9937 46.9559 44.3794 46.4015C44.7639 45.8487 44.9696 45.1766 45.0181 44.422C45.0395 44.0977 45.035 43.7678 45.0306 43.4499C45.0288 43.3215 45.027 43.1951 45.027 43.0718L45.027 43.0707C45.0227 42.1365 44.786 41.3897 44.2744 40.8751C43.7628 40.3606 43.0172 40.1193 42.0832 40.1083V40.1083H42.0803H42.0789H42.0775H42.0762H42.0748H42.0734H42.072H42.0707H42.0693H42.0679H42.0665H42.0652H42.0638H42.0624H42.061H42.0596H42.0583H42.0569H42.0555H42.0541H42.0528H42.0514H42.05H42.0486H42.0473H42.0459H42.0445H42.0431H42.0418H42.0404H42.039H42.0376H42.0363H42.0349H42.0335H42.0321H42.0307H42.0294H42.028H42.0266H42.0252H42.0239H42.0225H42.0211H42.0197H42.0184H42.017H42.0156H42.0142H42.0129H42.0115H42.0101H42.0087H42.0074H42.006H42.0046H42.0032H42.0019H42.0005H41.9991H41.9977H41.9963H41.995H41.9936H41.9922H41.9908H41.9895H41.9881H41.9867H41.9853H41.984H41.9826H41.9812H41.9798H41.9785H41.9771H41.9757H41.9743H41.973H41.9716H41.9702H41.9688H41.9674H41.9661H41.9647H41.9633H41.9619H41.9606H41.9592H41.9578H41.9564H41.9551H41.9537H41.9523H41.9509H41.9496H41.9482H41.9468H41.9454H41.9441H41.9427H41.9413H41.9399H41.9385H41.9372H41.9358H41.9344H41.933H41.9317H41.9303H41.9289H41.9275H41.9262H41.9248H41.9234H41.922H41.9207H41.9193H41.9179H41.9165H41.9152H41.9138H41.9124H41.911H41.9096H41.9083H41.9069H41.9055H41.9041H41.9028H41.9014H41.9H41.8986H41.8973H41.8959H41.8945H41.8931H41.8918H41.8904H41.889H41.8876H41.8863H41.8849H41.8835H41.8821H41.8807H41.8794H41.878H41.8766H41.8752H41.8739H41.8725H41.8711H41.8697H41.8684H41.867H41.8656H41.8642H41.8629H41.8615H41.8601H41.8587H41.8574H41.856H41.8546H41.8532H41.8519H41.8505H41.8491H41.8477H41.8463H41.845H41.8436H41.8422H41.8408H41.8395H41.8381H41.8367H41.8353H41.834H41.8326H41.8312H41.8298H41.8285H41.8271H41.8257H41.8243H41.823H41.8216H41.8202H41.8188H41.8174H41.8161H41.8147H41.8133H41.8119H41.8106H41.8092H41.8078H41.8064H41.8051H41.8037H41.8023H41.8009H41.7996H41.7982H41.7968H41.7954H41.7941H41.7927H41.7913H41.7899H41.7885H41.7872H41.7858H41.7844H41.783H41.7817H41.7803H41.7789H41.7775H41.7762H41.7748H41.7734H41.772H41.7707H41.7693H41.7679H41.7665H41.7652H41.7638H41.7624H41.761H41.7596H41.7583H41.7569H41.7555H41.7541H41.7528H41.7514H41.75H41.7486H41.7473H41.7459H41.7445H41.7431H41.7418H41.7404H41.739H41.7376H41.7363H41.7349H41.7335H41.7321H41.7307H41.7294H41.728H41.7266H41.7252H41.7239H41.7225H41.7211H41.7197H41.7184H41.717H41.7156H41.7142H41.7129H41.7115H41.7101H41.7087H41.7074H41.706H41.7046H41.7032H41.7018H41.7005H41.6991H41.6977H41.6963H41.695H41.6936H41.6922H41.6908H41.6895H41.6881H41.6867H41.6853H41.684H41.6826H41.6812H41.6798H41.6785H41.6771H41.6757H41.6743H41.673H41.6716H41.6702H41.6688H41.6674H41.6661H41.6647H41.6633H41.6619H41.6606H41.6592H41.6578H41.6564H41.6551H41.6537H41.6523H41.6509H41.6496H41.6482H41.6468H41.6454H41.6441H41.6427H41.6413H41.6399H41.6385H41.6372H41.6358H41.6344H41.633H41.6317H41.6303H41.6289H41.6275H41.6262H41.6248H41.6234H41.622H41.6207H41.6193H41.6179H41.6165H41.6152H41.6138H41.6124H41.611H41.6096H41.6083H41.6069H41.6055H41.6041H41.6028H41.6014H41.6H41.5986H41.5973H41.5959H41.5945H41.5931H41.5918H41.5904H41.589H41.5876H41.5863H41.5849H41.5835H41.5821H41.5807H41.5794H41.578H41.5766H41.5752H41.5739H41.5725H41.5711H41.5697H41.5684H41.567H41.5656H41.5642H41.5629H41.5615H41.5601H41.5587H41.5574H41.556H41.5546H41.5532H41.5518H41.5505H41.5491H41.5477H41.5463H41.545H41.5436H41.5422H41.5408H41.5395H41.5381H41.5367H41.5353H41.534H41.5326H41.5312H41.5298H41.5285H41.5271H41.5257H41.5243H41.523H41.5216H41.5202H41.5188H41.5174H41.5161H41.5147H41.5133H41.5119H41.5106H41.5092H41.5078H41.5064H41.5051H41.5037H41.5023H41.5009H41.4996H41.4982H41.4968H41.4954H41.4941H41.4927H41.4913H41.4899H41.4885H41.4872H41.4858H41.4844H41.483H41.4817H41.4803H41.4789H41.4775H41.4762H41.4748H41.4734H41.472H41.4707H41.4693H41.4679H41.4665H41.4652H41.4638H41.4624H41.461H41.4596H41.4583H41.4569H41.4555H41.4541H41.4528H41.4514H41.45H41.4486H41.4473H41.4459H41.4445H41.4431H41.4418H41.4404H41.439H41.4376H41.4363H41.4349H41.4335H41.4321H41.4307H41.4294H41.428H41.4266H41.4252H41.4239H41.4225H41.4211H41.4197H41.4184H41.417H41.4156H41.4142H41.4129H41.4115H41.4101H41.4087H41.4074H41.406H41.4046H41.4032H41.4018H41.4005H41.3991H41.3977H41.3963H41.395H41.3936H41.3922H41.3908H41.3895H41.3881H41.3867H41.3853H41.384H41.3826H41.3812H41.3798H41.3785H41.3771H41.3757V40.1083L41.3735 40.1083C41.3112 40.1089 41.2509 40.1095 41.1925 40.11C40.6948 40.1148 40.3391 40.1182 40.076 40.0961C39.7758 40.0708 39.67 40.016 39.6201 39.9617C39.567 39.9039 39.522 39.7882 39.5069 39.4871C39.4973 39.2963 39.5 39.0658 39.5034 38.7746L40.1187 47.8405ZM40.1187 47.8405C38.7962 47.4231 37.8026 46.6395 37.4344 45.2059L37.434 45.2043C37.3804 44.9896 37.3443 44.7652 37.3307 44.5439C37.3095 44.2511 37.3571 43.967 37.5132 43.7386C37.6738 43.5036 37.9264 43.3609 38.2449 43.3151L38.2459 43.3149C38.5875 43.2672 38.8798 43.3391 39.1025 43.5372C39.3157 43.7268 39.4319 44.0033 39.4939 44.2993C39.6356 44.9638 39.9269 45.3947 40.3015 45.6128C40.6737 45.8296 41.18 45.8666 41.8181 45.6345C41.9864 45.5726 42.1835 45.4473 42.3496 45.2906C42.519 45.1307 42.6275 44.9654 42.6595 44.8367C42.8289 44.139 42.8243 43.3681 42.7436 42.6198C42.7399 42.6141 42.7307 42.6012 42.711 42.5814C42.6722 42.5424 42.6123 42.4969 42.5361 42.4516C42.3801 42.359 42.201 42.2936 42.0848 42.28C41.7412 42.2401 41.3888 42.2377 41.0238 42.2429C40.9435 42.244 40.8623 42.2456 40.7805 42.2471C40.4951 42.2525 40.2018 42.258 39.912 42.248C39.1704 42.2231 38.5362 41.9585 38.0794 41.5005C37.623 41.0429 37.3599 40.4085 37.3303 39.6726C37.3244 39.5367 37.3265 39.4001 37.3284 39.2718C37.3287 39.2571 37.3289 39.2425 37.3291 39.2281C37.3312 39.0839 37.332 38.9489 37.3224 38.8162L37.3223 38.8155C37.2489 37.7609 37.3998 36.8229 37.8711 36.0648C38.3188 35.3446 39.0377 34.8154 40.0557 34.4972C40.0551 34.3874 40.0541 34.2778 40.0531 34.1682C40.0495 33.7812 40.0459 33.3955 40.0606 33.0135L40.1187 47.8405ZM42.8028 37.9687L42.8027 37.9678C42.7046 37.3932 42.4961 37.0363 42.1983 36.8286C41.896 36.6176 41.4547 36.5272 40.8216 36.5892C40.37 36.6346 40.0541 36.7965 39.8465 37.0502C39.6357 37.308 39.5097 37.6936 39.5077 38.2368L42.8028 37.9687ZM42.8028 37.9687C42.8555 38.271 42.962 38.5511 43.165 38.749C43.3768 38.9557 43.6608 39.0415 43.9966 39.0137L43.976 38.7646L43.9957 39.0138C44.3601 38.985 44.6207 38.8217 44.783 38.5688C44.9353 38.3315 44.986 38.0387 44.9974 37.7658C45.0078 37.5722 44.9597 37.378 44.9233 37.2327C44.7407 36.4805 44.3923 35.8828 43.8962 35.4213C43.4436 35.0004 42.8779 34.7018 42.2254 34.4973V34.4952V34.492V34.4888V34.4856V34.4824V34.4792V34.476V34.4728V34.4696V34.4664V34.4632V34.46V34.4568V34.4536V34.4504V34.4472V34.444V34.4408V34.4376V34.4344V34.4312V34.428V34.4248V34.4216V34.4184V34.4152V34.412V34.4088V34.4056V34.4024V34.3992V34.396V34.3928V34.3896V34.3864V34.3832V34.3799V34.3767V34.3735V34.3703V34.3671V34.3639V34.3607V34.3575V34.3543V34.3511V34.3479V34.3447V34.3415V34.3383V34.3351V34.3319V34.3287V34.3255V34.3223V34.3191V34.3159V34.3127V34.3095V34.3063V34.3031V34.2999V34.2967V34.2935V34.2903V34.2871V34.2839V34.2807V34.2775V34.2743V34.271V34.2678V34.2646V34.2614V34.2582V34.255V34.2518V34.2486V34.2454V34.2422V34.239V34.2358V34.2326V34.2294V34.2262V34.223V34.2198V34.2166V34.2134V34.2102V34.207V34.2038V34.2005V34.1973V34.1941V34.1909V34.1877V34.1845V34.1813V34.1781V34.1749V34.1717V34.1685V34.1653V34.1621V34.1589V34.1557V34.1525V34.1493V34.1461V34.1429V34.1397V34.1364V34.1332V34.13V34.1268V34.1236V34.1204V34.1172V34.114V34.1108V34.1076V34.1044V34.1012V34.098V34.0948V34.0916V34.0884V34.0852V34.0819V34.0787V34.0755V34.0723V34.0691V34.0659V34.0627V34.0595V34.0563V34.0531V34.0499V34.0467V34.0435V34.0403V34.0371V34.0339V34.0306V34.0274V34.0242V34.021V34.0178V34.0146V34.0114V34.0082V34.005V34.0018V33.9986V33.9954V33.9922V33.989V33.9858V33.9825V33.9793V33.9761V33.9729V33.9697V33.9665V33.9633V33.9601V33.9569V33.9537V33.9505V33.9473V33.9441V33.9409V33.9377V33.9344V33.9312V33.928V33.9248V33.9216V33.9184V33.9152V33.912V33.9088V33.9056V33.9024V33.8992V33.896V33.8928V33.8895V33.8863V33.8831V33.8799V33.8767V33.8735V33.8703V33.8671V33.8639V33.8607V33.8575V33.8543V33.8511V33.8479V33.8447V33.8414V33.8382V33.835V33.8318V33.8286V33.8254V33.8222V33.819V33.8158V33.8126V33.8094V33.8062V33.803V33.7998V33.7965V33.7933V33.7901V33.7869V33.7837V33.7805V33.7773V33.7741V33.7709V33.7677V33.7645V33.7613V33.7581V33.7549V33.7517V33.7484V33.7452V33.742V33.7388V33.7356V33.7324V33.7292V33.726V33.7228V33.7196V33.7164V33.7132V33.71V33.7068V33.7036V33.7003V33.6971V33.6939V33.6907V33.6875V33.6843V33.6811V33.6779V33.6747V33.6715V33.6683V33.6651V33.6619V33.6587V33.6555V33.6523V33.649V33.6458V33.6426V33.6394V33.6362V33.633V33.6298V33.6266V33.6234V33.6202V33.617V33.6138V33.6106V33.6074V33.6042V33.601V33.5978V33.5945V33.5913V33.5881V33.5849V33.5817V33.5785V33.5753V33.5721V33.5689V33.5657V33.5625V33.5593V33.5561V33.5529V33.5497V33.5465V33.5433V33.5401V33.5369V33.5336V33.5304V33.5272V33.524V33.5208V33.5176V33.5144V33.5112V33.508V33.5048V33.5016V33.4984V33.4952V33.492V33.4888V33.4856V33.4824V33.4792V33.476V33.4728V33.4696V33.4664V33.4631V33.4599V33.4567V33.4535V33.4503V33.4471V33.4439V33.4407V33.4375V33.4343V33.4311V33.4279V33.4247V33.4215V33.4183V33.4151V33.4119V33.4087V33.4055V33.4023V33.3991V33.3959V33.3927V33.3895V33.3863V33.3831V33.3799V33.3767V33.3735V33.3703V33.3671V33.3638V33.3606V33.3574V33.3542V33.351V33.3478V33.3446V33.3414V33.3382V33.335V33.3318V33.3286V33.3254V33.3222V33.319V33.3158V33.3126V33.3094V33.3062V33.303V33.2998V33.2966V33.2934V33.2902V33.287V33.2838V33.2806V33.2774V33.2742V33.271V33.2678V33.2646V33.2614V33.2582V33.255V33.2518V33.2486V33.2454V33.2422V33.239V33.2358V33.2326V33.2294V33.2262V33.223V33.2198V33.2166V33.2134V33.2102V33.207V33.2038V33.2006V33.1974V33.1942V33.191V33.1878V33.1846V33.1814V33.1782V33.175V33.1718V33.1686V33.1654V33.1622V33.159V33.1558V33.1526V33.1494V33.1462V33.143V33.1398V33.1366V33.1335V33.1303V33.1271V33.1239V33.1207V33.1175V33.1143V33.1111V33.1079V33.1047V33.1015V33.0983V33.0951V33.0919V33.0887V33.0855V33.0823V33.0791V33.0759V33.0727V33.0695V33.0663V33.0631V33.0599V33.0567V33.0536V33.0504V33.0472V33.0449C42.2277 32.7396 42.1532 32.4586 41.9722 32.2464C41.7881 32.0304 41.522 31.9188 41.21 31.9011M42.8028 37.9687L41.21 31.9011M41.21 31.9011C40.8685 31.881 40.5752 31.9766 40.3667 32.1933C40.1634 32.4046 40.0726 32.6981 40.0606 33.0134L41.21 31.9011Z" fill="white" stroke="white" stroke-width="0.5"/>
<path d="M19.2119 14.0937C19.1084 13.999 18.9687 13.9765 18.8739 13.9706C18.7665 13.964 18.6491 13.9753 18.5379 13.9971C18.4258 14.019 18.3107 14.0534 18.2072 14.0984C18.1077 14.1417 18.0004 14.2029 17.9211 14.2876L17.9209 14.2877C17.8428 14.3713 17.7899 14.4801 17.7543 14.5806C17.7172 14.685 17.6918 14.8 17.6786 14.912C17.6655 15.0234 17.6635 15.1403 17.6784 15.2474C17.6923 15.3462 17.7256 15.4746 17.8148 15.5714C18.8414 16.6864 19.9038 17.77 21.0309 18.7874C21.3598 19.0861 21.7874 19.0624 22.1094 18.8747C22.4288 18.6886 22.6756 18.3294 22.6941 17.8956L22.6959 17.8535L22.6838 17.8131L22.6838 17.8131C22.6837 17.8127 22.6827 17.8088 22.6808 17.7995C22.6788 17.7897 22.6767 17.7779 22.674 17.7621C22.6736 17.7597 22.6731 17.7573 22.6727 17.7548C22.6677 17.7259 22.661 17.6869 22.6518 17.6471C22.6337 17.5679 22.5961 17.4357 22.4953 17.3349L22.3185 17.5117L22.4967 17.3363C22.3512 17.1885 22.2058 17.0404 22.0603 16.8923C21.1303 15.9454 20.1963 14.9943 19.2119 14.0937ZM19.2119 14.0937C19.2119 14.0937 19.2119 14.0938 19.212 14.0938L19.043 14.2781L19.2118 14.0936C19.2118 14.0937 19.2118 14.0937 19.2119 14.0937Z" fill="white" stroke="white" stroke-width="0.5"/>
<path d="M13.0697 66.5758C12.64 67.0201 12.2018 67.4574 11.7633 67.895C11.4444 68.2133 11.1253 68.5317 10.8092 68.8531C10.4108 69.2558 9.97457 69.4403 9.51742 68.9957C9.03092 68.5218 9.21127 68.0689 9.64325 67.6453M13.0697 66.5758L13.2486 66.7504C13.2488 66.7503 13.2489 66.7501 13.249 66.75M13.0697 66.5758L13.2494 66.7496C13.2493 66.7497 13.2492 66.7499 13.249 66.75M13.0697 66.5758C13.181 66.4618 13.2625 66.3196 13.3607 66.1483C13.4113 66.0599 13.4664 65.9638 13.5323 65.8597L13.5437 65.8494L11.8208 65.1566M13.249 66.75C12.8192 67.1944 12.3771 67.6356 11.9365 68.0753C11.6176 68.3936 11.2995 68.7111 10.9874 69.0284L10.9869 69.029C10.7751 69.243 10.5223 69.4328 10.2318 69.4878C9.92027 69.5467 9.61775 69.442 9.34313 69.175L9.34298 69.1748C9.05613 68.8954 8.93419 68.5852 8.98943 68.2598C9.04095 67.9563 9.23938 67.6912 9.46801 67.467M13.249 66.75C13.357 66.6393 13.4375 66.5128 13.5112 66.3874C13.5349 66.3471 13.5578 66.3072 13.5809 66.2669C13.6133 66.2102 13.6463 66.1526 13.6828 66.0918H14.1148L13.7376 65.6743C13.6692 65.5986 13.6154 65.5244 13.5554 65.4418C13.5169 65.3888 13.476 65.3324 13.427 65.2699C13.3218 65.1354 13.1735 64.967 12.9627 64.9024C12.7769 64.8455 12.5556 64.8563 12.3638 64.899C12.1718 64.9417 11.9664 65.0259 11.8208 65.1566M9.46801 67.467C9.46798 67.467 9.46795 67.467 9.46792 67.467L9.64325 67.6453M9.46801 67.467C9.71723 67.2218 9.96597 66.97 10.2162 66.7167C10.7384 66.1883 11.2673 65.6531 11.8208 65.1566M9.46801 67.467C9.46808 67.4669 9.46815 67.4668 9.46821 67.4668L9.64325 67.6453M9.64325 67.6453L11.8208 65.1566M11.8208 65.1566L11.9877 65.3427L11.8207 65.1567C11.8207 65.1567 11.8207 65.1567 11.8208 65.1566Z" fill="white" stroke="white" stroke-width="0.5"/>
<path d="M61.9022 15.3251L62.0038 15.1748C62.073 15.0724 62.129 14.9822 62.1831 14.895C62.2093 14.8528 62.235 14.8113 62.2616 14.7696C62.3396 14.6469 62.4221 14.5261 62.5268 14.4188L61.9022 15.3251ZM61.9022 15.3251L62.0136 15.4682C62.0565 15.5233 62.0984 15.5879 62.1441 15.6614C62.1552 15.6794 62.1668 15.6982 62.1787 15.7176C62.213 15.7734 62.2498 15.8334 62.2864 15.8884C62.3771 16.0246 62.5177 16.2154 62.7344 16.2797M61.9022 15.3251L62.7344 16.2797M62.7344 16.2797C62.735 16.2799 62.7356 16.28 62.7362 16.2802L62.8065 16.0403L62.7344 16.2797Z" fill="white" stroke="white" stroke-width="0.5"/>
</svg>
