<svg width="115" height="116" viewBox="0 0 115 116" fill="none" xmlns="http://www.w3.org/2000/svg">
<path d="M37.0949 93.5927C35.8944 93.2717 34.7303 92.8779 33.7613 92.0398C32.3034 90.7802 31.5486 89.1874 31.4501 87.2702C31.4398 87.0638 31.4415 86.8555 31.4415 86.6473C31.4415 67.6244 31.4415 48.6014 31.4415 29.5768C31.4415 26.3565 33.1325 23.9049 36.0102 22.9784C37.9482 22.3538 39.7601 22.7077 41.4978 23.7175C48.8491 27.9927 56.209 32.2539 63.5655 36.5204C72.632 41.7775 81.7002 47.0347 90.7633 52.2971C94.1125 54.242 95.2542 57.9845 93.5183 61.2568C92.8568 62.5043 91.829 63.3545 90.632 64.0467C77.0694 71.9047 63.5085 79.7714 49.9493 87.6346C47.2652 89.1909 44.5982 90.7785 41.8881 92.2897C40.9398 92.8189 39.8896 93.1641 38.8861 93.5927H37.0932H37.0949ZM35.6699 87.494C45.125 77.5887 54.5007 67.7667 63.8971 57.9203C54.5042 48.0792 45.1561 38.2866 35.6699 28.3483V87.494ZM41.1178 87.7977L41.2007 87.9087C52.1948 81.5307 63.1907 75.1545 74.2332 68.7487C71.7217 66.1184 69.2621 63.5453 66.7627 60.9271C58.1764 69.9251 49.6471 78.8605 41.1195 87.7977H41.1178ZM69.6334 57.9221C72.4247 60.8456 75.1711 63.724 77.9279 66.6111C81.6571 64.4475 85.3465 62.3395 89.0015 60.1689C90.6217 59.206 90.5837 57.0493 88.9617 56.0638C87.2327 55.0141 85.4692 54.0252 83.7194 53.0102C81.7158 51.8477 79.7104 50.687 77.6688 49.5054C74.9932 52.3092 72.3401 55.0887 69.6352 57.9238L69.6334 57.9221ZM42.2768 28.9764C42.237 29.0285 42.1973 29.0805 42.1576 29.1326C50.3449 37.7123 58.5339 46.2904 66.7627 54.9135C69.1878 52.3717 71.5576 49.8871 73.9724 47.3574C63.3479 41.1963 52.8114 35.0855 42.2768 28.9764Z" fill="white"/>
<path d="M112.296 57.7634C112.296 88.2996 87.7022 113.027 57.3979 113.027C27.0935 113.027 2.5 88.2996 2.5 57.7634C2.5 27.2273 27.0935 2.5 57.3979 2.5C87.7022 2.5 112.296 27.2273 112.296 57.7634Z" stroke="white" stroke-width="5"/>
</svg>
