<svg width="89" height="89" viewBox="0 0 89 89" fill="none" xmlns="http://www.w3.org/2000/svg">
<path d="M51.0657 76.3174C46.3947 83.4858 39.506 86.6897 31.4692 87.8378C24.4186 88.8437 17.6133 87.9212 11.2054 84.7075C7.27042 82.7351 3.97818 80.012 1.82423 76.0819C0.627053 73.8936 0.0137416 71.5483 0.0137416 69.0509C0.0137416 65.896 0.0627968 62.7461 0.00391902 59.5912C-0.113836 53.5857 2.42774 48.846 6.8632 44.9994C9.67461 42.5559 12.9276 40.9025 16.4603 39.7592C16.0432 38.1058 15.5575 36.5062 15.2434 34.8724C12.2799 19.3826 22.1665 4.26577 37.5581 0.801794C39.5747 0.350397 41.6697 0.124699 43.7354 0.070728C47.1895 -0.0126821 50.6634 -0.0764662 54.1028 0.20811C66.2561 1.20903 76.4469 9.77084 79.7392 21.5415C81.0148 26.1045 81.1718 30.7117 80.2003 35.3434C80.063 35.996 80.215 36.3247 80.7253 36.7074C84.307 39.3962 86.9566 42.7424 87.8741 47.2367C88.0752 48.218 88.1439 49.2386 88.1635 50.2444C88.2028 52.6338 88.09 55.0233 88.193 57.4078C88.4629 63.6587 85.6907 68.3689 80.8578 72.0144C76.2653 75.4833 70.9811 77.1613 65.3092 77.7403C60.4665 78.2309 55.7268 77.7256 51.0706 76.3174H51.0657ZM44.02 55.877C58.5971 55.9212 70.5149 44.0573 70.5444 29.4753C70.5738 14.9275 58.7639 3.03915 44.2162 2.97536C29.6341 2.91158 17.7016 14.746 17.6476 29.3281C17.5937 43.9101 29.4379 55.8329 44.02 55.877ZM19.0656 44.8276C18.6535 44.1015 18.1922 43.287 17.7212 42.4529C13.4084 43.8071 9.6108 45.8923 6.68163 49.322C3.19312 53.4091 1.97633 58.0555 3.71813 63.2564C4.87606 66.7154 7.1821 69.3453 10.0966 71.46C19.1735 78.0396 33.3336 78.1328 42.5137 71.6808C45.3447 69.6888 47.6115 67.2061 48.9411 63.9531C49.6035 62.334 49.9862 60.6559 49.9421 58.7866C46.9835 58.7866 44.0985 58.7866 41.2086 58.7866C40.6738 62.7363 37.2784 65.9451 32.7252 66.7302C32.475 65.847 32.2248 64.9491 31.9598 64.0169C32.3131 63.8942 32.6173 63.8304 32.8773 63.6881C34.1825 62.9767 35.5661 62.3585 36.7436 61.4753C37.3962 60.9847 37.7936 60.077 38.142 59.287C38.4168 58.6688 38.2205 58.1978 37.3668 58.0064C33.7801 57.2067 30.4585 55.7347 27.4606 53.6053C26.7344 53.0901 26.0377 52.835 25.1742 52.9626C24.0849 53.1196 22.9663 53.1588 21.9163 53.4581C20.2334 53.9341 18.5946 54.5817 16.8528 55.1852C16.4259 54.5572 15.9107 53.8065 15.3612 53.0067C17.731 51.3336 20.4051 50.6713 23.2312 50.1659C22.5198 49.3416 21.9212 48.6105 21.2686 47.9334C21.1263 47.7862 20.778 47.7225 20.5621 47.7715C17.2257 48.5467 14.1934 49.9402 11.7402 52.3885C9.90028 54.2285 8.75217 56.402 8.83067 59.0908C8.88464 60.8228 9.53229 62.3585 10.5136 63.8402C9.72365 64.4094 8.96316 64.9491 8.14378 65.5379C6.1861 62.6872 5.38634 59.6746 6.18119 56.3431C7.10851 52.4719 9.58629 49.7341 12.9031 47.7715C14.8313 46.6332 16.9509 45.8187 19.0607 44.8227L19.0656 44.8276ZM52.9497 64.9393C53.0675 64.9883 53.146 65.0325 53.2294 65.057C53.4649 65.1257 53.7004 65.1846 53.9359 65.2435C58.862 66.426 63.8127 66.4897 68.7584 65.4152C73.3754 64.4094 77.5999 62.5597 81.0247 59.1987C83.7576 56.5149 85.4257 53.3158 85.2049 49.3858C84.9939 45.6225 83.105 42.6835 80.3917 40.2106C80.0237 39.877 79.6165 39.5826 79.1651 39.2146C78.9443 39.774 78.8363 40.2303 78.5959 40.6081C78.0317 41.4961 78.223 42.0653 78.9983 42.816C83.0265 46.7313 83.3797 51.8881 80.0188 56.0929C78.6597 57.7955 76.9621 59.0908 75.0485 60.0917C69.5189 62.9865 63.6213 63.7029 57.503 62.9227C55.977 62.7265 54.4756 62.3634 52.9448 62.069V64.9295L52.9497 64.9393ZM76.6137 44.651C71.0546 53.2177 63.2386 57.9132 53.1362 58.8798C53.4355 59.0368 53.725 59.13 54.0095 59.2134C59.0142 60.6412 64.0384 60.6608 69.0479 59.3312C72.2862 58.4726 75.2693 57.0791 77.5263 54.4885C80.2494 51.3631 79.8814 47.3545 76.6137 44.651ZM53.0528 68.1678C52.8222 69.9733 52.5916 71.7691 52.3315 73.7857C54.9025 74.2174 57.5177 74.6541 60.1966 75.1006V69.1932C57.7532 68.8448 55.3687 68.5014 53.0479 68.1678H53.0528ZM27.9659 85.3159C29.9531 85.0509 31.847 84.8007 33.7507 84.5505V78.6872C31.7979 78.9424 29.8991 79.1926 27.9659 79.4428V85.3159ZM19.1686 78.6823V84.5554C21.1018 84.8056 22.9908 85.0559 24.9387 85.3061V79.4379C22.9859 79.1828 21.0871 78.9326 19.1686 78.6774V78.6823ZM63.2288 75.027C65.216 74.7621 67.1049 74.5118 69.0086 74.2616V68.4425C67.0558 68.6829 65.1571 68.9135 63.2288 69.149V75.0221V75.027ZM16.156 77.9022C14.164 77.0043 12.2603 76.1408 10.2977 75.2576C10.2977 76.9994 10.2928 78.7069 10.3075 80.4192C10.3075 80.6057 10.4008 80.8706 10.5381 80.9589C12.2849 82.058 14.1149 82.9853 16.156 83.5888V77.9071V77.9022ZM42.6216 75.292C40.7424 76.0966 38.9516 76.8571 37.1803 77.6422C36.9988 77.7207 36.7682 77.9562 36.7682 78.123C36.7387 79.9286 36.7486 81.7391 36.7486 83.8341C38.7013 82.8529 40.4431 81.9991 42.1555 81.0914C42.3812 80.9688 42.5971 80.5861 42.602 80.3211C42.6412 78.648 42.6216 76.97 42.6216 75.2969V75.292ZM72.0065 73.5453C73.9838 72.5443 75.7698 71.6464 77.5459 70.7338C77.6882 70.6602 77.8599 70.4738 77.8648 70.3364C77.8845 68.6486 77.8796 66.9657 77.8796 65.3073C75.9906 66.058 74.2046 66.7498 72.4432 67.4857C72.242 67.5692 72.031 67.9224 72.0261 68.153C71.9918 69.831 72.0065 71.5091 72.0065 73.5453ZM77.9728 27.9003C77.6244 26.0554 77.3055 24.294 76.9473 22.5375C76.913 22.3609 76.6578 22.1008 76.5008 22.0959C75.2055 22.0616 73.9102 22.0763 72.6493 22.0763C72.9535 24.083 73.2381 25.9769 73.5275 27.9003H77.9728ZM72.6493 36.7712C73.9053 36.7712 75.127 36.7957 76.3438 36.7516C76.5597 36.7418 76.9081 36.4817 76.9473 36.2855C77.3153 34.5387 77.6293 32.7773 77.9728 30.9423H73.5324C73.2381 32.8902 72.9485 34.7841 72.6493 36.7761V36.7712ZM75.9023 39.7102C74.5088 39.7102 73.3852 39.7445 72.2665 39.6955C71.7317 39.6709 71.5355 39.9113 71.3392 40.348C70.8044 41.5403 70.2254 42.7178 69.6416 43.8856C69.3619 44.44 69.0234 44.9601 68.6603 45.5881C69.3325 45.5881 69.8673 45.5096 70.3677 45.6029C71.9574 45.8972 72.9289 45.1858 73.6207 43.8267C74.3076 42.4872 75.078 41.1919 75.9023 39.7102ZM75.6226 19.1373C75.706 19.049 75.7894 18.9607 75.8777 18.8724C74.7786 17.1011 73.6845 15.3201 72.5658 13.5586C72.4726 13.4114 72.2273 13.279 72.0507 13.2741C70.9663 13.2495 69.882 13.2593 68.8173 13.2593C69.725 15.1483 70.5984 16.9834 71.5012 18.7988C71.5846 18.9656 71.8691 19.1177 72.0605 19.1226C73.2479 19.152 74.4352 19.1373 75.6226 19.1373ZM3.0165 68.7026C2.62399 71.7593 4.90549 76.9062 7.35873 78.2898C7.35873 76.6756 7.37346 75.0859 7.34402 73.5011C7.34402 73.2656 7.20173 72.9761 7.03491 72.8044C5.70035 71.4207 4.34616 70.0617 3.01159 68.7075L3.0165 68.7026ZM45.5655 78.4027C48.426 76.0672 50.5995 70.9301 49.8685 68.7418C48.5781 70.0567 47.2239 71.4158 45.8942 72.8044C45.7274 72.981 45.5851 73.2656 45.5851 73.5011C45.5557 75.0859 45.5704 76.6756 45.5704 78.4076L45.5655 78.4027ZM85.2295 59.13C83.8213 60.4646 82.472 61.7354 81.1277 63.0061C81.0197 63.1092 80.8578 63.2318 80.8529 63.3496C80.8332 64.9049 80.8431 66.4603 80.8431 68.2168C83.4779 65.5673 85.0823 62.7019 85.2295 59.13ZM69.7054 10.3155C66.6241 7.44026 63.322 5.46786 59.5244 4.31974C61.9924 5.97813 64.2592 7.85731 66.2267 10.0947C66.3444 10.2271 66.5947 10.3007 66.7909 10.3056C67.6741 10.3253 68.5573 10.3155 69.7103 10.3155H69.7054ZM69.7054 48.5271C68.7633 48.5271 68.0666 48.5713 67.3797 48.5124C66.6732 48.4535 66.2218 48.7283 65.736 49.2337C64.7302 50.2935 63.6312 51.2698 62.5468 52.2511C62.0709 52.678 61.541 53.046 61.0209 53.4238C60.5303 53.782 60.0249 54.1156 59.5244 54.4591C63.3319 53.3502 66.6241 51.3974 69.7005 48.5271H69.7054Z" fill="white"/>
<path d="M17.6367 8.84689C17.6367 9.70061 17.0234 10.2501 15.9833 10.3139C13.8784 10.4464 12.1856 11.3541 11.1651 13.1989C10.6941 14.0527 10.4978 15.083 10.3163 16.0594C10.1396 17.0162 9.68823 17.6295 8.86395 17.654C8.00531 17.6786 7.42637 17.0603 7.35277 16.0496C7.11235 12.7574 4.90933 10.5445 1.66124 10.3188C0.62597 10.2452 0.0175781 9.70061 0.0175781 8.84198C0.0175781 7.98335 0.625974 7.44363 1.66615 7.37494C4.86517 7.15415 7.13688 4.89717 7.34786 1.72758C7.41655 0.667785 7.93172 0.0642878 8.78054 0.0397554C9.66371 0.015223 10.228 0.643252 10.2967 1.7374C10.5027 4.89717 12.7842 7.15415 15.9882 7.37985C17.0234 7.45345 17.6318 7.99807 17.6318 8.8567L17.6367 8.84689ZM6.7836 8.83707C7.45088 9.49454 8.23591 10.2747 8.80016 10.8291C9.47235 10.1913 10.2574 9.44548 10.8805 8.85179C10.2132 8.19432 9.42821 7.4142 8.82472 6.82051C8.18687 7.45345 7.43126 8.19923 6.78851 8.83707H6.7836Z" fill="white"/>
<path d="M78.8516 78.1406C79.3423 79.0042 79.7936 79.7941 80.2401 80.5791C75.2551 84.416 60.835 86.5896 54.1426 84.4847C54.2996 83.6163 54.4566 82.7282 54.6381 81.7125C63.0724 83.0814 71.1533 82.213 78.8467 78.1406H78.8516Z" fill="white"/>
<path d="M11.3477 37.8679C10.4007 38.1181 9.52246 38.3438 8.53626 38.6039C7.49608 34.5904 7.13792 30.567 7.501 26.3867C8.4872 26.4554 9.38507 26.5241 10.3958 26.5977C10.121 30.4297 10.4301 34.1439 11.3477 37.8679Z" fill="white"/>
<path d="M81.457 76.4776C82.453 75.5895 83.292 74.8437 84.1948 74.0391C84.8817 74.6769 85.5637 75.3098 86.3488 76.0409C85.2841 76.983 84.2733 77.8808 83.2086 78.8229C82.561 77.9544 82.0066 77.2136 81.457 76.4776Z" fill="white"/>
<path d="M11.3341 20.9713C11.1378 21.9085 10.9612 22.7622 10.7551 23.7582C9.83268 23.611 8.92499 23.4638 7.875 23.297C8.08598 22.2667 8.29204 21.2805 8.50793 20.2305C9.49903 20.4905 10.3969 20.726 11.339 20.9713H11.3341Z" fill="white"/>
<path d="M55.7897 9.11006C55.304 9.94416 54.8476 10.7341 54.3619 11.5633C49.3082 8.80586 44.0387 8.0846 38.5434 9.61542C34.0687 10.8617 30.4478 13.3983 27.6216 17.0978C22.038 24.3937 21.5768 36.4293 30.0503 44.5643C29.437 45.2267 28.8188 45.8939 28.2055 46.5563C21.2579 40.9188 17.1267 27.7449 24.403 16.5973C31.8755 5.15053 46.4134 3.32041 55.7897 9.11496V9.11006Z" fill="white"/>
<path d="M33.1621 50.1769C33.4712 49.5783 33.7411 49.0337 34.0257 48.4989C34.1679 48.234 34.3299 47.9788 34.5114 47.6599C39.7957 50.2653 45.2271 50.7608 50.8058 48.8522C54.888 47.4538 58.195 44.9663 60.7463 41.4876C65.8294 34.5596 66.5507 23.7359 59.2351 15.3998C59.9073 14.7669 60.5844 14.129 61.2615 13.4961C67.9981 20.2278 70.4317 32.9699 63.2241 43.0674C55.938 53.2778 42.6463 55.3876 33.1621 50.1769Z" fill="white"/>
<path d="M13.7324 70.3873C14.2476 69.4698 14.699 68.675 15.0424 68.0617C17.3092 68.7633 19.4485 69.6268 21.6711 70.0782C26.7444 71.1135 31.7146 70.6081 36.4641 68.4689C39.2559 67.2079 41.5914 65.3876 43.1762 62.5664C44.0397 63.008 44.8689 63.4299 45.757 63.8863C44.9229 65.6084 43.7257 66.9822 42.3225 68.1745C38.7554 71.2067 34.5408 72.7277 29.9679 73.292C24.8897 73.92 19.9685 73.292 15.2779 71.1626C14.7824 70.9369 14.3016 70.6817 13.7324 70.3972V70.3873Z" fill="white"/>
<path d="M14.8358 57.8289C14.3942 59.6688 15.297 60.8905 16.5923 61.8914C18.6677 63.486 21.0964 64.1828 23.6478 64.4919C25.0069 64.6538 26.3807 64.6734 27.8526 64.7666C27.8968 65.6498 27.941 66.5575 27.9998 67.6663C26.4985 67.5927 25.0707 67.5928 23.6625 67.4456C20.2623 67.0825 17.0584 66.1355 14.3942 63.8786C12.4021 62.1858 11.3227 60.0907 11.9606 57.3873C11.9949 57.245 12.0685 57.1076 12.1617 56.8672C13.0596 57.191 13.933 57.5099 14.8358 57.8387V57.8289Z" fill="white"/>
<path d="M43.9132 17.6562C42.2646 17.6562 40.6945 18.0144 39.2864 18.6572L39.674 19.766C41.0037 19.1429 42.4314 18.824 43.9181 18.824C45.552 18.824 47.1662 19.2263 48.5989 19.9868C48.6038 19.9868 48.6136 19.9917 48.6185 19.9966L49.0797 18.9221C47.5391 18.1175 45.7826 17.6612 43.923 17.6612L43.9132 17.6562ZM40.8418 38.3272C36.8283 37.027 33.9187 33.2539 33.9187 28.8185C33.9187 27.5772 34.1395 26.3751 34.5811 25.2368L33.904 23.8826C33.168 25.3692 32.7559 27.0473 32.7559 28.8185C32.7559 34.1175 36.4455 38.5529 41.3962 39.6912L40.8418 38.3272ZM54.153 24.3683L53.471 25.8942C53.7556 26.8314 53.9077 27.8127 53.9077 28.8185C53.9077 33.1117 51.1895 36.7768 47.3821 38.1899L46.6608 39.6373C51.4986 38.4156 55.0755 34.0341 55.0755 28.8185C55.0755 27.2386 54.7467 25.7323 54.153 24.3683Z" fill="white"/>
<path d="M56.0706 17.9375L44.0498 43.9811L32.1172 17.9375H37.5339L44.0498 32.706L50.595 17.9375H56.0755H56.0706Z" fill="white"/>
</svg>
