<svg width="115" height="116" viewBox="0 0 115 116" fill="none" xmlns="http://www.w3.org/2000/svg">
<path d="M57.57 30.857C57.9877 30.214 58.3066 29.6646 58.6813 29.1583C60.2281 27.0672 63.0356 26.4824 65.271 27.7685C67.4861 29.0444 68.3772 31.8013 67.3291 34.1733C67.1266 34.6341 66.8785 35.0771 66.6254 35.5125C61.2179 44.8666 55.8055 54.2182 50.398 63.5698C50.2183 63.8837 50.0512 64.2052 49.7955 64.6786C51.1955 64.6786 52.4562 64.6786 53.7194 64.6786C55.8105 64.6786 57.9041 64.6584 59.9952 64.6989C60.3294 64.7065 60.8078 64.9014 60.9622 65.1596C62.7824 68.2279 64.552 71.3265 66.3317 74.4175C66.3773 74.496 66.3798 74.5973 66.4279 74.7821C66.1519 74.7821 65.9292 74.7821 65.7039 74.7821C53.2866 74.7821 40.8692 74.7846 28.4519 74.7796C26.009 74.7796 24.123 73.5391 23.3686 71.4911C22.1585 68.1975 24.5002 64.7698 28.0849 64.6938C31.1202 64.628 34.1581 64.6533 37.1934 64.6938C37.8693 64.704 38.201 64.466 38.525 63.9065C42.7679 56.5245 47.0285 49.15 51.3094 41.7883C51.6183 41.2566 51.6436 40.8744 51.3221 40.3377C50.1626 38.4036 48.9778 36.4796 47.9576 34.4695C46.1957 30.9962 48.6335 27.0394 52.4461 27.0951C54.0916 27.1179 55.4485 27.7989 56.4358 29.1305C56.813 29.6393 57.1345 30.1937 57.5624 30.8544L57.57 30.857Z" fill="white"/>
<path d="M65.7554 45.1055C68.2135 49.3534 70.5755 53.4292 72.9349 57.5051C74.1323 59.5733 75.3551 61.629 76.5069 63.7226C76.8892 64.4188 77.3044 64.7251 78.1398 64.6972C80.1954 64.6263 82.2561 64.6744 84.3143 64.6744C89.6888 64.6744 92.0558 66.2086 92.076 69.7021C92.0963 73.2058 89.7065 74.7804 84.3649 74.7804C83.9624 74.7804 83.5599 74.7804 83.0282 74.7804C83.1624 75.0867 83.2384 75.3222 83.3599 75.5348C84.3143 77.2006 85.3269 78.8335 86.2256 80.5271C87.9977 83.8561 86.137 87.5825 82.4561 88.0509C80.5397 88.2939 78.8942 87.6256 77.8056 86.0003C76.8335 84.5497 75.9956 83.0055 75.1171 81.4916C70.2084 73.0134 65.3124 64.5276 60.386 56.0621C60.0138 55.4241 60.0189 54.9634 60.391 54.333C62.1758 51.3255 63.9074 48.2902 65.7503 45.1055H65.7554Z" fill="white"/>
<path d="M41.6182 78.8277C40.0815 81.3922 38.7677 83.8199 37.2234 86.0933C35.7602 88.2451 32.8615 88.7084 30.6413 87.3768C28.4845 86.0831 27.687 83.3744 28.6389 81.0226C29.2844 79.4277 30.1401 78.6404 32.059 78.772C35.1475 78.9846 38.2588 78.8302 41.6157 78.8302L41.6182 78.8277Z" fill="white"/>
<path d="M112.501 57.7634C112.501 88.2996 87.9072 113.027 57.6029 113.027C27.2986 113.027 2.70508 88.2996 2.70508 57.7634C2.70508 27.2273 27.2986 2.5 57.6029 2.5C87.9072 2.5 112.501 27.2273 112.501 57.7634Z" stroke="white" stroke-width="5"/>
</svg>
