<svg width="66" height="77" viewBox="0 0 66 77" fill="none" xmlns="http://www.w3.org/2000/svg">
<path d="M17.1955 50.3826C17.0637 50.1437 16.9401 49.8965 16.8041 49.6616C11.5922 40.6345 6.37616 31.6115 1.16424 22.5802C-0.553837 19.5973 -0.356089 16.2518 1.66276 13.788C4.90939 9.8203 11.0607 10.1211 13.78 14.476C15.7535 17.632 17.5334 20.9034 19.4039 24.1253C20.0961 25.3242 20.7924 26.519 21.5216 27.7798C24.0761 24.9452 27.1126 24.1871 30.6312 25.5261C32.856 21.4596 37.4252 20.1741 41.4588 22.4113C41.5947 22.2383 41.7348 22.0611 41.8708 21.8839C44.9197 17.9904 50.9226 18.2088 53.4729 22.4525C56.9091 28.1753 60.3329 33.9146 63.4601 39.8063C68.6679 49.6163 65.137 61.8694 55.6278 67.6129C52.2864 69.6276 48.9079 71.5887 45.4841 73.4593C38.414 77.328 31.3316 77.1962 24.348 73.2162C17.3439 69.2238 10.3768 65.1655 3.39735 61.132C0.146597 59.2532 -0.60328 55.9036 1.52269 52.797C4.69104 48.1743 10.5333 46.8064 15.4115 49.5421C15.9677 49.8553 16.524 50.1725 17.0802 50.4897L17.1955 50.3867V50.3826ZM61.2105 49.4185C61.2105 46.7611 60.6666 44.219 59.3729 41.9241C56.1716 36.2425 52.8797 30.6103 49.6207 24.9616C49.2416 24.3024 48.6525 23.9028 47.8944 23.7957C46.8932 23.6515 46.0486 23.9605 45.4717 24.801C44.9032 25.6291 44.8331 26.5396 45.3276 27.4213C46.2051 28.9911 47.1363 30.5279 48.0097 32.0977C48.7555 33.4367 48.2199 34.9858 46.8726 35.4926C45.7602 35.9087 44.6519 35.4967 43.9885 34.3637C42.6907 32.1471 41.4258 29.914 40.1239 27.7015C39.8808 27.2895 39.5882 26.8693 39.2257 26.5644C38.1833 25.6909 36.6341 25.7239 35.6 26.585C34.5246 27.479 34.2404 28.9952 34.9696 30.2848C36.2963 32.6291 37.6765 34.9488 39.0032 37.2931C39.683 38.4962 39.3246 39.8681 38.2121 40.5109C37.0791 41.1701 35.7524 40.8075 35.0191 39.6168C34.5617 38.8752 34.1373 38.1089 33.7006 37.3549C32.4646 35.2207 31.245 33.0782 29.9925 30.9564C29.3251 29.8275 28.089 29.2919 26.9066 29.5514C25.6829 29.8192 24.7106 30.7916 24.6611 32.0688C24.6364 32.7404 24.8548 33.5026 25.1844 34.1C26.713 36.8605 28.328 39.5797 29.9019 42.3155C30.5158 43.3785 30.4746 44.392 29.8113 45.1872C28.7194 46.5015 26.8407 46.2584 25.9137 44.6557C22.9925 39.6127 20.0796 34.5615 17.1625 29.5143C14.7976 25.4231 12.4409 21.3277 10.0719 17.2406C9.33851 15.9757 8.09426 15.3948 6.84587 15.6956C4.82702 16.1817 4.0236 18.2871 5.14014 20.2194C10.4139 29.3619 15.6958 38.4962 20.9696 47.6345C22.5228 50.3249 24.0884 53.0071 25.6211 55.7099C26.4122 57.1025 25.8807 58.6269 24.4757 59.1419C23.6888 59.4304 22.976 59.2449 22.2715 58.8371C19.2308 57.0695 16.1861 55.302 13.129 53.5633C10.3438 51.9812 7.11364 52.7599 5.3214 55.3968C4.73635 56.262 4.80641 56.5957 5.70459 57.1149C12.7088 61.1608 19.6964 65.2314 26.7253 69.2362C32.1515 72.3262 37.6765 72.4334 43.1727 69.4216C46.5265 67.584 49.8555 65.6847 53.1145 63.6864C58.4253 60.4315 60.9797 55.5575 61.1981 49.402L61.2105 49.4185Z" fill="white"/>
<path d="M22.8636 8.95485C23.7123 8.95485 24.3263 8.93837 24.9443 8.95485C26.3039 9.0043 27.2927 10.022 27.2639 11.328C27.2351 12.5929 26.2338 13.5694 24.8989 13.5694C22.4557 13.5694 20.0166 13.5611 17.5734 13.5117C15.9419 13.4787 15.0643 12.5476 15.0684 10.9284C15.0766 8.514 15.0807 6.09551 15.1302 3.68113C15.1549 2.39155 15.9625 1.5016 17.149 1.32856C18.1914 1.17612 19.2256 1.78177 19.5882 2.79531C19.6953 3.1002 19.7241 3.44629 19.7406 3.7759C19.7653 4.26207 19.7488 4.75236 19.7488 5.38685C20.0207 5.20145 20.2226 5.07785 20.4081 4.94188C31.2068 -3.10054 46.274 -1.13114 54.6172 9.42455C54.9138 9.79947 55.194 10.2321 55.3258 10.6812C55.6307 11.7318 55.1157 12.7948 54.1722 13.281C53.1751 13.796 52.1163 13.5529 51.3129 12.6959C50.1593 11.4599 49.0715 10.1332 47.7819 9.05374C40.9714 3.37213 30.5188 3.15376 23.4446 8.4728C23.3086 8.57581 23.1809 8.69117 22.8719 8.94662L22.8636 8.95485Z" fill="white"/>
</svg>
