<svg width="82" height="87" viewBox="0 0 82 87" fill="none" xmlns="http://www.w3.org/2000/svg">
<path d="M0.200471 52.8212C0.200471 47.5252 -0.115807 42.2107 0.268676 36.9395C0.988032 26.9802 5.26082 18.5587 12.3428 11.5512C13.8869 10.0195 16.1937 10.0505 17.6449 11.5202C19.127 13.0271 19.1022 15.2782 17.4712 16.9092C13.5706 20.8036 10.6993 25.3182 9.01876 30.5707C8.00795 33.721 7.44988 36.9519 7.44367 40.2572C7.41887 49.15 7.44366 58.0427 7.42505 66.9416C7.42505 69.6144 5.32901 71.3756 2.86708 70.8237C1.16791 70.4392 0.0144698 68.9695 0.00826846 67.0842C-0.0103356 62.3278 0.00826846 57.5714 0.00826846 52.8149C0.0764832 52.8149 0.138463 52.8149 0.206678 52.8149L0.200471 52.8212Z" fill="white"/>
<path d="M81.6983 52.8654C81.6983 57.504 81.6983 62.1426 81.6983 66.7874C81.6983 69.2432 80.1728 70.9423 77.9899 70.9485C75.8194 70.9485 74.2753 69.2432 74.2753 66.7998C74.2753 58.4466 74.2318 50.0934 74.2876 41.7464C74.3496 32.3266 71.2304 24.1966 64.688 17.3999C63.3051 15.9612 63.0198 14.3799 63.8074 12.8606C64.5516 11.4218 65.9965 10.6157 67.6708 10.9567C68.4522 11.118 69.3018 11.5459 69.8537 12.1164C77.376 19.7937 81.3572 29.0213 81.6672 39.7682C81.7913 44.1339 81.6859 48.5059 81.6859 52.8778H81.6983V52.8654Z" fill="white"/>
<path d="M14.8613 58.5181C14.8613 52.6393 14.8613 46.7604 14.8613 40.8815C14.8613 36.9189 15.6861 33.136 17.4101 29.5579C18.4147 27.4742 20.455 26.6432 22.396 27.5238C24.3184 28.3982 25.1121 30.5439 24.1571 32.6027C22.7928 35.536 22.2657 38.5994 22.2781 41.8241C22.3153 53.6935 22.2967 65.5691 22.2905 77.4384C22.2905 79.7764 20.8332 81.4321 18.7434 81.4941C16.5419 81.5623 14.8799 79.9438 14.8737 77.6431C14.8551 71.2619 14.8737 64.8807 14.8737 58.4995L14.8613 58.5181Z" fill="white"/>
<path d="M66.8464 58.4557C66.8464 64.8741 66.8526 71.2863 66.8464 77.7047C66.8464 79.4845 65.7923 80.8922 64.1985 81.3821C62.6978 81.841 60.9552 81.3139 60.1428 79.9186C59.7025 79.162 59.4607 78.1822 59.4545 77.3016C59.4111 65.4384 59.4793 53.569 59.3801 41.7059C59.3615 39.3866 58.8902 37.0363 58.3879 34.7542C57.8856 32.4411 58.7289 30.4008 60.7443 29.7869C62.8094 29.1605 64.7318 30.2644 65.4946 32.5279C66.3938 35.182 66.8402 37.9168 66.8464 40.7198C66.8464 46.6359 66.8464 52.5458 66.8464 58.4619V58.4557Z" fill="white"/>
<path d="M41.4651 0C47.4556 0.0310067 53.7562 1.48832 59.6599 4.54558C61.421 5.45718 62.2024 7.23077 61.6877 9.00435C61.204 10.6601 59.5235 11.8074 57.7685 11.5965C57.2104 11.5283 56.6398 11.3237 56.1313 11.0694C46.8293 6.4804 37.3784 6.18894 27.7725 10.0214C25.9307 10.7531 24.3432 10.4493 23.2145 9.19659C22.1727 8.03694 21.9061 6.35638 22.7743 5.01069C23.227 4.30993 23.9525 3.64019 24.7091 3.30532C29.8314 1.04803 35.2142 0.00620135 41.4589 0H41.4651Z" fill="white"/>
<path d="M41.1802 14.8539C48.0079 14.9593 54.1348 17.3654 59.1764 22.3885C60.2555 23.4613 60.5966 24.7698 60.1066 26.2209C59.6229 27.6782 58.5502 28.4968 57.0556 28.7201C55.772 28.9123 54.7301 28.3976 53.8185 27.517C49.8744 23.728 45.1491 21.9916 39.6919 22.3079C36.2253 22.5063 33.0812 23.6598 30.1604 25.5574C29.3046 26.1155 28.1883 26.5124 27.1837 26.5372C25.621 26.5744 24.3063 25.3031 23.9466 23.8458C23.5622 22.2893 24.1388 20.7823 25.5279 19.7901C30.1355 16.4972 35.2889 14.9221 41.1802 14.8477V14.8539Z" fill="white"/>
<path d="M37.1364 72.6988C37.1364 75.7933 37.1426 78.8815 37.1364 81.976C37.1302 84.3449 35.5984 86.0255 33.4589 86.0503C31.2947 86.0751 29.7195 84.3511 29.7195 81.9264C29.7133 75.7808 29.7133 69.6353 29.7195 63.4898C29.7195 61.0216 31.2264 59.3783 33.4527 59.3907C35.6604 59.4031 37.1364 61.0589 37.1426 63.5394C37.1426 66.5905 37.1426 69.6477 37.1426 72.6988H37.1364Z" fill="white"/>
<path d="M51.994 72.6553C51.994 75.7498 52.0002 78.8381 51.994 81.9325C51.9878 84.3635 50.4127 86.0812 48.2422 86.0502C46.1089 86.0192 44.5773 84.3325 44.5711 81.9697C44.5649 75.787 44.5649 69.5981 44.5711 63.4153C44.5711 61.0216 46.078 59.3968 48.2608 59.3906C50.4375 59.3844 51.9816 61.0154 51.9878 63.3843C52.0002 66.4788 51.9878 69.5671 51.9878 72.6615L51.994 72.6553Z" fill="white"/>
</svg>
