<svg width="85" height="85" viewBox="0 0 85 85" fill="none" xmlns="http://www.w3.org/2000/svg">
<path d="M19.7757 81.9129C19.7757 80.5523 18.6704 79.447 17.3097 79.447H7.43264C6.07195 79.447 4.96667 78.3417 4.96667 76.981V67.0731C4.96667 65.7124 3.86139 64.6072 2.50071 64.6072H2.46988C1.1092 64.6072 0.00391936 65.7124 0.00391936 67.0731V81.9129C-0.000484145 83.2736 1.1048 84.3789 2.46548 84.3789H17.3097C18.6704 84.3789 19.7757 83.2736 19.7757 81.9129Z" fill="white"/>
<path d="M84.3797 81.9217V67.1128C84.3797 65.7565 83.2788 64.6556 81.9225 64.6556C80.5662 64.6556 79.4654 65.7565 79.4654 67.1128V76.9326C79.4654 78.2889 78.3645 79.3897 77.0082 79.3897H67.0607C65.7044 79.3897 64.6035 80.4906 64.6035 81.8469V81.9217C64.6035 83.278 65.7044 84.3789 67.0607 84.3789H81.9225C83.2832 84.3789 84.3797 83.278 84.3797 81.9217Z" fill="white"/>
<path d="M2.46596 19.7768C3.82665 19.7768 4.93193 18.6716 4.93193 17.3109V7.43822C4.93193 6.07754 6.03721 4.97225 7.39789 4.97225H17.2485C18.6092 4.97225 19.7145 3.86698 19.7145 2.50629V2.46666C19.7145 1.10597 18.6092 0.000696182 17.2485 0.000696182H2.46596C1.10528 0.000696182 0 1.10597 0 2.46666V17.3153C0 18.676 1.10528 19.7812 2.46596 19.7812V19.7768Z" fill="white"/>
<path d="M29.817 25.0599V20.1236H24.9291V15.2225H34.749V20.0531H39.6721V15.1829H44.6128V10.2509H19.9796V15.1697H14.986L15.008 15.1476V20.1104L14.9816 20.0884H19.8827V30.0007H14.9816L15.008 29.9786V34.9106H19.8915V39.8557H10.1113V44.7656H34.7578V39.8645L34.7842 39.8865H24.9379V25.0291H29.839L29.8126 25.0511L29.817 25.0599Z" fill="white"/>
<path d="M64.4285 39.8901V34.9582H74.2835V10.2589H49.6371V20.0655H44.6788V25.0591L44.6523 25.0371H49.549V30.0043H44.6523L44.6788 29.9822V34.9098H59.5098V39.8945L59.4834 39.8725C61.1391 39.8725 62.7948 39.8725 64.4505 39.8725L64.4241 39.8945L64.4285 39.8901ZM69.3472 29.9338H54.6175V15.1997H69.3472V29.9338Z" fill="white"/>
<path d="M39.7068 69.5569C39.7068 67.9012 39.7068 66.2499 39.7068 64.5942L39.7289 64.6162H34.7969V49.816H10.0977V74.4492H34.7353V69.5305H39.7289L39.7068 69.5525V69.5569ZM29.7945 69.4909H15.0648V54.7611H29.7945V69.4909Z" fill="white"/>
<path d="M59.5093 44.8136V49.7499H49.6543V74.4492H74.2611V49.8072H64.4281V44.8136L64.4545 44.8356H59.4873L59.5137 44.8136H59.5093ZM54.6126 69.5085V54.7788H69.3424V69.5085H54.6126Z" fill="white"/>
<path d="M64.647 2.48782C64.647 3.83089 65.7346 4.91856 67.0777 4.91856H76.9768C78.3199 4.91856 79.4075 6.00623 79.4075 7.3493V17.288C79.4075 18.6311 80.4952 19.7188 81.8383 19.7188H81.9043C83.2474 19.7188 84.3351 18.6311 84.3351 17.288V2.48782C84.3351 1.14475 83.2474 0.057085 81.9043 0.057085H67.0733C65.7302 0.057085 64.6426 1.14475 64.6426 2.48782H64.647Z" fill="white"/>
<path d="M39.7642 39.8407V49.7266H44.6345V44.8123C49.6501 44.8123 54.582 44.8123 59.5095 44.8123L59.4831 44.8343V39.8671L59.5095 39.8891C53.2786 39.8891 47.0432 39.8803 40.8122 39.8759C40.4556 39.8759 40.0989 39.8671 39.7422 39.8627L39.7686 39.8407H39.7642Z" fill="white"/>
<path d="M64.4277 44.8139H74.2696V39.8908C70.989 39.8908 67.7083 39.8908 64.4277 39.8908L64.4542 39.8688C64.4542 41.5245 64.4542 43.1802 64.4542 44.8359L64.4277 44.8139Z" fill="white"/>
<path d="M34.7615 34.9453V25.055C33.0882 25.055 31.4545 25.055 29.8164 25.055L29.8428 25.033V34.9233H34.788L34.7615 34.9453Z" fill="white"/>
<path d="M15.0124 20.1136H10.1113V29.9819C11.7406 29.9819 13.3787 29.9819 15.0124 29.9819L14.986 30.0039V20.0916L15.0124 20.1136Z" fill="white"/>
<path d="M39.707 64.5952H44.6081V54.7709H39.7335C39.7335 58.0604 39.7335 61.341 39.7335 64.6172L39.7114 64.5952H39.707Z" fill="white"/>
<path d="M34.7617 39.8686C36.4306 39.8598 38.0952 39.851 39.7641 39.8422L39.7377 39.8642C39.7377 38.2525 39.7377 36.6452 39.7377 34.9455C38.0247 34.9455 36.391 34.9455 34.7617 34.9455L34.7881 34.9235V39.8906L34.7617 39.8686Z" fill="white"/>
<path d="M44.678 25.0588H39.7812V29.9819C41.415 29.9819 43.0487 29.9819 44.678 29.9819L44.6515 30.0039V25.0368L44.678 25.0588Z" fill="white"/>
<path d="M39.7291 69.5291V74.4258H44.6081V69.5511C42.97 69.5511 41.3363 69.5511 39.707 69.5511L39.7291 69.5291Z" fill="white"/>
<path d="M14.9904 15.1719V10.2752H10.1113V15.1499C11.7494 15.1499 13.3831 15.1499 15.0124 15.1499L14.9904 15.1719Z" fill="white"/>
<path d="M59.5449 25.0312H64.3756V20.161H59.5449V25.0312Z" fill="white"/>
<path d="M24.8492 64.5469V59.703H20.0098V64.5469H24.8492Z" fill="white"/>
<path d="M64.402 64.5469V59.703H59.5625V64.5469H64.402Z" fill="white"/>
</svg>
