<svg width="8" height="15" viewBox="0 0 8 15" fill="none" xmlns="http://www.w3.org/2000/svg">
<path d="M5.78092 1.03377C6.73526 1.25471 7.29375 2.27349 6.92091 3.14958C6.67849 3.72035 6.22434 4.05329 5.61214 4.14075C4.91864 4.23895 4.3356 4.018 3.91059 3.45338C3.37051 2.73378 3.60987 1.69966 4.43072 1.22862C4.63786 1.11048 5.13497 0.92483 5.78092 1.03223V1.03377Z" stroke="white" stroke-width="0.5" stroke-miterlimit="10"/>
<path d="M1.00153 7.07859C1.06598 6.81929 1.12121 6.583 1.18412 6.34826C1.19179 6.31757 1.23168 6.28381 1.2639 6.27154C1.87302 6.03832 2.47601 5.78056 3.12349 5.66549C3.76176 5.55348 4.39237 5.56729 4.98768 5.86034C5.60447 6.1626 5.93742 6.82236 5.9098 7.50513C5.87298 8.44566 5.54617 9.31255 5.31602 10.2055C5.16566 10.7855 5.00609 11.3639 4.86647 11.947C4.79436 12.2538 4.756 12.5684 4.82351 12.886C4.87414 13.1238 5.00456 13.2849 5.24391 13.3539C5.63823 13.4659 6.02794 13.4306 6.41459 13.3217C6.55575 13.2818 6.69384 13.2343 6.8534 13.1836C6.81351 13.3524 6.76135 13.5104 6.7414 13.6731C6.71685 13.8925 6.60178 13.9953 6.39771 14.0628C5.9635 14.2039 5.54463 14.4003 5.10429 14.5169C4.35861 14.7164 3.60219 14.7394 2.8872 14.3942C2.23972 14.0827 1.91138 13.5473 1.91292 12.8231C1.91445 12.2262 2.05561 11.6524 2.21364 11.0816C2.46834 10.1656 2.71843 9.24964 2.95778 8.32905C3.0391 8.01912 3.06365 7.69845 3.00535 7.37624C2.95471 7.09393 2.79515 6.92823 2.51437 6.86839C2.14306 6.79014 1.78097 6.82543 1.42194 6.93743C1.28845 6.97886 1.15497 7.02489 1 7.07552L1.00153 7.07859Z" stroke="white" stroke-width="0.5" stroke-miterlimit="10" stroke-linejoin="round"/>
</svg>
