<svg width="17" height="15" viewBox="0 0 17 15" fill="none" xmlns="http://www.w3.org/2000/svg">
<path d="M1.25195 3.81635C1.23888 3.62203 1.22535 3.4489 1.21634 3.27532C1.20822 3.11256 1.28442 3.00931 1.44447 2.96783C1.6185 2.92275 1.79163 2.87315 1.96656 2.83077C2.05177 2.81003 2.09731 2.77938 2.10047 2.67613C2.10858 2.3984 2.15412 2.35106 2.41877 2.28028C5.22761 1.53005 8.03645 0.779824 10.8448 0.0295985C11.1672 -0.0565152 11.3052 0.0422225 11.2894 0.365938C11.2303 1.56026 11.5784 2.66305 12.0477 3.7379C12.2069 4.10219 12.3841 4.45927 12.5707 4.85783C12.678 4.67478 12.7668 4.52329 12.8557 4.37225C13.1487 3.87541 13.6713 3.87541 13.9612 4.37225C14.114 4.63465 14.2677 4.89615 14.4156 5.16125C14.4567 5.23519 14.4981 5.25638 14.587 5.24737C14.9697 5.20949 15.2763 5.35332 15.4679 5.68785C15.6559 6.01608 15.6293 6.34791 15.4075 6.65404C15.3507 6.73204 15.3512 6.78298 15.3985 6.86098C15.5495 7.11121 15.6961 7.36414 15.8385 7.61932C16.0946 8.0774 15.8124 8.54539 15.2876 8.53682C14.9778 8.53186 14.6681 8.5251 14.3584 8.52014C14.3426 8.52014 14.3268 8.5278 14.3038 8.53411C14.3651 8.80823 14.453 9.07785 14.4805 9.35332C14.5184 9.73655 14.5721 10.1347 14.5108 10.5084C14.3872 11.2632 13.9089 11.7537 13.1686 11.9543C11.0739 12.5228 8.97558 13.0797 6.87865 13.6405C6.10182 13.8484 5.32545 14.0576 4.54772 14.2618C3.68027 14.4895 2.86467 14.1428 2.41471 13.3673C2.02337 12.6928 1.7745 11.9651 1.65953 11.2C1.53374 10.3614 1.44537 9.51698 1.35159 8.67433C1.21724 7.46243 1.0112 6.27081 0.43455 5.17568C0.322287 4.96242 0.191539 4.75819 0.0680037 4.55079C-0.0649991 4.32762 -0.00187914 4.159 0.248346 4.08911C0.578374 3.99714 0.909754 3.90967 1.25195 3.81725V3.81635ZM5.67576 13.3944C5.73933 13.3817 5.77766 13.3763 5.81463 13.3664C7.21093 12.9935 8.60723 12.6202 10.0035 12.2465C10.9977 11.9805 11.9918 11.7145 12.986 11.4476C13.6036 11.2816 13.9715 10.8569 14.0076 10.2393C14.0396 9.69327 13.921 9.16667 13.7547 8.65043C13.7443 8.61797 13.6925 8.57244 13.6663 8.57604C13.4314 8.61031 13.1979 8.65404 12.9431 8.69913C13.2118 9.16486 13.4603 9.59227 13.706 10.021C13.8218 10.2235 13.7862 10.3529 13.5897 10.4723C13.0405 10.8051 12.5703 10.6865 12.2502 10.1347C12.0933 9.86414 11.9368 9.59318 11.7768 9.31635C11.4508 9.49985 11.1221 9.55936 10.7695 9.48407C10.6861 9.46649 10.5901 9.46513 10.508 9.48677C9.25737 9.81635 8.00805 10.1518 6.75782 10.4845C6.55088 10.5395 6.40119 10.4751 6.35836 10.3168C6.31373 10.1522 6.4075 10.0192 6.60904 9.96558C7.46747 9.737 8.3268 9.50932 9.18523 9.28028C9.47017 9.20409 9.75376 9.12428 10.0558 9.04133C9.83447 8.7636 9.7479 8.46152 9.75016 8.12338C9.68884 8.13465 9.64511 8.14007 9.60273 8.15134C8.96702 8.32086 8.33131 8.49173 7.69605 8.66171C7.23438 8.78524 6.77225 8.90787 6.31057 9.03141C6.16449 9.07063 6.05358 9.02374 5.98415 8.893C5.92013 8.77262 5.94943 8.6581 6.05133 8.57559C6.10543 8.53186 6.18027 8.50841 6.2497 8.48993C7.24384 8.22392 8.23979 7.96333 9.23302 7.69372C9.60498 7.59272 9.98235 7.53276 10.2596 7.18695C10.421 6.98542 10.71 6.87586 10.9553 6.75278C11.3345 6.56252 11.6208 6.27757 11.8669 5.94349C11.9738 5.79876 12.0689 5.64547 12.1794 5.50345C12.2425 5.42275 12.2294 5.35963 12.1875 5.27622C12.018 4.94033 11.8503 4.60309 11.692 4.26179C11.2402 3.28929 10.8737 2.2902 10.77 1.2131C10.7515 1.02058 10.7456 0.827165 10.733 0.617967C8.02112 1.34294 5.3295 2.06251 2.63338 2.78343C2.63338 2.85692 2.63338 2.91283 2.63338 2.96873C2.63563 3.84159 2.82184 4.68289 3.1699 5.47415C3.61715 6.49083 4.11535 7.48587 4.60723 8.48272C5.01751 9.3141 5.45169 10.136 5.69199 11.0368C5.89849 11.8118 6.06756 12.5954 5.67621 13.3948L5.67576 13.3944ZM0.704163 4.52464C0.720845 4.56206 0.725804 4.57829 0.73437 4.59227C1.33221 5.6067 1.646 6.71355 1.79253 7.87135C1.91381 8.82988 2.00669 9.792 2.13113 10.7501C2.2249 11.4714 2.41021 12.1703 2.73572 12.8272C2.78352 12.9232 2.84123 12.9687 2.94988 12.9823C3.46341 13.0458 3.94537 12.6509 3.94943 12.1216C3.95214 11.787 3.92599 11.4466 3.86422 11.1175C3.69966 10.2397 3.33672 9.42771 2.99136 8.61031C2.53464 7.53006 2.07928 6.44935 1.64014 5.36188C1.5112 5.04223 1.43861 4.69957 1.33717 4.35557C1.12842 4.41148 0.924632 4.46603 0.704614 4.52509L0.704163 4.52464ZM2.08198 3.36053C1.67531 3.46197 1.77765 3.38442 1.79749 3.75909C1.802 3.84836 1.82409 3.93672 1.84032 4.02509C2.01435 4.97144 2.37594 5.85512 2.75105 6.73384C3.16765 7.70995 3.60317 8.67884 3.99857 9.66351C4.31192 10.4435 4.52337 11.2532 4.49812 12.1072C4.47874 12.7659 4.05628 13.3073 3.42148 13.4778C3.37143 13.4913 3.32184 13.5066 3.23888 13.5305C3.34664 13.5909 3.42103 13.6405 3.50128 13.6766C4.38496 14.0733 5.36693 13.4354 5.36648 12.4611C5.36648 11.6292 5.12887 10.8484 4.77991 10.1076C4.30651 9.10129 3.79434 8.11346 3.29975 7.11707C2.87684 6.26495 2.49497 5.39615 2.28126 4.46513C2.19875 4.10535 2.14916 3.7379 2.08243 3.36008L2.08198 3.36053ZM12.9174 5.35422C12.8836 5.40201 12.8656 5.42906 12.8462 5.45476C12.5328 5.87902 12.2177 6.30147 11.9098 6.72933C11.8818 6.76811 11.8809 6.85512 11.9053 6.89886C12.1329 7.30553 12.3719 7.70589 12.6005 8.11211C12.6514 8.20273 12.7006 8.21941 12.8011 8.19597C13.0743 8.13285 13.3503 8.07559 13.6275 8.03592C13.885 7.99895 14.146 7.98768 14.4264 7.96333C13.921 7.08957 13.4269 6.23519 12.9174 5.35467V5.35422ZM11.4012 7.11437C11.1731 7.24602 10.9598 7.36865 10.747 7.49218C10.6983 7.52014 10.6492 7.54809 10.6045 7.58145C10.2961 7.81139 10.2046 8.24016 10.3913 8.5774C10.5766 8.91238 10.9977 9.07604 11.3489 8.91689C11.6329 8.7884 11.898 8.61842 12.1807 8.46152C11.9183 8.00796 11.6663 7.57153 11.4016 7.11391L11.4012 7.11437ZM13.4251 4.52464C13.2091 4.77081 13.2087 4.77712 13.3462 5.01472C13.889 5.95341 14.4323 6.89209 14.9751 7.83078C15.0752 8.00391 15.1961 8.04088 15.4057 7.94845C14.7479 6.81184 14.0915 5.67703 13.4251 4.52464ZM13.1253 10.095C12.8976 9.70138 12.6771 9.32086 12.4494 8.92726C12.3746 8.97235 12.3155 9.00751 12.247 9.04854C12.4341 9.37045 12.6072 9.67839 12.7907 9.98001C12.8597 10.0936 12.9715 10.1365 13.1253 10.095ZM14.876 5.79065C14.853 5.80508 14.8304 5.8195 14.8074 5.83393C14.8769 5.95025 14.9463 6.06657 15.0157 6.18334C15.0369 6.17072 15.0581 6.15855 15.0797 6.14592L14.876 5.79065Z" fill="white"/>
<path d="M15.4565 4.30744C15.4105 4.46299 15.3709 4.651 15.2974 4.82503C15.2482 4.94135 15.1297 4.98824 14.998 4.94811C14.8704 4.90934 14.7861 4.81736 14.8082 4.68661C14.8398 4.50041 14.8871 4.31331 14.9565 4.13792C15.0034 4.01935 15.1247 3.97787 15.2555 4.01529C15.3858 4.05271 15.4439 4.14649 15.4561 4.30744H15.4565Z" fill="white"/>
<path d="M15.9651 5.71821C15.8659 5.62939 15.7735 5.57483 15.7221 5.49413C15.6536 5.38683 15.6919 5.26464 15.792 5.19521C15.9385 5.09332 16.0972 5.0063 16.2577 4.92785C16.3736 4.87105 16.4976 4.91252 16.5499 5.01848C16.5905 5.10098 16.6103 5.26555 16.5634 5.30657C16.3903 5.45761 16.1852 5.57213 15.9656 5.71821H15.9651Z" fill="white"/>
<path d="M16.4391 6.90382C16.3002 6.86369 16.1239 6.82537 15.9576 6.7609C15.8255 6.7095 15.7853 6.58732 15.821 6.45296C15.8579 6.31545 15.9634 6.24016 16.0987 6.26135C16.2696 6.28795 16.4391 6.33574 16.6018 6.39525C16.7308 6.44259 16.7916 6.55711 16.7596 6.69462C16.7263 6.83754 16.6248 6.90788 16.4391 6.90382Z" fill="white"/>
<path d="M9.23956 2.01856C9.54975 2.01721 9.75264 2.18583 9.83379 2.48745C10.0164 3.16464 10.1967 3.84273 10.3789 4.51992C10.4763 4.88286 10.5764 5.24535 10.6728 5.60874C10.7783 6.00639 10.6192 6.28006 10.222 6.38601C8.99474 6.71424 7.76751 7.04246 6.53983 7.36888C6.14443 7.47393 5.88022 7.32064 5.77382 6.92659C5.49384 5.89188 5.21476 4.85716 4.93748 3.82154C4.82657 3.40765 4.97806 3.14751 5.3942 3.0357C6.62098 2.70612 7.84822 2.37835 9.0759 2.05057C9.14082 2.03344 9.208 2.02442 9.24001 2.01856H9.23956ZM5.93027 5.42975C6.15389 5.143 6.35678 4.88241 6.55967 4.62226C6.74091 4.39007 6.83739 4.37384 7.08401 4.5357C7.3135 4.68628 7.54208 4.83732 7.78149 4.99557C8.04975 4.57718 8.30719 4.17546 8.56463 3.7742C8.74497 3.49287 8.86895 3.47303 9.13451 3.68177C9.3153 3.82425 9.49655 3.96672 9.67734 4.10874C9.68591 4.10062 9.69402 4.09296 9.70259 4.08484C9.56598 3.57808 9.42892 3.07086 9.28915 2.55238C7.99384 2.89864 6.71927 3.23903 5.43342 3.58304C5.59934 4.20071 5.7603 4.79855 5.93027 5.4302V5.42975ZM7.48888 5.45004C7.2905 5.31929 7.10024 5.19395 6.90187 5.0632C6.64533 5.39323 6.39646 5.71198 6.14984 6.03254C6.1309 6.05689 6.11287 6.09656 6.11963 6.12317C6.1823 6.37069 6.24993 6.6173 6.31846 6.87204C7.61783 6.52443 8.8924 6.18313 10.1724 5.84048C10.1016 5.57492 10.0371 5.33101 9.96995 5.088C9.96003 5.05193 9.94244 5.01 9.91494 4.98791C9.59168 4.72912 9.26571 4.47348 8.92982 4.20838C8.76165 4.47032 8.60385 4.71559 8.4465 4.96086C8.23099 5.29674 8.01864 5.63489 7.79862 5.96762C7.70124 6.11505 7.54885 6.14616 7.41855 6.06275C7.28915 5.97979 7.2594 5.8274 7.34596 5.67727C7.38789 5.60468 7.43523 5.5357 7.48933 5.45049L7.48888 5.45004Z" fill="white"/>
<path d="M7.01221 11.9835C6.86793 11.9632 6.77325 11.8965 6.7471 11.7549C6.7214 11.6165 6.7976 11.4934 6.94999 11.4501C7.2746 11.3577 7.60103 11.272 7.92699 11.185C9.22005 10.8396 10.5131 10.4943 11.8066 10.1494C11.8445 10.139 11.8828 10.1286 11.9211 10.121C12.0852 10.0872 12.2228 10.167 12.2611 10.3167C12.2963 10.4546 12.2164 10.5926 12.0586 10.6372C11.707 10.7369 11.3531 10.8284 11 10.9231C9.72907 11.2635 8.45765 11.6043 7.18669 11.9442C7.12717 11.96 7.06631 11.9713 7.01266 11.9835H7.01221Z" fill="white"/>
<path d="M7.84883 4.04922C7.85199 4.22506 7.72395 4.36257 7.55037 4.36933C7.36687 4.37654 7.22485 4.24444 7.22079 4.06275C7.21673 3.8815 7.3547 3.74174 7.53684 3.74219C7.71268 3.74309 7.84568 3.87384 7.84929 4.04877L7.84883 4.04922Z" fill="white"/>
</svg>
