<svg width="16" height="15" viewBox="0 0 16 15" fill="none" xmlns="http://www.w3.org/2000/svg">
<path d="M0.595272 9.1756C0.668326 8.93741 0.71779 8.68933 0.819001 8.46408C1.00544 8.04859 1.32734 7.7518 1.72077 7.52655C2.51219 7.07377 3.30133 6.61718 4.08895 6.15907C4.16048 6.11798 4.22745 6.05938 4.27843 5.9947C5.55612 4.37153 6.83305 2.74911 8.10389 1.12061C8.34436 0.812418 8.62973 0.629021 9.02925 0.687617C9.33136 0.731754 9.54976 0.903735 9.7012 1.16703C10.033 1.74462 10.3701 2.31916 10.6958 2.90055C10.7597 3.01546 10.8297 3.0497 10.9553 3.03905C11.265 3.01241 11.5755 3.001 11.886 2.97817C12.0564 2.96523 12.1713 3.03524 12.2543 3.18135C12.4316 3.49564 12.612 3.80764 12.7954 4.11812C12.8829 4.26499 12.8745 4.39816 12.7794 4.53818C12.6043 4.79463 12.4407 5.05945 12.2619 5.31362C12.1927 5.41179 12.1866 5.48484 12.2505 5.59138C12.5625 6.11722 12.8707 6.64458 13.1682 7.17879C13.4886 7.75485 13.1606 8.41614 12.513 8.52953C12.1234 8.59801 11.7361 8.67716 11.3472 8.75325C9.8435 9.04699 8.3398 9.34149 6.8361 9.63599C6.79196 9.64436 6.74858 9.6573 6.6839 9.67328C6.79424 9.86581 6.90002 10.0515 7.00656 10.2364C7.17245 10.5248 7.13744 10.6549 6.84827 10.8224C6.62835 10.9494 6.40842 11.0773 6.17937 11.2097C6.47311 11.7188 6.76076 12.2172 7.04841 12.7157C7.25616 13.0749 7.31019 13.45 7.14353 13.8381C6.96775 14.2468 6.65118 14.4964 6.21361 14.558C5.76463 14.6219 5.38414 14.4697 5.09649 14.1113C5.03409 14.0337 4.98082 13.9477 4.93135 13.861C4.47705 13.0764 4.02426 12.2911 3.57072 11.5057C3.54332 11.4585 3.5144 11.4121 3.49386 11.3779C3.25719 11.4182 3.0327 11.4814 2.80593 11.4905C1.70402 11.5369 0.816718 10.8117 0.621906 9.72427C0.618101 9.70144 0.603643 9.68013 0.59375 9.65806C0.59375 9.49749 0.59375 9.33693 0.59375 9.17636L0.595272 9.1756ZM8.13357 2.06347C8.10922 2.09391 8.09704 2.10989 8.08487 2.12511C7.00199 3.50553 5.91911 4.88595 4.83319 6.26333C4.77307 6.33942 4.78601 6.38736 4.82786 6.45966C5.32022 7.30891 5.81105 8.15893 6.2996 9.01047C6.34146 9.08352 6.3757 9.11548 6.47311 9.0957C7.79417 8.83164 9.116 8.57442 10.4378 8.31569C10.8236 8.24035 11.2095 8.16426 11.6105 8.08511C10.4492 6.07384 9.29788 4.07931 8.13357 2.06195V2.06347ZM5.79811 9.34301C5.29206 8.46636 4.79438 7.60493 4.29213 6.73513C3.47103 7.21379 2.65601 7.67266 1.85774 8.15969C1.4491 8.40929 1.23754 8.81033 1.20482 9.2867C1.16677 9.83765 1.37756 10.2927 1.82806 10.61C2.31205 10.9517 2.84246 10.9936 3.37667 10.7326C3.67269 10.588 3.95197 10.4092 4.2381 10.244C4.75405 9.94723 5.26847 9.64893 5.79811 9.34301ZM8.53765 1.55361C8.56505 1.60232 8.59092 1.65102 8.61832 1.6982C9.01403 2.38384 9.40898 3.06873 9.80469 3.75437C10.5885 5.11196 11.3716 6.47031 12.1561 7.82714C12.1843 7.87584 12.2322 7.95346 12.2665 7.95118C12.4034 7.94357 12.5511 7.93977 12.6401 7.80127C12.7215 7.67418 12.6934 7.55547 12.6234 7.43447C11.4758 5.44831 10.3298 3.46139 9.18145 1.47599C9.03153 1.2165 8.80476 1.20508 8.61832 1.44099C8.59016 1.47599 8.56505 1.51328 8.53613 1.55361H8.53765ZM4.01741 11.0666C4.04329 11.1138 4.06231 11.1481 4.08134 11.1815C4.4215 11.7713 4.76166 12.3603 5.10181 12.9501C5.24184 13.1928 5.37653 13.4386 5.52492 13.6768C5.71288 13.9774 6.07587 14.0596 6.362 13.8777C6.64509 13.6981 6.72119 13.3526 6.53855 13.0338C6.06294 12.2043 5.58352 11.3779 5.10562 10.5499C5.09116 10.5248 5.0729 10.502 5.05159 10.47C4.70534 10.6702 4.36518 10.8665 4.01741 11.0674V11.0666ZM11.1235 3.63033C11.367 4.05191 11.5968 4.44991 11.838 4.86769C11.959 4.68505 12.0709 4.52601 12.1713 4.36011C12.1904 4.32891 12.1812 4.26499 12.1615 4.22922C12.0587 4.0405 11.9507 3.85406 11.8396 3.6699C11.819 3.63642 11.7756 3.59228 11.7444 3.5938C11.5458 3.59913 11.348 3.61587 11.1235 3.63033ZM5.87954 10.6854C6.05837 10.5819 6.22426 10.4852 6.39929 10.384C6.29504 10.2029 6.19839 10.037 6.0987 9.86429C5.91911 9.96854 5.75322 10.0644 5.57895 10.1656C5.68092 10.3422 5.77452 10.505 5.87878 10.6861L5.87954 10.6854Z" fill="white"/>
<path d="M13.9746 2.8362C13.8992 2.76391 13.7881 2.70456 13.7608 2.61856C13.7326 2.53029 13.7783 2.4131 13.8102 2.31493C13.8224 2.27612 13.8825 2.24797 13.9251 2.22438C14.4532 1.92912 14.9806 1.63462 15.5102 1.3424C15.7013 1.23738 15.8824 1.28076 15.9653 1.44057C16.0445 1.59428 15.9904 1.75561 15.8162 1.85758C15.6175 1.97325 15.4151 2.08207 15.2142 2.19394C14.8908 2.37353 14.5689 2.5554 14.244 2.73195C14.1717 2.77152 14.0895 2.79283 13.9753 2.8362H13.9746Z" fill="white"/>
<path d="M14.2083 4.12012C14.2829 4.1399 14.4031 4.17186 14.5233 4.20383C14.798 4.27688 15.0743 4.34613 15.3475 4.42451C15.5392 4.4793 15.629 4.62997 15.5849 4.79739C15.5408 4.96404 15.3855 5.05004 15.1953 5.00209C14.8277 4.90849 14.4609 4.81185 14.0957 4.70988C13.9069 4.65737 13.8126 4.51507 13.8438 4.35754C13.8742 4.20611 13.9967 4.11327 14.2083 4.12088V4.12012Z" fill="white"/>
<path d="M12.1423 1.4288C12.1453 1.40978 12.1468 1.36944 12.1567 1.33063C12.2511 0.979062 12.3439 0.626728 12.4421 0.275915C12.4999 0.0681675 12.6437 -0.0315211 12.8096 0.00881094C12.9885 0.0529478 13.0745 0.210471 13.0204 0.421263C12.9268 0.788817 12.8294 1.15561 12.7244 1.52012C12.6719 1.70199 12.5387 1.78114 12.3751 1.7507C12.229 1.7233 12.1369 1.60535 12.1407 1.42804L12.1423 1.4288Z" fill="white"/>
<path d="M2.77528 10.2935C2.38718 10.2836 2.13073 10.1527 1.95037 9.88177C1.84688 9.72577 1.87199 9.55607 2.00821 9.45486C2.13757 9.35822 2.2989 9.38333 2.42218 9.51879C2.61014 9.72501 2.7007 9.73947 2.94269 9.60097C3.07739 9.52411 3.2098 9.44269 3.34678 9.36963C3.5218 9.27603 3.69531 9.31636 3.7813 9.46323C3.86805 9.61239 3.82011 9.78361 3.64965 9.88634C3.46092 9.99972 3.27068 10.1116 3.07206 10.2067C2.96248 10.2592 2.8354 10.2775 2.77604 10.2942L2.77528 10.2935Z" fill="white"/>
<path d="M4.56624 8.72049C4.73214 8.72201 4.8615 8.85214 4.85998 9.01575C4.85846 9.1786 4.72377 9.30873 4.55939 9.30569C4.39274 9.30264 4.26337 9.17251 4.26565 9.00966C4.26718 8.84529 4.39883 8.71897 4.56624 8.71973V8.72049Z" fill="white"/>
</svg>
