<svg width="16" height="16" viewBox="0 0 16 16" fill="none" xmlns="http://www.w3.org/2000/svg">
<path d="M0.987586 16.0002C0.9486 15.9876 0.909615 15.9738 0.869968 15.9632C0.315579 15.816 -0.0366128 15.3026 0.0030336 14.7304C0.0843087 13.5517 0.168227 12.373 0.22175 11.1936C0.238269 10.8333 0.154351 10.4697 0.127259 10.1067C0.0697717 9.33386 -0.0300051 8.56237 0.0479662 7.78559C0.125277 7.01739 0.361834 6.32178 0.978335 5.80635C1.28758 5.54764 1.6477 5.38991 2.03359 5.2863C2.07654 5.27508 2.11883 5.26254 2.18623 5.2434C1.82611 5.05927 1.52744 4.83752 1.28097 4.54911C1.0127 4.23563 0.829661 3.87859 0.710722 3.48393C0.69222 3.42387 0.643323 3.35986 0.5898 3.32554C0.447073 3.23248 0.366459 3.10973 0.362494 2.94012C0.35919 2.81539 0.35919 2.68999 0.362494 2.56526C0.36712 2.39565 0.449056 2.27421 0.592443 2.18182C0.645966 2.1475 0.696185 2.08348 0.713365 2.02277C1.03582 0.904125 1.95694 0.135925 3.12981 0.0144917C4.20291 -0.0970425 5.26808 0.489667 5.80462 1.4816C5.83502 1.53835 5.89845 1.58983 5.95858 1.61491C6.28963 1.75218 6.4872 2.03003 6.49117 2.38707C6.49381 2.63191 6.49381 2.8761 6.49117 3.12095C6.48654 3.47799 6.28897 3.75584 5.95594 3.89113C5.90704 3.91093 5.85154 3.94327 5.82511 3.9855C5.38173 4.70751 5.23966 4.84412 4.43814 5.29422C4.60466 5.37803 4.76985 5.45393 4.92844 5.54368C5.26411 5.73375 5.54428 5.99048 5.76696 6.3033C6.34051 7.10846 6.91274 7.9156 7.48034 8.72472C7.88408 9.30087 7.59003 10.0625 6.9101 10.203C6.59293 10.2684 6.3121 10.1793 6.07356 9.96083C6.01012 9.90275 5.94801 9.8427 5.8522 9.75228C5.88458 10.079 5.91035 10.3614 5.94008 10.6432C6.06166 11.7916 6.18391 12.9399 6.30615 14.0883C6.32796 14.2955 6.35571 14.5014 6.37223 14.7093C6.42179 15.3382 6.06827 15.8207 5.45243 15.9725C5.43327 15.9771 5.41609 15.9896 5.39759 15.9989H5.05332C5.03482 15.9903 5.01698 15.9784 4.99716 15.9738C4.56435 15.8814 4.27824 15.62 4.11965 15.2128C4.03309 14.9904 3.94851 14.7674 3.86261 14.545C3.65182 13.9998 3.44038 13.4547 3.2177 12.8792C3.18466 12.9518 3.16219 12.996 3.14303 13.0416C2.84238 13.7708 2.54106 14.4994 2.24306 15.2293C2.15649 15.4412 2.04218 15.6365 1.84791 15.7573C1.68801 15.857 1.50497 15.9197 1.33185 15.9989H0.987586V16.0002ZM3.20448 5.50078C3.09744 5.50804 2.90449 5.51464 2.71287 5.53642C2.23711 5.59054 1.77985 5.70735 1.37876 5.9819C0.752351 6.41088 0.509847 7.04708 0.425268 7.76645C0.348618 8.42311 0.437162 9.07582 0.470861 9.7305C0.502578 10.3476 0.634733 10.9561 0.585175 11.581C0.501257 12.6344 0.449716 13.6896 0.378353 14.7443C0.34994 15.1627 0.575924 15.5032 0.967763 15.6016C1.34771 15.6973 1.72633 15.5098 1.87897 15.1264C2.33755 13.9721 2.78819 12.8145 3.24016 11.6576C3.28377 11.5454 3.35382 11.4748 3.4754 11.5118C3.60094 11.55 3.63729 11.6464 3.59698 11.7724C3.54676 11.9308 3.49324 12.0892 3.45359 12.2503C3.43773 12.3156 3.43641 12.3961 3.4602 12.4575C3.79521 13.3366 4.13419 14.2143 4.47581 15.0907C4.63241 15.492 5.00641 15.6959 5.39627 15.6029C5.80198 15.5059 6.04052 15.1647 5.99559 14.7245C5.90176 13.8032 5.80198 12.8825 5.70287 11.9618C5.60375 11.0412 5.50331 10.1205 5.39957 9.19989C5.3586 8.83823 5.30706 8.47789 5.25883 8.11689C5.24297 7.99677 5.27799 7.90372 5.40287 7.88062C5.53635 7.85554 5.60705 7.93144 5.62754 8.05947C5.63216 8.09049 5.63943 8.12085 5.6434 8.15187C5.68635 8.45545 5.72665 8.7597 5.77225 9.06328C5.77951 9.1108 5.79934 9.16623 5.83172 9.19923C6.00352 9.37346 6.17598 9.54835 6.35769 9.71136C6.53808 9.87372 6.79314 9.89351 6.99864 9.78C7.30326 9.61237 7.38057 9.23487 7.16714 8.93195C6.64182 8.1875 6.10395 7.4523 5.58987 6.7006C5.03284 5.88686 4.27229 5.48693 3.20316 5.50078H3.20448ZM4.31921 1.94159C3.86591 1.94159 3.41329 1.93961 2.95999 1.94225C2.66925 1.94423 2.49349 2.12044 2.49018 2.40951C2.48688 2.63851 2.48754 2.86752 2.49018 3.09653C2.49415 3.38626 2.66925 3.56445 2.95933 3.56511C3.85534 3.56775 4.75069 3.56775 5.6467 3.56511C5.93678 3.56445 6.1132 3.38626 6.11717 3.09719C6.12047 2.87874 6.11915 2.66029 6.11717 2.44184C6.11519 2.11318 5.94537 1.94225 5.6163 1.94159C5.18416 1.94027 4.75201 1.94159 4.31921 1.94159ZM5.40684 1.56673C4.99914 0.737814 3.92671 0.24416 2.94612 0.415091C2.05011 0.570843 1.18053 1.37336 1.09595 2.12902C1.41973 2.12902 1.74219 2.13232 2.06531 2.12506C2.10694 2.1244 2.16442 2.07952 2.18557 2.03927C2.3534 1.72446 2.61111 1.56607 2.96858 1.56607C3.65645 1.56673 4.34432 1.56607 5.03218 1.56607C5.15046 1.56607 5.2694 1.56607 5.40684 1.56607V1.56673ZM5.4042 3.94129C5.33019 3.94129 5.27336 3.94129 5.2172 3.94129C4.4725 3.94129 3.72715 3.93997 2.98246 3.94195C2.61904 3.94327 2.35407 3.78949 2.18623 3.46611C2.16905 3.43311 2.13601 3.38428 2.11024 3.38428C1.7706 3.379 1.4303 3.38032 1.08538 3.38032C1.30211 4.30625 2.14262 5.00647 3.14964 5.11932C4.02582 5.21766 5.04804 4.69167 5.4042 3.94129ZM2.1109 2.50388C1.75937 2.50388 1.42171 2.50058 1.08472 2.50454C0.680326 2.50982 0.747725 2.42997 0.736492 2.86356C0.733849 2.9751 0.776799 3.00678 0.883184 3.00546C1.26313 3.00084 1.64373 3.00414 2.02368 3.00282C2.05275 3.00282 2.08183 2.99292 2.1109 2.98764V2.50388Z" fill="white"/>
<path d="M10.5905 15.9998C10.5568 15.9886 10.5237 15.9748 10.49 15.9655C9.9297 15.821 9.55769 15.3155 9.61452 14.7419C9.71892 13.686 9.83786 12.6314 9.94953 11.5754C10.007 11.0323 10.0638 10.4891 10.1193 9.94531C10.1246 9.89582 10.12 9.84566 10.12 9.76844C10.0401 9.84302 9.9786 9.90308 9.91451 9.96049C9.53721 10.2977 9.0066 10.305 8.63327 9.97897C8.27249 9.66417 8.2183 9.13422 8.50904 8.72042C9.07532 7.91592 9.64227 7.11208 10.2138 6.31154C10.5171 5.88653 10.9143 5.57436 11.3966 5.37109C11.4482 5.34931 11.499 5.32622 11.5638 5.29718C11.4601 5.24372 11.3669 5.19884 11.277 5.14868C10.8066 4.88338 10.4478 4.50918 10.1874 4.03664C10.1537 3.97593 10.0903 3.91653 10.0268 3.89013C9.69711 3.75154 9.5002 3.47369 9.4969 3.11533C9.49492 2.87576 9.49492 2.6362 9.4969 2.39663C9.49954 2.02969 9.69579 1.75118 10.0341 1.61127C10.0936 1.58685 10.1557 1.53273 10.1861 1.47598C10.7127 0.491968 11.7924 -0.100681 12.8629 0.0141531C14.0324 0.139547 14.9483 0.902467 15.2694 2.01121C15.2879 2.07589 15.3527 2.12802 15.3976 2.18478C15.4069 2.196 15.4247 2.19996 15.4373 2.2092C15.7399 2.42171 15.7088 3.13447 15.3903 3.32388C15.3494 3.3483 15.2985 3.38526 15.2873 3.42551C15.0699 4.24255 14.5769 4.83586 13.8124 5.23646C13.8507 5.25164 13.8745 5.26286 13.899 5.27078C13.9234 5.2787 13.9498 5.28134 13.975 5.2886C15.0758 5.58954 15.7425 6.37094 15.909 7.52786C16.0154 8.26768 15.9434 9.00354 15.8892 9.73941C15.8568 10.175 15.7795 10.6086 15.7657 11.0442C15.7531 11.4329 15.7974 11.8236 15.8218 12.213C15.8701 13.0023 15.9216 13.7923 15.9731 14.5816C15.9771 14.6377 15.9916 14.6931 16.0009 14.7492V14.9366C15.9903 14.9762 15.9778 15.0152 15.9698 15.0548C15.9044 15.3795 15.7386 15.6421 15.4538 15.8111C15.3143 15.8942 15.1518 15.9371 14.9998 15.9985H14.6556C14.1276 15.8764 13.8402 15.522 13.6558 15.0303C13.4047 14.3605 13.1166 13.7038 12.8444 13.0419C12.8252 12.9963 12.8034 12.9515 12.7717 12.8822C12.7353 12.9706 12.7102 13.0313 12.6865 13.0927C12.4149 13.7942 12.142 14.4951 11.8737 15.198C11.7442 15.5359 11.5248 15.784 11.1845 15.9167C11.1032 15.9484 11.018 15.9715 10.9347 15.9985H10.5905V15.9998ZM15.6117 8.59304C15.5879 8.27824 15.5833 7.90668 15.5271 7.5437C15.3732 6.55309 14.8247 5.88257 13.8349 5.6463C13.4239 5.54862 12.9904 5.51431 12.5669 5.50969C11.7078 5.50045 11.0114 5.86145 10.5059 6.55507C9.93301 7.34175 9.37796 8.14163 8.8163 8.93689C8.63195 9.19823 8.66564 9.517 8.89097 9.71169C9.11827 9.90704 9.43545 9.89516 9.67002 9.67605C9.82993 9.5269 9.98719 9.37378 10.1385 9.21671C10.1782 9.17579 10.2066 9.1131 10.2152 9.05634C10.266 8.73296 10.309 8.40759 10.3552 8.08355C10.3731 7.95552 10.4273 7.86246 10.5759 7.87764C10.6936 7.88952 10.7444 7.98192 10.724 8.13833C10.6803 8.47359 10.6301 8.80819 10.5925 9.14412C10.4887 10.0694 10.3889 10.9953 10.2892 11.9213C10.1874 12.8676 10.087 13.8147 9.98719 14.7617C9.9634 14.9855 10.0268 15.1848 10.1749 15.3544C10.5687 15.8038 11.275 15.6798 11.501 15.1135C11.7977 14.3697 12.0653 13.6147 12.3772 12.8782C12.5298 12.5179 12.5893 12.1833 12.4069 11.8269C12.3951 11.8038 12.3898 11.778 12.3838 11.7523C12.3554 11.6309 12.3997 11.5424 12.5186 11.5101C12.6336 11.4791 12.705 11.5431 12.7453 11.6487C12.9964 12.3093 13.2441 12.9713 13.5018 13.6292C13.7027 14.142 13.9102 14.6528 14.1256 15.1597C14.273 15.5068 14.643 15.6883 14.9965 15.6072C15.3679 15.5227 15.6355 15.1986 15.6143 14.8304C15.5661 13.9836 15.5053 13.1369 15.4538 12.2902C15.4273 11.8645 15.3712 11.4362 15.395 11.0125C15.4399 10.2232 15.5331 9.43714 15.6117 8.59304ZM11.686 3.56543C12.134 3.56543 12.582 3.56741 13.0294 3.56477C13.3188 3.56279 13.4946 3.38526 13.4985 3.09553C13.5018 2.86652 13.5018 2.63752 13.4985 2.40851C13.4946 2.11944 13.3182 1.94191 13.0281 1.94125C12.1321 1.93927 11.2367 1.93927 10.3407 1.94125C10.0506 1.94191 9.87552 2.1201 9.87222 2.40983C9.86957 2.62828 9.8709 2.84672 9.87222 3.06517C9.8742 3.39318 10.044 3.56345 10.3744 3.56411C10.8118 3.56543 11.2493 3.56411 11.6867 3.56411L11.686 3.56543ZM14.8961 2.12802C14.7692 1.25687 13.7906 0.44907 12.7915 0.383074C11.8882 0.323017 10.7814 0.916326 10.5997 1.56573C10.6585 1.56573 10.7154 1.56573 10.7715 1.56573C11.5169 1.56573 12.2616 1.56771 13.0069 1.56507C13.3704 1.56375 13.6347 1.71884 13.8032 2.04157C13.8223 2.07853 13.8732 2.1234 13.9102 2.12406C14.2379 2.13066 14.5657 2.12802 14.8954 2.12802H14.8961ZM14.8974 3.378C14.563 3.378 14.2313 3.37602 13.899 3.3813C13.8666 3.3813 13.8223 3.42551 13.8045 3.45983C13.6347 3.78982 13.3644 3.94227 12.995 3.94029C12.2503 3.93699 11.505 3.93897 10.7603 3.93897C10.7055 3.93897 10.6513 3.93897 10.5892 3.93897C10.9004 4.67153 11.9695 5.22062 12.8497 5.11569C13.8593 4.99491 14.7553 4.23925 14.8974 3.37734V3.378ZM13.8811 3.00248C14.3113 3.00248 14.7276 3.00512 15.1432 2.9972C15.1795 2.99654 15.2503 2.91932 15.2443 2.8883C15.2212 2.76093 15.3315 2.60782 15.1789 2.50486C15.1749 2.50222 15.169 2.50354 15.1637 2.50354C14.7382 2.50354 14.3126 2.50354 13.8811 2.50354V3.00248Z" fill="white"/>
<path d="M6.41406 5.98054C6.45305 5.93368 6.48741 5.85581 6.54291 5.83601C6.59908 5.81555 6.70282 5.82743 6.73916 5.86769C7.02594 6.18249 7.30412 6.50587 7.57901 6.83124C7.64442 6.90911 7.6279 7.00085 7.5539 7.06948C7.47328 7.14406 7.37483 7.14934 7.3028 7.06948C7.01933 6.75138 6.74181 6.428 6.46494 6.10461C6.44314 6.07888 6.43719 6.03928 6.41406 5.9812V5.98054Z" fill="white"/>
<path d="M8.3457 6.95578C8.38006 6.89044 8.39658 6.83897 8.42896 6.80201C8.68534 6.50172 8.94502 6.20342 9.20405 5.90512C9.2873 5.80876 9.38708 5.7751 9.48884 5.86486C9.5906 5.95461 9.56813 6.05757 9.48554 6.15326C9.22982 6.44761 8.97872 6.74657 8.71441 7.033C8.66618 7.08513 8.55979 7.11087 8.48579 7.10229C8.43491 7.09635 8.39394 7.00924 8.3457 6.95578Z" fill="white"/>
<path d="M7.80469 7.43532C7.82187 7.32247 7.88332 7.24987 8.00028 7.25515C8.11591 7.26043 8.18265 7.33435 8.1767 7.44984C8.17076 7.55676 8.10204 7.62341 7.99301 7.62275C7.87605 7.62209 7.81724 7.54884 7.80469 7.43532Z" fill="white"/>
<path d="M2.22629 10.307C2.08092 10.2568 1.91969 10.2318 1.79216 10.1526C1.49217 9.96711 1.20738 9.75658 0.9173 9.55397C0.814219 9.48203 0.773912 9.387 0.849901 9.27283C0.9173 9.17251 1.02435 9.17317 1.14923 9.26161C1.40825 9.44442 1.66397 9.63185 1.93027 9.8041C2.16616 9.95655 2.39875 9.93411 2.57584 9.76582C2.75227 9.59819 2.77275 9.35796 2.63729 9.10849C2.46153 8.78445 2.28774 8.45909 2.11528 8.13307C2.05713 8.02417 2.05515 7.91726 2.17541 7.84994C2.28708 7.78724 2.37827 7.83212 2.43576 7.93904C2.63267 8.30466 2.84015 8.66566 3.02054 9.03986C3.29675 9.61337 2.87055 10.276 2.22629 10.307Z" fill="white"/>
<path d="M13.7852 10.2801C13.1178 10.2748 12.6909 9.61679 12.9612 9.04922C13.1422 8.66974 13.3524 8.30412 13.5526 7.93322C13.6068 7.83291 13.6933 7.79067 13.8017 7.84545C13.9153 7.90352 13.9352 8.00186 13.879 8.10943C13.7032 8.44535 13.5255 8.78062 13.3444 9.11456C13.1581 9.45774 13.3035 9.8326 13.6649 9.88804C13.7825 9.90586 13.9312 9.87352 14.0329 9.81082C14.3125 9.64055 14.5708 9.43728 14.8464 9.25975C14.9098 9.21883 15.0142 9.19838 15.0842 9.21949C15.1959 9.25381 15.2263 9.41286 15.1345 9.4914C14.7816 9.79168 14.4175 10.0794 13.9774 10.2464C13.9061 10.2735 13.8241 10.2735 13.7858 10.2794L13.7852 10.2801Z" fill="white"/>
</svg>
