<svg width="16" height="15" viewBox="0 0 16 15" fill="none" xmlns="http://www.w3.org/2000/svg">
<path d="M15.7481 5.437C15.6739 5.55716 15.5816 5.65353 15.4257 5.61252C15.2834 5.57521 15.2232 5.47063 15.2236 5.32423C15.2256 4.83744 15.2244 4.35025 15.2244 3.86347C15.2244 3.8081 15.2244 3.75315 15.2244 3.68876H0.524512C0.524512 3.74003 0.524512 3.79375 0.524512 3.84788C0.524512 6.47208 0.524512 9.09588 0.524512 11.7201C0.524512 12.1425 0.720128 12.3365 1.14704 12.3369C1.9619 12.3373 2.77676 12.3369 3.59162 12.3377C3.65764 12.3377 3.72654 12.3377 3.78928 12.3553C3.91969 12.3914 3.98162 12.4865 3.9726 12.6211C3.96398 12.749 3.89181 12.8298 3.76591 12.8532C3.70603 12.8642 3.6437 12.8626 3.58219 12.8626C2.81859 12.863 2.05458 12.847 1.29139 12.8683C0.707825 12.8847 0.21284 12.7195 0 11.9887V0.884941C0.25795 0.189419 0.531894 0.000364529 1.28647 0.000364529C5.69377 0.000364529 10.1011 0.000364529 14.5088 0.000364529C14.565 0.000364529 14.6215 -0.000455662 14.6777 0.000364529C15.2063 0.0130775 15.5869 0.316138 15.7222 0.829988C15.7272 0.848852 15.7391 0.866076 15.7481 0.884121V5.43618V5.437ZM15.224 3.14744C15.224 2.45889 15.2248 1.78756 15.224 1.11623C15.2236 0.737716 15.014 0.526107 14.633 0.526107C10.1277 0.525287 5.622 0.525287 1.11669 0.526107C0.734071 0.526107 0.525332 0.736896 0.524922 1.11541C0.524102 1.74573 0.524512 2.37646 0.524922 3.00678C0.524922 3.05148 0.530254 3.09577 0.533534 3.14744H15.2244H15.224Z" fill="white"/>
<path d="M15.7488 7.59066C15.6578 7.98682 15.3908 8.23287 15.0672 8.45555C12.6075 10.1476 10.1522 11.847 7.70069 13.5506C7.47555 13.7068 7.22498 13.756 6.97318 13.8176C6.178 14.0119 5.38242 14.2039 4.58683 14.3954C4.33626 14.4557 4.13122 14.3868 4.0004 14.203C3.86506 14.0132 3.86547 13.7872 4.01147 13.5723C4.54377 12.7886 5.07731 12.0058 5.61494 11.2253C5.67153 11.1433 5.74904 11.0691 5.83147 11.0117C8.37365 9.24991 10.9175 7.48978 13.4621 5.73129C14.0006 5.35933 14.6186 5.47498 14.9938 6.0118C15.123 6.19634 15.2485 6.38375 15.3793 6.56706C15.5368 6.78811 15.6914 7.00997 15.7488 7.28268V7.59025V7.59066ZM10.9987 8.07499C9.41284 9.17158 7.83479 10.2628 6.24813 11.3599C6.65084 11.9418 7.04536 12.5118 7.44315 13.0864C9.03842 11.9832 10.6128 10.8948 12.1929 9.80231C11.7902 9.22038 11.3973 8.6524 10.9983 8.0754L10.9987 8.07499ZM13.7037 8.75821C14.1544 8.44448 14.6014 8.14593 15.034 7.8277C15.2616 7.66038 15.2899 7.3688 15.1275 7.1252C14.9401 6.84388 14.7465 6.56665 14.5513 6.29107C14.3549 6.01385 14.0572 5.96299 13.7726 6.15697C13.451 6.37596 13.132 6.59905 12.8117 6.8205C12.7125 6.88899 12.6132 6.9583 12.5082 7.03129C12.9114 7.61404 13.3042 8.18161 13.7037 8.75862V8.75821ZM12.078 7.32861C11.8521 7.48486 11.6433 7.6288 11.4297 7.77644C11.834 8.36082 12.2269 8.92881 12.6239 9.50294C12.8429 9.35161 13.0528 9.20685 13.2727 9.05511C12.8732 8.4777 12.4808 7.91013 12.0785 7.32861H12.078ZM5.88519 11.7568C5.67851 12.0591 5.4833 12.3396 5.29671 12.6254C5.27579 12.6574 5.28851 12.7308 5.31229 12.7685C5.4103 12.924 5.51857 13.0728 5.62314 13.2241C5.77488 13.4429 5.97829 13.5217 6.23337 13.4608C6.46384 13.405 6.69349 13.3464 6.94119 13.2844C6.584 12.7677 6.24157 12.2723 5.88519 11.7568ZM5.30245 13.683C5.1745 13.4985 5.05885 13.3312 4.93377 13.1507C4.76317 13.4013 4.60529 13.6326 4.42484 13.8979C4.74185 13.8204 5.0121 13.7544 5.30245 13.6835V13.683Z" fill="white"/>
<path d="M4.33253 5.77698C5.21341 5.77698 6.0943 5.77698 6.97518 5.77698C7.02644 5.77698 7.07853 5.7737 7.12856 5.78231C7.26225 5.80569 7.35739 5.92708 7.34878 6.05585C7.34017 6.18215 7.24256 6.28345 7.11215 6.2978C7.06663 6.30272 7.01988 6.30067 6.97395 6.30067C5.21218 6.30067 3.45 6.30067 1.68823 6.30067C1.6423 6.30067 1.59555 6.30313 1.55003 6.2978C1.41552 6.28263 1.32488 6.18544 1.31873 6.05462C1.31217 5.92338 1.39255 5.81225 1.52173 5.78518C1.57586 5.7737 1.63369 5.77698 1.68987 5.77698C2.57075 5.77657 3.45164 5.77698 4.33253 5.77698Z" fill="white"/>
<path d="M4.34191 7.09242C5.21788 7.09242 6.09343 7.09242 6.96939 7.09242C7.02066 7.09242 7.07233 7.08955 7.12277 7.09693C7.25769 7.11621 7.33438 7.20192 7.34627 7.33233C7.35734 7.457 7.29706 7.55296 7.17567 7.59315C7.11416 7.61324 7.04526 7.61611 6.97965 7.61611C5.21254 7.61734 3.44585 7.61734 1.67875 7.61611C1.61806 7.61611 1.55449 7.61447 1.49708 7.59684C1.36831 7.55665 1.30761 7.4611 1.31992 7.32659C1.33263 7.19166 1.41219 7.11416 1.54588 7.09611C1.59632 7.08955 1.64799 7.09242 1.69926 7.09242C2.58014 7.09242 3.46103 7.09242 4.34191 7.09242Z" fill="white"/>
<path d="M11.4101 4.46387C12.2857 4.46387 13.1616 4.46387 14.0372 4.46428C14.0983 4.46428 14.161 4.46346 14.2205 4.47494C14.3554 4.50037 14.4346 4.60289 14.4313 4.73617C14.428 4.86822 14.3419 4.965 14.2053 4.98346C14.15 4.99084 14.093 4.98961 14.0368 4.98961C12.2906 4.98961 10.544 4.98961 8.79782 4.98961C8.73671 4.98961 8.67397 4.99125 8.61409 4.98059C8.47999 4.9568 8.40659 4.8674 8.40248 4.73576C8.39879 4.60412 8.46769 4.51021 8.59974 4.47904C8.65838 4.4651 8.72154 4.46469 8.78264 4.46469C9.6582 4.46387 10.5342 4.46428 11.4097 4.46428L11.4101 4.46387Z" fill="white"/>
<path d="M4.3325 4.98947C3.45694 4.98947 2.58098 4.98947 1.70542 4.98947C1.64924 4.98947 1.59224 4.99111 1.53688 4.98209C1.40359 4.96035 1.32855 4.87874 1.31911 4.74382C1.30968 4.61054 1.38924 4.50432 1.5217 4.47644C1.57624 4.46496 1.63366 4.46455 1.68943 4.46455C3.4512 4.46414 5.21256 4.46413 6.97433 4.46413C6.99976 4.46413 7.0256 4.46331 7.05102 4.46455C7.23433 4.47316 7.34875 4.57445 7.34916 4.72783C7.34957 4.88161 7.23597 4.98742 7.05143 4.98824C6.46745 4.99152 5.88389 4.98947 5.29991 4.98988C4.97717 4.98988 4.65483 4.98988 4.33209 4.98988L4.3325 4.98947Z" fill="white"/>
<path d="M4.32437 8.92603C3.43323 8.92603 2.5421 8.92644 1.65137 8.92603C1.44509 8.92603 1.33888 8.85221 1.31919 8.70417C1.29992 8.55941 1.38194 8.43966 1.52711 8.41136C1.58657 8.39988 1.64932 8.4007 1.71042 8.4007C3.45661 8.40029 5.2028 8.40029 6.94939 8.4007C7.0105 8.4007 7.07324 8.39988 7.13271 8.41136C7.2664 8.43638 7.3517 8.54382 7.34842 8.67095C7.34514 8.79849 7.25409 8.90061 7.1204 8.91947C7.06504 8.92726 7.00804 8.92603 6.95185 8.92603C6.0763 8.92603 5.20034 8.92603 4.32478 8.92603H4.32437Z" fill="white"/>
<path d="M3.75254 10.2377C3.04554 10.2377 2.33812 10.2365 1.63112 10.2389C1.49579 10.2393 1.38588 10.2041 1.33175 10.0724C1.26941 9.92029 1.36456 9.75215 1.52942 9.72057C1.57904 9.71114 1.63153 9.71442 1.68279 9.71442C3.06645 9.71442 4.44971 9.71442 5.83337 9.71442C5.8793 9.71442 5.92646 9.71155 5.97157 9.71893C6.10936 9.74108 6.20122 9.85344 6.19589 9.98754C6.19056 10.1225 6.09214 10.2283 5.95107 10.2352C5.80261 10.2426 5.65416 10.2381 5.50529 10.2381C4.92132 10.2381 4.33693 10.2381 3.75295 10.2381L3.75254 10.2377Z" fill="white"/>
<path d="M10.1085 6.30124C9.648 6.30124 9.18787 6.30165 8.72734 6.30124C8.52106 6.30124 8.39885 6.20323 8.39844 6.04165C8.39803 5.88048 8.5227 5.77837 8.72569 5.77796C9.64636 5.77714 10.5674 5.77714 11.4881 5.77796C11.6899 5.77796 11.8129 5.88417 11.8088 6.04739C11.8047 6.20569 11.6874 6.30083 11.4901 6.30124C11.0296 6.30247 10.5695 6.30124 10.1089 6.30124H10.1085Z" fill="white"/>
<path d="M2.89116 11.0296C3.30618 11.0296 3.7212 11.0288 4.13621 11.0296C4.34495 11.03 4.46224 11.1276 4.45937 11.2933C4.4565 11.4516 4.33798 11.5529 4.14319 11.5529C3.3029 11.5541 2.46261 11.5529 1.62233 11.5537C1.487 11.5537 1.36192 11.5106 1.33608 11.3745C1.31968 11.2884 1.35495 11.1719 1.40867 11.1001C1.44681 11.0493 1.55384 11.0333 1.63094 11.0321C2.05088 11.0259 2.47123 11.0292 2.89116 11.0292V11.0296Z" fill="white"/>
<path d="M14.1743 11.2875C14.1743 11.0218 14.1727 10.7819 14.1747 10.542C14.1764 10.3586 14.2765 10.2422 14.4298 10.2393C14.582 10.2364 14.6952 10.3554 14.6972 10.5325C14.7009 10.8602 14.7009 11.1874 14.6972 11.5151C14.6952 11.7103 14.598 11.8083 14.404 11.8104C14.0714 11.8137 13.7388 11.8141 13.4062 11.8104C13.2307 11.8083 13.127 11.707 13.127 11.5524C13.127 11.3991 13.2315 11.2928 13.405 11.2892C13.6547 11.2834 13.9045 11.2875 14.1743 11.2875Z" fill="white"/>
<path d="M9.19503 7.09345C9.36358 7.09345 9.53213 7.09017 9.70027 7.09427C9.86513 7.09878 9.96601 7.19761 9.96847 7.34648C9.97134 7.49329 9.87005 7.61017 9.71175 7.61345C9.35948 7.62042 9.00721 7.62083 8.65494 7.61304C8.50033 7.60976 8.3933 7.48386 8.39863 7.34279C8.40396 7.19925 8.51181 7.09755 8.6738 7.09386C8.84727 7.08976 9.02074 7.09304 9.19462 7.09304L9.19503 7.09345Z" fill="white"/>
<path d="M3.93214 1.05373C4.36233 1.05086 4.71502 1.39575 4.72363 1.8284C4.73265 2.25941 4.37464 2.62521 3.93993 2.6285C3.50769 2.63178 3.14599 2.27007 3.14845 1.8366C3.15091 1.40641 3.50031 1.05701 3.93214 1.05373ZM4.19542 1.84726C4.19952 1.70045 4.08716 1.58357 3.93952 1.58193C3.79804 1.58029 3.68486 1.68569 3.67747 1.82553C3.66968 1.9707 3.78123 2.09455 3.92558 2.10111C4.06911 2.10726 4.19173 1.99244 4.19542 1.84726Z" fill="white"/>
<path d="M6.03597 1.05371C6.47231 1.05371 6.82951 1.41213 6.8254 1.84643C6.8213 2.27416 6.46698 2.62684 6.03925 2.6293C5.60578 2.63135 5.25146 2.27293 5.25392 1.83453C5.25638 1.40188 5.60455 1.05453 6.03638 1.05412L6.03597 1.05371ZM6.30007 1.84314C6.30212 1.69961 6.1832 1.5815 6.03679 1.58191C5.89367 1.58232 5.78417 1.68772 5.77925 1.83002C5.77433 1.97725 5.88588 2.0974 6.03105 2.1011C6.17335 2.10479 6.29802 1.98504 6.30007 1.84314Z" fill="white"/>
<path d="M2.62229 1.84562C2.61983 2.27745 2.27084 2.62767 1.84106 2.62931C1.40882 2.63095 1.04752 2.26802 1.0508 1.83537C1.05367 1.40641 1.40554 1.05618 1.83614 1.05372C2.2733 1.05126 2.62516 1.40559 2.6227 1.84562H2.62229ZM1.83409 1.58193C1.68891 1.58398 1.57039 1.70619 1.57573 1.84849C1.58065 1.98464 1.69834 2.09988 1.8345 2.10193C1.97885 2.10439 2.09655 1.98669 2.09655 1.84029C2.09655 1.69142 1.98336 1.57988 1.83409 1.58193Z" fill="white"/>
</svg>
