<svg width="13" height="15" viewBox="0 0 13 15" fill="none" xmlns="http://www.w3.org/2000/svg">
<path d="M8.16129 0C8.44394 0.0666239 8.71144 0.163531 8.93251 0.362393C9.34841 0.734881 9.52809 1.19923 9.42512 1.74736C9.32115 2.29751 8.99207 2.68211 8.4611 2.87189C8.33694 2.91631 8.28747 2.96375 8.29454 3.10003C8.30766 3.34936 8.30059 3.59971 8.29757 3.85005C8.29454 4.05901 8.20268 4.18721 8.04318 4.2185C7.81909 4.26292 7.65455 4.11957 7.64849 3.86317C7.64243 3.60879 7.63739 3.3534 7.65051 3.09902C7.65858 2.96072 7.60306 2.91833 7.48294 2.8729C6.87424 2.64376 6.53506 2.19354 6.49872 1.54749C6.46642 0.959989 6.73292 0.506745 7.23865 0.210976C7.40521 0.11104 7.60205 0.0676333 7.78577 0C7.91095 0 8.03612 0 8.16129 0ZM8.8033 1.47683C8.80027 1.01652 8.4187 0.637974 7.96445 0.647059C7.50717 0.656144 7.14376 1.02358 7.14174 1.47885C7.13972 1.94118 7.5112 2.31366 7.97353 2.31266C8.43586 2.31266 8.80532 1.93916 8.80229 1.47582L8.8033 1.47683Z" fill="white"/>
<path d="M5.15943 13.3023C4.67591 13.477 4.20651 13.6455 3.73813 13.8151C2.91542 14.1129 2.08464 14.3875 1.27405 14.7156C0.581568 14.9962 -0.0816419 14.3047 0.00819938 13.693C0.112173 12.9944 0.234317 12.2979 0.350404 11.6004C0.594691 10.1306 0.840998 8.66087 1.08629 7.19009C1.22358 6.36537 1.35784 5.53964 1.49916 4.71492C1.55165 4.40804 1.64452 4.11328 1.87972 3.8912C1.9625 3.81348 2.06042 3.74584 2.16136 3.69638C2.3259 3.61663 2.49953 3.68124 2.58129 3.83467C2.66003 3.98105 2.61965 4.15669 2.46521 4.24855C2.23606 4.38483 2.17146 4.60691 2.13209 4.84211C1.75152 7.11842 1.37399 9.39474 0.994434 11.6711C0.884404 12.3302 0.768317 12.9884 0.665353 13.6486C0.649202 13.7505 0.665353 13.8727 0.709769 13.9645C0.788506 14.1331 0.889451 14.1583 1.0651 14.0947C2.43391 13.6001 3.80273 13.1045 5.17155 12.6098C5.18972 12.6038 5.20789 12.5967 5.22606 12.5907C5.5077 12.4927 5.67325 12.5997 5.73583 12.8935C5.76813 13.0459 5.82769 13.1953 5.89633 13.3356C5.94176 13.4295 6.02958 13.4709 6.15072 13.4437C7.74666 13.0914 9.34361 12.7451 10.9396 12.3948C11.3443 12.306 11.4564 12.1697 11.5139 11.7649C11.6876 10.5516 11.8662 9.33821 12.0439 8.12485C12.1146 7.6393 12.1852 7.15375 12.2599 6.66922C12.2801 6.53799 12.2428 6.44007 12.1247 6.38152C11.9833 6.31086 11.841 6.2402 11.6946 6.18165C11.4897 6.09989 11.2818 6.02418 11.0718 5.95452C10.9062 5.90001 10.8194 5.79099 10.7952 5.6214C10.6599 4.68867 10.5237 3.75594 10.3874 2.8232C10.3773 2.75658 10.3632 2.68996 10.3591 2.62333C10.344 2.37097 10.2642 2.15797 10.0401 2.00958C9.92506 1.93388 9.8978 1.8087 9.93717 1.67546C9.97553 1.54726 10.0664 1.46347 10.1946 1.45741C10.2794 1.45338 10.3773 1.48164 10.45 1.52606C10.7962 1.74006 10.9375 2.0752 10.991 2.46586C11.1223 3.40869 11.2606 4.3505 11.4029 5.29232C11.411 5.3428 11.4705 5.40336 11.521 5.42557C11.8026 5.54671 12.1004 5.63655 12.372 5.77787C12.7667 5.9838 12.9898 6.2826 12.8928 6.79439C12.8656 6.93571 12.8505 7.08006 12.8293 7.2224C12.6203 8.65481 12.4103 10.0862 12.2014 11.5186C12.1802 11.666 12.162 11.8144 12.1368 11.9608C12.0378 12.5462 11.7098 12.8895 11.1071 13.0217C9.51623 13.371 7.92231 13.7112 6.33242 14.0665C5.78126 14.1896 5.42694 13.8999 5.22404 13.4669C5.20183 13.4194 5.18366 13.37 5.15641 13.3023H5.15943Z" fill="white"/>
<path d="M4.37454 6.66727C4.37454 6.53301 4.36848 6.39774 4.37656 6.26348C4.38262 6.1686 4.34527 6.13125 4.25744 6.10197C3.70931 5.92229 3.36206 5.54576 3.249 4.98249C3.12686 4.37278 3.33481 3.86503 3.83247 3.50162C4.30489 3.15538 4.82879 3.10693 5.35472 3.37948C5.8867 3.65405 6.1754 4.10225 6.16834 4.70489C6.16228 5.31763 5.85945 5.75977 5.31434 6.03636C5.29718 6.04544 5.28002 6.05453 5.26286 6.06159C5.09865 6.13091 5.01655 6.25339 5.01655 6.42903C5.01655 6.64102 5.01756 6.852 5.01655 7.06398C5.01453 7.29716 4.88532 7.44656 4.69252 7.44353C4.50274 7.44051 4.37959 7.29716 4.37555 7.07105C4.37353 6.93679 4.37555 6.80152 4.37555 6.66727H4.37454ZM4.69454 3.86402C4.23322 3.86402 3.8577 4.24155 3.86073 4.69883C3.86376 5.15107 4.23423 5.52154 4.68848 5.52658C5.14576 5.53163 5.52734 5.15511 5.53036 4.69782C5.53238 4.24054 5.15485 3.86402 4.69454 3.86503V3.86402Z" fill="white"/>
<path d="M8.09913 10.9767C8.09913 10.9626 8.09913 10.9474 8.09913 10.9333C8.09913 10.7839 8.14758 10.6063 8.08298 10.4942C8.02241 10.3902 7.83768 10.361 7.71352 10.2893C7.21283 10.0026 6.94734 9.56753 6.94532 8.99113C6.94331 8.42382 7.20677 7.99177 7.69535 7.71316C8.31212 7.36187 9.0682 7.48906 9.50933 7.99783C10.0019 8.56716 10.0342 9.31617 9.58403 9.90367C9.40132 10.1419 9.1641 10.3135 8.87237 10.3963C8.77344 10.4246 8.73508 10.4669 8.73912 10.575C8.74821 10.8394 8.74417 11.1039 8.74114 11.3684C8.73912 11.5945 8.61597 11.7378 8.42518 11.7419C8.23137 11.7469 8.10317 11.5996 8.09913 11.3654C8.09711 11.2351 8.09913 11.1059 8.09913 10.9757V10.9767ZM8.41307 9.82595C8.87237 9.82998 9.25192 9.4575 9.25596 8.9992C9.25899 8.54394 8.87843 8.16439 8.42013 8.16439C7.96588 8.16439 7.59339 8.53082 7.58633 8.98507C7.57926 9.44336 7.95175 9.82191 8.41307 9.82595Z" fill="white"/>
<path d="M4.90667 0.21875C5.24686 0.298497 5.59108 0.368149 5.92723 0.461019C6.09177 0.506444 6.16041 0.688145 6.10994 0.848648C6.05846 1.00713 5.90098 1.09697 5.71726 1.06063C5.49115 1.01622 5.26705 0.963726 5.04194 0.914263C4.85519 0.872875 4.77343 0.889026 4.70377 1.06366C4.61999 1.27464 4.57557 1.50277 4.52712 1.72687C4.48472 1.92372 4.46352 2.12561 4.42617 2.32346C4.39993 2.46478 4.32725 2.57077 4.17684 2.60913C4.04965 2.64144 3.9376 2.6061 3.86997 2.50718C3.81949 2.4345 3.77912 2.32649 3.79123 2.2427C3.85079 1.84397 3.90934 1.44322 4.00927 1.05357C4.10214 0.692183 4.30807 0.398433 4.68964 0.276289C4.72093 0.266194 4.75526 0.261147 4.78756 0.25509C4.82592 0.249034 4.86428 0.244996 4.90163 0.239949L4.90667 0.219759V0.21875Z" fill="white"/>
<path d="M7.96865 1.15627C8.17256 1.15425 8.33407 1.29961 8.33205 1.48434C8.33004 1.66503 8.17761 1.80232 7.97572 1.80434C7.76777 1.80636 7.6103 1.66503 7.61332 1.47829C7.61534 1.29658 7.76777 1.1593 7.96865 1.15728V1.15627Z" fill="white"/>
<path d="M5.05454 4.69731C5.05353 4.88204 4.90615 5.01731 4.70325 5.02034C4.49631 5.02337 4.33884 4.88103 4.33985 4.69327C4.34086 4.50451 4.50035 4.3652 4.70628 4.37025C4.90918 4.37631 5.05454 4.51157 5.05353 4.6963L5.05454 4.69731Z" fill="white"/>
<path d="M8.77719 8.99505C8.77719 9.17978 8.63183 9.31606 8.42893 9.32009C8.22401 9.32514 8.0625 9.18281 8.0625 8.99505C8.0625 8.8083 8.223 8.66597 8.42792 8.67001C8.63082 8.67404 8.77719 8.80931 8.77719 8.99404V8.99505Z" fill="white"/>
</svg>
