<svg width="13" height="14" viewBox="0 0 13 14" fill="none" xmlns="http://www.w3.org/2000/svg">
<path d="M9.92651 0C10.2238 0.0596441 10.5028 0.155992 10.7386 0.358782C10.9772 0.564325 11.1341 0.8185 11.2222 1.11856C11.3644 1.60397 11.5057 2.0903 11.6461 2.57571C11.7241 2.8464 11.6635 2.95835 11.3956 3.03634C9.96321 3.4511 8.53084 3.86585 7.09846 4.27969C5.69178 4.68711 4.28601 5.09452 2.87933 5.50194C2.83804 5.51387 2.7995 5.53038 2.7628 5.56525H2.90411C5.83768 5.56525 8.77125 5.56525 11.7057 5.56525C11.7635 5.56525 11.8232 5.56342 11.8801 5.57076C12.0049 5.58544 12.0856 5.65426 12.1095 5.77997C12.1196 5.83227 12.1242 5.88641 12.1242 5.93963C12.1242 8.02993 12.1251 10.1202 12.1242 12.2105C12.1242 12.8629 11.8425 13.3539 11.2497 13.6356C11.0689 13.7209 10.8542 13.7714 10.6542 13.7741C9.58241 13.7879 8.50973 13.7815 7.43797 13.7805C7.24161 13.7805 7.1214 13.6713 7.12507 13.5062C7.12874 13.3438 7.24895 13.2437 7.4499 13.2428C8.49046 13.2428 9.53102 13.2428 10.5725 13.2419C11.0643 13.2419 11.4259 12.973 11.5497 12.517C11.5764 12.4188 11.5846 12.3133 11.5855 12.2114C11.5883 11.0589 11.5874 9.90551 11.5864 8.753C11.5864 8.71354 11.5819 8.67409 11.5791 8.62637H1.04321V8.77686C1.04321 9.91652 1.04321 11.0553 1.04321 12.1949C1.04321 12.8455 1.44145 13.2428 2.09111 13.2428C3.0913 13.2428 4.09148 13.2428 5.09259 13.2428C5.12837 13.2428 5.16416 13.2419 5.19994 13.2428C5.38255 13.2492 5.50734 13.3603 5.50367 13.5163C5.50092 13.6677 5.38071 13.7796 5.20453 13.7796C4.10983 13.7805 3.01514 13.7915 1.92135 13.7741C1.14139 13.7613 0.511001 13.0905 0.506413 12.2949C0.49999 11.1957 0.504578 10.0973 0.504578 8.998C0.504578 7.99781 0.504578 6.99763 0.502743 5.99652C0.502743 5.91302 0.489897 5.82677 0.467874 5.74602C0.336657 5.2808 0.199017 4.81741 0.0668823 4.35218C-0.176282 3.49606 0.259579 2.695 1.11478 2.44724C3.84465 1.65535 6.57635 0.865298 9.30713 0.0743257C9.39614 0.0486329 9.48698 0.0247752 9.57598 0C9.69252 0 9.80906 0 9.92559 0H9.92651ZM8.06653 0.989174C8.08213 1.01762 8.08488 1.0268 8.09131 1.03322C8.71436 1.63333 9.33741 2.23252 9.96229 2.8308C9.98524 2.85282 10.0348 2.86567 10.0651 2.85741C10.4009 2.76473 10.7349 2.66747 11.09 2.5647C10.9377 2.0646 10.8111 1.56543 10.6312 1.08644C10.4862 0.701047 10.0274 0.461554 9.64205 0.553314C9.11627 0.678107 8.59966 0.840523 8.06745 0.990092L8.06653 0.989174ZM0.950532 5.50102C1.75252 5.26887 2.53339 5.04314 3.31427 4.81649C3.30693 4.79722 3.30602 4.78713 3.30051 4.78162C2.67379 4.17876 2.04707 3.57498 1.41943 2.97395C1.40016 2.95559 1.36529 2.94091 1.3396 2.94367C0.85969 2.99322 0.439428 3.55479 0.550458 4.03469C0.663323 4.52194 0.811975 5.00093 0.950532 5.50194V5.50102ZM11.58 6.1048C11.2084 6.1048 10.8505 6.10847 10.4918 6.10297C10.3954 6.10113 10.3403 6.12866 10.2908 6.21583C9.95862 6.80034 9.62003 7.38027 9.28511 7.96203C9.26584 7.99506 9.25115 8.03085 9.2328 8.06939H11.58V6.10388V6.1048ZM3.3941 6.11398H1.05055V8.0804C1.41943 8.0804 1.78096 8.07765 2.1425 8.08223C2.23426 8.08315 2.28656 8.05562 2.33244 7.97487C2.66461 7.39128 3.00229 6.81044 3.33721 6.22868C3.35648 6.19564 3.37208 6.15986 3.39502 6.11398H3.3941ZM9.39889 3.05286C9.37595 3.02258 9.36677 3.0079 9.35393 2.99597C8.74005 2.40595 8.12617 1.81502 7.50863 1.22867C7.47651 1.19839 7.40219 1.18829 7.35722 1.20114C6.99477 1.30024 6.63416 1.40668 6.27354 1.51129C6.19829 1.53331 6.12397 1.559 6.04689 1.58286C6.05698 1.60305 6.05974 1.61314 6.06524 1.61865C6.68829 2.21876 7.31134 2.81887 7.93715 3.41623C7.96192 3.44009 8.01973 3.45018 8.0546 3.441C8.4978 3.31621 8.93917 3.18683 9.39889 3.05286ZM4.01257 2.16737C4.03367 2.1949 4.04285 2.2105 4.05478 2.22243C4.66865 2.81337 5.28253 3.4043 5.90007 3.99157C5.93219 4.02185 6.00652 4.03102 6.0524 4.01909C6.39374 3.92642 6.73234 3.82548 7.07185 3.7273C7.16912 3.69885 7.26638 3.66949 7.36548 3.64012C7.35539 3.61902 7.35355 3.60984 7.34713 3.60434C6.72316 3.00423 6.10011 2.40412 5.47339 1.80676C5.44678 1.78106 5.38255 1.77372 5.34401 1.78473C4.90448 1.90861 4.46678 2.03708 4.01257 2.16921V2.16737ZM5.34125 4.22739C5.33208 4.20628 5.33208 4.20078 5.32841 4.19803C4.70169 3.59516 4.07497 2.99138 3.44641 2.39035C3.4253 2.37016 3.38218 2.35365 3.35648 2.36099C2.90135 2.48945 2.44806 2.62067 1.98467 2.75464C2.00394 2.78033 2.0122 2.79501 2.02413 2.80694C2.64075 3.40063 3.2583 3.99524 3.87676 4.58617C3.90062 4.60911 3.95017 4.62838 3.98045 4.62012C4.43191 4.49258 4.88245 4.36044 5.34034 4.22739H5.34125ZM5.0045 8.07948C5.47614 8.07948 5.92393 8.07673 6.3708 8.08223C6.46073 8.08315 6.50477 8.05012 6.5479 7.97579C6.88099 7.39311 7.21775 6.81227 7.55359 6.23143C7.5747 6.19473 7.59305 6.15802 7.62241 6.1048C7.14893 6.1048 6.70206 6.10755 6.25427 6.10205C6.16434 6.10113 6.11938 6.13325 6.07717 6.20757C5.74225 6.79392 5.40365 7.37843 5.06597 7.96386C5.04854 7.99414 5.03386 8.02534 5.00541 8.07948H5.0045ZM7.10947 8.07948C7.58112 8.07948 8.02524 8.07673 8.46844 8.08132C8.5602 8.08223 8.6125 8.05562 8.65838 7.97396C8.99055 7.38944 9.32823 6.8086 9.66407 6.22592C9.68334 6.19197 9.69986 6.15711 9.72188 6.11306C9.68793 6.10939 9.66683 6.10388 9.64572 6.10388C9.21078 6.10388 8.77492 6.10664 8.33998 6.10113C8.25464 6.10021 8.22344 6.14426 8.18857 6.20482C7.88026 6.7407 7.57011 7.27658 7.26088 7.81154C7.21408 7.89229 7.16912 7.97304 7.10947 8.07856V8.07948ZM2.89952 8.07306C2.95182 8.07581 2.99128 8.07948 3.02982 8.07948C3.43723 8.07948 3.84556 8.07673 4.25298 8.08223C4.34566 8.08315 4.39521 8.05287 4.44109 7.97212C4.77051 7.3922 5.10543 6.81594 5.43852 6.23785C5.46054 6.20023 5.4789 6.16169 5.50459 6.11123C5.45137 6.10847 5.41283 6.1048 5.37337 6.1048C4.96596 6.1048 4.55762 6.10755 4.15021 6.10205C4.0557 6.10113 4.00798 6.13508 3.96302 6.21491C3.63268 6.79392 3.29684 7.37109 2.96375 7.94826C2.94264 7.98588 2.92338 8.02442 2.8986 8.07397L2.89952 8.07306Z" fill="white"/>
<path d="M5.27086 10.8956C5.27086 10.4652 5.26994 10.034 5.27086 9.6036C5.27086 9.30996 5.47456 9.19159 5.72874 9.33841C6.48209 9.77152 7.23544 10.2055 7.98787 10.6414C8.24021 10.7882 8.23746 11.0231 7.98237 11.1709C7.23361 11.604 6.48484 12.0362 5.73516 12.4674C5.47089 12.6198 5.27086 12.5041 5.26994 12.2013C5.26902 11.7664 5.26994 11.3314 5.26994 10.8956H5.27086ZM7.36758 10.9048C6.84087 10.601 6.33619 10.3092 5.81683 10.0092V11.7985C6.33527 11.4994 6.84087 11.2085 7.36758 10.9038V10.9048Z" fill="white"/>
<path d="M6.31206 13.7801C6.16892 13.7801 6.04779 13.658 6.04688 13.5131C6.04688 13.369 6.168 13.2451 6.31114 13.2451C6.45154 13.2451 6.57817 13.3717 6.57908 13.5121C6.57908 13.6525 6.45337 13.7792 6.31206 13.7792V13.7801Z" fill="white"/>
</svg>
