<svg width="15" height="15" viewBox="0 0 15 15" fill="none" xmlns="http://www.w3.org/2000/svg">
<path d="M5.9373 4.57319C5.9373 5.61442 5.93515 6.65565 5.94054 7.69688C5.94054 7.78854 5.97181 7.89153 6.02034 7.96972C7.11657 9.73242 8.21711 11.493 9.31711 13.2535C9.48966 13.5301 9.45623 13.6342 9.15427 13.7539C6.78333 14.6916 3.75779 14.2424 1.78318 12.0516C1.15337 11.3522 0.593666 10.6049 0.314891 9.69791C-0.273394 7.78477 -0.0355993 5.95844 1.01318 4.25667C2.04092 2.58942 3.53186 1.55951 5.44715 1.13892C5.84887 1.05103 5.94647 1.14378 5.94162 1.5374C5.92975 2.54897 5.93784 3.56054 5.93784 4.57265L5.9373 4.57319ZM8.83775 13.4002C8.79084 13.3161 8.76927 13.2729 8.74393 13.2325C7.68113 11.5296 6.61672 9.8284 5.55823 8.12286C5.50215 8.03281 5.46818 7.91256 5.46765 7.80634C5.46225 5.80746 5.46387 3.80858 5.46387 1.80971C5.46387 1.75201 5.46387 1.69378 5.46387 1.63446C5.06809 1.68407 4.37951 1.93373 3.81872 2.22868C1.28494 3.55893 -0.0302071 6.50844 0.679402 9.27678C0.872981 10.0322 1.27038 10.682 1.7546 11.2816C2.38171 12.0575 3.10696 12.7229 4.01769 13.1511C5.14951 13.6833 6.34387 13.8558 7.58137 13.6741C7.99711 13.6132 8.40422 13.4961 8.83775 13.4002Z" fill="white"/>
<path d="M14.249 7.34314C14.1864 10.256 13.0611 12.4603 10.7365 14.024C10.5111 14.1755 10.4125 14.1502 10.2685 13.9194C9.09624 12.0408 7.92399 10.1622 6.75173 8.28353C6.58673 8.01878 6.62987 7.89637 6.9259 7.80417C9.16472 7.10588 11.4041 6.40868 13.6435 5.71147C13.8834 5.63706 13.9956 5.69206 14.0365 5.93578C14.1217 6.44534 14.1918 6.9576 14.249 7.3426V7.34314ZM10.599 13.5436C11.9341 12.6215 12.8686 11.4099 13.3841 9.88231C13.7896 8.68093 13.8656 7.45691 13.6154 6.1973C11.4898 6.86377 9.38203 7.52485 7.25644 8.19132C8.37477 9.98206 9.48394 11.7577 10.599 13.5436Z" fill="white"/>
<path d="M6.41016 3.64296C6.41016 2.53756 6.41016 1.43217 6.41016 0.326238C6.41016 0.073345 6.48457 -0.00106692 6.73423 1.15174e-05C9.81261 0.0145704 12.596 1.92394 13.7219 4.79365C13.8061 5.00772 13.7532 5.11232 13.5149 5.18674C11.564 5.79821 9.61256 6.40806 7.66168 7.01846C7.37967 7.10689 7.09766 7.19532 6.81511 7.28267C6.5331 7.37002 6.41016 7.28051 6.41016 6.98826C6.41016 5.87316 6.41016 4.75752 6.41016 3.64242V3.64296ZM6.89168 6.75909C9.00379 6.09909 11.0981 5.44502 13.2054 4.78664C12.6252 3.451 11.7414 2.39144 10.5335 1.60796C9.42977 0.891876 8.21599 0.519816 6.89168 0.472905V6.75909Z" fill="white"/>
</svg>
