<svg width="19" height="14" viewBox="0 0 19 14" fill="none" xmlns="http://www.w3.org/2000/svg">
<path d="M18.9985 0.210791C18.7755 -0.0439936 18.6773 -0.0586829 18.3789 0.117589C17.8545 0.426572 17.3306 0.736568 16.8052 1.04352C16.6852 1.11393 16.5901 1.19903 16.5985 1.352C16.6104 1.57133 16.8349 1.68023 17.0421 1.56069C17.4401 1.33123 17.8342 1.09367 18.2297 0.860161C18.2882 0.825717 18.3477 0.792793 18.4255 0.748725C18.432 0.807482 18.4414 0.85307 18.4414 0.898151C18.4419 2.75002 18.4429 4.60189 18.4389 6.45377C18.4389 6.51809 18.4126 6.61383 18.367 6.64219C18.0047 6.86811 17.6344 7.08135 17.2518 7.30727C16.422 5.83833 15.5982 4.38054 14.7665 2.90755C15.0936 2.71355 15.4133 2.52411 15.7325 2.33416C15.791 2.29921 15.854 2.26831 15.904 2.22273C16.0156 2.12142 16.0364 1.99377 15.9586 1.86461C15.8812 1.73595 15.7539 1.67922 15.6235 1.75368C15.17 2.011 14.7209 2.27642 14.2783 2.55248C14.2108 2.59452 14.1514 2.70697 14.1494 2.78903C14.1454 2.92072 14.0844 2.97391 13.9863 3.02963C13.7211 3.17905 13.4559 3.32899 13.2012 3.49563C13.0812 3.57415 12.9945 3.70534 12.876 3.78739C12.7511 3.87401 12.6108 3.94239 12.4701 3.99912C12.2232 4.0984 11.9967 4.08625 11.7553 3.9277C11.3146 3.63746 10.8507 3.38318 10.3952 3.11675C9.78104 2.75762 9.16047 2.75306 8.54336 3.10307C8.14385 3.32949 7.75128 3.56959 7.35524 3.80259C7.04445 3.98545 6.71236 4.03306 6.37332 3.91909C6.26229 3.88161 6.17257 3.77574 6.07492 3.69926C6.01197 3.65013 5.95597 3.58884 5.88855 3.54781C5.5857 3.36444 5.27739 3.1902 4.97751 3.00177C4.92249 2.96732 4.89969 2.88071 4.86053 2.81891C4.79362 2.71254 4.75 2.56362 4.65384 2.50638C3.27885 1.68277 1.89792 0.869785 0.515497 0.0593384C0.260227 -0.0900877 0.00247955 0.0674429 0.00198364 0.370347C-0.000494003 2.48106 0.000991821 4.59227 0 6.70298C0 6.85696 0.0614643 6.96992 0.190834 7.0459C0.667171 7.32652 1.13955 7.61372 1.62233 7.88218C1.71303 7.93283 1.85628 7.94448 1.95244 7.90852C2.06645 7.86597 2.14179 7.87407 2.23894 7.93435C2.48677 8.08884 2.74303 8.22864 2.98988 8.38465C3.03102 8.41049 3.07117 8.49508 3.06076 8.54016C2.8729 9.35668 3.10686 9.81003 3.90241 10.1291C3.77799 10.5936 3.83301 11.0298 4.178 11.3863C4.51803 11.7374 4.93439 11.8149 5.40577 11.6811C5.41668 12.1355 5.58421 12.4997 5.96241 12.7362C6.33961 12.9723 6.73417 12.9708 7.14805 12.7834C7.15747 12.8583 7.16341 12.9237 7.17382 12.988C7.30765 13.7949 8.13542 14.232 8.86009 13.8734C9.05985 13.7746 9.25117 13.6571 9.43953 13.5366C9.54511 13.4692 9.6264 13.4616 9.73594 13.5366C10.0185 13.729 10.3218 13.8648 10.6757 13.8081C11.2408 13.7169 11.5927 13.3426 11.7033 12.7023C12.1156 12.8933 12.5246 12.9115 12.9157 12.6547C13.3033 12.4004 13.4599 12.0185 13.4634 11.5621C14.4954 11.6128 14.9618 10.8124 14.824 10.0537C14.9117 10.0304 15.0024 10.0126 15.0887 9.98275C15.6364 9.79281 15.9615 9.22296 15.856 8.63235C15.8381 8.53256 15.8461 8.47076 15.9422 8.41707C16.2347 8.25296 16.5192 8.07466 16.8126 7.91257C16.8647 7.8837 16.944 7.90548 17.0104 7.90295C17.1338 7.89839 17.2795 7.93536 17.3772 7.88167C17.8614 7.61574 18.3343 7.32905 18.8072 7.04235C18.8825 6.99676 18.9361 6.9142 19 6.84886C19 4.63634 19 2.42382 19 0.211804L18.9985 0.210791ZM5.93316 4.36484C6.59488 4.65407 7.19662 4.58467 7.77904 4.21035C8.11857 3.99203 8.47099 3.79398 8.82193 3.5939C9.23036 3.3609 9.65068 3.3457 10.0606 3.57972C10.6807 3.93378 11.2933 4.30152 11.908 4.66572C12.0849 4.77057 12.1865 4.93266 12.2073 5.14084C12.2316 5.38853 12.1414 5.59115 11.9407 5.72842C11.7265 5.8748 11.4971 5.87582 11.274 5.74564C10.7213 5.42298 10.1692 5.09931 9.62144 4.76905C9.36072 4.61202 9.11189 4.60949 8.85365 4.77057C8.60581 4.92506 8.35054 5.06739 8.10073 5.21834C7.92575 5.3242 7.87222 5.48022 7.95302 5.62812C8.03331 5.77451 8.19788 5.81098 8.37136 5.7117C8.60333 5.5795 8.8363 5.4483 9.06034 5.30293C9.18525 5.22189 9.2824 5.22087 9.41177 5.29989C9.94809 5.6261 10.4869 5.94774 11.0331 6.25622C11.4936 6.51607 12.0393 6.43401 12.4061 6.07437C12.7714 5.71626 12.8681 5.18136 12.6559 4.69712C12.6371 4.65407 12.6222 4.60899 12.6039 4.56137C12.766 4.49502 12.9132 4.43525 13.0688 4.37142C13.6616 5.42146 14.249 6.46136 14.8359 7.50076C14.2649 7.14214 13.6968 6.99676 13.1447 7.47797C12.703 7.86242 12.6396 8.3649 12.8512 8.91702C12.2847 9.14901 12.0096 9.57905 12.018 10.1925C11.2378 10.194 10.8844 10.4923 10.6638 11.3225C9.47621 11.1964 8.98252 11.7652 9.20458 13.0199C9.02218 13.1273 8.83878 13.2433 8.64844 13.3461C8.33072 13.5178 7.95599 13.4109 7.79341 13.1106C7.62786 12.8061 7.73443 12.4409 8.04868 12.2459C8.20184 12.1507 8.37334 12.0793 8.50668 11.9618C8.58004 11.8974 8.6415 11.7455 8.61771 11.6594C8.59342 11.5717 8.46653 11.4922 8.36839 11.4547C8.31238 11.4335 8.21721 11.4922 8.1493 11.5317C7.73542 11.7718 7.32699 12.0215 6.91161 12.2581C6.58695 12.443 6.20826 12.3366 6.04221 12.0276C5.87616 11.7191 5.98174 11.3585 6.29996 11.1655C6.60281 10.9816 6.90963 10.8049 7.21447 10.6245C7.3483 10.5455 7.4851 10.4716 7.61348 10.3839C7.75277 10.2887 7.78498 10.1378 7.70816 10.004C7.63281 9.87334 7.48411 9.82978 7.33591 9.89816C7.28535 9.92146 7.23876 9.95338 7.19068 9.98174C6.58051 10.3414 5.96984 10.6995 5.36066 11.0612C5.19858 11.1574 5.02956 11.2075 4.84715 11.1508C4.6008 11.0748 4.44269 10.9067 4.40898 10.6423C4.3728 10.3596 4.47193 10.1317 4.71778 9.98529C5.2997 9.63882 5.8836 9.2959 6.4665 8.95146C6.55225 8.90081 6.64048 8.85471 6.72128 8.79646C6.85511 8.70022 6.8908 8.54472 6.81 8.41454C6.72376 8.27575 6.59786 8.24992 6.45411 8.30614C6.40256 8.3264 6.35647 8.35983 6.30789 8.3882C5.69227 8.75037 5.07764 9.11507 4.46053 9.47471C4.2122 9.61957 3.95792 9.59779 3.75073 9.42608C3.53908 9.25082 3.51678 9.01934 3.57725 8.77266C3.6283 8.56549 3.7661 8.42771 3.94702 8.32185C4.84765 7.79455 5.74531 7.26269 6.64395 6.73185C6.81 6.63409 6.97704 6.53836 7.14061 6.43654C7.30716 6.33321 7.35474 6.1848 7.27544 6.03892C7.19216 5.88595 7.03603 5.85201 6.85808 5.94825C6.81992 5.96902 6.78274 5.99181 6.74557 6.0141C5.94853 6.48466 5.151 6.95472 4.35396 7.42478C4.29795 7.45771 4.23996 7.48708 4.13636 7.54382C4.75099 6.4563 5.33886 5.41487 5.93366 4.36231L5.93316 4.36484ZM4.23153 2.90654C3.83499 3.60808 3.44689 4.29494 3.05878 4.9828C2.99087 5.10285 2.91652 5.22037 2.86051 5.34649C2.79508 5.49339 2.8382 5.62306 2.97352 5.70511C3.11231 5.7892 3.23573 5.74868 3.33338 5.62458C3.36807 5.58051 3.39236 5.52884 3.42062 5.47971C3.77601 4.85161 4.1314 4.22301 4.4873 3.59491C4.51704 3.54223 4.55025 3.49158 4.58593 3.43384C4.8992 3.61923 5.20056 3.79753 5.50887 3.97937C4.76239 5.3004 4.0288 6.59813 3.29174 7.90244C2.97154 7.713 2.67364 7.53672 2.36534 7.35488C2.47537 7.15632 2.59632 6.97802 2.67364 6.782C2.71032 6.68879 2.69942 6.53278 2.64341 6.45782C2.59384 6.39146 2.44762 6.36766 2.35096 6.38083C2.28504 6.38994 2.21763 6.48517 2.17401 6.5571C2.0258 6.80226 1.8885 7.054 1.74377 7.30777C1.38788 7.09756 1.05478 6.89343 0.71327 6.70348C0.595797 6.63814 0.551184 6.56723 0.551184 6.42692C0.556637 4.5948 0.554655 2.76269 0.555151 0.930569C0.555151 0.876877 0.560106 0.823691 0.564072 0.744166C1.7973 1.47205 3.00871 2.18676 4.23104 2.90806L4.23153 2.90654ZM15.7048 7.90193C14.9638 6.59053 14.2287 5.28875 13.4887 3.97785C13.8089 3.78891 14.1072 3.61264 14.418 3.42928C15.1586 4.74068 15.8941 6.04297 16.6342 7.35285C16.3169 7.54027 16.0185 7.71654 15.7053 7.90193H15.7048ZM14.6733 9.47623C14.645 9.47217 14.5816 9.47977 14.5365 9.45394C14.1831 9.25082 13.8173 9.06391 13.4872 8.82635C13.2428 8.65008 13.2304 8.27727 13.4014 8.02198C13.566 7.77631 13.8931 7.66944 14.1548 7.8067C14.4666 7.97031 14.7709 8.15165 15.0664 8.34464C15.2954 8.49407 15.3747 8.78633 15.2894 9.0472C15.2032 9.3111 14.9737 9.47876 14.6733 9.47673V9.47623ZM13.5903 10.9832C13.2879 10.8717 12.9171 10.7279 12.6718 10.3905C12.5102 10.1687 12.5583 9.86068 12.7397 9.65503C12.9201 9.45039 13.2061 9.381 13.45 9.50408C13.6488 9.60438 13.8426 9.71835 14.0274 9.84346C14.2555 9.99744 14.3407 10.2846 14.2569 10.5455C14.1712 10.8125 13.9422 10.9837 13.5908 10.9837L13.5903 10.9832ZM12.2019 12.2738C11.9075 12.1765 11.5585 12.0342 11.327 11.7115C11.1704 11.4932 11.217 11.1812 11.394 10.9766C11.5704 10.7729 11.8569 10.7015 12.1008 10.8226C12.2886 10.9158 12.4715 11.0227 12.644 11.1427C12.8691 11.2992 12.9509 11.5859 12.8671 11.8473C12.7848 12.1036 12.5454 12.2763 12.2019 12.2738ZM11.1327 12.6273C11.1332 12.9054 10.9612 13.141 10.7015 13.2215C10.355 13.3289 9.79839 13.0235 9.69133 12.6669C9.60657 12.3837 9.73247 12.0909 9.97089 11.9278C10.36 11.6614 11.1466 12.1477 11.1327 12.5514C11.1317 12.5767 11.1327 12.602 11.1327 12.6273Z" fill="white"/>
</svg>
