<svg width="20" height="20" viewBox="0 0 54 65" fill="none" xmlns="http://www.w3.org/2000/svg">
<path d="M11.2609 19.5047C11.7944 19.4399 12.2768 19.3632 12.7626 19.3257C13.4223 19.2746 13.8143 19.5422 13.8501 20.0262C13.8876 20.5206 13.5552 20.8001 12.8717 20.8478C10.0524 21.049 7.90645 22.883 7.34056 25.5761C6.61784 29.0159 9.23938 32.4198 12.7353 32.5919C13.0029 32.6056 13.3507 32.6175 13.5109 32.7794C13.6967 32.9686 13.8467 33.3641 13.7734 33.5942C13.7018 33.8209 13.3387 34.0851 13.0899 34.1004C12.5052 34.1362 11.9104 34.0322 11.3206 33.9862C9.90073 36.4526 12.028 40.1855 15.0467 40.3918C15.0467 39.531 14.9853 38.6685 15.0688 37.818C15.1217 37.2827 15.3569 36.7561 15.5699 36.2498C15.8256 35.6413 16.2739 35.4265 16.7017 35.6703C17.2267 35.9686 17.1773 36.4066 16.9523 36.8839C16.1938 38.4947 16.2705 40.0781 17.2421 41.5628C18.0892 42.8565 19.2807 43.6338 20.871 43.7497C21.1931 43.7735 21.6039 43.9286 21.7914 44.1673C22.1818 44.6616 21.7301 45.2854 21.0142 45.2667C18.8937 45.2104 17.208 44.3087 16.008 42.5582C15.7574 42.1934 15.5154 42.0162 15.062 41.9753C11.0632 41.6122 8.29338 37.6049 9.75244 33.5396C8.95473 32.8612 8.09225 32.2868 7.42749 31.5368C4.36277 28.0767 5.25423 22.6819 9.2462 20.3603C9.65869 20.12 9.72176 19.9274 9.60074 19.4723C8.54906 15.5161 11.1791 11.8071 15.2376 11.4543C15.4489 11.4355 15.7148 11.2838 15.8358 11.1099C18.575 7.13331 23.8096 7.15206 26.4891 11.1594C26.5249 11.2122 26.5623 11.2633 26.6271 11.3571C26.7277 11.2412 26.8283 11.1457 26.9033 11.0349C29.5095 7.18274 34.8957 7.19297 37.4712 11.0486C37.594 11.231 37.8394 11.4423 38.0354 11.4491C41.949 11.5787 45.0819 15.6252 43.5802 19.895C43.5666 19.9325 43.5666 19.9768 43.5529 20.0586C43.6774 20.137 43.8137 20.2291 43.9552 20.3109C48.9273 23.1694 49.0244 30.1442 44.1257 33.1305C43.7524 33.3572 43.6177 33.5311 43.7438 34.0169C44.7614 37.9271 42.2336 41.5423 38.1922 41.9872C37.8138 42.0281 37.5974 42.1576 37.3894 42.4713C36.2133 44.2389 34.5497 45.1695 32.4293 45.2667C31.802 45.2957 31.4117 45.0263 31.4236 44.5559C31.4373 43.9644 31.8344 43.7343 32.3628 43.7446C35.1872 43.7957 38.0729 40.3594 36.3838 36.86C36.1042 36.2805 36.2201 35.8595 36.6582 35.6583C37.0894 35.4589 37.4917 35.6549 37.7627 36.214C38.3985 37.5197 38.5604 38.8901 38.2553 40.4225C39.6053 40.2759 40.6331 39.6844 41.4121 38.6804C42.4978 37.281 42.6768 35.718 42.1706 34.0476C41.574 34.1158 41.0303 34.201 40.4831 34.2317C39.8695 34.2675 39.503 33.9777 39.486 33.5038C39.4706 33.0317 39.8132 32.7539 40.432 32.7044C43.0757 32.4914 45.4279 30.6778 45.9836 28.0579C46.7199 24.579 44.1751 21.17 40.6246 20.962C40.4337 20.9501 40.1729 21.0098 40.0672 20.9075C39.8337 20.6808 39.5115 20.3518 39.5422 20.1012C39.5712 19.8507 39.9666 19.4825 40.2325 19.4552C40.8121 19.3956 41.4087 19.5183 41.9984 19.5677C43.3194 17.0178 41.5416 13.3565 38.2894 13.0582C38.2894 13.9241 38.3542 14.7934 38.2655 15.6457C38.2076 16.2013 37.9519 16.7434 37.744 17.2752C37.5616 17.7388 37.2258 18.0183 36.6923 17.8121C36.2321 17.6348 36.1093 17.1968 36.3684 16.6309C37.1508 14.9263 37.0775 13.2747 36.0071 11.7253C34.202 9.10884 30.2628 9.11566 28.364 11.7014C27.7351 12.5571 27.4248 13.498 27.4334 14.5565C27.4436 15.9405 27.4299 17.3263 27.4385 18.7104C27.4419 19.2388 27.3038 19.653 26.6987 19.6973C26.1874 19.7348 25.9095 19.3785 25.9061 18.7018C25.901 17.2752 25.9334 15.8468 25.8942 14.4201C25.826 11.8821 23.8914 9.93383 21.3056 9.75144C19.0676 9.59292 16.9693 11.3128 16.5279 13.6855C16.3438 14.6792 16.5108 15.632 16.9353 16.5456C17.2267 17.1763 17.133 17.5854 16.6728 17.8036C16.2245 18.0166 15.8512 17.8121 15.5512 17.1831C14.9955 16.0172 14.8012 14.7968 15.0058 13.5167C15.0279 13.3752 15.0381 13.2321 15.0552 13.0855C12.1592 13.0991 9.97914 16.8149 11.2592 19.5047H11.2609Z" fill="white"/>
<path d="M27.946 30.0787H25.5051C25.5051 30.3259 25.5051 30.5696 25.5051 30.8134C25.5051 35.9048 25.5051 40.9961 25.5034 46.0858C25.5034 46.3176 25.5562 46.6159 25.4369 46.7676C25.2511 47.0028 24.929 47.2892 24.6818 47.2721C24.4381 47.2568 24.1722 46.9227 24.0051 46.6688C23.9063 46.5188 23.9762 46.2546 23.9762 46.0415C23.9762 40.9927 23.9762 35.944 23.9762 30.8969C23.9762 30.6446 23.9762 30.3924 23.9762 30.0429C23.3438 30.0429 22.7574 30.0532 22.1711 30.0412C20.4171 30.0071 19.0228 28.7509 18.8865 27.0907C18.7365 25.2532 19.8546 23.7788 21.6427 23.4567C23.6421 23.097 25.4284 24.597 25.5 26.7089C25.5204 27.2799 25.5034 27.8526 25.5034 28.4663H27.9477C27.9477 27.8918 27.9409 27.3225 27.9477 26.7549C27.9766 24.8612 29.4067 23.4107 31.2476 23.4004C33.0868 23.3902 34.5765 24.8783 34.5782 26.7259C34.5799 28.5839 33.1567 30.0071 31.2544 30.0412C30.6851 30.0515 30.1158 30.0412 29.4766 30.0412V30.8492C29.4766 35.9184 29.4766 40.9893 29.4766 46.0585C29.4766 46.2716 29.5482 46.5477 29.4442 46.6824C29.2465 46.9364 28.9533 47.2517 28.6823 47.2687C28.4556 47.2824 28.159 46.9415 27.9818 46.6926C27.8795 46.5494 27.9477 46.2801 27.9477 46.0671C27.9477 40.9978 27.9477 35.9269 27.9477 30.8577V30.0753L27.946 30.0787ZM24.0222 28.5003C23.9659 27.66 23.9983 26.8862 23.8432 26.1532C23.6676 25.3163 22.7557 24.8186 21.9154 24.9567C20.9626 25.1135 20.3558 25.8788 20.4069 26.8572C20.4529 27.7299 21.1058 28.439 21.9768 28.4935C22.6091 28.5327 23.2449 28.5021 24.0205 28.5021L24.0222 28.5003ZM29.4868 28.5038C30.1772 28.5038 30.7925 28.5293 31.4027 28.4986C32.3504 28.4509 33.0493 27.6754 33.0459 26.7242C33.0425 25.7578 32.2959 24.9788 31.3294 24.9362C30.4005 24.8953 29.5687 25.5856 29.4954 26.5231C29.4459 27.1538 29.4851 27.7913 29.4851 28.5038H29.4868Z" fill="white"/>
<path d="M26.6959 54.6995C28.5027 54.6995 30.3094 54.6961 32.1162 54.6995C33.9094 54.7046 35.2508 56.0018 35.2934 57.7608C35.3344 59.467 34.0474 60.9039 32.2901 60.9261C28.5061 60.9738 24.7221 60.9721 20.938 60.9261C19.2489 60.9057 17.9671 59.5403 17.9568 57.9466C17.9534 57.4421 18.1563 57.1012 18.6676 57.0688C19.1449 57.0381 19.3869 57.3415 19.4756 57.8C19.7142 59.0546 20.1454 59.4108 21.4136 59.4108C24.8789 59.4125 28.3441 59.4125 31.8094 59.4091C32.0617 59.4091 32.3225 59.4023 32.5662 59.3426C33.3469 59.1551 33.8242 58.4733 33.7543 57.6841C33.6827 56.8779 33.1168 56.2864 32.3105 56.2438C31.5895 56.2063 30.8651 56.2319 30.1424 56.2302C27.1442 56.2302 24.1476 56.2336 21.1494 56.2285C19.3034 56.2251 17.9654 54.9211 17.9551 53.1331C17.9449 51.345 19.2591 50.0002 21.1051 49.9899C24.7834 49.9695 28.4601 49.9695 32.1384 49.9899C33.8582 50.0002 35.1145 51.1678 35.273 52.8246C35.3309 53.4245 35.077 53.8421 34.598 53.8609C34.0474 53.8831 33.831 53.5558 33.7543 53.0342C33.5992 51.9723 33.0605 51.5206 31.9799 51.5189C28.4089 51.5138 24.8363 51.5138 21.2653 51.5189C20.1352 51.5206 19.467 52.1427 19.4858 53.1467C19.5028 54.1217 20.1574 54.6927 21.2721 54.6961C23.0789 54.6995 24.8857 54.6961 26.6925 54.6961L26.6959 54.6995Z" fill="white"/>
<path d="M26.8263 64.9286C25.5019 64.9286 24.4229 64.603 23.4326 63.969C22.9929 63.6877 22.7917 63.3178 23.0798 62.8491C23.3713 62.3735 23.8008 62.4008 24.2406 62.6667C25.882 63.6553 27.52 63.6673 29.153 62.6445C29.5757 62.3803 29.9831 62.4076 30.2592 62.844C30.5336 63.2803 30.3751 63.6553 29.9711 63.9366C28.9808 64.6286 27.8695 64.9133 26.8263 64.9303V64.9286Z" fill="white"/>
<path d="M25.9061 1.90736C25.9061 1.52555 25.889 1.14374 25.9112 0.763629C25.9367 0.294888 26.1975 -0.00169721 26.6714 7.308e-06C27.1452 0.00171182 27.4146 0.300002 27.4265 0.768743C27.4452 1.55282 27.4486 2.33689 27.4231 3.11927C27.4094 3.55562 27.1487 3.83175 26.697 3.84539C26.2163 3.85902 25.9453 3.58289 25.9129 3.11415C25.8839 2.71359 25.9078 2.30962 25.9061 1.90736Z" fill="white"/>
<path d="M8.23825 7.56641C8.50756 7.71981 8.73256 7.79822 8.89278 7.94822C9.40243 8.42548 9.88822 8.92831 10.3791 9.42603C10.7422 9.7925 10.8479 10.205 10.449 10.5953C10.0501 10.9857 9.64447 10.8629 9.28312 10.4965C8.77688 9.98511 8.23314 9.50444 7.77974 8.95047C7.61781 8.75275 7.58031 8.3556 7.6519 8.09651C7.70815 7.89026 8.02007 7.7539 8.23996 7.56811L8.23825 7.56641Z" fill="white"/>
<path d="M45.8978 8.35178C45.7478 8.6228 45.6728 8.8512 45.5245 9.00972C45.0319 9.53471 44.5189 10.041 44.0041 10.5421C43.6513 10.8864 43.2507 10.9529 42.8842 10.5847C42.5178 10.2182 42.5808 9.81596 42.9251 9.46142C43.4416 8.93131 43.9444 8.37905 44.512 7.9069C44.7098 7.74327 45.1035 7.69895 45.3643 7.76713C45.5705 7.82168 45.7103 8.1319 45.8995 8.35008L45.8978 8.35178Z" fill="white"/>
<path d="M8.22203 45.9535C8.03965 45.812 7.73795 45.691 7.65954 45.4847C7.5692 45.2512 7.57432 44.8489 7.7209 44.6785C8.25612 44.0546 8.83225 43.4529 9.46973 42.9382C9.66405 42.7814 10.1652 42.8274 10.4226 42.9689C10.7686 43.1598 10.8248 43.6064 10.5487 43.9132C9.96916 44.5558 9.34019 45.1523 8.71804 45.754C8.62259 45.8461 8.45384 45.8631 8.22373 45.9535H8.22203Z" fill="white"/>
<path d="M45.8572 45.2151C45.7242 45.3873 45.6049 45.6924 45.3987 45.7725C45.1651 45.8628 44.7629 45.8594 44.5907 45.7111C43.9669 45.1759 43.3942 44.5776 42.8317 43.9759C42.5521 43.6759 42.5385 43.2549 42.8658 43.018C43.0925 42.8526 43.5987 42.7316 43.7538 42.8612C44.4458 43.4407 45.0612 44.114 45.6918 44.7651C45.7702 44.8469 45.7805 44.9952 45.8572 45.2151Z" fill="white"/>
<path d="M1.88864 27.4832C1.52728 27.4832 1.16593 27.4866 0.806274 27.4832C0.334124 27.478 0.029016 27.2513 0.00174378 26.7673C-0.0255284 26.2781 0.269352 25.9917 0.727866 25.9695C1.48978 25.9338 2.25852 25.9303 3.02044 25.9695C3.48065 25.9934 3.7619 26.2917 3.72951 26.7809C3.69883 27.2326 3.421 27.4644 2.97441 27.4797C2.61306 27.4917 2.2517 27.4814 1.89205 27.4832H1.88864Z" fill="white"/>
<path d="M51.4294 27.4824C51.068 27.4824 50.7067 27.4944 50.347 27.479C49.8987 27.4586 49.6345 27.2114 49.6107 26.7614C49.5885 26.3046 49.8527 26.0012 50.2805 25.979C51.0851 25.9364 51.8947 25.9347 52.6975 25.9859C53.1237 26.0131 53.4424 26.3574 53.3146 26.7802C53.2328 27.0563 52.9089 27.3631 52.6294 27.4517C52.2612 27.5676 51.8316 27.4807 51.4277 27.4807C51.4277 27.4807 51.4277 27.4807 51.4277 27.4824H51.4294Z" fill="white"/>
</svg>
