<svg width="15" height="15" viewBox="0 0 15 15" fill="none" xmlns="http://www.w3.org/2000/svg">
<path d="M10.0062 1.81571C10.1006 1.90032 10.1773 1.96919 10.2521 2.04003C10.4017 2.1817 10.4017 2.31354 10.2502 2.45522C10.1754 2.52605 10.0986 2.59492 10.0081 2.67757C10.0849 2.74841 10.1518 2.81728 10.2265 2.87631C10.3328 2.96092 10.3721 3.06521 10.3702 3.19901C10.3662 3.54927 10.3702 3.89952 10.3702 4.25174C10.3702 4.30487 10.3702 4.358 10.3702 4.39538C10.6339 4.33439 10.8877 4.28126 11.1376 4.21632C11.1828 4.20452 11.2242 4.14155 11.2517 4.09432C11.781 3.1813 12.3123 2.26828 12.8338 1.34936C12.9085 1.21949 13.003 1.14275 13.1447 1.1034C13.4575 1.01485 13.7665 0.914496 14.0793 0.820045C14.2918 0.757079 14.4001 0.814142 14.4512 1.02862C14.5358 1.37888 14.6165 1.72913 14.6952 2.08135C14.7385 2.27222 14.528 2.60083 14.3391 2.65002C14.2348 2.67757 14.1285 2.69921 14.0046 2.72676C14.0341 2.82318 14.0596 2.90976 14.0872 2.99634C14.1679 3.25411 14.1108 3.35446 13.853 3.41153C13.7625 3.4312 13.672 3.45482 13.5756 3.47646C13.5874 3.51975 13.5913 3.55517 13.6071 3.58469C13.7369 3.83262 13.6759 4.0471 13.5284 4.27142C13.3414 4.55477 13.1801 4.85583 13.0168 5.15492C12.9892 5.20412 12.9872 5.28676 13.0089 5.33989C13.5382 6.58939 12.7157 7.93924 11.3619 8.02582C11.0254 8.04746 10.7027 7.97466 10.4036 7.81724C10.3289 7.77789 10.2757 7.78182 10.2029 7.81724C9.6618 8.08485 9.11281 8.09469 8.55595 7.86053C8.49692 7.83495 8.41034 7.83495 8.35131 7.86053C7.0349 8.4233 5.61421 7.46502 5.67128 6.03843C5.68112 5.8082 5.76376 5.57798 5.83066 5.35169C5.85624 5.26708 5.85821 5.21002 5.81492 5.13525C5.28167 4.21829 4.75432 3.2974 4.2191 2.38044C4.14433 2.25254 4.12072 2.13251 4.1581 1.98887C4.24075 1.66813 4.30962 1.34543 4.38636 1.02469C4.43555 0.820045 4.54378 0.755111 4.74645 0.81611C5.08096 0.916463 5.41744 1.01878 5.74999 1.12504C5.98611 1.19981 6.15534 1.53039 6.08253 1.76652C6.05301 1.859 6.02547 1.95148 5.99398 2.0538C6.11795 2.08135 6.22814 2.10496 6.33637 2.13251C6.51346 2.17777 6.57839 2.28993 6.5292 2.46309C6.49772 2.57131 6.4623 2.67757 6.42885 2.78579C6.44262 2.7976 6.45049 2.80941 6.4564 2.80941C6.80468 2.81924 6.99949 3.01995 7.14116 3.32101C7.27103 3.59649 7.44025 3.85426 7.59767 4.11794C7.62522 4.16319 7.67638 4.21042 7.7236 4.22223C7.90857 4.26748 8.09747 4.29897 8.30605 4.34029C8.30605 4.2911 8.30605 4.236 8.30605 4.17894C8.30605 3.18524 8.30605 2.19351 8.30408 1.19981C8.30408 1.05617 8.34344 0.945979 8.44576 0.843658C8.67598 0.607532 8.89833 0.3596 9.12462 0.119539C9.27417 -0.0398462 9.4001 -0.0398462 9.55161 0.119539C9.79167 0.375342 10.0317 0.631145 10.2679 0.888915C10.4292 1.06404 10.4076 1.43988 10.2324 1.6032C10.1616 1.6701 10.0868 1.73503 10.0042 1.80981L10.0062 1.81571ZM4.80155 1.33165C4.75039 1.554 4.7071 1.77045 4.64807 1.98297C4.62052 2.08332 4.63823 2.16006 4.68742 2.24664C5.22264 3.16753 5.75195 4.09432 6.29111 5.01325C6.38359 5.17263 6.38753 5.29857 6.30291 5.46582C6.0294 6.00498 6.07663 6.53429 6.45049 7.00654C6.81649 7.46896 7.31235 7.64212 7.88889 7.51225C8.61498 7.34696 9.05968 6.69564 8.98294 5.94004C8.91407 5.26118 8.31786 4.71809 7.59964 4.69644C7.43435 4.69054 7.33597 4.62954 7.25922 4.48983C7.07623 4.15729 6.87552 3.83262 6.69449 3.50007C6.62365 3.37217 6.53904 3.29937 6.39146 3.28559C6.28521 3.27575 6.17895 3.24427 6.07466 3.21476C5.91527 3.1695 5.85428 3.05931 5.89757 2.89795C5.92708 2.78579 5.96447 2.67363 6.00185 2.54967C5.87789 2.52015 5.7677 2.49851 5.65947 2.46899C5.48238 2.42177 5.41548 2.30961 5.46664 2.13645C5.50599 1.99871 5.55322 1.8649 5.59847 1.72913C5.62996 1.63665 5.60438 1.57565 5.50796 1.54613C5.27773 1.47726 5.04751 1.40642 4.79958 1.32968L4.80155 1.33165ZM10.7263 7.44534C10.9487 7.53389 11.1651 7.57325 11.3875 7.54767C12.4481 7.4296 13.0089 6.35326 12.5012 5.40876C12.4383 5.29069 12.4383 5.19034 12.5052 5.07621C12.6527 4.83025 12.7747 4.56854 12.94 4.33635C13.1525 4.0412 13.2371 3.74997 13.0463 3.41546C13.0423 3.40759 13.0423 3.39579 13.0384 3.38595C12.9931 3.21476 13.064 3.09669 13.2371 3.05537C13.3473 3.02979 13.4575 3.00618 13.5756 2.9806C13.5421 2.87237 13.5107 2.77399 13.4811 2.6756C13.4162 2.46112 13.4733 2.35683 13.6877 2.30567C13.8176 2.27419 13.9475 2.24664 14.0774 2.22106C14.162 2.20335 14.2171 2.164 14.1974 2.06954C14.1443 1.82555 14.0872 1.58352 14.0282 1.32968C13.8137 1.39462 13.6189 1.45955 13.4201 1.51071C13.3021 1.5422 13.2273 1.6032 13.1663 1.70945C12.6409 2.63034 12.1057 3.5473 11.5803 4.46819C11.4957 4.61577 11.3973 4.69054 11.2183 4.69448C11.053 4.69841 10.8897 4.74761 10.6968 4.78302C10.9369 5.0526 11.0904 5.31431 11.1691 5.61537C11.1927 5.70392 11.2261 5.75311 11.3206 5.78656C11.6413 5.90069 11.8361 6.23717 11.7889 6.56184C11.7377 6.90619 11.4642 7.19151 11.1258 7.18954C10.9231 7.18954 10.8208 7.27415 10.7224 7.44141L10.7263 7.44534ZM8.91014 7.4847C9.17578 7.56931 9.42371 7.57521 9.67361 7.51225C10.2502 7.3686 10.6771 6.91603 10.7519 6.32768C10.8287 5.72359 10.6024 5.2415 10.0888 4.91093C9.94516 4.81844 9.88612 4.71612 9.89203 4.54887C9.90187 4.28322 9.87235 4.01365 9.8999 3.74997C9.93728 3.38398 9.85464 3.09472 9.52997 2.87828C9.36271 2.76808 9.38042 2.6087 9.52997 2.46702C9.60671 2.39422 9.68542 2.32338 9.77003 2.24467C9.67755 2.16006 9.59687 2.08725 9.51816 2.01248C9.38042 1.88064 9.38042 1.74881 9.51619 1.61697C9.62048 1.51858 9.73461 1.43004 9.82906 1.32378C9.86251 1.28639 9.87825 1.18407 9.85267 1.15259C9.69132 0.961721 9.51619 0.780691 9.33713 0.587855C9.16988 0.766917 9.00852 0.930237 8.85898 1.10536C8.81569 1.15456 8.78617 1.23523 8.7842 1.30017C8.78027 2.37651 8.78027 3.45482 8.7842 4.53116C8.7842 4.60003 8.82159 4.68464 8.87078 4.73186C9.14233 4.99947 9.32926 5.31234 9.41584 5.68227C9.43552 5.76688 9.46897 5.80033 9.55161 5.82788C9.93335 5.94988 10.138 6.31981 10.0475 6.70352C9.95893 7.07148 9.60081 7.3017 9.2112 7.24857C9.16397 7.24267 9.10297 7.26825 9.06362 7.29973C9.00852 7.34499 8.9672 7.40992 8.90817 7.48273L8.91014 7.4847ZM9.528 6.31784C9.50832 6.32178 9.48865 6.32571 9.47094 6.32965C9.43749 6.47526 9.406 6.62087 9.37058 6.77829C9.49848 6.75664 9.57916 6.68974 9.58506 6.57955C9.59097 6.49297 9.54964 6.40442 9.528 6.31784ZM11.2419 6.29817C11.2143 6.44181 11.1907 6.56578 11.1651 6.70942C11.3462 6.57561 11.3639 6.47329 11.2419 6.29817Z" fill="white"/>
<path d="M9.2874 10.6191C9.42907 10.5522 9.57468 10.4931 9.70849 10.4144C10.5723 9.91658 11.4322 9.41285 12.2941 8.91108C12.6679 8.69463 13.0536 8.50967 13.4904 8.46638C13.9056 8.42505 14.2736 8.53525 14.5176 8.8914C14.7636 9.25149 14.7734 9.64701 14.5668 10.0287C14.49 10.1704 14.3641 10.3042 14.2283 10.3888C12.6227 11.3865 11.0131 12.3762 9.40349 13.366C8.89779 13.6769 8.3547 13.7458 7.78013 13.5923C6.70969 13.303 5.63729 13.0197 4.56685 12.7265C4.42321 12.6871 4.30121 12.6852 4.17921 12.7796C4.09853 12.8406 4.00211 12.8859 3.90963 12.941C3.98441 13.0748 4.05524 13.1987 4.12411 13.3227C4.30514 13.6592 4.21266 14.0114 3.88602 14.2042C3.64399 14.3479 3.39999 14.4856 3.15206 14.6194C2.82149 14.7965 2.46926 14.7001 2.2843 14.3735C1.55034 13.0826 0.818351 11.7898 0.0902963 10.4951C-0.0927013 10.1684 0.00961995 9.81623 0.332325 9.62733C0.574354 9.48368 0.820319 9.34594 1.06628 9.21214C1.39096 9.03505 1.74515 9.1354 1.93601 9.45417C1.99701 9.55452 2.05408 9.65881 2.12098 9.77294C2.17804 9.74146 2.2292 9.71391 2.2784 9.68439C2.98481 9.27904 3.68728 8.86779 4.39959 8.47228C4.98007 8.14957 5.57629 8.12793 6.20989 8.36012C6.9222 8.62183 7.65419 8.82647 8.37831 9.05276C8.4767 9.08424 8.58296 9.09211 8.68134 9.12163C9.25591 9.30069 9.54517 9.92052 9.31298 10.4774C9.29724 10.5128 9.2815 10.5482 9.26772 10.5856C9.27559 10.5954 9.28346 10.6072 9.2933 10.6171L9.2874 10.6191ZM3.67351 12.5258C3.84076 12.4294 3.98834 12.329 4.14969 12.2582C4.24021 12.2188 4.36221 12.1952 4.45469 12.2188C5.59006 12.514 6.72346 12.819 7.85687 13.1259C8.31928 13.2519 8.75611 13.2105 9.16737 12.9587C10.773 11.9709 12.3787 10.9831 13.9804 9.98939C14.0729 9.93232 14.1536 9.82016 14.1909 9.71784C14.3523 9.26133 14.0276 8.88156 13.5396 8.94059C13.1697 8.98585 12.8411 9.14524 12.5243 9.3302C11.6723 9.82607 10.8183 10.3219 9.96626 10.8217C9.58846 11.0441 9.18508 11.1818 8.75218 11.1169C8.26615 11.0441 7.78603 10.93 7.30591 10.8178C7.00878 10.7489 6.71559 10.6584 6.4224 10.5699C6.2827 10.5285 6.2217 10.4144 6.25318 10.2845C6.2827 10.1606 6.39682 10.0917 6.5385 10.1153C6.59163 10.1252 6.64279 10.1429 6.69592 10.1566C7.21933 10.2944 7.74274 10.44 8.27009 10.5699C8.55147 10.6387 8.7876 10.5128 8.88008 10.2767C8.99814 9.97758 8.83089 9.65684 8.51015 9.5742C8.2996 9.5191 8.08316 9.48959 7.87655 9.42465C7.19178 9.20427 6.51292 8.96421 5.82422 8.75366C5.63335 8.69463 5.40903 8.66315 5.2162 8.70053C4.95055 8.75366 4.68491 8.85598 4.44682 8.98782C3.76796 9.35972 3.10287 9.7572 2.43188 10.1448C2.40827 10.1586 2.38662 10.1783 2.35514 10.2019C2.79394 10.9752 3.22684 11.7446 3.67154 12.5297L3.67351 12.5258ZM1.40867 9.58797C1.34373 9.60962 1.31422 9.61552 1.28864 9.6293C1.04857 9.7631 0.806545 9.89887 0.568451 10.0366C0.454324 10.1035 0.460227 10.196 0.519258 10.3023C1.23747 11.5675 1.95176 12.8347 2.66997 14.0999C2.75458 14.2495 2.81558 14.2633 2.97103 14.1767C3.17764 14.0606 3.38425 13.9445 3.58889 13.8264C3.76205 13.728 3.7778 13.671 3.67744 13.4959C3.30161 12.8308 2.92577 12.1657 2.54797 11.5006C2.2174 10.9162 1.88879 10.3318 1.55428 9.75129C1.51689 9.68636 1.45196 9.6352 1.4067 9.58797H1.40867Z" fill="white"/>
<path d="M7.76915 5.74512C8.1745 5.74512 8.50704 6.07569 8.50507 6.47711C8.50311 6.87852 8.16663 7.2091 7.76325 7.20713C7.36774 7.20516 7.03913 6.87655 7.03519 6.47907C7.03126 6.07766 7.36183 5.74512 7.76915 5.74512ZM8.02889 6.47317C8.02889 6.33543 7.91279 6.2213 7.77112 6.2213C7.62944 6.2213 7.51531 6.3315 7.51138 6.4712C7.50941 6.61485 7.63141 6.73685 7.77505 6.73291C7.91279 6.72897 8.02889 6.60894 8.02692 6.47317H8.02889Z" fill="white"/>
<path d="M1.51965 10.4082C1.51965 10.5558 1.40749 10.6719 1.25992 10.6739C1.11037 10.6759 0.984436 10.5499 0.988371 10.4023C0.992306 10.2587 1.1143 10.1406 1.25795 10.1426C1.40159 10.1426 1.51769 10.2626 1.51769 10.4082H1.51965Z" fill="white"/>
</svg>
