<svg width="14" height="14" viewBox="0 0 14 14" fill="none" xmlns="http://www.w3.org/2000/svg">
<path d="M0.317107 13.33C0.0728958 13.2185 -0.00905429 13.0284 0.000779719 12.7645C0.0155307 12.3663 0.00405772 11.9664 0.00569672 11.5664C0.0106137 10.2159 0.95304 9.10793 2.29047 8.91781C2.58549 8.87519 2.85756 8.84569 3.09194 8.63754C3.18864 8.55231 3.34598 8.53756 3.47219 8.48183C3.50824 8.46544 3.53119 8.41791 3.55905 8.38349C3.56397 8.37858 3.55905 8.3671 3.55905 8.35727C3.58692 8.1819 3.52463 8.077 3.36565 7.97374C2.64285 7.49843 2.23802 6.81661 2.13476 5.95613C2.12984 5.9168 2.10362 5.85943 2.07248 5.84632C1.62667 5.67422 1.46769 5.29561 1.38738 4.87439C1.3464 4.65968 1.33984 4.43514 1.33821 4.21387C1.33657 3.73692 1.32509 3.25834 1.35951 2.78303C1.45457 1.45543 2.55762 0.268796 3.88194 0.0540871C4.08681 0.021307 4.29496 0.00491701 4.50312 0.003278C5.20953 -0.003278 5.91758 0.003278 6.62399 0C6.84689 0 7.02554 0.0721161 7.13208 0.273713C7.23861 0.472033 7.19436 0.658879 7.06488 0.832613C6.99276 0.929314 6.9272 1.03257 6.85345 1.14075C6.9567 1.17025 7.0534 1.19155 7.14683 1.22597C7.8221 1.46855 8.34002 1.89632 8.41378 2.63388C8.49081 3.39437 8.499 4.16798 8.38591 4.93012C8.3433 5.2153 8.22693 5.48082 8.00075 5.67914C7.97125 5.70537 7.94174 5.73815 7.90732 5.74798C7.67623 5.81026 7.64508 5.98727 7.60739 6.19215C7.45988 6.99034 7.02554 7.60005 6.34044 8.02947C6.25521 8.08192 6.21096 8.13273 6.22571 8.23271C6.23226 8.27532 6.23063 8.31957 6.22571 8.36219C6.21751 8.43922 6.23882 8.47528 6.32569 8.49167C6.56498 8.53756 6.7715 8.65393 6.95015 8.82111C6.98129 8.85061 7.02718 8.87683 7.06979 8.88339C7.2845 8.91125 7.50249 8.91617 7.71392 8.96042C7.92371 9.00468 8.12531 9.0899 8.32527 9.15382C8.48261 8.87847 8.62685 8.58181 8.81041 8.31302C8.99234 8.0475 9.21689 7.80984 9.42504 7.5558C9.40209 7.5558 9.36931 7.55416 9.33817 7.55088C9.20869 7.54105 9.12346 7.45746 9.11855 7.33781C9.11527 7.21489 9.20377 7.11491 9.33653 7.10999C9.47093 7.10343 9.60533 7.10999 9.76103 7.10999C9.73973 7.0559 9.72498 7.01329 9.70695 6.97231C9.53321 6.58059 9.35784 6.18887 9.18411 5.79715C9.01693 5.41854 9.21525 5.11205 9.62664 5.10877C9.76103 5.10877 9.89543 5.10713 10.0298 5.10877C10.2724 5.11205 10.4216 5.21366 10.4969 5.4464C10.5248 5.53327 10.5674 5.55622 10.6543 5.55458C10.9362 5.54966 11.2181 5.5513 11.5 5.55294C11.9049 5.55622 12.1015 5.85943 11.9425 6.23312C11.8213 6.51831 11.6983 6.80514 11.5689 7.10835C11.7033 7.10835 11.8196 7.10835 11.9344 7.10835C12.1228 7.10835 12.2228 7.18702 12.2228 7.33125C12.2228 7.47057 12.1327 7.54269 11.9475 7.55252C11.9393 7.55252 11.9311 7.5558 11.9065 7.55908C11.936 7.5935 11.9573 7.62136 11.9835 7.64758C12.7473 8.41791 13.1931 9.33903 13.3144 10.4175C13.3177 10.4519 13.3308 10.4847 13.3373 10.5175V10.96C13.3291 10.9846 13.3193 11.0092 13.3144 11.0338C13.1341 12.1483 12.4949 12.8662 11.4328 13.2202C11.2738 13.2726 11.105 13.2939 10.9411 13.33H10.4199C10.1954 13.2743 9.97083 13.2185 9.74465 13.1645C9.72498 13.1595 9.69711 13.1694 9.67909 13.1809C9.60369 13.2284 9.53158 13.2792 9.45618 13.33H0.317107ZM1.78074 4.34172C1.78074 4.34172 1.77418 4.34172 1.7709 4.34172C1.79057 4.50889 1.80368 4.67771 1.83154 4.84489C1.8463 4.9334 1.88399 5.01862 1.91513 5.10385C1.98069 5.27595 2.09379 5.39232 2.27571 5.44804C2.44289 5.50049 2.54123 5.62178 2.56582 5.79715C2.58057 5.90368 2.5904 6.01186 2.60843 6.11839C2.8215 7.30995 4.01633 8.16387 5.20625 7.97702C6.31913 7.80165 7.10094 6.97559 7.21075 5.85288C7.23042 5.64472 7.32548 5.50377 7.52708 5.43985C7.68114 5.39068 7.78112 5.28742 7.8516 5.14319C8.03353 4.76294 8.00403 4.35647 7.99255 3.95491C7.98927 3.85002 7.87291 3.7697 7.76801 3.77954C7.65 3.79101 7.57625 3.85985 7.55986 3.97622C7.55002 4.04833 7.55658 4.12373 7.55494 4.19748C7.55166 4.34663 7.45824 4.44825 7.32876 4.44497C7.20419 4.4417 7.11569 4.34336 7.11241 4.19912C7.10913 4.06472 7.11241 3.93033 7.11241 3.79593C7.11241 3.673 7.05013 3.60416 6.92556 3.58941C6.79608 3.5763 6.6666 3.56155 6.53876 3.54188C5.99133 3.46157 5.47341 3.30914 5.03907 2.94365C4.93745 2.85842 4.84075 2.87973 4.74733 2.96332C4.49164 3.18786 4.19499 3.34192 3.86555 3.41404C3.55414 3.48288 3.23453 3.52549 2.9182 3.56975C2.72152 3.59761 2.67071 3.64186 2.66907 3.82871C2.66907 3.95819 2.67235 4.08931 2.6658 4.21879C2.66088 4.34827 2.57401 4.43678 2.45764 4.4417C2.338 4.44825 2.23966 4.35811 2.22654 4.22535C2.21999 4.15651 2.22654 4.08603 2.22327 4.01719C2.21835 3.87132 2.13148 3.7779 2.00528 3.77626C1.88071 3.77626 1.78729 3.87132 1.78074 4.01392C1.77582 4.12209 1.78074 4.23026 1.78074 4.33844V4.34172ZM10.7149 7.55744C10.2282 7.52794 10.0938 7.62464 9.73481 7.90163C9.68072 7.94424 9.62992 7.99341 9.58238 8.04258C9.14313 8.49167 8.84975 9.02762 8.64815 9.61766C8.49245 10.0733 8.39575 10.5388 8.47442 11.0223C8.62521 11.9598 9.34145 12.6842 10.2773 12.8547C11.2066 13.0235 12.1573 12.5761 12.6178 11.7533C12.9161 11.2173 12.9538 10.6502 12.8161 10.0635C12.6227 9.23577 12.2687 8.49331 11.6279 7.9131C11.3607 7.67217 11.064 7.48696 10.7149 7.55416V7.55744ZM2.35439 3.38454C2.4642 3.23047 2.64613 3.14852 2.86575 3.13049C2.97393 3.1223 3.0821 3.11246 3.18864 3.09771C3.67542 3.03379 4.13762 2.91578 4.52279 2.57979C4.73913 2.3913 5.05874 2.38966 5.28 2.57323C5.66517 2.89284 6.11917 3.02724 6.60104 3.10263C6.90753 3.15016 7.24845 3.10591 7.42382 3.3829C7.63689 3.36323 7.8139 3.34848 8.00075 3.33045C8.00075 3.18622 8.00075 3.02232 8.00075 2.85678C8.00075 2.54209 7.88602 2.27166 7.66475 2.05039C7.33203 1.71603 6.92392 1.56689 6.45681 1.55869C6.30438 1.55541 6.15359 1.56197 6.00117 1.55541C5.86677 1.54886 5.7799 1.45216 5.78154 1.32923C5.78482 1.20467 5.87168 1.12108 6.011 1.11616C6.08475 1.11288 6.16015 1.12436 6.23226 1.11124C6.28471 1.10141 6.34699 1.07519 6.37814 1.03585C6.48631 0.894895 6.58465 0.747385 6.68299 0.598236C6.70758 0.562178 6.71577 0.516286 6.73216 0.475311C6.68791 0.465477 6.64365 0.445809 6.5994 0.445809C5.87496 0.444169 5.15052 0.440892 4.42772 0.445809C3.33943 0.452365 2.37405 1.11124 1.96922 2.12251C1.81024 2.51915 1.75943 2.93054 1.78401 3.32881C1.97578 3.34848 2.15279 3.36487 2.35275 3.38454H2.35439ZM0.472812 12.8776H3.36401C2.73463 11.7713 2.71497 10.5535 2.65924 9.34395C2.63793 9.33903 2.62482 9.33575 2.61335 9.33575C1.57094 9.33084 0.577708 10.1913 0.482646 11.2304C0.433476 11.7713 0.474451 12.322 0.474451 12.8793L0.472812 12.8776ZM7.15338 9.33575C7.0911 9.96185 7.05013 10.5666 6.96654 11.1665C6.88131 11.7713 6.71413 12.3564 6.36666 12.8793H9.16116C8.03025 12.0188 7.78932 10.9059 8.18104 9.60783C7.84668 9.4259 7.50085 9.33412 7.15338 9.33575ZM5.51766 12.8809C5.40293 12.1909 5.28656 11.5123 5.18166 10.8305C5.16036 10.6961 5.11119 10.642 4.97515 10.665C4.90795 10.6765 4.83583 10.6732 4.767 10.665C4.66374 10.6535 4.62604 10.6928 4.61129 10.7977C4.55065 11.196 4.48017 11.5927 4.41461 11.9909C4.36544 12.2843 4.31791 12.5793 4.26874 12.8809H5.51766ZM4.08353 10.3552C3.68853 10.4994 3.43941 10.1946 3.10833 10.052C3.17717 10.5355 3.23453 10.9993 3.3132 11.4599C3.37548 11.8238 3.48038 12.1761 3.66559 12.499C3.7082 12.5744 3.76557 12.6416 3.82949 12.7334C3.84424 12.6859 3.8508 12.6711 3.85407 12.6547C3.96061 12.0106 4.06223 11.3648 4.17532 10.7207C4.20154 10.5699 4.21301 10.4388 4.08189 10.3552H4.08353ZM5.93397 12.6678C5.94708 12.6678 5.96019 12.6695 5.9733 12.6711C6.48795 11.8828 6.55679 10.9764 6.65021 10.0749C6.45025 10.1749 6.26341 10.2716 6.07328 10.3634C5.95199 10.4224 5.82743 10.4486 5.72254 10.3405C5.60125 10.4322 5.57011 10.5306 5.59633 10.6765C5.68975 11.1698 5.76351 11.6681 5.84546 12.163C5.87332 12.3318 5.90446 12.5007 5.93233 12.6695L5.93397 12.6678ZM9.57911 5.55294C9.58238 5.58408 9.57911 5.59391 9.58402 5.60047C9.79709 6.08397 10.0102 6.56584 10.2282 7.04771C10.2413 7.07885 10.2986 7.10507 10.3363 7.10671C10.5527 7.11163 10.7707 7.10671 10.987 7.11163C11.0673 7.11327 11.0985 7.08049 11.1263 7.01165C11.2509 6.71171 11.382 6.41505 11.5099 6.11675C11.5246 6.08397 11.5328 6.04792 11.5459 6.00694H10.6969C10.7035 6.043 10.7084 6.06758 10.7149 6.09217C10.7641 6.26918 10.7231 6.38719 10.5969 6.42817C10.4593 6.47406 10.3494 6.40358 10.2921 6.22657C10.2282 6.03317 10.1675 5.83976 10.0987 5.648C10.0839 5.60866 10.0364 5.55949 10.002 5.55622C9.86429 5.54474 9.72662 5.5513 9.58075 5.5513L9.57911 5.55294ZM4.02453 8.30318C3.95569 8.56542 4.02289 8.77358 4.25727 8.89486C4.4392 8.98993 4.63588 9.05876 4.82928 9.13416C4.86698 9.14891 4.91942 9.14891 4.95712 9.13416C5.13577 9.0686 5.3177 9.00959 5.48488 8.92273C5.72909 8.79652 5.85038 8.59657 5.76515 8.30154C5.18822 8.48675 4.60474 8.48839 4.02453 8.30154V8.30318ZM3.72787 9.8881C3.8803 9.70617 4.01961 9.53899 4.14909 9.38165C4.02781 9.27839 3.88357 9.17349 3.76065 9.04893C3.60822 8.89486 3.60494 8.88339 3.40663 8.9719C3.34434 8.99976 3.28698 9.03909 3.22634 9.07351C3.12472 9.12924 3.11161 9.20791 3.14766 9.31281C3.25092 9.60619 3.48038 9.76353 3.72787 9.8881ZM6.05853 9.8881C6.25849 9.79304 6.46009 9.67011 6.57318 9.45376C6.72724 9.1571 6.6961 9.15219 6.44861 9.00795C6.37486 8.96534 6.28799 8.94403 6.20604 8.92109C6.17982 8.91453 6.1372 8.92437 6.1159 8.94239C5.95363 9.09482 5.79465 9.25053 5.6455 9.39312C5.76679 9.53735 5.9061 9.70453 6.05853 9.8881ZM5.50455 9.89957C5.13741 9.50785 4.54573 9.51932 4.31299 9.88318C4.45559 10.3175 4.81125 10.2175 5.12594 10.2208C5.3472 10.2225 5.35868 9.99135 5.50455 9.89793V9.89957Z" fill="white"/>
<path d="M10.2912 9.55762H9.89453L10.0601 9.9182H10.4502L10.2912 9.55762ZM11.0648 9.96737L10.9992 10.1165H11.3893L11.4581 9.96737H11.0648ZM10.9779 10.1657L10.7681 10.6377L10.56 10.1657H10.1748L10.7681 11.4621L11.3664 10.1657H10.9763H10.9779ZM10.4731 9.96737H10.0847L10.1535 10.1165H10.5403L10.4747 9.96737H10.4731ZM11.2467 9.55762L11.2172 9.62645L11.0877 9.91984H11.4811L11.6483 9.55926H11.2483L11.2467 9.55762Z" fill="white"/>
</svg>
