<svg width="20" height="13" viewBox="0 0 20 13" fill="none" xmlns="http://www.w3.org/2000/svg">
<path d="M7.78575 1.15949C7.52233 1.42881 7.27071 1.68436 7.01712 1.94385C6.9031 2.0618 6.77139 2.1365 6.63771 1.99693C6.50404 1.85932 6.58267 1.72958 6.70062 1.61556C6.91883 1.40719 7.1331 1.19684 7.35327 0.98257C7.0525 0.762399 7.01712 0.764364 6.78515 0.99633C6.64951 1.13197 6.51583 1.26761 6.37823 1.40129C6.27404 1.50351 6.15609 1.52317 6.046 1.41505C5.93592 1.30693 5.95558 1.18701 6.05977 1.08479C6.19541 0.953082 6.33694 0.825305 6.47455 0.697527C6.46472 0.673937 6.45686 0.648382 6.44703 0.624792C6.0637 0.573681 5.68233 0.491117 5.299 0.477356C4.77806 0.459664 4.25515 0.489151 3.73224 0.504877C3.52976 0.510775 3.38626 0.624792 3.36464 0.821373C3.25652 1.763 3.23686 2.70266 3.46293 3.6777C3.64575 3.49488 3.80498 3.32582 3.976 3.17052C4.04088 3.11154 4.1372 3.0565 4.21976 3.05454C4.27874 3.05257 4.37506 3.1312 4.39276 3.19214C4.41241 3.26291 4.38882 3.37496 4.34165 3.43001C4.17652 3.61872 3.99173 3.78975 3.81481 3.96667C3.65623 4.12525 3.64182 4.32248 3.77156 4.55838C4.00353 4.32248 4.22763 4.09445 4.45173 3.86642C4.50284 3.81334 4.54806 3.73471 4.609 3.71701C4.70925 3.68753 4.84686 3.66001 4.92156 3.70522C5.04737 3.78385 5.02575 3.92736 4.92549 4.02958C4.68566 4.27924 4.43994 4.523 4.19224 4.76479C4.11951 4.83753 4.03498 4.8965 3.95241 4.96334C4.33968 5.65924 4.84096 6.19984 5.43464 6.65787C6.45096 7.44419 7.61079 7.93958 8.81977 8.33667C8.89643 8.36223 8.99472 8.37009 9.0419 8.42317C9.10088 8.48804 9.16378 8.60402 9.14412 8.67479C9.12447 8.7436 9.00455 8.78684 8.92395 8.83402C8.9043 8.84582 8.86695 8.82813 8.83942 8.82026C7.44566 8.37206 6.09908 7.82556 4.95105 6.88394C3.6772 5.84206 3.00293 4.47975 2.88498 2.85599C2.83387 2.16992 2.88498 1.47402 2.91643 0.784023C2.93412 0.420347 3.21917 0.111715 3.56712 0.0723985C5.20464 -0.112388 6.79105 0.0193215 8.23789 0.905903C9.29746 1.55659 10.0681 2.48248 10.6224 3.57548C11.0097 4.34018 11.3085 5.15009 11.6427 5.94231C11.7056 6.08975 11.7193 6.24505 11.5306 6.30795C11.3439 6.37086 11.2711 6.24308 11.2181 6.08778C10.8603 5.04001 10.4376 4.02368 9.8184 3.09778C9.29156 2.30949 8.64677 1.64308 7.78575 1.15753V1.15949Z" fill="white"/>
<path d="M19.1001 11.7908C19.1001 11.6827 19.1001 11.6119 19.1001 11.5412C19.1001 9.07997 19.0982 6.62074 19.106 4.15954C19.106 3.97279 19.0411 3.89612 18.88 3.82338C16.9436 2.94663 14.9228 2.35296 12.8154 2.07578C11.9917 1.96766 11.1582 1.9421 10.3287 1.87723C10.2422 1.87133 10.136 1.88313 10.0731 1.83988C10.0082 1.79467 9.9473 1.69048 9.94927 1.61578C9.95123 1.55287 10.0417 1.48603 10.1065 1.43492C10.1341 1.4133 10.1911 1.42313 10.2363 1.42313C13.4248 1.4821 16.46 2.19373 19.3478 3.54424C19.4933 3.61304 19.5523 3.70937 19.5523 3.87056C19.5483 6.64039 19.5523 9.41022 19.5444 12.1801C19.5444 12.2803 19.4854 12.4218 19.4088 12.4671C19.3478 12.5044 19.1945 12.4533 19.1198 12.3924C18.2391 11.6827 17.2955 11.0733 16.2772 10.5779C16.1337 10.5071 16.0374 10.4049 16.1141 10.2477C16.1966 10.0766 16.3382 10.1022 16.4895 10.1769C17.3309 10.5897 18.127 11.0753 18.88 11.6355C18.9429 11.6827 19.0077 11.724 19.1041 11.7908H19.1001Z" fill="white"/>
<path d="M0.461966 11.7708C0.959316 11.4405 1.41538 11.1201 1.88718 10.8272C2.80325 10.259 3.77829 9.81084 4.79855 9.46093C4.88111 9.43144 4.9912 9.42358 5.06983 9.45503C5.12487 9.47665 5.19368 9.59853 5.17598 9.64375C5.1406 9.73418 5.06197 9.83443 4.97744 9.87178C4.57248 10.0448 4.1518 10.1863 3.7488 10.3632C2.58308 10.8743 1.50778 11.5388 0.518974 12.3389C0.467863 12.3802 0.416752 12.4254 0.359744 12.4588C0.210342 12.5453 0.0570086 12.4824 0.0196581 12.3153C0.00196581 12.2386 0.00786325 12.1541 0.00786325 12.0735C0.00393162 9.37443 0.00786325 6.67734 0 3.98024C0 3.73255 0.0707692 3.58905 0.310598 3.49665C0.886581 3.27452 1.45077 3.02289 2.02479 2.79682C2.11325 2.76144 2.25479 2.76341 2.32949 2.81058C2.49265 2.91281 2.42188 3.11725 2.20171 3.20571C1.69846 3.41212 1.19718 3.62247 0.688034 3.81905C0.509145 3.88785 0.454103 3.98614 0.454103 4.17682C0.461966 6.62229 0.458034 9.06973 0.458034 11.5152C0.458034 11.5919 0.458034 11.6685 0.458034 11.7708H0.461966Z" fill="white"/>
<path d="M14.8132 10.7153C14.8938 10.7487 14.9724 10.7821 15.053 10.8136C15.7765 11.0907 16.0654 11.8889 15.6821 12.5612C15.5976 12.7086 15.4678 12.7597 15.3342 12.6496C15.0668 12.4275 14.7778 12.3705 14.4299 12.4019C14.2215 12.4216 14.0013 12.2977 13.7831 12.2388C13.7831 12.2447 13.7871 12.2781 13.789 12.3115C13.8126 12.5631 13.7183 12.6575 13.4725 12.6241C12.6665 12.512 12.1594 11.9911 12.0709 11.1792C12.0532 11.018 12.0453 10.8568 12.0395 10.6936C12.0336 10.5501 12.0945 10.4381 12.2459 10.4283C12.4071 10.4165 12.4818 10.5226 12.4955 10.6759C12.5152 10.8883 12.5191 11.1045 12.5584 11.3129C12.6351 11.7159 12.873 11.9832 13.2917 12.1051C13.329 11.9596 13.3526 11.8161 13.3998 11.6824C13.4883 11.4348 13.6809 11.3974 13.846 11.5979C14.0623 11.8574 14.2942 12.0048 14.6658 11.9419C14.88 11.9065 15.1199 12.0147 15.3518 12.0599C15.4737 11.7395 15.283 11.3994 14.88 11.2303C14.7287 11.1654 14.5616 11.0927 14.4535 10.9767C14.1291 10.6327 14.2431 10.3083 14.7012 10.214C14.7798 10.1983 14.8604 10.1963 14.941 10.1865C14.8171 9.7186 14.2451 9.44142 13.7163 9.59475C13.6671 9.60851 13.62 9.63014 13.5708 9.64586C13.4352 9.68911 13.3133 9.66945 13.2622 9.52202C13.213 9.38244 13.272 9.27826 13.4096 9.22321C13.9424 9.0109 14.4495 9.04236 14.9095 9.4021C15.2634 9.67928 15.4678 10.0646 15.5956 10.4853C15.6172 10.56 15.5858 10.6897 15.5307 10.7369C15.4757 10.7841 15.3558 10.7762 15.2693 10.7605C15.1199 10.731 14.9744 10.674 14.827 10.6288L14.8014 10.7153H14.8132Z" fill="white"/>
<path d="M12.2976 6.33302C12.561 6.39003 12.7379 6.49618 12.8499 6.6967C12.9659 6.90507 12.96 7.12131 12.8342 7.32576C12.7929 7.39456 12.7359 7.45353 12.6789 7.51054C11.9044 8.28704 11.1259 9.0596 10.3553 9.83806C10.1548 10.0386 9.92875 10.127 9.6555 10.0386C9.20926 9.89311 9.08935 9.35251 9.43336 9.00063C9.96806 8.45413 10.5146 7.91747 11.0552 7.3749C11.3146 7.11541 11.5663 6.84413 11.8395 6.59841C11.9693 6.48242 12.1423 6.41755 12.2956 6.33105L12.2976 6.33302ZM9.89336 9.61986C9.93661 9.58644 10.0093 9.53926 10.0683 9.48029C10.8252 8.72541 11.58 7.97054 12.3349 7.2137C12.3762 7.17242 12.4371 7.13114 12.447 7.08199C12.4607 7.01909 12.4529 6.92473 12.4135 6.88738C12.3762 6.852 12.2818 6.85593 12.2189 6.86969C12.1757 6.87952 12.1403 6.93259 12.1029 6.96798C11.3618 7.70712 10.6207 8.44627 9.88157 9.18541C9.81866 9.24832 9.75379 9.31123 9.71054 9.38789C9.6496 9.49405 9.7302 9.61789 9.8914 9.61986H9.89336Z" fill="white"/>
<path d="M14.8809 5.46302C14.5231 5.1072 14.2106 4.79661 13.9 4.48601C13.613 4.199 13.326 3.91396 13.0409 3.62695C12.7578 3.34191 12.4158 3.19054 12.0128 3.18857C11.6589 3.18857 11.3051 3.18661 10.9513 3.18661C10.7881 3.18661 10.6446 3.15319 10.6485 2.95267C10.6524 2.76789 10.7881 2.72857 10.9434 2.73054C11.3778 2.73644 11.8123 2.73054 12.2467 2.75609C12.6419 2.77968 12.9898 2.94874 13.2709 3.22592C14.0317 3.9749 14.7866 4.73173 15.5375 5.4925C15.5984 5.55344 15.6535 5.69498 15.622 5.75592C15.5847 5.83259 15.4569 5.90532 15.3684 5.90729C14.3659 5.91712 13.3653 5.91319 12.3627 5.91515C12.2015 5.91515 12.0737 5.86011 12.0836 5.68122C12.0914 5.50626 12.2251 5.46105 12.3824 5.46302C13.1117 5.46498 13.841 5.46302 14.5703 5.46302C14.6509 5.46302 14.7315 5.46302 14.8829 5.46302H14.8809Z" fill="white"/>
<path d="M8.34982 11.9697C8.34982 11.1598 8.34982 10.3951 8.34982 9.63041C8.34982 9.56357 8.32819 9.48101 8.35965 9.43579C8.41272 9.36109 8.49922 9.26477 8.57196 9.26477C8.64469 9.26477 8.72725 9.36502 8.78623 9.43579C8.81178 9.46724 8.79606 9.53605 8.79606 9.58716C8.79606 10.5307 8.79606 11.4724 8.79606 12.416C8.79606 12.5536 8.80195 12.7167 8.64076 12.7384C8.5405 12.7521 8.40093 12.6833 8.32426 12.6066C7.6146 11.9107 6.91674 11.2011 6.21101 10.5013C5.80802 10.1002 5.60751 9.62254 5.61341 9.05442C5.61537 8.76742 5.61537 8.48041 5.61341 8.19143C5.61341 8.02827 5.64879 7.88477 5.84537 7.88477C6.04785 7.88477 6.06751 8.0381 6.06554 8.19733C6.06358 8.4922 6.06554 8.78707 6.06554 9.08195C6.06554 9.48101 6.19136 9.83485 6.4764 10.1219C7.06418 10.7116 7.65392 11.2994 8.2417 11.8891C8.26136 11.9088 8.28691 11.9245 8.34785 11.9717L8.34982 11.9697Z" fill="white"/>
<path d="M5.45602 1.56641C6.02217 1.56641 6.48217 2.02445 6.48807 2.58864C6.49396 3.15479 6.01627 3.63445 5.44815 3.63052C4.87807 3.62855 4.4102 3.15086 4.41807 2.58077C4.42593 2.01658 4.8879 1.56445 5.45602 1.56641ZM5.45602 2.01462C5.14542 2.01265 4.87807 2.27411 4.87217 2.58667C4.86431 2.9012 5.11986 3.16462 5.43832 3.17052C5.77055 3.17838 6.032 2.92282 6.032 2.59453C6.032 2.28 5.77055 2.01855 5.45798 2.01462H5.45602Z" fill="white"/>
<path d="M10.0739 6.95643C10.068 7.16285 9.89501 7.27293 9.75544 7.2002C9.69254 7.16678 9.63946 7.11173 9.58638 7.06062C8.59758 6.07182 7.60877 5.08498 6.62194 4.09421C6.57476 4.04703 6.50792 3.99789 6.50006 3.94284C6.49023 3.85831 6.49612 3.74626 6.54724 3.68926C6.58852 3.64208 6.70843 3.63421 6.78313 3.64994C6.84604 3.6637 6.90108 3.7325 6.95219 3.78361C7.93707 4.76652 8.91997 5.74943 9.90091 6.7343C9.97561 6.809 10.0326 6.90139 10.0739 6.95447V6.95643Z" fill="white"/>
<path d="M11.5056 10.3002C11.3719 10.2295 11.2264 10.1823 11.1262 10.0879C11.0751 10.0408 11.0672 9.88152 11.1085 9.82058C11.1498 9.76161 11.3051 9.71443 11.364 9.74588C11.5193 9.83238 11.6019 9.7734 11.7041 9.66921C11.9813 9.38417 12.2624 9.10502 12.5455 8.82588C12.6359 8.73742 12.689 8.66665 12.6182 8.52314C12.5829 8.45237 12.634 8.28921 12.7008 8.23417C12.7499 8.19485 12.917 8.23614 12.9799 8.29708C13.1765 8.4799 13.1824 8.80425 12.9839 9.01656C12.6261 9.39596 12.2546 9.76357 11.8752 10.1213C11.7867 10.2059 11.6452 10.2354 11.5056 10.2983V10.3002Z" fill="white"/>
<path d="M11.3114 11.6689C11.3822 11.6965 11.4392 11.7043 11.4726 11.7358C11.6417 11.897 11.8206 12.0523 11.9641 12.2351C12.0093 12.2941 11.9975 12.4651 11.9444 12.5162C11.8894 12.5673 11.7223 12.5772 11.6613 12.53C11.4824 12.3924 11.3252 12.2253 11.1797 12.0542C11.1345 12.0012 11.1266 11.8852 11.1483 11.8144C11.1679 11.7535 11.2564 11.7161 11.3114 11.6689Z" fill="white"/>
<path d="M10.0877 11.3604C10.1585 11.3977 10.2175 11.4154 10.2568 11.4527C10.4101 11.5982 10.5595 11.7496 10.707 11.9029C10.8013 12.0012 10.8229 12.1349 10.7129 12.2076C10.6381 12.2568 10.473 12.2686 10.4081 12.2194C10.2293 12.0838 10.072 11.9147 9.92653 11.7417C9.88328 11.6906 9.88131 11.5727 9.90883 11.5039C9.93242 11.4449 10.0228 11.4095 10.0858 11.3623L10.0877 11.3604Z" fill="white"/>
</svg>
