<svg width="14" height="15" viewBox="0 0 14 15" fill="none" xmlns="http://www.w3.org/2000/svg">
<path d="M2.25688 14.0106C2.12441 13.9263 2.10018 13.8077 2.11347 13.6658C2.18498 12.8916 2.87625 12.2801 3.71054 12.2607C3.89576 12.2563 4.08098 12.26 4.27715 12.26C4.38813 11.8981 4.49754 11.5405 4.61282 11.1643C4.54444 11.1643 4.49285 11.1643 4.44127 11.1643C3.45458 11.1643 2.46829 11.1647 1.4816 11.1643C0.602369 11.164 0.00097692 10.6028 0.000586152 9.7819C-0.000195384 7.63875 -0.000195384 5.4956 0.000586152 3.35245C0.000586152 2.53153 0.601978 1.97185 1.48238 1.97075C1.60938 1.97075 1.73638 1.96783 1.86338 1.97185C2.01226 1.97659 2.11073 2.0678 2.10917 2.19185C2.10761 2.31554 2.00874 2.40383 1.85869 2.40748C1.69769 2.41149 1.5363 2.40529 1.37531 2.41004C0.885675 2.4239 0.474197 2.79532 0.472634 3.25175C0.466772 5.14425 0.470289 7.03638 0.470289 8.92888C0.470289 8.93763 0.473806 8.94639 0.479668 8.97594H0.64379C2.03571 8.97594 3.42762 8.97813 4.81954 8.97302C4.986 8.97229 5.10284 9.019 5.17826 9.15545C5.18061 9.15946 5.18334 9.16311 5.18608 9.16713C5.2994 9.32073 5.37912 9.53125 5.53542 9.61115C5.68626 9.6885 5.91642 9.63195 6.11141 9.63231C6.55103 9.63304 6.99064 9.62794 7.42987 9.63523C7.55999 9.63742 7.64713 9.61042 7.712 9.49768C7.78351 9.374 7.88277 9.26418 7.95936 9.14268C8.03751 9.019 8.14302 8.97302 8.29698 8.97339C9.6889 8.9774 11.0808 8.97558 12.4727 8.97558C12.5302 8.97558 12.588 8.97558 12.6607 8.97558C12.6607 8.91538 12.6607 8.86649 12.6607 8.81796C12.6607 6.99844 12.6607 5.17891 12.6607 3.35975C12.6607 2.76759 12.2738 2.40858 11.6365 2.40821C11.5146 2.40821 11.3923 2.41077 11.2703 2.40712C11.1195 2.40274 11.0218 2.31481 11.021 2.19039C11.0202 2.06598 11.1183 1.97148 11.2676 1.97221C11.4966 1.97294 11.7291 1.96345 11.9538 1.99556C12.6263 2.09152 13.1249 2.62384 13.1269 3.25723C13.1327 5.46423 13.1335 7.67123 13.1269 9.87823C13.1245 10.5937 12.497 11.1589 11.7213 11.1629C10.7151 11.1683 9.70922 11.1643 8.70299 11.1643C8.64945 11.1643 8.59631 11.1643 8.51894 11.1643C8.63109 11.5332 8.73972 11.8889 8.85226 12.2589C9.01443 12.2589 9.17386 12.2585 9.3333 12.2589C10.2199 12.2622 10.8913 12.8091 11.0116 13.6245C11.0339 13.7756 11.0261 13.9146 10.8737 14.0102H2.25688V14.0106ZM0.469117 9.4134C0.469117 9.53782 0.469117 9.64618 0.469117 9.7549C0.469117 10.3744 0.848943 10.7269 1.51559 10.7269C4.20212 10.7269 6.88865 10.7269 9.57479 10.7269C10.2879 10.7269 11.0011 10.7287 11.7142 10.7261C12.1355 10.7247 12.5048 10.4901 12.606 10.1198C12.6669 9.89647 12.6576 9.65639 12.6783 9.43529C12.6365 9.41961 12.6318 9.41669 12.6275 9.41669C11.2207 9.41559 9.81433 9.41377 8.40757 9.41669C8.36536 9.41669 8.30988 9.45171 8.2833 9.48564C8.17233 9.62976 8.0676 9.77862 7.96522 9.92821C7.89879 10.0249 7.81282 10.072 7.6866 10.0712C6.93945 10.0687 6.19191 10.0687 5.44476 10.0712C5.31894 10.0716 5.2318 10.0271 5.16537 9.92967C5.07393 9.79504 4.97076 9.66698 4.88479 9.52943C4.82891 9.44004 4.76287 9.41012 4.65072 9.41048C3.52258 9.41486 2.39404 9.41304 1.26589 9.41304H0.469117V9.4134ZM2.6156 13.5647H10.5201C10.5158 13.5384 10.515 13.5206 10.5099 13.5034C10.3677 13.0207 9.91046 12.6982 9.35635 12.6975C8.05744 12.6956 6.75853 12.6967 5.45961 12.6967C4.88323 12.6967 4.30724 12.6927 3.73086 12.6982C3.18378 12.7037 2.70118 13.0809 2.616 13.5643L2.6156 13.5647ZM5.09972 11.168C4.98796 11.5347 4.87971 11.8904 4.76913 12.2542H8.36263C8.24931 11.8853 8.13911 11.5252 8.0293 11.168H5.09972Z" fill="white"/>
<path d="M6.65033 0.000364854C6.95708 0.165644 7.26266 0.333476 7.57137 0.496201C8.48889 0.979632 9.40641 1.46379 10.3278 1.94139C10.4888 2.02494 10.5529 2.1271 10.5521 2.3004C10.5455 3.54528 10.5463 4.79016 10.5518 6.03504C10.5525 6.1985 10.4877 6.29409 10.338 6.37217C9.14538 6.99388 7.95471 7.61887 6.76599 8.24715C6.62336 8.32268 6.5073 8.3256 6.35999 8.24715C5.17244 7.61668 3.98138 6.99242 2.78876 6.37107C2.63948 6.29336 2.57344 6.19886 2.57423 6.03504C2.58009 4.78542 2.5797 3.53616 2.57423 2.28654C2.57344 2.12418 2.63519 2.02749 2.78602 1.94905C3.98333 1.32588 5.17713 0.69687 6.37171 0.0689573C6.40844 0.0496201 6.44087 0.0233506 6.47526 0C6.53388 0 6.59249 0 6.65111 0L6.65033 0.000364854ZM10.0793 4.16553C10.0793 3.59125 10.0777 3.01661 10.0813 2.44233C10.0817 2.35659 10.0617 2.30405 9.9742 2.25844C8.87145 1.68343 7.77105 1.10478 6.67143 0.524295C6.59445 0.483796 6.53622 0.481607 6.45807 0.522835C5.35454 1.10587 4.24945 1.68635 3.14318 2.26465C3.06894 2.30369 3.04354 2.34601 3.04354 2.42372C3.04627 3.58177 3.04627 4.73945 3.04354 5.89749C3.04354 5.97703 3.07285 6.01753 3.14553 6.05548C4.25179 6.63413 5.35688 7.21462 6.46002 7.79765C6.53896 7.83961 6.59679 7.83414 6.67338 7.794C7.7687 7.21571 8.8652 6.63961 9.96326 6.06642C10.0516 6.02045 10.0828 5.96937 10.082 5.87524C10.077 5.30534 10.0797 4.73544 10.0797 4.1659L10.0793 4.16553Z" fill="white"/>
<path d="M11.7245 5.80247C11.7245 6.10785 11.7206 6.41323 11.7265 6.71862C11.7288 6.84559 11.6819 6.93424 11.5678 7.00393C11.1317 7.27137 10.6991 7.54391 10.2638 7.81281C10.1153 7.90476 9.96254 7.88907 9.88751 7.78034C9.8078 7.66468 9.84805 7.54683 10.0047 7.44869C10.39 7.20825 10.7742 6.96635 11.163 6.73066C11.24 6.68396 11.2579 6.63105 11.2575 6.55151C11.2544 5.9911 11.2532 5.43032 11.2591 4.8699C11.2599 4.79876 11.2853 4.70389 11.3377 4.66376C11.3935 4.62071 11.5151 4.5959 11.5717 4.62472C11.6421 4.66084 11.714 4.75826 11.7179 4.83232C11.7335 5.15522 11.7245 5.47921 11.7249 5.80283L11.7245 5.80247Z" fill="white"/>
<path d="M1.87705 5.71975C1.87705 5.9974 1.88174 6.27542 1.87431 6.55308C1.87197 6.64283 1.90597 6.69099 1.98373 6.73806C2.36356 6.96901 2.74026 7.20434 3.115 7.44222C3.17284 7.47907 3.24904 7.53234 3.25763 7.58598C3.26936 7.65968 3.24982 7.76439 3.19785 7.81401C3.10875 7.89866 2.9841 7.88552 2.87546 7.81802C2.53901 7.6086 2.20022 7.40173 1.86611 7.18865C1.31942 6.83985 1.41516 7.00695 1.4093 6.38634C1.40422 5.87627 1.40735 5.36621 1.40891 4.85614C1.4093 4.69196 1.51207 4.58943 1.65861 4.59928C1.78991 4.60804 1.8751 4.70035 1.87627 4.8452C1.87861 5.13671 1.87705 5.42823 1.87705 5.71939V5.71975Z" fill="white"/>
<path d="M7.43369 5.78785C7.6916 5.65066 7.94521 5.51676 8.19764 5.3814C8.35356 5.29749 8.56731 5.24349 8.64664 5.11688C8.72596 4.98991 8.67125 4.78961 8.67321 4.62141C8.67477 4.47547 8.67125 4.32953 8.67438 4.18395C8.67751 4.03546 8.77403 3.94023 8.91197 3.94242C9.04444 3.94461 9.13978 4.03692 9.14135 4.17775C9.14447 4.52874 9.14135 4.87973 9.1433 5.23072C9.14408 5.35185 9.07257 5.42044 8.96746 5.47626C8.50908 5.71889 8.0515 5.96225 7.59742 6.21108C7.54233 6.24136 7.48879 6.30156 7.47042 6.35775C7.33522 6.77113 6.93429 7.03784 6.48569 7.00354C6.04568 6.96961 5.68501 6.6427 5.63147 6.22896C5.57989 5.8309 5.84131 5.4427 6.25201 5.30661C6.68146 5.16468 7.1371 5.32193 7.37703 5.69481C7.39422 5.72181 7.41103 5.74918 7.43486 5.78821L7.43369 5.78785ZM7.03159 6.13665C7.0355 5.89913 6.828 5.69773 6.574 5.69262C6.31883 5.68751 6.10235 5.87906 6.09492 6.11622C6.0875 6.35958 6.29968 6.56572 6.55954 6.56718C6.81354 6.569 7.02807 6.37344 7.03159 6.13629V6.13665Z" fill="white"/>
<path d="M5.69603 2.53099C5.29236 2.74662 4.90238 2.9524 4.5163 3.16511C4.4823 3.18371 4.45885 3.24501 4.45807 3.28697C4.45299 3.56024 4.45612 3.83388 4.45495 4.10752C4.45417 4.27864 4.36468 4.3797 4.21892 4.37824C4.07317 4.37715 3.98759 4.27718 3.98681 4.10387C3.98603 3.78025 3.99111 3.45662 3.98446 3.133C3.98173 2.9918 4.04308 2.90569 4.17242 2.8382C4.62806 2.60068 5.08057 2.35805 5.53073 2.11177C5.58583 2.08149 5.64015 2.02165 5.65851 1.9651C5.79255 1.55136 6.19074 1.28465 6.64129 1.31712C7.08091 1.34886 7.4412 1.67358 7.49786 2.08915C7.55178 2.48465 7.28958 2.87651 6.88005 3.01296C6.45099 3.15598 5.9934 2.99946 5.75386 2.62768C5.73627 2.60068 5.72064 2.57258 5.69564 2.53135L5.69603 2.53099ZM6.56431 1.75239C6.30953 1.75276 6.09852 1.94941 6.09695 2.1873C6.09578 2.42518 6.30484 2.62403 6.55923 2.62731C6.81909 2.63023 7.03636 2.4281 7.03402 2.18547C7.03167 1.94795 6.81909 1.75203 6.56431 1.75239Z" fill="white"/>
<path d="M9.14594 3.27882C9.14907 3.39703 9.04512 3.49882 8.91852 3.50211C8.79152 3.50502 8.68288 3.40834 8.67976 3.2894C8.67663 3.17045 8.77979 3.06939 8.90718 3.06647C9.03418 3.06355 9.14282 3.16024 9.14594 3.27882Z" fill="white"/>
<path d="M4.45099 5.03122C4.45334 5.14944 4.34861 5.25087 4.22161 5.25305C4.095 5.25524 3.98676 5.15783 3.98441 5.03889C3.98207 4.91994 4.08601 4.81961 4.2134 4.81742C4.3404 4.81523 4.44826 4.91265 4.4506 5.03122H4.45099Z" fill="white"/>
</svg>
