<svg width="12" height="15" viewBox="0 0 12 15" fill="none" xmlns="http://www.w3.org/2000/svg">
<path d="M1.46265 0C1.28345 0.0812452 1.23524 0.22702 1.23563 0.413612C1.23835 2.74173 1.23641 5.06947 1.24069 7.39759C1.24069 7.5216 1.20104 7.58885 1.09763 7.64949C0.813468 7.81626 0.538244 7.99818 0.254858 8.16573C0.0830374 8.26719 0.000238419 8.40402 0.00568104 8.60577C0.0130663 8.89188 0.00645828 9.17799 0.00801277 9.4641C0.00879097 9.63358 0.0915909 9.73155 0.227647 9.73077C0.363704 9.72999 0.443006 9.63242 0.443783 9.46138C0.444949 9.19937 0.439506 8.93736 0.448058 8.67575C0.450002 8.62055 0.485766 8.54397 0.530471 8.51598C1.43777 7.94726 2.34819 7.38282 3.26132 6.82343C3.30564 6.79622 3.39543 6.79544 3.43936 6.82227C4.35288 7.38165 5.2633 7.94532 6.17099 8.51364C6.21647 8.54202 6.25807 8.61744 6.25845 8.67147C6.2639 9.43766 6.26973 10.2042 6.25962 10.9704C6.25107 11.613 6.01083 12.1658 5.52608 12.5903C4.82209 13.2068 4.10332 13.807 3.39077 14.4138C3.38027 14.4228 3.36628 14.4278 3.34373 14.4403C3.03197 14.1752 2.71865 13.9085 2.40572 13.6422C2.02904 13.3215 1.65352 12.9996 1.27567 12.6801C0.719394 12.2097 0.439118 11.613 0.444172 10.8838C0.444949 10.7675 0.448059 10.6509 0.442616 10.5347C0.436397 10.4068 0.348542 10.3228 0.230757 10.3205C0.11297 10.3181 0.0177317 10.4006 0.0103455 10.5261C-0.0363026 11.2954 0.0958672 12.0173 0.61055 12.6233C0.766432 12.8068 0.949525 12.9697 1.13262 13.1275C1.76431 13.6725 2.40067 14.2113 3.03625 14.7516C3.27726 14.9565 3.43159 14.9538 3.6761 14.7454C4.01935 14.4527 4.36455 14.1627 4.7043 13.8661C4.79371 13.7884 4.88273 13.7538 5.00323 13.7542C6.31288 13.7584 7.62252 13.7569 8.93255 13.7561C8.99514 13.7561 9.06005 13.7561 9.11992 13.7409C9.22838 13.7137 9.27969 13.6333 9.27347 13.524C9.26725 13.414 9.20661 13.3433 9.09504 13.3269C9.04256 13.3192 8.98853 13.3207 8.93527 13.3207C7.80989 13.3207 6.68451 13.3207 5.55912 13.3207H5.40169C5.39585 13.3114 5.38964 13.3021 5.3838 13.2927C5.43551 13.248 5.48565 13.2014 5.53891 13.1594C5.98595 12.8088 6.34942 12.3951 6.53834 11.8482C6.56361 11.7751 6.59976 11.702 6.60676 11.6266C6.62036 11.4746 6.702 11.4513 6.83767 11.4517C7.8612 11.4571 8.88474 11.4548 9.90827 11.454C9.97124 11.454 10.0354 11.4548 10.0964 11.442C10.213 11.4175 10.2682 11.3362 10.2616 11.22C10.2554 11.1096 10.1928 11.0404 10.082 11.0241C10.0296 11.0163 9.97552 11.0183 9.92226 11.0183C8.90845 11.0183 7.89463 11.0183 6.88082 11.0183H6.70705V10.4359H6.88509C7.89891 10.4359 8.91272 10.4359 9.92654 10.4359C10.1633 10.4359 10.2655 10.3671 10.2632 10.212C10.2609 10.062 10.1644 9.99977 9.93315 9.99977C8.91933 9.99977 7.90552 9.99977 6.8917 9.99977H6.70938V9.41745C6.76381 9.41745 6.8194 9.41745 6.8746 9.41745C7.88841 9.41745 8.90223 9.41745 9.91604 9.41706C9.97863 9.41706 10.0435 9.41706 10.1038 9.40307C10.213 9.3778 10.2659 9.29966 10.262 9.18965C10.2581 9.07964 10.1994 9.00734 10.0886 8.98868C10.0366 8.97974 9.98252 8.98168 9.92926 8.98168C8.91545 8.98168 7.90163 8.98168 6.88781 8.98168H6.70083V8.39936C6.89948 8.39936 7.11095 8.39936 7.32281 8.39936C7.43904 8.39936 7.55605 8.40324 7.67189 8.39702C7.82388 8.38886 7.90902 8.30451 7.90629 8.17506C7.90396 8.04639 7.8165 7.96553 7.66295 7.96437C7.23106 7.96164 6.79957 7.95737 6.36769 7.96592C6.19587 7.96942 6.04893 7.93521 5.90548 7.83647C5.68818 7.6872 5.45805 7.55581 5.24075 7.38049C5.29595 7.38049 5.35076 7.38049 5.40596 7.38049C6.90492 7.38049 8.40387 7.38049 9.90283 7.3801C9.97047 7.3801 10.0401 7.38049 10.105 7.36572C10.2142 7.34084 10.2663 7.26115 10.262 7.15152C10.2577 7.04151 10.1983 6.97076 10.0875 6.95094C10.0498 6.94433 10.0101 6.94472 9.97163 6.94472C8.40465 6.94472 6.83806 6.94433 5.27107 6.94472C5.03472 6.94472 4.97486 7.00536 4.97719 7.25337C4.86679 7.1869 4.76416 7.12626 4.66309 7.06367C4.36221 6.87786 4.06017 6.6936 3.76318 6.50156C3.72042 6.47396 3.67921 6.40632 3.67921 6.35695C3.67454 5.07647 3.67571 3.79637 3.6761 2.51588C3.6761 2.49722 3.6796 2.47817 3.68232 2.44941H11.5549V13.3211C11.4974 13.3211 11.441 13.3211 11.3843 13.3211C10.9524 13.3211 10.5209 13.3196 10.089 13.3234C9.94714 13.325 9.86434 13.4117 9.86434 13.5372C9.86434 13.6609 9.94831 13.7433 10.0886 13.7561C10.1127 13.7584 10.1372 13.7573 10.1613 13.7573C10.6465 13.7573 11.1316 13.7573 11.6168 13.7573C11.6362 13.7573 11.6556 13.758 11.6751 13.7565C11.8819 13.7433 11.9934 13.6286 11.9997 13.4226C12.0004 13.3934 11.9997 13.3643 11.9997 13.3351C11.9997 9.69773 11.9997 6.05996 11.9997 2.42259C11.9997 2.08983 11.9114 2.00198 11.5767 2.00198C11.3932 2.00198 11.2097 2.00198 11.0029 2.00198C11.0029 1.80333 11.0029 1.61635 11.0029 1.42976C11.0029 1.09428 10.9061 0.998655 10.5695 0.997878C10.395 0.997878 10.2204 0.996323 10.0459 0.994768C10.0369 0.994768 10.028 0.98816 9.99962 0.976886C9.99962 0.792627 9.99068 0.599427 10.0023 0.407781C10.0136 0.222744 9.95025 0.0890199 9.78815 0.0011662H1.46343L1.46265 0ZM10.5594 2.00081C10.4848 2.00081 10.4272 2.00081 10.3697 2.00081C8.12865 2.00081 5.8876 2.00081 3.64656 2.00081C3.33129 2.00081 3.23839 2.09333 3.23839 2.40665C3.23839 3.6677 3.23839 4.92875 3.23722 6.18941C3.23722 6.23994 3.24072 6.31691 3.21195 6.33596C3.04557 6.44753 2.86987 6.54549 2.67783 6.66017V6.47474C2.67783 5.68406 2.67822 4.89376 2.67706 4.10308C2.67706 4.04088 2.67589 3.97557 2.65801 3.91649C2.62574 3.80958 2.54216 3.7641 2.43293 3.77499C2.32914 3.78548 2.26383 3.84574 2.24751 3.94914C2.23934 4.00123 2.24167 4.05565 2.24167 4.10891C2.24167 5.00611 2.24167 5.9033 2.24051 6.8005C2.24051 6.84753 2.24634 6.91945 2.22029 6.93772C2.04964 7.05667 1.87043 7.16435 1.68423 7.28214V0.448598H9.54986V0.996712C9.47406 0.996712 9.41108 0.996712 9.34811 0.996712C7.1265 0.996712 4.90489 0.996712 2.68328 0.996712C2.6203 0.996712 2.55655 0.995157 2.49474 1.00604C2.34663 1.03209 2.24673 1.1351 2.24556 1.28476C2.24051 1.84726 2.24167 2.40976 2.24401 2.97225C2.24478 3.09704 2.31864 3.16934 2.44304 3.18061C2.56199 3.1915 2.65373 3.11259 2.67317 2.98586C2.67978 2.9431 2.67744 2.89878 2.67744 2.85524C2.67744 2.43813 2.67744 2.02102 2.67744 1.60391C2.67744 1.55221 2.67744 1.50051 2.67744 1.44531H10.5594V2.00003V2.00081Z" fill="white"/>
<path d="M3.34491 12.2034C4.44852 12.2069 5.34727 11.3148 5.35155 10.2123C5.35582 9.11376 4.45591 8.20956 3.35657 8.20801C2.25412 8.20645 1.35304 9.10093 1.34954 10.201C1.34604 11.3008 2.24207 12.2003 3.3453 12.2038L3.34491 12.2034ZM3.35735 11.7665C2.49553 11.7711 1.78803 11.0703 1.78609 10.2096C1.78414 9.35711 2.48386 8.65078 3.33635 8.64456C4.19857 8.63795 4.90139 9.3295 4.91383 10.1964C4.92627 11.0512 4.22189 11.7618 3.35696 11.7665H3.35735Z" fill="white"/>
<path d="M7.60465 4.90547C6.83418 4.90547 6.06371 4.90547 5.29363 4.90547C5.24037 4.90547 5.18595 4.90391 5.13464 4.91519C5.03162 4.93773 4.96087 5.01354 4.97992 5.11111C4.99508 5.18847 5.05767 5.26816 5.12142 5.31986C5.16185 5.35251 5.24232 5.34085 5.3049 5.34085C6.84584 5.34163 8.38639 5.34163 9.92733 5.34163C9.95648 5.34163 9.98564 5.34279 10.0144 5.34085C10.1761 5.33113 10.2647 5.25027 10.2616 5.11616C10.2585 4.9836 10.1687 4.90625 10.0031 4.90625C9.20351 4.90469 8.40427 4.90547 7.60465 4.90547Z" fill="white"/>
<path d="M7.61622 5.92398C6.83603 5.92398 6.05585 5.9232 5.27605 5.92515C5.20996 5.92515 5.12483 5.92204 5.08246 5.95936C5.02842 6.00678 4.97672 6.09658 4.98372 6.16228C4.99072 6.22719 5.06147 6.29911 5.12289 6.33993C5.16876 6.37025 5.24456 6.35975 5.30715 6.36014C6.84808 6.36092 8.38863 6.36092 9.92957 6.36092C9.95367 6.36092 9.97816 6.3617 10.0023 6.36053C10.1737 6.35275 10.2662 6.27151 10.2616 6.13273C10.2573 6.00056 10.1675 5.92554 10.0003 5.92515C9.20575 5.92398 8.41118 5.92437 7.61661 5.92437L7.61622 5.92398Z" fill="white"/>
<path d="M7.60137 3.42203C7.16094 3.42203 6.72011 3.42203 6.27968 3.42203C6.23148 3.42203 6.18211 3.42086 6.13507 3.42902C6.02467 3.44846 5.96597 3.52077 5.96208 3.63039C5.9582 3.73962 6.01145 3.81776 6.11991 3.8438C6.1755 3.85702 6.23498 3.85741 6.2929 3.85741C7.17415 3.85819 8.05541 3.8578 8.93667 3.8578C8.97049 3.8578 9.0047 3.85896 9.03813 3.85624C9.18896 3.8438 9.27292 3.76139 9.26943 3.63155C9.26593 3.50288 9.17924 3.42397 9.02452 3.42319C8.54988 3.42086 8.07563 3.42242 7.60098 3.42203H7.60137Z" fill="white"/>
<path d="M9.20823 7.96055C8.95206 7.96055 8.69549 7.95899 8.43932 7.96094C8.26594 7.96249 8.17342 8.04141 8.17537 8.1798C8.17731 8.31158 8.26711 8.39438 8.43077 8.39515C8.95789 8.39826 9.4854 8.39865 10.0125 8.39515C10.1746 8.39399 10.2633 8.30769 10.2617 8.17396C10.2601 8.04063 10.1707 7.96288 10.0067 7.96133C9.7408 7.95899 9.47451 7.96055 9.20862 7.96055H9.20823Z" fill="white"/>
<path d="M3.43534 10.3766C3.20677 10.1464 2.99763 9.93226 2.78383 9.72195C2.67498 9.61466 2.55603 9.61039 2.46196 9.69941C2.37294 9.78376 2.36555 9.91282 2.4604 10.01C2.72707 10.2837 2.99724 10.5538 3.27091 10.8209C3.37276 10.9204 3.48666 10.915 3.59239 10.8127C3.76305 10.6479 3.93059 10.4804 4.09541 10.3101C4.1926 10.2098 4.19571 10.0881 4.11291 9.99912C4.02428 9.90349 3.89716 9.8996 3.79142 10.0018C3.67053 10.1192 3.55857 10.246 3.43534 10.3766Z" fill="white"/>
</svg>
