<svg
              width="91"
              height="91"
              viewBox="0 0 91 91"
              fill="none"
              xmlns="http://www.w3.org/2000/svg"
              className="w-12 sm:w-16"
            >
              <path
                d="M90.7344 45.3698C90.7344 70.4271 70.4219 90.7344 45.3698 90.7344C20.3125 90.7344 0 70.4271 0 45.3698C0 20.3125 20.3125 0 45.3698 0C70.4219 0 90.7344 20.3125 90.7344 45.3698Z"
                fill="#855944"
              />
              <path
                d="M87.0716 45.3695C87.0716 68.4007 68.3997 87.0726 45.3685 87.0726C22.332 87.0726 3.66016 68.4007 3.66016 45.3695C3.66016 22.333 22.332 3.66113 45.3685 3.66113C68.3997 3.66113 87.0716 22.333 87.0716 45.3695Z"
                stroke="#FCDACC"
                stroke-width="1.33333"
                stroke-miterlimit="10"
              />
              <path
                d="M55.7878 38.6354C55.8451 37.1615 54.5065 36.0781 53.4023 36.651C54.1784 37.2969 54.9753 37.9583 55.7878 38.6354ZM58.6055 39.5208C59.6732 39.4219 60.7201 39.3281 61.7669 39.2344C60.694 38.1562 59.4648 38.2656 58.6055 39.5208ZM62.5898 45.724C62.5951 43.1667 60.7669 41.6875 58.4023 42.099C59.7409 43.2656 61.0534 44.4115 62.3711 45.5625C62.4336 45.6146 62.5013 45.6562 62.5898 45.724ZM54.6003 40.8854C52.6003 39.1406 50.3867 39.4687 49.069 41.526C50.9023 41.3125 52.6992 41.1042 54.6003 40.8854ZM35.6576 25.974C35.6992 25.6406 35.7253 25.2344 35.8034 24.8437C35.8919 24.4271 35.9596 23.9896 36.1471 23.6198C36.3607 23.2031 36.2461 22.9427 35.9544 22.651C35.3346 22.0208 34.4857 21.8125 33.9596 22.2292C33.3815 22.6823 33.2565 23.3437 33.2565 24.0417C33.2565 24.1198 33.3555 24.2187 33.4336 24.276C34.168 24.8437 34.9128 25.4062 35.6576 25.974ZM40.5273 30.4062C41.9857 31.599 43.5221 32.8594 45.0951 34.151C45.4336 32.9635 45.4232 31.8073 45.0534 30.6562C45.0169 30.5521 44.8711 30.4167 44.7721 30.4167C43.3294 30.401 41.8815 30.4062 40.5273 30.4062ZM33.1419 38.2656C33.5898 36.276 34.0273 34.3229 34.4857 32.3021C33.3346 33.25 32.2253 34.1562 31.1419 35.0833C31.043 35.1667 31.0169 35.4375 31.069 35.5781C31.4857 36.6823 32.1888 37.5677 33.1419 38.2656ZM34.7357 27.6771C32.4701 24.4219 29.6471 24.7031 27.168 27.4896C29.7253 27 32.1992 26.9583 34.7357 27.6771ZM37.3086 26.8229C38.8971 24.651 40.8867 23.151 43.2357 21.9323C39.1263 21.4062 37.1211 23.0573 37.3086 26.8229ZM38.7826 28.6094C42.5221 28.7135 46.1003 28.8125 49.7826 28.9115C49.5065 28.6042 49.3294 28.3802 49.1263 28.1823C47.6732 26.7135 45.9596 25.8281 43.8398 26.0833C41.9284 26.3177 40.3555 27.2969 38.7826 28.6094ZM26.2461 37.0052C29.0898 34.6562 31.8607 32.3698 34.6315 30.0781C34.6159 30.0365 34.5951 29.9948 34.5794 29.9531C33.8398 30 33.1003 30.0052 32.3659 30.099C30.444 30.3437 28.7253 31.0052 27.5326 32.6354C26.6107 33.8906 26.2826 35.3437 26.2461 37.0052ZM27.3503 64.4427C28.3242 64.6615 29.3711 64.8333 30.3711 65.1354C31.569 65.5 32.7409 65.5625 33.9076 65.1042C35.6576 64.4271 37.3919 64.4167 39.1367 65.0937C40.3294 65.5573 41.5326 65.5677 42.7201 65.1094C44.4857 64.4219 46.2357 64.4219 48.0013 65.1094C49.168 65.5625 50.3607 65.5677 51.5273 65.1094C53.293 64.4271 55.0482 64.4167 56.8138 65.1042C57.9961 65.5677 59.2044 65.5521 60.3919 65.1042C61.3451 64.7396 62.3242 64.5312 63.3503 64.6042C63.4076 64.6042 63.4648 64.5677 63.543 64.5417C53.5898 56.2292 36.168 56.8229 27.3503 64.4427ZM18.1055 65.0312C18.8711 64.2812 19.7461 64.625 20.5898 64.8125C21.4128 64.9948 22.2253 65.2448 23.0534 65.4219C23.6055 65.5365 24.043 65.3437 24.4596 64.9062C27.6159 61.5677 31.543 59.5312 35.8919 58.2344C36.7565 57.9792 37.6367 57.7812 38.5742 57.5417C38.5273 49.4479 37.7721 41.4271 35.8815 33.4896C35.6367 34.5417 35.3607 35.5833 35.1523 36.6406C34.9648 37.5781 34.8451 38.526 34.7096 39.474C34.5794 40.3385 34.0742 40.6198 33.2826 40.2292C31.8242 39.5104 30.7096 38.4271 29.9388 36.9948C29.8294 36.7917 29.7253 36.5937 29.5951 36.3385C28.5326 37.2135 27.5169 38.0625 26.4857 38.8958C26.1263 39.1927 25.8034 39.6146 25.2357 39.401C24.6523 39.1875 24.6836 38.651 24.6523 38.1927C24.4648 35.1823 25.0169 32.401 27.4909 30.3854C28.293 29.7292 29.2826 29.3021 30.2148 28.7552C29.5117 28.8229 28.7773 28.8437 28.0638 28.9792C27.1628 29.151 26.2773 29.4062 25.3919 29.6458C24.9544 29.7656 24.543 29.8333 24.2357 29.4115C23.9284 28.9844 24.1211 28.6146 24.3815 28.2448C25.569 26.5781 26.9076 25.0573 28.8242 24.2344C29.6836 23.8646 30.6471 23.7552 31.6159 23.5104C31.9961 20.2396 35.1159 19.3594 37.3138 21.6823C40.0742 19.5469 43.0586 20.0365 46.0638 20.9635C46.3086 21.0417 46.5586 21.4062 46.6315 21.6823C46.7461 22.1042 46.418 22.3437 46.0534 22.5208C44.793 23.125 43.5378 23.7292 42.2878 24.3542C41.9596 24.5208 41.6784 24.7708 41.3711 24.9896C42.2044 24.8125 43.0117 24.5573 43.8346 24.4792C46.5169 24.2135 48.6628 25.3333 50.4492 27.2344C51.0013 27.8281 51.4753 28.5 51.9128 29.1823C52.069 29.4271 52.1263 29.8333 52.043 30.1094C51.9232 30.5052 51.5117 30.5833 51.1159 30.5677C49.819 30.5312 48.5221 30.4948 47.2305 30.4583H46.7461C46.7669 30.6562 46.7721 30.8229 46.8034 30.9844C47.1523 32.625 46.9284 34.1927 46.2409 35.7031C45.819 36.625 45.2826 36.7135 44.569 36.0052C43.0898 34.5469 41.543 33.1719 39.7096 31.8958C40.0065 32.7135 40.2669 33.3958 40.5013 34.0885C40.5742 34.2969 40.694 34.5885 40.6107 34.7396C40.4701 35.0052 40.2201 35.2969 39.9492 35.3906C39.5534 35.526 39.2357 35.2604 39.0846 34.8698C38.7982 34.125 38.5273 33.375 38.2357 32.6354C37.9909 32.0104 37.7253 31.3906 37.4596 30.7708C37.3971 30.6406 37.2982 30.526 37.2148 30.401C37.168 30.4115 37.1159 30.4219 37.0638 30.4323C37.0534 30.599 36.9961 30.776 37.0326 30.9375C37.6159 33.8333 38.2721 36.7135 38.7826 39.625C39.1628 41.7708 39.4336 43.9375 39.5951 46.1094C39.8607 49.6823 40.0013 53.2656 40.194 56.8385C40.1992 56.9635 40.2201 57.0833 40.2357 57.2552C41.3555 57.1406 42.4596 57.0312 43.6263 56.9167C43.5273 55.9948 43.4805 55.0833 43.3346 54.1823C42.7878 50.8437 42.2773 47.5 41.6263 44.1823C41.2096 42.0521 40.5742 39.9635 40.0378 37.8542C39.8711 37.2135 40.0378 36.7917 40.5273 36.6406C40.9909 36.4948 41.4023 36.7865 41.5898 37.4167C42.7669 41.4323 43.6784 45.5052 44.3034 49.6406C44.6523 51.9531 44.9284 54.276 45.2409 56.5937C45.2513 56.6823 45.2721 56.7656 45.293 56.8594C46.8711 56.9583 48.4336 57.0573 49.9857 57.1562C50.2253 55.5365 50.3971 53.9323 50.7044 52.3542C51.0273 50.6875 51.4648 49.0469 51.8763 47.3958C52.0221 46.7969 52.4388 46.5521 52.9232 46.7031C53.3763 46.849 53.5638 47.2604 53.4232 47.8333C53.0638 49.2917 52.6367 50.7396 52.3607 52.2187C52.0378 53.9219 51.8451 55.6458 51.5846 57.4375C52.2305 57.5781 52.8242 57.7083 53.4909 57.8542C53.8034 52.7135 54.2982 47.6667 55.7253 42.7552C55.6836 42.7396 55.6419 42.724 55.6003 42.7083C55.3086 43.2812 55.0169 43.8542 54.7305 44.4271C54.6211 44.6458 54.5221 44.8802 54.4023 45.0937C54.1628 45.5104 53.7617 45.6562 53.3659 45.4896C52.9648 45.3177 52.7721 44.8698 52.9544 44.4219C53.1211 43.9948 53.3451 43.5885 53.543 43.1719C53.6159 43.0156 53.6732 42.8542 53.7773 42.6146C52.5169 42.7604 51.3398 42.8958 50.1628 43.026C49.3034 43.125 48.4388 43.2396 47.5742 43.3125C46.7096 43.3854 46.319 42.7865 46.7253 42.0208C47.5898 40.4062 48.6992 39.0156 50.4961 38.3802C51.0638 38.1771 51.6836 38.1302 52.3971 37.9948C51.819 37.75 51.3086 37.5312 50.793 37.3229C50.418 37.1719 50.0794 37 50.0586 36.5208C50.0378 36.026 50.3503 35.8021 50.7565 35.6354C51.9492 35.1354 53.168 34.7917 54.4753 34.9844C55.9284 35.1927 56.9909 36.2031 57.293 37.6458C57.3346 37.8437 57.3815 38.0521 57.4232 38.2448C57.8919 37.901 58.3138 37.5052 58.8034 37.2448C60.2096 36.5052 61.5221 36.8594 62.6315 37.8437C63.3398 38.4687 63.9023 39.2656 64.5013 40.0052C64.7461 40.3021 64.7878 40.6615 64.5534 40.9948C64.3086 41.3385 63.9805 41.4062 63.569 41.2969C62.9753 41.1458 62.3711 41.0469 61.6263 40.8906C62.0846 41.2812 62.444 41.5365 62.7461 41.8437C63.8763 42.9896 64.194 44.4531 64.2982 45.9792C64.3294 46.4687 64.3034 46.9792 64.2096 47.4583C64.1523 47.7552 63.9701 48.1042 63.7357 48.2656C63.3971 48.4948 63.0273 48.2969 62.7305 48.0312C61.8763 47.276 61.0221 46.5365 60.168 45.7865C59.2982 45.026 58.4284 44.2656 57.5586 43.5104C57.4857 43.4427 57.3971 43.3854 57.2201 43.2604C56.8815 44.776 56.5169 46.2083 56.2461 47.6615C55.6107 51.0625 55.2982 54.5052 55.1107 57.9583C55.0898 58.3229 55.2878 58.3594 55.5273 58.4375C58.0742 59.2448 60.5117 60.3021 62.6784 61.8698C63.9961 62.8229 65.194 63.9427 66.4076 65.026C66.7253 65.3125 67.0326 65.5104 67.4388 65.4375C68.1628 65.3073 68.8815 65.1198 69.6055 64.9792C70.3294 64.8333 71.0586 64.6875 71.793 64.6146C72.2826 64.5625 72.6211 64.9219 72.6315 65.3698C72.6419 65.7969 72.3398 66.1042 71.8867 66.1927C71.043 66.3646 70.1888 66.5208 69.3607 66.7604C68.0638 67.1354 66.7773 67.1875 65.4961 66.7448C64.3086 66.3385 63.1211 65.9948 61.8607 66.3177C61.1263 66.5104 60.4128 66.7917 59.6732 66.9479C58.5742 67.1771 57.4753 67.099 56.4336 66.6719C54.9232 66.0625 53.4492 66.0729 51.9388 66.6667C50.5169 67.224 49.043 67.2292 47.6211 66.6771C46.1055 66.0833 44.6419 66.0729 43.1263 66.6615C41.6836 67.224 40.1992 67.224 38.7617 66.6615C37.2669 66.0781 35.8086 66.0781 34.3138 66.6615C32.8763 67.224 31.3919 67.224 29.9492 66.6615C28.4544 66.0781 27.0013 66.0729 25.5013 66.6562C24.0638 67.224 22.6003 67.1615 21.1315 66.6875C20.4128 66.4531 19.6471 66.3854 18.9232 66.1771C18.6263 66.0937 18.3763 65.8437 18.1055 65.6719V65.0312ZM58.6055 70.5625C57.8711 70.4062 57.1315 70.349 56.4701 70.0937C54.9336 69.4948 53.4492 69.4687 51.9232 70.0937C50.793 70.5573 49.6003 70.5677 48.418 70.3333C47.9023 70.2292 47.4023 70.026 46.9023 69.8594C45.8711 69.5208 44.8398 69.4896 43.8242 69.8698C42.4701 70.3698 41.1003 70.651 39.6628 70.3437C39.1315 70.224 38.6107 70.0365 38.0898 69.8646C37.0482 69.5208 36.0013 69.4948 34.9701 69.8802C33.6315 70.3802 32.2773 70.6458 30.8555 70.3437C30.4284 70.2552 30.0169 70.0729 29.5846 69.974C28.9857 69.8333 28.3815 69.7031 27.7721 69.6146C27.2409 69.5365 26.9232 69.2552 26.9388 68.776C26.9544 68.3021 27.2878 67.9583 27.8294 68.026C28.6471 68.1302 29.4805 68.2552 30.2565 68.5104C31.5221 68.9323 32.7461 68.9792 33.9961 68.4896C35.6836 67.8333 37.3815 67.8281 39.0742 68.4896C40.3346 68.9792 41.5898 68.9687 42.8503 68.4792C44.5273 67.8281 46.2096 67.8333 47.8815 68.4844C49.1419 68.974 50.3971 68.974 51.6628 68.4844C53.3503 67.8281 55.0482 67.8385 56.7409 68.4948C57.9805 68.9844 59.2096 68.9323 60.4753 68.5052C61.2513 68.2448 62.0846 68.1302 62.9023 68.026C63.4388 67.9635 63.7826 68.3125 63.793 68.7812C63.8086 69.2552 63.4805 69.526 62.9492 69.6146C62.2201 69.7396 61.5013 69.9271 60.7826 70.0885C60.0586 70.2448 59.3398 70.401 58.6055 70.5625Z"
                fill="#FCDACC"
              />
            </svg>