<svg width="91" height="91" viewBox="0 0 91 91" fill="none" xmlns="http://www.w3.org/2000/svg">
<path d="M90.7344 45.3698C90.7344 70.4271 70.4219 90.7344 45.3698 90.7344C20.3125 90.7344 0 70.4271 0 45.3698C0 20.3125 20.3125 0 45.3698 0C70.4219 0 90.7344 20.3125 90.7344 45.3698Z" fill="#88BCE5"/>
<path d="M87.0755 45.3695C87.0755 68.4007 68.4036 87.0726 45.3724 87.0726C22.3359 87.0726 3.66406 68.4007 3.66406 45.3695C3.66406 22.333 22.3359 3.66113 45.3724 3.66113C68.4036 3.66113 87.0755 22.333 87.0755 45.3695Z" stroke="#E2F6FD" stroke-width="1.33333" stroke-miterlimit="10"/>
<path d="M68.6068 31.3233C68.0755 32.1045 67.8828 32.9379 67.888 33.8129C67.888 33.9379 68.0547 34.1514 68.1745 34.1722C68.4557 34.2295 68.7682 34.2243 69.0495 34.1722C69.1693 34.1462 69.3464 33.9326 69.3411 33.8129C69.3203 32.9379 69.1484 32.1045 68.6068 31.3233ZM27.1641 29.3441C27.0859 29.3285 27.0078 29.3128 26.9349 29.2972C26.7474 30.0056 26.5443 30.7087 26.4036 31.4222C26.362 31.6358 26.4922 32.0576 26.6016 32.0785C26.9557 32.1462 27.3411 32.0889 27.7109 32.042C27.7734 32.0368 27.8568 31.8441 27.8516 31.7399C27.8203 30.8806 27.6276 30.0733 27.1641 29.3441ZM31.8203 28.9222C31.3151 29.7399 31.0703 30.5368 31.1068 31.3962C31.112 31.542 31.3464 31.7295 31.513 31.7972C31.6953 31.8649 31.9505 31.8754 32.1224 31.7972C32.2995 31.7191 32.5391 31.5108 32.5443 31.3597C32.5599 30.516 32.3255 29.7295 31.8203 28.9222ZM38.8203 31.9066C38.6328 32.0576 38.5547 32.0993 38.5078 32.167C37.6224 33.4118 37.237 34.8076 37.2839 36.3181C37.2995 36.8858 37.6589 37.1514 38.2109 37.1514C38.638 37.1566 39.0703 37.167 39.5026 37.1254C39.9089 37.0837 40.1432 36.8389 40.1849 36.4118C40.3047 35.2347 39.9974 34.141 39.5339 33.0889C39.3568 32.6878 39.0807 32.3337 38.8203 31.9066ZM18.6797 64.6722C19.2161 63.9274 19.9974 63.5264 20.8411 63.3181C22.9245 62.792 25.0078 62.2347 27.1224 61.8806C31.0911 61.2191 35.0859 60.7243 39.0651 60.1045C42.9036 59.5056 46.7422 58.891 50.5651 58.1826C52.6901 57.792 54.7943 57.2295 56.7161 56.1566C56.8828 56.0681 57.0495 55.9691 57.1953 55.8545C58.0911 55.1566 58.0443 54.3389 56.987 53.9066C56.0807 53.5368 55.1172 53.2191 54.1484 53.1045C51.4089 52.792 48.6536 52.5785 45.9036 52.3545C43.1536 52.1358 40.3828 52.0472 37.7005 51.3076C37.0391 51.1254 36.3776 50.8806 35.763 50.5681C33.9766 49.6462 33.487 48.042 34.3776 46.2295C35.0286 44.8858 36.1016 43.9274 37.3047 43.1097C39.9297 41.3389 42.8672 40.2816 45.9141 39.542C48.2526 38.9743 50.6224 38.5368 52.9141 38.0576C49.3255 36.8701 45.5547 36.0472 41.6536 35.542C41.638 35.7972 41.6276 36.0316 41.612 36.266C41.5234 37.5056 40.9714 38.1826 39.7786 38.4691C39.4974 38.5368 39.4245 38.667 39.4349 38.9378C39.4453 39.5628 39.4453 40.1878 39.4349 40.8128C39.4245 41.3233 39.1589 41.6201 38.7318 41.6045C38.2526 41.5837 38.0703 41.2816 38.0651 40.8441C38.0599 40.1983 38.0807 39.5524 38.0495 38.9118C38.0391 38.7608 37.862 38.516 37.7318 38.4951C36.6328 38.3285 35.862 37.4378 35.888 36.0889C35.8932 35.7764 35.888 35.4691 35.888 35.1097C35.763 35.0889 35.6328 35.0576 35.5026 35.0524C31.8464 34.9639 28.2057 35.1566 24.5911 35.7347C23.1016 35.9743 21.6224 36.2712 20.138 36.542C19.6536 36.6358 19.2839 36.4378 19.2057 36.042C19.1224 35.6201 19.3411 35.2868 19.8464 35.1931C21.7266 34.8493 23.6068 34.5316 25.487 34.2087C25.7734 34.1566 26.0651 34.1201 26.388 34.0733C26.3932 33.891 26.4036 33.7243 26.4089 33.5629C25.0807 33.0368 24.7005 32.3181 25.1328 30.5472C25.3151 29.8076 25.638 29.0681 26.0599 28.4326C26.6068 27.5941 27.5286 27.6097 28.1536 28.4014C29.0078 29.4847 29.3203 30.7608 29.1849 32.1201C29.1276 32.7191 28.763 33.167 28.1536 33.3806C27.9974 33.4378 27.8828 33.6149 27.7422 33.7399L27.8359 33.917C28.9036 33.8493 29.9714 33.7816 31.0495 33.7139C31.1432 33.4222 31.2005 33.1722 30.8464 33.0629C30.0703 32.8285 29.7318 32.2608 29.7109 31.4951C29.6849 30.2712 29.9818 29.1201 30.7266 28.1254C31.362 27.2816 32.2786 27.2712 32.9036 28.1149C33.7161 29.2035 34.0391 30.4483 33.8984 31.7972C33.8307 32.3858 33.4766 32.8128 32.9089 33.0368C32.5182 33.1878 32.5234 33.1931 32.5859 33.6879C33.7214 33.6879 34.8672 33.6983 36.013 33.6722C36.1328 33.667 36.2943 33.4691 36.3724 33.3285C36.7109 32.6878 36.9505 31.9795 37.3724 31.4066C38.1589 30.3233 39.3151 30.3128 40.1068 31.391C40.5651 32.0212 40.8776 32.7816 41.1484 33.5212C41.3099 33.9587 41.5078 34.1462 41.9609 34.1983C44.9297 34.5368 47.8516 35.1306 50.7266 35.9587C52.5391 36.4795 54.3047 37.1618 56.1224 37.6722C57.4036 38.0264 58.737 38.1878 60.0339 38.4899C60.888 38.6931 61.6432 38.5316 62.4297 38.1774C64.0339 37.4535 65.7318 37.016 67.4609 36.7035C67.6276 36.6722 67.9089 36.4743 67.9036 36.3701C67.8776 36.042 68.1745 35.5941 67.5807 35.4274C66.8776 35.2243 66.5286 34.667 66.4974 33.9795C66.4401 32.7139 66.7422 31.5264 67.5182 30.5056C68.1641 29.6514 69.0443 29.6462 69.6953 30.4951C70.4818 31.5316 70.7786 32.7399 70.7161 34.0212C70.6901 34.5837 70.4349 35.1306 69.8828 35.3076C69.2474 35.5108 69.2057 35.891 69.3255 36.417C69.8776 36.417 70.4453 36.4118 71.0078 36.4222C71.2161 36.4222 71.4661 36.3962 71.612 36.5004C71.8151 36.641 72.0703 36.9014 72.0599 37.0993C72.0495 37.3285 71.7995 37.5681 71.6068 37.7556C71.513 37.8441 71.3047 37.8285 71.1536 37.8285C66.4557 37.766 62.2786 39.3545 58.3776 41.8337C58.0443 42.0472 57.7109 42.2712 57.3724 42.4795C57.0026 42.7087 56.6536 42.6462 56.4089 42.3024C56.1536 41.9483 56.2682 41.6045 56.5964 41.3493C56.8099 41.1774 57.0495 41.0316 57.2474 40.7868C56.0391 40.9899 54.8255 41.1722 53.6172 41.4066C50.5703 42.0056 47.5443 42.6931 44.6432 43.8285C43.4453 44.3024 42.2786 44.8389 41.3307 45.7504C41.2526 45.8181 41.1953 45.9066 40.9974 46.1358C42.0391 46.1462 42.9401 46.1983 43.8411 46.1618C48.0286 46.0056 52.2109 45.7556 56.3984 45.6618C59.3203 45.5993 62.2266 45.9014 65.0286 46.8337C67.0234 47.4951 68.737 48.5576 69.9401 50.3337C71.8724 53.1722 71.7214 56.0368 70.0234 58.9014C68.638 61.2399 66.6745 63.0629 64.5964 64.7608C63.3724 65.766 62.1016 66.7087 60.8828 67.7139C60.4349 68.0837 60.0495 68.5368 59.6641 68.9743C59.3932 69.2816 59.0859 69.3806 58.737 69.1826C58.3516 68.9639 58.2995 68.5629 58.4974 68.2295C58.737 67.8389 59.0443 67.4587 59.3984 67.167C60.7786 66.0264 62.2005 64.9379 63.5859 63.8024C65.5286 62.2139 67.388 60.5368 68.7266 58.3806C69.9141 56.4743 70.4141 54.4483 69.4609 52.2868C68.6693 50.4847 67.3047 49.2504 65.4974 48.4951C63.3828 47.6149 61.1589 47.292 58.8984 47.141C54.1641 46.8181 49.4505 47.2764 44.7266 47.5056C43.3828 47.5733 42.013 47.5212 40.6849 47.3233C39.487 47.141 39.2161 46.1306 39.9818 45.1826C40.8672 44.0785 42.0859 43.4431 43.3464 42.8753C45.9036 41.7295 48.6172 41.0524 51.3464 40.4743C53.0599 40.1149 54.7943 39.8337 56.513 39.516C56.5703 39.5056 56.6224 39.4639 56.6641 39.3389C56.4349 39.3285 56.2005 39.2816 55.9766 39.3128C53.6068 39.6201 51.2214 39.8597 48.8672 40.2764C45.8151 40.8181 42.862 41.7191 40.0703 43.0837C38.5964 43.8024 37.1849 44.641 36.1797 45.9847C35.8359 46.4431 35.5651 46.9951 35.388 47.542C35.1901 48.1358 35.4349 48.6618 35.9401 49.0524C36.7734 49.7035 37.7682 50.016 38.7734 50.1462C41.388 50.4899 44.013 50.7556 46.638 51.0004C49.612 51.2764 52.6172 51.266 55.5391 51.9535C56.3099 52.1358 57.0859 52.391 57.7786 52.766C59.612 53.7556 59.6953 55.7035 58.013 56.9379C56.7318 57.8806 55.2526 58.391 53.7474 58.8129C50.3359 59.7764 46.8464 60.3701 43.3464 60.8962C39.763 61.4326 36.1641 61.8962 32.5807 62.4587C29.3411 62.9691 26.112 63.5368 22.8932 64.1462C21.7786 64.3597 20.6641 64.6826 19.7474 65.4431C19.3203 65.8024 18.987 65.4951 18.6797 65.1931V64.6722Z" fill="#E2F6FD"/>
<path d="M25.1391 51.4165V51.0207C25.0714 49.0779 25.4881 47.2082 26.311 45.4738C26.7381 44.5727 26.5922 43.9165 26.0922 43.1977C26.0245 43.104 25.9568 42.9998 25.8891 42.8957C25.1495 41.7967 24.6027 41.7915 23.8631 42.8748C23.0454 44.0675 22.5662 45.4113 22.3266 46.8175C22.1599 47.8175 22.1183 48.8436 22.1339 49.8592C22.1495 50.4842 22.5818 50.9582 23.2172 51.1092C23.8214 51.255 24.4412 51.3071 25.1391 51.4165ZM29.311 53.0363V52.9842C29.587 52.9842 29.8683 53.005 30.1443 52.9842C31.5089 52.88 32.1235 52.255 32.1547 50.8957C32.1912 49.1144 31.7641 47.4217 31.0245 45.8175C30.7224 45.1665 30.2849 44.5727 29.8474 43.9998C29.5558 43.6144 29.1599 43.6456 28.8162 43.9998C28.686 44.1352 28.5297 44.2602 28.4256 44.4165C27.1027 46.4321 26.5037 48.6665 26.5193 51.0571C26.5245 52.1665 27.0402 52.6977 28.1235 52.9061C28.5089 52.9842 28.9152 52.9946 29.311 53.0363ZM25.5558 52.7654V56.4529C25.5558 56.6092 25.561 56.7654 25.5558 56.9217C25.5349 57.3592 25.2849 57.6196 24.8683 57.6196C24.4568 57.6196 24.1964 57.3592 24.1912 56.9165C24.186 55.7186 24.1704 54.5207 24.1912 53.3175C24.2016 52.8904 24.1287 52.6977 23.6235 52.6404C21.8214 52.4477 20.6808 51.1561 20.6652 49.3384C20.6339 46.8904 21.2745 44.5988 22.4724 42.4738C22.7433 41.9894 23.1443 41.5415 23.5714 41.1769C24.3943 40.4634 25.4099 40.479 26.2224 41.2082C26.6287 41.5727 26.9412 42.0467 27.2745 42.4894C27.4204 42.6769 27.5193 42.8956 27.6287 43.0832C27.6964 43.0779 27.7172 43.0779 27.7277 43.0727C29.2277 41.9738 30.3318 42.1352 31.4204 43.6717C32.5141 45.2186 33.0662 46.9946 33.3631 48.8384C33.4985 49.6873 33.5662 50.5727 33.4829 51.4217C33.311 53.13 32.2381 54.1457 30.5402 54.3227C30.1339 54.3644 30.0193 54.4998 30.0297 54.8957C30.0558 56.0571 30.0402 57.2238 30.0349 58.3904C30.0349 58.9634 29.7641 59.3123 29.337 59.3123C28.9047 59.3071 28.6547 58.9894 28.6495 58.3852C28.6391 57.2029 28.6339 56.0207 28.6495 54.8384C28.6547 54.4894 28.5506 54.354 28.186 54.3279C27.1339 54.2342 26.2537 53.8019 25.5558 52.7654ZM58.0193 65.6665C56.6183 65.6665 55.2224 65.2238 54.6756 64.9477C52.9204 64.0571 50.6808 64.3748 48.712 64.6509C48.4777 64.6821 48.2537 64.7186 48.0297 64.7446C46.5714 64.9425 45.6495 64.6769 44.6704 64.3957C44.0974 64.229 43.5037 64.0623 42.7485 63.9738C40.8422 63.7446 39.1964 64.5884 39.1808 64.5988C38.9516 64.7134 38.6704 64.6248 38.5506 64.3957C38.436 64.1717 38.5245 63.8904 38.7485 63.7707C38.8266 63.729 40.6599 62.7863 42.8579 63.0467C43.6912 63.1456 44.3527 63.3332 44.9308 63.4998C45.8474 63.7654 46.6391 63.9946 47.9099 63.8227C48.1287 63.7915 48.3527 63.7602 48.5818 63.729C50.686 63.4321 53.0766 63.0936 55.0974 64.1144C55.6183 64.38 57.5245 64.9894 59.0245 64.6248C59.2745 64.5675 59.5297 64.7238 59.587 64.9738C59.6495 65.2238 59.4933 65.4738 59.2433 65.5311C58.8527 65.63 58.4308 65.6665 58.0193 65.6665ZM67.5037 58.4634C67.2745 58.4634 65.8839 58.3227 64.7381 57.6665C63.8318 57.1404 62.7693 57.4113 61.8474 57.7082C61.686 57.7602 61.5349 57.8123 61.3839 57.8644C60.587 58.1352 59.837 58.3957 58.9516 58.0154C58.7172 57.9165 58.6027 57.6404 58.7068 57.4061C58.8058 57.1665 59.0818 57.0571 59.3162 57.1613C59.8474 57.3852 60.2849 57.255 61.0818 56.979C61.2329 56.9269 61.3943 56.8748 61.5662 56.8175C62.7589 56.4373 64.0245 56.1769 65.2068 56.8592C66.1339 57.3957 67.3266 57.5311 67.5037 57.5311C67.7641 57.5363 67.9725 57.7446 67.9672 57.9998C67.9672 58.255 67.7589 58.4634 67.5037 58.4634ZM57.7954 61.8748C56.9256 61.8748 56.0974 61.5519 55.2902 61.2394C54.9412 61.104 54.5766 60.9582 54.2224 60.854C53.2954 60.5675 53.1131 60.6404 52.6287 60.8332C52.436 60.9113 52.1964 61.005 51.8735 61.0988C51.6287 61.1717 51.3683 61.0259 51.2954 60.7811C51.2277 60.5311 51.3683 60.2759 51.6183 60.2029C51.8943 60.1248 52.0974 60.0415 52.2797 59.9686C52.9204 59.7134 53.3058 59.5988 54.4933 59.9582C54.8839 60.0779 55.2641 60.2238 55.6287 60.3696C56.6443 60.7602 57.5974 61.1352 58.5402 60.8227C59.9777 60.3384 61.6183 59.8696 62.7902 60.3748C63.0245 60.4738 63.1339 60.7498 63.0349 60.9842C62.9308 61.2238 62.6547 61.3332 62.4204 61.229C61.5922 60.8748 60.2068 61.2446 58.8318 61.7082C58.4777 61.8227 58.1339 61.8748 57.7954 61.8748Z" fill="#E2F6FD"/>
</svg>
