<svg width="203" height="192" viewBox="0 0 203 192" fill="none" xmlns="http://www.w3.org/2000/svg">
<path d="M0.00046875 121.034C0.960469 117.904 1.61047 114.644 2.94047 111.684C5.39047 106.224 9.62047 102.324 14.7905 99.3643C25.1905 93.4143 35.5605 87.4143 45.9105 81.3943C46.8505 80.8543 47.7305 80.0843 48.4005 79.2343C65.1905 57.9043 81.9705 36.5843 98.6705 15.1843C101.83 11.1343 105.58 8.72426 110.83 9.49426C114.8 10.0743 117.67 12.3343 119.66 15.7943C124.02 23.3843 128.45 30.9343 132.73 38.5743C133.57 40.0843 134.49 40.5343 136.14 40.3943C140.21 40.0443 144.29 39.8943 148.37 39.5943C150.61 39.4243 152.12 40.3443 153.21 42.2643C155.54 46.3943 157.91 50.4943 160.32 54.5743C161.47 56.5043 161.36 58.2543 160.11 60.0943C157.81 63.4643 155.66 66.9443 153.31 70.2843C152.4 71.5743 152.32 72.5343 153.16 73.9343C157.26 80.8443 161.31 87.7743 165.22 94.7943C169.43 102.364 165.12 111.054 156.61 112.544C151.49 113.444 146.4 114.484 141.29 115.484C121.53 119.344 101.77 123.214 82.0105 127.084C81.4305 127.194 80.8605 127.364 80.0105 127.574C81.4605 130.104 82.8505 132.544 84.2505 134.974C86.4305 138.764 85.9705 140.474 82.1705 142.674C79.2805 144.344 76.3905 146.024 73.3805 147.764C77.2405 154.454 81.0205 161.004 84.8005 167.554C87.5305 172.274 88.2405 177.204 86.0505 182.304C83.7405 187.674 79.5805 190.954 73.8305 191.764C67.9305 192.604 62.9305 190.604 59.1505 185.894C58.3305 184.874 57.6305 183.744 56.9805 182.604C51.0105 172.294 45.0605 161.974 39.1005 151.654C38.7405 151.034 38.3605 150.424 38.0905 149.974C34.9805 150.504 32.0305 151.334 29.0505 151.454C14.5705 152.064 2.91047 142.534 0.350469 128.244C0.300469 127.944 0.110469 127.664 -0.0195312 127.374C-0.0195312 125.264 -0.0195312 123.154 -0.0195312 121.044L0.00046875 121.034ZM99.0605 27.5743C98.7405 27.9743 98.5805 28.1843 98.4205 28.3843C84.1905 46.5243 69.9605 64.6643 55.6905 82.7643C54.9005 83.7643 55.0705 84.3943 55.6205 85.3443C62.0905 96.5043 68.5405 107.674 74.9605 118.864C75.5105 119.824 75.9605 120.244 77.2405 119.984C94.6005 116.514 111.97 113.134 129.34 109.734C134.41 108.744 139.48 107.744 144.75 106.704C129.49 80.2743 114.36 54.0643 99.0605 27.5543V27.5743ZM68.3705 123.234C61.7205 111.714 55.1805 100.394 48.5805 88.9643C37.7905 95.2543 27.0805 101.284 16.5905 107.684C11.2205 110.964 8.44047 116.234 8.01047 122.494C7.51047 129.734 10.2805 135.714 16.2005 139.884C22.5605 144.374 29.5305 144.924 36.5505 141.494C40.4405 139.594 44.1105 137.244 47.8705 135.074C54.6505 131.174 61.4105 127.254 68.3705 123.234ZM104.37 20.8743C104.73 21.5143 105.07 22.1543 105.43 22.7743C110.63 31.7843 115.82 40.7843 121.02 49.7943C131.32 67.6343 141.61 85.4843 151.92 103.314C152.29 103.954 152.92 104.974 153.37 104.944C155.17 104.844 157.11 104.794 158.28 102.974C159.35 101.304 158.98 99.7443 158.06 98.1543C142.98 72.0543 127.92 45.9443 112.83 19.8543C110.86 16.4443 107.88 16.2943 105.43 19.3943C105.06 19.8543 104.73 20.3443 104.35 20.8743H104.37ZM44.9705 145.884C45.3105 146.504 45.5605 146.954 45.8105 147.394C50.2805 155.144 54.7505 162.884 59.2205 170.634C61.0605 173.824 62.8305 177.054 64.7805 180.184C67.2505 184.134 72.0205 185.214 75.7805 182.824C79.5005 180.464 80.5005 175.924 78.1005 171.734C71.8505 160.834 65.5505 149.974 59.2705 139.094C59.0805 138.764 58.8405 138.464 58.5605 138.044C54.0105 140.674 49.5405 143.254 44.9705 145.894V145.884ZM138.35 48.1643C141.55 53.7043 144.57 58.9343 147.74 64.4243C149.33 62.0243 150.8 59.9343 152.12 57.7543C152.37 57.3443 152.25 56.5043 151.99 56.0343C150.64 53.5543 149.22 51.1043 147.76 48.6843C147.49 48.2443 146.92 47.6643 146.51 47.6843C143.9 47.7543 141.3 47.9743 138.35 48.1643ZM69.4405 140.874C71.7905 139.514 73.9705 138.244 76.2705 136.914C74.9005 134.534 73.6305 132.354 72.3205 130.084C69.9605 131.454 67.7805 132.714 65.4905 134.044C66.8305 136.364 68.0605 138.504 69.4305 140.884L69.4405 140.874Z" fill="#E9FF5C"/>
<path d="M175.769 37.7221C174.779 36.7721 173.319 35.9921 172.959 34.8621C172.589 33.7021 173.189 32.1621 173.609 30.8721C173.769 30.3621 174.559 29.9921 175.119 29.6821C182.059 25.8021 188.989 21.9321 195.949 18.0921C198.459 16.7121 200.839 17.2821 201.929 19.3821C202.969 21.4021 202.259 23.5221 199.969 24.8621C197.359 26.3821 194.699 27.8121 192.059 29.2821C187.809 31.6421 183.579 34.0321 179.309 36.3521C178.359 36.8721 177.279 37.1521 175.779 37.7221H175.769Z" fill="#E9FF5C"/>
<path d="M178.879 54.6016C179.859 54.8616 181.439 55.2816 183.019 55.7016C186.629 56.6616 190.259 57.5716 193.849 58.6016C196.369 59.3216 197.549 61.3016 196.969 63.5016C196.389 65.6916 194.349 66.8216 191.849 66.1916C187.019 64.9616 182.199 63.6916 177.399 62.3516C174.919 61.6616 173.679 59.7916 174.089 57.7216C174.489 55.7316 176.099 54.5116 178.879 54.6116V54.6016Z" fill="#E9FF5C"/>
<path d="M151.74 19.2328C151.78 18.9828 151.8 18.4528 151.93 17.9428C153.17 13.3228 154.39 8.69282 155.68 4.08282C156.44 1.35282 158.33 0.0428152 160.51 0.572815C162.86 1.15282 163.99 3.22282 163.28 5.99282C162.05 10.8228 160.77 15.6428 159.39 20.4328C158.7 22.8228 156.95 23.8628 154.8 23.4628C152.88 23.1028 151.67 21.5528 151.72 19.2228L151.74 19.2328Z" fill="#E9FF5C"/>
<path d="M28.6296 135.742C23.5296 135.612 20.1596 133.892 17.7896 130.332C16.4296 128.282 16.7596 126.052 18.5496 124.722C20.2496 123.452 22.3696 123.782 23.9896 125.562C26.4596 128.272 27.6496 128.462 30.8296 126.642C32.5996 125.632 34.3396 124.562 36.1396 123.602C38.4396 122.372 40.7196 122.902 41.8496 124.832C42.9896 126.792 42.3596 129.042 40.1196 130.392C37.6396 131.882 35.1396 133.352 32.5296 134.602C31.0896 135.292 29.4196 135.532 28.6396 135.752L28.6296 135.742Z" fill="#E9FF5C"/>
<path d="M52.2199 115.041C54.3999 115.061 56.0999 116.771 56.0799 118.921C56.0599 121.061 54.2899 122.771 52.1299 122.731C49.9399 122.691 48.2399 120.981 48.2699 118.841C48.2899 116.681 50.0199 115.021 52.2199 115.031V115.041Z" fill="#E9FF5C"/>
</svg>
