<svg width="91" height="91" viewBox="0 0 91 91" fill="none" xmlns="http://www.w3.org/2000/svg">
<path d="M90.7344 45.3698C90.7344 70.4271 70.4219 90.7344 45.3646 90.7344C20.3073 90.7344 0 70.4271 0 45.3698C0 20.3125 20.3073 0 45.3646 0C70.4219 0 90.7344 20.3125 90.7344 45.3698Z" fill="#F68641"/>
<path d="M87.0729 45.3695C87.0729 68.4007 68.401 87.0726 45.3646 87.0726C22.3281 87.0726 3.65625 68.4007 3.65625 45.3695C3.65625 22.333 22.3281 3.66113 45.3646 3.66113C68.401 3.66113 87.0729 22.333 87.0729 45.3695Z" stroke="#FDE8D6" stroke-width="1.33333" stroke-miterlimit="10"/>
<path d="M31.3025 52.8495C31.5838 52.9328 31.74 52.9797 31.8911 53.0214C34.7296 53.8339 37.589 54.5839 40.4015 55.4797C43.3338 56.4172 46.3025 57.0578 49.3754 57.1828C55.714 57.4381 61.6515 55.9276 67.2713 53.0422C67.5942 52.8756 67.9119 52.6933 68.2608 52.5058C68.1723 52.4485 68.1463 52.412 68.1202 52.4068C67.9588 52.4068 67.8025 52.4016 67.6411 52.4068C65.4171 52.4849 63.2452 52.1776 61.1046 51.5943C56.6671 50.3964 52.6671 48.2818 48.8442 45.7766C48.2244 45.3703 47.5056 45.0735 46.7869 44.8912C45.5733 44.5787 44.339 44.7349 43.1411 45.0891C38.4536 46.4641 34.8963 49.5735 31.3025 52.8495ZM41.5786 43.7662C39.3442 42.8808 37.1931 42.0318 35.0369 41.1828C32.9483 40.3599 30.8598 39.5578 28.7817 38.7141C27.74 38.2922 26.8025 38.3756 25.8338 38.9537C23.2452 40.5006 20.6306 42.011 18.0161 43.5214C17.7713 43.6672 17.4275 43.8339 17.1983 43.761C16.9275 43.6776 16.5733 43.3651 16.5421 43.1203C16.5108 42.8391 16.7244 42.412 16.964 42.2453C17.7661 41.6985 18.6306 41.2401 19.4692 40.7453C21.3181 39.6672 23.1827 38.5995 25.0213 37.4953C26.4379 36.636 27.8806 36.5422 29.4067 37.162C31.0369 37.8287 32.6827 38.4797 34.3338 39.0943C34.6775 39.2245 35.115 39.2558 35.4744 39.1776C39.1306 38.3599 42.8181 37.9745 46.5317 38.5891C48.2036 38.8651 49.865 39.3235 51.4796 39.8495C55.7765 41.2506 60.1358 41.7089 64.5629 40.6933C65.7921 40.4068 66.9744 39.8078 68.1046 39.2141C69.7921 38.3287 71.4796 37.9589 73.3025 38.6881C73.4692 38.7558 73.6306 38.8391 73.7869 38.9276C74.24 39.1828 74.365 39.5683 74.1775 40.037C74.0108 40.4537 73.5421 40.5891 73.0629 40.4276C72.5942 40.2662 72.1306 40.0683 71.6515 39.9953C70.7973 39.8703 69.9536 40.0631 69.2504 40.5214C66.5161 42.3078 63.4588 42.8235 60.2765 42.8964C56.7817 42.9797 53.4171 42.3183 50.1254 41.1516C46.6671 39.9224 43.0994 39.7453 39.4848 40.1881C38.9952 40.2506 38.5108 40.3391 38.0213 40.412C38.0108 40.4172 38.0108 40.4485 37.99 40.5214C38.2036 40.6151 38.4275 40.7245 38.6567 40.8131C39.9275 41.3183 41.214 41.787 42.4744 42.3235C43.6879 42.8443 44.9067 43.1776 46.2608 43.136C47.5577 43.0943 48.7192 43.6464 49.8025 44.3756C52.7556 46.3703 55.8911 48.0266 59.2556 49.2349C61.6619 50.0943 64.1306 50.6724 66.6931 50.7297C68.865 50.7766 70.964 50.412 72.9327 49.4433C73.3963 49.2141 73.8233 49.2245 74.1411 49.6776C74.4119 50.0683 74.2661 50.5787 73.8181 50.9172C68.7452 54.6776 63.1254 57.2193 56.9015 58.3339C51.0629 59.3808 45.339 58.886 39.6879 57.0162C34.5473 55.3183 29.3077 53.9433 23.9588 53.0422C21.865 52.6933 19.7556 52.4068 17.615 52.6308C16.8911 52.7089 16.5161 52.4381 16.4692 51.9068C16.4223 51.3495 16.74 51.0578 17.4483 50.9745C19.7296 50.7037 21.9744 51.0422 24.2088 51.3964C25.7973 51.6412 27.3702 51.9849 28.9379 52.3287C29.3077 52.412 29.5108 52.3183 29.7556 52.0683C32.5369 49.2818 35.5421 46.7922 39.0421 44.9485C39.8286 44.5318 40.6515 44.1933 41.5786 43.7662ZM74.2296 68.1464C74.2348 68.9068 73.6254 69.3183 73.0421 69.0578C68.3806 66.9693 63.464 66.8287 58.49 67.0631C53.4223 67.2922 48.5056 68.3808 43.589 69.5214C39.9067 70.3703 36.1671 70.8235 32.3911 71.0474C29.3442 71.2349 26.3077 71.2141 23.2869 70.7922C21.1931 70.5006 19.1515 70.0058 17.1931 69.2089C16.5577 68.9537 16.3181 68.5162 16.5265 68.0214C16.714 67.5578 17.1827 67.4068 17.7869 67.6412C22.214 69.386 26.8338 69.636 31.5108 69.4224C36.9067 69.1828 42.1775 68.1724 47.4275 66.9433C52.7296 65.7089 58.115 65.0943 63.5733 65.3287C66.714 65.4641 69.8181 65.8964 72.7661 67.0995C73.115 67.2401 73.4744 67.3756 73.7817 67.5891C74.0004 67.7453 74.1358 68.0266 74.2296 68.1464ZM55.4744 22.0943C53.8181 22.0787 52.4119 23.4641 52.4067 25.1151C52.4015 26.7453 53.7504 28.1151 55.3963 28.1464C57.0421 28.1828 58.4379 26.8078 58.4588 25.1256C58.4848 23.5162 57.0942 22.1047 55.4744 22.0943ZM55.4431 20.4224C58.0004 20.4276 60.1254 22.5422 60.1411 25.0891C60.1515 27.6828 57.99 29.8443 55.3963 29.8287C52.8494 29.8131 50.7452 27.6881 50.74 25.1308C50.7348 22.5422 52.8598 20.4172 55.4431 20.4224ZM54.5681 17.4537C54.5681 17.2349 54.5369 17.0162 54.5733 16.8026C54.6515 16.3599 54.8546 16.0266 55.365 15.9953C55.9015 15.9589 56.1983 16.2401 56.2765 16.7297C56.3338 17.136 56.3286 17.5578 56.3025 17.9693C56.2661 18.5631 55.9275 18.8808 55.4119 18.8703C54.9119 18.8599 54.5942 18.511 54.5629 17.9328C54.5577 17.7714 54.5629 17.6151 54.5629 17.4537H54.5681ZM54.5317 32.8078C54.5681 32.5162 54.5161 32.162 54.6619 31.9485C54.839 31.6881 55.1879 31.4016 55.4536 31.4068C55.7192 31.412 56.1411 31.7245 56.2036 31.9797C56.3338 32.4797 56.3077 33.037 56.2556 33.5578C56.2088 34.0266 55.8858 34.2818 55.3858 34.261C54.8754 34.2349 54.6567 33.9068 54.5733 33.4641C54.5369 33.2506 54.5681 33.0266 54.5681 32.8131C54.5577 32.8078 54.5421 32.8078 54.5317 32.8078ZM63.1358 25.9849C62.8702 25.9693 62.6306 25.9745 62.3963 25.9381C61.9796 25.8651 61.7192 25.6151 61.6983 25.1776C61.6775 24.7089 61.9067 24.3808 62.3546 24.3287C62.8598 24.2662 63.3806 24.2714 63.8858 24.3235C64.339 24.3756 64.5838 24.7037 64.5629 25.1568C64.5473 25.5891 64.3025 25.8599 63.8754 25.9276C63.6254 25.9745 63.365 25.9693 63.1358 25.9849ZM47.7296 25.9797C47.5108 25.9693 47.2921 25.9797 47.0733 25.9485C46.6046 25.8756 46.3181 25.6151 46.3181 25.1151C46.3233 24.6099 46.6306 24.3443 47.089 24.2974C47.5213 24.2506 47.964 24.2558 48.3963 24.2922C48.8598 24.3391 49.1723 24.5943 49.1827 25.1047C49.1879 25.636 48.8806 25.8964 48.3806 25.9537C48.1671 25.9797 47.9483 25.9589 47.7296 25.9589V25.9797ZM62.2192 19.1933C62.1046 19.4433 62.0629 19.6308 61.9536 19.7558C61.6306 20.1099 61.3025 20.4589 60.9431 20.7662C60.589 21.0578 60.1931 21.0214 59.865 20.7089C59.5317 20.386 59.49 19.9901 59.7817 19.636C60.0994 19.2558 60.4379 18.8756 60.8442 18.5995C61.0577 18.4589 61.464 18.4485 61.7088 18.5526C61.9379 18.6516 62.0629 18.9849 62.2192 19.1933ZM51.3338 30.037C51.2192 30.3078 51.1827 30.5214 51.0629 30.6568C50.7661 30.9953 50.4431 31.3235 50.0994 31.6203C49.7296 31.9381 49.3286 31.912 48.9848 31.5735C48.6619 31.2558 48.6306 30.8547 48.9223 30.5058C49.2348 30.1308 49.5786 29.7558 49.9796 29.4797C50.1775 29.3391 50.5629 29.3235 50.7921 29.4224C51.0213 29.5214 51.1619 29.8287 51.3338 30.037ZM60.3858 29.2245C60.6515 29.3495 60.8546 29.4016 60.9952 29.5214C61.3181 29.8078 61.6358 30.1151 61.9171 30.4433C62.2296 30.8026 62.24 31.2141 61.9067 31.5631C61.5733 31.9068 61.1619 31.9485 60.7869 31.6308C60.4327 31.3183 60.0629 31.0006 59.8077 30.6099C59.6619 30.3912 59.6515 29.9901 59.7556 29.7453C59.8494 29.5214 60.1723 29.3912 60.3858 29.2245ZM50.5213 21.0266C50.2608 20.912 50.0525 20.8651 49.9119 20.7453C49.5838 20.4641 49.2661 20.1568 48.9848 19.8287C48.6671 19.4693 48.6619 19.0578 49.0004 18.7089C49.3598 18.3391 49.7817 18.3495 50.1671 18.6828C50.4796 18.9537 50.8233 19.2297 51.0317 19.5735C51.1775 19.8235 51.2296 20.2193 51.1411 20.4953C51.0733 20.7193 50.7296 20.8599 50.5213 21.0266Z" fill="#FDE8D6"/>
</svg>
